<svg width="46" height="42" viewBox="0 0 46 42" fill="none" xmlns="http://www.w3.org/2000/svg">
<path d="M30.4347 1.94128C30.4926 1.75296 30.5129 1.55509 30.4943 1.35894C30.4758 1.1628 30.4188 0.972232 30.3266 0.798122C30.2343 0.624012 30.1087 0.469769 29.9569 0.344199C29.8051 0.218629 29.63 0.124192 29.4417 0.066279C29.2534 0.00836604 29.0555 -0.0118882 28.8594 0.00667244C28.6632 0.0252331 28.4727 0.0822453 28.2986 0.174454C28.1245 0.266663 27.9702 0.392262 27.8447 0.54408C27.7191 0.695899 27.6246 0.870964 27.5667 1.05928L15.5667 40.0593C15.4498 40.4396 15.4887 40.8508 15.6749 41.2024C15.8611 41.5541 16.1794 41.8173 16.5597 41.9343C16.9401 42.0512 17.3513 42.0123 17.7029 41.8261C18.0545 41.6399 18.3178 41.3216 18.4347 40.9413L30.4347 1.94128ZM13.5627 9.43828C13.7024 9.57762 13.8132 9.74314 13.8889 9.92538C13.9645 10.1076 14.0034 10.303 14.0034 10.5003C14.0034 10.6976 13.9645 10.8929 13.8889 11.0752C13.8132 11.2574 13.7024 11.4229 13.5627 11.5623L4.12173 21.0003L13.5627 30.4383C13.8444 30.7199 14.0026 31.102 14.0026 31.5003C14.0026 31.8986 13.8444 32.2806 13.5627 32.5623C13.2811 32.8439 12.8991 33.0022 12.5007 33.0022C12.1024 33.0022 11.7204 32.8439 11.4387 32.5623L0.938728 22.0623C0.799039 21.9229 0.68821 21.7574 0.612591 21.5752C0.536971 21.3929 0.498047 21.1976 0.498047 21.0003C0.498047 20.803 0.536971 20.6076 0.612591 20.4254C0.68821 20.2431 0.799039 20.0776 0.938728 19.9383L11.4387 9.43828C11.5781 9.29859 11.7436 9.18776 11.9258 9.11214C12.1081 9.03652 12.3034 8.9976 12.5007 8.9976C12.698 8.9976 12.8934 9.03652 13.0756 9.11214C13.2579 9.18776 13.4234 9.29859 13.5627 9.43828ZM32.4387 9.43828C32.299 9.57762 32.1882 9.74314 32.1126 9.92538C32.037 10.1076 31.998 10.303 31.998 10.5003C31.998 10.6976 32.037 10.8929 32.1126 11.0752C32.1882 11.2574 32.299 11.4229 32.4387 11.5623L41.8797 21.0003L32.4387 30.4383C32.2993 30.5777 32.1886 30.7433 32.1132 30.9255C32.0377 31.1077 31.9988 31.303 31.9988 31.5003C31.9988 31.6975 32.0377 31.8928 32.1132 32.075C32.1886 32.2572 32.2993 32.4228 32.4387 32.5623C32.5782 32.7017 32.7438 32.8124 32.926 32.8879C33.1082 32.9633 33.3035 33.0022 33.5007 33.0022C33.698 33.0022 33.8933 32.9633 34.0755 32.8879C34.2577 32.8124 34.4233 32.7017 34.5627 32.5623L45.0627 22.0623C45.2024 21.9229 45.3132 21.7574 45.3889 21.5752C45.4645 21.3929 45.5034 21.1976 45.5034 21.0003C45.5034 20.803 45.4645 20.6076 45.3889 20.4254C45.3132 20.2431 45.2024 20.0776 45.0627 19.9383L34.5627 9.43828C34.4234 9.29859 34.2579 9.18776 34.0756 9.11214C33.8934 9.03652 33.698 8.9976 33.5007 8.9976C33.3034 8.9976 33.1081 9.03652 32.9258 9.11214C32.7436 9.18776 32.5781 9.29859 32.4387 9.43828Z" fill="#00AB56"/>
</svg>
