<svg width="62" height="62" viewBox="0 0 62 62" fill="none" xmlns="http://www.w3.org/2000/svg">
<circle cx="31" cy="31" r="31" fill="#E9FFFF"/>
<g clip-path="url(#clip0_264_711)">
<path d="M42.25 19.75H19.75C18.375 19.75 17.25 20.875 17.25 22.25V26H19.75V22.25H42.25V39.75H33.5V42.25H42.25C43.625 42.25 44.75 41.125 44.75 39.75V22.25C44.75 20.875 43.625 19.75 42.25 19.75ZM17.25 38.5V42.25H21C21 40.175 19.325 38.5 17.25 38.5ZM17.25 33.5V36C20.7 36 23.5 38.8 23.5 42.25H26C26 37.4125 22.0875 33.5 17.25 33.5ZM17.25 28.5V31C23.4625 31 28.5 36.0375 28.5 42.25H31C31 34.65 24.8375 28.5 17.25 28.5Z" fill="#00BEC0"/>
</g>
<defs>
<clipPath id="clip0_264_711">
<rect width="30" height="30" fill="white" transform="translate(16 16)"/>
</clipPath>
</defs>
</svg>
