<svg width="67" height="28" viewBox="0 0 67 28" fill="none" xmlns="http://www.w3.org/2000/svg">
<path d="M1.49219 27.0917C12.4194 27.6756 22.7365 23.7369 31.2261 16.7992C34.1501 14.4097 37.0555 11.2397 38.7655 7.81967C39.5409 6.26893 40.5752 3.2167 39.2526 1.78393C37.0566 -0.594982 34.1699 3.80854 33.2169 5.44774C31.4941 8.4108 32.7885 14.1802 35.8641 15.8461C41.5733 18.9386 50.0351 18.2001 56.3009 17.9216C58.8027 17.8104 61.3487 17.1804 63.8191 17.1804C64.7776 17.1804 62.4614 15.9775 62.1037 15.6555C59.9933 13.7561 59.8816 13.7914 62.4849 15.4649C62.8454 15.6967 65.4922 17.1224 65.4922 17.371C65.4922 17.5444 60.9901 20.8596 60.5789 21.3736" stroke="#DB4437" stroke-width="1.29074" stroke-linecap="round"/>
</svg>
