<svg width="28" height="24" viewBox="0 0 28 24" fill="none" xmlns="http://www.w3.org/2000/svg">
<path d="M25.25 0.75H2.75C1.375 0.75 0.25 1.875 0.25 3.25V7H2.75V3.25H25.25V20.75H16.5V23.25H25.25C26.625 23.25 27.75 22.125 27.75 20.75V3.25C27.75 1.875 26.625 0.75 25.25 0.75ZM0.25 19.5V23.25H4C4 21.175 2.325 19.5 0.25 19.5ZM0.25 14.5V17C3.7 17 6.5 19.8 6.5 23.25H9C9 18.4125 5.0875 14.5 0.25 14.5ZM0.25 9.5V12C6.4625 12 11.5 17.0375 11.5 23.25H14C14 15.65 7.8375 9.5 0.25 9.5Z" fill="#00BEC0"/>
</svg>
