<svg width="28" height="30" viewBox="0 0 28 30" fill="none" xmlns="http://www.w3.org/2000/svg">
<path d="M4.625 18.9225V10.3781L10.4375 6.94312L9.48406 5.32875L3.21031 9.03656C3.07005 9.1195 2.95383 9.23757 2.87311 9.37911C2.79239 9.52066 2.74996 9.6808 2.75 9.84375V18.9225C2.20322 19.1152 1.72948 19.4724 1.39377 19.9451C1.05807 20.4178 0.876858 20.9827 0.875 21.5625C0.875 23.1131 2.13687 24.375 3.6875 24.375C5.23812 24.375 6.5 23.1131 6.5 21.5625C6.49814 20.9827 6.31693 20.4178 5.98123 19.9451C5.64552 19.4724 5.17178 19.1152 4.625 18.9225ZM3.6875 22.5C3.44611 22.4892 3.21819 22.3857 3.0512 22.2111C2.8842 22.0364 2.791 21.8041 2.791 21.5625C2.791 21.3209 2.8842 21.0886 3.0512 20.9139C3.21819 20.7393 3.44611 20.6358 3.6875 20.625C3.92889 20.6358 4.15681 20.7393 4.3238 20.9139C4.4908 21.0886 4.584 21.3209 4.584 21.5625C4.584 21.8041 4.4908 22.0364 4.3238 22.2111C4.15681 22.3857 3.92889 22.4892 3.6875 22.5ZM24.3125 18.75C22.7619 18.75 21.5 20.0119 21.5 21.5625C21.5 21.8934 21.5675 22.2066 21.6734 22.5019L14 27.0356L7.99625 23.4881L7.04281 25.1025L13.5228 28.9312C13.6671 29.0171 13.8319 29.0625 13.9999 29.0627C14.1678 29.0629 14.3327 29.0178 14.4772 28.9322L22.8772 23.9681C23.2991 24.2203 23.7866 24.375 24.3125 24.375C25.8631 24.375 27.125 23.1131 27.125 21.5625C27.125 20.0119 25.8631 18.75 24.3125 18.75ZM24.3125 22.5C24.0711 22.4892 23.8432 22.3857 23.6762 22.2111C23.5092 22.0364 23.416 21.8041 23.416 21.5625C23.416 21.3209 23.5092 21.0886 23.6762 20.9139C23.8432 20.7393 24.0711 20.6358 24.3125 20.625C24.5539 20.6358 24.7818 20.7393 24.9488 20.9139C25.1158 21.0886 25.209 21.3209 25.209 21.5625C25.209 21.8041 25.1158 22.0364 24.9488 22.2111C24.7818 22.3857 24.5539 22.4892 24.3125 22.5ZM14 6.5625C14.6853 6.5625 15.305 6.30656 15.7934 5.89875L23.375 10.3791V16.875H25.25V9.84375C25.25 9.6808 25.2076 9.52066 25.1269 9.37911C25.0462 9.23757 24.9299 9.1195 24.7897 9.03656L16.7581 4.29094C16.7919 4.11562 16.8125 3.93562 16.8125 3.75C16.8125 2.19937 15.5506 0.9375 14 0.9375C12.4494 0.9375 11.1875 2.19937 11.1875 3.75C11.1875 5.30062 12.4494 6.5625 14 6.5625ZM14 2.8125C14.1857 2.81231 14.3673 2.86722 14.5217 2.97026C14.6762 3.07331 14.7966 3.21986 14.8678 3.39138C14.9389 3.56289 14.9576 3.75166 14.9214 3.93379C14.8852 4.11591 14.7958 4.28321 14.6645 4.41451C14.5332 4.54581 14.3659 4.63521 14.1838 4.67139C14.0017 4.70757 13.8129 4.6889 13.6414 4.61776C13.4699 4.54662 13.3233 4.42619 13.2203 4.27172C13.1172 4.11725 13.0623 3.93568 13.0625 3.75C13.0625 3.2325 13.4834 2.8125 14 2.8125Z" fill="#5222D0"/>
</svg>
