<svg width="42" height="42" viewBox="0 0 42 42" fill="none" xmlns="http://www.w3.org/2000/svg">
<path d="M18 29.9186C16.96 29.8032 15.937 29.5666 14.952 29.2136C14.982 28.5056 15 27.7676 15 26.9996V25.9886C15.93 26.4326 16.941 26.7416 18 26.8946V19.4996C18 18.3061 18.4741 17.1615 19.318 16.3176C20.1619 15.4737 21.3065 14.9996 22.5 14.9996H29.895C29.6558 13.3372 29.0212 11.7565 28.0447 10.3901C27.0682 9.02375 25.7782 7.91153 24.2829 7.14685C22.7876 6.38216 21.1307 5.98731 19.4513 5.99544C17.7718 6.00357 16.1188 6.41444 14.631 7.19357C14.3937 6.21237 14.0029 5.27481 13.473 4.41557C15.4178 3.44484 17.5683 2.95807 19.7415 2.99663C21.9148 3.03519 24.0466 3.59795 25.9558 4.63705C27.8649 5.67616 29.4949 7.16088 30.7072 8.96501C31.9195 10.7691 32.6783 12.8393 32.919 14.9996H37.5C38.6935 14.9996 39.8381 15.4737 40.682 16.3176C41.5259 17.1615 42 18.3061 42 19.4996V34.4996C42 35.693 41.5259 36.8376 40.682 37.6815C39.8381 38.5255 38.6935 38.9996 37.5 38.9996H22.5C21.3065 38.9996 20.1619 38.5255 19.318 37.6815C18.4741 36.8376 18 35.693 18 34.4996V29.9186ZM32.919 17.9996C32.5781 21.0434 31.2128 23.8809 29.0471 26.0467C26.8813 28.2124 24.0438 29.5777 21 29.9186V34.4996C21 34.8974 21.158 35.2789 21.4393 35.5602C21.7206 35.8415 22.1022 35.9996 22.5 35.9996H37.5C37.8978 35.9996 38.2794 35.8415 38.5607 35.5602C38.842 35.2789 39 34.8974 39 34.4996V19.4996C39 19.1017 38.842 18.7202 38.5607 18.4389C38.2794 18.1576 37.8978 17.9996 37.5 17.9996H32.919ZM29.895 17.9996H22.5C22.1022 17.9996 21.7206 18.1576 21.4393 18.4389C21.158 18.7202 21 19.1017 21 19.4996V26.8946C23.2439 26.5702 25.3227 25.5287 26.9259 23.9255C28.5291 22.3223 29.5707 20.2435 29.895 17.9996ZM11.385 19.6826C11.07 18.5246 10.56 17.3636 9.684 16.4726C11.1 15.1316 12 12.9956 12 10.4996C12 8.40857 11.577 6.97157 10.812 5.82257C10.4726 5.32839 10.0802 4.87269 9.642 4.46357C9.47404 4.30141 9.30403 4.1414 9.132 3.98357C8.949 3.81257 8.781 3.65657 8.562 3.43757C8.112 2.98757 8.061 2.62757 8.061 2.43857C8.0615 2.33351 8.07871 2.22921 8.112 2.12957C8.24916 1.83295 8.2857 1.49964 8.21606 1.18035C8.14642 0.861058 7.97441 0.573243 7.72619 0.360676C7.47797 0.148109 7.16712 0.022422 6.84091 0.00272739C6.51471 -0.0169672 6.19099 0.0704088 5.919 0.251568L5.913 0.254568L5.904 0.260568L5.877 0.278568L5.787 0.338568C5.337 0.659541 4.90345 1.00298 4.488 1.36757C3.738 2.03057 2.76 3.01157 2.067 4.18157C1.46205 5.15155 0.976531 6.19109 0.621 7.27757C0.261 8.35457 0 9.52157 0 10.4996C0 12.9956 0.9 15.1286 2.316 16.4756C1.44 17.3636 0.93 18.5246 0.615 19.6856C1.3411e-07 21.9416 0 24.7316 0 26.8886V26.9996C0 33.1736 1.155 36.8396 2.463 39.0206C3.12 40.1126 3.804 40.8176 4.377 41.2616C4.68232 41.4997 5.0146 41.7011 5.367 41.8616C5.57079 41.936 5.78373 41.9824 6 41.9996C6.252 41.9996 6.633 41.8616 6.633 41.8616C6.9854 41.7011 7.31768 41.4997 7.623 41.2616C8.193 40.8176 8.883 40.1126 9.537 39.0206C10.845 36.8426 12 33.1736 12 26.9996V26.8916C12 24.7316 12 21.9446 11.385 19.6826ZM4.461 18.5726C4.8 18.2306 5.253 17.9996 6 17.9996C6.75 17.9996 7.2 18.2336 7.539 18.5696C7.917 18.9506 8.244 19.5686 8.49 20.4716C8.988 22.3046 9 24.7106 9 26.9996C9 32.8256 7.905 35.9096 6.963 37.4786C6.603 38.0786 6.264 38.4656 6 38.7086C5.6228 38.3459 5.2986 37.9318 5.037 37.4786C4.095 35.9066 3 32.8256 3 26.9996C3 24.7106 3.012 22.3046 3.51 20.4716C3.756 19.5716 4.083 18.9506 4.461 18.5696V18.5726ZM6 14.9996C4.845 14.9996 3 13.7156 3 10.4996C3 9.98057 3.156 9.15857 3.468 8.22857C3.75232 7.35058 4.1443 6.51118 4.635 5.72957C4.896 5.28857 5.235 4.85957 5.601 4.46657C5.808 4.83257 6.081 5.20157 6.441 5.56157C6.66 5.78057 6.945 6.04457 7.188 6.27257L7.56 6.62057C7.875 6.92657 8.118 7.19357 8.313 7.49057C8.673 8.02757 9 8.84057 9 10.4996C9 13.7156 7.155 14.9996 6 14.9996Z" fill="#0B74E5"/>
</svg>
