<svg width="62" height="62" viewBox="0 0 62 62" fill="none" xmlns="http://www.w3.org/2000/svg">
<circle cx="31" cy="31" r="31" fill="#E5E9FE"/>
<g clip-path="url(#clip0_264_717)">
<path d="M26.2537 23.5002C26.2537 22.5066 26.6484 21.5537 27.351 20.8512C28.0536 20.1486 29.0064 19.7539 30 19.7539C30.9936 19.7539 31.9464 20.1486 32.649 20.8512C33.3516 21.5537 33.7463 22.5066 33.7463 23.5002C33.7463 24.4937 33.3516 25.4466 32.649 26.1492C31.9464 26.8517 30.9936 27.2464 30 27.2464C29.0064 27.2464 28.0536 26.8517 27.351 26.1492C26.6484 25.4466 26.2537 24.4937 26.2537 23.5002ZM30 21.6289C29.7543 21.6289 29.5109 21.6773 29.2839 21.7713C29.0569 21.8654 28.8506 22.0032 28.6768 22.177C28.5031 22.3507 28.3652 22.557 28.2712 22.7841C28.1772 23.0111 28.1287 23.2544 28.1287 23.5002C28.1287 23.7459 28.1772 23.9892 28.2712 24.2163C28.3652 24.4433 28.5031 24.6496 28.6768 24.8233C28.8506 24.9971 29.0569 25.1349 29.2839 25.229C29.5109 25.323 29.7543 25.3714 30 25.3714C30.4963 25.3714 30.9722 25.1743 31.3232 24.8233C31.6741 24.4724 31.8713 23.9964 31.8713 23.5002C31.8713 23.0039 31.6741 22.5279 31.3232 22.177C30.9722 21.8261 30.4963 21.6289 30 21.6289ZM35.625 24.4377C35.625 24.0683 35.6977 23.7026 35.8391 23.3614C35.9804 23.0201 36.1876 22.7101 36.4488 22.4489C36.7099 22.1878 37.02 21.9806 37.3612 21.8392C37.7024 21.6979 38.0682 21.6252 38.4375 21.6252C38.8068 21.6252 39.1726 21.6979 39.5138 21.8392C39.855 21.9806 40.1651 22.1878 40.4262 22.4489C40.6874 22.7101 40.8946 23.0201 41.0359 23.3614C41.1773 23.7026 41.25 24.0683 41.25 24.4377C41.25 25.1836 40.9537 25.8989 40.4262 26.4264C39.8988 26.9538 39.1834 27.2502 38.4375 27.2502C37.6916 27.2502 36.9762 26.9538 36.4488 26.4264C35.9213 25.8989 35.625 25.1836 35.625 24.4377ZM38.4375 23.5002C38.1889 23.5002 37.9504 23.5989 37.7746 23.7747C37.5988 23.9506 37.5 24.189 37.5 24.4377C37.5 24.6863 37.5988 24.9248 37.7746 25.1006C37.9504 25.2764 38.1889 25.3752 38.4375 25.3752C38.6861 25.3752 38.9246 25.2764 39.1004 25.1006C39.2762 24.9248 39.375 24.6863 39.375 24.4377C39.375 24.189 39.2762 23.9506 39.1004 23.7747C38.9246 23.5989 38.6861 23.5002 38.4375 23.5002ZM21.5625 21.6252C20.8166 21.6252 20.1012 21.9215 19.5738 22.4489C19.0463 22.9764 18.75 23.6917 18.75 24.4377C18.75 25.1836 19.0463 25.8989 19.5738 26.4264C20.1012 26.9538 20.8166 27.2502 21.5625 27.2502C22.3084 27.2502 23.0238 26.9538 23.5512 26.4264C24.0787 25.8989 24.375 25.1836 24.375 24.4377C24.375 23.6917 24.0787 22.9764 23.5512 22.4489C23.0238 21.9215 22.3084 21.6252 21.5625 21.6252ZM20.625 24.4377C20.625 24.189 20.7238 23.9506 20.8996 23.7747C21.0754 23.5989 21.3139 23.5002 21.5625 23.5002C21.8111 23.5002 22.0496 23.5989 22.2254 23.7747C22.4012 23.9506 22.5 24.189 22.5 24.4377C22.5 24.6863 22.4012 24.9248 22.2254 25.1006C22.0496 25.2764 21.8111 25.3752 21.5625 25.3752C21.3139 25.3752 21.0754 25.2764 20.8996 25.1006C20.7238 24.9248 20.625 24.6863 20.625 24.4377ZM23.0025 29.1252C22.6725 29.6949 22.4991 30.3418 22.5 31.0002H18.75V35.6877C18.7498 36.154 18.8657 36.6131 19.0871 37.0236C19.3084 37.4341 19.6284 37.7831 20.0182 38.0392C20.408 38.2953 20.8554 38.4504 21.32 38.4906C21.7847 38.5308 22.252 38.4548 22.68 38.2695C22.8188 38.8902 23.0363 39.4827 23.3175 40.0358C22.6059 40.3231 21.8346 40.4313 21.0714 40.3509C20.3081 40.2705 19.5763 40.0039 18.9402 39.5746C18.3041 39.1453 17.7831 38.5663 17.423 37.8886C17.0629 37.2109 16.8747 36.4551 16.875 35.6877V31.0002C16.875 30.5029 17.0725 30.026 17.4242 29.6743C17.7758 29.3227 18.2527 29.1252 18.75 29.1252H23.0025ZM36.6825 40.0358C37.3941 40.3231 38.1654 40.4313 38.9286 40.3509C39.6919 40.2705 40.4237 40.0039 41.0598 39.5746C41.6959 39.1453 42.2169 38.5663 42.577 37.8886C42.9371 37.2109 43.1253 36.4551 43.125 35.6877V31.0002C43.125 30.5029 42.9275 30.026 42.5758 29.6743C42.2242 29.3227 41.7473 29.1252 41.25 29.1252H36.9975C37.3162 29.6764 37.5 30.3158 37.5 31.0002H41.25V35.6877C41.2502 36.154 41.1343 36.6131 40.9129 37.0236C40.6916 37.4341 40.3716 37.7831 39.9818 38.0392C39.592 38.2953 39.1446 38.4504 38.68 38.4906C38.2153 38.5308 37.748 38.4548 37.32 38.2695C37.1794 38.8902 36.9638 39.4827 36.6825 40.0358ZM26.25 29.1233C25.7527 29.1233 25.2758 29.3208 24.9242 29.6725C24.5725 30.0241 24.375 30.501 24.375 30.9983V36.6252C24.375 38.117 24.9676 39.5477 26.0225 40.6026C27.0774 41.6575 28.5082 42.2502 30 42.2502C31.4918 42.2502 32.9226 41.6575 33.9775 40.6026C35.0324 39.5477 35.625 38.117 35.625 36.6252V31.0002C35.625 30.5029 35.4275 30.026 35.0758 29.6743C34.7242 29.3227 34.2473 29.1252 33.75 29.1252H26.25V29.1233ZM26.25 30.9983H33.75V36.6252C33.75 37.6197 33.3549 38.5735 32.6516 39.2768C31.9484 39.9801 30.9946 40.3752 30 40.3752C29.0054 40.3752 28.0516 39.9801 27.3483 39.2768C26.6451 38.5735 26.25 37.6197 26.25 36.6252V31.0002V30.9983Z" fill="#6C7FD8"/>
</g>
<defs>
<clipPath id="clip0_264_717">
<rect width="30" height="30" fill="white" transform="translate(16 16)"/>
</clipPath>
</defs>
</svg>
