<svg width="28" height="24" viewBox="0 0 28 24" fill="none" xmlns="http://www.w3.org/2000/svg">
<path d="M10.2537 4.50016C10.2537 3.50659 10.6484 2.55372 11.351 1.85116C12.0536 1.1486 13.0064 0.753906 14 0.753906C14.9936 0.753906 15.9464 1.1486 16.649 1.85116C17.3516 2.55372 17.7463 3.50659 17.7463 4.50016C17.7463 5.49372 17.3516 6.4466 16.649 7.14915C15.9464 7.85171 14.9936 8.24641 14 8.24641C13.0064 8.24641 12.0536 7.85171 11.351 7.14915C10.6484 6.4466 10.2537 5.49372 10.2537 4.50016V4.50016ZM14 2.62891C13.7543 2.62891 13.5109 2.67731 13.2839 2.77135C13.0569 2.86539 12.8506 3.00322 12.6768 3.17698C12.5031 3.35074 12.3652 3.55703 12.2712 3.78406C12.1772 4.01109 12.1287 4.25442 12.1287 4.50016C12.1287 4.74589 12.1772 4.98922 12.2712 5.21625C12.3652 5.44328 12.5031 5.64957 12.6768 5.82333C12.8506 5.99709 13.0569 6.13493 13.2839 6.22897C13.5109 6.323 13.7543 6.37141 14 6.37141C14.4963 6.37141 14.9722 6.17426 15.3232 5.82333C15.6741 5.4724 15.8713 4.99644 15.8713 4.50016C15.8713 4.00387 15.6741 3.52791 15.3232 3.17698C14.9722 2.82605 14.4963 2.62891 14 2.62891V2.62891ZM19.625 5.43766C19.625 5.06831 19.6977 4.70259 19.8391 4.36136C19.9804 4.02013 20.1876 3.71008 20.4488 3.44892C20.7099 3.18775 21.02 2.98059 21.3612 2.83924C21.7024 2.6979 22.0682 2.62516 22.4375 2.62516C22.8068 2.62516 23.1726 2.6979 23.5138 2.83924C23.855 2.98059 24.1651 3.18775 24.4262 3.44892C24.6874 3.71008 24.8946 4.02013 25.0359 4.36136C25.1773 4.70259 25.25 5.06831 25.25 5.43766C25.25 6.18358 24.9537 6.89895 24.4262 7.42639C23.8988 7.95384 23.1834 8.25016 22.4375 8.25016C21.6916 8.25016 20.9762 7.95384 20.4488 7.42639C19.9213 6.89895 19.625 6.18358 19.625 5.43766ZM22.4375 4.50016C22.1889 4.50016 21.9504 4.59893 21.7746 4.77474C21.5988 4.95056 21.5 5.18902 21.5 5.43766C21.5 5.6863 21.5988 5.92475 21.7746 6.10057C21.9504 6.27638 22.1889 6.37516 22.4375 6.37516C22.6861 6.37516 22.9246 6.27638 23.1004 6.10057C23.2762 5.92475 23.375 5.6863 23.375 5.43766C23.375 5.18902 23.2762 4.95056 23.1004 4.77474C22.9246 4.59893 22.6861 4.50016 22.4375 4.50016ZM5.5625 2.62516C4.81658 2.62516 4.10121 2.92147 3.57376 3.44892C3.04632 3.97636 2.75 4.69173 2.75 5.43766C2.75 6.18358 3.04632 6.89895 3.57376 7.42639C4.10121 7.95384 4.81658 8.25016 5.5625 8.25016C6.30842 8.25016 7.02379 7.95384 7.55124 7.42639C8.07868 6.89895 8.375 6.18358 8.375 5.43766C8.375 4.69173 8.07868 3.97636 7.55124 3.44892C7.02379 2.92147 6.30842 2.62516 5.5625 2.62516ZM4.625 5.43766C4.625 5.18902 4.72377 4.95056 4.89959 4.77474C5.0754 4.59893 5.31386 4.50016 5.5625 4.50016C5.81114 4.50016 6.0496 4.59893 6.22541 4.77474C6.40123 4.95056 6.5 5.18902 6.5 5.43766C6.5 5.6863 6.40123 5.92475 6.22541 6.10057C6.0496 6.27638 5.81114 6.37516 5.5625 6.37516C5.31386 6.37516 5.0754 6.27638 4.89959 6.10057C4.72377 5.92475 4.625 5.6863 4.625 5.43766ZM7.0025 10.1252C6.67251 10.6949 6.49914 11.3418 6.5 12.0002H2.75V16.6877C2.74985 17.154 2.86568 17.6131 3.08706 18.0236C3.30845 18.4341 3.62844 18.7831 4.01823 19.0392C4.40802 19.2953 4.85537 19.4504 5.32002 19.4906C5.78466 19.5308 6.25201 19.4548 6.68 19.2695C6.81875 19.8902 7.03625 20.4827 7.3175 21.0358C6.60587 21.3231 5.83458 21.4313 5.07136 21.3509C4.30813 21.2705 3.57633 21.0039 2.9402 20.5746C2.30408 20.1453 1.7831 19.5663 1.42301 18.8886C1.06292 18.2109 0.874745 17.4551 0.875 16.6877V12.0002C0.875 11.5029 1.07254 11.026 1.42417 10.6743C1.77581 10.3227 2.25272 10.1252 2.75 10.1252H7.0025ZM20.6825 21.0358C21.3941 21.3231 22.1654 21.4313 22.9286 21.3509C23.6919 21.2705 24.4237 21.0039 25.0598 20.5746C25.6959 20.1453 26.2169 19.5663 26.577 18.8886C26.9371 18.2109 27.1253 17.4551 27.125 16.6877V12.0002C27.125 11.5029 26.9275 11.026 26.5758 10.6743C26.2242 10.3227 25.7473 10.1252 25.25 10.1252H20.9975C21.3163 10.6764 21.5 11.3158 21.5 12.0002H25.25V16.6877C25.2502 17.154 25.1343 17.6131 24.9129 18.0236C24.6916 18.4341 24.3716 18.7831 23.9818 19.0392C23.592 19.2953 23.1446 19.4504 22.68 19.4906C22.2153 19.5308 21.748 19.4548 21.32 19.2695C21.1794 19.8902 20.9638 20.4827 20.6825 21.0358V21.0358ZM10.25 10.1233C9.75272 10.1233 9.27581 10.3208 8.92418 10.6725C8.57254 11.0241 8.375 11.501 8.375 11.9983V17.6252C8.375 19.117 8.96763 20.5477 10.0225 21.6026C11.0774 22.6575 12.5082 23.2502 14 23.2502C15.4918 23.2502 16.9226 22.6575 17.9775 21.6026C19.0324 20.5477 19.625 19.117 19.625 17.6252V12.0002C19.625 11.5029 19.4275 11.026 19.0758 10.6743C18.7242 10.3227 18.2473 10.1252 17.75 10.1252H10.25V10.1233ZM10.25 11.9983H17.75V17.6252C17.75 18.6197 17.3549 19.5735 16.6516 20.2768C15.9484 20.9801 14.9946 21.3752 14 21.3752C13.0054 21.3752 12.0516 20.9801 11.3483 20.2768C10.6451 19.5735 10.25 18.6197 10.25 17.6252V12.0002V11.9983Z" fill="#6C7FD8"/>
</svg>
