<svg width="31" height="309" viewBox="0 0 31 309" fill="none" xmlns="http://www.w3.org/2000/svg">
<path d="M161 425L-6.10352e-05 425L-1.3652e-05 -117L161 -117L161 425Z" fill="#F2EAC5"/>
<path d="M80.5 425C36.0411 425 1.21825e-05 303.669 2.72103e-05 154L-nan -nanL2.72103e-05 154C4.22382e-05 4.33084 36.0412 -117 80.5001 -117L161 -117L161 425L80.5 425Z" fill="#D2A24C"/>
<path d="M30.1875 154C30.1875 60.4568 52.7132 -15.375 80.5 -15.375C108.287 -15.375 130.813 60.4568 130.813 154C130.813 247.543 108.287 323.375 80.5 323.375C52.7132 323.375 30.1875 247.543 30.1875 154Z" fill="#F2EAC5"/>
</svg>
