<svg width="401" height="349" viewBox="0 0 401 349" fill="none" xmlns="http://www.w3.org/2000/svg">
<g filter="url(#filter0_d_223_12315)">
<path d="M231.112 243.766C237.612 241.735 243.444 239.661 250.46 235.723C257.696 231.662 289.84 212.333 294.02 178.881C295.76 164.95 292.024 153.589 291.356 151.634C290.064 147.848 287.384 140.245 280.62 132.725C272.34 123.515 262.892 119.945 257.352 117.926C245.696 113.677 235.92 113.901 231.264 114.053C226.24 114.217 217.372 114.584 207.292 118.986C200.716 121.856 196.628 125.13 190.604 130.023C181.06 137.782 179.804 141.012 163.108 157.035C158.524 161.432 154.756 164.898 149.004 168.312C145.016 170.678 141.792 172.002 135.844 174.416C121.224 180.353 117.061 181.555 112.277 184.897C102.973 191.401 103.576 198.494 103.176 200.021C101.644 205.809 102.248 210.546 102.468 212.001C103.688 220.025 108.012 225.269 110.696 228.443C115.948 234.648 121.66 237.818 123.856 239.013C126.092 240.228 129.744 241.963 134.64 243.766H231.112Z" fill="#EFEDEF"/>
<path d="M206.686 116.321C217.184 111.74 226.42 111.353 231.656 111.183C236.503 111.025 246.686 110.793 258.83 115.22C264.601 117.323 274.441 121.041 283.067 130.633C290.11 138.465 292.902 146.387 294.246 150.329C294.942 152.366 298.833 164.199 297.021 178.71C292.669 213.556 259.186 233.686 251.649 237.918" stroke="#EFEDEF" stroke-width="1.03445" stroke-miterlimit="10"/>
<path d="M209.281 176.663H116.57C115.919 176.663 115.391 176.136 115.391 175.484V97.9992C115.391 97.348 115.919 96.8203 116.57 96.8203H209.28C209.932 96.8203 210.46 97.348 210.46 97.9992V175.484C210.46 176.136 209.932 176.663 209.281 176.663Z" fill="#FFE3CB"/>
<path d="M171.125 111.141C170.902 111.141 170.713 110.969 170.697 110.743C170.679 110.507 170.857 110.301 171.093 110.283L178.969 109.705C179.207 109.685 179.412 109.865 179.429 110.101C179.447 110.337 179.269 110.543 179.032 110.561L171.156 111.139C171.146 111.14 171.135 111.141 171.125 111.141Z" fill="#904D24"/>
<path d="M179.001 113.371H171.125C170.888 113.371 170.695 113.179 170.695 112.942C170.695 112.705 170.888 112.513 171.125 112.513H179.001C179.238 112.513 179.431 112.705 179.431 112.942C179.431 113.179 179.238 113.371 179.001 113.371Z" fill="#904D24"/>
<path d="M179.001 116.14H171.125C170.888 116.14 170.695 115.948 170.695 115.711C170.695 115.474 170.888 115.281 171.125 115.281H179.001C179.238 115.281 179.431 115.474 179.431 115.711C179.431 115.948 179.238 116.14 179.001 116.14Z" fill="#904D24"/>
<path d="M179.001 118.005H171.125C170.888 118.005 170.695 117.813 170.695 117.576C170.695 117.339 170.888 117.146 171.125 117.146H179.001C179.238 117.146 179.431 117.339 179.431 117.576C179.431 117.813 179.238 118.005 179.001 118.005Z" fill="#904D24"/>
<path d="M133.787 164.229C133.55 164.229 133.357 164.037 133.357 163.8V110.131C133.357 109.894 133.55 109.702 133.787 109.702C134.024 109.702 134.217 109.894 134.217 110.131V163.8C134.217 164.037 134.024 164.229 133.787 164.229Z" fill="#904D24"/>
<path d="M201.375 155.189H124.473C124.235 155.189 124.043 154.996 124.043 154.759C124.043 154.522 124.235 154.33 124.473 154.33H201.375C201.613 154.33 201.805 154.522 201.805 154.759C201.805 154.996 201.613 155.189 201.375 155.189Z" fill="#904D24"/>
<path d="M137.777 149.975C137.695 149.975 137.612 149.952 137.54 149.904C137.342 149.772 137.288 149.506 137.42 149.308L145.136 137.699C145.222 137.571 145.373 137.5 145.524 137.508C145.678 137.519 145.814 137.611 145.881 137.751L149.759 145.812L160.277 124.804C160.357 124.645 160.525 124.548 160.704 124.569C160.881 124.587 161.029 124.711 161.076 124.883L164.792 138.425L168.004 132.749C168.084 132.607 168.238 132.522 168.401 132.532C168.564 132.54 168.708 132.64 168.772 132.79L173.129 142.825L176.223 134.143C176.278 133.988 176.418 133.878 176.581 133.861C176.748 133.842 176.905 133.921 176.992 134.061L180.046 138.962L190.879 117.383C190.956 117.23 191.111 117.138 191.287 117.147C191.458 117.157 191.607 117.267 191.666 117.428L193.73 123.035L200.996 109.419C201.108 109.21 201.367 109.13 201.577 109.242C201.786 109.354 201.866 109.614 201.754 109.823L194.037 124.284C193.958 124.433 193.799 124.523 193.629 124.51C193.46 124.499 193.314 124.389 193.255 124.23L191.203 118.654L180.472 140.031C180.402 140.17 180.262 140.26 180.107 140.267C179.955 140.271 179.805 140.197 179.723 140.065L176.734 135.269L173.573 144.137C173.514 144.303 173.359 144.416 173.183 144.422C173.01 144.43 172.845 144.326 172.775 144.164L168.328 133.921L165.028 139.752C164.942 139.904 164.771 139.99 164.601 139.967C164.428 139.946 164.285 139.822 164.24 139.655L160.545 126.19L150.137 146.978C150.063 147.124 149.909 147.205 149.749 147.216C149.585 147.214 149.436 147.12 149.365 146.972L145.435 138.802L138.136 149.782C138.052 149.908 137.916 149.975 137.777 149.975Z" fill="#904D24"/>
<path d="M126.336 143.599C126.099 143.599 125.906 143.407 125.906 143.17V117.597C125.906 117.36 126.099 117.168 126.336 117.168C126.573 117.168 126.765 117.36 126.765 117.597V143.17C126.765 143.407 126.573 143.599 126.336 143.599Z" fill="#904D24"/>
<path d="M184.611 161.908C184.609 161.908 184.607 161.908 184.604 161.908L144.424 161.342C144.186 161.339 143.997 161.144 144 160.907C144.003 160.67 144.196 160.492 144.436 160.483L184.616 161.049C184.854 161.052 185.043 161.247 185.04 161.484C185.037 161.719 184.845 161.908 184.611 161.908Z" fill="#904D24"/>
<path d="M230.903 243.652L219.725 205.991L222.839 205.067L234.321 243.755L230.903 243.652Z" fill="#C38F86"/>
<path d="M207.813 243.652L204.395 243.755L215.877 205.067L218.992 205.991L207.813 243.652Z" fill="#C38F86"/>
<path d="M220.959 202.827H217.711V243.768H220.959V202.827Z" fill="#C38F86"/>
<path d="M233.285 206.358H202.803C201.307 206.358 200.094 205.146 200.094 203.651C200.094 202.155 201.307 200.943 202.803 200.943H233.285C234.781 200.943 235.993 202.155 235.993 203.651C235.993 205.146 234.781 206.358 233.285 206.358Z" fill="#935B50"/>
<path d="M255.272 184.387V184.534C255.272 185.319 254.635 185.956 253.849 185.956H249.577C248.791 185.956 248.154 185.319 248.154 184.534V178.78C248.154 177.995 248.791 177.358 249.577 177.358H253.849C254.635 177.358 255.272 177.995 255.272 178.78V178.826V184.387Z" fill="#FFBA55"/>
<path d="M257.627 178.835H255.271V179.688H257.2V183.543H255.271V184.396H257.627C257.863 184.396 258.054 184.206 258.054 183.97V179.262C258.053 179.025 257.863 178.835 257.627 178.835Z" fill="#935B50"/>
<path d="M253.196 182.079H251.997C251.84 182.079 251.713 181.952 251.713 181.795V180.597C251.713 180.44 251.84 180.312 251.997 180.312H253.196C253.353 180.312 253.48 180.44 253.48 180.597V181.795C253.48 181.952 253.353 182.079 253.196 182.079Z" fill="white"/>
<path d="M252.598 180.301V177.358" stroke="#E5CAF3" stroke-width="1.03549" stroke-miterlimit="10"/>
<path d="M191.443 232.805C191.443 232.805 191.737 242.402 190.971 242.575C190.206 242.748 171.286 240.791 174.823 239.741L180.637 238.331C182.714 237.827 184.293 236.199 184.674 234.168L185.228 231.215L191.443 232.805Z" fill="#F9977A"/>
<path d="M214.732 229.429C214.732 229.429 219.665 236.949 219.14 237.435C218.614 237.92 204.38 243.94 206.686 241.493L208.821 238.751C210.23 237.404 210.692 235.388 210.002 233.595L208.998 230.987L214.732 229.429Z" fill="#F9977A"/>
<path d="M207.68 194.54C205.686 196.078 206.62 197.916 207.45 200.243L216.531 231.228L209.98 234.724L194.391 204.096C194.391 204.096 189.276 197.87 195.794 193.58L207.68 194.54Z" fill="#8B9D36"/>
<path d="M211.002 180.267L208.288 178.253C207.902 177.967 207.442 177.789 206.957 177.74C206.109 177.654 204.745 177.475 204.148 177.173C203.569 176.88 203.277 177.135 203.573 177.697C203.747 178.028 204.36 178.464 205.965 178.98L204.568 179.325C204.15 179.428 203.707 179.357 203.345 179.131L201.807 178.166C201.61 178.043 201.348 178.079 201.195 178.25C201.012 178.454 201.052 178.765 201.282 178.919L204.058 180.782C204.058 180.782 203.79 182.988 205.927 183.466C208.064 183.945 211.002 183.099 211.002 183.099V180.267Z" fill="#F9977A"/>
<path d="M200.266 184.474L209.495 183.91L199.997 170.938L190.975 171.53L200.266 184.474Z" fill="#6C7FD8"/>
<path d="M211.847 183.233L207.046 179.172C207.046 179.172 204.461 178.406 202.972 177.813C202.164 177.491 201.175 177.71 200.567 178.412C200.011 179.054 200.031 179.703 201.579 180.725C203.896 182.253 205.077 182.816 205.775 183.018C206.016 183.088 207.367 183.603 207.367 183.603L211.847 183.233Z" fill="#F9977A"/>
<path d="M205.656 179.841C205.303 179.758 204.96 179.642 204.62 179.519C204.279 179.397 203.947 179.254 203.619 179.102C203.293 178.945 202.969 178.782 202.662 178.587C202.355 178.394 202.053 178.188 201.793 177.933C202.42 178.293 203.063 178.599 203.712 178.904C204.359 179.213 205.012 179.508 205.656 179.841Z" fill="#DD765E"/>
<path d="M205.039 180.69C204.648 180.618 204.267 180.509 203.89 180.387C203.512 180.267 203.144 180.118 202.782 179.955C202.421 179.789 202.068 179.601 201.739 179.374C201.414 179.148 201.089 178.891 200.885 178.545C201.159 178.831 201.492 179.039 201.829 179.231C202.169 179.419 202.516 179.598 202.874 179.757C203.583 180.086 204.311 180.377 205.039 180.69Z" fill="#DD765E"/>
<path d="M204.27 181.362C203.94 181.312 203.62 181.223 203.304 181.124C202.986 181.027 202.678 180.903 202.374 180.77C201.772 180.493 201.184 180.155 200.703 179.693C200.996 179.851 201.282 180.009 201.576 180.154C201.872 180.294 202.164 180.439 202.464 180.57L204.27 181.362Z" fill="#DD765E"/>
<path d="M201.568 159.792L198.495 158.336C198.058 158.129 197.69 157.809 197.43 157.411C196.975 156.716 196.206 155.616 195.661 155.233C195.133 154.862 195.24 154.497 195.894 154.504C196.279 154.508 196.956 154.846 198.145 156.006L197.849 154.646C197.76 154.239 197.498 153.886 197.128 153.674L195.55 152.77C195.348 152.654 195.266 152.412 195.358 152.204C195.466 151.956 195.774 151.853 196.018 151.984L198.979 153.561C198.979 153.561 200.915 152.355 202.304 153.991C203.692 155.627 204.203 158.541 204.203 158.541L201.568 159.792Z" fill="#F9977A"/>
<path d="M200.1 154.348C199.88 154.261 199.695 154.129 199.505 154.005C199.324 153.867 199.145 153.734 198.979 153.568C199.211 153.623 199.404 153.755 199.596 153.878C199.777 154.018 199.958 154.158 200.1 154.348Z" fill="#DD765E"/>
<path d="M200.785 154.035C200.59 153.908 200.432 153.753 200.259 153.616C200.18 153.539 200.092 153.473 200.008 153.404C199.923 153.336 199.838 153.271 199.732 153.223C199.852 153.207 199.969 153.252 200.073 153.303C200.178 153.356 200.27 153.427 200.36 153.498C200.528 153.655 200.686 153.822 200.785 154.035Z" fill="#DD765E"/>
<path d="M201.621 153.986C201.54 153.829 201.497 153.675 201.417 153.543C201.35 153.401 201.258 153.299 201.105 153.207C201.193 153.19 201.289 153.213 201.37 153.263C201.451 153.315 201.505 153.393 201.554 153.469C201.631 153.633 201.668 153.812 201.621 153.986Z" fill="#DD765E"/>
<path d="M223.824 138.767C222.972 138.72 221.808 138.668 220.457 139.202C219.955 139.4 218.121 140.123 217.296 141.867C216.983 142.529 216.944 143.311 216.864 144.873C216.815 145.85 216.461 146.563 216.52 147.748C216.554 148.413 216.717 149.396 217.146 150.554C217.669 151.966 217.418 152.793 217.656 153.05C218.618 154.088 221.335 153.114 221.446 154.52C221.515 155.389 220.834 155.583 220.943 156.598C221.084 157.913 225.454 156.993 226.725 156.273C226.898 156.175 228.464 155.081 228.212 153.551C228.077 152.734 227.162 148.912 227.207 148.411C227.37 146.602 228.299 146.339 228.932 144.132C229.324 142.764 228.871 141.638 228.191 140.899C226.921 139.519 224.891 138.825 223.824 138.767Z" fill="#F9977A"/>
<path d="M217.364 146.824C217.573 146.812 217.731 146.599 217.717 146.349C217.702 146.098 217.521 145.905 217.312 145.917C217.103 145.929 216.945 146.142 216.96 146.392C216.974 146.643 217.155 146.836 217.364 146.824Z" fill="#0A0709"/>
<path d="M220.778 146.662C220.987 146.65 221.145 146.437 221.131 146.187C221.117 145.936 220.935 145.743 220.726 145.755C220.517 145.767 220.359 145.98 220.374 146.23C220.388 146.481 220.569 146.674 220.778 146.662Z" fill="#0A0709"/>
<path d="M216.518 145.357C216.518 145.357 217.658 144.441 219.078 145.24" stroke="#1E1D22" stroke-width="1.21558" stroke-miterlimit="10" stroke-linecap="round" stroke-linejoin="round"/>
<path d="M220.057 145.215C220.057 145.215 221.197 144.299 222.617 145.097" stroke="#1E1D22" stroke-width="1.21558" stroke-miterlimit="10" stroke-linecap="round" stroke-linejoin="round"/>
<path d="M219.42 145.549C219.538 145.921 219.523 146.343 219.376 146.715C219.236 147.077 219.082 147.448 218.836 147.766C218.716 147.929 218.548 148.05 218.58 148.208C218.596 148.369 218.734 148.521 218.873 148.628C219.173 148.841 219.589 148.853 219.969 148.802C219.602 148.914 219.169 148.948 218.806 148.728C218.632 148.616 218.478 148.457 218.439 148.225C218.418 148.114 218.464 147.98 218.531 147.901L218.712 147.671C218.956 147.379 219.102 147.022 219.265 146.67C219.426 146.326 219.474 145.935 219.42 145.549Z" fill="#DD765E"/>
<path d="M225.633 145.437C225.917 145.383 226.202 145.527 226.418 145.703C226.524 145.799 226.617 145.906 226.695 146.023C226.77 146.142 226.831 146.268 226.87 146.402C226.683 146.195 226.52 145.987 226.316 145.821C226.221 145.732 226.113 145.659 226.001 145.592C225.888 145.528 225.767 145.473 225.633 145.437Z" fill="#DD765E"/>
<path d="M226.035 147.308C225.864 147.06 225.817 146.744 225.846 146.444C225.871 146.295 225.906 146.145 225.976 146.011C226.04 145.875 226.132 145.754 226.24 145.652C226.186 145.791 226.125 145.92 226.088 146.056C226.045 146.189 226.013 146.325 226.002 146.463C225.958 146.738 225.987 147.018 226.035 147.308Z" fill="#DD765E"/>
<path d="M220.377 154.338C220.377 154.338 223.053 154.263 224.481 152.144C225.162 151.134 225.066 149.158 224.937 148.011C224.88 147.497 224.937 146.978 225.109 146.488C225.347 145.812 225.633 144.891 226.304 144.8C226.799 144.733 226.992 144.597 227.194 145.051C227.527 145.802 227.055 146.669 226.727 147.272C226.257 148.136 225.831 148.34 225.852 148.921C225.868 149.365 227.226 150.205 227.467 150.02C227.957 149.644 227.627 148.598 228.887 146.017C229.683 144.386 230.07 144.069 230.122 143.072C230.141 142.718 230.217 141.252 229.264 140.445C228.822 140.071 228.588 140.202 226.713 139.537C226.007 139.286 225.655 139.161 225.186 138.941C223.684 138.238 223.697 137.84 222.829 137.645C222.044 137.469 222.014 137.789 220.533 137.773C219.104 137.757 218.963 137.457 218.313 137.668C217.185 138.035 216.694 139.238 216.563 139.561C216.414 139.925 216.123 140.618 216.209 141.353C216.275 141.915 216.663 142.755 216.989 143.046C217.184 143.22 217.885 142.135 218.276 141.72C218.659 141.314 219.124 141.452 219.749 141.461C220.358 141.469 220.343 141.835 221.257 142.114C221.583 142.213 222.839 141.6 223.287 142.266C223.764 142.974 224.111 143.047 223.938 143.735C223.829 144.165 223.935 144.681 224.147 145.716C224.299 146.458 223.801 149.097 223.801 149.097C223.591 149.565 223.025 149.776 222.545 149.57C221.96 149.317 221.163 149.003 220.399 148.791C219.515 148.541 218.562 148.697 217.801 149.199C217.54 149.369 217.273 149.559 217.063 149.729C216.776 149.961 216.635 150.306 216.671 150.663C216.806 151.78 217.424 154.499 220.377 154.338ZM217.644 150.562C217.727 150.023 218.543 149.778 219.009 149.638C219.346 149.539 219.72 149.425 220.167 149.545C220.259 149.568 221.093 149.802 221.199 150.436C221.305 151.07 220.589 151.549 220.477 151.621C219.933 151.982 219.214 152.017 218.641 151.762C218.207 151.57 217.561 151.08 217.644 150.562Z" fill="#1E1D22"/>
<path d="M220.831 150.37C220.831 150.37 219.406 151.78 218.006 150.5L220.831 150.37Z" fill="#0A0709"/>
<path d="M204.351 156.877C207.938 158.323 213.355 164.918 213.355 164.918L219.526 159.206L220.91 155.872L226.457 154.414C227.451 154.152 228.097 153.215 227.937 152.234C227.935 152.221 227.932 152.208 227.93 152.194L230.996 157.109C233.419 160.993 234.155 165.473 233.805 169.992L232.737 188.747C232.737 188.747 215.339 190.806 216.102 188.747L216.241 185.437L214.347 185.216L210.227 184.407L210.761 179.406L215.034 179.259L216.637 178.009L216.808 172.783L215.861 172.94C213.38 173.35 210.373 172.229 208.824 170.317L201.223 160.505C201.986 157.637 204.351 156.877 204.351 156.877Z" fill="#FFBA55"/>
<path d="M229.642 154.94C228.429 155.637 227.204 156.31 225.968 156.962C225.349 157.287 224.736 157.622 224.113 157.937L222.247 158.892L222.161 158.936L222.124 158.85C221.711 157.861 221.296 156.872 220.908 155.872C221.385 156.833 221.835 157.806 222.287 158.778L222.164 158.735L224.016 157.754C224.632 157.424 225.258 157.113 225.879 156.792C227.122 156.153 228.376 155.536 229.642 154.94Z" fill="#E6952A"/>
<path d="M216.635 178C217.225 177.748 217.844 177.568 218.463 177.402C219.083 177.237 219.706 177.085 220.332 176.946C221.584 176.666 222.843 176.415 224.106 176.188L224.067 176.237L223.764 168.744C223.715 167.496 223.696 166.237 223.845 164.989C223.984 163.745 224.267 162.49 224.904 161.385C225.23 160.842 225.657 160.348 226.195 159.997C226.73 159.646 227.361 159.439 227.998 159.403C229.277 159.3 230.575 159.818 231.462 160.738C231.688 160.965 231.877 161.225 232.051 161.492C232.214 161.767 232.356 162.059 232.463 162.354C232.69 162.941 232.879 163.543 233.025 164.154C233.323 165.376 233.497 166.624 233.589 167.874C233.77 170.377 233.653 172.888 233.383 175.376C233.25 176.621 233.065 177.858 232.864 179.093C232.675 180.353 231.877 181.499 230.775 182.132C230.504 182.294 230.207 182.423 229.915 182.529L229.036 182.858C228.449 183.075 227.857 183.28 227.265 183.48C226.077 183.876 224.879 184.242 223.665 184.546C222.451 184.851 221.223 185.108 219.983 185.278C218.744 185.445 217.488 185.531 216.24 185.428C217.489 185.516 218.742 185.414 219.977 185.232C221.213 185.047 222.434 184.776 223.641 184.456C224.848 184.134 226.044 183.771 227.227 183.368C227.818 183.166 228.407 182.959 228.992 182.74L229.868 182.407C230.163 182.299 230.442 182.176 230.707 182.017C231.773 181.398 232.538 180.289 232.716 179.069C232.911 177.836 233.09 176.6 233.217 175.358C233.476 172.877 233.581 170.374 233.391 167.889C233.295 166.648 233.117 165.411 232.817 164.206C232.675 163.601 232.491 163.007 232.27 162.428C232.063 161.846 231.747 161.317 231.319 160.876C230.475 159.993 229.235 159.491 228.011 159.584C227.399 159.617 226.8 159.811 226.29 160.142C225.777 160.474 225.365 160.946 225.047 161.47C224.425 162.539 224.137 163.775 223.995 165.006C223.841 166.242 223.855 167.492 223.898 168.739L224.161 176.233L224.163 176.275L224.122 176.282C222.858 176.492 221.597 176.728 220.343 176.991C219.715 177.123 219.091 177.267 218.469 177.424C217.848 177.584 217.229 177.755 216.635 178Z" fill="#E6952A"/>
<path d="M219.525 159.206L218.903 160.839C218.689 161.382 218.474 161.921 218.291 162.472C217.921 163.571 217.625 164.695 217.435 165.838C217.333 166.408 217.255 166.983 217.201 167.56C217.145 168.136 217.125 168.718 217.078 169.299C216.998 170.461 216.914 171.623 216.807 172.783C216.825 171.618 216.868 170.454 216.914 169.29C216.952 168.129 217.023 166.955 217.225 165.802C217.434 164.651 217.73 163.514 218.137 162.418C218.549 161.321 219.047 160.269 219.525 159.206Z" fill="#E6952A"/>
<path d="M213.356 164.906C213.168 165.585 213.017 166.261 212.934 166.948C212.885 167.29 212.868 167.635 212.857 167.98C212.844 168.327 212.876 168.672 212.898 169.025C212.671 168.355 212.633 167.624 212.722 166.921C212.769 166.569 212.839 166.22 212.946 165.882C213.052 165.545 213.179 165.213 213.356 164.906Z" fill="#E6952A"/>
<path d="M227.852 179.19C227.326 178.573 226.77 177.995 226.156 177.484C225.852 177.226 225.525 177 225.19 176.784C224.851 176.572 224.489 176.405 224.113 176.248C224.513 176.319 224.905 176.453 225.271 176.64C225.635 176.828 225.978 177.058 226.294 177.32C226.606 177.586 226.899 177.872 227.159 178.186C227.42 178.5 227.662 178.83 227.852 179.19Z" fill="#E6952A"/>
<path d="M231.592 183.447C231.467 183.85 231.268 184.227 231.037 184.581C230.806 184.937 230.522 185.26 230.202 185.543C229.88 185.825 229.504 186.048 229.104 186.2C228.705 186.36 228.271 186.402 227.854 186.389C228.267 186.313 228.673 186.232 229.041 186.048C229.407 185.868 229.757 185.655 230.062 185.382C230.371 185.115 230.648 184.81 230.904 184.486C231.156 184.16 231.387 183.813 231.592 183.447Z" fill="#E6952A"/>
<path d="M231.133 185.786C230.943 186.15 230.655 186.455 230.338 186.718C230.02 186.983 229.656 187.188 229.277 187.354C228.891 187.502 228.493 187.623 228.084 187.672C227.881 187.707 227.675 187.706 227.471 187.724C227.267 187.721 227.062 187.713 226.859 187.699C227.264 187.645 227.664 187.601 228.055 187.51C228.446 187.425 228.825 187.303 229.195 187.157C229.56 187.002 229.909 186.812 230.239 186.588C230.565 186.36 230.872 186.098 231.133 185.786Z" fill="#E6952A"/>
<path d="M215.034 179.261C215.11 179.662 215.163 180.065 215.212 180.468C215.263 180.871 215.298 181.275 215.332 181.68C215.361 182.084 215.39 182.489 215.403 182.895C215.417 183.301 215.429 183.707 215.416 184.115C215.34 183.714 215.288 183.311 215.238 182.909C215.187 182.506 215.153 182.101 215.118 181.697C215.089 181.292 215.06 180.887 215.048 180.481C215.034 180.075 215.022 179.668 215.034 179.261Z" fill="#E6952A"/>
<path d="M206.458 158.118C206.2 158.464 205.925 158.793 205.648 159.12C205.372 159.449 205.084 159.767 204.796 160.084C204.504 160.398 204.212 160.712 203.907 161.014C203.605 161.318 203.299 161.62 202.977 161.905C203.234 161.56 203.509 161.23 203.786 160.903C204.062 160.574 204.35 160.257 204.638 159.939C204.93 159.626 205.222 159.312 205.527 159.01C205.83 158.705 206.135 158.404 206.458 158.118Z" fill="#E6952A"/>
<path d="M198.92 170.198V165.647" stroke="#7CA1B1" stroke-width="0.403746" stroke-miterlimit="10"/>
<path d="M206.041 176.241L211.002 174.179" stroke="#7CA1B1" stroke-width="0.403746" stroke-miterlimit="10"/>
<path d="M203.723 172.476L205.654 167.925" stroke="#7CA1B1" stroke-width="0.403746" stroke-miterlimit="10"/>
<path d="M232.737 188.729C232.737 188.729 233.223 193.338 230.168 197.749C228.407 200.291 225.413 201.784 222.243 201.775L207.187 201.732C204.635 201.847 202.464 201.822 201.717 204.176L192.01 234.758L184.578 233.877L190.638 200.265C190.638 200.265 190.867 193.572 198.185 192.551L215.907 189.355L216.182 186.834L232.737 188.729Z" fill="#8B9D36"/>
<path d="M215.906 189.363L219.525 187.225" stroke="#5E7C24" stroke-width="0.403746" stroke-miterlimit="10"/>
<path d="M198.92 213.004C199.064 211.618 199.218 210.233 199.382 208.85C199.502 207.458 199.926 206.078 200.651 204.873C201.377 203.68 202.425 202.622 203.757 202.121C204.089 202.001 204.427 201.898 204.784 201.868C205.137 201.838 205.488 201.867 205.835 201.894C206.525 201.955 207.235 202.023 207.904 201.803C207.243 202.047 206.521 202.005 205.83 201.97C205.483 201.952 205.135 201.929 204.793 201.965C204.455 202.001 204.12 202.109 203.801 202.232C202.513 202.745 201.488 203.774 200.785 204.954C200.064 206.135 199.644 207.484 199.504 208.865C199.318 210.246 199.124 211.626 198.92 213.004Z" fill="#5E7C24"/>
<path d="M257.802 189.007H254.348V243.773H257.802V189.007Z" fill="#935B50"/>
<path d="M263.82 189.01H161.193C160.864 189.01 160.598 188.744 160.598 188.415V186.958C160.598 186.629 160.864 186.362 161.193 186.362H263.82C264.149 186.362 264.416 186.629 264.416 186.958V188.415C264.416 188.744 264.149 189.01 263.82 189.01Z" fill="#935B50"/>
<path d="M170.943 189.007H167.488V243.773H170.943V189.007Z" fill="#935B50"/>
<path d="M259.326 197.668H165.922C165.264 197.668 164.73 197.135 164.73 196.478V189.007H260.518V196.478C260.518 197.135 259.984 197.668 259.326 197.668Z" fill="#C38F86"/>
<path d="M250.389 124.152C256.582 124.152 261.603 119.134 261.603 112.945C261.603 106.756 256.582 101.738 250.389 101.738C244.196 101.738 239.176 106.756 239.176 112.945C239.176 119.134 244.196 124.152 250.389 124.152Z" fill="#FFBA55"/>
<path d="M250.389 124.152C256.582 124.152 261.603 119.134 261.603 112.945C261.603 106.756 256.582 101.738 250.389 101.738C244.196 101.738 239.176 106.756 239.176 112.945C239.176 119.134 244.196 124.152 250.389 124.152Z" stroke="#D77F4A" stroke-width="1.03445" stroke-miterlimit="10"/>
<path d="M250.389 106.516V113.742" stroke="#D77F4A" stroke-width="1.03445" stroke-miterlimit="10" stroke-linecap="round" stroke-linejoin="round"/>
<path d="M249.109 111.481L256.612 115.242" stroke="#D77F4A" stroke-width="1.03445" stroke-miterlimit="10" stroke-linecap="round" stroke-linejoin="round"/>
<path d="M134.29 232.471C133.905 230.271 133.711 228.038 133.645 225.803C133.576 223.567 133.673 221.326 133.909 219.1C134.177 216.878 134.601 214.669 135.28 212.532C135.628 211.468 136.036 210.423 136.504 209.406C136.996 208.399 137.554 207.428 138.18 206.503C136.991 208.397 136.115 210.463 135.47 212.591C135.162 213.66 134.884 214.738 134.668 215.83C134.458 216.923 134.292 218.023 134.164 219.129C133.908 221.34 133.815 223.57 133.842 225.798C133.852 226.913 133.896 228.027 133.971 229.14C134.042 230.253 134.137 231.365 134.29 232.471Z" fill="#50661A"/>
<path d="M134.291 215.729C134.291 215.729 122.538 217.209 117.423 212.168C113.628 208.428 117.238 201.99 122.44 203.153C125.922 203.932 130.218 207.026 134.291 215.729Z" fill="#5E7C24"/>
<path d="M134.292 215.736C132.642 215.235 131.019 214.647 129.42 213.996C127.823 213.344 126.253 212.62 124.721 211.821C123.957 211.416 123.207 210.985 122.473 210.528C121.739 210.072 121.017 209.592 120.339 209.054C119.659 208.519 119.005 207.947 118.419 207.308C117.846 206.661 117.335 205.945 117.008 205.146C117.373 205.928 117.914 206.61 118.511 207.222C119.109 207.837 119.771 208.386 120.459 208.896C121.836 209.919 123.319 210.797 124.841 211.594C126.355 212.408 127.921 213.125 129.497 213.815C130.286 214.159 131.081 214.488 131.881 214.807C132.678 215.131 133.481 215.445 134.292 215.736Z" fill="#50661A"/>
<path d="M121.546 209.786L121.558 208.053C121.555 207.477 121.558 206.902 121.525 206.328C121.507 205.755 121.455 205.185 121.373 204.62L121.293 204.2C121.265 204.061 121.215 203.928 121.179 203.79C121.147 203.65 121.075 203.528 121.024 203.393C120.966 203.263 120.869 203.157 120.793 203.031C121.24 203.422 121.429 204.023 121.567 204.583C121.693 205.155 121.744 205.738 121.782 206.318C121.794 206.9 121.794 207.481 121.755 208.06C121.716 208.638 121.655 209.216 121.546 209.786Z" fill="#50661A"/>
<path d="M116.016 209.784C116.706 209.664 117.388 209.565 118.054 209.412C118.386 209.333 118.712 209.238 119.021 209.108C119.324 208.973 119.624 208.794 119.776 208.472C119.724 208.831 119.422 209.117 119.113 209.286C118.798 209.465 118.456 209.576 118.113 209.662C117.422 209.814 116.714 209.867 116.016 209.784Z" fill="#50661A"/>
<path d="M118.141 212.805C119.069 212.666 119.988 212.521 120.869 212.257C121.307 212.124 121.739 211.961 122.121 211.721C122.498 211.482 122.835 211.147 122.953 210.684C122.94 211.164 122.623 211.605 122.235 211.885C121.848 212.179 121.396 212.361 120.943 212.503C120.03 212.769 119.079 212.868 118.141 212.805Z" fill="#50661A"/>
<path d="M124.711 211.666C124.907 211.092 125.088 210.517 125.251 209.938C125.41 209.358 125.567 208.778 125.671 208.187C125.909 207.012 126.007 205.814 125.831 204.612C126.023 205.19 126.096 205.804 126.106 206.415C126.107 207.028 126.025 207.636 125.923 208.237C125.796 208.834 125.641 209.424 125.439 209.998C125.235 210.57 125.005 211.134 124.711 211.666Z" fill="#50661A"/>
<path d="M122.953 215.066C123.328 214.968 123.69 214.845 124.046 214.714C124.398 214.576 124.746 214.429 125.062 214.231C125.381 214.039 125.674 213.81 125.922 213.535C126.157 213.25 126.335 212.92 126.458 212.55C126.435 212.936 126.31 213.327 126.08 213.658C125.845 213.984 125.532 214.244 125.195 214.452C124.855 214.658 124.484 214.801 124.108 214.904C123.731 215.008 123.342 215.066 122.953 215.066Z" fill="#50661A"/>
<path d="M128.909 207.258C129.172 207.735 129.343 208.259 129.461 208.794C129.577 209.33 129.611 209.883 129.59 210.434C129.556 210.984 129.446 211.532 129.245 212.045C129.062 212.566 128.752 213.03 128.412 213.45C128.664 212.968 128.92 212.497 129.058 211.98C129.213 211.473 129.32 210.95 129.333 210.419C129.374 209.89 129.339 209.357 129.267 208.828C129.192 208.3 129.073 207.774 128.909 207.258Z" fill="#50661A"/>
<path d="M128.148 215.726C128.576 215.512 128.996 215.328 129.398 215.113C129.803 214.898 130.179 214.663 130.526 214.334C130.345 214.787 129.937 215.115 129.519 215.34C129.092 215.56 128.629 215.708 128.148 215.726Z" fill="#50661A"/>
<path d="M131.869 211.216C132.109 211.796 132.232 212.415 132.273 213.042C132.29 213.355 132.283 213.673 132.228 213.987C132.175 214.297 132.074 214.616 131.869 214.859C131.985 214.567 132.008 214.264 132.028 213.964C132.041 213.663 132.037 213.36 132.016 213.056C131.984 212.447 131.911 211.84 131.869 211.216Z" fill="#50661A"/>
<path d="M133.863 215.675C133.863 215.675 124.705 208.165 124.849 200.988C124.956 195.662 132.115 193.854 134.848 198.428C136.677 201.49 137.384 206.734 133.863 215.675Z" fill="#C4CE6E"/>
<path d="M133.862 215.678C133.06 214.151 132.365 212.569 131.724 210.966C131.088 209.361 130.535 207.722 130.055 206.06C129.825 205.226 129.625 204.384 129.454 203.535C129.283 202.686 129.133 201.831 129.066 200.965C128.993 200.101 128.965 199.23 129.033 198.363C129.121 197.501 129.289 196.633 129.669 195.854C129.374 196.666 129.251 197.522 129.229 198.375C129.201 199.23 129.263 200.085 129.372 200.932C129.586 202.629 129.967 204.305 130.44 205.953C130.883 207.611 131.439 209.238 132.011 210.859C132.297 211.669 132.598 212.475 132.911 213.277C133.212 214.083 133.537 214.879 133.862 215.678Z" fill="#8B9D36"/>
<path d="M129.412 202.341C130.225 201.506 131.061 200.72 131.858 199.899C132.255 199.489 132.639 199.068 132.999 198.63C133.169 198.404 133.341 198.18 133.483 197.936C133.568 197.82 133.611 197.688 133.678 197.561C133.738 197.432 133.753 197.291 133.801 197.149C133.85 197.744 133.562 198.321 133.253 198.811C132.931 199.307 132.547 199.753 132.145 200.177C131.322 201.005 130.421 201.752 129.412 202.341Z" fill="#8B9D36"/>
<path d="M125.609 198.34C126.211 198.718 126.755 199.131 127.321 199.503C127.603 199.689 127.889 199.859 128.186 200.002C128.485 200.138 128.797 200.244 129.149 200.166C128.865 200.407 128.425 200.397 128.082 200.297C127.725 200.2 127.403 200.028 127.101 199.837C126.512 199.433 125.991 198.943 125.609 198.34Z" fill="#8B9D36"/>
<path d="M124.885 201.944C125.663 202.481 126.402 203.034 127.194 203.485C127.588 203.71 127.995 203.912 128.421 204.032C128.845 204.15 129.3 204.18 129.736 203.978C129.396 204.328 128.838 204.417 128.358 204.337C127.865 204.267 127.415 204.064 126.996 203.832C126.581 203.59 126.194 203.309 125.842 202.991C125.488 202.676 125.16 202.332 124.885 201.944Z" fill="#8B9D36"/>
<path d="M130.227 205.925C130.77 205.65 131.3 205.361 131.829 205.077C132.353 204.785 132.875 204.492 133.376 204.169C133.878 203.848 134.365 203.507 134.831 203.136C135.286 202.754 135.724 202.351 136.122 201.887C135.855 202.436 135.476 202.934 135.039 203.368C134.599 203.801 134.104 204.17 133.59 204.506C132.548 205.152 131.419 205.658 130.227 205.925Z" fill="#8B9D36"/>
<path d="M126.549 206.995C126.898 207.173 127.24 207.342 127.582 207.497C127.927 207.646 128.27 207.792 128.625 207.883C128.977 207.981 129.334 208.038 129.697 208.04C130.059 208.028 130.414 207.945 130.787 207.807C130.509 208.084 130.133 208.277 129.727 208.351C129.321 208.417 128.906 208.37 128.517 208.268C128.128 208.159 127.765 207.985 127.434 207.77C127.103 207.555 126.795 207.303 126.549 206.995Z" fill="#8B9D36"/>
<path d="M136.316 205.945C136.022 207.001 135.37 207.956 134.524 208.678C134.313 208.861 134.08 209.016 133.846 209.169C133.727 209.241 133.599 209.3 133.476 209.366C133.355 209.435 133.227 209.49 133.094 209.534C132.581 209.756 132.018 209.825 131.477 209.843C131.997 209.671 132.502 209.506 132.965 209.249C133.43 209.005 133.871 208.719 134.266 208.373C134.668 208.038 135.035 207.657 135.376 207.251C135.71 206.84 136.031 206.411 136.316 205.945Z" fill="#8B9D36"/>
<path d="M129.639 211.215C130.117 211.33 130.538 211.493 130.966 211.633C131.396 211.778 131.801 211.9 132.285 211.983C132.067 212.104 131.811 212.144 131.563 212.142C131.314 212.139 131.072 212.084 130.839 212.012C130.609 211.931 130.388 211.827 130.185 211.695C129.983 211.563 129.792 211.411 129.639 211.215Z" fill="#8B9D36"/>
<path d="M135.473 210.808C135.373 211.112 135.224 211.392 135.055 211.657C134.889 211.925 134.69 212.171 134.476 212.405C134.257 212.634 134.017 212.848 133.74 213.017C133.468 213.185 133.153 213.326 132.826 213.313C133.109 213.164 133.331 212.968 133.552 212.768C133.769 212.565 133.982 212.354 134.185 212.13C134.604 211.695 135.001 211.236 135.473 210.808Z" fill="#8B9D36"/>
<path d="M133.588 228.25C133.588 228.25 121.75 228.675 117.106 223.199C113.659 219.135 117.83 213.045 122.907 214.667C126.306 215.753 130.308 219.217 133.588 228.25Z" fill="#C4CE6E"/>
<path d="M133.588 228.253C131.976 227.639 130.407 226.912 128.866 226.134C127.326 225.351 125.826 224.488 124.366 223.559C123.642 223.086 122.934 222.587 122.243 222.064C121.553 221.54 120.874 220.998 120.25 220.393C119.623 219.794 119.026 219.16 118.503 218.464C117.998 217.76 117.55 216.998 117.318 216.163C117.635 216.967 118.109 217.69 118.658 218.344C119.202 219.003 119.815 219.603 120.458 220.166C121.742 221.296 123.138 222.301 124.583 223.224C126.013 224.174 127.507 225.027 129.009 225.863C129.76 226.282 130.52 226.686 131.284 227.081C132.045 227.487 132.816 227.869 133.588 228.253Z" fill="#8B9D36"/>
<path d="M121.425 221.216C121.481 220.053 121.587 218.91 121.641 217.768C121.667 217.197 121.677 216.628 121.656 216.062C121.634 215.78 121.615 215.498 121.56 215.221C121.547 215.078 121.491 214.951 121.458 214.811C121.417 214.674 121.336 214.559 121.277 214.421C121.708 214.834 121.874 215.457 121.967 216.029C122.053 216.614 122.061 217.202 122.041 217.786C121.972 218.951 121.791 220.107 121.425 221.216Z" fill="#8B9D36"/>
<path d="M115.916 220.72C116.618 220.606 117.299 220.555 117.97 220.46C118.304 220.413 118.632 220.352 118.949 220.263C119.262 220.166 119.567 220.039 119.779 219.748C119.726 220.117 119.389 220.4 119.066 220.552C118.735 220.715 118.379 220.799 118.026 220.856C117.317 220.943 116.602 220.92 115.916 220.72Z" fill="#8B9D36"/>
<path d="M117.764 223.895C118.702 223.782 119.623 223.708 120.516 223.523C120.96 223.431 121.398 223.312 121.797 223.121C122.193 222.929 122.554 222.651 122.747 222.211C122.724 222.698 122.365 223.134 121.952 223.392C121.537 223.665 121.064 223.81 120.597 223.914C120.125 224.007 119.649 224.051 119.174 224.047C118.7 224.044 118.226 224.003 117.764 223.895Z" fill="#8B9D36"/>
<path d="M124.41 223.356C124.635 222.79 124.842 222.224 125.05 221.661C125.249 221.095 125.447 220.531 125.609 219.957C125.773 219.384 125.912 218.806 126.015 218.22C126.104 217.633 126.165 217.041 126.156 216.43C126.32 217.017 126.365 217.642 126.325 218.256C126.283 218.871 126.155 219.476 125.993 220.067C125.639 221.241 125.128 222.368 124.41 223.356Z" fill="#8B9D36"/>
<path d="M122.355 226.58C122.735 226.482 123.103 226.383 123.463 226.272C123.82 226.156 124.174 226.039 124.5 225.872C124.829 225.713 125.134 225.519 125.408 225.281C125.672 225.032 125.883 224.735 126.071 224.386C126.046 224.777 125.892 225.17 125.637 225.494C125.375 225.812 125.034 226.051 124.674 226.232C124.31 226.408 123.923 226.517 123.532 226.575C123.141 226.632 122.745 226.648 122.355 226.58Z" fill="#8B9D36"/>
<path d="M128.984 219.342C129.463 220.328 129.606 221.475 129.45 222.576C129.413 222.853 129.341 223.123 129.267 223.392C129.225 223.525 129.169 223.654 129.12 223.784C129.076 223.916 129.015 224.042 128.945 224.163C128.708 224.669 128.331 225.094 127.938 225.465C128.214 224.992 128.484 224.534 128.66 224.035C128.848 223.544 128.989 223.038 129.055 222.518C129.135 222 129.158 221.473 129.145 220.943C129.123 220.413 129.079 219.879 128.984 219.342Z" fill="#8B9D36"/>
<path d="M127.471 227.714C127.906 227.483 128.329 227.328 128.743 227.149C129.162 226.974 129.545 226.797 129.963 226.54C129.88 226.775 129.715 226.974 129.528 227.136C129.339 227.299 129.121 227.417 128.898 227.517C128.672 227.609 128.438 227.677 128.198 227.712C127.96 227.748 127.716 227.76 127.471 227.714Z" fill="#8B9D36"/>
<path d="M131.579 223.548C131.706 223.842 131.779 224.15 131.829 224.461C131.882 224.772 131.895 225.088 131.889 225.405C131.877 225.721 131.839 226.041 131.743 226.351C131.65 226.656 131.508 226.971 131.254 227.176C131.367 226.878 131.404 226.584 131.438 226.288C131.466 225.992 131.486 225.693 131.49 225.391C131.515 224.788 131.509 224.181 131.579 223.548Z" fill="#8B9D36"/>
<path d="M134.287 216.532C134.287 216.532 146.102 217.389 150.943 212.086C154.536 208.15 150.59 201.912 145.457 203.348C142.021 204.31 137.895 207.626 134.287 216.532Z" fill="#5E7C24"/>
<path d="M134.287 216.515C135.082 216.182 135.867 215.826 136.646 215.459C137.428 215.099 138.205 214.728 138.974 214.343C140.512 213.571 142.037 212.772 143.506 211.879C144.984 211.003 146.418 210.049 147.739 208.954C148.4 208.408 149.031 207.824 149.596 207.179C150.16 206.537 150.664 205.827 150.988 205.026C150.704 205.842 150.231 206.584 149.693 207.261C149.142 207.93 148.519 208.535 147.868 209.105C147.219 209.679 146.523 210.196 145.814 210.691C145.106 211.185 144.38 211.656 143.638 212.1C142.151 212.979 140.622 213.784 139.06 214.52C137.499 215.254 135.908 215.927 134.287 216.515Z" fill="#50661A"/>
<path d="M146.7 209.903C146.562 209.34 146.47 208.766 146.4 208.19C146.33 207.614 146.3 207.034 146.281 206.453C146.289 205.871 146.308 205.286 146.404 204.708C146.513 204.142 146.669 203.532 147.095 203.118C147.026 203.248 146.934 203.359 146.884 203.492C146.84 203.629 146.774 203.755 146.75 203.896C146.721 204.036 146.679 204.171 146.658 204.312L146.6 204.736C146.548 205.304 146.526 205.877 146.538 206.45C146.536 207.024 146.57 207.598 146.597 208.173L146.7 209.903Z" fill="#50661A"/>
<path d="M152.222 209.625C151.529 209.744 150.82 209.728 150.122 209.614C149.775 209.546 149.427 209.453 149.104 209.291C148.786 209.139 148.469 208.868 148.398 208.513C148.568 208.827 148.877 208.989 149.186 209.108C149.502 209.222 149.832 209.299 150.167 209.361C150.841 209.479 151.526 209.542 152.222 209.625Z" fill="#50661A"/>
<path d="M150.26 212.734C149.326 212.847 148.371 212.798 147.445 212.581C146.985 212.463 146.525 212.306 146.122 212.032C145.72 211.772 145.38 211.349 145.342 210.87C145.484 211.326 145.839 211.643 146.228 211.862C146.622 212.082 147.062 212.222 147.507 212.331C148.401 212.548 149.326 212.644 150.26 212.734Z" fill="#50661A"/>
<path d="M143.637 211.949C143.316 211.433 143.056 210.882 142.822 210.321C142.59 209.758 142.404 209.177 142.245 208.588C142.111 207.993 141.998 207.39 141.967 206.779C141.944 206.168 141.984 205.551 142.145 204.964C142.033 206.173 142.195 207.365 142.495 208.526C142.63 209.11 142.817 209.681 143.007 210.251C143.2 210.822 143.412 211.386 143.637 211.949Z" fill="#50661A"/>
<path d="M145.574 215.25C145.186 215.27 144.795 215.232 144.413 215.149C144.031 215.066 143.654 214.942 143.303 214.755C142.956 214.565 142.629 214.322 142.377 214.009C142.13 213.69 141.985 213.306 141.941 212.922C142.084 213.285 142.279 213.605 142.529 213.877C142.791 214.139 143.096 214.352 143.424 214.527C143.75 214.708 144.106 214.836 144.465 214.955C144.826 215.068 145.195 215.171 145.574 215.25Z" fill="#50661A"/>
<path d="M139.214 207.77C139.077 208.294 138.987 208.825 138.94 209.357C138.896 209.889 138.889 210.423 138.957 210.949C138.998 211.478 139.133 211.995 139.314 212.493C139.48 213.002 139.76 213.459 140.037 213.927C139.676 213.526 139.342 213.079 139.131 212.568C138.904 212.067 138.765 211.525 138.702 210.978C138.652 210.429 138.656 209.875 138.744 209.333C138.833 208.793 138.977 208.26 139.214 207.77Z" fill="#50661A"/>
<path d="M140.422 216.197C139.942 216.204 139.471 216.081 139.033 215.884C138.604 215.682 138.179 215.376 137.975 214.933C138.339 215.242 138.726 215.457 139.142 215.651C139.555 215.845 139.984 216.006 140.422 216.197Z" fill="#50661A"/>
<path d="M136.469 211.876C136.461 212.502 136.419 213.112 136.42 213.721C136.415 214.025 136.427 214.328 136.456 214.629C136.491 214.927 136.531 215.229 136.661 215.514C136.444 215.282 136.327 214.969 136.257 214.662C136.185 214.352 136.161 214.035 136.162 213.72C136.17 213.092 136.26 212.468 136.469 211.876Z" fill="#50661A"/>
<path d="M133.838 228.119C133.838 228.119 145.653 228.976 150.494 223.673C154.087 219.737 150.141 213.499 145.008 214.935C141.571 215.897 137.445 219.213 133.838 228.119Z" fill="#8B9D36"/>
<path d="M133.838 228.097C134.623 227.741 135.409 227.387 136.183 227.01C136.961 226.643 137.735 226.267 138.501 225.876C140.033 225.094 141.557 224.297 143.02 223.4C144.499 222.53 145.93 221.577 147.255 220.494C147.918 219.955 148.552 219.378 149.12 218.739C149.693 218.105 150.192 217.4 150.538 216.608C150.277 217.434 149.8 218.179 149.27 218.865C148.723 219.541 148.102 220.153 147.454 220.729C146.809 221.311 146.11 221.828 145.402 222.326C144.693 222.823 143.967 223.296 143.225 223.743C141.733 224.618 140.202 225.425 138.635 226.152C137.065 226.873 135.472 227.542 133.838 228.097Z" fill="#5E7C24"/>
<path d="M146.25 221.511C145.925 220.389 145.786 219.228 145.76 218.061C145.761 217.477 145.79 216.889 145.897 216.308C146.011 215.739 146.199 215.123 146.645 214.726C146.581 214.861 146.496 214.974 146.45 215.109C146.412 215.247 146.352 215.372 146.333 215.515C146.269 215.79 146.239 216.071 146.206 216.351C146.165 216.917 146.153 217.486 146.159 218.057C146.173 219.2 146.237 220.346 146.25 221.511Z" fill="#5E7C24"/>
<path d="M151.774 221.23C151.081 221.406 150.365 221.402 149.66 221.289C149.31 221.219 148.958 221.122 148.632 220.947C148.315 220.784 147.988 220.489 147.949 220.118C148.15 220.418 148.45 220.555 148.76 220.663C149.073 220.763 149.399 220.837 149.731 220.896C150.397 221.015 151.076 221.09 151.774 221.23Z" fill="#5E7C24"/>
<path d="M149.811 224.325C149.344 224.417 148.869 224.441 148.395 224.426C147.921 224.413 147.447 224.351 146.979 224.241C146.515 224.12 146.049 223.958 145.644 223.67C145.241 223.398 144.897 222.948 144.893 222.461C145.069 222.908 145.42 223.199 145.808 223.405C146.2 223.611 146.634 223.746 147.074 223.853C147.959 224.071 148.877 224.179 149.811 224.325Z" fill="#5E7C24"/>
<path d="M143.189 223.558C142.508 222.543 142.038 221.399 141.728 220.214C141.587 219.617 141.482 219.008 141.462 218.392C141.444 217.776 141.512 217.154 141.697 216.572C141.666 217.183 141.705 217.776 141.772 218.367C141.854 218.956 141.972 219.539 142.116 220.117C142.256 220.696 142.433 221.267 142.612 221.84C142.799 222.41 142.985 222.984 143.189 223.558Z" fill="#5E7C24"/>
<path d="M145.125 226.856C144.734 226.909 144.338 226.88 143.95 226.809C143.561 226.736 143.178 226.613 142.821 226.424C142.468 226.23 142.135 225.979 141.886 225.651C141.643 225.319 141.503 224.92 141.492 224.528C141.667 224.884 141.868 225.189 142.122 225.447C142.387 225.695 142.685 225.9 143.008 226.071C143.328 226.25 143.677 226.38 144.03 226.509C144.385 226.632 144.749 226.745 145.125 226.856Z" fill="#5E7C24"/>
<path d="M138.765 219.381C138.651 219.914 138.588 220.447 138.547 220.975C138.514 221.504 138.518 222.032 138.579 222.553C138.626 223.075 138.749 223.586 138.918 224.083C139.076 224.588 139.33 225.055 139.588 225.538C139.208 225.153 138.847 224.714 138.629 224.201C138.563 224.077 138.508 223.949 138.467 223.816C138.424 223.683 138.372 223.553 138.335 223.418C138.271 223.147 138.209 222.874 138.182 222.596C138.066 221.49 138.251 220.349 138.765 219.381Z" fill="#5E7C24"/>
<path d="M139.971 227.803C139.725 227.841 139.481 227.819 139.244 227.775C139.006 227.732 138.775 227.655 138.552 227.555C138.333 227.447 138.119 227.321 137.937 227.151C137.755 226.982 137.598 226.777 137.523 226.539C137.931 226.812 138.309 227.002 138.721 227.193C139.127 227.387 139.545 227.557 139.971 227.803Z" fill="#5E7C24"/>
<path d="M136.019 223.48C136.066 224.115 136.037 224.722 136.041 225.326C136.034 225.628 136.043 225.927 136.06 226.224C136.083 226.521 136.109 226.816 136.211 227.119C135.965 226.904 135.834 226.583 135.752 226.276C135.668 225.963 135.641 225.642 135.641 225.325C135.647 225.008 135.672 224.693 135.735 224.384C135.797 224.075 135.881 223.77 136.019 223.48Z" fill="#5E7C24"/>
<path d="M137.786 207.125C137.786 207.125 134.51 195.748 138.704 189.92C141.816 185.595 148.738 188.167 148.39 193.483C148.158 197.042 145.762 201.761 137.786 207.125Z" fill="#8B9D36"/>
<path d="M137.785 207.152C137.992 205.439 138.318 203.743 138.701 202.059C139.088 200.377 139.563 198.714 140.112 197.074C140.396 196.256 140.71 195.449 141.051 194.653C141.392 193.858 141.754 193.068 142.191 192.317C142.621 191.564 143.092 190.831 143.641 190.157C144.203 189.497 144.834 188.877 145.589 188.451C144.885 188.953 144.298 189.587 143.795 190.277C143.287 190.965 142.853 191.704 142.461 192.464C141.674 193.983 141.036 195.579 140.49 197.204C139.913 198.82 139.447 200.475 138.998 202.134C138.773 202.964 138.564 203.798 138.366 204.635C138.156 205.47 137.972 206.31 137.785 207.152Z" fill="#5E7C24"/>
<path d="M141.691 193.645C142.835 193.417 143.969 193.244 145.092 193.021C145.652 192.908 146.207 192.779 146.752 192.623C147.02 192.533 147.289 192.446 147.545 192.327C147.681 192.279 147.791 192.194 147.919 192.128C148.041 192.055 148.133 191.949 148.253 191.858C147.956 192.376 147.392 192.687 146.859 192.916C146.312 193.14 145.742 193.29 145.171 193.412C144.022 193.628 142.856 193.731 141.691 193.645Z" fill="#5E7C24"/>
<path d="M140.837 188.188C141.118 188.84 141.332 189.489 141.586 190.116C141.713 190.428 141.852 190.732 142.015 191.017C142.184 191.298 142.381 191.563 142.715 191.698C142.345 191.736 141.988 191.477 141.763 191.201C141.524 190.919 141.356 190.595 141.216 190.266C140.96 189.6 140.809 188.901 140.837 188.188Z" fill="#5E7C24"/>
<path d="M138.191 190.753C138.527 191.636 138.822 192.511 139.218 193.331C139.414 193.74 139.636 194.136 139.918 194.477C140.2 194.814 140.557 195.098 141.031 195.178C140.553 195.274 140.042 195.031 139.692 194.693C139.326 194.356 139.071 193.933 138.857 193.505C138.653 193.07 138.495 192.619 138.384 192.158C138.273 191.698 138.198 191.228 138.191 190.753Z" fill="#5E7C24"/>
<path d="M140.324 197.068C140.928 197.15 141.528 197.213 142.125 197.279C142.722 197.335 143.318 197.39 143.914 197.408C144.51 197.429 145.105 197.424 145.699 197.383C146.29 197.327 146.88 197.243 147.471 197.087C146.94 197.388 146.345 197.583 145.738 197.692C145.13 197.8 144.513 197.822 143.899 197.808C142.675 197.749 141.457 197.525 140.324 197.068Z" fill="#5E7C24"/>
<path d="M136.693 195.84C136.88 196.185 137.065 196.517 137.26 196.839C137.459 197.157 137.658 197.472 137.899 197.748C138.133 198.029 138.395 198.278 138.693 198.486C138.998 198.682 139.338 198.815 139.722 198.913C139.337 198.983 138.917 198.928 138.541 198.759C138.169 198.583 137.855 198.309 137.592 198.004C137.333 197.694 137.134 197.345 136.983 196.98C136.832 196.615 136.721 196.234 136.693 195.84Z" fill="#5E7C24"/>
<path d="M145.331 200.513C144.49 201.215 143.41 201.632 142.303 201.747C142.026 201.778 141.746 201.773 141.467 201.766C141.328 201.758 141.189 201.734 141.051 201.719C140.912 201.707 140.775 201.679 140.64 201.64C140.092 201.533 139.589 201.27 139.133 200.978C139.66 201.132 140.169 201.283 140.696 201.333C141.217 201.396 141.743 201.411 142.264 201.349C142.786 201.302 143.304 201.197 143.815 201.056C144.324 200.906 144.832 200.735 145.331 200.513Z" fill="#5E7C24"/>
<path d="M136.838 201.086C137.167 201.452 137.42 201.825 137.694 202.183C137.965 202.547 138.229 202.876 138.581 203.219C138.333 203.195 138.099 203.084 137.897 202.941C137.693 202.797 137.525 202.614 137.374 202.423C137.23 202.226 137.108 202.015 137.016 201.792C136.923 201.568 136.853 201.335 136.838 201.086Z" fill="#5E7C24"/>
<path d="M141.872 204.041C141.616 204.235 141.335 204.381 141.046 204.504C140.756 204.63 140.453 204.72 140.144 204.791C139.834 204.856 139.514 204.896 139.19 204.878C138.872 204.862 138.531 204.8 138.27 204.603C138.587 204.641 138.881 204.605 139.177 204.567C139.471 204.522 139.766 204.469 140.06 204.401C140.652 204.278 141.24 204.126 141.872 204.041Z" fill="#5E7C24"/>
<path d="M125.904 229.437V231.575C125.904 231.988 126.233 232.323 126.638 232.323H141.339C141.744 232.323 142.073 231.988 142.073 231.575V229.605C142.073 229.195 141.749 228.862 141.347 228.857L126.646 228.69C126.238 228.685 125.904 229.021 125.904 229.437Z" fill="#D6694B"/>
<path d="M126.605 232.32L127.128 243.351H140.502L141.371 232.32H126.605Z" fill="#E19974"/>
<path d="M269.664 148.264V243.381H291.181V148.264C291.181 147.694 290.718 147.232 290.148 147.232H270.696C270.126 147.232 269.664 147.694 269.664 148.264Z" fill="#935B50"/>
<path d="M288.961 178.751H271.884C271.314 178.751 270.852 178.288 270.852 177.719V165.574C270.852 165.004 271.314 164.542 271.884 164.542H288.961C289.532 164.542 289.994 165.004 289.994 165.574V177.719C289.994 178.288 289.531 178.751 288.961 178.751Z" fill="#E19974"/>
<path d="M288.961 162.979H271.884C271.314 162.979 270.852 162.517 270.852 161.947V149.802C270.852 149.232 271.314 148.771 271.884 148.771H288.961C289.532 148.771 289.994 149.233 289.994 149.802V161.947C289.994 162.517 289.531 162.979 288.961 162.979Z" fill="#E19974"/>
<path d="M288.776 161.18C289.102 161.425 289.034 161.865 288.795 162.099C288.561 162.339 288.121 162.408 287.875 162.08C287.991 161.912 288.051 161.809 288.099 161.721C288.147 161.638 288.182 161.58 288.229 161.534C288.327 161.436 288.452 161.407 288.776 161.18Z" fill="#D6694B"/>
<path d="M287.875 149.692C288.121 149.366 288.561 149.435 288.795 149.673C289.035 149.907 289.104 150.347 288.776 150.593C288.608 150.476 288.505 150.417 288.417 150.369C288.333 150.321 288.275 150.286 288.229 150.239C288.131 150.142 288.102 150.016 287.875 149.692Z" fill="#D6694B"/>
<path d="M272.065 150.594C271.739 150.348 271.808 149.909 272.047 149.674C272.28 149.435 272.721 149.365 272.967 149.693C272.85 149.862 272.79 149.965 272.742 150.052C272.694 150.136 272.659 150.194 272.612 150.24C272.515 150.338 272.39 150.367 272.065 150.594Z" fill="#D6694B"/>
<path d="M272.968 162.08C272.722 162.406 272.282 162.338 272.048 162.099C271.808 161.866 271.738 161.425 272.066 161.18C272.235 161.296 272.338 161.356 272.426 161.404C272.509 161.452 272.567 161.487 272.613 161.534C272.711 161.631 272.74 161.756 272.968 162.08Z" fill="#D6694B"/>
<path d="M288.776 176.953C289.102 177.199 289.034 177.638 288.795 177.873C288.561 178.112 288.121 178.182 287.875 177.854C287.991 177.685 288.051 177.582 288.099 177.495C288.147 177.411 288.182 177.353 288.229 177.307C288.327 177.209 288.452 177.18 288.776 176.953Z" fill="#D6694B"/>
<path d="M287.875 165.462C288.121 165.136 288.561 165.204 288.795 165.443C289.035 165.676 289.104 166.117 288.776 166.362C288.608 166.246 288.505 166.186 288.417 166.138C288.333 166.09 288.275 166.055 288.229 166.008C288.131 165.911 288.102 165.786 287.875 165.462Z" fill="#D6694B"/>
<path d="M272.067 166.363C271.741 166.118 271.81 165.678 272.049 165.444C272.282 165.205 272.723 165.135 272.969 165.463C272.852 165.631 272.792 165.734 272.744 165.822C272.696 165.905 272.661 165.963 272.614 166.009C272.517 166.108 272.392 166.137 272.067 166.363Z" fill="#D6694B"/>
<path d="M272.968 177.854C272.722 178.18 272.282 178.111 272.048 177.873C271.808 177.639 271.738 177.199 272.066 176.953C272.235 177.069 272.338 177.129 272.426 177.177C272.509 177.225 272.567 177.26 272.613 177.307C272.711 177.404 272.74 177.53 272.968 177.854Z" fill="#D6694B"/>
<path d="M288.961 194.502H271.884C271.314 194.502 270.852 194.039 270.852 193.47V181.325C270.852 180.755 271.314 180.293 271.884 180.293H288.961C289.532 180.293 289.994 180.755 289.994 181.325V193.47C289.994 194.04 289.531 194.502 288.961 194.502Z" fill="#E19974"/>
<path d="M288.961 210.253H271.884C271.314 210.253 270.852 209.79 270.852 209.221V197.076C270.852 196.506 271.314 196.044 271.884 196.044H288.961C289.532 196.044 289.994 196.506 289.994 197.076V209.221C289.994 209.791 289.531 210.253 288.961 210.253Z" fill="#E19974"/>
<path d="M288.961 226.023H271.884C271.314 226.023 270.852 225.561 270.852 224.991V212.846C270.852 212.276 271.314 211.814 271.884 211.814H288.961C289.532 211.814 289.994 212.277 289.994 212.846V224.991C289.994 225.561 289.531 226.023 288.961 226.023Z" fill="#E19974"/>
<path d="M288.961 241.774H271.884C271.314 241.774 270.852 241.312 270.852 240.742V228.597C270.852 228.027 271.314 227.565 271.884 227.565H288.961C289.532 227.565 289.994 228.028 289.994 228.597V240.742C289.994 241.312 289.531 241.774 288.961 241.774Z" fill="#E19974"/>
<path d="M282.966 156.125H277.88C277.66 156.125 277.48 155.946 277.48 155.725V154.358C277.48 154.137 277.66 153.958 277.88 153.958H282.966C283.186 153.958 283.366 154.137 283.366 154.358V155.725C283.366 155.946 283.186 156.125 282.966 156.125Z" fill="#D6694B"/>
<path d="M282.966 187.65H277.88C277.66 187.65 277.48 187.47 277.48 187.25V185.882C277.48 185.662 277.66 185.482 277.88 185.482H282.966C283.186 185.482 283.366 185.662 283.366 185.882V187.25C283.366 187.47 283.186 187.65 282.966 187.65Z" fill="#D6694B"/>
<path d="M282.966 203.379H277.88C277.66 203.379 277.48 203.2 277.48 202.979V201.612C277.48 201.391 277.66 201.212 277.88 201.212H282.966C283.186 201.212 283.366 201.391 283.366 201.612V202.979C283.366 203.2 283.186 203.379 282.966 203.379Z" fill="#D6694B"/>
<path d="M282.966 234.9H277.88C277.66 234.9 277.48 234.721 277.48 234.501V233.133C277.48 232.912 277.66 232.733 277.88 232.733H282.966C283.186 232.733 283.366 232.912 283.366 233.133V234.501C283.366 234.722 283.186 234.9 282.966 234.9Z" fill="#D6694B"/>
<path d="M282.966 219.15H277.88C277.66 219.15 277.48 218.971 277.48 218.751V217.383C277.48 217.162 277.66 216.983 277.88 216.983H282.966C283.186 216.983 283.366 217.162 283.366 217.383V218.751C283.366 218.972 283.186 219.15 282.966 219.15Z" fill="#D6694B"/>
<path d="M282.966 171.877H277.88C277.66 171.877 277.48 171.698 277.48 171.477V170.11C277.48 169.889 277.66 169.71 277.88 169.71H282.966C283.186 169.71 283.366 169.889 283.366 170.11V171.477C283.366 171.698 283.186 171.877 282.966 171.877Z" fill="#D6694B"/>
<path d="M288.776 192.68C289.102 192.925 289.034 193.365 288.795 193.599C288.561 193.839 288.121 193.908 287.875 193.58C287.991 193.412 288.051 193.309 288.099 193.221C288.147 193.138 288.182 193.08 288.229 193.034C288.327 192.936 288.452 192.907 288.776 192.68Z" fill="#D6694B"/>
<path d="M287.875 181.17C288.121 180.844 288.561 180.912 288.795 181.151C289.035 181.384 289.104 181.825 288.776 182.07C288.608 181.954 288.505 181.894 288.417 181.846C288.333 181.798 288.275 181.764 288.229 181.716C288.131 181.619 288.102 181.494 287.875 181.17Z" fill="#D6694B"/>
<path d="M272.065 182.071C271.739 181.826 271.808 181.386 272.047 181.152C272.28 180.913 272.721 180.843 272.967 181.171C272.85 181.339 272.79 181.442 272.742 181.53C272.694 181.613 272.659 181.671 272.612 181.717C272.515 181.816 272.39 181.845 272.065 182.071Z" fill="#D6694B"/>
<path d="M272.968 193.58C272.722 193.906 272.282 193.838 272.048 193.599C271.808 193.366 271.738 192.925 272.066 192.68C272.235 192.796 272.338 192.856 272.426 192.904C272.509 192.952 272.567 192.986 272.613 193.034C272.711 193.131 272.74 193.256 272.968 193.58Z" fill="#D6694B"/>
<path d="M288.778 208.453C289.104 208.699 289.036 209.138 288.797 209.373C288.563 209.612 288.123 209.682 287.877 209.354C287.993 209.185 288.053 209.082 288.101 208.995C288.149 208.911 288.184 208.853 288.231 208.807C288.329 208.709 288.454 208.68 288.778 208.453Z" fill="#D6694B"/>
<path d="M287.877 196.941C288.123 196.615 288.563 196.684 288.797 196.922C289.037 197.156 289.106 197.596 288.778 197.842C288.61 197.726 288.507 197.666 288.419 197.618C288.335 197.57 288.277 197.535 288.231 197.488C288.133 197.391 288.104 197.265 287.877 196.941Z" fill="#D6694B"/>
<path d="M272.069 197.843C271.743 197.597 271.812 197.158 272.05 196.923C272.284 196.684 272.725 196.614 272.97 196.942C272.854 197.111 272.794 197.214 272.746 197.301C272.698 197.385 272.663 197.443 272.616 197.489C272.519 197.587 272.394 197.616 272.069 197.843Z" fill="#D6694B"/>
<path d="M272.97 209.354C272.724 209.68 272.284 209.611 272.05 209.373C271.81 209.139 271.74 208.699 272.068 208.453C272.237 208.569 272.34 208.629 272.428 208.677C272.511 208.725 272.569 208.76 272.615 208.807C272.713 208.904 272.742 209.03 272.97 209.354Z" fill="#D6694B"/>
<path d="M288.776 239.975C289.102 240.22 289.034 240.66 288.795 240.894C288.561 241.134 288.121 241.203 287.875 240.875C287.991 240.707 288.051 240.604 288.099 240.516C288.147 240.433 288.182 240.375 288.229 240.329C288.327 240.23 288.452 240.202 288.776 239.975Z" fill="#D6694B"/>
<path d="M287.875 228.484C288.121 228.158 288.561 228.227 288.795 228.465C289.035 228.699 289.104 229.139 288.776 229.385C288.608 229.269 288.505 229.209 288.417 229.161C288.333 229.113 288.275 229.078 288.229 229.031C288.131 228.933 288.102 228.808 287.875 228.484Z" fill="#D6694B"/>
<path d="M272.067 229.386C271.741 229.14 271.81 228.701 272.049 228.466C272.282 228.227 272.723 228.157 272.969 228.485C272.852 228.654 272.792 228.757 272.744 228.844C272.696 228.928 272.661 228.986 272.614 229.032C272.517 229.13 272.392 229.159 272.067 229.386Z" fill="#D6694B"/>
<path d="M272.968 240.875C272.722 241.201 272.282 241.133 272.048 240.894C271.808 240.661 271.738 240.22 272.066 239.975C272.235 240.091 272.338 240.151 272.426 240.199C272.509 240.247 272.567 240.281 272.613 240.329C272.711 240.426 272.74 240.551 272.968 240.875Z" fill="#D6694B"/>
<path d="M288.776 224.222C289.102 224.467 289.034 224.907 288.795 225.141C288.561 225.381 288.121 225.45 287.875 225.122C287.991 224.954 288.051 224.851 288.099 224.763C288.147 224.68 288.182 224.622 288.229 224.576C288.327 224.478 288.452 224.449 288.776 224.222Z" fill="#D6694B"/>
<path d="M287.875 212.714C288.121 212.388 288.561 212.456 288.795 212.695C289.035 212.928 289.104 213.369 288.776 213.614C288.608 213.498 288.505 213.438 288.417 213.39C288.333 213.342 288.275 213.307 288.229 213.26C288.131 213.163 288.102 213.038 287.875 212.714Z" fill="#D6694B"/>
<path d="M272.067 213.615C271.741 213.37 271.81 212.93 272.049 212.696C272.282 212.456 272.723 212.387 272.969 212.715C272.852 212.883 272.792 212.986 272.744 213.074C272.696 213.157 272.661 213.215 272.614 213.261C272.517 213.36 272.392 213.388 272.067 213.615Z" fill="#D6694B"/>
<path d="M272.968 225.122C272.722 225.448 272.282 225.38 272.048 225.141C271.808 224.908 271.738 224.467 272.066 224.222C272.235 224.338 272.338 224.398 272.426 224.446C272.509 224.494 272.567 224.529 272.613 224.576C272.711 224.673 272.74 224.798 272.968 225.122Z" fill="#D6694B"/>
<path d="M205.863 243.817C204.548 242.94 204.369 241.191 205.449 239.845L209.992 234.188C210.167 233.992 210.457 233.92 210.682 234.017L213.916 235.417C214.154 235.52 214.463 235.434 214.631 235.217L216.517 232.79C216.773 232.46 217.298 232.466 217.455 232.799L219.37 236.881C219.481 237.118 219.345 237.416 219.067 237.547L205.866 243.82C205.867 243.82 205.865 243.819 205.863 243.817Z" fill="#6C7FD8"/>
<path d="M174.659 240.761C173.925 239.289 174.771 237.696 176.573 237.141L184.154 234.806C184.433 234.735 184.749 234.833 184.905 235.04L187.152 238.015C187.317 238.233 187.659 238.329 187.945 238.237L191.138 237.2C191.571 237.06 192.064 237.353 192.019 237.724L191.461 242.265C191.428 242.528 191.127 242.708 190.787 242.666L174.661 240.767C174.661 240.766 174.66 240.765 174.659 240.761Z" fill="#6C7FD8"/>
<path d="M100.238 243.766H300.238" stroke="#935B50" stroke-width="2.0689" stroke-miterlimit="10"/>
</g>
<defs>
<filter id="filter0_d_223_12315" x="0.238281" y="0.820312" width="400" height="347.979" filterUnits="userSpaceOnUse" color-interpolation-filters="sRGB">
<feFlood flood-opacity="0" result="BackgroundImageFix"/>
<feColorMatrix in="SourceAlpha" type="matrix" values="0 0 0 0 0 0 0 0 0 0 0 0 0 0 0 0 0 0 127 0" result="hardAlpha"/>
<feOffset dy="4"/>
<feGaussianBlur stdDeviation="50"/>
<feComposite in2="hardAlpha" operator="out"/>
<feColorMatrix type="matrix" values="0 0 0 0 0.933333 0 0 0 0 0.533333 0 0 0 0 0.533333 0 0 0 1 0"/>
<feBlend mode="normal" in2="BackgroundImageFix" result="effect1_dropShadow_223_12315"/>
<feBlend mode="normal" in="SourceGraphic" in2="effect1_dropShadow_223_12315" result="shape"/>
</filter>
</defs>
</svg>
