<svg width="128" height="188" viewBox="0 0 128 188" fill="none" xmlns="http://www.w3.org/2000/svg">
<path d="M103.704 161.625L93.8611 160.195L89.4594 151.278C88.8736 150.092 87.1801 150.092 86.5942 151.278L82.1926 160.195L72.3501 161.625C71.0399 161.816 70.5166 163.425 71.4642 164.349L78.5867 171.29L76.9058 181.091C76.6817 182.396 78.0515 183.391 79.2239 182.774L88.0272 178.147L96.8305 182.774C98.0029 183.391 99.3726 182.396 99.1485 181.091L97.4677 171.29L104.59 164.349C105.537 163.425 105.014 161.816 103.704 161.625Z" fill="#FC9E17"/>
<path d="M81.8086 171.312C81.8413 170.373 81.857 169.303 81.3217 168.504C81.0761 168.138 80.7113 167.835 80.3398 167.583C80.0711 167.401 79.7935 167.23 79.5217 167.054C79.2173 166.856 78.9046 166.672 78.5853 166.501C77.9659 166.172 77.3183 165.891 76.6439 165.695C76.4153 165.629 76.1935 165.544 75.962 165.485C75.7327 165.426 75.5004 165.379 75.2674 165.337C74.2156 165.149 73.1474 165.068 72.1 164.85C72.0479 164.839 71.995 164.828 71.9414 164.816L78.5875 171.293L76.9066 181.093C76.7644 181.921 77.2639 182.623 77.9481 182.87C78.0649 182.664 78.1825 182.459 78.2972 182.251C79.5307 180.035 80.622 177.725 81.2436 175.256C81.5689 173.963 81.7617 172.643 81.8086 171.312Z" fill="#F27E0A"/>
<path d="M91.2672 160.672C91.4049 161.09 91.5806 161.528 91.8813 161.857C92.1605 162.161 92.5736 162.301 92.9659 162.388C93.9426 162.606 94.9766 162.518 95.9666 162.463C97.2023 162.395 98.4433 162.427 99.6805 162.421C101.398 162.412 103.115 162.394 104.832 162.362C104.6 161.985 104.212 161.699 103.705 161.625L93.8622 160.195L89.4605 151.278C89.2022 150.755 88.728 150.463 88.2285 150.401C88.5605 153.003 90.9642 159.752 91.2672 160.672Z" fill="#FFCE00"/>
<path d="M111.844 154.797L107.175 150.906L107.734 144.855C107.809 144.05 106.927 143.509 106.242 143.939L101.098 147.176L95.5143 144.775C94.7706 144.455 93.9837 145.127 94.1818 145.911L95.6713 151.803L91.662 156.37C91.1282 156.978 91.5235 157.934 92.3312 157.988L98.3958 158.392L101.502 163.616C101.915 164.312 102.946 164.231 103.247 163.48L105.506 157.838L111.435 156.499C112.224 156.321 112.466 155.315 111.844 154.797Z" fill="#FC9E17"/>
<path d="M97.3436 152.842C97.6607 152.364 98.0114 151.812 97.9883 151.224C97.9779 150.955 97.8841 150.68 97.7709 150.431C97.689 150.25 97.5997 150.072 97.5141 149.893C97.4188 149.693 97.3146 149.497 97.2029 149.306C96.9856 148.936 96.7384 148.583 96.4496 148.265C96.3521 148.158 96.2635 148.043 96.1623 147.938C96.0618 147.835 95.9561 147.736 95.8481 147.64C95.3605 147.206 94.8298 146.822 94.3541 146.374C94.3303 146.351 94.3065 146.328 94.2826 146.305L95.6732 151.802L91.6638 156.369C91.3251 156.755 91.3608 157.281 91.6378 157.627C91.7643 157.557 91.8916 157.488 92.0174 157.416C93.3685 156.656 94.6757 155.802 95.7886 154.715C96.3707 154.147 96.8933 153.521 97.3436 152.842Z" fill="#F27E0A"/>
<path d="M105.673 150.325C105.611 150.587 105.562 150.872 105.614 151.139C105.662 151.386 105.833 151.591 106.009 151.762C106.448 152.187 107.015 152.472 107.548 152.76C108.212 153.12 108.849 153.533 109.495 153.926C110.392 154.47 111.293 155.009 112.197 155.542C112.197 155.271 112.086 154.998 111.846 154.797L107.177 150.907L107.736 144.856C107.769 144.501 107.615 144.197 107.375 144.005C106.715 145.466 105.809 149.749 105.673 150.325Z" fill="#FFCE00"/>
<path d="M112.085 153.968L102.602 156.965L94.7564 150.852C93.712 150.039 92.1875 150.776 92.1771 152.1L92.0974 162.044L83.8591 167.615C82.7626 168.356 82.9919 170.034 84.2485 170.453L93.6823 173.602L96.4366 183.157C96.8028 184.429 98.4695 184.729 99.2564 183.664L105.167 175.667L115.108 176.001C116.431 176.046 117.231 174.554 116.462 173.477L110.681 165.385L114.071 156.036C114.52 154.791 113.348 153.569 112.085 153.968Z" fill="#E88E18"/>
<path d="M96.5905 172.218C96.2109 171.359 95.759 170.388 94.9298 169.902C94.5494 169.68 94.0886 169.565 93.6442 169.5C93.3233 169.453 92.9988 169.42 92.6765 169.379C92.3169 169.334 91.9551 169.304 91.5926 169.29C90.8914 169.263 90.1865 169.292 89.4942 169.409C89.2597 169.448 89.023 169.469 88.7885 169.516C88.557 169.563 88.327 169.621 88.0992 169.685C87.0704 169.974 86.0729 170.365 85.036 170.625C84.9846 170.637 84.9318 170.651 84.8789 170.663L93.6821 173.602L96.4364 183.158C96.6687 183.965 97.4242 184.38 98.147 184.304C98.1627 184.068 98.179 183.832 98.1924 183.596C98.3376 181.063 98.3145 178.508 97.7987 176.015C97.5284 174.71 97.1272 173.437 96.5905 172.218Z" fill="#F27E0A"/>
<path d="M100.476 158.525C100.781 158.84 101.131 159.159 101.544 159.324C101.927 159.476 102.36 159.422 102.752 159.33C103.726 159.1 104.618 158.572 105.486 158.091C106.569 157.493 107.7 156.982 108.812 156.437C110.354 155.682 111.891 154.918 113.423 154.141C113.05 153.903 112.576 153.814 112.088 153.968L102.604 156.965L94.7586 150.852C94.2978 150.493 93.744 150.437 93.2676 150.598C94.6983 152.797 99.802 157.829 100.476 158.525Z" fill="#FFCE00"/>
<path d="M114.382 163.399L108.18 165.871L101.734 164.804C100.963 164.676 100.006 165.129 100.096 165.586L100.905 169.651L94.3868 173.952C93.4273 174.584 93.5926 175.605 94.7211 175.66L103.897 176.111L109.457 183.972C110.408 185.317 112.669 185.282 113.168 183.892L116.217 175.395L127.01 173.632C128.477 173.392 128.257 172.202 126.721 171.652L117.11 168.211L116.475 163.813C116.402 163.317 115.174 163.084 114.382 163.399Z" fill="#FC9E17"/>
<path d="M106.433 174.612C105.88 174.115 105.257 173.579 104.4 173.425C104.013 173.356 103.575 173.367 103.162 173.406C102.864 173.433 102.566 173.47 102.269 173.502C101.938 173.538 101.608 173.582 101.281 173.637C100.648 173.742 100.018 173.883 99.4078 174.076C99.2001 174.142 98.9894 174.196 98.7824 174.266C98.5777 174.336 98.3753 174.413 98.1743 174.492C97.2631 174.855 96.375 175.283 95.4378 175.636C95.3909 175.653 95.3433 175.671 95.2949 175.688L103.896 176.11L109.456 183.972C110.053 184.815 111.177 185.116 112.061 184.863C111.976 184.592 111.892 184.322 111.805 184.057C110.942 181.399 109.984 179.059 108.635 177.118C107.987 176.183 107.251 175.345 106.433 174.612Z" fill="#F27E0A"/>
<path d="M106.888 166.808C107.182 166.891 107.512 166.968 107.864 166.974C108.191 166.977 108.514 166.889 108.796 166.79C109.495 166.546 110.055 166.195 110.601 165.873C111.271 165.477 111.989 165.113 112.674 164.745C113.607 164.242 114.516 163.748 115.398 163.261C115.058 163.237 114.69 163.276 114.382 163.399L108.181 165.871L101.735 164.804C101.393 164.748 101.017 164.804 100.713 164.922C101.887 165.481 106.253 166.63 106.888 166.808Z" fill="#FFCE00"/>
<path d="M10.4655 39.1138C10.4804 39.1257 10.5295 40.4648 10.5295 40.4648L10.3859 41.7853C10.3859 41.7853 7.02637 41.2218 7.04796 41.393C7.07103 41.5776 6.64895 42.246 6.00951 42.7954C5.37081 43.3573 3.02594 40.7052 3.02594 40.7052C3.02594 40.7052 0.288016 41.7175 0.0133308 40.4938C-0.247955 39.2693 3.39516 39.2105 5.36783 38.7208C7.21023 38.2607 10.266 39.0185 10.4655 39.1138Z" fill="#FF97A6"/>
<path d="M60.306 20.2982C54.5443 25.2569 32.4258 35.3491 32.4258 35.3491L9.06568 38.1191C9.06568 38.1191 9.41257 40.0816 8.53939 42.5963C7.6662 45.1102 25.1024 48.2806 36.3481 45.4697C47.5938 42.6581 68.2168 46.1507 68.2168 46.1507C68.2168 46.1507 64.6608 16.5511 60.306 20.2982Z" fill="#07448C"/>
<path d="M55.0703 179.05L55.6964 181.52L59.3322 181.467L58.6629 178.802L55.0703 179.05Z" fill="#FF97A6"/>
<path d="M59.3391 180.746C59.3391 180.746 58.346 180.63 57.6232 181.064C56.9011 181.498 55.6625 180.866 55.5002 180.805C55.3379 180.745 54.6091 180.9 54.4081 182.25C54.2071 183.6 48.5988 183.57 47.2767 184.318C45.9546 185.065 55.8381 186.824 61.075 185.441C61.7584 182.666 59.3391 180.746 59.3391 180.746Z" fill="#03336D"/>
<path d="M49.5433 69.1259C49.5433 69.1259 37.7549 101.73 42.1037 126.401C46.4533 151.07 54.4482 179.864 54.4482 179.864L59.4699 179.481C59.4699 179.481 68.7712 92.5602 66.2209 78.9233C63.6698 65.2856 49.5433 69.1259 49.5433 69.1259Z" fill="#3E2575"/>
<path d="M73.0977 180.619L73.8279 183.06L77.4578 182.852L76.6761 180.218L73.0977 180.619Z" fill="#FF97A6"/>
<path d="M77.4314 182.132C77.4314 182.132 76.4346 182.059 75.7312 182.522C75.0277 182.986 73.7637 182.408 73.5985 182.354C73.4339 182.301 72.7126 182.487 72.5689 183.844C72.4253 185.202 66.8214 185.41 65.5321 186.213C64.2428 187.017 74.1925 188.353 79.3661 186.748C79.9311 183.947 77.4314 182.132 77.4314 182.132Z" fill="#03336D"/>
<path d="M55.7775 75.6918C55.7775 75.6918 54.3602 108.152 59.7556 132.615C65.151 157.077 72.5102 181.457 72.5102 181.457L77.5111 180.861C77.5111 180.861 88.9898 88.4623 85.8611 74.9468C82.7324 61.4298 55.7775 75.6918 55.7775 75.6918Z" fill="#07448C"/>
<path opacity="0.1" d="M57.0376 95.0971C60.4797 96.8096 64.5657 97.14 68.3525 97.1616C71.9323 97.1817 75.53 96.8609 79.0541 96.235C79.2498 96.2 79.4181 96.2871 79.4828 96.4791C79.66 96.9979 79.7486 97.5397 79.7813 98.0867C79.9399 100.793 78.9759 103.544 78.1697 106.086C77.7901 107.281 77.3859 108.472 77.0888 109.69C76.6422 111.521 76.3816 113.412 76.031 115.263C74.5467 123.1 73.0288 130.969 72.6328 138.953C72.4445 142.741 72.5271 146.547 72.5301 150.339C72.5331 154.05 72.5554 157.76 72.65 161.47C72.8189 168.084 73.2179 174.709 74.1708 181.26L77.5109 180.862C77.5109 180.862 88.9896 88.462 85.8601 74.9463C82.7314 61.4299 55.7773 75.6921 55.7773 75.6921C55.7773 75.6921 55.4371 83.4934 55.7252 94.326C56.1413 94.6111 56.5805 94.8693 57.0376 95.0971Z" fill="#1A2326"/>
<path d="M46.6747 72.4593C47.7645 77.0521 49.6829 80.2992 52.5659 81.1276C57.5311 82.5134 84.3408 83.6201 87.1748 74.6035C88.4388 70.5771 75.2688 22.0495 72.4676 20.1212C64.9528 14.9285 59.3251 19.5481 59.3251 19.5481C49.9174 27.7208 43.4068 58.5894 46.6747 72.4593Z" fill="#D3DCE2"/>
<path opacity="0.1" d="M77.2222 32.311C77.5758 34.0347 78.0158 35.7354 78.3448 37.468C78.7088 39.3912 79.0572 41.5994 78.3798 43.495C77.6473 45.5424 75.7744 46.2644 73.7198 46.1944C71.1873 46.1081 68.8372 45.2432 66.6167 44.1008C67.5933 45.4598 68.3951 46.9379 69.403 48.2761C70.5806 49.8398 72.167 51.0611 73.6751 52.2869C75.1974 53.5246 76.7071 54.8151 77.7917 56.4719C78.9224 58.2008 79.7085 60.2371 80.1969 62.2376C81.0797 65.8562 80.8914 69.8536 78.7192 73.0018C77.1329 75.3001 74.6585 76.3316 71.9943 76.8265C70.4102 77.1213 68.803 77.2843 67.204 77.483C65.7011 77.6698 64.2018 77.8767 62.6937 78.0226C59.6297 78.3195 56.5456 78.4587 53.4683 78.3515C51.9229 78.2979 50.3634 78.1766 48.8105 77.9801C49.8118 79.59 51.0549 80.6937 52.5668 81.1276C57.532 82.5134 84.3417 83.6201 87.1756 74.6034C88.054 71.8043 81.9611 47.5177 77.2222 32.311Z" fill="#1A2326"/>
<path d="M61.2734 20.9009L62.5062 16.4348L66.089 15.7881L68.4651 19.9059C68.4651 19.9059 68.5381 22.7421 64.9113 23.5079C61.2347 24.2834 61.3181 21.2358 61.2734 20.9009Z" fill="#FF97A6"/>
<path opacity="0.55" d="M62.4688 17.6417C62.4688 17.6417 64.1884 19.7586 64.9454 18.8218C65.7025 17.8842 67.1876 17.7324 67.1876 17.7324L66.2601 16.0679L62.4688 17.6417Z" fill="#D0876A"/>
<path d="M71.2926 7.58226C71.2926 6.92586 71.009 6.33719 70.5594 5.92713C70.5683 5.8475 70.5728 5.76638 70.5728 5.68377C70.5728 4.8376 70.1045 4.10157 69.413 3.71979C69.3207 2.56551 68.3559 1.65683 67.1776 1.65683C66.7577 1.65683 66.3654 1.77441 66.0289 1.97535C65.6277 1.36807 64.9391 0.966194 64.156 0.966194C63.7764 0.966194 63.4198 1.06145 63.1064 1.22741C62.7186 0.556132 61.9943 0.10365 61.1635 0.10365C60.7362 0.10365 60.338 0.2257 59.9978 0.432591C59.2891 0.131184 58.3958 -0.0481716 57.1095 0.0113655C55.442 0.0880196 54.0709 3.04925 54.7371 6.46892C54.7371 6.47041 54.7378 6.47189 54.7378 6.47338C54.3507 6.90577 54.1133 7.47509 54.1133 8.10098C54.1133 9.08037 54.6909 9.92356 55.5232 10.3135C55.4688 10.5167 55.4368 10.7288 55.4368 10.9491C55.4368 12.2998 56.5318 13.3946 57.8829 13.3946C58.0638 13.3946 58.2402 13.3737 58.41 13.3358C58.404 13.3879 58.401 13.4415 58.401 13.495C58.401 14.2973 59.0516 14.9478 59.8541 14.9478C60.6566 14.9478 61.3072 14.2973 61.3072 13.495C61.3072 13.2621 61.2476 13.0455 61.1501 12.8506L66.3215 12.6995C66.559 13.1788 67.0517 13.5092 67.6227 13.5092C68.4252 13.5092 69.0758 12.8587 69.0758 12.0565C69.0758 11.959 69.0661 11.8645 69.0475 11.7722C69.7807 11.4031 70.2839 10.6454 70.2839 9.76951C70.2839 9.66681 70.275 9.56708 70.2616 9.4681C70.8817 9.06771 71.2926 8.37336 71.2926 7.58226Z" fill="#3E2575"/>
<path d="M67.9184 10.9743C67.7062 12.3319 68.1752 16.3316 64.5395 17.7956C60.8994 19.2663 59.1269 12.1808 59.1076 11.6933C59.1031 11.5459 59.1046 11.4083 59.1239 11.2802C59.3785 9.08241 62.5795 9.36226 64.812 9.11888C64.8938 9.10995 64.975 9.09581 65.0509 9.08837C67.4129 8.77056 67.3422 8.32698 67.3422 8.32698C67.3422 8.32698 67.9876 7.54475 68.6084 8.60385C69.5241 10.1683 67.9184 10.9743 67.9184 10.9743Z" fill="#FF97A6"/>
<path opacity="0.55" d="M66.8 10.9622C66.8 10.9622 64.2274 10.4777 62.5785 10.1636C60.9297 9.85019 59.3582 11.1937 59.3582 11.1937C59.3009 11.222 59.2213 11.2525 59.1252 11.2793C59.0865 8.77316 63.8388 9.07982 66.0713 8.83643C66.4524 9.63136 66.8 10.9622 66.8 10.9622Z" fill="#D0876A"/>
<path d="M65.8438 8.20033C65.8438 8.20033 66.9716 12.8 67.0327 11.4162C67.0945 10.0331 68.0466 8.41621 67.3699 7.81696C67.0751 7.55641 65.8438 8.20033 65.8438 8.20033Z" fill="#3E2575"/>
<path d="M67.7118 8.58105C67.7118 8.58105 68.4562 8.97469 68.3162 9.34899C68.1763 9.72328 68.0118 10.1646 68.0118 10.1646C68.0118 10.1646 68.1934 9.57446 68.0981 9.29095C68.0021 9.00669 67.5518 8.76113 67.7118 8.58105Z" fill="#D0876A"/>
<path opacity="0.5" d="M57.9223 11.061C57.9223 11.061 58.6213 7.81947 64.4879 8.3369C64.4879 8.33616 57.7228 5.20478 57.9223 11.061Z" fill="#312C58"/>
<path d="M59.4448 11.9483C59.6212 12.767 60.312 13.3438 61.0125 13.2291C61.7487 13.1086 62.2132 12.2832 62.0219 11.3931C61.975 11.1758 61.8924 10.98 61.7867 10.8088L62.2787 10.7285C62.2445 10.9473 62.2475 11.1765 62.2966 11.4065C62.4909 12.3085 63.3157 12.9337 64.1718 12.7938C65.0755 12.6456 65.668 11.7153 65.4544 10.7262C65.2415 9.73713 64.3184 9.13355 63.434 9.37096C62.9755 9.49376 62.636 9.82942 62.4395 10.2484L61.4286 10.4107C61.1145 10.1532 60.7266 10.0341 60.3455 10.136C59.6599 10.3199 59.2676 11.1296 59.4448 11.9483ZM62.4485 11.3737C62.2735 10.561 62.7187 9.74681 63.4735 9.54884C64.2626 9.34119 65.0851 9.88151 65.2757 10.7649C65.4655 11.6476 64.9392 12.4789 64.1338 12.6151C63.3648 12.7446 62.6234 12.1864 62.4485 11.3737ZM59.5691 11.9215C59.4098 11.1839 59.7641 10.4591 60.3812 10.2968C61.0244 10.1279 61.7055 10.6302 61.8767 11.4243C62.048 12.2184 61.6341 12.9567 60.9783 13.0676C60.3492 13.1741 59.7277 12.659 59.5691 11.9215Z" fill="#35366A"/>
<path d="M84.8206 63.3433L74.9781 61.9135L70.5765 52.9957C69.9906 51.8094 68.2971 51.8094 67.7113 52.9957L63.3096 61.9135L53.4671 63.3433C52.1569 63.5338 51.6336 65.1436 52.582 66.0673L59.7044 73.0083L58.0236 82.8095C57.7995 84.1142 59.1692 85.1093 60.3416 84.4931L69.145 79.866L77.9483 84.4931C79.1207 85.1093 80.4904 84.1142 80.2664 82.8095L78.5855 73.0083L85.708 66.0673C86.6541 65.1436 86.1308 63.533 84.8206 63.3433Z" fill="#FC9E17"/>
<path d="M62.9236 73.0289C62.9563 72.0896 62.9719 71.0194 62.4367 70.2208C62.1911 69.8546 61.8263 69.5517 61.4549 69.3001C61.1862 69.1178 60.9085 68.9466 60.6368 68.7695C60.3323 68.5722 60.0197 68.3877 59.7003 68.2172C59.081 67.8875 58.4334 67.6069 57.759 67.4112C57.5304 67.345 57.3086 67.2601 57.0771 67.2006C56.8478 67.1418 56.6156 67.0949 56.3826 67.0532C55.3308 66.8649 54.2626 66.7838 53.2152 66.5657C53.1631 66.5546 53.1102 66.5434 53.0566 66.5322L59.7026 73.0088L58.0217 82.8099C57.8796 83.6375 58.379 84.3401 59.0624 84.5864C59.1793 84.381 59.2969 84.1756 59.4115 83.968C60.645 81.7516 61.7363 79.4414 62.3578 76.9719C62.6831 75.6806 62.8767 74.3603 62.9236 73.0289Z" fill="#F27E0A"/>
<path d="M72.3824 62.3912C72.5201 62.8088 72.6958 63.2472 72.9965 63.5762C73.2757 63.8799 73.6888 64.0206 74.0811 64.1076C75.0578 64.325 76.0918 64.2371 77.0818 64.1821C78.3175 64.1143 79.5584 64.1463 80.7956 64.1404C82.513 64.1314 84.2303 64.1128 85.9469 64.0808C85.7146 63.7042 85.3268 63.4177 84.8199 63.344L74.9774 61.9141L70.5757 52.9957C70.3174 52.4725 69.8432 52.1799 69.3438 52.1182C69.675 54.7203 72.0794 61.4713 72.3824 62.3912Z" fill="#FFCE00"/>
<path d="M77.039 84.8439L77.0383 84.8432C77.179 84.6251 77.3405 84.2916 77.5251 83.7744C77.5251 83.7744 77.5214 83.7774 77.5177 83.7833C77.6197 83.5295 77.7068 83.2564 77.7782 82.978C77.9033 82.4979 77.9651 82.1377 77.9956 81.8802C77.9949 81.8787 77.9956 81.8772 77.9963 81.8772C78.0388 81.4962 78.012 81.3384 78.012 81.3384C78.012 81.3384 80.6889 77.3491 80.8392 76.7328C80.738 76.0339 78.2971 75.1914 78.2971 75.1914C77.6911 75.3217 75.8897 79.2172 75.0001 79.6221C73.9624 80.0947 71.1768 79.8498 71.622 80.6469C72.0679 81.4455 73.8805 81.0168 73.8805 81.0168C73.8805 81.0168 73.8641 81.0325 73.8366 81.063C73.6661 81.2461 73.0431 81.9554 72.7453 82.7785L72.7446 82.7793C72.6634 83.0085 72.6061 83.2467 72.5912 83.4849C72.589 83.5273 72.5868 83.569 72.5868 83.6106C72.5868 83.6851 72.5912 83.761 72.6016 83.8354C72.6031 83.8473 72.6046 83.8607 72.6068 83.8726C72.6121 83.9098 72.6188 83.947 72.6269 83.9835L72.6284 83.988C72.6299 83.9887 72.6299 83.9887 72.6299 83.9895C72.6798 84.0825 72.7684 84.1807 72.921 84.2715C73.4138 84.5626 73.6788 84.25 73.6788 84.25C73.6788 84.25 73.6542 84.6608 74.0838 84.8402C74.5401 85.0314 74.6428 84.7107 74.6428 84.7107C74.6428 84.7107 74.7626 85.1535 75.1267 85.292C75.5108 85.4386 75.6224 85.0635 75.6224 85.0635C75.6224 85.0635 75.6611 85.3842 76.11 85.5599C76.5135 85.7184 77.039 84.8439 77.039 84.8439Z" fill="#FF97A6"/>
<path opacity="0.2" d="M74.9809 84.2773C74.9846 84.2922 74.995 84.3055 75.0159 84.3115C75.2526 84.3762 75.4759 84.4462 75.6486 84.6322C75.7067 84.694 75.7729 84.764 75.8607 84.7736C75.9009 84.7788 75.9389 84.7684 75.9776 84.7632C76.0297 84.7558 76.0766 84.7662 76.128 84.7818C76.2977 84.8332 76.4607 84.9195 76.6088 85.0177C76.6766 85.0631 76.7436 85.113 76.8083 85.1665C76.6185 85.3972 76.3438 85.651 76.1101 85.5602C75.6612 85.3846 75.6233 85.0631 75.6233 85.0631C75.6233 85.0631 75.5116 85.4382 75.1275 85.2916C74.7635 85.1532 74.6437 84.7104 74.6437 84.7104C74.6437 84.7104 74.5409 85.0311 74.0846 84.8391C73.6551 84.6598 73.6797 84.249 73.6797 84.249C73.6797 84.249 73.4147 84.5623 72.9219 84.2713C72.7693 84.1805 72.6807 84.0823 72.6308 83.9893C72.6301 83.9885 72.6301 83.9885 72.6293 83.9878L72.6278 83.9841C72.6197 83.9469 72.613 83.9096 72.6077 83.8724C72.6055 83.8598 72.6033 83.8471 72.6025 83.8352C72.5921 83.7608 72.5884 83.6857 72.5876 83.6112C72.5884 83.5688 72.5906 83.5272 72.5929 83.4855C72.6866 83.5845 72.8125 83.6663 72.9278 83.7325C73.0596 83.8062 73.2092 83.8717 73.3581 83.8583C73.5152 83.8457 73.635 83.7474 73.7854 83.7191C73.9439 83.6916 74.1151 83.7794 74.226 83.8963C74.3228 83.9982 74.3712 84.1225 74.5045 84.188C74.6533 84.2609 74.8178 84.2624 74.9749 84.2773C74.9779 84.2773 74.9794 84.2773 74.9809 84.2773ZM71.7227 80.4433C71.7227 80.4433 72.435 80.4314 72.4998 80.331C72.5646 80.2305 72.4462 80.1211 72.4462 80.1211C72.4462 80.1211 71.783 80.2357 71.7227 80.4433Z" fill="white"/>
<path d="M75.4492 78.5412C75.4492 78.5412 77.605 80.8552 78.7908 80.5128C79.9767 80.1704 96.4711 63.5681 96.1994 51.0742C95.9977 41.8022 90.8866 40.429 86.4195 47.0001C81.9531 53.5712 75.4492 78.5412 75.4492 78.5412Z" fill="#07448C"/>
<path d="M70.6989 19.8448C70.6989 19.8448 70.4398 25.3754 72.973 27.5873C75.5063 29.7985 81.9305 55.5706 87.3699 53.247C92.8092 50.9234 98.2166 50.7151 95.3842 44.5556C92.551 38.3954 79.6258 18.7887 70.6989 19.8448Z" fill="#07448C"/>
</svg>
