<svg width="401" height="348" viewBox="0 0 401 348" fill="none" xmlns="http://www.w3.org/2000/svg">
<g filter="url(#filter0_d_223_11771)">
<path d="M144.942 216.819C129.935 192.745 121.448 165.376 153.803 147.419C186.159 129.462 253.099 167.466 268.106 191.54C283.113 215.614 240.505 216.643 208.149 234.6C175.793 252.556 159.949 240.893 144.942 216.819Z" fill="#FFE3CB"/>
<path d="M142.521 220.735C126.233 194.606 117.022 164.901 152.139 145.411C187.257 125.922 256.902 165.541 272.896 193.282" stroke="#FFE3CB" stroke-width="0.782045" stroke-miterlimit="10"/>
<path d="M276.57 153.138V242.939H298.087V153.138C298.087 152.6 297.625 152.164 297.055 152.164H277.603C277.032 152.164 276.57 152.6 276.57 153.138Z" fill="#935B50"/>
<path d="M295.867 181.915H278.79C278.22 181.915 277.758 181.478 277.758 180.94V169.474C277.758 168.936 278.22 168.5 278.79 168.5H295.867C296.438 168.5 296.9 168.936 296.9 169.474V180.94C296.9 181.478 296.438 181.915 295.867 181.915Z" fill="#E19974"/>
<path d="M295.867 167.041H278.79C278.22 167.041 277.758 166.604 277.758 166.066V154.6C277.758 154.062 278.22 153.626 278.79 153.626H295.867C296.438 153.626 296.9 154.062 296.9 154.6V166.066C296.9 166.604 296.438 167.041 295.867 167.041Z" fill="#E19974"/>
<path d="M295.682 165.34C296.008 165.572 295.94 165.987 295.701 166.208C295.468 166.434 295.027 166.5 294.781 166.19C294.898 166.031 294.958 165.934 295.006 165.851C295.054 165.772 295.088 165.718 295.136 165.674C295.232 165.581 295.358 165.554 295.682 165.34Z" fill="#D6694B"/>
<path d="M294.783 154.478C295.029 154.17 295.469 154.235 295.703 154.46C295.943 154.68 296.012 155.096 295.684 155.328C295.516 155.218 295.413 155.162 295.325 155.116C295.242 155.071 295.184 155.038 295.138 154.994C295.04 154.902 295.01 154.784 294.783 154.478Z" fill="#D6694B"/>
<path d="M278.974 155.329C278.648 155.097 278.716 154.682 278.955 154.461C279.188 154.235 279.629 154.169 279.875 154.479C279.758 154.638 279.698 154.735 279.65 154.818C279.602 154.896 279.568 154.951 279.52 154.995C279.424 155.087 279.298 155.115 278.974 155.329Z" fill="#D6694B"/>
<path d="M279.874 166.19C279.628 166.498 279.188 166.433 278.954 166.208C278.714 165.987 278.645 165.572 278.973 165.34C279.141 165.45 279.244 165.506 279.332 165.552C279.415 165.597 279.473 165.63 279.519 165.674C279.618 165.766 279.647 165.884 279.874 166.19Z" fill="#D6694B"/>
<path d="M295.682 180.217C296.008 180.449 295.94 180.864 295.701 181.085C295.468 181.311 295.027 181.377 294.781 181.067C294.898 180.908 294.958 180.811 295.006 180.728C295.054 180.649 295.088 180.595 295.136 180.551C295.232 180.458 295.358 180.431 295.682 180.217Z" fill="#D6694B"/>
<path d="M294.781 169.353C295.027 169.045 295.467 169.11 295.701 169.335C295.941 169.555 296.01 169.971 295.682 170.203C295.514 170.093 295.411 170.037 295.323 169.991C295.24 169.946 295.182 169.913 295.136 169.869C295.038 169.777 295.008 169.659 294.781 169.353Z" fill="#D6694B"/>
<path d="M278.972 170.204C278.646 169.972 278.714 169.557 278.953 169.336C279.186 169.11 279.627 169.044 279.873 169.354C279.756 169.513 279.696 169.61 279.648 169.693C279.6 169.771 279.566 169.826 279.518 169.87C279.422 169.962 279.296 169.99 278.972 170.204Z" fill="#D6694B"/>
<path d="M279.874 181.067C279.628 181.375 279.188 181.31 278.954 181.085C278.714 180.864 278.645 180.449 278.973 180.217C279.141 180.327 279.244 180.383 279.332 180.429C279.415 180.474 279.473 180.507 279.519 180.551C279.618 180.643 279.647 180.761 279.874 181.067Z" fill="#D6694B"/>
<path d="M295.867 196.791H278.79C278.22 196.791 277.758 196.354 277.758 195.816V184.35C277.758 183.812 278.22 183.376 278.79 183.376H295.867C296.438 183.376 296.9 183.812 296.9 184.35V195.816C296.9 196.355 296.438 196.791 295.867 196.791Z" fill="#E19974"/>
<path d="M295.867 211.668H278.79C278.22 211.668 277.758 211.231 277.758 210.693V199.227C277.758 198.689 278.22 198.253 278.79 198.253H295.867C296.438 198.253 296.9 198.689 296.9 199.227V210.693C296.9 211.232 296.438 211.668 295.867 211.668Z" fill="#E19974"/>
<path d="M295.867 226.544H278.79C278.22 226.544 277.758 226.108 277.758 225.57V214.104C277.758 213.566 278.22 213.13 278.79 213.13H295.867C296.438 213.13 296.9 213.566 296.9 214.104V225.57C296.9 226.109 296.438 226.544 295.867 226.544Z" fill="#E19974"/>
<path d="M295.867 241.419H278.79C278.22 241.419 277.758 240.983 277.758 240.445V228.979C277.758 228.441 278.22 228.005 278.79 228.005H295.867C296.438 228.005 296.9 228.441 296.9 228.979V240.445C296.9 240.983 296.438 241.419 295.867 241.419Z" fill="#E19974"/>
<path d="M289.872 160.549H284.787C284.566 160.549 284.387 160.38 284.387 160.171V158.88C284.387 158.672 284.566 158.503 284.787 158.503H289.872C290.093 158.503 290.272 158.672 290.272 158.88V160.171C290.272 160.38 290.093 160.549 289.872 160.549Z" fill="#D6694B"/>
<path d="M289.87 190.305H284.785C284.564 190.305 284.385 190.136 284.385 189.927V188.636C284.385 188.428 284.564 188.259 284.785 188.259H289.87C290.091 188.259 290.27 188.428 290.27 188.636V189.927C290.27 190.136 290.091 190.305 289.87 190.305Z" fill="#D6694B"/>
<path d="M289.872 205.183H284.787C284.566 205.183 284.387 205.014 284.387 204.805V203.514C284.387 203.306 284.566 203.137 284.787 203.137H289.872C290.093 203.137 290.272 203.306 290.272 203.514V204.805C290.272 205.014 290.093 205.183 289.872 205.183Z" fill="#D6694B"/>
<path d="M289.872 234.93H284.787C284.566 234.93 284.387 234.761 284.387 234.552V233.261C284.387 233.053 284.566 232.884 284.787 232.884H289.872C290.093 232.884 290.272 233.053 290.272 233.261V234.552C290.272 234.761 290.093 234.93 289.872 234.93Z" fill="#D6694B"/>
<path d="M289.872 220.056H284.787C284.566 220.056 284.387 219.887 284.387 219.678V218.387C284.387 218.179 284.566 218.01 284.787 218.01H289.872C290.093 218.01 290.272 218.179 290.272 218.387V219.678C290.272 219.887 290.093 220.056 289.872 220.056Z" fill="#D6694B"/>
<path d="M289.872 175.428H284.787C284.566 175.428 284.387 175.259 284.387 175.05V173.759C284.387 173.551 284.566 173.382 284.787 173.382H289.872C290.093 173.382 290.272 173.551 290.272 173.759V175.05C290.272 175.259 290.093 175.428 289.872 175.428Z" fill="#D6694B"/>
<path d="M295.682 195.086C296.008 195.318 295.94 195.733 295.701 195.954C295.468 196.18 295.027 196.246 294.781 195.936C294.898 195.777 294.958 195.68 295.006 195.597C295.054 195.518 295.088 195.464 295.136 195.42C295.232 195.328 295.358 195.3 295.682 195.086Z" fill="#D6694B"/>
<path d="M294.781 184.229C295.027 183.921 295.467 183.986 295.701 184.211C295.941 184.431 296.01 184.847 295.682 185.079C295.514 184.969 295.411 184.913 295.323 184.867C295.24 184.822 295.182 184.789 295.136 184.745C295.038 184.653 295.008 184.535 294.781 184.229Z" fill="#D6694B"/>
<path d="M278.974 185.078C278.648 184.846 278.716 184.431 278.955 184.21C279.188 183.984 279.629 183.918 279.875 184.228C279.758 184.387 279.698 184.484 279.65 184.567C279.602 184.645 279.568 184.7 279.52 184.744C279.424 184.836 279.298 184.864 278.974 185.078Z" fill="#D6694B"/>
<path d="M279.874 195.936C279.628 196.244 279.188 196.179 278.954 195.954C278.714 195.734 278.645 195.318 278.973 195.086C279.141 195.196 279.244 195.252 279.332 195.298C279.415 195.343 279.473 195.376 279.519 195.42C279.618 195.512 279.647 195.63 279.874 195.936Z" fill="#D6694B"/>
<path d="M295.682 209.963C296.008 210.195 295.94 210.61 295.701 210.831C295.468 211.057 295.027 211.123 294.781 210.813C294.898 210.654 294.958 210.557 295.006 210.474C295.054 210.395 295.088 210.341 295.136 210.297C295.232 210.205 295.358 210.177 295.682 209.963Z" fill="#D6694B"/>
<path d="M294.781 199.102C295.027 198.794 295.467 198.859 295.701 199.084C295.941 199.304 296.01 199.72 295.682 199.952C295.514 199.842 295.411 199.786 295.323 199.74C295.24 199.695 295.182 199.662 295.136 199.618C295.038 199.526 295.008 199.408 294.781 199.102Z" fill="#D6694B"/>
<path d="M278.972 199.953C278.646 199.721 278.714 199.306 278.953 199.085C279.186 198.859 279.627 198.793 279.873 199.103C279.756 199.262 279.696 199.359 279.648 199.442C279.6 199.52 279.566 199.575 279.518 199.619C279.422 199.711 279.296 199.739 278.972 199.953Z" fill="#D6694B"/>
<path d="M279.874 210.813C279.628 211.121 279.188 211.056 278.954 210.831C278.714 210.611 278.645 210.195 278.973 209.963C279.141 210.073 279.244 210.129 279.332 210.175C279.415 210.22 279.473 210.252 279.519 210.297C279.618 210.389 279.647 210.507 279.874 210.813Z" fill="#D6694B"/>
<path d="M295.682 239.719C296.008 239.95 295.94 240.366 295.701 240.587C295.468 240.813 295.027 240.879 294.781 240.569C294.898 240.41 294.958 240.313 295.006 240.23C295.054 240.151 295.088 240.097 295.136 240.053C295.232 239.96 295.358 239.933 295.682 239.719Z" fill="#D6694B"/>
<path d="M294.781 228.859C295.027 228.551 295.467 228.615 295.701 228.841C295.941 229.061 296.01 229.477 295.682 229.709C295.514 229.599 295.411 229.542 295.323 229.497C295.24 229.452 295.182 229.419 295.136 229.374C295.038 229.283 295.008 229.165 294.781 228.859Z" fill="#D6694B"/>
<path d="M278.974 229.71C278.648 229.478 278.716 229.063 278.955 228.842C279.188 228.616 279.629 228.55 279.875 228.86C279.758 229.018 279.698 229.116 279.65 229.198C279.602 229.277 279.568 229.332 279.52 229.375C279.424 229.468 279.298 229.495 278.974 229.71Z" fill="#D6694B"/>
<path d="M279.874 240.569C279.628 240.877 279.188 240.812 278.954 240.587C278.714 240.366 278.645 239.95 278.973 239.719C279.141 239.829 279.244 239.885 279.332 239.93C279.415 239.976 279.473 240.009 279.519 240.053C279.618 240.144 279.647 240.263 279.874 240.569Z" fill="#D6694B"/>
<path d="M295.682 224.842C296.008 225.074 295.94 225.489 295.701 225.71C295.468 225.936 295.027 226.002 294.781 225.692C294.898 225.533 294.958 225.436 295.006 225.353C295.054 225.274 295.088 225.22 295.136 225.176C295.232 225.084 295.358 225.056 295.682 224.842Z" fill="#D6694B"/>
<path d="M294.781 213.984C295.027 213.676 295.467 213.74 295.701 213.966C295.941 214.186 296.01 214.602 295.682 214.834C295.514 214.724 295.411 214.667 295.323 214.622C295.24 214.577 295.182 214.544 295.136 214.499C295.038 214.408 295.008 214.29 294.781 213.984Z" fill="#D6694B"/>
<path d="M278.974 214.83C278.648 214.598 278.716 214.183 278.955 213.962C279.188 213.736 279.629 213.67 279.875 213.98C279.758 214.139 279.698 214.236 279.65 214.319C279.602 214.397 279.568 214.452 279.52 214.496C279.424 214.588 279.298 214.616 278.974 214.83Z" fill="#D6694B"/>
<path d="M279.874 225.692C279.628 226 279.188 225.935 278.954 225.71C278.714 225.489 278.645 225.074 278.973 224.842C279.141 224.952 279.244 225.008 279.332 225.054C279.415 225.099 279.473 225.132 279.519 225.176C279.618 225.268 279.647 225.386 279.874 225.692Z" fill="#D6694B"/>
<path d="M290.679 152.157H284.213C280.475 152.157 277.445 149.298 277.445 145.771V141.559H297.447V145.771C297.447 149.298 294.416 152.157 290.679 152.157Z" fill="#D6694B"/>
<path d="M284.975 139.668C284.59 139.09 284.411 138.635 284.282 138.21C284.164 137.791 284.123 137.418 284.151 137.079C284.172 136.739 284.323 136.461 284.585 136.227C284.845 135.993 285.15 135.77 285.35 135.508L286.587 133.936C287.001 133.399 287.385 132.861 287.653 132.211L287.662 132.189C287.709 132.073 287.847 132.015 287.97 132.06C288.021 132.079 288.062 132.113 288.088 132.154C288.533 132.852 288.646 133.668 288.722 134.435C288.784 135.211 288.747 135.979 288.631 136.71C288.575 137.078 288.603 137.478 288.581 137.863C288.558 138.248 288.412 138.584 288.129 138.854C287.85 139.125 287.495 139.358 287.053 139.541C286.598 139.716 286.091 139.86 285.358 139.872C285.2 139.875 285.061 139.798 284.982 139.681L284.975 139.668Z" fill="#8B9D36"/>
<path d="M281.386 132.177L282.768 135.3C282.876 135.548 283.054 135.775 283.207 135.994C283.278 136.108 283.344 136.213 283.382 136.329C283.422 136.443 283.435 136.567 283.442 136.683C283.444 136.802 283.434 136.935 283.419 137.06C283.404 137.183 283.381 137.314 283.342 137.462C283.315 137.59 283.264 137.743 283.221 137.911C283.169 138.073 283.135 138.239 283.073 138.484L283.066 138.512C283.044 138.6 282.966 138.661 282.876 138.671C282.627 138.698 282.396 138.656 282.167 138.595C281.971 138.524 281.767 138.438 281.588 138.326C281.426 138.221 281.279 138.099 281.14 137.968C281.004 137.838 280.906 137.704 280.802 137.563C280.605 137.28 280.519 136.97 280.524 136.65C280.527 136.329 280.576 136.011 280.57 135.711C280.572 135.408 280.58 135.11 280.596 134.814C280.624 134.516 280.662 134.221 280.701 133.928C280.802 133.341 280.915 132.763 281.106 132.188C281.131 132.114 281.214 132.073 281.292 132.096C281.336 132.109 281.37 132.141 281.386 132.177Z" fill="#5E7C24"/>
<path d="M272.1 134.445C272.941 134.657 273.757 134.91 274.575 135.157L275.789 135.547L276.983 135.964C277.379 136.106 277.801 136.202 278.213 136.311C278.623 136.422 278.994 136.603 279.321 136.853C279.981 137.365 280.539 137.99 280.987 138.921L281.007 138.962C281.045 139.043 281.007 139.137 280.922 139.174C280.921 139.175 280.918 139.176 280.916 139.176C280.338 139.399 279.839 139.41 279.356 139.404C278.882 139.386 278.435 139.312 278.019 139.192C277.599 139.075 277.229 138.877 276.896 138.612C276.567 138.343 276.247 138.06 275.905 137.817L274.885 137.082L273.891 136.309C273.237 135.778 272.585 135.25 271.961 134.674C271.904 134.621 271.903 134.534 271.959 134.48C271.997 134.445 272.051 134.433 272.1 134.445Z" fill="#50661A"/>
<path d="M270.659 140.859C271.4 140.626 272.143 140.444 272.885 140.257L274 140.002L275.117 139.786C275.489 139.722 275.859 139.595 276.23 139.498C276.601 139.401 276.975 139.382 277.353 139.448C277.73 139.513 278.109 139.627 278.49 139.798C278.871 139.978 279.254 140.194 279.643 140.562C279.719 140.634 279.722 140.75 279.652 140.826C279.292 141.219 278.926 141.46 278.559 141.664C278.191 141.86 277.822 141.999 277.451 142.089C277.079 142.18 276.705 142.185 276.327 142.112C275.949 142.04 275.571 141.939 275.195 141.899L274.065 141.758L272.934 141.577C272.179 141.44 271.425 141.307 270.668 141.123C270.59 141.104 270.543 141.029 270.563 140.956C270.577 140.909 270.614 140.874 270.659 140.859Z" fill="#5E7C24"/>
<path d="M276.075 142.872C276.586 143.011 276.948 143.216 277.276 143.437C277.595 143.661 277.858 143.911 278.072 144.181C278.289 144.45 278.42 144.756 278.474 145.092C278.529 145.428 278.554 145.775 278.636 146.1L278.857 147.082L279.021 148.088C279.063 148.427 279.104 148.768 279.125 149.114C279.14 149.463 279.163 149.808 279.082 150.187C279.066 150.259 278.992 150.305 278.916 150.291C278.873 150.283 278.838 150.256 278.819 150.221L278.801 150.188C278.508 149.638 278.094 149.09 277.708 148.549L277.128 147.734L276.567 146.911C276.386 146.634 276.141 146.382 275.925 146.12C275.708 145.858 275.567 145.566 275.506 145.239C275.445 144.913 275.43 144.567 275.468 144.197C275.515 143.824 275.596 143.435 275.82 142.983C275.866 142.89 275.975 142.845 276.075 142.872Z" fill="#8B9D36"/>
<path d="M264.678 145.457C265.174 144.902 265.775 144.471 266.408 144.069C266.728 143.876 267.059 143.695 267.399 143.529C267.741 143.368 268.093 143.231 268.449 143.091C268.809 142.975 269.16 142.783 269.528 142.657C269.712 142.593 269.899 142.539 270.09 142.516C270.281 142.497 270.474 142.501 270.668 142.523C271.442 142.631 272.22 142.92 272.901 143.667C272.97 143.742 272.966 143.852 272.897 143.924L272.89 143.932C272.523 144.309 272.185 144.525 271.855 144.723C271.526 144.924 271.206 145.044 270.892 145.157C270.576 145.258 270.259 145.282 269.928 145.245C269.595 145.196 269.257 145.154 268.922 145.157C268.591 145.171 268.255 145.181 267.922 145.215C267.583 145.23 267.243 145.26 266.905 145.305C266.221 145.378 265.528 145.5 264.841 145.674L264.827 145.677C264.75 145.697 264.671 145.653 264.65 145.581C264.637 145.536 264.649 145.49 264.678 145.457Z" fill="#8B9D36"/>
<path d="M272.306 144.583C272.841 144.568 273.261 144.687 273.642 144.843C274.019 145.005 274.341 145.22 274.615 145.471C274.887 145.724 275.079 146.034 275.178 146.386C275.282 146.736 275.339 147.103 275.438 147.443L275.569 147.96L275.669 148.483C275.712 148.837 275.743 149.189 275.746 149.541C275.753 150.245 275.635 150.946 275.422 151.592C275.398 151.664 275.316 151.704 275.239 151.682C275.194 151.668 275.16 151.636 275.145 151.596L275.142 151.586C274.911 150.955 274.699 150.374 274.38 149.833C274.239 149.561 274.074 149.3 273.905 149.047L273.66 148.668L273.392 148.304C273.217 148.06 272.973 147.853 272.748 147.645C272.526 147.435 272.363 147.199 272.269 146.915C272.084 146.338 271.973 145.712 272.103 144.766L272.105 144.753C272.12 144.657 272.206 144.586 272.306 144.583Z" fill="#50661A"/>
<path d="M264.128 150.946C264.68 150.5 265.247 150.093 265.805 149.68L266.648 149.077L267.496 148.502C267.779 148.315 268.031 148.071 268.291 147.853C268.55 147.633 268.844 147.483 269.174 147.403C269.506 147.324 269.852 147.281 270.236 147.282C270.422 147.279 270.625 147.298 270.835 147.316C271.05 147.346 271.26 147.366 271.528 147.433L271.54 147.435C271.64 147.46 271.705 147.548 271.699 147.642C271.682 147.896 271.614 148.111 271.54 148.324C271.456 148.516 271.366 148.712 271.257 148.881C271.042 149.214 270.786 149.499 270.506 149.728C270.226 149.961 269.902 150.111 269.542 150.188C269.182 150.265 268.81 150.31 268.468 150.407L267.432 150.672L266.379 150.886C265.67 151.008 264.965 151.127 264.236 151.19C264.156 151.197 264.084 151.141 264.077 151.065C264.072 151.018 264.094 150.974 264.128 150.946Z" fill="#50661A"/>
<path d="M263.697 155.341C264.248 154.895 264.815 154.489 265.374 154.075L266.216 153.472L267.064 152.898C267.348 152.711 267.599 152.467 267.859 152.248C268.119 152.029 268.412 151.878 268.742 151.799C269.075 151.719 269.42 151.677 269.804 151.677C269.99 151.674 270.193 151.694 270.404 151.711C270.618 151.742 270.829 151.762 271.097 151.828L271.108 151.831C271.208 151.856 271.273 151.944 271.267 152.038C271.251 152.292 271.182 152.507 271.108 152.719C271.024 152.911 270.935 153.107 270.825 153.277C270.61 153.609 270.354 153.894 270.074 154.123C269.794 154.357 269.47 154.507 269.11 154.583C268.75 154.66 268.379 154.706 268.036 154.802L267 155.067L265.948 155.281C265.239 155.403 264.533 155.523 263.805 155.586C263.724 155.592 263.653 155.537 263.645 155.46C263.641 155.414 263.662 155.369 263.697 155.341Z" fill="#8B9D36"/>
<path d="M271.639 150.439L271.809 150.417L271.956 150.417C272.054 150.419 272.152 150.423 272.249 150.429C272.427 150.455 272.592 150.495 272.737 150.554C273.035 150.664 273.269 150.832 273.444 151.027C273.624 151.221 273.706 151.46 273.693 151.716C273.684 151.972 273.621 152.228 273.617 152.464C273.596 152.938 273.5 153.402 273.335 153.834C273.17 154.267 272.952 154.669 272.674 155.031C272.623 155.097 272.525 155.111 272.455 155.063C272.429 155.045 272.41 155.021 272.4 154.994L272.398 154.987C272.237 154.572 272.112 154.192 271.935 153.839C271.859 153.662 271.774 153.494 271.678 153.333C271.601 153.171 271.502 153.018 271.418 152.869C271.328 152.721 271.174 152.594 271.04 152.475C270.907 152.355 270.851 152.224 270.866 152.058C270.884 151.889 270.928 151.706 271.025 151.473C271.063 151.364 271.126 151.232 271.186 151.097C271.277 150.939 271.319 150.807 271.428 150.612L271.459 150.557C271.496 150.49 271.566 150.448 271.639 150.439Z" fill="#5E7C24"/>
<path d="M270.42 154.373C270.923 154.616 271.235 154.955 271.494 155.311C271.737 155.669 271.908 156.056 271.992 156.449C272.086 156.843 272.059 157.244 271.932 157.626C271.811 158.011 271.626 158.374 271.503 158.74C271.224 159.465 270.888 160.157 270.44 160.78C270.233 161.098 269.977 161.386 269.741 161.677C269.492 161.961 269.213 162.222 268.946 162.479C268.89 162.533 268.8 162.534 268.742 162.481C268.706 162.448 268.693 162.401 268.702 162.357L268.705 162.345C268.784 161.99 268.878 161.652 268.953 161.312C269.01 160.966 269.106 160.642 269.136 160.301L269.21 159.806L269.248 159.311C269.295 158.99 269.289 158.663 269.302 158.347C269.302 158.028 269.237 157.706 269.171 157.397C269.149 157.243 269.124 157.092 269.128 156.943C269.136 156.793 269.157 156.645 269.192 156.495C269.274 156.193 269.379 155.888 269.533 155.557C269.689 155.226 269.871 154.88 270.156 154.459L270.171 154.437C270.224 154.358 270.333 154.332 270.42 154.373Z" fill="#8B9D36"/>
<path d="M284.447 139.067C284.809 139.404 285.009 139.724 285.17 140.04C285.322 140.355 285.412 140.664 285.449 140.966C285.489 141.269 285.436 141.56 285.301 141.839C285.166 142.119 284.999 142.393 284.893 142.676L284.551 143.522L284.149 144.357C283.848 144.905 283.572 145.469 283.098 145.969C283.045 146.024 282.955 146.029 282.897 145.98C282.864 145.952 282.849 145.914 282.85 145.876L282.851 145.845C282.872 145.276 282.819 144.683 282.777 144.097L282.717 143.217L282.682 142.34C282.675 142.049 282.603 141.748 282.559 141.452C282.515 141.156 282.551 140.871 282.677 140.597C282.801 140.324 282.975 140.056 283.208 139.794C283.451 139.533 283.731 139.276 284.169 139.036C284.26 138.984 284.374 139 284.447 139.067Z" fill="#50661A"/>
<path d="M287.722 140.354L287.885 140.393L288.02 140.44L288.287 140.537C288.441 140.609 288.585 140.685 288.702 140.768C288.951 140.931 289.123 141.116 289.251 141.312C289.377 141.509 289.414 141.725 289.361 141.956C289.313 142.184 289.222 142.419 289.198 142.641C289.148 143.089 289.028 143.548 288.864 143.997C288.685 144.433 288.456 144.923 288.018 145.227C287.952 145.274 287.859 145.26 287.81 145.198C287.792 145.174 287.782 145.147 287.781 145.12L287.78 145.09C287.763 144.681 287.624 144.334 287.464 143.967C287.387 143.786 287.311 143.611 287.217 143.432L286.975 142.9C286.892 142.721 286.749 142.553 286.626 142.383C286.506 142.214 286.46 142.032 286.505 141.832C286.548 141.631 286.63 141.42 286.783 141.188C286.849 141.075 286.945 140.953 287.047 140.829L287.236 140.632L287.33 140.532L287.451 140.425L287.46 140.418C287.532 140.353 287.633 140.333 287.722 140.354Z" fill="#8B9D36"/>
<path d="M288.344 140.269C288.29 139.77 288.352 139.376 288.441 139.006C288.537 138.643 288.676 138.319 288.853 138.028C289.028 137.736 289.27 137.503 289.572 137.322C289.873 137.141 290.196 136.98 290.472 136.777L291.312 136.179L292.18 135.604L293.951 134.482L293.955 134.479C294.022 134.437 294.112 134.454 294.158 134.517C294.185 134.555 294.189 134.603 294.172 134.644C293.903 135.294 293.557 135.89 293.219 136.489L292.685 137.366L292.115 138.213C291.919 138.489 291.771 138.808 291.598 139.106C291.427 139.405 291.194 139.649 290.895 139.835C290.597 140.022 290.261 140.175 289.88 140.288C289.493 140.394 289.079 140.475 288.547 140.451C288.44 140.446 288.355 140.367 288.344 140.269Z" fill="#50661A"/>
<path d="M292.11 141.456C292.146 140.932 292.288 140.524 292.454 140.143C292.627 139.769 292.839 139.438 293.085 139.145C293.329 138.851 293.632 138.622 293.988 138.455C294.342 138.286 294.717 138.141 295.05 137.948L296.063 137.386L297.1 136.857C297.802 136.516 298.501 136.174 299.232 135.872C299.305 135.842 299.39 135.873 299.422 135.942C299.443 135.987 299.437 136.036 299.41 136.074L299.406 136.079C298.95 136.707 298.463 137.295 297.978 137.885L297.237 138.75L296.469 139.584C296.208 139.857 295.99 140.176 295.752 140.473C295.514 140.77 295.224 141.007 294.875 141.178C294.527 141.35 294.146 141.484 293.725 141.575C293.298 141.659 292.847 141.716 292.291 141.658C292.183 141.647 292.104 141.557 292.11 141.456Z" fill="#5E7C24"/>
<path d="M292.199 145.152C292.301 145.617 292.283 145.982 292.236 146.323C292.182 146.658 292.082 146.955 291.943 147.22C291.806 147.486 291.601 147.694 291.333 147.851C291.066 148.009 290.775 148.147 290.534 148.325L289.792 148.848L289.019 149.344C288.491 149.663 287.965 149.986 287.399 150.274C287.327 150.311 287.237 150.286 287.197 150.217C287.176 150.18 287.175 150.136 287.19 150.099C287.424 149.534 287.699 149.003 287.97 148.469L288.397 147.684L288.855 146.926C289.014 146.677 289.123 146.388 289.256 146.119C289.389 145.849 289.583 145.631 289.846 145.47C290.107 145.308 290.408 145.178 290.753 145.086C291.106 145 291.487 144.938 291.99 144.977C292.095 144.985 292.179 145.059 292.199 145.152Z" fill="#5E7C24"/>
<path d="M291.643 148.54L291.818 148.559L291.966 148.593L292.261 148.665C292.432 148.726 292.6 148.793 292.735 148.875C293.027 149.032 293.244 149.227 293.414 149.444C293.587 149.66 293.664 149.915 293.654 150.189C293.646 150.463 293.594 150.744 293.598 151.009C293.604 151.541 293.529 152.082 293.378 152.605C293.21 153.127 292.974 153.633 292.609 154.033C292.554 154.092 292.459 154.099 292.396 154.048C292.366 154.024 292.35 153.993 292.344 153.959L292.343 153.95C292.272 153.457 292.149 153.031 291.978 152.622C291.893 152.416 291.808 152.22 291.7 152.025C291.613 151.831 291.504 151.638 291.407 151.449C291.306 151.259 291.137 151.087 290.99 150.914C290.842 150.742 290.772 150.552 290.776 150.33C290.783 150.108 290.82 149.869 290.92 149.597C290.962 149.463 291.027 149.319 291.099 149.167L291.236 148.923L291.304 148.799L291.396 148.662L291.406 148.647C291.458 148.568 291.552 148.529 291.643 148.54Z" fill="#50661A"/>
<path d="M292.192 141.905L292.357 141.862L292.503 141.837L292.793 141.787C292.968 141.77 293.138 141.755 293.286 141.763C293.597 141.761 293.855 141.808 294.085 141.882C294.316 141.953 294.487 142.092 294.614 142.285C294.74 142.482 294.855 142.693 295.01 142.858C295.164 143.017 295.318 143.185 295.474 143.339C295.626 143.512 295.783 143.661 295.947 143.815C296.276 144.125 296.6 144.402 297.058 144.546L297.086 144.555C297.163 144.579 297.205 144.657 297.179 144.73C297.168 144.762 297.145 144.788 297.117 144.804C296.597 145.105 295.937 145.084 295.381 145.023C294.815 144.944 294.267 144.808 293.763 144.614C293.515 144.515 293.224 144.467 292.96 144.383C292.691 144.304 292.479 144.153 292.327 143.938C292.176 143.721 292.058 143.471 291.997 143.167C291.962 143.021 291.946 142.856 291.939 142.684L291.956 142.4L291.967 142.258L291.999 142.097C292.017 142.003 292.09 141.932 292.181 141.908L292.192 141.905Z" fill="#8B9D36"/>
<path d="M289.406 151.588C289.524 151.001 289.788 150.194 290.462 149.505C290.917 149.04 291.172 149.024 291.518 148.599C291.811 148.24 292.055 147.73 292.094 145.972C292.132 144.299 291.95 143.033 291.902 142.711C291.802 142.042 292.29 142.135 292.187 141.395C292.154 141.154 291.974 140.948 291.728 140.873C290.363 140.461 289.243 140.363 288.446 140.356C287.341 140.346 287.146 140.512 286.43 140.356C284.809 140.001 284.755 138.915 283.358 138.635C282.234 138.409 280.977 138.852 280.266 139.549C279.607 140.194 279.897 140.586 279.23 141.352C278.598 142.078 277.802 142.341 276.35 142.801C274.034 143.536 273.646 143.151 272.894 143.798C271.922 144.634 271.731 146.004 271.646 146.606C271.559 147.231 271.629 147.498 271.646 148.327C271.646 148.327 271.68 149.942 271.358 151.769C270.953 154.073 269.12 156.129 267.902 157.294" stroke="#7E883B" stroke-width="0.782045" stroke-miterlimit="10"/>
<path d="M268.567 156.824L268.625 156.972L268.661 157.101L268.732 157.359C268.761 157.515 268.783 157.666 268.782 157.798C268.796 158.075 268.752 158.303 268.675 158.505C268.599 158.706 268.454 158.85 268.247 158.942C268.04 159.035 267.81 159.109 267.629 159.223C267.446 159.335 267.26 159.445 267.069 159.551L266.478 159.853C266.071 160.044 265.667 160.237 265.222 160.397C265.141 160.426 265.049 160.388 265.018 160.311C265.006 160.281 265.005 160.251 265.013 160.222C265.125 159.786 265.279 159.384 265.429 158.979L265.674 158.388C265.762 158.197 265.855 158.009 265.951 157.824C266.048 157.64 266.097 157.416 266.169 157.211C266.241 157.005 266.375 156.852 266.577 156.756C266.779 156.659 267.014 156.59 267.306 156.568C267.445 156.552 267.607 156.554 267.775 156.561L268.055 156.596L268.195 156.614L268.357 156.65C268.457 156.671 268.534 156.74 268.567 156.824Z" fill="#50661A"/>
<path d="M289.835 150.657C290.243 150.914 290.486 151.178 290.688 151.445C290.881 151.711 291.011 151.981 291.086 152.251C291.163 152.521 291.145 152.792 291.042 153.057C290.94 153.323 290.802 153.587 290.727 153.853C290.642 154.119 290.555 154.384 290.46 154.65C290.35 154.914 290.236 155.177 290.11 155.438C289.971 155.698 289.83 155.959 289.647 156.21C289.461 156.449 289.256 156.734 288.874 156.85C288.803 156.871 288.728 156.834 288.705 156.767C288.694 156.735 288.697 156.702 288.712 156.674L288.74 156.618C288.83 156.442 288.821 156.195 288.812 155.954C288.797 155.71 288.772 155.461 288.73 155.209C288.698 154.959 288.656 154.707 288.609 154.455C288.576 154.203 288.535 153.951 288.492 153.699C288.455 153.446 288.35 153.191 288.273 152.938C288.195 152.684 288.197 152.435 288.287 152.186C288.375 151.936 288.513 151.686 288.709 151.433C288.915 151.18 289.156 150.925 289.555 150.662L289.559 150.659C289.644 150.604 289.754 150.606 289.835 150.657Z" fill="#8B9D36"/>
<path d="M169.246 153.955H115.434V96.3203H169.246V153.955ZM117.346 152.151H167.334V98.1244H117.346V152.151Z" fill="#D6694B"/>
<path d="M170.618 156.672H114.063C113.778 156.672 113.547 156.453 113.547 156.184V154.458C113.547 154.189 113.778 153.971 114.063 153.971H170.618C170.903 153.971 171.134 154.189 171.134 154.458V156.184C171.134 156.453 170.903 156.672 170.618 156.672Z" fill="#935B50"/>
<path d="M167.334 115.514H117.346V117.674H167.334V115.514Z" fill="#E19974"/>
<path d="M125.301 140.534L142.3 125.132" stroke="#E19974" stroke-width="0.782045" stroke-miterlimit="10"/>
<path d="M125.301 131.279L139.554 118.829" stroke="#E19974" stroke-width="0.782045" stroke-miterlimit="10"/>
<path d="M141.153 97.8291C141.153 97.8291 136.158 119.124 118.946 128.266C118.946 128.266 132.528 146.179 134.026 156.83H117.033V97.8291H141.153Z" fill="#FFBA55"/>
<path d="M118.945 128.29C118.626 128.439 118.308 128.473 117.989 128.479C117.67 128.473 117.352 128.44 117.033 128.29C117.352 128.141 117.671 128.107 117.989 128.102C118.308 128.108 118.627 128.142 118.945 128.29Z" fill="#E6952A"/>
<path d="M121.125 122.904C121.779 122.126 122.429 121.347 123.057 120.551C123.695 119.764 124.323 118.969 124.932 118.162C126.154 116.55 127.368 114.932 128.473 113.249C129.599 111.58 130.67 109.876 131.617 108.111C131.873 107.678 132.073 107.221 132.305 106.777L132.641 106.106L132.938 105.42C133.129 104.96 133.363 104.512 133.52 104.04L134.026 102.631C133.561 104.572 132.783 106.435 131.893 108.239C131.663 108.687 131.429 109.134 131.19 109.578C130.944 110.018 130.681 110.449 130.428 110.886C130.178 111.325 129.907 111.752 129.634 112.177C129.359 112.601 129.101 113.037 128.81 113.451C127.671 115.126 126.457 116.754 125.179 118.334C123.893 119.909 122.561 121.452 121.125 122.904Z" fill="#E6952A"/>
<path d="M122.277 114.323C122.645 113.435 123.052 112.566 123.465 111.699C123.873 110.83 124.31 109.974 124.747 109.118C125.193 108.267 125.639 107.415 126.113 106.576L126.826 105.319C127.077 104.906 127.315 104.487 127.576 104.079C127.396 104.525 127.193 104.96 127.002 105.4L126.389 106.704C125.981 107.572 125.544 108.428 125.106 109.284C124.66 110.135 124.214 110.987 123.739 111.825C123.269 112.666 122.793 113.503 122.277 114.323Z" fill="#E6952A"/>
<path d="M118.424 114.323C118.568 113.153 118.755 111.991 118.949 110.83C119.138 109.668 119.358 108.511 119.578 107.355C119.808 106.2 120.038 105.045 120.299 103.896L120.692 102.172C120.837 101.599 120.969 101.025 121.126 100.455C121.058 101.04 120.964 101.622 120.885 102.205L120.602 103.948C120.412 105.11 120.192 106.266 119.971 107.423C119.741 108.577 119.511 109.732 119.25 110.881C118.993 112.032 118.73 113.181 118.424 114.323Z" fill="#E6952A"/>
<path d="M119.775 134.5C120.866 136.112 121.88 137.77 122.857 139.445C123.835 141.121 124.748 142.831 125.629 144.556C126.477 146.295 127.293 148.051 127.964 149.862C128.291 150.77 128.591 151.688 128.82 152.624C129.028 153.56 129.201 154.524 129.095 155.48C129.11 154.522 128.9 153.583 128.629 152.669C128.365 151.751 128.034 150.851 127.675 149.961C126.949 148.184 126.14 146.436 125.267 144.716C124.42 142.984 123.505 141.282 122.587 139.58C122.13 138.729 121.663 137.881 121.19 137.037L119.775 134.5Z" fill="#E6952A"/>
<path d="M118.946 140.743C119.028 141.97 119.067 143.197 119.099 144.423C119.136 145.65 119.141 146.877 119.146 148.104C119.142 149.33 119.136 150.557 119.1 151.784L119.044 153.624C119.011 154.237 118.991 154.851 118.946 155.464C118.901 154.851 118.881 154.238 118.848 153.624L118.792 151.784C118.756 150.557 118.75 149.33 118.746 148.104C118.751 146.877 118.756 145.65 118.793 144.423C118.825 143.197 118.864 141.97 118.946 140.743Z" fill="#E6952A"/>
<path d="M121.125 143.093C121.507 144.025 121.824 144.978 122.121 145.936C122.423 146.894 122.673 147.865 122.901 148.84C123.124 149.817 123.308 150.805 123.422 151.801C123.481 152.299 123.513 152.8 123.536 153.3L123.517 154.053C123.501 154.304 123.462 154.553 123.429 154.8L123.411 154.053L123.341 153.312C123.278 152.82 123.212 152.329 123.117 151.84C122.933 150.864 122.741 149.889 122.511 148.919C122.293 147.948 122.055 146.98 121.825 146.008L121.469 144.553L121.125 143.093Z" fill="#E6952A"/>
<path d="M143.434 97.8301C143.434 97.8301 148.428 119.125 165.641 128.267C165.641 128.267 152.059 146.18 150.56 156.831H167.553V97.8301H143.434Z" fill="#FFBA55"/>
<path d="M165.641 128.289C165.959 128.141 166.278 128.107 166.597 128.101C166.915 128.106 167.234 128.139 167.553 128.289C167.234 128.439 166.915 128.472 166.597 128.478C166.278 128.472 165.959 128.438 165.641 128.289Z" fill="#E6952A"/>
<path d="M163.461 122.903C162.025 121.45 160.693 119.908 159.408 118.333C158.129 116.753 156.915 115.125 155.777 113.45C155.486 113.036 155.228 112.601 154.953 112.176C154.68 111.751 154.409 111.324 154.159 110.885C153.905 110.449 153.642 110.017 153.397 109.577C153.157 109.133 152.924 108.686 152.694 108.238C151.804 106.434 151.025 104.571 150.561 102.63L151.067 104.039C151.223 104.511 151.458 104.959 151.649 105.419L151.946 106.105L152.282 106.776C152.513 107.22 152.714 107.677 152.97 108.11C153.917 109.875 154.988 111.579 156.114 113.248C157.219 114.931 158.433 116.549 159.655 118.161C160.263 118.968 160.891 119.763 161.53 120.55C162.157 121.346 162.807 122.125 163.461 122.903Z" fill="#E6952A"/>
<path d="M162.309 114.322C161.793 113.503 161.317 112.665 160.846 111.824C160.372 110.986 159.925 110.134 159.479 109.283C159.042 108.427 158.605 107.572 158.196 106.703L157.584 105.399C157.393 104.959 157.19 104.523 157.01 104.078C157.271 104.486 157.51 104.905 157.76 105.318L158.473 106.576C158.947 107.414 159.393 108.266 159.839 109.117C160.276 109.973 160.713 110.829 161.122 111.698C161.535 112.564 161.941 113.434 162.309 114.322Z" fill="#E6952A"/>
<path d="M166.163 114.321C165.857 113.179 165.593 112.03 165.337 110.88C165.076 109.731 164.846 108.576 164.615 107.422C164.395 106.265 164.175 105.109 163.985 103.947L163.702 102.204C163.622 101.621 163.529 101.039 163.461 100.454C163.618 101.024 163.75 101.598 163.895 102.171L164.288 103.895C164.549 105.044 164.779 106.199 165.009 107.354C165.229 108.51 165.449 109.667 165.638 110.829C165.832 111.989 166.019 113.151 166.163 114.321Z" fill="#E6952A"/>
<path d="M164.813 134.497L163.398 137.034C162.925 137.879 162.458 138.726 162.001 139.578C161.083 141.279 160.168 142.981 159.321 144.713C158.448 146.434 157.639 148.182 156.913 149.959C156.553 150.848 156.223 151.748 155.959 152.666C155.688 153.58 155.478 154.519 155.493 155.477C155.387 154.521 155.56 153.557 155.768 152.621C155.997 151.685 156.297 150.767 156.624 149.86C157.295 148.048 158.111 146.292 158.959 144.553C159.84 142.828 160.752 141.118 161.731 139.443C162.708 137.767 163.722 136.109 164.813 134.497Z" fill="#E6952A"/>
<path d="M165.641 140.741C165.724 141.968 165.763 143.195 165.795 144.421C165.831 145.648 165.836 146.875 165.841 148.102C165.837 149.328 165.831 150.555 165.795 151.782L165.739 153.622C165.706 154.235 165.687 154.849 165.641 155.462C165.596 154.849 165.577 154.236 165.543 153.622L165.487 151.782C165.451 150.555 165.446 149.328 165.441 148.102C165.447 146.875 165.451 145.648 165.488 144.421C165.52 143.195 165.559 141.968 165.641 140.741Z" fill="#E6952A"/>
<path d="M163.462 143.091L163.118 144.551L162.762 146.006C162.532 146.978 162.294 147.946 162.076 148.917C161.846 149.887 161.654 150.862 161.47 151.838C161.375 152.327 161.31 152.817 161.246 153.31L161.176 154.051L161.158 154.798C161.125 154.551 161.086 154.302 161.07 154.051L161.051 153.298C161.074 152.798 161.106 152.297 161.165 151.799C161.279 150.803 161.463 149.816 161.686 148.839C161.914 147.863 162.164 146.891 162.466 145.934C162.763 144.976 163.08 144.023 163.462 143.091Z" fill="#E6952A"/>
<path d="M144.769 152.123H139.114L137.209 142.675H146.674L144.769 152.123Z" fill="#E19974"/>
<path d="M146.457 143.753L146.674 142.675H137.209L137.427 143.753H146.457Z" fill="#D6694B"/>
<path d="M140.761 148.44L139.566 147.312L138.372 148.44L139.566 149.567L140.761 148.44Z" fill="#D6694B"/>
<path d="M143.148 148.44L141.953 147.312L140.759 148.44L141.953 149.567L143.148 148.44Z" fill="#D6694B"/>
<path d="M145.511 148.44L144.316 147.312L143.122 148.44L144.316 149.567L145.511 148.44Z" fill="#D6694B"/>
<path d="M144.144 134.724C144.144 134.724 144.64 141.342 141.73 142.745C141.73 142.745 140.723 140.236 144.144 134.724Z" fill="#558031"/>
<path d="M134.754 137.566C134.754 137.566 139.515 138.342 141.731 142.745C141.731 142.745 136.496 141.067 134.754 137.566Z" fill="#849F4C"/>
<path d="M136.441 146.237C136.441 146.237 138.863 142.819 141.731 142.745C141.731 142.745 141.299 145.497 136.441 146.237Z" fill="#A6B862"/>
<path d="M139.428 135.665C139.428 135.665 142.787 138.559 141.73 142.743C141.73 142.744 139.869 140.882 139.428 135.665Z" fill="#849F4C"/>
<path d="M141.73 142.746C141.73 142.746 142.911 138.669 148.878 137.624C148.878 137.624 147.535 141.336 141.73 142.746Z" fill="#A6B862"/>
<path d="M150.458 141.68C150.458 141.68 145.906 139.909 141.73 142.746C141.73 142.746 147.281 143.374 150.458 141.68Z" fill="#849F4C"/>
<path d="M150.417 145.803C150.417 145.803 148.219 142.48 141.73 142.746L150.417 145.803Z" fill="#558031"/>
<path d="M132.301 142.206C132.301 142.206 138.28 140.114 141.808 142.644C141.809 142.644 138.458 144.385 132.301 142.206Z" fill="#558031"/>
<path d="M137.205 136.151C137.205 136.151 142.54 139.712 141.775 142.749C141.775 142.749 138.073 139.949 137.205 136.151Z" fill="#558031"/>
<path d="M146.563 146.289C146.563 146.289 142.164 145.58 141.73 142.745C141.73 142.745 144.944 142.895 146.563 146.289Z" fill="#849F4C"/>
<path d="M227.411 216.625H155.338V182.624C155.338 178.288 159.063 174.772 163.659 174.772H219.089C223.685 174.772 227.411 178.288 227.411 182.624V216.625H227.411Z" fill="#8795DE"/>
<path d="M250.329 191.909H227.41V213.534H250.329V191.909Z" fill="#A2AEE6"/>
<path d="M227.411 191.906C227.493 193.708 227.532 195.511 227.564 197.312C227.597 199.115 227.594 200.917 227.611 202.719C227.595 204.521 227.597 206.323 227.565 208.125L227.509 210.828C227.476 211.729 227.456 212.63 227.411 213.531C227.365 212.63 227.346 211.729 227.313 210.828L227.257 208.125C227.225 206.323 227.227 204.521 227.211 202.719C227.228 200.917 227.225 199.115 227.258 197.312C227.29 195.511 227.328 193.708 227.411 191.906Z" fill="#4F66D0"/>
<path d="M216.432 182.494C216.055 182.693 215.683 182.895 215.33 183.124C214.969 183.34 214.619 183.571 214.285 183.819C213.615 184.313 212.982 184.846 212.427 185.444C211.867 186.04 211.418 186.714 211.055 187.429L210.815 187.981C210.742 188.168 210.704 188.365 210.644 188.557L210.555 188.848L210.508 189.145C210.479 189.345 210.446 189.545 210.409 189.748C210.365 188.938 210.448 188.097 210.77 187.319C211.081 186.543 211.549 185.822 212.125 185.196C212.712 184.579 213.377 184.033 214.107 183.584C214.836 183.135 215.608 182.747 216.432 182.494Z" fill="#4F66D0"/>
<path d="M219.401 195.692C219.155 195.357 218.907 195.027 218.632 194.717C218.37 194.399 218.093 194.092 217.799 193.802C217.215 193.219 216.592 192.675 215.908 192.21C215.227 191.742 214.472 191.384 213.683 191.111L213.078 190.937C212.874 190.887 212.663 190.87 212.454 190.832L212.14 190.775L211.821 190.76C211.608 190.752 211.393 190.74 211.176 190.725C212.026 190.606 212.921 190.605 213.772 190.833C214.621 191.051 215.425 191.422 216.141 191.904C216.848 192.396 217.487 192.969 218.03 193.613C218.573 194.254 219.057 194.942 219.401 195.692Z" fill="#4F66D0"/>
<path d="M199.135 190.868C199.829 190.379 200.611 190.009 201.42 189.707C202.231 189.404 203.087 189.207 203.96 189.111C204.835 189.029 205.728 189.085 206.58 189.294C207.438 189.495 208.214 189.917 208.889 190.418C208.693 190.33 208.5 190.24 208.311 190.146L208.026 190.01L207.724 189.912C207.523 189.846 207.33 189.762 207.127 189.71L206.51 189.577C205.682 189.444 204.839 189.4 204 189.486C203.162 189.569 202.336 189.749 201.521 189.979C201.113 190.093 200.711 190.229 200.316 190.383C199.914 190.523 199.524 190.692 199.135 190.868Z" fill="#4F66D0"/>
<path d="M208.841 200.776C208.391 200.077 208.075 199.308 207.833 198.519C207.59 197.729 207.463 196.906 207.445 196.077C207.441 195.247 207.586 194.414 207.887 193.634C208.18 192.847 208.699 192.158 209.292 191.571C209.18 191.748 209.067 191.92 208.95 192.088L208.779 192.343L208.647 192.617C208.559 192.8 208.452 192.973 208.377 193.159L208.178 193.726C207.959 194.491 207.833 195.278 207.845 196.074C207.853 196.869 207.963 197.663 208.129 198.449C208.211 198.843 208.316 199.234 208.441 199.62C208.551 200.011 208.693 200.393 208.841 200.776Z" fill="#4F66D0"/>
<path d="M180.643 182.494C180.266 182.693 179.894 182.895 179.541 183.124C179.18 183.34 178.83 183.571 178.496 183.819C177.826 184.313 177.194 184.846 176.638 185.444C176.078 186.04 175.63 186.714 175.266 187.429L175.026 187.981C174.953 188.168 174.915 188.365 174.855 188.557L174.766 188.848L174.719 189.145C174.69 189.345 174.657 189.545 174.62 189.748C174.576 188.938 174.659 188.097 174.981 187.319C175.292 186.543 175.76 185.822 176.336 185.196C176.923 184.579 177.588 184.033 178.318 183.584C179.047 183.135 179.819 182.747 180.643 182.494Z" fill="#4F66D0"/>
<path d="M183.613 195.692C183.368 195.357 183.12 195.027 182.844 194.717C182.583 194.399 182.305 194.092 182.011 193.802C181.427 193.219 180.804 192.675 180.121 192.21C179.439 191.742 178.685 191.384 177.896 191.111L177.291 190.937C177.087 190.887 176.875 190.87 176.667 190.832L176.352 190.775L176.033 190.76C175.82 190.752 175.605 190.74 175.389 190.725C176.239 190.606 177.134 190.605 177.985 190.833C178.833 191.051 179.638 191.422 180.354 191.904C181.061 192.396 181.699 192.969 182.243 193.613C182.785 194.254 183.269 194.942 183.613 195.692Z" fill="#4F66D0"/>
<path d="M163.346 190.868C164.04 190.379 164.822 190.009 165.631 189.707C166.442 189.404 167.298 189.207 168.171 189.111C169.046 189.029 169.939 189.085 170.791 189.294C171.649 189.495 172.425 189.917 173.1 190.418C172.904 190.33 172.711 190.24 172.522 190.146L172.237 190.01L171.935 189.912C171.734 189.846 171.542 189.762 171.338 189.71L170.721 189.577C169.893 189.444 169.05 189.4 168.212 189.486C167.374 189.569 166.547 189.749 165.733 189.979C165.325 190.093 164.923 190.229 164.527 190.383C164.125 190.523 163.736 190.692 163.346 190.868Z" fill="#4F66D0"/>
<path d="M173.052 200.776C172.602 200.077 172.286 199.308 172.044 198.519C171.801 197.729 171.674 196.906 171.656 196.077C171.653 195.247 171.797 194.414 172.098 193.634C172.391 192.847 172.91 192.158 173.504 191.571C173.392 191.748 173.278 191.92 173.162 192.088L172.991 192.343L172.858 192.617C172.77 192.8 172.663 192.973 172.589 193.159L172.39 193.726C172.17 194.491 172.044 195.278 172.056 196.074C172.064 196.869 172.175 197.663 172.341 198.449C172.422 198.843 172.528 199.234 172.652 199.62C172.762 200.011 172.904 200.393 173.052 200.776Z" fill="#4F66D0"/>
<path d="M169.463 243.32H146.688V199.465C146.688 195.292 150.273 191.909 154.696 191.909H169.462V243.32H169.463Z" fill="#A2AEE6"/>
<path d="M185.607 243.321H169.463V191.91H177.599C182.022 191.91 185.607 195.292 185.607 199.465V209.242L250.348 208.825L250.329 191.909H256.88C261.302 191.909 264.888 195.292 264.888 199.465V243.32H185.607V243.321Z" fill="#C0D6F2"/>
<path d="M229.514 133.092C235.707 133.092 240.728 128.355 240.728 122.511C240.728 116.668 235.707 111.931 229.514 111.931C223.321 111.931 218.301 116.668 218.301 122.511C218.301 128.355 223.321 133.092 229.514 133.092Z" fill="#FFBA55"/>
<path d="M229.514 133.092C235.707 133.092 240.728 128.355 240.728 122.511C240.728 116.668 235.707 111.931 229.514 111.931C223.321 111.931 218.301 116.668 218.301 122.511C218.301 128.355 223.321 133.092 229.514 133.092Z" stroke="#D77F4A" stroke-width="0.782045" stroke-miterlimit="10"/>
<path d="M229.514 116.443V123.266" stroke="#D77F4A" stroke-width="0.782045" stroke-miterlimit="10" stroke-linecap="round" stroke-linejoin="round"/>
<path d="M228.232 121.128L235.735 124.678" stroke="#D77F4A" stroke-width="0.782045" stroke-miterlimit="10" stroke-linecap="round" stroke-linejoin="round"/>
<path d="M224.453 170.59L224.505 177.417L229.37 176.876L228.393 170.351L225.309 169.638L224.453 170.59Z" fill="#F9977A"/>
<path d="M225.073 231.632C225.073 231.632 222.567 241.162 223.327 241.472C224.087 241.783 244.295 243.25 240.842 241.562L235.092 239.103C233.039 238.225 231.762 236.314 231.829 234.217L231.927 231.168L225.073 231.632Z" fill="#F9977A"/>
<path d="M192.475 231.632C192.475 231.632 189.97 241.162 190.729 241.472C191.489 241.783 211.697 243.25 208.244 241.562L202.495 239.103C200.441 238.225 199.165 236.314 199.232 234.217L199.329 231.168L192.475 231.632Z" fill="#F9977A"/>
<path d="M206.815 193.215L226.102 194.18C230.315 194.391 233.616 197.675 233.616 201.656L233.23 231.366C233.213 232.657 232.1 233.694 230.732 233.694H224.987C223.687 233.694 222.604 232.754 222.497 231.531L219.477 206.923L193.253 210.754C192.189 210.783 185.955 208.919 185.123 208.433C183.633 207.565 182.149 206.429 181.482 203.769C180.974 201.745 181.183 199.618 181.959 197.672L183.697 193.316L206.815 193.215Z" fill="#FFBA55"/>
<path d="M209.028 196.228C209.028 196.228 214.324 197.634 216.661 196.352C216.661 196.352 218.595 195.166 218.857 195.335C219.104 195.493 218.714 196.221 217.333 197.57C216.787 198.102 216.722 198.948 217.227 199.515C217.589 199.922 218.235 200.364 219.345 200.793C219.345 200.793 225.412 202.512 219.696 204.348C219.696 204.348 216.475 204.914 213.718 202.779C210.96 200.645 207.395 200.38 207.395 200.38L209.028 196.228Z" fill="#F9977A"/>
<path d="M217.736 201.287C218.112 201.393 218.48 201.515 218.848 201.637L219.944 202.014L221.035 202.399C221.4 202.52 221.762 202.653 222.146 202.717C221.751 202.74 221.362 202.642 220.984 202.552C220.603 202.459 220.234 202.335 219.867 202.21C219.501 202.078 219.139 201.94 218.784 201.785C218.429 201.631 218.076 201.472 217.736 201.287Z" fill="#DD765E"/>
<path d="M217.381 202.312C217.721 202.413 218.054 202.525 218.387 202.635L219.384 202.968L220.38 203.302L221.383 203.628C220.672 203.567 219.98 203.386 219.31 203.165C218.976 203.049 218.645 202.927 218.324 202.783C218.002 202.642 217.683 202.492 217.381 202.312Z" fill="#DD765E"/>
<path d="M217.098 203.373C217.369 203.424 217.632 203.492 217.895 203.559C218.159 203.623 218.418 203.7 218.678 203.771L219.456 203.991C219.716 204.059 219.974 204.13 220.248 204.156C219.975 204.217 219.69 204.184 219.419 204.148C219.145 204.108 218.879 204.042 218.615 203.971C218.353 203.893 218.093 203.811 217.84 203.71C217.587 203.611 217.337 203.504 217.098 203.373Z" fill="#DD765E"/>
<path d="M187.693 203.503L187.992 209.164L190.335 231.933C190.459 233.141 191.535 234.062 192.821 234.062H198.515C199.902 234.062 201.025 232.996 201.014 231.688C200.918 220.416 201.296 213.171 200.919 208.515C200.229 199.965 199.456 200.14 199.456 200.14" fill="#FFBA55"/>
<path d="M216.901 165.807C216.901 165.807 221.129 167.9 223.089 180.85C223.089 180.85 223.628 180.826 223.784 176.045C223.804 175.434 224.335 174.946 224.983 174.946H228.615C229.234 174.946 229.751 175.386 229.81 175.966C230.228 180.098 231.238 195.323 223.295 194.481C223.295 194.481 218.033 195.65 215.969 180.947L208.229 187.666L206.268 193.216L204.204 193.313L210.894 195.608C211.565 195.839 211.875 196.567 211.561 197.171L209.739 200.672C209.514 201.105 209.023 201.356 208.516 201.297C204.68 200.849 189.075 198.939 187.899 197.403C186.558 195.65 186.971 193.605 186.971 193.605L184.061 193.313C184.061 193.313 185.216 184.258 186.145 180.363C187.074 176.469 189.834 164.439 199.482 163.129C205.235 162.348 203.061 163.129 208.359 163.129L216.901 165.807Z" fill="#F73C4F"/>
<path d="M208.692 160.547L207.866 158.483C207.352 157.017 206.337 156.589 206.613 155.066L206.922 153.359L208.29 153.291L208.692 160.547Z" fill="#1E1D22"/>
<path d="M219.529 158.885L218.541 152.973L222.533 152.379L222.892 154.524C223.24 156.604 221.734 158.557 219.529 158.885Z" fill="#1E1D22"/>
<path d="M216.935 149.948C214.207 149.268 211.203 151.171 209.449 154.399C209.253 154.241 209.033 154.148 208.797 154.144C207.966 154.131 207.274 155.201 207.251 156.533C207.234 157.489 207.567 158.317 208.062 158.716C207.556 162.731 209.209 166.256 212.164 166.992C215.549 167.835 219.361 164.704 220.679 159.997C221.997 155.29 220.321 150.791 216.935 149.948Z" fill="#F9977A"/>
<path d="M211.871 165.971C210.076 165.425 208.947 164.248 208.574 162.79H208.574C208.574 162.79 208.176 177.056 216.092 166.069L216.09 166.068C214.633 166.374 213.168 166.365 211.871 165.971Z" fill="#F9977A"/>
<path d="M215.46 166.668C214.117 167.083 212.769 167.083 211.579 166.574C209.932 165.871 208.904 164.33 208.574 162.412L208.573 162.411C208.573 162.411 208.545 163.501 208.603 164.952C209.128 166.03 209.95 166.873 211.049 167.343C212.285 167.872 213.694 167.852 215.089 167.386C215.211 167.156 215.558 166.869 215.684 166.62L215.46 166.668Z" fill="#DD765E"/>
<path d="M207.99 155.529C208.069 155.345 208.258 155.216 208.472 155.17C208.581 155.157 208.695 155.159 208.795 155.199C208.897 155.234 208.982 155.296 209.047 155.371C208.847 155.325 208.674 155.282 208.502 155.323C208.327 155.345 208.169 155.434 207.99 155.529Z" fill="#DD765E"/>
<path d="M208.244 157.054C208.318 156.75 208.397 156.458 208.429 156.158C208.457 156.01 208.466 155.859 208.474 155.708C208.486 155.557 208.479 155.406 208.484 155.248C208.613 155.539 208.63 155.866 208.593 156.178C208.539 156.489 208.444 156.799 208.244 157.054Z" fill="#DD765E"/>
<path d="M223.751 151.499C223.665 151.278 223.502 151.037 221.955 150.119C220.759 149.408 220.161 149.053 219.241 148.648C217.081 147.698 216.002 147.223 214.941 147.414C213.512 147.671 213.633 148.612 211.883 149.289C209.756 150.112 208.643 149.084 207.595 149.927C206.124 151.112 206.659 154.475 207.732 154.815C208.364 155.015 209.052 154.128 209.449 154.397C209.846 154.666 209.529 155.803 209.273 156.721C209.094 157.365 208.795 158.06 208.735 158.354L208.036 159.437C208.036 159.437 207.072 164.262 211.358 166.602C215.643 168.941 219.52 163.19 219.52 163.19C219.404 162.496 218.745 162.004 218.001 162.05C217.3 162.093 216.609 161.996 215.999 161.902C214.563 161.681 213.384 161.066 212.353 160.279C211.652 159.743 211.098 159.281 210.694 158.927C210.253 158.541 210.027 157.99 210.075 157.424C210.105 157.07 210.116 156.614 210.238 156.009C210.406 155.175 210.54 154.51 211.076 154.18C211.55 153.889 211.87 154.148 212.807 154.093C214.339 154.003 214.566 153.248 215.846 153.186C216.305 153.164 216.381 153.257 218.313 153.899C221.176 154.85 221.512 154.815 221.766 154.748C223.121 154.391 224.186 152.613 223.751 151.499ZM211.922 162.367C212.384 162.249 212.795 162.218 213.912 162.58C214.598 162.803 214.779 163.014 215.542 163.353C216.275 163.68 216.182 164.058 216.188 164.117C216.222 164.458 215.585 164.829 215.046 164.969C214.378 165.142 213.794 164.953 212.652 164.568C211.7 164.247 211.223 164.08 211.108 163.737C210.938 163.228 211.379 162.504 211.922 162.367Z" fill="#1E1D22"/>
<path d="M214.56 157.328C214.591 156.96 214.361 156.643 214.047 156.62C213.733 156.596 213.454 156.876 213.423 157.244C213.392 157.612 213.622 157.929 213.936 157.952C214.25 157.976 214.529 157.696 214.56 157.328Z" fill="#1E1D22"/>
<path d="M212.746 155.613C212.746 155.613 214.608 155.007 215.755 155.669" stroke="#1E1D22" stroke-width="0.923751" stroke-miterlimit="10" stroke-linecap="round" stroke-linejoin="round"/>
<path d="M216.48 157.624C216.301 158.087 216.248 158.572 216.348 159.036C216.452 159.514 216.525 159.989 216.731 160.418L216.888 160.755C216.947 160.869 216.982 161.065 216.916 161.206C216.859 161.353 216.749 161.465 216.634 161.548C216.518 161.632 216.393 161.688 216.254 161.73C215.691 161.883 215.145 161.682 214.721 161.411C214.964 161.499 215.211 161.571 215.462 161.596C215.71 161.627 215.962 161.617 216.177 161.529C216.383 161.442 216.601 161.295 216.653 161.12C216.683 161.029 216.672 160.966 216.623 160.859L216.461 160.526C216.245 160.056 216.175 159.55 216.125 159.063C216.063 158.559 216.19 158.034 216.48 157.624Z" fill="#DD765E"/>
<path d="M212.189 156.909C212.63 156.516 213.281 156.363 213.892 156.414C214.197 156.451 214.501 156.518 214.771 156.653C214.913 156.706 215.034 156.797 215.161 156.871C215.279 156.961 215.393 157.052 215.499 157.152C215.219 157.049 214.953 156.945 214.681 156.869C214.412 156.785 214.136 156.739 213.862 156.71C213.586 156.679 213.308 156.692 213.029 156.722C212.751 156.758 212.469 156.812 212.189 156.909Z" fill="#1E1D22"/>
<path d="M218.729 158.652C218.873 158.309 218.752 157.942 218.459 157.833C218.166 157.724 217.812 157.914 217.668 158.257C217.525 158.601 217.646 158.967 217.939 159.076C218.232 159.186 218.586 158.996 218.729 158.652Z" fill="#1E1D22"/>
<path d="M220.087 157.465C220.087 157.465 218.697 156.149 217.357 156.268" stroke="#1E1D22" stroke-width="0.923751" stroke-miterlimit="10" stroke-linecap="round" stroke-linejoin="round"/>
<path d="M219.985 158.859C219.778 158.656 219.55 158.491 219.317 158.343C219.081 158.201 218.836 158.075 218.575 157.988C218.314 157.9 218.046 157.828 217.765 157.791C217.485 157.748 217.198 157.73 216.898 157.707C217.039 157.661 217.185 157.627 217.332 157.595C217.48 157.581 217.632 157.549 217.784 157.56C218.089 157.551 218.394 157.617 218.685 157.709C219.258 157.916 219.772 158.324 219.985 158.859Z" fill="#1E1D22"/>
<path d="M219.478 173.644C219.54 175.022 219.207 176.409 218.624 177.682C218.48 178.003 218.304 178.308 218.129 178.614C218.036 178.764 217.932 178.908 217.834 179.055C217.739 179.204 217.632 179.345 217.514 179.48C217.088 180.047 216.537 180.521 215.969 180.946C216.431 180.413 216.886 179.89 217.258 179.312C217.64 178.743 217.981 178.151 218.258 177.531C218.547 176.917 218.786 176.281 218.99 175.632C219.184 174.982 219.358 174.321 219.478 173.644Z" fill="#B02336"/>
<path d="M223.09 180.849L222.561 183.25C222.394 184.05 222.211 184.846 222.064 185.647C221.909 186.447 221.764 187.249 221.652 188.054C221.595 188.456 221.542 188.86 221.515 189.265C221.499 189.468 221.47 189.672 221.464 189.875C221.46 190.078 221.451 190.283 221.438 190.488C221.296 189.676 221.298 188.847 221.345 188.026C221.387 187.202 221.522 186.389 221.67 185.579C221.829 184.772 222.024 183.971 222.263 183.182C222.5 182.392 222.76 181.609 223.09 180.849Z" fill="#B02336"/>
<path d="M197.91 171.6C197.67 170.969 197.331 170.385 196.918 169.867C196.5 169.352 196.001 168.898 195.412 168.576C195.277 168.478 195.114 168.424 194.965 168.348L194.737 168.24C194.659 168.208 194.576 168.189 194.496 168.16C194.335 168.108 194.176 168.047 194.012 168.001C193.844 167.969 193.676 167.933 193.508 167.896C193.423 167.879 193.34 167.856 193.254 167.845L192.995 167.82L192.475 167.763C192.126 167.74 191.774 167.755 191.416 167.732C191.764 167.67 192.118 167.618 192.475 167.578L193.014 167.573C193.196 167.567 193.376 167.575 193.555 167.605C194.282 167.659 194.986 167.911 195.621 168.254C196.893 168.973 197.728 170.271 197.91 171.6Z" fill="#B02336"/>
<path d="M186.663 180.944C186.771 181.997 186.836 183.051 186.893 184.106C186.956 185.16 186.987 186.214 187.017 187.269C187.039 188.324 187.059 189.379 187.049 190.435L187.031 192.018C187.011 192.546 187.005 193.074 186.972 193.603C186.914 193.076 186.882 192.549 186.835 192.022L186.741 190.441C186.679 189.387 186.648 188.333 186.618 187.278C186.597 186.223 186.576 185.168 186.587 184.112C186.593 183.056 186.606 182.001 186.663 180.944Z" fill="#B02336"/>
<path d="M204.205 193.317C202.792 192.897 201.384 192.467 199.983 192.017C198.579 191.575 197.179 191.123 195.785 190.654L195.646 190.608L195.667 190.469C195.835 189.317 195.987 188.162 196.169 187.011L196.707 183.557C196.885 182.406 197.092 181.258 197.283 180.109C197.48 178.96 197.689 177.812 197.91 176.667C197.787 177.826 197.653 178.983 197.506 180.138C197.353 181.293 197.216 182.45 197.049 183.603L196.556 187.062C196.393 188.216 196.202 189.365 196.026 190.517L195.907 190.331C197.299 190.804 198.685 191.293 200.067 191.793C201.453 192.284 202.831 192.795 204.205 193.317Z" fill="#B02336"/>
<path d="M211.754 179.373C211.691 180.013 211.487 180.645 211.18 181.228C210.879 181.815 210.461 182.351 209.964 182.811C209.463 183.264 208.888 183.656 208.247 183.907C207.938 184.056 207.6 184.135 207.272 184.227C206.939 184.303 206.597 184.341 206.262 184.381C206.905 184.168 207.535 183.957 208.108 183.643C208.692 183.352 209.218 182.972 209.685 182.541C210.158 182.114 210.565 181.621 210.908 181.087C211.247 180.551 211.539 179.981 211.754 179.373Z" fill="#B02336"/>
<path d="M211.533 182.836C211.182 183.821 210.445 184.683 209.523 185.282C209.296 185.437 209.043 185.555 208.796 185.68C208.534 185.775 208.282 185.893 208.007 185.948C207.472 186.105 206.905 186.122 206.361 186.094C206.897 185.975 207.418 185.863 207.908 185.668C208.401 185.49 208.868 185.256 209.297 184.971C209.733 184.694 210.135 184.368 210.507 184.01C210.873 183.648 211.223 183.262 211.533 182.836Z" fill="#B02336"/>
<path d="M230.036 179.09C229.08 179.492 228.052 179.714 227.006 179.807C226.482 179.845 225.949 179.841 225.423 179.754C224.906 179.673 224.354 179.484 224.018 179.09C224.456 179.366 224.964 179.428 225.462 179.462C225.962 179.485 226.468 179.474 226.974 179.431C227.988 179.353 229 179.205 230.036 179.09Z" fill="#B02336"/>
<path d="M207.395 194.407C207.133 194.935 206.89 195.464 206.648 195.991C206.411 196.519 206.184 197.05 205.998 197.591C205.806 198.129 205.641 198.677 205.552 199.235C205.467 199.792 205.427 200.36 205.547 200.935C205.277 200.406 205.203 199.793 205.242 199.203C205.271 198.608 205.428 198.03 205.62 197.471C205.819 196.914 206.069 196.375 206.368 195.863C206.662 195.349 207.002 194.858 207.395 194.407Z" fill="#B02336"/>
<path d="M210.861 170.229C210.237 172.142 209.54 174.034 208.812 175.914C208.084 177.795 207.296 179.655 206.496 181.51C205.656 183.349 204.798 185.184 203.841 186.974C202.859 188.745 201.847 190.54 200.428 192.04L200.891 191.43C201.049 191.23 201.205 191.029 201.333 190.81C201.597 190.376 201.895 189.965 202.128 189.515C202.373 189.073 202.637 188.641 202.869 188.192L203.565 186.847C204.46 185.038 205.318 183.211 206.127 181.365C206.956 179.525 207.737 177.667 208.526 175.812L210.861 170.229Z" fill="#B02336"/>
<path d="M218.2 166.981C217.229 168.183 216.252 169.381 215.256 170.564L213.767 172.343C213.273 172.938 212.765 173.522 212.263 174.111L212.057 174.353L211.956 174.055L210.671 170.283L210.969 170.385L207.603 172.381L207.364 172.523L207.329 172.26C207.123 170.732 206.943 169.202 206.763 167.671C206.577 166.141 206.415 164.608 206.262 163.074C206.523 164.595 206.776 166.117 207.005 167.642C207.239 169.166 207.475 170.69 207.684 172.217L207.41 172.096L210.754 170.067L210.975 169.933L211.052 170.169L212.295 173.954L211.988 173.899C212.499 173.317 213.003 172.73 213.522 172.155L215.071 170.422C216.099 169.263 217.147 168.12 218.2 166.981Z" fill="#B02336"/>
<path d="M200.734 207.661C200.68 206.644 200.538 205.631 200.276 204.649C200.023 203.668 199.659 202.705 199.087 201.866C198.52 201.032 197.719 200.332 196.73 200.027C195.73 199.754 194.652 199.621 193.608 199.69C192.562 199.747 191.524 200.023 190.659 200.572C189.787 201.114 189.142 201.928 188.692 202.826L188.408 203.526C188.307 203.758 188.273 204.01 188.201 204.252C188.048 204.735 188.024 205.243 187.946 205.743C187.891 206.246 187.896 206.755 187.869 207.263L187.938 208.788C187.874 208.283 187.813 207.775 187.759 207.266C187.755 206.756 187.718 206.243 187.743 205.73C187.799 205.22 187.808 204.702 187.945 204.199C188.009 203.948 188.035 203.688 188.13 203.444L188.399 202.707C188.821 201.745 189.522 200.872 190.447 200.276C191.369 199.675 192.478 199.368 193.581 199.298C194.692 199.239 195.786 199.385 196.854 199.69C197.928 200.038 198.807 200.806 199.357 201.707C199.923 202.606 200.258 203.603 200.474 204.607C200.672 205.617 200.773 206.641 200.734 207.661Z" fill="#E6952A"/>
<path d="M231.555 201.729C231.039 202.115 230.378 202.343 229.696 202.368C229.012 202.403 228.324 202.213 227.735 201.891C227.133 201.576 226.672 201.096 226.252 200.611C226.069 200.348 225.882 200.089 225.72 199.819C225.582 199.534 225.433 199.258 225.309 198.973C225.516 199.216 225.698 199.469 225.891 199.714C226.091 199.954 226.306 200.179 226.503 200.416C226.953 200.838 227.396 201.274 227.945 201.552C228.477 201.85 229.075 202.033 229.696 202.062C230.315 202.089 230.957 201.983 231.555 201.729Z" fill="#E6952A"/>
<path d="M198.114 206.472C197.724 207.039 197.206 207.53 196.607 207.922C196.01 208.315 195.309 208.593 194.57 208.684C194.201 208.742 193.824 208.711 193.456 208.675L192.913 208.554C192.732 208.515 192.57 208.426 192.4 208.361C192.051 208.244 191.768 208.015 191.464 207.832C191.186 207.615 190.931 207.372 190.682 207.134C190.994 207.306 191.269 207.515 191.577 207.671C191.896 207.809 192.187 207.994 192.522 208.076C193.16 208.313 193.851 208.379 194.516 208.295C195.186 208.219 195.833 207.984 196.434 207.664C197.03 207.334 197.601 206.94 198.114 206.472Z" fill="#E6952A"/>
<path d="M231.555 213.771C231.343 214.647 231.023 215.495 230.662 216.327C230.303 217.16 229.875 217.968 229.378 218.74C228.872 219.504 228.326 220.256 227.644 220.899C226.974 221.546 226.193 222.111 225.309 222.449C226.119 221.974 226.791 221.354 227.404 220.692C228.017 220.028 228.533 219.287 229.023 218.536C229.519 217.785 229.949 216.996 230.372 216.202C230.586 215.806 230.785 215.402 230.977 214.995C231.181 214.594 231.365 214.183 231.555 213.771Z" fill="#E6952A"/>
<path d="M231.556 219.198C231.363 219.994 231.012 220.751 230.586 221.467C230.16 222.184 229.618 222.841 228.997 223.425C228.377 224.011 227.636 224.485 226.843 224.833C226.058 225.212 225.175 225.348 224.324 225.421C224.531 225.36 224.737 225.303 224.943 225.251L225.251 225.17C225.352 225.139 225.449 225.094 225.547 225.057L226.137 224.837L226.697 224.56C227.427 224.171 228.118 223.711 228.706 223.144C229.308 222.592 229.837 221.968 230.314 221.308C230.552 220.977 230.775 220.635 230.976 220.281C231.194 219.933 231.376 219.568 231.556 219.198Z" fill="#E6952A"/>
<path d="M183.697 197.852C183.578 198.489 183.538 199.128 183.537 199.761C183.542 200.395 183.594 201.026 183.725 201.643C183.845 202.261 184.02 202.872 184.268 203.46C184.499 204.056 184.814 204.619 185.136 205.194C184.684 204.709 184.261 204.18 183.97 203.582C183.651 202.997 183.448 202.359 183.315 201.714C183.187 201.066 183.151 200.402 183.214 199.748C183.27 199.096 183.422 198.448 183.697 197.852Z" fill="#E6952A"/>
<path d="M185.135 201.25C185.17 202.003 185.266 202.717 185.518 203.383C185.634 203.719 185.805 204.033 186.007 204.333C186.201 204.641 186.464 204.902 186.726 205.194C186.364 205.037 186.012 204.818 185.748 204.518C185.471 204.229 185.261 203.882 185.126 203.513C184.993 203.144 184.92 202.757 184.922 202.372C184.923 201.988 184.981 201.603 185.135 201.25Z" fill="#E6952A"/>
<path d="M243.305 242.389V242.353C243.305 241.788 242.968 241.271 242.433 241.017L231.798 235.634C231.57 235.526 231.291 235.587 231.138 235.78L227.181 238.559C227.019 238.763 226.719 238.818 226.487 238.687L223.89 237.217C223.538 237.017 223.09 237.257 223.09 237.644V242.389C223.09 242.665 223.327 242.888 223.619 242.888H242.777C243.068 242.888 243.305 242.665 243.305 242.389Z" fill="#F73C4F"/>
<path d="M210.506 242.389V242.353C210.506 241.788 210.169 241.271 209.634 241.017L198.999 235.634C198.771 235.526 198.493 235.587 198.339 235.78L194.383 238.559C194.22 238.763 193.92 238.818 193.688 238.687L191.091 237.217C190.739 237.017 190.291 237.257 190.291 237.644V242.389C190.291 242.665 190.528 242.888 190.82 242.888H209.978C210.269 242.888 210.506 242.665 210.506 242.389Z" fill="#F73C4F"/>
<path d="M223.96 164.118L222.945 163.347C222.618 163.03 222.053 163.235 222.028 163.678C222.001 164.171 222.051 164.841 222.308 165.683L222.745 167.2L223.96 164.118Z" fill="#F9977A"/>
<path d="M219.483 167.278C219.748 166.825 220.362 166.669 220.867 166.872L221.658 167.19C222.062 167.353 222.537 167.176 222.714 166.796L225.223 161.404C225.312 161.212 225.196 160.903 225.005 160.617C224.793 160.302 224.288 160.352 224.143 160.699C224.045 160.935 223.761 161.051 223.511 160.957L223.347 160.895C223.105 160.803 222.982 160.548 223.07 160.316L223.65 158.781L223.651 158.782C223.709 158.576 223.81 158.372 224.193 158.235C224.583 158.095 225.019 158.117 225.408 158.258L227.14 158.886C227.46 159.002 227.714 159.24 227.838 159.541C227.956 159.826 227.949 160.142 227.819 160.421L223.866 168.917C223.73 169.209 223.476 169.438 223.161 169.554C222.853 169.667 222.511 169.664 222.206 169.543L219.994 168.668C219.425 168.443 219.179 167.8 219.483 167.278Z" fill="#4F66D0"/>
<path d="M228.394 170.35C228.394 170.35 229.256 165.942 228.131 162.849C227.998 162.485 227.713 162.189 227.337 162.04L226.266 161.614C225.586 161.344 224.8 161.614 224.462 162.233C224.337 162.462 224.285 162.719 224.313 162.975C224.421 163.995 224.69 166.672 224.529 166.864C224.529 166.864 223.917 167.824 223.875 168.902C223.851 169.482 224.101 170.194 224.454 170.589L228.394 170.35Z" fill="#F9977A"/>
<path d="M185.607 231.191H169.463V191.909H177.599C182.022 191.909 185.607 194.494 185.607 197.683V206.307V231.191Z" fill="#C0D6F2"/>
<path d="M122.556 232.207C122.556 232.207 112.908 217.052 111.396 213.248" stroke="#8B9D36" stroke-width="0.782045" stroke-miterlimit="10"/>
<path d="M114.637 205.299C114.208 206.262 113.937 207.24 113.713 208.221C113.496 209.204 113.342 210.191 113.241 211.184C113.14 212.177 113.094 213.174 113.111 214.178C113.134 215.182 113.205 216.19 113.437 217.212C113.868 216.249 114.14 215.272 114.363 214.29C114.58 213.308 114.734 212.32 114.833 211.327C114.932 210.334 114.978 209.336 114.961 208.333C114.938 207.329 114.867 206.321 114.637 205.299Z" fill="#8B9D36"/>
<path d="M118.165 209.853C117.645 210.749 117.282 211.674 116.966 212.608C116.656 213.543 116.408 214.488 116.212 215.444C116.017 216.399 115.876 217.364 115.796 218.341C115.723 219.318 115.698 220.304 115.831 221.319C116.352 220.423 116.716 219.498 117.032 218.564C117.342 217.63 117.59 216.684 117.783 215.728C117.977 214.773 118.118 213.807 118.197 212.831C118.27 211.853 118.295 210.867 118.165 209.853Z" fill="#8B9D36"/>
<path d="M120.108 215.152C119.647 215.99 119.344 216.848 119.087 217.713C118.838 218.579 118.651 219.454 118.516 220.335C118.382 221.216 118.303 222.105 118.285 223.002C118.274 223.9 118.311 224.805 118.508 225.731C118.971 224.894 119.275 224.035 119.531 223.17C119.78 222.304 119.967 221.43 120.099 220.548C120.232 219.666 120.311 218.777 120.328 217.88C120.339 216.982 120.302 216.078 120.108 215.152Z" fill="#8B9D36"/>
<path d="M122.558 220.441C122.092 221.148 121.784 221.881 121.523 222.621C121.268 223.362 121.075 224.113 120.935 224.873C120.795 225.633 120.71 226.402 120.686 227.181C120.668 227.961 120.699 228.748 120.888 229.562C121.356 228.856 121.665 228.123 121.926 227.383C122.18 226.642 122.373 225.891 122.511 225.13C122.649 224.37 122.735 223.601 122.758 222.822C122.775 222.042 122.745 221.255 122.558 220.441Z" fill="#8B9D36"/>
<path d="M124.717 223.745C124.239 224.363 123.911 225.007 123.625 225.659C123.345 226.311 123.121 226.974 122.938 227.644C122.757 228.315 122.621 228.993 122.523 229.68C122.479 230.025 122.437 230.369 122.41 230.719C122.369 231.066 122.385 231.42 122.289 231.783C122.375 231.743 122.461 231.687 122.555 231.625L122.77 231.421C122.923 231.28 123.024 231.129 123.147 230.976C123.371 230.669 123.562 230.349 123.727 230.024C124.059 229.373 124.306 228.701 124.488 228.016C124.673 227.332 124.793 226.635 124.847 225.925C124.893 225.215 124.887 224.494 124.717 223.745Z" fill="#8B9D36"/>
<path d="M112.539 215.588C111.797 214.795 110.964 214.171 110.105 213.597C109.242 213.029 108.344 212.528 107.415 212.083C106.487 211.638 105.526 211.252 104.531 210.931C103.532 210.617 102.506 210.355 101.389 210.262C102.129 211.057 102.961 211.682 103.821 212.255C104.684 212.822 105.582 213.324 106.512 213.766C107.442 214.209 108.402 214.596 109.397 214.916C110.396 215.23 111.422 215.493 112.539 215.588Z" fill="#8B9D36"/>
<path d="M114.929 219.799C113.982 219.046 112.965 218.469 111.927 217.946C110.886 217.429 109.818 216.981 108.726 216.593C107.634 216.204 106.518 215.877 105.374 215.62C104.228 215.368 103.059 215.171 101.82 215.152C102.766 215.908 103.783 216.485 104.821 217.009C105.862 217.526 106.93 217.973 108.023 218.359C109.116 218.745 110.232 219.073 111.376 219.33C112.523 219.58 113.691 219.778 114.929 219.799Z" fill="#8B9D36"/>
<path d="M117.743 224.481C116.897 223.75 115.978 223.194 115.038 222.691C114.094 222.195 113.122 221.768 112.126 221.4C111.129 221.031 110.108 220.725 109.058 220.486C108.005 220.254 106.93 220.077 105.781 220.076C106.626 220.809 107.545 221.366 108.486 221.869C109.43 222.364 110.402 222.792 111.399 223.157C112.396 223.524 113.418 223.831 114.468 224.069C115.521 224.3 116.596 224.478 117.743 224.481Z" fill="#8B9D36"/>
<path d="M119.968 228.084C119.221 227.454 118.415 227.004 117.591 226.607C116.765 226.218 115.915 225.9 115.045 225.641C114.176 225.383 113.285 225.187 112.371 225.062C111.455 224.944 110.52 224.881 109.525 224.999C110.271 225.631 111.077 226.082 111.901 226.478C112.727 226.867 113.577 227.186 114.448 227.442C115.318 227.698 116.209 227.893 117.123 228.018C118.039 228.136 118.974 228.2 119.968 228.084Z" fill="#8B9D36"/>
<path d="M121.723 231.319C120.913 230.562 120.024 229.978 119.111 229.446C118.194 228.921 117.247 228.464 116.273 228.065C115.299 227.666 114.298 227.327 113.265 227.055C112.229 226.791 111.169 226.579 110.029 226.542C110.838 227.301 111.727 227.886 112.64 228.417C113.556 228.942 114.504 229.399 115.479 229.796C116.454 230.193 117.455 230.532 118.488 230.803C119.524 231.068 120.584 231.279 121.723 231.319Z" fill="#8B9D36"/>
<path d="M111.762 213.793C111.94 212.708 111.847 211.724 111.684 210.766C111.509 209.812 111.233 208.896 110.867 208.012C110.503 207.128 110.047 206.278 109.489 205.465C108.919 204.657 108.279 203.875 107.365 203.194C107.183 204.28 107.276 205.264 107.439 206.222C107.615 207.176 107.892 208.092 108.26 208.974C108.627 209.857 109.085 210.707 109.641 211.52C110.212 212.328 110.851 213.111 111.762 213.793Z" fill="#8B9D36"/>
<path d="M124.054 232.918C124.054 232.918 123.622 207.714 118.438 199.97" stroke="#50661A" stroke-width="0.782045" stroke-miterlimit="10"/>
<path d="M120.093 203.342C119.911 202.179 119.915 201.054 119.973 199.939C120.037 198.825 120.173 197.726 120.363 196.637C120.549 195.548 120.803 194.47 121.102 193.402C121.401 192.326 121.777 191.29 122.18 190.188C122.29 190.458 122.385 190.75 122.438 191.034C122.506 191.321 122.548 191.609 122.579 191.893C122.649 192.467 122.663 193.034 122.661 193.6C122.649 194.731 122.527 195.844 122.335 196.946C122.141 198.047 121.868 199.133 121.515 200.203C121.153 201.272 120.724 202.328 120.093 203.342Z" fill="#50661A"/>
<path d="M113.757 187.945C114.715 188.785 115.399 189.721 116.014 190.681C116.616 191.646 117.115 192.647 117.526 193.679C117.938 194.711 118.258 195.776 118.475 196.876C118.681 197.981 118.815 199.111 118.673 200.339C117.713 199.5 117.028 198.565 116.413 197.604C115.812 196.639 115.312 195.638 114.905 194.604C114.496 193.571 114.176 192.507 113.959 191.406C113.755 190.301 113.619 189.172 113.757 187.945Z" fill="#50661A"/>
<path d="M109.508 194.143C110.602 194.951 111.555 195.831 112.479 196.726C113.398 197.624 114.274 198.543 115.131 199.466L117.679 202.225C118.106 202.676 118.538 203.121 118.995 203.543C119.457 203.963 119.921 204.363 120.549 204.651C120.21 204.709 119.832 204.702 119.485 204.626C119.127 204.566 118.789 204.449 118.46 204.322C117.803 204.058 117.202 203.711 116.634 203.334C115.506 202.569 114.519 201.67 113.627 200.709C112.735 199.746 111.94 198.716 111.237 197.629C110.543 196.537 109.922 195.397 109.508 194.143Z" fill="#50661A"/>
<path d="M109.508 200.34C110.841 200.947 112.042 201.694 113.202 202.484C114.357 203.278 115.459 204.128 116.516 205.025C117.574 205.922 118.585 206.867 119.543 207.868C120.497 208.874 121.409 209.922 122.187 211.112C120.851 210.507 119.65 209.76 118.491 208.97C117.336 208.175 116.233 207.325 115.178 206.427C114.122 205.528 113.111 204.583 112.153 203.582C111.2 202.576 110.287 201.528 109.508 200.34Z" fill="#50661A"/>
<path d="M109.941 205.201C111.285 205.77 112.499 206.482 113.673 207.238C114.843 207.999 115.962 208.816 117.037 209.681C118.112 210.546 119.142 211.461 120.121 212.433C121.096 213.41 122.03 214.43 122.834 215.595C121.489 215.028 120.274 214.317 119.1 213.561C117.93 212.8 116.811 211.983 115.738 211.116C114.665 210.249 113.635 209.334 112.655 208.362C111.681 207.385 110.747 206.364 109.941 205.201Z" fill="#50661A"/>
<path d="M110.229 210.396C111.566 210.85 112.785 211.456 113.967 212.107C115.145 212.764 116.275 213.48 117.366 214.247C118.457 215.013 119.505 215.833 120.507 216.712C121.505 217.596 122.466 218.527 123.307 219.61C121.967 219.157 120.749 218.552 119.567 217.901C118.389 217.244 117.258 216.528 116.169 215.759C115.08 214.99 114.031 214.17 113.029 213.292C112.032 212.407 111.071 211.476 110.229 210.396Z" fill="#50661A"/>
<path d="M109.941 214.171C111.338 214.68 112.613 215.34 113.853 216.045C115.087 216.755 116.274 217.525 117.421 218.345C118.567 219.165 119.672 220.037 120.729 220.968C121.782 221.905 122.797 222.888 123.691 224.022C122.293 223.514 121.017 222.855 119.778 222.15C118.544 221.44 117.357 220.67 116.211 219.848C115.066 219.026 113.961 218.154 112.905 217.223C111.853 216.286 110.837 215.303 109.941 214.171Z" fill="#50661A"/>
<path d="M108.934 217.703C110.387 218.32 111.719 219.066 113.022 219.844C114.32 220.628 115.576 221.457 116.8 222.322C118.028 223.182 119.222 224.079 120.395 225.005C121.58 225.924 122.7 226.881 123.926 227.828C123.137 227.72 122.366 227.479 121.636 227.198C120.902 226.916 120.202 226.581 119.511 226.232C118.144 225.516 116.846 224.707 115.604 223.834C114.366 222.956 113.18 222.016 112.055 221.008C110.935 219.994 109.864 218.925 108.934 217.703Z" fill="#50661A"/>
<path d="M107.709 221.369C109.273 221.922 110.726 222.621 112.149 223.36C113.566 224.105 114.942 224.905 116.287 225.747C117.631 226.589 118.941 227.477 120.223 228.403C120.863 228.869 121.496 229.342 122.123 229.826C122.762 230.296 123.344 230.837 124.053 231.219C123.625 231.251 123.206 231.12 122.805 231.017C122.403 230.905 122.013 230.768 121.627 230.626C120.858 230.338 120.114 230.008 119.385 229.658C117.928 228.955 116.531 228.168 115.179 227.318C113.828 226.468 112.522 225.557 111.265 224.581C110.014 223.598 108.8 222.563 107.709 221.369Z" fill="#50661A"/>
<path d="M121.334 207.658C121.382 206.398 121.616 205.201 121.908 204.025C122.207 202.851 122.579 201.703 123.015 200.576C123.45 199.449 123.951 198.345 124.525 197.266C125.106 196.189 125.745 195.133 126.573 194.142C126.528 195.403 126.294 196.599 126.002 197.775C125.702 198.949 125.33 200.098 124.892 201.223C124.455 202.349 123.954 203.454 123.38 204.532C122.798 205.609 122.16 206.666 121.334 207.658Z" fill="#50661A"/>
<path d="M122.188 211.901C122.42 210.645 122.83 209.477 123.293 208.336C123.762 207.198 124.301 206.094 124.9 205.02C125.498 203.946 126.158 202.903 126.887 201.894C127.623 200.888 128.413 199.909 129.381 199.02C129.15 200.276 128.741 201.444 128.279 202.586C127.809 203.724 127.27 204.827 126.669 205.9C126.069 206.973 125.409 208.016 124.68 209.025C123.943 210.03 123.153 211.009 122.188 211.901Z" fill="#50661A"/>
<path d="M122.834 216.002C123.246 214.729 123.824 213.56 124.452 212.423C125.086 211.291 125.785 210.199 126.539 209.144C127.294 208.088 128.106 207.069 128.983 206.092C129.866 205.118 130.8 204.177 131.901 203.342C131.491 204.617 130.914 205.786 130.286 206.922C129.652 208.055 128.952 209.146 128.196 210.2C127.439 211.255 126.627 212.274 125.75 213.251C124.867 214.225 123.933 215.166 122.834 216.002Z" fill="#50661A"/>
<path d="M123.307 220.531C123.961 219.159 124.768 217.906 125.623 216.689C126.483 215.477 127.405 214.312 128.378 213.187C129.351 212.061 130.378 210.978 131.465 209.941C132.559 208.908 133.7 207.913 134.997 207.037C134.345 208.411 133.538 209.664 132.683 210.88C131.822 212.092 130.901 213.257 129.926 214.381C128.951 215.505 127.924 216.588 126.836 217.625C125.741 218.657 124.601 219.653 123.307 220.531Z" fill="#50661A"/>
<path d="M123.691 225.223C124.498 223.917 125.445 222.745 126.434 221.612C127.429 220.485 128.479 219.411 129.576 218.382C130.673 217.352 131.819 216.369 133.021 215.439C134.228 214.513 135.478 213.628 136.869 212.879C136.065 214.187 135.119 215.36 134.129 216.492C133.134 217.619 132.084 218.693 130.985 219.72C129.886 220.748 128.74 221.731 127.538 222.662C126.331 223.587 125.081 224.471 123.691 225.223Z" fill="#50661A"/>
<path d="M123.926 228.231C124.827 227.099 125.848 226.116 126.905 225.179C127.967 224.248 129.077 223.375 130.227 222.554C131.377 221.732 132.569 220.962 133.808 220.252C135.051 219.547 136.332 218.888 137.734 218.381C136.835 219.515 135.814 220.499 134.756 221.435C133.694 222.366 132.585 223.239 131.433 224.059C130.282 224.879 129.09 225.648 127.851 226.359C126.606 227.063 125.326 227.722 123.926 228.231Z" fill="#50661A"/>
<path d="M124.053 230.744C125.137 229.708 126.32 228.836 127.534 228.013C128.751 227.197 130.007 226.445 131.296 225.747C132.586 225.05 133.91 224.409 135.272 223.833C136.639 223.263 138.036 222.743 139.533 222.388C138.45 223.425 137.267 224.298 136.053 225.121C134.836 225.937 133.58 226.69 132.289 227.384C130.998 228.08 129.674 228.72 128.312 229.296C126.945 229.866 125.548 230.387 124.053 230.744Z" fill="#50661A"/>
<path d="M123.953 232.375C125.258 231.502 126.631 230.805 128.026 230.162C129.423 229.525 130.848 228.958 132.295 228.45C133.743 227.942 135.215 227.496 136.714 227.119C138.216 226.749 139.739 226.433 141.332 226.295C140.029 227.17 138.656 227.868 137.261 228.511C135.863 229.147 134.439 229.714 132.99 230.22C131.541 230.725 130.069 231.172 128.57 231.549C127.068 231.918 125.546 232.234 123.953 232.375Z" fill="#50661A"/>
<path d="M124.504 232.207C124.504 232.207 134.152 217.052 135.664 213.248" stroke="#5E7C24" stroke-width="0.782045" stroke-miterlimit="10"/>
<path d="M132.423 205.301C132.852 206.264 133.123 207.241 133.347 208.223C133.564 209.206 133.718 210.193 133.819 211.186C133.92 212.178 133.966 213.176 133.949 214.18C133.926 215.183 133.855 216.192 133.623 217.214C133.192 216.251 132.92 215.274 132.697 214.292C132.48 213.31 132.326 212.322 132.227 211.329C132.128 210.336 132.082 209.338 132.099 208.335C132.122 207.331 132.193 206.323 132.423 205.301Z" fill="#5E7C24"/>
<path d="M128.893 209.854C129.413 210.75 129.776 211.675 130.092 212.609C130.402 213.544 130.65 214.489 130.845 215.445C131.041 216.4 131.182 217.365 131.261 218.342C131.335 219.319 131.36 220.305 131.227 221.32C130.705 220.424 130.341 219.499 130.026 218.565C129.716 217.631 129.468 216.685 129.275 215.729C129.081 214.774 128.94 213.808 128.861 212.832C128.788 211.854 128.763 210.868 128.893 209.854Z" fill="#5E7C24"/>
<path d="M126.95 215.153C127.412 215.991 127.715 216.849 127.971 217.714C128.221 218.58 128.408 219.455 128.542 220.336C128.677 221.217 128.756 222.106 128.774 223.003C128.785 223.901 128.748 224.806 128.551 225.732C128.088 224.894 127.784 224.036 127.528 223.171C127.278 222.305 127.091 221.431 126.959 220.549C126.827 219.667 126.748 218.778 126.73 217.881C126.719 216.983 126.756 216.079 126.95 215.153Z" fill="#5E7C24"/>
<path d="M124.502 220.442C124.967 221.149 125.276 221.881 125.536 222.622C125.791 223.363 125.984 224.114 126.124 224.874C126.264 225.634 126.35 226.403 126.373 227.182C126.391 227.962 126.36 228.749 126.171 229.563C125.703 228.857 125.394 228.124 125.134 227.384C124.879 226.643 124.686 225.892 124.548 225.131C124.41 224.371 124.324 223.602 124.301 222.823C124.284 222.043 124.314 221.256 124.502 220.442Z" fill="#5E7C24"/>
<path d="M122.342 223.746C122.82 224.364 123.148 225.008 123.434 225.66C123.715 226.312 123.939 226.975 124.121 227.645C124.302 228.316 124.438 228.994 124.536 229.681C124.581 230.026 124.622 230.37 124.65 230.72C124.691 231.067 124.675 231.421 124.77 231.784C124.684 231.744 124.599 231.688 124.505 231.626L124.289 231.422C124.136 231.281 124.035 231.13 123.912 230.977C123.688 230.67 123.498 230.35 123.332 230.025C123.001 229.374 122.753 228.702 122.571 228.017C122.387 227.333 122.266 226.636 122.213 225.926C122.166 225.216 122.172 224.495 122.342 223.746Z" fill="#5E7C24"/>
<path d="M134.52 215.589C135.262 214.796 136.094 214.172 136.953 213.598C137.816 213.03 138.714 212.529 139.643 212.084C140.572 211.639 141.532 211.253 142.527 210.932C143.526 210.618 144.552 210.356 145.67 210.263C144.929 211.058 144.097 211.683 143.237 212.256C142.374 212.823 141.476 213.325 140.546 213.767C139.616 214.21 138.656 214.597 137.661 214.917C136.662 215.231 135.636 215.494 134.52 215.589Z" fill="#5E7C24"/>
<path d="M132.129 219.8C133.076 219.047 134.093 218.47 135.131 217.947C136.171 217.43 137.24 216.982 138.332 216.594C139.423 216.205 140.54 215.878 141.684 215.621C142.83 215.369 143.999 215.172 145.237 215.153C144.292 215.909 143.275 216.486 142.237 217.01C141.196 217.527 140.128 217.974 139.035 218.36C137.942 218.746 136.826 219.074 135.682 219.331C134.535 219.581 133.367 219.779 132.129 219.8Z" fill="#5E7C24"/>
<path d="M129.316 224.482C130.163 223.751 131.082 223.195 132.022 222.692C132.966 222.196 133.938 221.769 134.934 221.401C135.93 221.032 136.952 220.726 138.002 220.487C139.055 220.255 140.13 220.078 141.278 220.077C140.433 220.81 139.514 221.367 138.574 221.87C137.63 222.365 136.658 222.793 135.66 223.158C134.663 223.524 133.642 223.832 132.591 224.069C131.538 224.301 130.464 224.479 129.316 224.482Z" fill="#5E7C24"/>
<path d="M127.092 228.085C127.838 227.455 128.644 227.004 129.468 226.608C130.295 226.219 131.144 225.901 132.014 225.642C132.884 225.384 133.775 225.188 134.689 225.063C135.605 224.945 136.539 224.881 137.534 225C136.789 225.632 135.983 226.083 135.159 226.479C134.332 226.868 133.483 227.187 132.612 227.443C131.741 227.699 130.851 227.894 129.937 228.019C129.02 228.137 128.086 228.201 127.092 228.085Z" fill="#5E7C24"/>
<path d="M125.336 231.318C126.146 230.561 127.035 229.977 127.948 229.445C128.864 228.92 129.812 228.463 130.786 228.064C131.76 227.665 132.761 227.326 133.794 227.054C134.83 226.79 135.89 226.578 137.03 226.541C136.221 227.3 135.332 227.885 134.419 228.416C133.502 228.941 132.555 229.398 131.58 229.795C130.605 230.192 129.604 230.531 128.571 230.802C127.535 231.067 126.475 231.278 125.336 231.318Z" fill="#5E7C24"/>
<path d="M135.298 213.794C135.12 212.709 135.213 211.725 135.376 210.767C135.551 209.813 135.827 208.897 136.193 208.013C136.557 207.129 137.013 206.279 137.57 205.466C138.14 204.658 138.78 203.876 139.695 203.195C139.876 204.281 139.784 205.265 139.62 206.223C139.445 207.177 139.168 208.093 138.8 208.975C138.433 209.858 137.975 210.708 137.418 211.521C136.848 212.329 136.209 213.112 135.298 213.794Z" fill="#5E7C24"/>
<path d="M126.922 242.939H119.694L117.368 231.298C117.311 231.012 117.541 230.747 117.847 230.747H128.769C129.075 230.747 129.305 231.012 129.247 231.298L126.922 242.939Z" fill="#935B50"/>
<path d="M129.079 232.139L129.247 231.298C129.305 231.012 129.075 230.747 128.769 230.747H117.847C117.541 230.747 117.311 231.012 117.368 231.298L117.536 232.139H129.079Z" fill="#D6694B"/>
<path d="M120.271 239.644L118.744 238.19L120.271 236.735L121.798 238.19L120.271 239.644Z" fill="#D6694B"/>
<path d="M123.326 239.644L121.799 238.19L123.326 236.735L124.853 238.19L123.326 239.644Z" fill="#D6694B"/>
<path d="M126.343 239.644L124.816 238.19L126.343 236.735L127.87 238.19L126.343 239.644Z" fill="#D6694B"/>
<path d="M235.59 191.845H252.14C253.265 191.845 253.948 190.674 253.347 189.777L249.441 183.949C249.179 183.558 248.724 183.321 248.234 183.321H239.496C239.007 183.321 238.551 183.558 238.289 183.949L234.383 189.777C233.782 190.674 234.465 191.845 235.59 191.845Z" fill="#4F66D0"/>
<path d="M243.865 189.889C245.215 189.889 246.309 188.856 246.309 187.583C246.309 186.31 245.215 185.277 243.865 185.277C242.516 185.277 241.422 186.31 241.422 187.583C241.422 188.856 242.516 189.889 243.865 189.889Z" fill="#8795DE"/>
<path d="M240.832 187.585C240.832 189.166 242.19 190.447 243.866 190.447C245.541 190.447 246.899 189.166 246.899 187.585C246.899 186.004 245.541 184.723 243.866 184.723C242.19 184.723 240.832 186.004 240.832 187.585Z" stroke="#8795DE" stroke-width="0.782045" stroke-linecap="round" stroke-linejoin="round" stroke-dasharray="1.86 1.86"/>
<path d="M243.865 183.322V181.555" stroke="#4F66D0" stroke-width="1.56409" stroke-miterlimit="10" stroke-linecap="round" stroke-linejoin="round"/>
<path d="M247.163 181.555H240.566" stroke="#4F66D0" stroke-width="1.56409" stroke-miterlimit="10" stroke-linecap="round" stroke-linejoin="round"/>
<path d="M221.69 168.239C220.459 169.243 217.393 172.026 216.41 176.573C216.105 177.982 214.975 183.211 218.618 187.171C220.441 189.151 224.162 191.579 227.258 190.613C230.696 189.54 230.737 185.102 234.458 184.181C236.194 183.752 237.861 184.303 238.97 184.815" stroke="#4F66D0" stroke-width="0.930555" stroke-miterlimit="10" stroke-linecap="round" stroke-linejoin="round" stroke-dasharray="1.86 1.86"/>
<path d="M100.475 243.176H300.475" stroke="#935B50" stroke-width="1.56409" stroke-miterlimit="10"/>
</g>
<defs>
<filter id="filter0_d_223_11771" x="0.474609" y="0.320312" width="400" height="347.638" filterUnits="userSpaceOnUse" color-interpolation-filters="sRGB">
<feFlood flood-opacity="0" result="BackgroundImageFix"/>
<feColorMatrix in="SourceAlpha" type="matrix" values="0 0 0 0 0 0 0 0 0 0 0 0 0 0 0 0 0 0 127 0" result="hardAlpha"/>
<feOffset dy="4"/>
<feGaussianBlur stdDeviation="50"/>
<feComposite in2="hardAlpha" operator="out"/>
<feColorMatrix type="matrix" values="0 0 0 0 0.933333 0 0 0 0 0.533333 0 0 0 0 0.533333 0 0 0 1 0"/>
<feBlend mode="normal" in2="BackgroundImageFix" result="effect1_dropShadow_223_11771"/>
<feBlend mode="normal" in="SourceGraphic" in2="effect1_dropShadow_223_11771" result="shape"/>
</filter>
</defs>
</svg>
