<svg width="401" height="348" viewBox="0 0 401 348" fill="none" xmlns="http://www.w3.org/2000/svg">
<g filter="url(#filter0_d_223_13161)">
<path d="M231.928 242.784C238.428 240.689 244.26 238.549 251.276 234.487C258.512 230.297 290.656 210.357 294.836 175.848C295.931 166.389 295.022 156.799 292.172 147.738C290.88 143.833 288.2 135.989 281.436 128.232C273.156 118.73 263.708 115.048 258.168 112.965C246.512 108.581 236.736 108.812 232.08 108.969C227.056 109.138 218.188 109.517 208.108 114.058C201.532 117.019 197.444 120.396 191.42 125.444C181.876 133.449 180.62 136.781 163.924 153.31C159.34 157.846 155.572 161.422 149.82 164.944C145.832 167.385 142.608 168.75 136.66 171.241C122.04 177.365 117.877 178.605 113.093 182.053C103.789 188.763 104.392 196.08 103.992 197.655C102.952 201.684 102.711 205.888 103.284 210.015C104.504 218.292 108.828 223.702 111.512 226.977C115.196 231.431 119.66 235.13 124.672 237.881C128.151 239.773 131.754 241.412 135.456 242.784H231.928Z" fill="#EFEDEF"/>
<path d="M252.564 236.937L252.368 236.577C261.928 231.04 293.446 210.28 297.639 175.65C298.769 165.83 297.826 155.873 294.873 146.464C293.682 142.863 290.893 134.43 283.734 126.217C274.966 116.158 264.956 112.394 259.578 110.372C250.901 107.152 241.69 105.74 232.479 106.22C227.509 106.386 218.259 106.697 207.582 111.503L207.422 111.125C218.169 106.287 227.825 105.963 232.466 105.808C241.728 105.325 250.99 106.745 259.715 109.985C265.125 112.019 275.197 115.806 284.032 125.942C291.246 134.218 294.053 142.706 295.252 146.331C298.223 155.8 299.173 165.819 298.036 175.702C293.82 210.523 262.165 231.375 252.564 236.937Z" fill="#EFEDEF"/>
<path d="M202.538 96.1992H198.585C197.397 96.1992 196.434 97.1924 196.434 98.4175V102.493C196.434 103.718 197.397 104.711 198.585 104.711H202.538C203.726 104.711 204.689 103.718 204.689 102.493V98.4175C204.689 97.1924 203.726 96.1992 202.538 96.1992Z" fill="#DC8758"/>
<path d="M178.14 243.198H174.797L188.349 180.396L195.176 182.29L178.14 243.198Z" fill="#DC8758"/>
<path d="M223.389 243.198H226.733L213.181 180.396L206.354 182.29L223.389 243.198Z" fill="#DC8758"/>
<path d="M252.551 101.225H148.943C148.164 101.225 147.533 101.875 147.533 102.678V187.57C147.533 188.373 148.164 189.024 148.943 189.024H252.551C253.329 189.024 253.96 188.373 253.96 187.57V102.678C253.96 101.875 253.329 101.225 252.551 101.225Z" fill="#FFE3CB"/>
<path d="M218.894 185.293H182.598C181.984 185.293 181.486 185.806 181.486 186.439V189.568C181.486 190.201 181.984 190.714 182.598 190.714H218.894C219.508 190.714 220.006 190.201 220.006 189.568V186.439C220.006 185.806 219.508 185.293 218.894 185.293Z" fill="#DC8758"/>
<path d="M278.87 147.259C278.87 147.259 277.437 146.26 276.518 142.442C275.599 138.624 275.27 135.518 276.497 137.986L277.401 139.883C277.401 139.883 277.971 136.775 278.153 134.892C278.194 134.392 278.389 133.919 278.71 133.542C279.031 133.165 279.461 132.905 279.937 132.799C280.833 132.62 281.444 133.035 281.642 135.239C281.937 138.536 282.003 140.286 281.845 141.122C281.79 141.412 280.952 144.496 280.952 144.496L278.87 147.259Z" fill="#F9977A"/>
<path d="M277.202 141.784C277.256 141.631 277.297 141.474 277.326 141.314C277.356 141.158 277.38 141 277.395 140.842C277.408 140.683 277.422 140.525 277.42 140.365C277.424 140.203 277.418 140.041 277.4 139.88C277.33 140.027 277.277 140.182 277.241 140.342C277.204 140.498 277.177 140.657 277.162 140.817C277.146 140.977 277.141 141.138 277.147 141.299C277.149 141.462 277.168 141.625 277.202 141.784Z" fill="#DD765E"/>
<path d="M278.84 138.037C278.929 137.653 278.994 137.264 279.038 136.872C279.088 136.48 279.113 136.087 279.127 135.692C279.141 135.297 279.132 134.902 279.101 134.507C279.075 134.112 279.007 133.72 278.898 133.34C278.938 134.128 278.918 134.903 278.893 135.685L278.859 136.858C278.849 137.249 278.837 137.642 278.84 138.037Z" fill="#DD765E"/>
<path d="M279.965 137.899C280.083 137.484 280.174 137.061 280.237 136.633C280.304 136.206 280.347 135.774 280.365 135.341C280.386 134.907 280.37 134.471 280.315 134.039C280.277 133.603 280.148 133.18 279.938 132.799C280.062 133.206 280.129 133.629 280.136 134.056C280.151 134.48 280.153 134.906 280.131 135.332C280.1 136.185 280.022 137.036 279.965 137.899Z" fill="#DD765E"/>
<path d="M280.977 137.509C281.084 137.164 281.166 136.812 281.221 136.454C281.28 136.097 281.318 135.737 281.335 135.375C281.353 135.013 281.346 134.65 281.315 134.288C281.286 133.926 281.22 133.569 281.119 133.221C281.128 133.583 281.139 133.939 281.135 134.296C281.125 134.652 281.121 135.008 281.102 135.364L281.043 136.433L280.977 137.509Z" fill="#DD765E"/>
<path d="M285.096 231.722L286.543 239.48C286.543 239.48 281.858 241.332 279.076 236.592L278.412 232.287L285.096 231.722Z" fill="#F9977A"/>
<path d="M285.764 235.372C285.764 235.372 289.178 239.769 287.286 242.36C287.187 242.494 287.059 242.602 286.912 242.676C286.765 242.75 286.603 242.788 286.44 242.786L269.514 242.692C269.436 242.691 269.36 242.673 269.289 242.64C269.219 242.607 269.156 242.559 269.105 242.499C269.053 242.439 269.015 242.368 268.992 242.292C268.969 242.216 268.962 242.135 268.971 242.056C269.068 241.152 269.477 239.517 271.133 238.766C273.487 237.699 275.157 239.622 279.083 236.141C279.083 236.141 284.171 237.649 285.764 235.372Z" fill="#935B50"/>
<path d="M264.448 231.45L263.416 240.075C263.416 240.075 259.034 240.882 257.061 235.729L258.127 231.279L264.448 231.45Z" fill="#F9977A"/>
<path d="M264.03 235.372C264.03 235.372 267.444 239.769 265.552 242.36C265.452 242.494 265.324 242.602 265.177 242.676C265.03 242.75 264.869 242.788 264.705 242.786L247.78 242.692C247.702 242.691 247.626 242.673 247.555 242.64C247.484 242.607 247.421 242.559 247.37 242.499C247.319 242.439 247.281 242.368 247.257 242.292C247.234 242.216 247.227 242.135 247.236 242.056C247.333 241.152 247.743 239.517 249.398 238.766C251.753 237.699 253.135 239.209 257.061 235.728C257.061 235.728 262.437 237.649 264.03 235.372Z" fill="#935B50"/>
<path d="M279.017 144.277L281.363 143.727L284.48 155.244C285.511 159.057 280.725 161.577 278.329 158.485C277.377 157.254 276.707 156.222 276.563 155.605L276.03 162.094L277.416 172.103H257.254V151.536L252.47 158.018C250.214 160.774 246.053 160.774 244.026 155.935L240.826 148.676L245.307 145.817L248.507 151.096L254.984 140.999C255.748 139.809 256.785 138.833 258.004 138.157C259.223 137.482 260.586 137.128 261.97 137.128H271.735C272.626 137.128 273.502 137.36 274.281 137.804C275.061 138.247 275.719 138.887 276.194 139.663L279.017 144.277Z" fill="#F73C4F"/>
<path d="M283.804 152.75C283.458 152.012 283.083 151.291 282.705 150.573C282.329 149.853 281.933 149.145 281.538 148.437C281.136 147.732 280.733 147.028 280.311 146.336C279.891 145.643 279.468 144.951 279.016 144.277C279.361 145.015 279.736 145.736 280.114 146.455C280.49 147.175 280.886 147.883 281.282 148.59C281.684 149.294 282.086 149.998 282.509 150.69C282.928 151.384 283.352 152.075 283.804 152.75Z" fill="#B02336"/>
<path d="M276.562 155.606C276.624 154.662 276.652 153.718 276.676 152.774C276.701 151.83 276.698 150.886 276.711 149.941C276.699 148.997 276.7 148.053 276.677 147.109C276.653 146.165 276.624 145.221 276.562 144.277C276.501 145.221 276.472 146.165 276.448 147.109C276.425 148.053 276.426 148.997 276.414 149.941C276.426 150.886 276.424 151.83 276.449 152.774C276.472 153.718 276.501 154.662 276.562 155.606Z" fill="#B02336"/>
<path d="M257.254 151.533C257.892 150.557 258.504 149.564 259.11 148.569C259.719 147.574 260.303 146.564 260.901 145.563L260.908 145.55L260.912 145.539C261.106 144.956 261.237 144.352 261.304 143.74C261.378 143.129 261.376 142.511 261.298 141.901C261.211 141.291 261.025 140.7 260.748 140.155C260.456 139.622 260.067 139.154 259.601 138.775C260.021 139.191 260.365 139.682 260.617 140.223C260.86 140.762 261.013 141.339 261.069 141.93C261.121 142.521 261.109 143.117 261.035 143.705C260.961 144.293 260.827 144.871 260.637 145.43L260.648 145.406C260.072 146.421 259.482 147.428 258.918 148.449C258.351 149.47 257.789 150.493 257.254 151.533Z" fill="#B02336"/>
<path d="M275.283 169.023C274.672 169.244 274.053 169.437 273.426 169.593C273.114 169.678 272.798 169.746 272.485 169.824L271.536 170.012C270.269 170.243 268.985 170.365 267.699 170.375C267.056 170.403 266.415 170.356 265.773 170.327C265.453 170.298 265.135 170.253 264.815 170.216L264.337 170.157L263.862 170.07C263.546 170.008 263.228 169.958 262.913 169.888L261.98 169.634C261.824 169.591 261.665 169.558 261.512 169.507L261.054 169.344L260.135 169.023C261.308 169.602 262.546 170.03 263.82 170.3L264.297 170.41C264.457 170.437 264.619 170.455 264.781 170.478C265.104 170.52 265.426 170.57 265.75 170.604C266.4 170.643 267.051 170.701 267.702 170.68C269.005 170.658 270.303 170.512 271.579 170.241C272.853 169.975 274.095 169.567 275.283 169.023Z" fill="#B02336"/>
<path d="M245.84 152.747C246.137 152.188 246.511 151.676 246.949 151.226C247.153 151.02 247.415 150.886 247.698 150.843C247.833 150.846 247.965 150.879 248.086 150.94C248.207 151.001 248.314 151.088 248.4 151.195L248.408 150.984C248.125 151.287 247.891 151.635 247.715 152.015C247.538 152.385 247.401 152.774 247.307 153.175C247.222 153.575 247.171 153.982 247.155 154.391C247.145 154.796 247.169 155.202 247.227 155.603L247.25 155C247.271 154.8 247.28 154.601 247.31 154.404C247.355 154.01 247.434 153.621 247.544 153.241C247.654 152.864 247.796 152.499 247.97 152.15C248.139 151.806 248.353 151.488 248.605 151.203L248.708 151.092L248.614 150.993C248.499 150.854 248.355 150.743 248.193 150.67C248.03 150.596 247.854 150.562 247.677 150.569C247.338 150.626 247.029 150.804 246.804 151.071C246.379 151.56 246.052 152.129 245.84 152.747Z" fill="#B02336"/>
<path d="M276.668 172.103L285.9 232.664C285.916 232.775 285.911 232.888 285.883 232.997C285.856 233.106 285.807 233.207 285.74 233.296C285.673 233.384 285.59 233.458 285.494 233.512C285.399 233.566 285.294 233.6 285.185 233.61L278.96 234.226C278.763 234.245 278.565 234.189 278.406 234.067C278.247 233.945 278.138 233.767 278.099 233.566L267.921 182.111L264.959 233.028C264.947 233.238 264.858 233.435 264.709 233.579C264.561 233.723 264.364 233.803 264.161 233.803H257.409C257.303 233.803 257.198 233.782 257.1 233.739C257.001 233.697 256.913 233.634 256.838 233.556C256.764 233.478 256.705 233.385 256.666 233.283C256.627 233.181 256.607 233.072 256.61 232.962L257.786 172.103H276.668Z" fill="#8B9D36"/>
<path d="M278.803 203.338C278.346 203.455 277.883 203.539 277.415 203.589C276.951 203.643 276.484 203.652 276.018 203.616C275.555 203.578 275.099 203.476 274.663 203.312C274.228 203.133 273.825 202.882 273.469 202.568C273.788 202.936 274.178 203.231 274.613 203.435C275.057 203.624 275.526 203.743 276.005 203.788C276.958 203.852 277.913 203.698 278.803 203.338Z" fill="#5E7C24"/>
<path d="M279.549 206.087C279.008 206.07 278.469 206.024 277.933 205.967C277.398 205.914 276.866 205.827 276.341 205.709C275.814 205.605 275.3 205.444 274.806 205.229C274.306 205.024 273.852 204.717 273.469 204.327C273.812 204.768 274.252 205.118 274.753 205.35C275.248 205.589 275.77 205.766 276.306 205.878C277.372 206.102 278.464 206.173 279.549 206.087Z" fill="#5E7C24"/>
<path d="M264.829 203.721C264.431 203.789 264.03 203.832 263.627 203.851C263.227 203.872 262.827 203.862 262.428 203.823C261.627 203.757 260.848 203.527 260.135 203.145C260.464 203.395 260.827 203.592 261.214 203.73C261.602 203.866 262.004 203.955 262.413 203.995C263.228 204.071 264.049 203.978 264.829 203.721Z" fill="#5E7C24"/>
<path d="M264.828 206.095C264.369 206.228 263.9 206.322 263.426 206.375C262.954 206.433 262.479 206.458 262.005 206.449C261.53 206.446 261.055 206.412 260.584 206.346C260.111 206.291 259.645 206.19 259.174 206.095C259.626 206.263 260.092 206.391 260.565 206.478C261.04 206.565 261.521 206.613 262.003 206.622C262.485 206.625 262.967 206.586 263.444 206.506C263.92 206.43 264.385 206.292 264.828 206.095Z" fill="#5E7C24"/>
<path d="M270.162 180.35C269.612 180.794 269.039 181.203 268.459 181.599C267.88 181.996 267.281 182.361 266.665 182.692C266.053 183.028 265.416 183.315 264.76 183.549C264.102 183.78 263.418 183.925 262.725 183.979C263.427 183.989 264.127 183.887 264.799 183.675C265.47 183.458 266.12 183.18 266.742 182.844C267.361 182.505 267.959 182.126 268.531 181.708C269.104 181.294 269.649 180.84 270.162 180.35Z" fill="#5E7C24"/>
<path d="M274.109 183.98C273.31 183.847 272.514 183.732 271.732 183.55C271.34 183.468 270.953 183.361 270.574 183.231C270.189 183.117 269.831 182.923 269.521 182.66C269.794 182.977 270.14 183.217 270.529 183.355C270.908 183.507 271.299 183.629 271.696 183.718C272.489 183.892 273.298 183.98 274.109 183.98Z" fill="#5E7C24"/>
<path d="M266.444 183.319C266.37 183.824 266.147 184.294 265.806 184.664C265.481 185.043 265.103 185.372 264.684 185.638C264.482 185.782 264.263 185.902 264.05 186.03C263.827 186.14 263.608 186.258 263.383 186.365C262.932 186.578 262.466 186.757 262.002 186.949C262.244 186.887 262.484 186.814 262.725 186.746C262.965 186.67 263.197 186.573 263.433 186.487C263.669 186.399 263.891 186.274 264.12 186.169C264.34 186.043 264.565 185.926 264.776 185.783C265.204 185.502 265.585 185.153 265.905 184.748C266.241 184.351 266.431 183.846 266.444 183.319Z" fill="#5E7C24"/>
<path d="M244.741 146.176L242.39 139.986L238.682 134.89C238.636 134.827 238.58 134.775 238.515 134.735C238.449 134.696 238.377 134.67 238.303 134.659C238.228 134.648 238.152 134.653 238.079 134.673C238.005 134.692 237.937 134.727 237.877 134.774C237.76 134.865 237.682 134.998 237.658 135.147C237.634 135.295 237.666 135.448 237.747 135.573L239.829 138.777C239.829 138.777 236.936 136.673 236.73 140.34C236.716 140.588 236.79 140.832 236.937 141.028C237.085 141.224 237.297 141.359 237.533 141.406C237.879 141.471 238.211 141.598 238.514 141.783C238.514 141.783 238.158 145.266 240.363 145.376L241.286 148.381L244.741 146.176Z" fill="#F9977A"/>
<path d="M242.926 141.395C242.926 141.395 242.587 138.868 242.817 138.222C242.873 138.045 242.861 137.853 242.783 137.685C242.542 137.129 242.04 136.436 241.617 138.923L242.39 139.985L242.926 141.395Z" fill="#F9977A"/>
<path d="M270.352 137.305L270.619 122.732H260.111V131.394C260.111 132.306 260.463 133.18 261.088 133.825C261.713 134.469 262.561 134.832 263.445 134.832H263.685L263.632 137.305H270.352Z" fill="#F9977A"/>
<path d="M263.686 134.834H265.366L263.633 137.308L263.686 134.834Z" fill="#DD765E"/>
<path d="M270.398 134.832C270.398 134.832 265.126 135.711 263.419 129.387C263.419 129.387 265.766 128.067 263.419 126.582C263.419 126.582 262.139 126.307 262.085 127.132L260.112 122.733C260.112 122.733 258.085 123.227 258.192 120.753C258.192 120.753 256.112 119.488 258.672 118.388C258.672 118.388 258.565 115.309 261.392 117.563C261.392 117.563 263.312 112.999 268.219 119.488C268.219 119.488 276.22 120.203 272.433 127.077L270.398 134.832Z" fill="#1E1D22"/>
<path d="M119.193 231.962C118.819 229.688 118.603 227.389 118.548 225.083C118.483 222.775 118.572 220.464 118.812 218.168C119.062 215.87 119.522 213.602 120.184 211.393C120.531 210.294 120.94 209.217 121.408 208.168C121.897 207.13 122.457 206.129 123.083 205.173C121.913 207.133 121.002 209.245 120.373 211.453C120.065 212.556 119.788 213.668 119.572 214.795C119.361 215.922 119.193 217.057 119.068 218.198C118.819 220.483 118.711 222.781 118.745 225.079C118.755 226.229 118.799 227.377 118.874 228.526C118.945 229.674 119.04 230.822 119.193 231.962Z" fill="#50661A"/>
<path d="M119.193 214.709C119.193 214.709 107.44 216.235 102.326 211.036C98.5299 207.177 102.14 200.536 107.342 201.736C110.825 202.539 115.12 205.73 119.193 214.709Z" fill="#5E7C24"/>
<path d="M119.193 214.709C117.543 214.192 115.919 213.585 114.32 212.914C112.723 212.241 111.156 211.493 109.621 210.67C108.858 210.253 108.108 209.808 107.374 209.336C106.635 208.872 105.922 208.364 105.239 207.815C104.553 207.27 103.911 206.667 103.319 206.014C102.731 205.358 102.254 204.603 101.908 203.783C102.289 204.579 102.797 205.304 103.411 205.926C104.015 206.554 104.666 207.132 105.36 207.653C106.747 208.697 108.213 209.627 109.741 210.435C111.255 211.275 112.82 212.015 114.397 212.727C115.186 213.082 115.98 213.423 116.781 213.75C117.579 214.085 118.381 214.409 119.193 214.709Z" fill="#50661A"/>
<path d="M106.449 208.584L106.46 206.796C106.457 206.202 106.46 205.609 106.427 205.017C106.409 204.427 106.358 203.839 106.275 203.255L106.195 202.822C106.167 202.678 106.118 202.541 106.081 202.398C106.039 202.258 105.987 202.122 105.926 201.989C105.857 201.86 105.78 201.735 105.695 201.615C106.105 202.055 106.375 202.614 106.47 203.216C106.585 203.806 106.657 204.404 106.685 205.006C106.696 205.606 106.697 206.205 106.657 206.803C106.622 207.4 106.552 207.995 106.449 208.584Z" fill="#50661A"/>
<path d="M100.918 208.581C101.609 208.457 102.29 208.355 102.956 208.196C103.286 208.12 103.61 208.015 103.923 207.883C104.244 207.766 104.512 207.533 104.678 207.227C104.636 207.409 104.554 207.579 104.439 207.725C104.325 207.87 104.179 207.987 104.015 208.067C103.7 208.243 103.364 208.373 103.015 208.455C102.328 208.617 101.619 208.659 100.918 208.581Z" fill="#50661A"/>
<path d="M103.043 211.687C103.964 211.565 104.876 211.376 105.771 211.121C106.211 210.995 106.631 210.809 107.023 210.568C107.424 210.335 107.722 209.952 107.856 209.498C107.834 209.747 107.758 209.987 107.633 210.202C107.509 210.417 107.34 210.6 107.138 210.738C106.746 211.026 106.309 211.241 105.846 211.375C104.936 211.647 103.988 211.753 103.043 211.687Z" fill="#50661A"/>
<path d="M109.613 210.52C109.809 209.928 109.989 209.334 110.153 208.737C110.312 208.139 110.469 207.541 110.573 206.931C110.833 205.721 110.888 204.473 110.734 203.243C110.916 203.845 111.009 204.472 111.008 205.103C110.999 205.734 110.938 206.362 110.826 206.982C110.702 207.598 110.54 208.204 110.341 208.799C110.144 209.392 109.901 209.968 109.613 210.52Z" fill="#50661A"/>
<path d="M107.855 214.025C108.23 213.923 108.593 213.797 108.948 213.661C109.301 213.528 109.641 213.361 109.964 213.163C110.284 212.969 110.573 212.727 110.824 212.445C111.062 212.143 111.244 211.799 111.36 211.429C111.338 211.838 111.207 212.234 110.982 212.572C110.742 212.902 110.441 213.181 110.097 213.391C109.757 213.598 109.391 213.755 109.01 213.858C108.634 213.966 108.246 214.022 107.855 214.025Z" fill="#50661A"/>
<path d="M113.811 205.967C114.067 206.465 114.254 206.999 114.363 207.552C114.475 208.108 114.518 208.676 114.492 209.243C114.461 209.812 114.345 210.373 114.148 210.905C113.952 211.434 113.67 211.924 113.314 212.355C113.583 211.875 113.8 211.367 113.96 210.839C114.122 210.317 114.215 209.775 114.235 209.228C114.269 208.68 114.247 208.13 114.169 207.587C114.094 207.038 113.974 206.496 113.811 205.967Z" fill="#50661A"/>
<path d="M113.051 214.709C113.478 214.488 113.898 214.299 114.301 214.077C114.711 213.864 115.09 213.593 115.428 213.273C115.219 213.729 114.863 214.095 114.421 214.311C113.998 214.545 113.53 214.681 113.051 214.709Z" fill="#50661A"/>
<path d="M116.771 210.055C117.005 210.656 117.142 211.292 117.176 211.938C117.198 212.264 117.182 212.591 117.131 212.913C117.09 213.24 116.966 213.551 116.772 213.813C116.872 213.516 116.925 213.204 116.93 212.89C116.944 212.578 116.94 212.265 116.918 211.953C116.887 211.325 116.813 210.699 116.771 210.055Z" fill="#50661A"/>
<path d="M118.765 214.647C118.765 214.647 109.608 206.899 109.752 199.495C109.858 194 117.018 192.136 119.75 196.854C121.58 200.013 122.286 205.423 118.765 214.647Z" fill="#C4CE6E"/>
<path d="M118.765 214.65C117.972 213.069 117.258 211.446 116.627 209.789C115.991 208.133 115.435 206.446 114.958 204.728C114.729 203.868 114.528 202.999 114.357 202.123C114.176 201.248 114.047 200.363 113.969 199.471C113.888 198.579 113.876 197.682 113.936 196.788C114 195.893 114.215 195.017 114.572 194.199C114.291 195.036 114.142 195.914 114.132 196.8C114.111 197.682 114.159 198.564 114.275 199.438C114.502 201.19 114.859 202.921 115.343 204.617C115.787 206.327 116.342 208.006 116.914 209.678C117.2 210.514 117.5 211.346 117.814 212.172C118.115 213.004 118.44 213.826 118.765 214.65Z" fill="#8B9D36"/>
<path d="M114.316 200.895C115.129 200.034 115.965 199.222 116.762 198.376C117.16 197.952 117.543 197.519 117.903 197.066C118.078 196.838 118.24 196.599 118.388 196.351C118.461 196.227 118.527 196.097 118.583 195.964C118.631 195.824 118.672 195.683 118.705 195.539C118.704 196.156 118.512 196.757 118.157 197.253C117.83 197.757 117.459 198.228 117.049 198.662C116.236 199.526 115.318 200.276 114.316 200.895Z" fill="#8B9D36"/>
<path d="M110.512 196.755C111.114 197.145 111.658 197.571 112.223 197.955C112.5 198.146 112.789 198.318 113.088 198.47C113.382 198.636 113.721 198.695 114.051 198.638C113.897 198.746 113.719 198.815 113.534 198.839C113.348 198.862 113.16 198.84 112.985 198.774C112.636 198.667 112.306 198.507 112.003 198.299C111.409 197.895 110.902 197.369 110.512 196.755Z" fill="#8B9D36"/>
<path d="M109.787 200.479C110.565 201.033 111.305 201.604 112.097 202.069C112.482 202.308 112.894 202.497 113.323 202.633C113.754 202.78 114.221 202.76 114.638 202.577C114.452 202.745 114.231 202.867 113.992 202.931C113.752 202.996 113.502 203.002 113.26 202.948C112.779 202.861 112.318 202.685 111.899 202.427C111.486 202.179 111.099 201.888 110.744 201.56C110.387 201.238 110.066 200.875 109.787 200.479Z" fill="#8B9D36"/>
<path d="M115.129 204.596C115.672 204.312 116.202 204.014 116.731 203.721C117.255 203.419 117.777 203.117 118.278 202.784C118.781 202.455 119.266 202.1 119.733 201.718C120.197 201.326 120.629 200.895 121.024 200.43C120.748 200.998 120.382 201.515 119.941 201.958C119.497 202.398 119.012 202.791 118.492 203.132C117.459 203.81 116.322 204.305 115.129 204.596Z" fill="#8B9D36"/>
<path d="M111.451 205.689C111.801 205.873 112.142 206.047 112.485 206.207C112.822 206.368 113.17 206.501 113.527 206.605C113.876 206.708 114.237 206.763 114.599 206.768C114.973 206.749 115.341 206.668 115.689 206.528C115.399 206.82 115.03 207.015 114.63 207.088C114.225 207.147 113.813 207.117 113.42 207.002C113.035 206.888 112.67 206.715 112.336 206.489C112.002 206.272 111.703 206.003 111.451 205.689Z" fill="#8B9D36"/>
<path d="M121.219 204.607C120.904 205.709 120.28 206.69 119.426 207.427C119.211 207.611 118.985 207.78 118.748 207.933C118.629 208.007 118.501 208.068 118.379 208.136C118.257 208.207 118.129 208.265 117.996 208.31C117.481 208.519 116.933 208.628 116.379 208.629C116.892 208.473 117.391 208.268 117.867 208.016C118.334 207.769 118.771 207.466 119.168 207.112C119.571 206.761 119.942 206.374 120.278 205.955C120.621 205.528 120.935 205.078 121.219 204.607Z" fill="#8B9D36"/>
<path d="M114.541 210.052C115.02 210.17 115.44 210.339 115.869 210.483C116.298 210.64 116.739 210.761 117.187 210.844C116.964 210.962 116.716 211.018 116.466 211.008C116.219 211 115.975 210.954 115.741 210.873C115.512 210.792 115.292 210.683 115.088 210.547C114.88 210.415 114.695 210.247 114.541 210.052Z" fill="#8B9D36"/>
<path d="M120.377 209.636C120.274 209.945 120.134 210.239 119.96 210.512C119.79 210.787 119.596 211.045 119.38 211.283C119.163 211.526 118.915 211.739 118.644 211.915C118.375 212.108 118.058 212.214 117.73 212.22C117.995 212.066 118.239 211.877 118.456 211.658C118.674 211.448 118.886 211.231 119.089 211.001C119.508 210.551 119.905 210.077 120.377 209.636Z" fill="#8B9D36"/>
<path d="M118.491 227.625C118.491 227.625 106.653 228.064 102.008 222.414C98.5615 218.222 102.732 211.939 107.809 213.613C111.209 214.733 115.211 218.307 118.491 227.625Z" fill="#C4CE6E"/>
<path d="M118.491 227.625C116.881 226.98 115.304 226.25 113.768 225.438C112.228 224.631 110.728 223.741 109.268 222.782C108.544 222.294 107.836 221.78 107.145 221.24C106.448 220.707 105.783 220.132 105.153 219.516C104.519 218.903 103.934 218.238 103.405 217.527C102.879 216.813 102.478 216.009 102.221 215.152C102.547 215.972 102.999 216.732 103.56 217.402C104.11 218.078 104.712 218.706 105.36 219.282C106.655 220.441 108.034 221.496 109.486 222.437C110.916 223.417 112.409 224.296 113.911 225.159C114.662 225.591 115.421 226.01 116.187 226.416C116.947 226.834 117.718 227.228 118.491 227.625Z" fill="#8B9D36"/>
<path d="M106.327 220.35C106.383 219.15 106.489 217.971 106.543 216.792C106.57 216.204 106.579 215.617 106.559 215.032C106.543 214.741 106.511 214.452 106.463 214.165C106.438 214.022 106.404 213.88 106.36 213.742C106.307 213.605 106.247 213.47 106.18 213.34C106.575 213.803 106.817 214.384 106.869 214.999C106.947 215.6 106.971 216.206 106.943 216.812C106.887 218.014 106.68 219.203 106.327 220.35Z" fill="#8B9D36"/>
<path d="M100.818 219.843C101.52 219.725 102.202 219.673 102.872 219.575C103.202 219.529 103.529 219.461 103.851 219.371C104.178 219.295 104.47 219.108 104.681 218.84C104.634 219.026 104.546 219.199 104.422 219.343C104.298 219.487 104.142 219.599 103.968 219.669C103.638 219.827 103.288 219.932 102.928 219.983C102.223 220.085 101.505 220.037 100.818 219.843Z" fill="#8B9D36"/>
<path d="M102.666 223.129C103.605 223.013 104.526 222.936 105.418 222.745C105.86 222.661 106.29 222.522 106.699 222.331C107.116 222.147 107.454 221.813 107.649 221.392C107.618 221.645 107.53 221.887 107.392 222.098C107.254 222.31 107.07 222.485 106.854 222.61C106.438 222.873 105.979 223.056 105.499 223.148C105.031 223.244 104.554 223.29 104.077 223.286C103.602 223.288 103.129 223.236 102.666 223.129Z" fill="#8B9D36"/>
<path d="M109.312 222.567C109.538 221.983 109.744 221.399 109.952 220.818C110.152 220.234 110.349 219.652 110.511 219.06C110.677 218.471 110.812 217.873 110.918 217.269C111.014 216.658 111.061 216.041 111.058 215.422C111.217 216.036 111.274 216.673 111.228 217.306C111.177 217.939 111.065 218.565 110.895 219.175C110.555 220.389 110.02 221.536 109.312 222.567Z" fill="#8B9D36"/>
<path d="M107.258 225.898C107.638 225.798 108.005 225.695 108.365 225.581C108.721 225.472 109.067 225.334 109.402 225.168C109.73 225.008 110.035 224.802 110.31 224.558C110.578 224.289 110.802 223.978 110.973 223.635C110.943 224.052 110.791 224.45 110.539 224.778C110.273 225.098 109.945 225.357 109.576 225.539C109.215 225.716 108.83 225.835 108.434 225.893C108.045 225.96 107.648 225.961 107.258 225.898Z" fill="#8B9D36"/>
<path d="M113.887 218.424C114.358 219.464 114.52 220.625 114.353 221.761C114.31 222.045 114.249 222.326 114.17 222.603C114.127 222.74 114.071 222.872 114.023 223.007C113.977 223.143 113.918 223.274 113.847 223.398C113.596 223.907 113.254 224.362 112.84 224.741C113.125 224.274 113.367 223.78 113.563 223.266C113.754 222.762 113.886 222.237 113.957 221.7C114.034 221.163 114.064 220.619 114.047 220.076C114.03 219.522 113.976 218.97 113.887 218.424Z" fill="#8B9D36"/>
<path d="M112.373 227.059C112.808 226.821 113.231 226.661 113.645 226.476C114.068 226.301 114.476 226.091 114.865 225.848C114.774 226.088 114.624 226.3 114.43 226.463C114.24 226.625 114.028 226.757 113.8 226.856C113.576 226.952 113.341 227.019 113.101 227.057C112.86 227.1 112.614 227.1 112.373 227.059Z" fill="#8B9D36"/>
<path d="M116.482 222.769C116.602 223.071 116.686 223.387 116.731 223.711C116.781 224.032 116.801 224.358 116.792 224.684C116.784 225.015 116.735 225.343 116.646 225.66C116.568 225.988 116.397 226.284 116.156 226.512C116.255 226.216 116.317 225.908 116.34 225.595C116.368 225.29 116.388 224.982 116.392 224.67C116.417 224.048 116.411 223.421 116.482 222.769Z" fill="#8B9D36"/>
<path d="M119.189 215.53C119.189 215.53 131.004 216.414 135.845 210.943C139.438 206.883 135.492 200.448 130.359 201.929C126.923 202.921 122.797 206.342 119.189 215.53Z" fill="#5E7C24"/>
<path d="M119.189 215.53C119.984 215.186 120.769 214.819 121.548 214.441C122.33 214.069 123.107 213.685 123.877 213.289C125.415 212.493 126.94 211.668 128.408 210.747C129.894 209.857 131.309 208.848 132.642 207.73C133.307 207.172 133.928 206.56 134.499 205.899C135.08 205.244 135.55 204.493 135.89 203.678C135.587 204.516 135.149 205.295 134.595 205.983C134.038 206.667 133.427 207.303 132.77 207.885C132.116 208.471 131.431 209.017 130.716 209.521C130.008 210.032 129.282 210.516 128.541 210.975C127.053 211.882 125.527 212.714 123.963 213.472C122.401 214.229 120.81 214.923 119.189 215.53Z" fill="#50661A"/>
<path d="M131.603 208.715C131.469 208.133 131.369 207.543 131.303 206.949C131.233 206.354 131.203 205.756 131.184 205.156C131.181 204.554 131.222 203.952 131.307 203.356C131.371 202.75 131.612 202.178 131.998 201.716C131.92 201.84 131.849 201.969 131.787 202.102C131.733 202.237 131.688 202.377 131.653 202.519C131.623 202.663 131.581 202.802 131.56 202.948L131.503 203.384C131.45 203.972 131.429 204.563 131.441 205.153C131.439 205.745 131.472 206.337 131.5 206.931L131.603 208.715Z" fill="#50661A"/>
<path d="M137.125 208.416C136.429 208.532 135.719 208.529 135.024 208.405C134.672 208.342 134.329 208.23 134.006 208.072C133.838 208.001 133.687 207.892 133.565 207.753C133.443 207.614 133.352 207.448 133.301 207.269C133.482 207.565 133.762 207.784 134.089 207.883C134.408 207.997 134.736 208.084 135.07 208.143C135.743 208.265 136.429 208.33 137.125 208.416Z" fill="#50661A"/>
<path d="M135.162 211.631C134.222 211.749 133.27 211.695 132.347 211.473C131.878 211.365 131.431 211.173 131.025 210.907C130.816 210.78 130.637 210.606 130.502 210.399C130.367 210.191 130.279 209.955 130.244 209.708C130.401 210.154 130.719 210.52 131.131 210.731C131.534 210.95 131.964 211.113 132.409 211.215C133.316 211.421 134.236 211.56 135.162 211.631Z" fill="#50661A"/>
<path d="M128.541 210.822C128.226 210.286 127.953 209.724 127.726 209.142C127.497 208.56 127.304 207.963 127.149 207.355C127.005 206.742 126.911 206.118 126.87 205.488C126.837 204.859 126.898 204.227 127.049 203.616C126.958 204.853 127.077 206.096 127.399 207.291C127.534 207.893 127.721 208.482 127.911 209.071C128.104 209.659 128.314 210.243 128.541 210.822Z" fill="#50661A"/>
<path d="M130.477 214.228C130.087 214.247 129.696 214.212 129.316 214.124C128.929 214.042 128.556 213.905 128.206 213.717C127.851 213.526 127.536 213.264 127.28 212.947C127.038 212.622 126.887 212.234 126.844 211.826C126.979 212.19 127.178 212.524 127.432 212.812C127.696 213.08 127.998 213.306 128.326 213.482C128.659 213.662 129.008 213.81 129.367 213.924C129.729 214.04 130.097 214.147 130.477 214.228Z" fill="#50661A"/>
<path d="M124.118 206.509C123.982 207.046 123.89 207.594 123.843 208.146C123.793 208.693 123.799 209.243 123.861 209.789C123.909 210.334 124.029 210.87 124.218 211.382C124.405 211.901 124.648 212.397 124.94 212.861C124.563 212.45 124.257 211.976 124.034 211.459C123.81 210.938 123.665 210.384 123.605 209.818C123.55 209.253 123.564 208.683 123.647 208.121C123.728 207.563 123.887 207.02 124.118 206.509Z" fill="#50661A"/>
<path d="M125.323 215.194C124.842 215.192 124.368 215.082 123.934 214.871C123.481 214.68 123.107 214.333 122.875 213.89C123.229 214.191 123.622 214.44 124.042 214.63C124.456 214.83 124.885 214.997 125.323 215.194Z" fill="#50661A"/>
<path d="M121.37 210.753C121.361 211.398 121.32 212.028 121.32 212.657C121.315 212.969 121.327 213.282 121.356 213.593C121.378 213.906 121.447 214.215 121.562 214.506C121.355 214.255 121.215 213.951 121.158 213.627C121.09 213.308 121.058 212.982 121.063 212.656C121.064 212.008 121.167 211.366 121.37 210.753Z" fill="#50661A"/>
<path d="M118.74 227.488C118.74 227.488 130.555 228.372 135.396 222.901C138.989 218.841 135.043 212.406 129.91 213.887C126.474 214.879 122.348 218.3 118.74 227.488Z" fill="#8B9D36"/>
<path d="M118.74 227.486C119.526 227.119 120.311 226.754 121.085 226.364C121.864 225.986 122.637 225.596 123.404 225.194C124.935 224.388 126.459 223.566 127.923 222.64C129.406 221.754 130.822 220.752 132.157 219.643C132.825 219.092 133.449 218.486 134.023 217.832C134.607 217.183 135.086 216.44 135.441 215.634C135.153 216.48 134.724 217.268 134.173 217.962C133.619 218.653 133.011 219.296 132.356 219.885C131.705 220.476 131.02 221.026 130.304 221.532C129.595 222.045 128.87 222.533 128.128 222.994C126.635 223.897 125.105 224.73 123.537 225.479C121.973 226.232 120.372 226.902 118.74 227.486Z" fill="#5E7C24"/>
<path d="M131.153 220.673C130.84 219.513 130.676 218.317 130.663 217.114C130.656 216.508 130.702 215.902 130.8 215.305C130.875 214.693 131.137 214.121 131.548 213.673C131.477 213.801 131.412 213.933 131.354 214.068C131.305 214.204 131.266 214.345 131.236 214.487C131.178 214.772 131.136 215.06 131.11 215.35C131.069 215.933 131.057 216.52 131.063 217.109C131.075 218.289 131.139 219.471 131.153 220.673Z" fill="#5E7C24"/>
<path d="M136.676 220.372C135.983 220.541 135.264 220.561 134.563 220.433C134.205 220.369 133.858 220.25 133.534 220.08C133.363 220.004 133.211 219.886 133.093 219.737C132.974 219.589 132.891 219.413 132.852 219.225C133.053 219.501 133.338 219.699 133.662 219.786C133.98 219.889 134.305 219.969 134.633 220.027C135.3 220.15 135.979 220.228 136.676 220.372Z" fill="#5E7C24"/>
<path d="M134.713 223.588C134.247 223.678 133.772 223.713 133.298 223.692C132.82 223.678 132.346 223.615 131.881 223.501C131.405 223.391 130.953 223.191 130.546 222.913C130.335 222.78 130.157 222.598 130.027 222.381C129.896 222.164 129.817 221.919 129.795 221.665C129.975 222.094 130.301 222.44 130.711 222.639C131.113 222.846 131.538 223.001 131.977 223.101C132.862 223.326 133.779 223.437 134.713 223.588Z" fill="#5E7C24"/>
<path d="M128.091 222.78C127.42 221.723 126.926 220.557 126.63 219.331C126.481 218.715 126.392 218.085 126.363 217.451C126.34 216.816 126.419 216.182 126.599 215.574C126.575 216.192 126.6 216.811 126.675 217.425C126.758 218.033 126.873 218.636 127.018 219.231C127.159 219.828 127.335 220.418 127.514 221.009C127.701 221.597 127.887 222.188 128.091 222.78Z" fill="#5E7C24"/>
<path d="M130.027 226.185C129.636 226.233 129.239 226.217 128.852 226.136C128.459 226.063 128.078 225.929 127.723 225.739C127.361 225.543 127.043 225.272 126.789 224.942C126.547 224.605 126.41 224.201 126.395 223.783C126.554 224.132 126.766 224.452 127.025 224.731C127.291 224.985 127.589 225.202 127.911 225.375C128.239 225.553 128.581 225.704 128.932 225.826C129.288 225.954 129.651 226.07 130.027 226.185Z" fill="#5E7C24"/>
<path d="M123.667 218.464C123.559 219.006 123.486 219.556 123.449 220.109C123.413 220.651 123.423 221.195 123.481 221.736C123.533 222.274 123.647 222.804 123.82 223.315C123.998 223.836 124.222 224.338 124.49 224.816C124.089 224.422 123.764 223.954 123.531 223.436C123.464 223.309 123.41 223.176 123.369 223.039C123.326 222.903 123.274 222.768 123.237 222.629C123.168 222.35 123.116 222.067 123.084 221.781C122.957 220.64 123.16 219.486 123.667 218.464Z" fill="#5E7C24"/>
<path d="M124.875 227.152C124.633 227.184 124.387 227.174 124.148 227.123C123.91 227.076 123.677 227 123.456 226.895C123.233 226.788 123.025 226.648 122.841 226.479C122.653 226.308 122.511 226.091 122.428 225.848C122.808 226.106 123.209 226.331 123.625 226.522C124.032 226.721 124.449 226.898 124.875 227.152Z" fill="#5E7C24"/>
<path d="M120.921 222.708C120.968 223.363 120.94 223.989 120.943 224.612C120.937 224.923 120.946 225.232 120.963 225.538C120.975 225.851 121.025 226.161 121.114 226.461C120.881 226.224 120.721 225.922 120.655 225.591C120.576 225.271 120.539 224.941 120.543 224.611C120.546 224.285 120.578 223.96 120.638 223.64C120.695 223.318 120.79 223.005 120.921 222.708Z" fill="#5E7C24"/>
<path d="M122.688 205.828C122.688 205.828 119.413 194.091 123.606 188.079C126.719 183.617 133.64 186.27 133.293 191.754C133.06 195.426 130.664 200.294 122.688 205.828Z" fill="#8B9D36"/>
<path d="M122.688 205.831C122.905 204.064 123.211 202.311 123.603 200.577C123.991 198.841 124.466 197.126 125.015 195.433C125.299 194.591 125.612 193.758 125.953 192.936C126.286 192.11 126.667 191.306 127.093 190.527C127.517 189.744 128.002 188.999 128.544 188.298C129.088 187.598 129.747 187.003 130.492 186.538C129.799 187.062 129.194 187.699 128.698 188.422C128.196 189.136 127.749 189.89 127.364 190.678C126.587 192.253 125.927 193.888 125.392 195.568C124.816 197.235 124.35 198.942 123.9 200.653C123.676 201.509 123.465 202.369 123.269 203.234C123.059 204.095 122.874 204.962 122.688 205.831Z" fill="#5E7C24"/>
<path d="M126.594 191.904C127.737 191.67 128.872 191.491 129.994 191.26C130.555 191.144 131.109 191.012 131.655 190.85C131.924 190.764 132.189 190.662 132.447 190.544C132.576 190.485 132.701 190.417 132.821 190.339C132.937 190.253 133.049 190.16 133.155 190.062C132.815 190.569 132.326 190.951 131.761 191.152C131.214 191.375 130.649 191.547 130.073 191.664C128.928 191.9 127.759 191.98 126.594 191.904Z" fill="#5E7C24"/>
<path d="M125.74 186.27C126.021 186.943 126.234 187.612 126.488 188.259C126.611 188.579 126.754 188.889 126.917 189.189C127.067 189.498 127.314 189.745 127.618 189.891C127.431 189.89 127.247 189.843 127.081 189.753C126.915 189.664 126.773 189.536 126.665 189.378C126.437 189.087 126.253 188.762 126.118 188.414C125.851 187.733 125.723 187.003 125.74 186.27Z" fill="#5E7C24"/>
<path d="M123.094 188.913C123.43 189.824 123.725 190.727 124.121 191.573C124.306 191.995 124.541 192.392 124.82 192.755C125.094 193.128 125.49 193.385 125.934 193.478C125.688 193.508 125.439 193.479 125.206 193.392C124.974 193.305 124.764 193.163 124.595 192.977C124.246 192.625 123.964 192.21 123.76 191.752C123.557 191.307 123.399 190.841 123.287 190.362C123.17 189.888 123.105 189.402 123.094 188.913Z" fill="#5E7C24"/>
<path d="M125.227 195.425C125.83 195.509 126.43 195.574 127.027 195.642C127.625 195.7 128.22 195.757 128.817 195.775C129.411 195.799 130.007 195.79 130.601 195.749C131.199 195.698 131.792 195.596 132.373 195.444C131.834 195.75 131.248 195.962 130.641 196.068C130.033 196.171 129.417 196.211 128.802 196.187C127.577 196.141 126.369 195.883 125.227 195.425Z" fill="#5E7C24"/>
<path d="M121.596 194.176C121.782 194.532 121.968 194.874 122.162 195.207C122.351 195.536 122.565 195.85 122.801 196.144C123.032 196.433 123.298 196.689 123.595 196.905C123.913 197.108 124.26 197.257 124.624 197.345C124.224 197.416 123.813 197.361 123.443 197.187C123.078 196.998 122.754 196.733 122.494 196.408C122.24 196.09 122.035 195.733 121.884 195.351C121.728 194.978 121.631 194.581 121.596 194.176Z" fill="#5E7C24"/>
<path d="M130.234 198.998C129.368 199.721 128.315 200.164 127.206 200.271C126.928 200.297 126.648 200.304 126.369 200.291C126.23 200.282 126.092 200.258 125.953 200.242C125.814 200.229 125.677 200.202 125.543 200.161C125.003 200.033 124.492 199.801 124.035 199.478C124.544 199.65 125.067 199.773 125.598 199.844C126.119 199.914 126.645 199.919 127.167 199.861C127.692 199.807 128.211 199.706 128.718 199.558C129.235 199.406 129.741 199.219 130.234 198.998Z" fill="#5E7C24"/>
<path d="M121.74 199.573C122.069 199.951 122.323 200.336 122.596 200.705C122.863 201.085 123.16 201.443 123.483 201.774C123.235 201.74 122.999 201.641 122.799 201.487C122.6 201.336 122.424 201.156 122.276 200.952C122.132 200.751 122.011 200.532 121.918 200.301C121.819 200.07 121.759 199.824 121.74 199.573Z" fill="#5E7C24"/>
<path d="M126.774 202.645C126.519 202.839 126.241 202.999 125.948 203.122C125.657 203.249 125.355 203.348 125.046 203.418C124.733 203.491 124.413 203.521 124.092 203.508C123.765 203.509 123.445 203.41 123.172 203.224C123.475 203.252 123.779 203.239 124.079 203.186C124.373 203.14 124.668 203.086 124.962 203.015C125.554 202.89 126.142 202.732 126.774 202.645Z" fill="#5E7C24"/>
<path d="M110.807 228.841V231.046C110.805 231.248 110.881 231.443 111.019 231.588C111.156 231.733 111.344 231.815 111.54 231.817H126.242C126.438 231.815 126.626 231.733 126.763 231.588C126.901 231.443 126.977 231.248 126.975 231.046V229.014C126.977 228.813 126.902 228.619 126.766 228.474C126.63 228.33 126.445 228.247 126.25 228.242L111.549 228.069C111.451 228.069 111.354 228.089 111.263 228.128C111.173 228.167 111.09 228.224 111.021 228.295C110.952 228.367 110.898 228.452 110.861 228.546C110.824 228.64 110.806 228.74 110.807 228.841Z" fill="#D6694B"/>
<path d="M111.508 231.818L112.031 243.198H125.404L126.273 231.818H111.508Z" fill="#E19974"/>
<path d="M300.746 242.374H100.746V243.199H300.746V242.374Z" fill="#935B50"/>
<path d="M135.895 139.536H127.828C127.722 139.536 127.62 139.493 127.545 139.415C127.47 139.338 127.428 139.233 127.428 139.124V128.617C127.428 128.508 127.47 128.403 127.545 128.326C127.62 128.249 127.722 128.205 127.828 128.205H139.011C139.117 128.205 139.218 128.249 139.293 128.326C139.368 128.403 139.411 128.508 139.411 128.617V136.262L135.895 139.536Z" fill="#FFE3CB"/>
<path d="M139.411 136.272H135.895V139.534L139.411 136.272Z" fill="#FECA9C"/>
<path d="M135.015 127.146H131.423C131.203 127.146 131.023 127.331 131.023 127.559V128.961C131.023 129.189 131.203 129.373 131.423 129.373H135.015C135.236 129.373 135.415 129.189 135.415 128.961V127.559C135.415 127.331 135.236 127.146 135.015 127.146Z" fill="#FECA9C"/>
<path d="M136.214 132.058H130.598V132.471H136.214V132.058Z" fill="#FECA9C"/>
<path d="M136.214 134.537H130.598V134.95H136.214V134.537Z" fill="#FECA9C"/>
<path d="M168.702 126.742H159.607C159.488 126.742 159.373 126.693 159.288 126.605C159.204 126.518 159.156 126.4 159.156 126.277V114.432C159.156 114.308 159.204 114.19 159.288 114.103C159.373 114.016 159.488 113.967 159.607 113.967H172.215C172.335 113.967 172.449 114.016 172.534 114.103C172.618 114.19 172.666 114.308 172.666 114.432V123.05L168.702 126.742Z" fill="#C0D6F2"/>
<path d="M172.665 123.064H168.701V126.741L172.665 123.064Z" fill="#A2AEE6"/>
<path d="M167.71 112.771H163.66C163.411 112.771 163.209 112.98 163.209 113.236V114.817C163.209 115.074 163.411 115.282 163.66 115.282H167.71C167.959 115.282 168.161 115.074 168.161 114.817V113.236C168.161 112.98 167.959 112.771 167.71 112.771Z" fill="#A2AEE6"/>
<path d="M169.064 118.311H162.732V118.776H169.064V118.311Z" fill="#A2AEE6"/>
<path d="M169.064 121.103H162.732V121.568H169.064V121.103Z" fill="#A2AEE6"/>
<path d="M240.384 178.943H231.289C231.169 178.943 231.055 178.894 230.97 178.807C230.885 178.719 230.838 178.601 230.838 178.478V166.633C230.838 166.51 230.885 166.391 230.97 166.304C231.055 166.217 231.169 166.168 231.289 166.168H243.897C244.016 166.168 244.131 166.217 244.215 166.304C244.3 166.391 244.348 166.51 244.348 166.633V175.251L240.384 178.943Z" fill="#FFBA55"/>
<path d="M244.347 175.266H240.383V178.943L244.347 175.266Z" fill="#E6952A"/>
<path d="M239.391 164.972H235.342C235.093 164.972 234.891 165.18 234.891 165.437V167.017C234.891 167.274 235.093 167.482 235.342 167.482H239.391C239.64 167.482 239.842 167.274 239.842 167.017V165.437C239.842 165.18 239.64 164.972 239.391 164.972Z" fill="#E6952A"/>
<path d="M240.744 170.511H234.412V170.977H240.744V170.511Z" fill="#E6952A"/>
<path d="M240.744 173.303H234.412V173.769H240.744V173.303Z" fill="#E6952A"/>
<path d="M204.229 172.642H201.918C201.829 172.642 201.741 172.624 201.659 172.588C201.577 172.553 201.502 172.502 201.439 172.437C201.376 172.372 201.327 172.296 201.293 172.211C201.259 172.126 201.241 172.036 201.241 171.944C201.241 171.852 201.259 171.762 201.293 171.677C201.327 171.592 201.376 171.516 201.439 171.451C201.502 171.386 201.577 171.335 201.659 171.3C201.741 171.265 201.829 171.246 201.918 171.246H203.552V169.678C203.552 169.493 203.624 169.315 203.751 169.184C203.877 169.054 204.049 168.98 204.229 168.98C204.408 168.98 204.58 169.054 204.707 169.184C204.834 169.315 204.905 169.493 204.905 169.678V171.944C204.905 172.129 204.834 172.306 204.707 172.437C204.58 172.568 204.408 172.641 204.229 172.642ZM197.408 172.642H192.898C192.81 172.642 192.722 172.624 192.64 172.588C192.557 172.553 192.483 172.502 192.42 172.437C192.357 172.372 192.307 172.296 192.273 172.211C192.239 172.126 192.222 172.036 192.222 171.944C192.222 171.852 192.239 171.762 192.273 171.677C192.307 171.592 192.357 171.516 192.42 171.451C192.483 171.386 192.557 171.335 192.64 171.3C192.722 171.265 192.81 171.246 192.898 171.246H197.408C197.587 171.246 197.759 171.32 197.886 171.451C198.013 171.582 198.084 171.759 198.084 171.944C198.084 172.129 198.013 172.306 197.886 172.437C197.759 172.568 197.587 172.642 197.408 172.642ZM188.389 172.642H183.879C183.79 172.642 183.702 172.624 183.62 172.588C183.538 172.553 183.463 172.502 183.401 172.437C183.338 172.372 183.288 172.296 183.254 172.211C183.22 172.126 183.202 172.036 183.202 171.944C183.202 171.852 183.22 171.762 183.254 171.677C183.288 171.592 183.338 171.516 183.401 171.451C183.463 171.386 183.538 171.335 183.62 171.3C183.702 171.265 183.79 171.246 183.879 171.246H188.389C188.478 171.246 188.566 171.265 188.648 171.3C188.73 171.335 188.804 171.386 188.867 171.451C188.93 171.516 188.98 171.592 189.014 171.677C189.048 171.762 189.065 171.852 189.065 171.944C189.065 172.036 189.048 172.126 189.014 172.211C188.98 172.296 188.93 172.372 188.867 172.437C188.804 172.502 188.73 172.553 188.648 172.588C188.566 172.624 188.478 172.642 188.389 172.642H188.389ZM179.37 172.642H174.86C174.771 172.642 174.683 172.624 174.601 172.588C174.519 172.553 174.444 172.502 174.381 172.437C174.319 172.372 174.269 172.296 174.235 172.211C174.201 172.126 174.183 172.036 174.183 171.944C174.183 171.852 174.201 171.762 174.235 171.677C174.269 171.592 174.319 171.516 174.381 171.451C174.444 171.386 174.519 171.335 174.601 171.3C174.683 171.265 174.771 171.246 174.86 171.246H179.37C179.458 171.246 179.546 171.265 179.628 171.3C179.711 171.335 179.785 171.386 179.848 171.451C179.911 171.516 179.961 171.592 179.995 171.677C180.029 171.762 180.046 171.852 180.046 171.944C180.046 172.036 180.029 172.126 179.995 172.211C179.961 172.296 179.911 172.372 179.848 172.437C179.785 172.502 179.711 172.553 179.628 172.588C179.546 172.624 179.458 172.642 179.37 172.642ZM170.35 172.642H165.841C165.661 172.642 165.489 172.568 165.362 172.437C165.235 172.306 165.164 172.129 165.164 171.944C165.164 171.759 165.235 171.582 165.362 171.451C165.489 171.32 165.661 171.246 165.841 171.246H170.35C170.439 171.246 170.527 171.265 170.609 171.3C170.691 171.335 170.766 171.386 170.828 171.451C170.891 171.516 170.941 171.592 170.975 171.677C171.009 171.762 171.027 171.852 171.027 171.944C171.027 172.036 171.009 172.126 170.975 172.211C170.941 172.296 170.891 172.372 170.828 172.437C170.766 172.502 170.691 172.553 170.609 172.588C170.527 172.624 170.439 172.642 170.35 172.642ZM165.684 168.153C165.505 168.153 165.333 168.079 165.206 167.949C165.079 167.818 165.008 167.641 165.008 167.456V162.806C165.008 162.621 165.08 162.444 165.207 162.314C165.333 162.183 165.505 162.11 165.684 162.11C165.864 162.11 166.035 162.183 166.162 162.314C166.289 162.444 166.361 162.621 166.361 162.806V167.456C166.361 167.641 166.29 167.818 166.163 167.949C166.036 168.079 165.864 168.153 165.684 168.153ZM204.229 165.726C204.05 165.726 203.877 165.652 203.751 165.521C203.624 165.391 203.552 165.213 203.552 165.028V160.379C203.552 160.194 203.624 160.016 203.751 159.885C203.877 159.755 204.049 159.681 204.229 159.681C204.408 159.681 204.58 159.755 204.707 159.885C204.834 160.016 204.905 160.194 204.905 160.379V165.028C204.905 165.213 204.834 165.391 204.707 165.521C204.58 165.652 204.408 165.726 204.229 165.726ZM237.592 162.626C237.412 162.626 237.24 162.552 237.113 162.421C236.987 162.291 236.915 162.113 236.915 161.928V160.48C236.916 160.295 236.987 160.118 237.114 159.988C237.241 159.857 237.413 159.784 237.592 159.784C237.771 159.784 237.943 159.857 238.07 159.988C238.196 160.118 238.268 160.295 238.268 160.48V161.928C238.268 162.113 238.197 162.291 238.07 162.421C237.943 162.552 237.771 162.626 237.592 162.626ZM165.684 158.854C165.505 158.854 165.333 158.78 165.206 158.65C165.079 158.519 165.008 158.342 165.008 158.157V153.507C165.008 153.323 165.08 153.146 165.207 153.015C165.333 152.885 165.505 152.811 165.684 152.811C165.864 152.811 166.035 152.885 166.162 153.015C166.289 153.146 166.361 153.323 166.361 153.507V158.157C166.361 158.342 166.29 158.519 166.163 158.65C166.036 158.78 165.864 158.854 165.684 158.854ZM237.592 156.528C237.412 156.528 237.24 156.455 237.113 156.324C236.987 156.193 236.915 156.016 236.915 155.831V151.181C236.916 150.996 236.987 150.819 237.114 150.689C237.241 150.558 237.413 150.485 237.592 150.485C237.771 150.485 237.943 150.558 238.07 150.689C238.196 150.819 238.268 150.996 238.268 151.181V155.831C238.268 156.016 238.197 156.193 238.07 156.324C237.943 156.454 237.771 156.528 237.592 156.528ZM204.229 156.427C204.05 156.427 203.877 156.353 203.751 156.222C203.624 156.092 203.552 155.914 203.552 155.729V151.08C203.552 150.895 203.624 150.718 203.751 150.587C203.877 150.456 204.049 150.382 204.229 150.382C204.408 150.382 204.58 150.456 204.707 150.587C204.834 150.718 204.905 150.895 204.905 151.08V155.729C204.905 155.914 204.834 156.092 204.707 156.222C204.58 156.353 204.408 156.427 204.229 156.427ZM165.684 149.555C165.505 149.555 165.333 149.482 165.206 149.351C165.079 149.22 165.008 149.043 165.008 148.858V148.672C165.008 148.487 165.079 148.31 165.206 148.179C165.333 148.049 165.505 147.975 165.684 147.975H170.014C170.193 147.975 170.365 148.049 170.492 148.179C170.619 148.31 170.69 148.487 170.69 148.672C170.69 148.857 170.619 149.035 170.492 149.166C170.365 149.296 170.193 149.37 170.014 149.37H166.143C166.019 149.489 165.855 149.555 165.684 149.555V149.555ZM185.827 149.37H183.543C183.364 149.37 183.192 149.296 183.065 149.166C182.938 149.035 182.867 148.857 182.867 148.672C182.867 148.487 182.938 148.31 183.065 148.179C183.192 148.049 183.364 147.975 183.543 147.975H185.15V146.377C185.15 146.192 185.221 146.015 185.348 145.884C185.475 145.753 185.647 145.68 185.827 145.68C186.006 145.68 186.178 145.753 186.305 145.884C186.432 146.015 186.503 146.192 186.503 146.377V148.672C186.503 148.857 186.432 149.035 186.305 149.166C186.178 149.296 186.006 149.37 185.827 149.37V149.37ZM179.034 149.37H174.524C174.344 149.37 174.172 149.296 174.046 149.166C173.919 149.035 173.847 148.857 173.847 148.672C173.847 148.487 173.919 148.31 174.046 148.179C174.172 148.049 174.344 147.975 174.524 147.975H179.034C179.213 147.975 179.385 148.049 179.512 148.179C179.639 148.31 179.71 148.487 179.71 148.672C179.71 148.857 179.639 149.035 179.512 149.166C179.385 149.296 179.213 149.37 179.034 149.37ZM236.743 148.104H232.234C232.145 148.104 232.057 148.086 231.974 148.051C231.892 148.016 231.817 147.965 231.754 147.9C231.691 147.836 231.641 147.759 231.607 147.674C231.573 147.589 231.556 147.498 231.556 147.407C231.556 147.315 231.573 147.224 231.607 147.139C231.641 147.055 231.691 146.978 231.754 146.913C231.817 146.848 231.892 146.797 231.974 146.762C232.057 146.727 232.145 146.709 232.234 146.709H236.743C236.832 146.709 236.92 146.727 237.002 146.762C237.085 146.797 237.159 146.848 237.222 146.913C237.285 146.978 237.335 147.055 237.369 147.139C237.403 147.224 237.421 147.315 237.421 147.407C237.421 147.498 237.403 147.589 237.369 147.674C237.335 147.759 237.285 147.836 237.222 147.9C237.159 147.965 237.085 148.016 237.002 148.051C236.92 148.086 236.832 148.104 236.743 148.104ZM227.724 148.104H223.214C223.125 148.104 223.037 148.086 222.955 148.051C222.872 148.016 222.798 147.965 222.735 147.9C222.672 147.836 222.622 147.759 222.588 147.674C222.554 147.589 222.536 147.498 222.536 147.407C222.536 147.315 222.554 147.224 222.588 147.139C222.622 147.055 222.672 146.978 222.735 146.913C222.798 146.848 222.872 146.797 222.955 146.762C223.037 146.727 223.125 146.709 223.214 146.709H227.724C227.813 146.709 227.901 146.727 227.983 146.762C228.065 146.797 228.14 146.848 228.203 146.913C228.266 146.978 228.316 147.055 228.35 147.139C228.384 147.224 228.402 147.315 228.402 147.407C228.402 147.498 228.384 147.589 228.35 147.674C228.316 147.759 228.266 147.836 228.203 147.9C228.14 147.965 228.065 148.016 227.983 148.051C227.901 148.086 227.813 148.104 227.724 148.104ZM218.705 148.104H214.195C214.106 148.104 214.018 148.086 213.936 148.051C213.853 148.016 213.779 147.965 213.716 147.9C213.653 147.836 213.603 147.759 213.569 147.674C213.534 147.589 213.517 147.498 213.517 147.407C213.517 147.315 213.534 147.224 213.569 147.139C213.603 147.055 213.653 146.978 213.716 146.913C213.779 146.848 213.853 146.797 213.936 146.762C214.018 146.727 214.106 146.709 214.195 146.709H218.705C218.794 146.709 218.882 146.727 218.964 146.762C219.046 146.797 219.121 146.848 219.184 146.913C219.247 146.978 219.297 147.055 219.331 147.139C219.365 147.224 219.383 147.315 219.383 147.407C219.383 147.498 219.365 147.589 219.331 147.674C219.297 147.759 219.247 147.836 219.184 147.9C219.121 147.965 219.046 148.016 218.964 148.051C218.882 148.086 218.794 148.104 218.705 148.104H218.705ZM209.685 148.104H205.176C205.087 148.104 204.999 148.086 204.916 148.051C204.834 148.016 204.759 147.965 204.696 147.9C204.633 147.836 204.584 147.759 204.549 147.674C204.515 147.589 204.498 147.498 204.498 147.407C204.498 147.315 204.515 147.224 204.549 147.139C204.584 147.055 204.633 146.978 204.696 146.913C204.759 146.848 204.834 146.797 204.916 146.762C204.999 146.727 205.087 146.709 205.176 146.709H209.685C209.774 146.709 209.862 146.727 209.944 146.762C210.027 146.797 210.102 146.848 210.164 146.913C210.227 146.978 210.277 147.055 210.312 147.139C210.346 147.224 210.363 147.315 210.363 147.407C210.363 147.498 210.346 147.589 210.312 147.674C210.277 147.759 210.227 147.836 210.164 147.9C210.102 147.965 210.027 148.016 209.944 148.051C209.862 148.086 209.774 148.104 209.685 148.104ZM185.827 142.425C185.647 142.425 185.475 142.352 185.348 142.221C185.221 142.09 185.15 141.913 185.15 141.728V137.078C185.15 136.893 185.221 136.716 185.348 136.585C185.475 136.454 185.647 136.381 185.827 136.381C186.006 136.381 186.178 136.454 186.305 136.585C186.432 136.716 186.503 136.893 186.503 137.078V141.728C186.503 141.913 186.432 142.09 186.305 142.221C186.178 142.352 186.006 142.425 185.827 142.425ZM235.342 133.894H231.667C231.488 133.894 231.316 133.82 231.189 133.689C231.062 133.558 230.991 133.381 230.991 133.196C230.991 133.011 231.062 132.834 231.189 132.703C231.316 132.572 231.488 132.499 231.667 132.499H234.666V132.336C234.666 132.151 234.738 131.974 234.864 131.844C234.991 131.713 235.163 131.64 235.342 131.64C235.521 131.64 235.693 131.713 235.82 131.844C235.947 131.974 236.018 132.151 236.019 132.336V133.196C236.019 133.381 235.947 133.559 235.821 133.689C235.694 133.82 235.522 133.894 235.342 133.894ZM227.157 133.894H222.648C222.468 133.894 222.296 133.82 222.169 133.689C222.043 133.558 221.971 133.381 221.971 133.196C221.971 133.011 222.043 132.834 222.169 132.703C222.296 132.572 222.468 132.499 222.648 132.499H227.157C227.337 132.499 227.509 132.572 227.636 132.703C227.763 132.834 227.834 133.011 227.834 133.196C227.834 133.381 227.763 133.558 227.636 133.689C227.509 133.82 227.337 133.894 227.157 133.894ZM218.138 133.894H213.629C213.449 133.894 213.277 133.82 213.15 133.689C213.023 133.558 212.952 133.381 212.952 133.196C212.952 133.011 213.023 132.834 213.15 132.703C213.277 132.572 213.449 132.499 213.629 132.499H218.138C218.318 132.499 218.49 132.572 218.617 132.703C218.743 132.834 218.815 133.011 218.815 133.196C218.815 133.381 218.743 133.558 218.617 133.689C218.49 133.82 218.318 133.894 218.138 133.894ZM209.119 133.894H204.609C204.43 133.894 204.258 133.82 204.131 133.689C204.004 133.558 203.933 133.381 203.933 133.196C203.933 133.011 204.004 132.834 204.131 132.703C204.258 132.572 204.43 132.499 204.609 132.499H209.119C209.298 132.499 209.47 132.572 209.597 132.703C209.724 132.834 209.795 133.011 209.795 133.196C209.795 133.381 209.724 133.558 209.597 133.689C209.47 133.82 209.298 133.894 209.119 133.894ZM200.1 133.894H195.59C195.41 133.894 195.238 133.82 195.112 133.689C194.985 133.558 194.913 133.381 194.913 133.196C194.913 133.011 194.985 132.834 195.112 132.703C195.238 132.572 195.41 132.499 195.59 132.499H200.1C200.279 132.499 200.451 132.572 200.578 132.703C200.705 132.834 200.776 133.011 200.776 133.196C200.776 133.381 200.705 133.558 200.578 133.689C200.451 133.82 200.279 133.894 200.1 133.894ZM191.08 133.894H186.571C186.391 133.894 186.219 133.82 186.092 133.689C185.966 133.558 185.894 133.381 185.894 133.196C185.894 133.011 185.966 132.834 186.092 132.703C186.219 132.572 186.391 132.499 186.571 132.499H191.08C191.26 132.499 191.432 132.572 191.559 132.703C191.686 132.834 191.757 133.011 191.757 133.196C191.757 133.381 191.686 133.558 191.559 133.689C191.432 133.82 191.26 133.894 191.08 133.894ZM235.342 128.384C235.163 128.384 234.991 128.31 234.864 128.179C234.737 128.049 234.666 127.871 234.666 127.686V123.037C234.666 122.852 234.738 122.675 234.864 122.545C234.991 122.414 235.163 122.341 235.342 122.341C235.521 122.341 235.693 122.414 235.82 122.545C235.947 122.675 236.018 122.852 236.019 123.037V127.686C236.019 127.871 235.947 128.049 235.821 128.179C235.694 128.31 235.522 128.384 235.342 128.384V128.384ZM235.342 119.085C235.237 119.085 235.133 119.06 235.039 119.011H230.904C230.725 119.011 230.553 118.937 230.426 118.807C230.299 118.676 230.228 118.498 230.228 118.314C230.228 118.129 230.299 117.951 230.426 117.82C230.553 117.69 230.725 117.616 230.904 117.616H235.342C235.522 117.616 235.694 117.69 235.821 117.82C235.947 117.951 236.019 118.129 236.019 118.314V118.387C236.019 118.572 235.947 118.75 235.821 118.881C235.694 119.011 235.522 119.085 235.342 119.085V119.085ZM226.395 119.011H221.885C221.706 119.011 221.534 118.937 221.407 118.807C221.28 118.676 221.209 118.498 221.209 118.314C221.209 118.129 221.28 117.951 221.407 117.82C221.534 117.69 221.706 117.616 221.885 117.616H226.395C226.574 117.616 226.746 117.69 226.873 117.82C227 117.951 227.071 118.129 227.071 118.314C227.071 118.498 227 118.676 226.873 118.807C226.746 118.937 226.574 119.011 226.395 119.011ZM217.375 119.011H212.866C212.686 119.011 212.514 118.937 212.387 118.807C212.261 118.676 212.189 118.498 212.189 118.314C212.189 118.129 212.261 117.951 212.387 117.82C212.514 117.69 212.686 117.616 212.866 117.616H217.375C217.555 117.616 217.727 117.69 217.854 117.82C217.981 117.951 218.052 118.129 218.052 118.314C218.052 118.498 217.981 118.676 217.854 118.807C217.727 118.937 217.555 119.011 217.375 119.011ZM208.356 119.011H203.846C203.667 119.011 203.495 118.937 203.368 118.807C203.241 118.676 203.17 118.498 203.17 118.314C203.17 118.129 203.241 117.951 203.368 117.82C203.495 117.69 203.667 117.616 203.846 117.616H208.356C208.536 117.616 208.708 117.69 208.835 117.82C208.961 117.951 209.033 118.129 209.033 118.314C209.033 118.498 208.961 118.676 208.835 118.807C208.708 118.937 208.536 119.011 208.356 119.011ZM199.337 119.011H194.827C194.648 119.011 194.476 118.937 194.349 118.807C194.222 118.676 194.151 118.498 194.151 118.314C194.151 118.129 194.222 117.951 194.349 117.82C194.476 117.69 194.648 117.616 194.827 117.616H199.337C199.516 117.616 199.688 117.69 199.815 117.82C199.942 117.951 200.013 118.129 200.013 118.314C200.013 118.498 199.942 118.676 199.815 118.807C199.688 118.937 199.516 119.011 199.337 119.011ZM190.318 119.011H185.808C185.628 119.011 185.456 118.937 185.33 118.807C185.203 118.676 185.131 118.498 185.131 118.314C185.131 118.129 185.203 117.951 185.33 117.82C185.456 117.69 185.628 117.616 185.808 117.616H190.318C190.497 117.616 190.669 117.69 190.796 117.82C190.923 117.951 190.994 118.129 190.994 118.314C190.994 118.498 190.923 118.676 190.796 118.807C190.669 118.937 190.497 119.011 190.318 119.011ZM181.298 119.011H176.789C176.609 119.011 176.437 118.937 176.31 118.807C176.184 118.676 176.112 118.498 176.112 118.314C176.112 118.129 176.184 117.951 176.31 117.82C176.437 117.69 176.609 117.616 176.789 117.616H181.298C181.478 117.616 181.65 117.69 181.777 117.82C181.904 117.951 181.975 118.129 181.975 118.314C181.975 118.498 181.904 118.676 181.777 118.807C181.65 118.937 181.478 119.011 181.298 119.011Z" fill="#A2AEE6"/>
<path d="M191.069 157.415H181.974C181.855 157.415 181.74 157.366 181.656 157.279C181.571 157.192 181.523 157.074 181.523 156.95V145.106C181.523 144.982 181.571 144.864 181.656 144.777C181.74 144.69 181.855 144.641 181.974 144.641H194.582C194.702 144.641 194.816 144.69 194.901 144.777C194.986 144.864 195.033 144.982 195.033 145.106V153.724L191.069 157.415Z" fill="#F73C4F"/>
<path d="M195.032 153.737H191.068V157.414L195.032 153.737Z" fill="#B02336"/>
<path d="M190.077 143.443H186.027C185.778 143.443 185.576 143.652 185.576 143.908V145.489C185.576 145.746 185.778 145.954 186.027 145.954H190.077C190.326 145.954 190.528 145.746 190.528 145.489V143.908C190.528 143.652 190.326 143.443 190.077 143.443Z" fill="#B02336"/>
<path d="M191.429 148.987H185.098V149.453H191.429V148.987Z" fill="#B02336"/>
<path d="M191.429 151.775H185.098V152.241H191.429V151.775Z" fill="#B02336"/>
<path d="M203.721 175.288C202.894 175.288 202.086 175.035 201.399 174.562C200.711 174.088 200.175 173.415 199.859 172.628C199.543 171.841 199.46 170.974 199.621 170.138C199.783 169.303 200.181 168.535 200.765 167.932C201.35 167.329 202.094 166.919 202.905 166.753C203.716 166.586 204.556 166.672 205.32 166.998C206.084 167.324 206.737 167.876 207.196 168.585C207.655 169.294 207.9 170.127 207.9 170.979C207.899 172.121 207.458 173.217 206.675 174.025C205.891 174.833 204.829 175.287 203.721 175.288ZM203.721 167.135C202.983 167.135 202.262 167.36 201.649 167.783C201.036 168.205 200.558 168.806 200.276 169.508C199.993 170.21 199.92 170.983 200.064 171.729C200.207 172.475 200.563 173.16 201.084 173.698C201.606 174.235 202.27 174.601 202.993 174.75C203.717 174.898 204.466 174.822 205.148 174.531C205.829 174.24 206.411 173.747 206.821 173.115C207.231 172.483 207.449 171.739 207.449 170.979C207.448 169.96 207.055 168.983 206.356 168.262C205.657 167.541 204.709 167.136 203.721 167.135Z" fill="#F73C4F"/>
<path d="M165.686 152.982C164.859 152.982 164.051 152.729 163.363 152.256C162.676 151.782 162.14 151.109 161.824 150.322C161.508 149.534 161.425 148.668 161.586 147.832C161.747 146.996 162.146 146.228 162.73 145.625C163.315 145.023 164.059 144.612 164.87 144.446C165.681 144.28 166.521 144.365 167.285 144.691C168.049 145.017 168.702 145.57 169.161 146.278C169.62 146.987 169.865 147.82 169.865 148.673C169.864 149.815 169.423 150.91 168.64 151.718C167.856 152.526 166.794 152.98 165.686 152.982ZM165.686 144.828C164.948 144.828 164.227 145.054 163.614 145.476C163.001 145.898 162.523 146.499 162.24 147.201C161.958 147.904 161.884 148.677 162.028 149.423C162.172 150.168 162.527 150.853 163.049 151.391C163.57 151.929 164.235 152.295 164.958 152.443C165.681 152.592 166.431 152.515 167.113 152.224C167.794 151.933 168.376 151.441 168.786 150.808C169.196 150.176 169.414 149.433 169.414 148.673C169.413 147.653 169.02 146.676 168.321 145.955C167.622 145.235 166.674 144.829 165.686 144.828Z" fill="#F73C4F"/>
<path d="M238.158 128.155C238.114 128.155 238.07 128.146 238.029 128.129C237.988 128.111 237.951 128.085 237.919 128.053L232.288 122.247C232.225 122.182 232.189 122.093 232.189 122.001C232.19 121.908 232.225 121.82 232.288 121.755C232.352 121.689 232.438 121.652 232.527 121.652C232.617 121.652 232.703 121.689 232.766 121.754L238.397 127.56C238.445 127.608 238.477 127.67 238.49 127.738C238.503 127.806 238.496 127.876 238.471 127.94C238.445 128.003 238.402 128.058 238.346 128.096C238.291 128.134 238.225 128.155 238.158 128.155V128.155Z" fill="#F73C4F"/>
<path d="M232.528 128.155C232.461 128.155 232.395 128.134 232.34 128.096C232.284 128.057 232.241 128.003 232.215 127.939C232.19 127.875 232.183 127.805 232.196 127.738C232.209 127.67 232.241 127.608 232.288 127.559L237.92 121.754C237.983 121.689 238.069 121.652 238.159 121.652C238.248 121.653 238.334 121.689 238.397 121.755C238.46 121.82 238.496 121.908 238.496 122C238.496 122.093 238.461 122.181 238.398 122.247L232.767 128.052C232.735 128.085 232.698 128.111 232.657 128.128C232.616 128.146 232.572 128.155 232.528 128.155Z" fill="#F73C4F"/>
<path d="M204.454 121.565C204.41 121.565 204.366 121.556 204.325 121.538C204.284 121.521 204.247 121.495 204.215 121.463L198.584 115.657C198.552 115.625 198.527 115.586 198.51 115.544C198.493 115.502 198.484 115.456 198.484 115.41C198.484 115.365 198.493 115.319 198.51 115.277C198.527 115.235 198.552 115.196 198.583 115.164C198.615 115.131 198.652 115.106 198.693 115.088C198.734 115.071 198.778 115.062 198.822 115.062C198.867 115.062 198.911 115.071 198.952 115.088C198.993 115.106 199.03 115.131 199.062 115.164L204.693 120.969C204.741 121.018 204.773 121.08 204.786 121.148C204.799 121.216 204.792 121.286 204.767 121.349C204.741 121.413 204.698 121.468 204.642 121.506C204.586 121.544 204.521 121.565 204.454 121.565Z" fill="#F73C4F"/>
<path d="M198.822 121.565C198.756 121.565 198.69 121.544 198.635 121.506C198.579 121.468 198.536 121.413 198.51 121.349C198.485 121.286 198.478 121.216 198.491 121.148C198.504 121.08 198.536 121.018 198.583 120.969L204.215 115.164C204.278 115.098 204.365 115.061 204.454 115.062C204.544 115.062 204.63 115.098 204.693 115.164C204.757 115.229 204.792 115.318 204.792 115.41C204.792 115.503 204.757 115.592 204.693 115.657L199.061 121.463C199.03 121.495 198.993 121.521 198.952 121.538C198.911 121.556 198.867 121.565 198.822 121.565Z" fill="#F73C4F"/>
</g>
<defs>
<filter id="filter0_d_223_13161" x="0.746094" y="0.199219" width="400" height="347" filterUnits="userSpaceOnUse" color-interpolation-filters="sRGB">
<feFlood flood-opacity="0" result="BackgroundImageFix"/>
<feColorMatrix in="SourceAlpha" type="matrix" values="0 0 0 0 0 0 0 0 0 0 0 0 0 0 0 0 0 0 127 0" result="hardAlpha"/>
<feOffset dy="4"/>
<feGaussianBlur stdDeviation="50"/>
<feColorMatrix type="matrix" values="0 0 0 0 0.933333 0 0 0 0 0.533333 0 0 0 0 0.533333 0 0 0 1 0"/>
<feBlend mode="normal" in2="BackgroundImageFix" result="effect1_dropShadow_223_13161"/>
<feBlend mode="normal" in="SourceGraphic" in2="effect1_dropShadow_223_13161" result="shape"/>
</filter>
</defs>
</svg>
