<svg width="56" height="50" viewBox="0 0 56 50" fill="none" xmlns="http://www.w3.org/2000/svg">
<g clip-path="url(#clip0)">
<path d="M7.52692 16.2305C5.61179 16.2305 4.08789 17.6009 4.08789 19.3231V32.2056C4.08789 33.928 5.61179 35.2984 7.52692 35.2984C9.44206 35.2984 10.9659 33.928 10.9659 32.2056V19.3231C10.9659 17.6009 9.44206 16.2305 7.52692 16.2305ZM47.6367 16.2305C45.7215 16.2305 44.1976 17.6009 44.1976 19.3231V32.2056C44.1976 33.928 45.7215 35.2984 47.6367 35.2984C49.5517 35.2984 51.0756 33.928 51.0756 32.2056V19.3231C51.0756 17.6009 49.5517 16.2305 47.6367 16.2305Z" fill="#201F1F"/>
<path d="M21.8516 30.9316C19.9365 30.9316 18.4126 32.3021 18.4126 34.0244V46.9069C18.4126 48.6291 19.9365 49.9996 21.8516 49.9996C23.7668 49.9996 25.2907 48.6291 25.2907 46.9069V34.0244C25.2907 32.3021 23.7668 30.9316 21.8516 30.9316ZM33.3116 30.9316C31.3964 30.9316 29.8725 32.3021 29.8725 34.0244V46.9069C29.8725 48.6291 31.3964 49.9996 33.3116 49.9996C35.2266 49.9996 36.7505 48.6291 36.7505 46.9069V34.0244C36.7505 32.3021 35.2266 30.9316 33.3116 30.9316Z" fill="#201F1F"/>
<path d="M18.0593 2.14679e-05C17.978 0.00076914 17.9023 0.0196313 17.8276 0.056855C17.5824 0.179101 17.5017 0.432524 17.638 0.653618L20.0606 4.5894C15.3997 6.77041 12.2514 10.9152 12.2451 15.6721H42.9172C42.911 10.9152 39.7626 6.77041 35.1017 4.5894L37.5243 0.653618C37.6607 0.432524 37.5799 0.179101 37.3348 0.056855C37.26 0.0196313 37.1843 0.000718298 37.1031 2.14679e-05C36.9291 -0.00148882 36.7641 0.0767118 36.6712 0.227359L34.217 4.20576C32.2094 3.40491 29.9575 2.95541 27.5812 2.95541C25.2048 2.95541 22.9531 3.40491 20.9453 4.20576L18.4912 0.227359C18.3983 0.0767118 18.2334 -0.00147985 18.0593 2.14679e-05ZM12.2451 16.7615V36.7529C12.2451 38.6002 13.8987 40.0872 15.9527 40.0872H39.2096C41.2636 40.0872 42.9172 38.6002 42.9172 36.7529V16.7615H12.2451Z" fill="#201F1F"/>
<path d="M20.7481 8.3418C20.0478 8.3418 19.4683 8.863 19.4683 9.49269C19.4683 10.1224 20.0478 10.6436 20.7481 10.6436C21.4483 10.6436 22.0278 10.1224 22.0278 9.49269C22.0278 8.863 21.4483 8.3418 20.7481 8.3418ZM34.9044 8.3418C34.2042 8.3418 33.6247 8.863 33.6247 9.49269C33.6247 10.1224 34.2042 10.6436 34.9044 10.6436C35.6046 10.6436 36.1842 10.1224 36.1842 9.49269C36.1842 8.863 35.6046 8.3418 34.9044 8.3418Z" fill="#022725"/>
</g>
<defs>
<clipPath id="clip0">
<rect width="55.5985" height="50" fill="white"/>
</clipPath>
</defs>
</svg>
