<svg width="51" height="50" viewBox="0 0 51 50" fill="none" xmlns="http://www.w3.org/2000/svg">
<path d="M13.4538 30.2093C13.4538 30.7618 13.2343 31.2917 12.8436 31.6824C12.4529 32.0731 11.923 32.2926 11.3704 32.2926C10.8179 32.2926 10.288 32.0731 9.8973 31.6824C9.5066 31.2917 9.28711 30.7618 9.28711 30.2093V20.8343C9.28711 20.2818 9.5066 19.7519 9.8973 19.3612C10.288 18.9705 10.8179 18.751 11.3704 18.751C11.923 18.751 12.4529 18.9705 12.8436 19.3612C13.2343 19.7519 13.4538 20.2818 13.4538 20.8343V30.2093ZM42.6204 30.2093C42.6204 30.7618 42.401 31.2917 42.0103 31.6824C41.6195 32.0731 41.0896 32.2926 40.5371 32.2926C39.9846 32.2926 39.4547 32.0731 39.064 31.6824C38.6733 31.2917 38.4538 30.7618 38.4538 30.2093V20.8343C38.4538 20.2818 38.6733 19.7519 39.064 19.3612C39.4547 18.9705 39.9846 18.751 40.5371 18.751C41.0896 18.751 41.6195 18.9705 42.0103 19.3612C42.401 19.7519 42.6204 20.2818 42.6204 20.8343V30.2093ZM23.8704 41.6666C23.8704 42.2191 23.6509 42.749 23.2602 43.1397C22.8695 43.5304 22.3396 43.7499 21.7871 43.7499C21.2346 43.7499 20.7047 43.5304 20.314 43.1397C19.9233 42.749 19.7038 42.2191 19.7038 41.6666V32.2916C19.7038 31.7391 19.9233 31.2092 20.314 30.8185C20.7047 30.4278 21.2346 30.2083 21.7871 30.2083C22.3396 30.2083 22.8695 30.4278 23.2602 30.8185C23.6509 31.2092 23.8704 31.7391 23.8704 32.2916V41.6666ZM32.2038 41.6666C32.2038 42.2191 31.9843 42.749 31.5936 43.1397C31.2029 43.5304 30.673 43.7499 30.1204 43.7499C29.5679 43.7499 29.038 43.5304 28.6473 43.1397C28.2566 42.749 28.0371 42.2191 28.0371 41.6666V32.2916C28.0371 31.7391 28.2566 31.2092 28.6473 30.8185C29.038 30.4278 29.5679 30.2083 30.1204 30.2083C30.673 30.2083 31.2029 30.4278 31.5936 30.8185C31.9843 31.2092 32.2038 31.7391 32.2038 32.2916V41.6666Z" fill="#7CB342"/>
<path d="M15.5371 18.7507V34.3747C15.5371 34.9272 15.7566 35.4571 16.1473 35.8478C16.538 36.2385 17.0679 36.458 17.6204 36.458H34.2871C34.8396 36.458 35.3696 36.2385 35.7603 35.8478C36.151 35.4571 36.3704 34.9272 36.3704 34.3747V18.7507H15.5371ZM25.9538 8.33301C19.7038 8.33301 15.8965 12.1299 15.5371 16.6663H36.3704C36.01 12.1299 32.2038 8.33301 25.9538 8.33301ZM21.7871 14.1643C21.5108 14.1643 21.2459 14.0545 21.0505 13.8592C20.8552 13.6638 20.7454 13.3989 20.7454 13.1226C20.7454 12.8463 20.8552 12.5814 21.0505 12.386C21.2459 12.1907 21.5108 12.0809 21.7871 12.0809C22.0634 12.0809 22.3283 12.1907 22.5237 12.386C22.719 12.5814 22.8288 12.8463 22.8288 13.1226C22.8288 13.3989 22.719 13.6638 22.5237 13.8592C22.3283 14.0545 22.0634 14.1643 21.7871 14.1643ZM30.1204 14.1643C29.8442 14.1643 29.5792 14.0545 29.3839 13.8592C29.1885 13.6638 29.0788 13.3989 29.0788 13.1226C29.0788 12.8463 29.1885 12.5814 29.3839 12.386C29.5792 12.1907 29.8442 12.0809 30.1204 12.0809C30.3967 12.0809 30.6617 12.1907 30.857 12.386C31.0524 12.5814 31.1621 12.8463 31.1621 13.1226C31.1621 13.3989 31.0524 13.6638 30.857 13.8592C30.6617 14.0545 30.3967 14.1643 30.1204 14.1643Z" fill="#7CB342"/>
<path d="M32.2031 7.29199L30.4677 9.89512M19.7031 7.29199L21.0917 9.46074" stroke="#7CB342" stroke-width="2" stroke-linecap="round"/>
</svg>
