<svg width="54" height="54" viewBox="0 0 54 54" fill="none" xmlns="http://www.w3.org/2000/svg">
<path d="M50.0265 9.94551L27.2742 2.21703C27.0474 2.14143 26.8001 2.14251 26.5722 2.22027L3.96453 10.0881C3.48501 10.2544 3.18585 10.7339 3.24849 11.2383L6.82113 40.5311C6.86325 40.8778 7.06953 41.1834 7.37733 41.3498L26.4361 51.7091C26.5959 51.7966 26.7741 51.8398 26.9513 51.8398C27.1294 51.8398 27.3087 51.7955 27.4697 51.707L46.6267 41.2072C46.9313 41.0398 47.1386 40.7352 47.1797 40.3907L50.7512 11.099C50.8139 10.5924 50.5115 10.1097 50.0265 9.94551ZM36.2479 37.7998L33.2433 31.3274H20.7564L17.7518 37.7998H12.9599L26.9998 7.55979L41.0399 37.7998H36.2479Z" fill="#201F1F"/>
<path d="M31.2338 26.9998L27.0002 17.8198L22.7666 26.9998H31.2338Z" fill="#201F1F"/>
</svg>
