<svg width="56" height="50" viewBox="0 0 56 50" fill="none" xmlns="http://www.w3.org/2000/svg">
<path d="M46.8237 33.3997C46.1108 34.897 45.2667 36.2753 44.289 37.5424C42.956 39.2699 41.8647 40.4656 41.0236 41.1295C39.7198 42.2195 38.3229 42.7778 36.8271 42.8094C35.7532 42.8094 34.4582 42.5317 32.9507 41.9681C31.4382 41.4074 30.0482 41.1295 28.7774 41.1295C27.4444 41.1295 26.015 41.4074 24.4858 41.9681C22.9545 42.5317 21.7208 42.8253 20.7776 42.8544C19.3431 42.9099 17.9133 42.336 16.4862 41.1295C15.5753 40.4074 14.436 39.1694 13.0708 37.4154C11.6066 35.5424 10.4025 33.3706 9.45932 30.8944C8.44921 28.2199 7.94287 25.6301 7.94287 23.1228C7.94287 20.2506 8.62554 17.7735 9.99306 15.6976C11.0679 14.0301 12.4978 12.7149 14.2873 11.7494C16.0767 10.7837 18.0104 10.2917 20.0925 10.2601C21.2319 10.2601 22.7261 10.5806 24.5827 11.2101C26.4343 11.8419 27.6231 12.1622 28.1444 12.1622C28.534 12.1622 29.8546 11.7876 32.0935 11.0408C34.2108 10.3483 35.9977 10.0615 37.4615 10.1745C41.428 10.4656 44.4083 11.8869 46.3902 14.4478C42.8424 16.4015 41.0877 19.1381 41.1226 22.649C41.1546 25.3835 42.2459 27.659 44.3908 29.466C45.3628 30.3045 46.4484 30.9526 47.6561 31.4129C47.3941 32.1035 47.1177 32.7647 46.8237 33.3997ZM37.7264 0.858298C37.7264 3.00169 36.8648 5.00294 35.1478 6.85526C33.0758 9.05723 30.5695 10.3297 27.8515 10.129C27.8152 9.85953 27.7969 9.58832 27.7969 9.31687C27.7969 7.25919 28.7822 5.05723 30.5321 3.25669C31.4058 2.34508 32.517 1.58705 33.8645 0.982405C35.209 0.386691 36.4808 0.0574051 37.6769 0.000976562C37.7117 0.287405 37.7264 0.574191 37.7264 0.858298Z" fill="#201F1F"/>
</svg>
