<svg width="56" height="50" viewBox="0 0 56 50" fill="none" xmlns="http://www.w3.org/2000/svg">
<path d="M46.8234 33.3997C46.1106 34.897 45.2665 36.2753 44.2887 37.5424C42.9558 39.2699 41.8644 40.4656 41.0233 41.1295C39.7195 42.2195 38.3226 42.7778 36.8268 42.8094C35.753 42.8094 34.4579 42.5317 32.9504 41.9681C31.4379 41.4074 30.048 41.1295 28.7772 41.1295C27.4442 41.1295 26.0147 41.4074 24.4856 41.9681C22.9542 42.5317 21.7205 42.8253 20.7773 42.8544C19.3429 42.9099 17.913 42.336 16.4859 41.1295C15.5751 40.4074 14.4357 39.1694 13.0706 37.4154C11.6064 35.5424 10.4023 33.3706 9.45907 30.8944C8.44897 28.2199 7.94263 25.6301 7.94263 23.1228C7.94263 20.2506 8.6253 17.7735 9.99282 15.6976C11.0677 14.0301 12.4975 12.7149 14.287 11.7494C16.0765 10.7837 18.0101 10.2917 20.0923 10.2601C21.2317 10.2601 22.7259 10.5806 24.5825 11.2101C26.4341 11.8419 27.6229 12.1622 28.1441 12.1622C28.5337 12.1622 29.8544 11.7876 32.0932 11.0408C34.2105 10.3483 35.9974 10.0615 37.4612 10.1745C41.4278 10.4656 44.4081 11.8869 46.39 14.4478C42.8422 16.4015 41.0875 19.1381 41.1224 22.649C41.1544 25.3835 42.2457 27.659 44.3906 29.466C45.3626 30.3045 46.4481 30.9526 47.6558 31.4129C47.3939 32.1035 47.1175 32.7647 46.8234 33.3997ZM37.7261 0.858298C37.7261 3.00169 36.8645 5.00294 35.1476 6.85526C33.0755 9.05723 30.5692 10.3297 27.8512 10.129C27.8149 9.85953 27.7967 9.58832 27.7966 9.31687C27.7966 7.25919 28.7819 5.05723 30.5319 3.25669C31.4056 2.34508 32.5168 1.58705 33.8642 0.982405C35.2087 0.386691 36.4805 0.0574051 37.6767 0.000976562C37.7114 0.287405 37.7261 0.574191 37.7261 0.858298Z" fill="white"/>
</svg>
