<svg width="35" height="42" viewBox="0 0 35 42" fill="none" xmlns="http://www.w3.org/2000/svg">
<path d="M29.3251 22.3032C29.3435 20.7086 29.7663 19.1449 30.5538 17.7583C31.3413 16.3717 32.4679 15.2076 33.828 14.3751C32.9634 13.1442 31.8254 12.1304 30.5031 11.4133C29.1809 10.6962 27.7104 10.2953 26.2071 10.2421C22.962 9.91316 19.8751 12.1524 18.2309 12.1524C16.5856 12.1524 14.0454 10.2904 11.3541 10.3418C9.58778 10.3909 7.86453 10.898 6.35318 11.8135C4.84182 12.7289 3.59421 14.0213 2.73259 15.564C-0.939057 21.9394 1.7954 31.3842 5.37351 36.5572C7.12444 39.0862 9.21159 41.9346 11.9522 41.8309C14.5932 41.7271 15.59 40.1251 18.7787 40.1251C21.9683 40.1251 22.8654 41.8309 25.6554 41.7794C28.4948 41.727 30.297 39.1982 32.0338 36.6598C33.2768 34.8345 34.2481 32.8383 34.9173 30.7338C33.2641 30.0277 31.8536 28.8532 30.8599 27.3551C29.8662 25.857 29.3326 24.1009 29.3251 22.3032ZM24.0817 6.8197C25.6542 4.97531 26.4333 2.58374 26.2489 0.166992C23.8748 0.397289 21.6787 1.52717 20.1111 3.32493C19.3289 4.19584 18.7301 5.21533 18.3503 6.32263C17.9705 7.42992 17.8176 8.60234 17.9007 9.76999C19.0884 9.78639 20.2639 9.52874 21.3359 9.01706C22.4079 8.50539 23.3475 7.75346 24.0817 6.8197Z" fill="#6563FF"/>
</svg>
