<svg width="38" height="38" viewBox="0 0 38 38" fill="none" xmlns="http://www.w3.org/2000/svg">
<path fill-rule="evenodd" clip-rule="evenodd" d="M18.9993 0.666992C8.87435 0.666992 0.666016 8.87533 0.666016 19.0003C0.666016 29.1253 8.87435 37.3337 18.9993 37.3337C29.1243 37.3337 37.3327 29.1253 37.3327 19.0003C37.3327 8.87533 29.1243 0.666992 18.9993 0.666992ZM15.321 13.512C15.0174 13.1977 14.8494 12.7767 14.8532 12.3397C14.857 11.9027 15.0323 11.4846 15.3413 11.1756C15.6503 10.8666 16.0684 10.6913 16.5053 10.6875C16.9423 10.6837 17.3633 10.8517 17.6777 11.1553L24.3443 17.822C24.6568 18.1345 24.8323 18.5584 24.8323 19.0003C24.8323 19.4423 24.6568 19.8661 24.3443 20.1787L17.6777 26.8453C17.3633 27.1489 16.9423 27.3169 16.5053 27.3131C16.0684 27.3093 15.6503 27.134 15.3413 26.825C15.0323 26.516 14.857 26.098 14.8532 25.661C14.8494 25.224 15.0174 24.803 15.321 24.4887L20.8094 19.0003L15.321 13.512Z" fill="#D2D2D2"/>
</svg>
