<svg width="106" height="34" viewBox="0 0 106 34" fill="none" xmlns="http://www.w3.org/2000/svg">
<path fill-rule="evenodd" clip-rule="evenodd" d="M103.33 16.6928C100.895 17.1376 98.7287 18.0036 96.5356 19.6686C94.602 21.0266 93.934 23.9867 96.2236 24.8881C97.5509 25.4509 98.9659 25.4982 100.355 25.876C101.823 26.2854 102.201 27.4899 100.873 28.3244C99.8405 28.9424 98.3814 29.399 96.8916 29.3872C96.0478 29.4108 95.4369 30.2571 95.0589 31.5403C94.5888 33.2958 95.1996 33.469 96.0917 33.5241C99.0056 33.3746 102.469 31.5678 104.446 29.4816C106.437 27.5765 106.402 24.1166 103.849 23.1955C102.741 22.8137 101.44 22.5499 100.337 22.3177C98.5616 22.0382 98.421 21.5659 100.003 20.9518C100.75 20.692 101.796 20.3732 102.583 20.2039C103.554 20.0071 104.033 19.6529 104.358 18.5035C105.031 16.8109 104.539 16.3819 103.33 16.6928ZM29.251 0.64484C17.4246 3.92371 4.22691 15.4765 0.596787 24.892C-1.31496 31.9418 1.66912 34.3311 8.99528 33.2525C16.7697 32.6031 23.028 30.261 34.2743 31.8827C38.5021 32.7251 37.2407 30.5759 35.3202 27.5175C34.2611 25.9745 30.7101 25.6399 25.7088 26.1437C19.9955 27.049 14.5503 28.3126 9.11832 29.21C4.20493 30.1469 3.41826 27.116 6.74513 22.1602C12.0277 14.7877 21.081 8.3008 27.1152 7.7537C28.7896 7.6828 30.1256 7.0648 31.2242 4.70309C32.8723 1.34155 32.512 -0.0794304 29.251 0.64484ZM37.1002 27.4623C36.6958 21.3848 37.2716 14.2288 41.6223 4.36064C42.1366 3.33722 42.8881 3.17189 43.8814 3.8568C44.5449 4.44723 45.1295 5.09671 45.4678 5.81704C46.1491 7.1121 45.9206 8.3402 45.3888 9.5328C42.998 15.7442 41.3367 22.5381 41.0379 26.742C41.0818 28.9266 41.9432 30.2374 44.312 28.0607C48.7024 23.4474 49.9198 19.4403 57.0482 19.1018C59.0435 19.1294 59.6719 19.2711 59.3248 21.0109C58.9863 22.7034 58.5996 24.9865 58.5644 26.7617C58.3052 29.1195 59.4873 30.2374 61.3771 28.6078C63.1614 26.6161 64.3304 23.0065 65.1479 19.4757C65.3281 18.1492 66.2202 18.1296 66.998 18.8026C68.2023 19.4876 69.3933 20.0308 70.5843 20.1961C71.6214 20.5661 72.0565 21.4084 71.8192 22.9554C71.6917 24.5259 71.7049 26.309 71.9511 27.8717C72.6059 29.5761 74.2979 29.3754 75.7042 27.2104C77.9719 23.9394 79.8968 17.0471 81.6064 6.28939C81.8174 4.8566 82.3755 4.51415 83.2853 5.25416C83.8829 5.72651 84.4411 6.41141 84.9552 7.301C85.7816 8.1945 85.5969 8.9778 85.43 9.8281C84.819 14.5594 84.0412 19.1963 83.1446 23.8253C86.0715 19.9284 88.9766 17.2754 92.2682 15.016C93.4812 14.4452 93.9251 14.9845 93.5955 16.3228C93.3493 17.2951 93.1076 18.1925 92.8615 19.1648C92.5935 20.1882 91.4992 21.0778 90.8048 21.3848C89.7456 22.0225 88.8447 22.6995 88.2909 23.3018C88.9941 25.3643 90.6818 27.5017 93.1341 28.3795C94.3514 28.6786 94.6898 29.3045 94.1492 30.261C93.9295 30.9302 93.6131 31.3041 93.2088 31.9811C92.4001 32.8471 91.1212 32.6464 89.7544 32.0677C87.8603 31.1939 86.3529 29.3281 84.9729 26.4625C84.0852 27.3561 83.6632 27.8402 82.9776 28.9384C82.626 30.0327 82.336 30.757 81.9844 31.8512C81.6064 32.6542 81.1011 32.792 79.9056 32.7566C78.719 32.7448 78.0818 32.3787 78.3191 31.2057C78.4993 29.7808 78.8157 28.2102 79.0004 26.7853C76.7985 30.9774 74.166 33.1974 71.3006 32.7172C68.7736 32.2645 67.5035 29.3754 67.7407 23.5497L67.4463 23.4828C64.6117 33.3903 57.2636 35.1577 55.4309 29.5918C51.748 33.9571 47.5335 33.5045 46.2633 29.8005C42.5805 33.5911 38.0099 34.4806 37.1002 27.4623ZM55.721 22.3964C55.1541 26.4665 52.7545 29.7335 51.2163 29.0093C49.7528 28.3244 49.8671 26.1319 51.77 24.1677C53.0489 22.8491 54.6486 22.3334 55.721 22.3964Z" fill="#474646"/>
</svg>
