<svg width="115" height="41" viewBox="0 0 115 41" fill="none" xmlns="http://www.w3.org/2000/svg">
<path fill-rule="evenodd" clip-rule="evenodd" d="M107.33 19.6928C104.895 20.1376 102.729 21.0036 100.536 22.6686C98.6022 24.0266 97.9342 26.9867 100.224 27.8881C101.551 28.4509 102.966 28.4982 104.355 28.876C105.823 29.2854 106.201 30.4899 104.874 31.3244C103.841 31.9424 102.382 32.399 100.892 32.3872C100.048 32.4108 99.4371 33.2571 99.0592 34.5403C98.589 36.2958 99.1999 36.469 100.092 36.5241C103.006 36.3746 106.469 34.5678 108.447 32.4816C110.437 30.5765 110.402 27.1166 107.849 26.1955C106.741 25.8137 105.44 25.5499 104.337 25.3177C102.562 25.0382 102.421 24.5659 104.003 23.9518C104.75 23.692 105.797 23.3732 106.583 23.2039C107.554 23.0071 108.033 22.6529 108.359 21.5035C109.031 19.8109 108.539 19.3819 107.33 19.6928ZM33.2513 3.64484C21.4248 6.92371 8.22716 18.4765 4.59703 27.892C2.68528 34.9418 5.66937 37.3311 12.9955 36.2525C20.77 35.6031 27.0282 33.261 38.2745 34.8827C42.5023 35.7251 41.241 33.5759 39.3205 30.5175C38.2614 28.9745 34.7103 28.6399 29.709 29.1437C23.9958 30.049 18.5506 31.3126 13.1186 32.21C8.20517 33.1469 7.41851 30.116 10.7454 25.1602C16.028 17.7877 25.0812 11.3008 31.1154 10.7537C32.7898 10.6828 34.1258 10.0648 35.2245 7.70309C36.8725 4.34155 36.5122 2.92057 33.2513 3.64484ZM41.1004 30.4623C40.696 24.3848 41.2718 17.2288 45.6226 7.36064C46.1369 6.33722 46.8884 6.17189 47.8816 6.8568C48.5452 7.44723 49.1298 8.09671 49.4681 8.81704C50.1493 10.1121 49.9208 11.3402 49.389 12.5328C46.9982 18.7442 45.337 25.5381 45.0381 29.742C45.0821 31.9266 45.9435 33.2374 48.3123 31.0607C52.7027 26.4474 53.92 22.4403 61.0484 22.1018C63.0438 22.1294 63.6721 22.2711 63.325 24.0109C62.9866 25.7034 62.5998 27.9865 62.5647 29.7617C62.3054 32.1195 63.4876 33.2374 65.3774 31.6078C67.1616 29.6161 68.3306 26.0065 69.1481 22.4757C69.3283 21.1492 70.2204 21.1296 70.9983 21.8026C72.2026 22.4876 73.3935 23.0308 74.5845 23.1961C75.6216 23.5661 76.0567 24.4084 75.8195 25.9554C75.692 27.5259 75.7051 29.309 75.9513 30.8717C76.6062 32.5761 78.2981 32.3754 79.7045 30.2104C81.9722 26.9394 83.897 20.0471 85.6066 9.28939C85.8177 7.8566 86.3758 7.51415 87.2855 8.25416C87.8832 8.72651 88.4413 9.41141 88.9555 10.301C89.7818 11.1945 89.5971 11.9778 89.4302 12.8281C88.8193 17.5594 88.0414 22.1963 87.1448 26.8253C90.0718 22.9284 92.9768 20.2754 96.2685 18.016C97.4814 17.4452 97.9254 17.9845 97.5958 19.3228C97.3496 20.2951 97.1079 21.1925 96.8618 22.1648C96.5937 23.1882 95.4994 24.0778 94.8051 24.3848C93.7458 25.0225 92.8449 25.6995 92.2912 26.3018C92.9943 28.3643 94.682 30.5017 97.1343 31.3795C98.3516 31.6786 98.6901 32.3045 98.1495 33.261C97.9297 33.9302 97.6133 34.3041 97.209 34.9811C96.4003 35.8471 95.1215 35.6464 93.7547 35.0677C91.8605 34.1939 90.3531 32.3281 88.9731 29.4625C88.0854 30.3561 87.6635 30.8402 86.9778 31.9384C86.6262 33.0327 86.3363 33.757 85.9847 34.8512C85.6066 35.6542 85.1013 35.792 83.9059 35.7566C82.7192 35.7448 82.0821 35.3787 82.3193 34.2057C82.4995 32.7808 82.8159 31.2102 83.0006 29.7853C80.7987 33.9774 78.1663 36.1974 75.3008 35.7172C72.7739 35.2645 71.5037 32.3754 71.741 26.5497L71.4466 26.4828C68.612 36.3903 61.2638 38.1577 59.4312 32.5918C55.7483 36.9571 51.5337 36.5045 50.2636 32.8005C46.5808 36.5911 42.0101 37.4806 41.1004 30.4623ZM59.7213 25.3964C59.1543 29.4665 56.7547 32.7335 55.2165 32.0093C53.7531 31.3244 53.8673 29.1319 55.7703 27.1677C57.0491 25.8491 58.6489 25.3334 59.7213 25.3964Z" fill="#E8E8E8"/>
</svg>
