<svg width="41" height="41" viewBox="0 0 41 41" fill="none" xmlns="http://www.w3.org/2000/svg">
<path d="M20.154 38.0033C10.2706 38.0033 2.2373 29.9699 2.2373 20.0866C2.2373 10.2033 10.2706 2.16992 20.154 2.16992C30.0373 2.16992 38.0706 10.2033 38.0706 20.0866C38.0706 29.9699 30.0373 38.0033 20.154 38.0033ZM20.154 4.66992C11.654 4.66992 4.7373 11.5866 4.7373 20.0866C4.7373 28.5866 11.654 35.5033 20.154 35.5033C28.654 35.5033 35.5706 28.5866 35.5706 20.0866C35.5706 11.5866 28.654 4.66992 20.154 4.66992Z" fill="#D3DAE6"/>
<path d="M15.4392 26.0522C15.1225 26.0522 14.8059 25.9355 14.5559 25.6855C14.0725 25.2022 14.0725 24.4022 14.5559 23.9189L23.9892 14.4855C24.4725 14.0022 25.2725 14.0022 25.7559 14.4855C26.2392 14.9689 26.2392 15.7689 25.7559 16.2522L16.3225 25.6855C16.0892 25.9355 15.7559 26.0522 15.4392 26.0522Z" fill="#69707D"/>
<path d="M24.8725 26.0522C24.5559 26.0522 24.2392 25.9355 23.9892 25.6855L14.5559 16.2522C14.0725 15.7689 14.0725 14.9689 14.5559 14.4855C15.0392 14.0022 15.8392 14.0022 16.3225 14.4855L25.7559 23.9189C26.2392 24.4022 26.2392 25.2022 25.7559 25.6855C25.5059 25.9355 25.1892 26.0522 24.8725 26.0522Z" fill="#69707D"/>
</svg>
