<svg width="198" height="199" viewBox="0 0 198 199" fill="none" xmlns="http://www.w3.org/2000/svg">
<path d="M126.844 195.406V152.094L148.5 161.375L176.344 133.531L167.062 124.25L145.406 142.812L129.467 134.84C127.749 133.98 125.854 133.532 123.933 133.531H74.086C72.1658 133.531 70.2718 133.978 68.5544 134.837L52.5938 142.812L30.9375 124.25L21.6562 133.531L49.5 161.375L71.1562 152.094V195.406H126.844Z" fill="#F5BCB7"/>
<path d="M99 133.531C108.397 133.531 116.016 125.913 116.016 116.516C116.016 107.118 108.397 99.5 99 99.5C89.6025 99.5 81.9844 107.118 81.9844 116.516C81.9844 125.913 89.6025 133.531 99 133.531Z" fill="#DB4437"/>
<path d="M99 133.531L89.7188 164.469L99 179.938L108.281 164.469L99 133.531Z" fill="#0077CC"/>
<path d="M102.094 62.3755H95.9062V43.813C95.9062 42.9925 96.2322 42.2056 96.8124 41.6254C97.3926 41.0452 98.1795 40.7192 99 40.7192C102.059 40.7192 105.05 39.812 107.594 38.1123C110.138 36.4125 112.12 33.9967 113.291 31.1701C114.462 28.3436 114.768 25.2333 114.172 22.2327C113.575 19.232 112.101 16.4758 109.938 14.3124C107.775 12.1491 105.018 10.6758 102.018 10.079C99.0172 9.48209 95.9069 9.78842 93.0804 10.9592C90.2538 12.13 87.8379 14.1127 86.1382 16.6565C84.4385 19.2003 83.5312 22.191 83.5312 25.2505H77.3438C77.3442 21.0995 78.5377 17.0361 80.782 13.5441C83.0263 10.0522 86.2269 7.27877 90.0027 5.55419C93.7784 3.82961 97.9703 3.22651 102.079 3.81671C106.188 4.4069 110.041 6.16552 113.178 8.88316C116.316 11.6008 118.607 15.1629 119.777 19.1454C120.948 23.1279 120.949 27.363 119.781 31.3463C118.613 35.3296 116.325 38.8933 113.189 41.613C110.054 44.3328 106.202 46.0941 102.094 46.6871V62.3755ZM95.9062 69.8005H102.094V77.2255H95.9062V69.8005Z" fill="#FCA19A"/>
<path d="M155.925 78.4633L151.563 74.0981L161.747 63.9227C162.327 63.3425 163.114 63.0164 163.935 63.0162C164.755 63.0164 165.542 63.3425 166.122 63.9227C168.276 65.9797 171.139 67.1276 174.118 67.1276C177.096 67.1276 179.96 65.9797 182.113 63.9227C183.165 62.8731 183.999 61.6264 184.568 60.2542C185.137 58.8819 185.43 57.4109 185.43 55.9254C185.43 54.4398 185.137 52.9688 184.568 51.5966C183.999 50.2243 183.165 48.9777 182.113 47.928C179.959 45.8717 177.096 44.7244 174.118 44.7244C171.14 44.7244 168.276 45.8717 166.122 47.928L161.747 43.5535C164.101 41.2024 167.076 39.5713 170.324 38.8514C173.572 38.1316 176.958 38.3528 180.084 39.4891C183.211 40.6255 185.949 42.6299 187.976 45.2671C190.004 47.9044 191.238 51.0652 191.532 54.3788C191.827 57.6924 191.171 61.0214 189.641 63.9753C188.111 66.9291 185.77 69.3853 182.893 71.0558C180.016 72.7263 176.722 73.5418 173.399 73.4067C170.075 73.2715 166.858 72.1913 164.126 70.2927L155.925 78.4633ZM143.42 82.2439L147.494 78.1694L151.869 82.544L147.794 86.6185L143.42 82.2439ZM42.0748 78.4633L31.8655 68.288C31.2855 67.7078 30.9597 66.9211 30.9597 66.1007C30.9597 65.2804 31.2855 64.4936 31.8655 63.9134C32.916 62.8634 33.7493 61.6166 34.3178 60.2444C34.8864 58.8722 35.179 57.4014 35.179 55.9161C35.179 54.4308 34.8864 52.96 34.3178 51.5878C33.7493 50.2156 32.916 48.9688 31.8655 47.9187C29.7113 45.8624 26.8477 44.7151 23.8697 44.7151C20.8916 44.7151 18.028 45.8624 15.8739 47.9187C14.8226 48.9684 13.9887 50.215 13.4196 51.5873C12.8506 52.9595 12.5577 54.4305 12.5577 55.9161C12.5577 57.4016 12.8506 58.8726 13.4196 60.2449C13.9887 61.6172 14.8226 62.8638 15.8739 63.9134L11.5117 68.288C9.47761 66.2536 7.97661 63.749 7.1416 60.996C6.30659 58.2431 6.16334 55.3267 6.72455 52.5051C7.28575 49.6836 8.53408 47.0439 10.359 44.82C12.1839 42.5961 14.5291 40.8565 17.1868 39.7553C19.8445 38.6541 22.7328 38.2253 25.5958 38.5068C28.4588 38.7884 31.2082 39.7716 33.6005 41.3694C35.9928 42.9672 37.9542 45.1303 39.3109 47.6671C40.6677 50.2039 41.3779 53.0362 41.3787 55.913C41.3884 59.4868 40.2951 62.9765 38.2479 65.9058L46.437 74.095L42.0748 78.4633ZM46.1276 82.544L50.5053 78.1694L54.5798 82.2439L50.2021 86.6185L46.1276 82.544Z" fill="#DB4437"/>
</svg>
