<?xml version="1.0" encoding="utf-8" ?>	<!-- Generator: Assembly 2.4 - http://assemblyapp.co -->	<svg version="1.1" xmlns="http://www.w3.org/2000/svg" xmlns:xlink="http://www.w3.org/1999/xlink" width="auto" height="auto" viewBox="0 0 4096.0 2304.0">		<g id="document" transform="scale(13.653333333333334 13.653333333333334) translate(150.0 84.37499937135726)">			<g>				<path d="M-47.1274,-20.2696 L-67.3971,-20.2696 C-78.5987,-20.2696 -87.6667,-11.2016 -87.6667,7.70797e-07 C-87.6667,11.2016 -78.5987,20.2696 -67.3971,20.2696 L-47.1274,20.2696 L-47.1274,-20.2696 L-47.1274,-20.2696 Z " fill="none" />				<g>					<path d="M-70.7747,6.88341 C-70.9582,7.48135 -71.0526,8.11076 -71.0422,8.7559 C-71.0422,12.2439 -68.2098,15.0762 -64.7218,15.0762 C-61.2339,15.0762 -58.4015,12.2439 -58.4015,8.7559 C-58.4015,5.29415 -61.1972,2.47231 -64.6642,2.43559 C-67.3339,2.37789 -69.4739,0.1907 -69.4739,-2.49477 C-69.4739,-5.21697 -67.2605,-7.43039 -64.5383,-7.43039 C-62.6186,-7.43039 -60.9559,-6.33416 -60.1429,-4.73442 L-56.7651,-4.74491 C-57.7354,-8.12274 -60.8457,-10.5879 -64.5383,-10.5879 C-69.0123,-10.5879 -72.6471,-6.95309 -72.6471,-2.48428 C-72.6471,1.91633 -69.1225,5.51445 -64.7323,5.60886 C-62.9962,5.60886 -61.5748,7.01978 -61.5748,8.76639 C-61.5748,10.5182 -62.9857,11.9292 -64.7323,11.9292 C-66.4842,11.9292 -67.8951,10.5182 -67.8951,8.76639 C-67.8951,8.59855 -67.8846,8.43071 -67.8584,8.26811 L-67.8951,8.25762 C-68.9284,7.94291 -69.8882,7.47086 -70.7747,6.88341 Z " fill="#f4b400" fill-opacity="1.00" />					<path d="M-67.8584,8.26811 C-67.8846,8.43071 -67.8951,8.59855 -67.8951,8.76639 C-67.8951,10.5182 -66.4842,11.9292 -64.7323,11.9292 C-62.9857,11.9292 -61.5748,10.5182 -61.5748,8.76639 C-61.5748,7.01978 -62.9962,5.60886 -64.7323,5.60886 C-69.1225,5.51444 -72.6471,1.91633 -72.6471,-2.48429 C-72.6471,-6.95309 -69.0123,-10.5879 -64.5383,-10.5879 C-60.8457,-10.5879 -57.7354,-8.12274 -56.7651,-4.74491 L-53.5079,-4.7554 C-54.5517,-9.88508 -59.0939,-13.7507 -64.5383,-13.7507 C-70.7642,-13.7507 -75.8047,-8.70494 -75.8047,-2.48429 C-75.8047,1.42854 -73.8116,4.87979 -70.7747,6.89915 C-69.8882,7.48135 -68.9284,7.9534 -67.8951,8.26811 L-67.8584,8.26811 Z " fill="#db4437" fill-opacity="1.00" />				</g>				<g>					<path d="M-46.549,20.2696 L52.667,20.2696 L52.667,-20.2696 L-46.549,-20.2696 L-46.549,20.2696 Z " fill="none" />					<path d="M47.1274,20.2696 L67.3971,20.2696 C78.5987,20.2696 87.6667,11.2016 87.6667,-1.13337e-06 C87.6667,-11.2016 78.5987,-20.2696 67.3971,-20.2696 L47.1274,-20.2696 L47.1274,20.2696 L47.1274,20.2696 Z " fill="none" />				</g>				<g>					<path d="M-40.5953,-5.65417 C-40.5953,-0.826591 -36.6265,3.10046 -31.7153,3.10046 C-28.155,3.10046 -24.149,1.01625 -23.4527,-3.85312 L-27.4216,-3.85312 C-27.9925,-1.39755 -29.7518,-0.45988 -31.7989,-0.45988 C-34.5005,-0.45988 -36.71,-2.33985 -36.71,-5.65417 C-36.71,-8.88958 -34.5005,-10.8531 -31.7989,-10.8531 C-29.71,-10.8531 -27.9507,-9.9108 -27.3798,-7.45524 L-23.411,-7.45524 C-24.149,-12.3246 -28.155,-14.4135 -31.6782,-14.4135 C-36.6265,-14.4135 -40.5953,-10.5235 -40.5953,-5.65417 Z " fill="#db4437" fill-opacity="1.00" />					<path d="M-21.3221,-3.73243 C-21.3221,0.482425 -18.1331,3.10046 -13.96,3.10046 C-9.54095,3.10046 -6.63511,0.236403 -6.63511,-3.73243 L-6.63511,-13.9632 L-10.5204,-13.9632 L-10.5204,-3.97845 C-10.5204,-1.93137 -11.7505,-0.376326 -13.96,-0.376326 C-16.2067,-0.376326 -17.4368,-1.97314 -17.4368,-3.97845 L-17.4368,-13.9632 L-21.3221,-13.9632 L-21.3221,-3.73243 Z " fill="#db4437" fill-opacity="1.00" />					<path d="M8.26077,-14.0003 L8.26077,-10.5653 L0.364882,-10.5653 L0.364882,-7.41346 L7.11422,-7.41346 L7.11422,-4.18269 L0.364882,-4.18269 L0.364882,-0.784814 L8.34432,-0.784814 L8.34432,2.69197 L-3.52503,2.69197 L-3.52503,-14.0003 L8.26077,-14.0003 Z " fill="#db4437" fill-opacity="1.00" />					<path d="M9.85758,-2.46518 C9.85758,0.236405 11.7376,3.10046 16.8529,3.06333 C20.9889,3.06333 23.8112,1.26227 23.8112,-2.09383 C23.8112,-5.32924 21.2303,-6.71717 17.8788,-7.41346 C15.2561,-7.9055 14.1513,-8.43932 14.1513,-9.50231 C14.1513,-10.2775 14.5645,-11.0574 16.6487,-11.0574 C18.6958,-11.0574 19.3503,-10.115 19.3503,-9.17274 L23.2356,-9.17274 C23.2356,-12.3664 21.0678,-14.4135 16.6905,-14.4135 C12.3921,-14.4135 10.2661,-12.4081 10.2661,-9.50231 C10.2661,-5.94197 13.7011,-4.87897 16.528,-4.18269 C18.6958,-3.69065 19.8841,-3.19861 19.8841,-2.05205 C19.8841,-0.784814 19.0207,-0.130303 16.8529,-0.130303 C14.8476,-0.130303 13.7429,-1.07261 13.7429,-2.46518 L9.85758,-2.46518 Z " fill="#db4437" fill-opacity="1.00" />					<path d="M25.1619,-5.65417 C25.1619,-0.826591 29.2097,3.10046 34.2462,3.10046 C39.2362,3.10046 43.3304,-0.826591 43.3304,-5.65417 C43.3304,-10.5235 39.2362,-14.4135 34.2462,-14.4135 C29.2097,-14.4135 25.1619,-10.5235 25.1619,-5.65417 Z M39.4405,-5.65417 C39.4405,-2.66943 37.1102,-0.45988 34.2462,-0.45988 C31.3821,-0.45988 29.0472,-2.66943 29.0472,-5.65417 C29.0472,-8.6807 31.3403,-10.8531 34.2462,-10.8531 C37.152,-10.8531 39.4405,-8.6807 39.4405,-5.65417 Z " fill="#db4437" fill-opacity="1.00" />					<path d="M57.4464,-14.0003 L57.4464,-10.5235 L49.5505,-10.5235 L49.5505,-6.67539 L56.2999,-6.67539 L56.2999,-3.44463 L49.5505,-3.44463 L49.5505,2.69197 L45.6606,2.69197 L45.6606,-14.0003 L57.4464,-14.0003 Z " fill="#db4437" fill-opacity="1.00" />					<path d="M63.2581,-10.5235 L63.2952,2.69197 L67.1433,2.69197 L67.1433,-10.5235 L71.8085,-10.5235 L71.8085,-14.0003 L58.593,-14.0003 L58.593,-10.5235 L63.2581,-10.5235 Z " fill="#db4437" fill-opacity="1.00" />				</g>				<g>					<path d="M-39.8476,14.239 L-39.8924,14.239 L-39.8924,11.9061 L-39.0998,11.9061 L-37.7838,14.239 L-36.9065,14.239 L-38.3521,11.8213 C-37.9583,11.7765 -37.6492,11.602 -37.4299,11.3827 C-37.2106,11.1583 -37.081,10.8543 -37.081,10.4555 C-37.081,10.1514 -37.1258,9.93206 -37.2106,9.7526 C-37.3003,9.57813 -37.4299,9.44852 -37.6094,9.31393 C-37.7838,9.18433 -38.0032,9.0946 -38.2225,9.04974 C-38.4418,9.00986 -38.6612,8.96499 -38.9254,8.96499 L-40.5953,8.96499 L-40.5953,14.239 L-39.8476,14.239 Z M-39.8476,11.2929 L-39.8476,9.62299 L-38.9702,9.62299 C-38.8356,9.62299 -38.6612,9.62299 -38.5316,9.66786 C-38.3521,9.66786 -38.2225,9.7526 -38.1328,9.79746 C-38.0032,9.88719 -37.9134,9.97194 -37.8736,10.0617 C-37.8287,10.1514 -37.7838,10.281 -37.7838,10.4555 C-37.7838,10.6349 -37.8287,10.7645 -37.8736,10.8543 C-37.9134,10.939 -38.0032,11.0287 -38.1328,11.1185 C-38.2674,11.1583 -38.397,11.2032 -38.5316,11.2481 C-38.6612,11.2929 -38.8356,11.2929 -39.0151,11.2929 L-39.8476,11.2929 Z " fill="#000000" fill-opacity="1.00" />					<path d="M-31.0144,13.576 L-31.0144,14.239 L-34.4888,14.239 L-34.4888,8.96499 L-31.1041,8.96499 L-31.1041,9.62299 L-33.7411,9.62299 L-33.7411,11.2032 L-31.2786,11.2032 L-31.2786,11.8213 L-33.7411,11.8213 L-33.7411,13.576 L-31.0144,13.576 Z " fill="#000000" fill-opacity="1.00" />					<path d="M-27.0614,12.7435 L-27.0614,12.1703 L-28.7762,12.1703 L-28.7762,12.7435 L-27.0614,12.7435 Z " fill="#000000" fill-opacity="1.00" />					<path d="M-23.8113,14.239 L-23.8113,8.96499 L-24.559,8.96499 L-24.559,14.239 L-23.8113,14.239 Z " fill="#000000" fill-opacity="1.00" />					<path d="M-16.6929,8.96499 L-15.5463,8.96499 L-15.5463,14.239 L-16.2941,14.239 L-16.2941,9.84233 L-18.0537,14.239 L-18.5373,14.239 L-20.2919,9.84233 L-20.2919,14.239 L-20.9948,14.239 L-20.9948,8.96499 L-19.8533,8.96499 L-18.2731,13.0077 L-16.6929,8.96499 Z " fill="#000000" fill-opacity="1.00" />					<path d="M-12.5155,14.239 L-12.032,12.918 L-9.52961,12.918 L-9.00121,14.239 L-8.16874,14.239 L-10.4069,8.96499 L-11.0649,8.96499 L-13.353,14.239 L-12.5155,14.239 Z M-11.7678,12.3049 L-10.7609,9.84233 L-9.79381,12.3049 L-11.7678,12.3049 Z " fill="#000000" fill-opacity="1.00" />					<path d="M-2.10216,10.0617 L-1.57376,9.44852 C-1.79309,9.26907 -2.10216,9.0946 -2.41122,8.96499 C-2.76016,8.8304 -3.11408,8.78554 -3.55275,8.78554 C-3.94656,8.78554 -4.30048,8.87526 -4.64942,9.00986 C-5.00335,9.13946 -5.26755,9.3588 -5.53174,9.57813 C-5.75108,9.84233 -5.97041,10.1065 -6.10002,10.4555 C-6.23461,10.8094 -6.31935,11.2032 -6.31935,11.602 C-6.31935,12.0407 -6.23461,12.3896 -6.10002,12.7435 C-5.97041,13.0925 -5.79096,13.3567 -5.53174,13.6209 C-5.31241,13.8851 -5.00335,14.0595 -4.64942,14.1941 C-4.30048,14.3237 -3.90169,14.4135 -3.50789,14.4135 C-3.15895,14.4135 -2.76016,14.3686 -2.45608,14.2789 C-2.10216,14.1941 -1.79309,14.0595 -1.5289,13.9299 L-1.5289,11.3827 L-3.41816,11.3827 L-3.41816,11.9958 L-2.27663,11.9958 L-2.27663,13.4464 C-2.41122,13.5311 -2.58569,13.576 -2.80502,13.6209 C-3.02436,13.6657 -3.24369,13.7106 -3.50789,13.7106 C-3.81695,13.7106 -4.08115,13.6209 -4.34535,13.5311 C-4.60456,13.4464 -4.82888,13.2719 -5.00335,13.0925 C-5.17782,12.918 -5.31241,12.6987 -5.39715,12.4345 C-5.48688,12.1703 -5.53174,11.9061 -5.53174,11.602 C-5.53174,11.2929 -5.48688,11.0287 -5.39715,10.7645 C-5.31241,10.5452 -5.17782,10.281 -5.00335,10.1065 C-4.82888,9.93206 -4.64942,9.79746 -4.38523,9.66786 C-4.12103,9.53327 -3.86181,9.4884 -3.55275,9.4884 C-3.24369,9.4884 -2.97949,9.57813 -2.7153,9.66786 C-2.45608,9.7526 -2.27663,9.88719 -2.10216,10.0617 Z " fill="#000000" fill-opacity="1.00" />					<path d="M1.98544,14.239 L1.98544,8.96499 L1.23771,8.96499 L1.23771,14.239 L1.98544,14.239 Z " fill="#000000" fill-opacity="1.00" />					<path d="M8.53057,13.1822 L5.80883,8.96499 L4.84176,8.96499 L4.84176,14.239 L5.58949,14.239 L5.58949,9.93206 L8.35609,14.239 L9.2783,14.239 L9.2783,8.96499 L8.53057,8.96499 L8.53057,13.1822 Z " fill="#000000" fill-opacity="1.00" />					<path d="M15.5642,13.576 L15.5642,14.239 L12.0898,14.239 L12.0898,8.96499 L15.4745,8.96499 L15.4745,9.62299 L12.8375,9.62299 L12.8375,11.2032 L15.3,11.2032 L15.3,11.8213 L12.8375,11.8213 L12.8375,13.576 L15.5642,13.576 Z " fill="#000000" fill-opacity="1.00" />					<path d="M24.1332,9.93206 L24.7015,9.53327 C24.527,9.3588 24.3077,9.18433 24.0435,9.0946 C23.7344,8.96499 23.4702,8.92013 23.1661,8.92013 C22.9468,8.92013 22.7275,8.96499 22.5081,9.00986 C22.2838,9.04974 22.1093,9.13946 21.9349,9.26907 C21.8003,9.40366 21.6258,9.57813 21.5411,9.7526 C21.4065,9.93206 21.3616,10.1514 21.3616,10.4156 C21.3616,10.6798 21.4065,10.8543 21.4962,11.0287 C21.5809,11.1583 21.6707,11.2929 21.8003,11.4225 C21.9349,11.5123 22.0645,11.602 22.2439,11.6867 C22.3735,11.7316 22.548,11.8213 22.7275,11.8662 C22.9019,11.9509 23.0764,11.9958 23.211,12.0407 C23.3406,12.0855 23.4702,12.1254 23.6048,12.2151 C23.6895,12.3049 23.7793,12.3896 23.869,12.4793 C23.9139,12.5691 23.9537,12.6987 23.9537,12.8731 C23.9537,13.0077 23.9139,13.1373 23.869,13.2719 C23.7793,13.3567 23.7344,13.4464 23.6048,13.5311 C23.4702,13.6209 23.3855,13.6657 23.2509,13.7106 C23.1661,13.7554 23.0315,13.7554 22.9019,13.7554 C22.6826,13.7554 22.4633,13.7106 22.2439,13.576 C22.0645,13.4913 21.89,13.3118 21.7604,13.1373 L21.1871,13.6209 C21.3616,13.8851 21.6258,14.0595 21.9349,14.1941 C22.2439,14.3237 22.548,14.3686 22.9019,14.3686 C23.1213,14.3686 23.3406,14.3237 23.5599,14.2789 C23.7793,14.1941 23.9537,14.1044 24.1332,13.9748 C24.3077,13.8402 24.4373,13.7106 24.527,13.4913 C24.6167,13.3118 24.6566,13.0526 24.6566,12.7884 C24.6566,12.5242 24.6167,12.3049 24.527,12.1254 C24.4373,11.9509 24.3077,11.8213 24.1731,11.6867 C24.0435,11.602 23.869,11.5123 23.6895,11.4225 C23.5151,11.3827 23.3406,11.2929 23.1661,11.2481 C22.9867,11.2032 22.8571,11.1583 22.7275,11.1185 C22.5929,11.0736 22.4633,11.0287 22.3735,10.939 C22.2838,10.8543 22.1991,10.7645 22.1542,10.6798 C22.1093,10.5901 22.0645,10.4555 22.0645,10.3259 C22.0645,10.1514 22.1093,10.0168 22.1542,9.93206 C22.1991,9.84233 22.2838,9.7526 22.3735,9.66786 C22.5081,9.57813 22.5929,9.53327 22.7275,9.4884 C22.8571,9.44852 22.9468,9.44852 23.0764,9.44852 C23.2957,9.44852 23.5151,9.4884 23.6895,9.57813 C23.869,9.66786 24.0435,9.79746 24.1332,9.93206 Z " fill="#000000" fill-opacity="1.00" />					<path d="M32.5676,11.602 C32.5676,11.2032 32.4829,10.8094 32.3483,10.4555 C32.2187,10.1065 32.0392,9.79746 31.775,9.57813 C31.5158,9.31393 31.2516,9.13946 30.8977,9.00986 C30.5886,8.87526 30.1948,8.78554 29.801,8.78554 C29.4022,8.78554 29.0533,8.87526 28.6993,9.00986 C28.3504,9.13946 28.0862,9.3588 27.822,9.57813 C27.6027,9.84233 27.3833,10.1065 27.2537,10.4555 C27.1191,10.8094 27.0294,11.2032 27.0294,11.602 C27.0294,12.0407 27.1191,12.3896 27.2537,12.7435 C27.3833,13.0925 27.5578,13.3567 27.822,13.6209 C28.0862,13.8851 28.3504,14.0595 28.6993,14.1941 C29.0084,14.3237 29.4022,14.4135 29.801,14.4135 C30.1948,14.4135 30.5487,14.3237 30.8977,14.1941 C31.2516,14.0595 31.5158,13.8851 31.775,13.6209 C31.9993,13.3567 32.2187,13.0925 32.3483,12.7435 C32.4829,12.3896 32.5676,11.9958 32.5676,11.602 Z M31.775,11.602 C31.775,11.9061 31.7351,12.1703 31.6454,12.4345 C31.5557,12.6987 31.4261,12.918 31.2516,13.0925 C31.0721,13.2719 30.8977,13.4464 30.6335,13.5311 C30.3693,13.6657 30.1101,13.7106 29.801,13.7106 C29.4919,13.7106 29.1829,13.6209 28.9635,13.5311 C28.7442,13.4464 28.5249,13.2719 28.3504,13.0925 C28.1759,12.918 28.0413,12.6987 27.9566,12.4345 C27.8669,12.1703 27.822,11.9061 27.822,11.602 C27.822,11.2929 27.8669,11.0287 27.9566,10.7645 C28.0413,10.5452 28.1759,10.281 28.3504,10.1065 C28.5249,9.93206 28.6993,9.79746 28.9635,9.66786 C29.2277,9.53327 29.4919,9.4884 29.801,9.4884 C30.1101,9.4884 30.3693,9.53327 30.6335,9.66786 C30.8528,9.7526 31.0721,9.93206 31.2516,10.1065 C31.4261,10.281 31.5557,10.5003 31.6454,10.7645 C31.7351,11.0287 31.775,11.2929 31.775,11.602 Z " fill="#000000" fill-opacity="1.00" />					<path d="M35.8626,14.239 L35.8626,11.8662 L38.2354,11.8662 L38.2354,11.2481 L35.8626,11.2481 L35.8626,9.62299 L38.4148,9.62299 L38.4148,8.96499 L35.1149,8.96499 L35.1149,14.239 L35.8626,14.239 Z " fill="#000000" fill-opacity="1.00" />					<path d="M42.7168,14.239 L42.7168,9.62299 L44.3867,9.62299 L44.3867,8.96499 L40.3041,8.96499 L40.3041,9.62299 L41.974,9.62299 L41.974,14.239 L42.7168,14.239 Z " fill="#000000" fill-opacity="1.00" />					<path d="M49.2669,8.96499 L50.0595,8.96499 L51.2858,13.1822 L52.4323,8.96499 L53.2199,8.96499 L51.6846,14.239 L50.9368,14.239 L49.6607,9.97194 L48.3896,14.239 L47.6418,14.239 L46.1015,8.96499 L46.8941,8.96499 L48.0356,13.1822 L49.2669,8.96499 Z " fill="#000000" fill-opacity="1.00" />					<path d="M55.6376,14.239 L56.1211,12.918 L58.6285,12.918 L59.1519,14.239 L59.9894,14.239 L57.7462,8.96499 L57.0882,8.96499 L54.8051,14.239 L55.6376,14.239 Z M56.4302,12.3049 L57.4421,9.84233 L58.4042,12.3049 L56.4302,12.3049 Z " fill="#000000" fill-opacity="1.00" />					<path d="M62.9753,14.239 L62.9304,14.239 L62.9304,11.9061 L63.723,11.9061 L65.044,14.239 L65.9213,14.239 L64.4707,11.8213 C64.8646,11.7765 65.1736,11.602 65.3929,11.3827 C65.6123,11.1583 65.7469,10.8543 65.7469,10.4555 C65.7469,10.1514 65.702,9.93206 65.6123,9.7526 C65.5275,9.57813 65.3929,9.44852 65.2185,9.31393 C65.044,9.18433 64.8197,9.0946 64.6004,9.04974 C64.381,9.00986 64.1617,8.96499 63.8975,8.96499 L62.2276,8.96499 L62.2276,14.239 L62.9753,14.239 Z M62.9753,11.2929 L62.9753,9.62299 L63.8576,9.62299 C63.9872,9.62299 64.1617,9.62299 64.2963,9.66786 C64.4707,9.66786 64.6004,9.7526 64.6901,9.79746 C64.8197,9.88719 64.9094,9.97194 64.9543,10.0617 C64.9991,10.1514 65.044,10.281 65.044,10.4555 C65.044,10.6349 64.9991,10.7645 64.9543,10.8543 C64.9094,10.939 64.8197,11.0287 64.6901,11.1185 C64.5605,11.1583 64.4259,11.2032 64.2963,11.2481 C64.1617,11.2929 63.9872,11.2929 63.8127,11.2929 L62.9753,11.2929 Z " fill="#000000" fill-opacity="1.00" />					<path d="M71.8085,13.576 L71.8085,14.239 L68.339,14.239 L68.339,8.96499 L71.7187,8.96499 L71.7187,9.62299 L69.0867,9.62299 L69.0867,11.2032 L71.5443,11.2032 L71.5443,11.8213 L69.0867,11.8213 L69.0867,13.576 L71.8085,13.576 Z " fill="#000000" fill-opacity="1.00" />				</g>				<path d="M-47.1133,14.4135 L-46.2906,14.4135 L-46.2906,-14.4135 L-47.1133,-14.4135 L-47.1133,14.4135 Z " fill="#000000" fill-opacity="1.00" />			</g>		</g>	</svg>