<svg width="119" height="24" viewBox="0 0 119 24" fill="none" xmlns="http://www.w3.org/2000/svg">
<path d="M0 23.2646V21.0806H1.37329C2.05995 21.0806 3.43735 20.9572 3.43735 19.5024V6.40194C3.43735 5.61468 3.36745 3.73178 1.64877 3.73178H0.0698983L1.85847 0.941895H107.623V3.73178H10.3121C9.41982 3.73178 8.25211 3.91318 8.25211 5.49133V9.6163C8.45769 10.1024 9.28414 10.2838 9.6953 10.2838C10.1065 10.2838 11.5497 10.2222 11.5497 8.22317H13.6137V14.9566H11.5497C11.5497 14.3508 10.789 13.3313 9.76109 13.2587C8.93876 13.1971 8.248 13.4401 8.248 14.4124V19.5097C8.248 20.0575 9.00455 21.0878 10.7931 21.0878H12.0308V23.2719L0 23.2646Z" fill="#E8E8E8"/>
<path d="M61.0337 6.888C61.0337 7.37414 61.7203 7.86029 62.1357 7.98001C62.6167 7.67526 65.1618 6.40186 67.156 6.40186C69.1501 6.40186 70.1821 7.31247 70.1821 8.7056V15.3774H65.3716V10.2221C65.3716 9.55453 65.166 9.06838 64.4793 9.00671C63.7926 8.94503 62.0041 10.2221 61.523 10.8279V20.0502C61.523 20.8991 62.4851 21.505 63.3116 21.505V23.2645H54.9238V21.4433C55.7503 21.4433 56.6424 21.2002 56.7123 20.1082V9.85927C56.7123 9.55452 56.1614 8.7056 54.9238 8.7056V6.88437L61.0337 6.888Z" fill="#E8E8E8"/>
<path d="M118.589 6.8877H110.201V8.70891C111.439 8.70891 111.989 9.55786 111.989 9.86261V20.1152C111.92 21.2072 111.027 21.4502 110.201 21.4502V23.2715H118.589V21.5119C117.762 21.5119 116.8 20.9061 116.8 20.0571V9.97869C116.8 9.24948 117.692 8.70529 118.589 8.70529V6.8877Z" fill="#E8E8E8"/>
<path d="M42.4736 6.888C42.4736 7.37414 43.1601 7.86029 43.5754 7.98001C44.0565 7.67526 46.6016 6.40186 48.5958 6.40186C50.5899 6.40186 51.6219 7.31247 51.6219 8.7056V15.3774H46.8113V10.2221C46.8113 9.55453 46.6057 9.06838 45.9191 9.00671C45.2324 8.94503 43.4438 10.2221 42.9628 10.8279V20.0502C42.9628 20.8991 43.9249 21.505 44.7513 21.505V23.2645H36.3635V21.4433C37.1901 21.4433 38.0822 21.2002 38.1522 20.1082V9.85927C38.1522 9.55452 37.6012 8.7056 36.3635 8.7056V6.88437L42.4736 6.888Z" fill="#E8E8E8"/>
<path d="M98.24 6.888C98.24 7.37414 98.9267 7.86029 99.3419 7.98001C99.823 7.67526 102.364 6.40186 104.358 6.40186C106.352 6.40186 107.384 7.31247 107.384 8.7056V15.3774H102.574V10.2221C102.574 9.55453 102.368 9.06838 101.681 9.00671C100.995 8.94503 99.2063 10.2221 98.7252 10.8279V20.0502C98.7252 20.8991 99.6872 21.505 100.514 21.505V23.2645H92.126V21.4433C92.9524 21.4433 93.8446 21.2002 93.9145 20.1082V9.85927C93.9145 9.55452 93.3636 8.7056 92.126 8.7056V6.88437L98.24 6.888Z" fill="#E8E8E8"/>
<path d="M32.7248 18.1709H27.9142V19.8071C27.9142 20.4746 27.7785 21.8714 25.5089 21.8714C23.2392 21.8714 22.5526 20.5363 22.5526 19.5676V16.1102C22.5526 15.8055 22.828 15.381 23.3091 15.381H32.7289V10.9513C32.7289 8.94867 32.2479 8.3428 31.2857 7.49386C30.3236 6.64493 26.9562 6.40186 25.4431 6.40186C21.5946 6.40186 20.357 6.888 19.2551 7.67526C18.1572 8.46252 17.7419 10.1024 17.7419 11.3141V18.1673C17.7419 19.9885 18.1531 21.2619 19.4606 22.412C20.7682 23.562 24.7523 23.5656 25.5787 23.5656C26.4053 23.5656 29.1518 23.6273 31.146 22.3539C33.136 21.0805 32.7248 18.1709 32.7248 18.1709ZM22.5484 10.6465C22.5484 9.67426 22.8938 8.21945 25.2991 8.21945C27.7045 8.21945 27.9101 9.79761 27.9101 10.6465V12.8306C27.9101 13.1934 27.5647 13.5598 27.0837 13.5598H23.3708C22.9596 13.5598 22.5443 13.255 22.5443 12.8922L22.5484 10.6465Z" fill="#E8E8E8"/>
<path d="M87.8581 20.0498V10.951C87.8581 9.55421 87.7883 8.09941 86.1395 7.06907C84.4907 6.03874 81.8098 6.09679 80.7778 6.09679C79.7458 6.09679 76.3085 6.09679 74.7296 7.67494C73.1507 9.25309 73.4222 10.7696 73.4222 11.3754H77.9243C77.9243 11.3754 78.2327 9.31477 78.8537 8.76695C79.4786 8.21913 81.1233 7.61327 82.3937 8.58555C82.8625 8.94472 83.0476 9.40547 83.0476 9.92063V12.5291C83.0476 12.7722 82.772 13.135 82.4308 13.135C82.4308 13.135 76.1728 13.2547 75.075 13.9839C73.9731 14.7095 73.011 15.1957 73.011 17.8658C73.011 20.536 73.7675 21.5663 74.6598 22.1141C75.5519 22.6583 75.9672 23.2678 80.0213 23.2678H89.6467V21.5083C88.8203 21.5046 87.8581 20.8988 87.8581 20.0498ZM83.0476 21.0802C83.0476 21.2325 82.772 21.443 82.5665 21.443H80.194C78.5082 21.443 78.0271 20.1696 78.0271 19.3787V17.0423C78.0271 14.7676 80.708 14.8292 81.7729 14.8292C82.842 14.8292 83.0476 15.6165 83.0476 16.1317V21.0802Z" fill="#E8E8E8"/>
<path d="M114.082 3.70236C116.487 3.70236 118.44 3.05659 118.44 2.26207C118.44 1.46755 116.487 0.821777 114.082 0.821777C111.677 0.821777 109.724 1.46755 109.724 2.26207C109.724 3.05659 111.673 3.70236 114.082 3.70236Z" fill="#E8E8E8"/>
</svg>
