<svg width="23" height="22" viewBox="0 0 23 22" fill="none" xmlns="http://www.w3.org/2000/svg">
<path d="M12.5 13.8111L15.2746 10.8964C15.5941 10.5541 16.1131 10.5541 16.4311 10.8964C16.7506 11.2387 16.7506 11.7972 16.4311 12.1395L13.5061 15.2138C12.5476 16.244 11.0011 16.2473 10.0396 15.2138L7.11462 12.1395C6.79513 11.7972 6.79513 11.2387 7.11462 10.8964C7.43262 10.5541 7.95162 10.5541 8.27112 10.8964L11 13.763V0.972982C11 0.512745 11.3358 0.139648 11.75 0.139648C12.1642 0.139648 12.5 0.512745 12.5 0.972982V13.8111ZM5.26957 7.63965C4.56114 7.63965 3.9512 8.14434 3.81226 8.84547L2.02886 17.8455C2.00967 17.9423 2 18.0409 2 18.1396C2 18.9681 2.66538 19.6396 3.48617 19.6396H20.0135C20.1114 19.6396 20.209 19.6299 20.305 19.6105C21.1099 19.4481 21.6318 18.6578 21.4709 17.8455L19.6874 8.84547C19.5485 8.14434 18.9386 7.63965 18.2301 7.63965H5.26957ZM8 6.13965V7.63965H15.5V6.13965H18.2379C19.6565 6.13965 20.8779 7.14903 21.1561 8.5513L22.9416 17.5513C23.264 19.176 22.2188 20.7565 20.6071 21.0814C20.4149 21.1201 20.2194 21.1396 20.0235 21.1396H3.47596C1.83238 21.1396 0.5 19.7965 0.5 18.1396C0.5 17.9421 0.519358 17.745 0.557791 17.5513L2.34337 8.5513C2.62157 7.14903 3.84295 6.13965 5.26154 6.13965H8Z" fill="#343741"/>
</svg>
