<?xml version="1.0" standalone="no"?>
<!DOCTYPE svg PUBLIC "-//W3C//DTD SVG 20010904//EN"
 "http://www.w3.org/TR/2001/REC-SVG-20010904/DTD/svg10.dtd">
<svg version="1.0" xmlns="http://www.w3.org/2000/svg"
 width="1080.000000pt" height="261.000000pt" viewBox="0 0 1080.000000 261.000000"
 preserveAspectRatio="xMidYMid meet">

<g transform="translate(0.000000,261.000000) scale(0.100000,-0.100000)"
fill="#ffffff" stroke="none">
<path d="M7395 2585 c-33 -7 -87 -18 -119 -24 -35 -6 -69 -20 -83 -33 l-23
-21 0 -723 c0 -695 1 -723 19 -745 18 -23 26 -24 160 -27 l141 -4 30 31 30 30
-2 741 -3 742 -28 24 c-32 27 -38 27 -122 9z"/>
<path d="M4605 2577 c-103 -16 -136 -28 -161 -54 l-24 -26 0 -708 c0 -498 3
-715 11 -732 17 -38 50 -47 180 -47 124 0 170 11 183 45 3 9 6 142 6 294 0
315 8 377 52 422 49 48 143 61 220 31 15 -6 40 -30 55 -53 l28 -42 5 -325 5
-324 29 -25 c28 -24 32 -24 166 -21 120 3 141 6 159 22 22 20 22 22 19 400
l-3 381 -37 77 c-46 98 -101 157 -186 201 -150 78 -317 77 -453 -4 -27 -16
-52 -29 -54 -29 -3 0 -5 107 -5 239 0 226 -1 240 -21 265 -23 29 -59 32 -174
13z"/>
<path d="M1330 2544 c-102 -44 -155 -178 -104 -260 86 -138 230 -153 326 -33
119 148 -49 368 -222 293z"/>
<path d="M33 2426 l-28 -24 0 -672 0 -672 28 -24 c27 -23 35 -24 158 -24 97 0
137 4 159 15 17 9 31 17 32 18 1 1 5 117 8 257 l5 255 307 5 c381 6 351 -8
357 177 4 150 -6 195 -48 213 -21 8 -35 9 -48 1 -11 -5 -66 -12 -122 -14 -76
-2 -105 -7 -111 -18 -9 -16 -126 -176 -166 -226 -13 -18 -33 -33 -44 -33 -39
0 -37 7 32 208 10 29 18 57 18 62 0 4 -17 7 -37 6 -21 -2 -67 1 -103 5 l-65 9
-36 -39 c-46 -51 -60 -43 -47 27 8 38 8 67 0 100 -14 65 3 73 48 22 l35 -40
100 11 c55 6 101 12 103 14 3 3 -28 105 -59 195 -20 59 -15 74 22 68 16 -2 42
-30 85 -93 124 -179 116 -173 208 -180 171 -14 186 -13 210 18 19 26 21 41 21
189 l0 160 -28 24 -28 24 -469 0 -469 0 -28 -24z"/>
<path d="M2410 2136 c-64 -17 -152 -70 -194 -116 l-36 -40 0 28 c0 48 -21 92
-51 107 -19 10 -59 15 -122 15 -91 0 -94 -1 -123 -31 l-29 -30 -3 -452 c-4
-485 -1 -544 28 -579 18 -22 24 -23 169 -23 131 0 153 2 168 18 16 16 18 48
23 345 5 321 5 328 28 365 30 47 70 68 141 74 68 5 110 -14 155 -70 l31 -39 5
-325 5 -325 28 -24 c26 -23 35 -24 153 -24 130 0 175 11 188 45 13 34 6 687
-8 752 -25 118 -114 235 -218 289 -100 51 -238 68 -338 40z"/>
<path d="M3627 2135 c-311 -79 -491 -343 -449 -661 15 -106 70 -227 139 -304
55 -61 155 -125 247 -157 88 -30 246 -42 336 -24 159 32 350 153 350 223 0 29
-170 198 -199 198 -13 0 -56 -22 -97 -49 -112 -75 -208 -79 -301 -12 -95 69
-131 213 -81 322 14 30 40 69 58 86 32 31 112 63 159 63 52 0 126 -25 180 -61
32 -21 69 -39 82 -39 32 0 199 167 199 200 0 51 -140 153 -277 201 -77 28
-263 35 -346 14z"/>
<path d="M6126 2134 c-81 -20 -187 -78 -243 -134 -202 -200 -202 -547 -2 -749
51 -52 155 -110 238 -135 109 -32 263 -16 371 39 27 14 52 25 55 25 10 0 5
-172 -7 -193 -15 -28 -64 -75 -98 -92 -117 -60 -351 -23 -463 74 -38 34 -70
51 -92 51 -20 0 -112 -85 -131 -122 -8 -15 -14 -43 -14 -63 0 -48 62 -108 167
-162 132 -68 168 -76 343 -77 237 -1 302 14 431 100 97 64 160 148 199 265 19
55 20 87 20 583 0 288 -3 532 -6 541 -12 30 -60 45 -143 45 -99 0 -126 -12
-143 -60 l-13 -38 -75 44 c-124 72 -256 91 -394 58z m296 -278 c130 -46 190
-190 138 -329 -36 -95 -105 -141 -216 -142 -61 0 -77 4 -119 30 -69 43 -108
108 -113 190 -2 35 1 79 7 98 42 127 181 197 303 153z"/>
<path d="M8224 2136 c-190 -44 -325 -144 -408 -306 -63 -121 -78 -247 -50
-417 8 -50 86 -191 134 -241 68 -71 153 -125 250 -158 77 -26 97 -29 220 -29
121 0 144 3 220 28 201 67 344 221 385 416 40 193 -6 383 -127 520 -67 77
-145 125 -278 173 -73 26 -260 34 -346 14z m220 -330 c67 -20 111 -58 141
-122 83 -176 -31 -377 -214 -377 -96 0 -175 53 -221 147 -63 130 8 310 138
350 61 19 98 19 156 2z"/>
<path d="M9877 2143 c-38 -6 -95 -68 -103 -112 -3 -20 -21 -83 -40 -141 -55
-173 -112 -363 -119 -397 -4 -18 -10 -35 -14 -37 -4 -3 -20 41 -36 97 -15 56
-42 156 -61 222 -18 66 -43 158 -55 205 -17 65 -30 93 -55 118 l-32 32 -134 0
c-121 0 -136 -2 -156 -20 -29 -27 -28 -47 7 -133 16 -40 82 -205 146 -367 171
-434 186 -471 202 -512 26 -63 64 -91 132 -96 71 -5 119 14 146 60 10 18 33
77 51 133 18 55 58 174 89 265 31 91 59 172 61 180 7 19 24 -20 69 -155 57
-169 112 -327 134 -385 28 -74 66 -100 147 -100 84 0 115 21 147 102 14 34 53
133 86 218 34 85 77 191 96 235 20 44 35 84 35 88 0 4 16 45 35 90 69 164 125
314 125 335 0 12 -9 31 -20 42 -18 18 -33 20 -145 20 -185 0 -189 -3 -243
-195 -40 -142 -96 -345 -114 -414 l-14 -55 -63 195 c-106 331 -142 426 -165
448 -22 20 -79 43 -101 40 -5 -1 -22 -4 -38 -6z"/>
<path d="M1236 2099 l-26 -31 0 -493 c0 -341 3 -502 11 -518 18 -39 50 -47
189 -47 122 0 130 1 157 24 l28 24 3 489 c1 268 0 499 -3 511 -3 13 -18 35
-32 48 -25 23 -32 24 -164 24 l-137 0 -26 -31z"/>
<path d="M10183 805 l-23 -16 0 -372 c0 -205 4 -378 9 -385 5 -8 22 -12 42
-10 l34 3 0 395 c0 387 0 395 -20 398 -11 1 -30 -5 -42 -13z"/>
<path d="M7595 782 c-34 -7 -40 -20 -45 -110 l-5 -87 -42 -3 c-40 -3 -43 -5
-43 -32 0 -30 14 -40 61 -40 l29 0 1 -167 c1 -221 11 -266 66 -305 55 -40 115
-47 177 -20 48 22 60 48 31 72 -11 9 -22 9 -46 1 -51 -18 -88 -13 -114 14 -25
24 -25 26 -25 215 l0 190 73 0 c83 0 100 8 95 41 -3 23 -7 24 -85 27 l-83 3 0
93 c0 98 -7 116 -45 108z"/>
<path d="M8098 580 c-14 -4 -40 -23 -57 -41 l-30 -34 -1 38 c0 37 0 37 -40 37
l-40 0 2 -277 3 -278 40 0 40 0 5 200 c6 222 9 236 73 276 25 16 42 19 80 14
43 -5 48 -4 59 19 17 38 -4 56 -61 55 -25 0 -58 -4 -73 -9z"/>
<path d="M8440 581 c-55 -11 -140 -63 -140 -86 0 -7 8 -19 18 -28 15 -14 21
-15 38 -3 34 24 134 56 172 56 88 0 162 -69 162 -151 l0 -36 -52 18 c-136 47
-296 8 -344 -83 -23 -43 -18 -139 9 -178 57 -86 200 -111 310 -56 31 16 57 33
57 38 0 21 19 5 22 -19 3 -25 7 -28 38 -28 l35 0 0 205 c-1 229 -5 248 -68
309 -49 46 -151 63 -257 42z m209 -307 c43 -18 43 -18 38 -62 -3 -32 -14 -53
-38 -78 -42 -43 -86 -57 -165 -52 -84 5 -119 35 -119 102 0 49 21 80 70 103
39 18 155 11 214 -13z"/>
<path d="M9662 581 c-190 -49 -264 -336 -123 -484 103 -109 281 -124 415 -36
34 23 46 37 44 52 -4 29 -34 45 -55 29 -57 -41 -82 -52 -129 -58 -121 -15
-200 21 -243 109 -39 81 -50 77 207 77 164 0 231 3 240 12 29 29 1 138 -51
201 -61 75 -102 97 -193 102 -43 2 -94 0 -112 -4z m149 -71 c50 -14 104 -69
116 -119 l11 -41 -194 0 c-128 0 -194 4 -194 10 0 19 38 85 62 107 51 48 125
64 199 43z"/>
<path d="M10517 576 c-50 -19 -74 -41 -88 -83 -13 -42 -7 -116 12 -140 8 -9
61 -39 119 -66 130 -61 150 -78 150 -129 0 -43 -24 -65 -83 -75 -64 -10 -122
5 -162 42 -30 29 -40 33 -56 24 -31 -16 -34 -38 -8 -65 39 -42 117 -76 184
-81 52 -4 68 -1 114 24 73 37 96 70 96 137 0 75 -36 115 -155 171 -138 65
-165 99 -119 154 15 19 32 25 72 29 45 3 58 0 99 -28 50 -34 74 -36 92 -8 8
14 5 23 -14 44 -14 14 -38 33 -53 41 -42 21 -154 26 -200 9z"/>
<path d="M8860 573 c0 -5 34 -82 76 -173 42 -91 89 -194 106 -230 64 -140 73
-155 92 -155 21 0 21 1 70 105 161 350 196 429 196 445 0 11 -10 15 -35 15
-39 0 -30 14 -114 -180 -23 -52 -59 -131 -81 -175 l-38 -80 -27 60 c-15 33
-35 78 -45 100 -19 42 -89 200 -108 248 -10 23 -17 27 -52 27 -22 0 -40 -3
-40 -7z"/>
</g>
</svg>
