<svg width="51" height="50" viewBox="0 0 51 50" fill="none" xmlns="http://www.w3.org/2000/svg">
<g clip-path="url(#clip0_270_888)">
<path d="M40.4039 0H11.4199C5.89707 0 1.41992 4.53765 1.41992 10.1351V39.5108C1.41992 45.1083 5.89707 49.6459 11.4199 49.6459H40.4039C45.9268 49.6459 50.4039 45.1083 50.4039 39.5108V10.1351C50.4039 4.53765 45.9268 0 40.4039 0Z" fill="url(#paint0_linear_270_888)"/>
<path d="M28.2098 29.8211L27.7537 30.2927L28.2085 30.7656L33.8177 36.5986H27.9538L25.2757 33.824L25.2749 33.8232L21.8692 30.2834L25.2734 26.7793L25.2749 26.7778L27.9536 24.0026C27.9702 24.0024 27.9886 24.0024 28.0109 24.0024H33.8366L28.2098 29.8211ZM16.0938 24.3241L27.9416 12.0616L33.8111 12.0518L21.9352 24.3555L21.9344 24.3564L19.0242 27.3602L16.0938 24.3241Z" stroke="white" stroke-width="1.35135"/>
</g>
<defs>
<linearGradient id="paint0_linear_270_888" x1="-2.10687" y1="-1.58851" x2="51.0815" y2="48.9325" gradientUnits="userSpaceOnUse">
<stop stop-color="#3CD89D"/>
<stop offset="1" stop-color="#82C444"/>
</linearGradient>
<clipPath id="clip0_270_888">
<rect width="50" height="50" fill="white" transform="translate(0.953125)"/>
</clipPath>
</defs>
</svg>
