<svg width="57" height="50" viewBox="0 0 57 50" fill="none" xmlns="http://www.w3.org/2000/svg">
<path d="M21.2303 38.6519C21.2303 38.6519 19.097 39.761 22.7484 40.1364C27.1718 40.5876 29.4325 40.5229 34.3071 39.698C34.3071 39.698 35.5888 40.4165 37.3785 41.0388C26.451 45.2263 12.6471 40.7963 21.2303 38.6519Z" fill="white"/>
<path d="M19.8945 33.1875C19.8945 33.1875 17.5019 34.771 21.156 35.1089C25.8812 35.5447 29.6128 35.5804 36.0699 34.4687C36.0699 34.4687 36.9631 35.2783 38.3675 35.721C25.1552 39.1753 10.4392 35.9934 19.8945 33.1875Z" fill="white"/>
<path d="M31.152 23.9182C33.8446 26.6899 30.4445 29.1842 30.4445 29.1842C30.4445 29.1842 37.2815 26.0285 34.1416 22.0769C31.2091 18.3916 28.9602 16.5607 41.1347 10.2476C41.1347 10.2476 22.0247 14.5149 31.152 23.9182Z" fill="white"/>
<path d="M45.6042 42.6941C45.6042 42.6941 47.1828 43.857 43.8658 44.7568C37.5582 46.4653 17.6128 46.9811 12.0721 44.8248C10.0804 44.0501 13.8155 42.975 14.9904 42.7493C16.2157 42.5118 16.9159 42.5561 16.9159 42.5561C14.7009 41.161 2.59891 45.2955 10.7687 46.4796C33.0489 49.7103 51.3835 45.0249 45.6042 42.6941Z" fill="white"/>
<path d="M22.2551 27.5262C22.2551 27.5262 12.1097 29.6807 18.6623 30.4632C21.4291 30.7943 26.9446 30.7193 32.082 30.3346C36.2806 30.0178 40.4967 29.3446 40.4967 29.3446C40.4967 29.3446 39.0162 29.9114 37.9451 30.5654C27.6426 32.988 7.73995 31.861 13.4696 29.3829C18.3152 27.2886 22.2551 27.5262 22.2551 27.5262Z" fill="white"/>
<path d="M40.4554 36.6219C50.9283 31.7559 46.0861 27.0799 42.7062 27.7099C41.8778 27.8641 41.5084 27.9977 41.5084 27.9977C41.5084 27.9977 41.816 27.5669 42.4033 27.3805C49.0898 25.2786 54.232 33.5794 40.2449 36.8671C40.2449 36.8672 40.4069 36.7377 40.4554 36.6219Z" fill="white"/>
<path d="M34.1412 0.0537109C34.1412 0.0537109 39.9413 5.24138 28.64 13.2185C19.5776 19.6176 26.5736 23.2662 28.6363 27.4348C23.3464 23.1674 19.4643 19.4109 22.0687 15.9146C25.8914 10.7823 36.4814 8.29401 34.1412 0.0537109Z" fill="white"/>
<path d="M23.2845 49.8071C33.3372 50.3824 48.7744 49.4879 49.1401 45.2349C49.1401 45.2349 48.4372 46.8471 40.832 48.1275C32.2517 49.5713 21.6691 49.4027 15.3926 48.4774C15.3927 48.4773 16.6775 49.4282 23.2845 49.8071Z" fill="white"/>
</svg>
