<svg width="51" height="50" viewBox="0 0 51 50" fill="none" xmlns="http://www.w3.org/2000/svg">
<g clip-path="url(#clip0_270_812)">
<path d="M16.5314 38.652C16.5314 38.652 13.9537 39.7611 18.366 40.1363C23.7115 40.5875 26.4433 40.5229 32.3341 39.6979C32.3341 39.6979 33.883 40.4164 36.0456 41.0388C22.8404 45.2262 6.15912 40.7962 16.5314 38.652ZM14.9177 33.1875C14.9177 33.1875 12.0265 34.771 16.4421 35.1089C22.1523 35.5447 26.6617 35.5804 34.4648 34.4687C34.4648 34.4687 35.5441 35.2783 37.2412 35.721C21.2749 39.1754 3.49155 35.9934 14.9177 33.1875Z" fill="#5382A1"/>
<path d="M28.5216 23.9187C31.7755 26.6904 27.6667 29.1846 27.6667 29.1846C27.6667 29.1846 35.9286 26.029 32.1343 22.0772C28.5905 18.3923 25.8727 16.5611 40.5851 10.248C40.5851 10.248 17.4917 14.5154 28.5216 23.9186" fill="#E76F00"/>
<path d="M45.9877 42.694C45.9877 42.694 47.8954 43.8569 43.8868 44.7566C36.2645 46.4651 12.1618 46.981 5.46606 44.8247C3.05922 44.0501 7.57289 42.975 8.99262 42.7493C10.4733 42.5117 11.3196 42.556 11.3196 42.556C8.64281 41.1608 -5.9818 45.2955 3.89106 46.4795C30.8155 49.7101 52.9715 45.0248 45.9877 42.694ZM17.7721 27.5261C17.7721 27.5261 5.51215 29.6808 13.4307 30.463C16.7741 30.7942 23.4391 30.7193 29.6475 30.3344C34.7213 30.0179 39.8161 29.3445 39.8161 29.3445C39.8161 29.3445 38.027 29.9114 36.7327 30.5653C24.2827 32.988 0.231485 31.861 7.15551 29.3828C13.0112 27.2886 17.7723 27.5261 17.7723 27.5261M39.7655 36.6218C52.4217 31.7559 46.57 27.0799 42.4856 27.7099C41.4844 27.864 41.0381 27.9975 41.0381 27.9975C41.0381 27.9975 41.4098 27.5669 42.1196 27.3805C50.1996 25.2786 56.4139 33.5795 39.5112 36.867C39.5112 36.8672 39.7071 36.7377 39.7655 36.6218Z" fill="#5382A1"/>
<path d="M32.1344 0.0538554C32.1344 0.0538554 39.1435 5.24172 25.4865 13.2187C14.5351 19.6179 22.9892 23.2664 25.482 27.4351C19.0894 23.1677 14.398 19.4111 17.5455 15.9148C22.1648 10.7823 34.9623 8.29403 32.1344 0.0537109" fill="#E76F00"/>
<path d="M19.0154 49.8066C31.1637 50.3821 49.8186 49.4874 50.2604 45.2344C50.2604 45.2344 49.4111 46.8468 40.2205 48.1272C29.8518 49.5708 17.0635 49.4023 9.47852 48.477C9.47871 48.477 11.0312 49.4279 19.0156 49.8066" fill="#5382A1"/>
</g>
<defs>
<clipPath id="clip0_270_812">
<rect width="50" height="50" fill="white" transform="translate(0.408203)"/>
</clipPath>
</defs>
</svg>
