<svg width="201" height="113" viewBox="0 0 201 113" fill="none" xmlns="http://www.w3.org/2000/svg">
<path d="M26.549 66.2362C26.3065 67.0254 26.1818 67.8563 26.1957 68.7078C26.1957 73.3118 29.9363 77.0504 34.5428 77.0504C39.1494 77.0504 42.8899 73.3118 42.8899 68.7078C42.8899 64.1384 39.1978 60.4137 34.619 60.3653C31.0932 60.2891 28.2669 57.4021 28.2669 53.8574C28.2669 50.2642 31.1901 47.3426 34.7853 47.3426C37.3206 47.3426 39.5165 48.7895 40.5902 50.9011L45.0513 50.8873C43.7697 46.4287 39.662 43.1748 34.7853 43.1748C28.8765 43.1748 24.0759 47.9726 24.0759 53.8712C24.0759 59.6798 28.731 64.4292 34.529 64.5538C36.8219 64.5538 38.6991 66.4162 38.6991 68.7216C38.6991 71.034 36.8357 72.8964 34.529 72.8964C32.2153 72.8964 30.3519 71.034 30.3519 68.7216C30.3519 68.5001 30.3658 68.2786 30.4004 68.0639L30.3519 68.0501C28.9873 67.6347 27.7196 67.0116 26.549 66.2362Z" fill="#F4B400"/>
<path d="M30.4003 68.064C30.3657 68.2786 30.3518 68.5001 30.3518 68.7216C30.3518 71.034 32.2152 72.8964 34.5289 72.8964C36.8356 72.8964 38.699 71.034 38.699 68.7216C38.699 66.4162 36.8218 64.5539 34.5289 64.5539C28.7309 64.4292 24.0758 59.6799 24.0758 53.8712C24.0758 47.9726 28.8764 43.1747 34.7852 43.1747C39.6619 43.1747 43.7696 46.4287 45.0512 50.8873L49.3529 50.8735C47.9744 44.1025 41.9755 39 34.7852 39C26.5627 39 19.9058 45.6602 19.9058 53.8712C19.9058 59.036 22.538 63.5915 26.5489 66.257C27.7195 67.0255 28.9872 67.6486 30.3518 68.064H30.4003Z" fill="#DB4437"/>
<path d="M57.4978 53.1467C57.4978 58.452 61.8618 62.7677 67.262 62.7677C71.1769 62.7677 75.5817 60.4773 76.3474 55.126H71.9834C71.3555 57.8246 69.4211 58.855 67.1701 58.855C64.1995 58.855 61.7699 56.789 61.7699 53.1467C61.7699 49.591 64.1995 47.4332 67.1701 47.4332C69.467 47.4332 71.4015 48.4688 72.0293 51.1674H76.3933C75.5817 45.8161 71.1769 43.5205 67.3028 43.5205C61.8618 43.5205 57.4978 47.7954 57.4978 53.1467Z" fill="#DB4437"/>
<path d="M78.6899 55.259C78.6899 59.891 82.1966 62.7681 86.7851 62.7681C91.6443 62.7681 94.8395 59.6206 94.8395 55.259V44.0156H90.5673V54.9886C90.5673 57.2383 89.2147 58.9472 86.7851 58.9472C84.3147 58.9472 82.9622 57.1924 82.9622 54.9886V44.0156H78.6899V55.259Z" fill="#DB4437"/>
<path d="M111.219 43.9746V47.7496H102.537V51.2134H109.958V54.7639H102.537V58.4981H111.311V62.319H98.2593V43.9746H111.219Z" fill="#DB4437"/>
<path d="M112.975 56.6513C112.975 59.6202 115.042 62.7677 120.667 62.7269C125.215 62.7269 128.318 60.7476 128.318 57.0594C128.318 53.5038 125.48 51.9785 121.795 51.2133C118.911 50.6725 117.696 50.0859 117.696 48.9177C117.696 48.0657 118.151 47.2087 120.442 47.2087C122.693 47.2087 123.413 48.2443 123.413 49.2799H127.685C127.685 45.7702 125.301 43.5205 120.488 43.5205C115.762 43.5205 113.424 45.7243 113.424 48.9177C113.424 52.8304 117.201 53.9986 120.309 54.7638C122.693 55.3045 124 55.8453 124 57.1053C124 58.4979 123.05 59.2172 120.667 59.2172C118.462 59.2172 117.247 58.1817 117.247 56.6513H112.975Z" fill="#DB4437"/>
<path d="M129.803 53.1467C129.803 58.452 134.254 62.7677 139.792 62.7677C145.279 62.7677 149.781 58.452 149.781 53.1467C149.781 47.7954 145.279 43.5205 139.792 43.5205C134.254 43.5205 129.803 47.7954 129.803 53.1467ZM145.504 53.1467C145.504 56.4268 142.941 58.855 139.792 58.855C136.643 58.855 134.075 56.4268 134.075 53.1467C134.075 49.8206 136.597 47.4332 139.792 47.4332C142.987 47.4332 145.504 49.8206 145.504 53.1467Z" fill="#DB4437"/>
<path d="M165.302 43.9746V47.7955H156.62V52.0245H164.042V55.5751H156.62V62.319H152.343V43.9746H165.302Z" fill="#DB4437"/>
<path d="M171.693 47.7955L171.734 62.319H175.965V47.7955H181.094V43.9746H166.563V47.7955H171.693Z" fill="#DB4437"/>
<path d="M58.32 72.337H58.2707V69.7731H59.1422L60.5893 72.337H61.5539L59.9644 69.6801C60.3974 69.6307 60.7373 69.439 60.9784 69.1979C61.2195 68.9514 61.3621 68.6172 61.3621 68.179C61.3621 67.8449 61.3128 67.6038 61.2195 67.4066C61.1209 67.2148 60.9784 67.0724 60.781 66.9245C60.5893 66.7821 60.348 66.6835 60.1069 66.6342C59.8657 66.5903 59.6245 66.541 59.334 66.541H57.4978V72.337H58.32ZM58.32 69.0994V67.2641H59.2847C59.4327 67.2641 59.6245 67.2641 59.767 67.3134C59.9644 67.3134 60.1069 67.4066 60.2055 67.4559C60.348 67.5545 60.4468 67.6476 60.4905 67.7462C60.5399 67.8449 60.5893 67.9873 60.5893 68.179C60.5893 68.3762 60.5399 68.5187 60.4905 68.6172C60.4468 68.7104 60.348 68.809 60.2055 68.9076C60.0575 68.9514 59.915 69.0008 59.767 69.05C59.6245 69.0994 59.4327 69.0994 59.2354 69.0994H58.32Z" fill="white"/>
<path d="M68.0328 71.6084V72.337H64.2124V66.541H67.9341V67.2641H65.0346V69.0008H67.7423V69.6801H65.0346V71.6084H68.0328Z" fill="white"/>
<path d="M72.3794 70.6935V70.0635H70.4939V70.6935H72.3794Z" fill="white"/>
<path d="M75.9531 72.337V66.541H75.1309V72.337H75.9531Z" fill="white"/>
<path d="M83.7802 66.541H85.0408V72.337H84.2187V67.5052L82.2838 72.337H81.7521L79.8227 67.5052V72.337H79.0498V66.541H80.3051L82.0426 70.9839L83.7802 66.541Z" fill="white"/>
<path d="M88.3737 72.337L88.9053 70.8853H91.6569L92.238 72.337H93.1533L90.6923 66.541H89.9687L87.4529 72.337H88.3737ZM89.1958 70.2114L90.3031 67.5052L91.3664 70.2114H89.1958Z" fill="white"/>
<path d="M99.8241 67.7462L100.405 67.0723C100.164 66.8751 99.8241 66.6834 99.4843 66.541C99.1006 66.393 98.7114 66.3438 98.2291 66.3438C97.7961 66.3438 97.4069 66.4424 97.0232 66.5903C96.6341 66.7327 96.3435 66.9737 96.053 67.2148C95.8119 67.5051 95.5707 67.7955 95.4282 68.1789C95.2802 68.5679 95.187 69.0007 95.187 69.439C95.187 69.921 95.2802 70.3045 95.4282 70.6935C95.5707 71.0769 95.768 71.3672 96.053 71.6576C96.2942 71.9479 96.6341 72.1397 97.0232 72.2876C97.4069 72.43 97.8454 72.5286 98.2784 72.5286C98.6621 72.5286 99.1006 72.4794 99.435 72.3807C99.8241 72.2876 100.164 72.1397 100.454 71.9973V69.1979H98.3771V69.8718H99.6323V71.4659C99.4843 71.559 99.2925 71.6083 99.0513 71.6576C98.8101 71.7069 98.5689 71.7563 98.2784 71.7563C97.9386 71.7563 97.6481 71.6576 97.3576 71.559C97.0726 71.4659 96.8259 71.2742 96.6341 71.0769C96.4422 70.8852 96.2942 70.6441 96.201 70.3538C96.1024 70.0634 96.053 69.7731 96.053 69.439C96.053 69.0993 96.1024 68.809 96.201 68.5186C96.2942 68.2776 96.4422 67.9872 96.6341 67.7955C96.8259 67.6037 97.0232 67.4558 97.3137 67.3134C97.6042 67.1655 97.8893 67.1162 98.2291 67.1162C98.5689 67.1162 98.8594 67.2148 99.1499 67.3134C99.435 67.4065 99.6323 67.5544 99.8241 67.7462Z" fill="white"/>
<path d="M104.319 72.337V66.541H103.497V72.337H104.319Z" fill="white"/>
<path d="M111.516 71.1756L108.523 66.541H107.459V72.337H108.282V67.6038L111.324 72.337H112.338V66.541H111.516V71.1756Z" fill="white"/>
<path d="M119.25 71.6084V72.337H115.429V66.541H119.151V67.2641H116.252V69.0008H118.959V69.6801H116.252V71.6084H119.25Z" fill="white"/>
<path d="M128.672 67.6033L129.297 67.165C129.105 66.9733 128.864 66.7816 128.573 66.6829C128.233 66.5405 127.943 66.4912 127.608 66.4912C127.367 66.4912 127.126 66.5405 126.885 66.5898C126.638 66.6336 126.446 66.7322 126.255 66.8747C126.107 67.0226 125.915 67.2143 125.822 67.4061C125.674 67.6033 125.624 67.8444 125.624 68.1347C125.624 68.425 125.674 68.6167 125.772 68.8085C125.865 68.9509 125.964 69.0989 126.107 69.2413C126.255 69.3399 126.397 69.4385 126.594 69.5316C126.737 69.581 126.929 69.6795 127.126 69.7289C127.318 69.822 127.51 69.8713 127.658 69.9206C127.8 69.9699 127.943 70.0137 128.091 70.1123C128.184 70.2109 128.283 70.3041 128.381 70.4027C128.431 70.5012 128.474 70.6437 128.474 70.8354C128.474 70.9834 128.431 71.1258 128.381 71.2737C128.283 71.3668 128.233 71.4655 128.091 71.5586C127.943 71.6571 127.85 71.7065 127.702 71.7558C127.608 71.8051 127.46 71.8051 127.318 71.8051C127.077 71.8051 126.836 71.7558 126.594 71.6079C126.397 71.5147 126.205 71.3176 126.063 71.1258L125.432 71.6571C125.624 71.9475 125.915 72.1393 126.255 72.2872C126.594 72.4296 126.929 72.4789 127.318 72.4789C127.559 72.4789 127.8 72.4296 128.041 72.3803C128.283 72.2872 128.474 72.1886 128.672 72.0462C128.864 71.8982 129.006 71.7558 129.105 71.5147C129.203 71.3176 129.247 71.0327 129.247 70.7424C129.247 70.452 129.203 70.2109 129.105 70.0137C129.006 69.822 128.864 69.6795 128.716 69.5316C128.573 69.4385 128.381 69.3399 128.184 69.2413C127.992 69.1974 127.8 69.0989 127.608 69.0495C127.411 69.0003 127.269 68.9509 127.126 68.9071C126.978 68.8578 126.836 68.8085 126.737 68.7099C126.638 68.6167 126.545 68.5182 126.496 68.425C126.446 68.3264 126.397 68.1785 126.397 68.036C126.397 67.8444 126.446 67.6964 126.496 67.6033C126.545 67.5047 126.638 67.4061 126.737 67.3129C126.885 67.2143 126.978 67.165 127.126 67.1157C127.269 67.0719 127.367 67.0719 127.51 67.0719C127.751 67.0719 127.992 67.1157 128.184 67.2143C128.381 67.3129 128.573 67.4554 128.672 67.6033Z" fill="white"/>
<path d="M137.946 69.439C137.946 69.0007 137.853 68.5679 137.705 68.1789C137.562 67.7955 137.365 67.4558 137.075 67.2148C136.789 66.9244 136.499 66.7327 136.11 66.5903C135.77 66.4424 135.337 66.3438 134.904 66.3438C134.466 66.3438 134.082 66.4424 133.693 66.5903C133.309 66.7327 133.018 66.9737 132.728 67.2148C132.487 67.5051 132.246 67.7955 132.103 68.1789C131.955 68.5679 131.856 69.0007 131.856 69.439C131.856 69.921 131.955 70.3045 132.103 70.6935C132.246 71.0769 132.437 71.3672 132.728 71.6576C133.018 71.9479 133.309 72.1397 133.693 72.2876C134.033 72.43 134.466 72.5286 134.904 72.5286C135.337 72.5286 135.726 72.43 136.11 72.2876C136.499 72.1397 136.789 71.9479 137.075 71.6576C137.321 71.3672 137.562 71.0769 137.705 70.6935C137.853 70.3045 137.946 69.8718 137.946 69.439ZM137.075 69.439C137.075 69.7731 137.031 70.0634 136.932 70.3538C136.833 70.6441 136.691 70.8852 136.499 71.0769C136.302 71.2742 136.11 71.4659 135.819 71.559C135.529 71.7069 135.244 71.7563 134.904 71.7563C134.564 71.7563 134.224 71.6576 133.983 71.559C133.742 71.4659 133.501 71.2742 133.309 71.0769C133.117 70.8852 132.969 70.6441 132.876 70.3538C132.777 70.0634 132.728 69.7731 132.728 69.439C132.728 69.0993 132.777 68.809 132.876 68.5186C132.969 68.2776 133.117 67.9872 133.309 67.7955C133.501 67.6037 133.693 67.4558 133.983 67.3134C134.274 67.1655 134.564 67.1162 134.904 67.1162C135.244 67.1162 135.529 67.1655 135.819 67.3134C136.061 67.4065 136.302 67.6037 136.499 67.7955C136.691 67.9872 136.833 68.2283 136.932 68.5186C137.031 68.809 137.075 69.0993 137.075 69.439Z" fill="white"/>
<path d="M141.569 72.337V69.7294H144.178V69.05H141.569V67.2641H144.376V66.541H140.747V72.337H141.569Z" fill="white"/>
<path d="M149.106 72.337V67.2641H150.942V66.541H146.453V67.2641H148.289V72.337H149.106Z" fill="white"/>
<path d="M156.308 66.541H157.18L158.528 71.1756L159.789 66.541H160.655L158.967 72.337H158.144L156.741 67.6476L155.344 72.337H154.521L152.828 66.541H153.699L154.954 71.1756L156.308 66.541Z" fill="white"/>
<path d="M163.313 72.337L163.845 70.8853H166.602L167.178 72.337H168.098L165.632 66.541H164.908L162.398 72.337H163.313ZM164.185 70.2114L165.298 67.5052L166.355 70.2114H164.185Z" fill="white"/>
<path d="M171.382 72.337H171.332V69.7731H172.204L173.656 72.337H174.621L173.026 69.6801C173.459 69.6307 173.799 69.439 174.04 69.1979C174.281 68.9514 174.429 68.6172 174.429 68.179C174.429 67.8449 174.38 67.6038 174.281 67.4066C174.188 67.2148 174.04 67.0724 173.848 66.9245C173.656 66.7821 173.41 66.6835 173.169 66.6342C172.927 66.5903 172.686 66.541 172.396 66.541H170.56V72.337H171.382ZM171.382 69.0994V67.2641H172.352C172.494 67.2641 172.686 67.2641 172.834 67.3134C173.026 67.3134 173.169 67.4066 173.267 67.4559C173.41 67.5545 173.508 67.6476 173.558 67.7462C173.607 67.8449 173.656 67.9873 173.656 68.179C173.656 68.3762 173.607 68.5187 173.558 68.6172C173.508 68.7104 173.41 68.809 173.267 68.9076C173.125 68.9514 172.977 69.0008 172.834 69.05C172.686 69.0994 172.494 69.0994 172.303 69.0994H171.382Z" fill="white"/>
<path d="M181.095 71.6084V72.337H177.28V66.541H180.996V67.2641H178.102V69.0008H180.804V69.6801H178.102V71.6084H181.095Z" fill="white"/>
<path d="M52.8821 77.0504H53.9685V39H52.8821V77.0504Z" fill="white"/>
</svg>
