<svg width="201" height="113" viewBox="0 0 201 113" fill="none" xmlns="http://www.w3.org/2000/svg">
<path d="M26.5487 66.2362C26.3062 67.0254 26.1816 67.8563 26.1954 68.7078C26.1954 73.3118 29.9361 77.0504 34.5426 77.0504C39.1491 77.0504 42.8897 73.3118 42.8897 68.7078C42.8897 64.1384 39.1976 60.4137 34.6188 60.3653C31.0929 60.2891 28.2667 57.4021 28.2667 53.8574C28.2667 50.2642 31.1899 47.3426 34.785 47.3426C37.3204 47.3426 39.5163 48.7895 40.59 50.9011L45.051 50.8873C43.7695 46.4287 39.6617 43.1748 34.785 43.1748C28.8762 43.1748 24.0757 47.9726 24.0757 53.8712C24.0757 59.6798 28.7308 64.4292 34.5288 64.5538C36.8216 64.5538 38.6988 66.4162 38.6988 68.7216C38.6988 71.034 36.8355 72.8964 34.5288 72.8964C32.2151 72.8964 30.3516 71.034 30.3516 68.7216C30.3516 68.5001 30.3656 68.2786 30.4001 68.0639L30.3516 68.0501C28.987 67.6347 27.7194 67.0116 26.5487 66.2362Z" fill="#F4B400"/>
<path d="M30.4003 68.064C30.3657 68.2786 30.3518 68.5001 30.3518 68.7216C30.3518 71.034 32.2152 72.8964 34.5289 72.8964C36.8356 72.8964 38.699 71.034 38.699 68.7216C38.699 66.4162 36.8218 64.5539 34.5289 64.5539C28.7309 64.4292 24.0758 59.6799 24.0758 53.8712C24.0758 47.9726 28.8764 43.1747 34.7852 43.1747C39.6619 43.1747 43.7696 46.4287 45.0512 50.8873L49.3529 50.8735C47.9744 44.1025 41.9755 39 34.7852 39C26.5627 39 19.9058 45.6602 19.9058 53.8712C19.9058 59.036 22.538 63.5915 26.5489 66.257C27.7195 67.0255 28.9872 67.6486 30.3518 68.064H30.4003Z" fill="#DB4437"/>
<path d="M57.498 53.1472C57.498 58.4525 61.862 62.7682 67.2623 62.7682C71.1771 62.7682 75.582 60.4777 76.3476 55.1265H71.9836C71.3558 57.8251 69.4213 58.8555 67.1704 58.8555C64.1998 58.8555 61.7702 56.7895 61.7702 53.1472C61.7702 49.5915 64.1998 47.4337 67.1704 47.4337C69.4673 47.4337 71.4017 48.4692 72.0295 51.1678H76.3935C75.582 45.8166 71.1771 43.521 67.3031 43.521C61.862 43.521 57.498 47.7959 57.498 53.1472Z" fill="#DB4437"/>
<path d="M78.6904 55.259C78.6904 59.891 82.197 62.7681 86.7856 62.7681C91.6448 62.7681 94.84 59.6206 94.84 55.259V44.0156H90.5678V54.9886C90.5678 57.2383 89.2152 58.9472 86.7856 58.9472C84.3152 58.9472 82.9627 57.1924 82.9627 54.9886V44.0156H78.6904V55.259Z" fill="#DB4437"/>
<path d="M111.219 43.9749V47.7499H102.537V51.2137H109.958V54.7642H102.537V58.4984H111.311V62.3192H98.2598V43.9749H111.219Z" fill="#DB4437"/>
<path d="M112.975 56.6518C112.975 59.6207 115.042 62.7682 120.667 62.7274C125.215 62.7274 128.318 60.7481 128.318 57.0599C128.318 53.5042 125.48 51.979 121.795 51.2138C118.911 50.673 117.696 50.0864 117.696 48.9182C117.696 48.0662 118.151 47.2092 120.442 47.2092C122.693 47.2092 123.413 48.2448 123.413 49.2804H127.685C127.685 45.7707 125.302 43.521 120.488 43.521C115.762 43.521 113.424 45.7248 113.424 48.9182C113.424 52.8309 117.201 53.9991 120.31 54.7643C122.693 55.305 124 55.8458 124 57.1058C124 58.4984 123.051 59.2177 120.667 59.2177C118.462 59.2177 117.247 58.1822 117.247 56.6518H112.975Z" fill="#DB4437"/>
<path d="M129.803 53.1472C129.803 58.4525 134.254 62.7682 139.792 62.7682C145.279 62.7682 149.781 58.4525 149.781 53.1472C149.781 47.7959 145.279 43.521 139.792 43.521C134.254 43.521 129.803 47.7959 129.803 53.1472ZM145.504 53.1472C145.504 56.4273 142.941 58.8555 139.792 58.8555C136.643 58.8555 134.075 56.4273 134.075 53.1472C134.075 49.8211 136.597 47.4337 139.792 47.4337C142.987 47.4337 145.504 49.8211 145.504 53.1472Z" fill="#DB4437"/>
<path d="M165.303 43.9749V47.7958H156.621V52.0248H164.042V55.5753H156.621V62.3192H152.343V43.9749H165.303Z" fill="#DB4437"/>
<path d="M171.693 47.7958L171.734 62.3192H175.965V47.7958H181.094V43.9749H166.563V47.7958H171.693Z" fill="#DB4437"/>
<path d="M58.3202 72.3378H58.2709V69.7739H59.1425L60.5895 72.3378H61.5542L59.9646 69.6808C60.3976 69.6314 60.7375 69.4398 60.9787 69.1987C61.2198 68.9522 61.3623 68.618 61.3623 68.1797C61.3623 67.8456 61.313 67.6045 61.2198 67.4073C61.1212 67.2156 60.9786 67.0731 60.7813 66.9252C60.5895 66.7828 60.3483 66.6842 60.1071 66.6349C59.866 66.5911 59.6247 66.5417 59.3342 66.5417H57.498V72.3378H58.3202ZM58.3202 69.1001V67.2649H59.285C59.433 67.2649 59.6247 67.2649 59.7672 67.3142C59.9646 67.3142 60.1071 67.4073 60.2058 67.4566C60.3483 67.5552 60.447 67.6484 60.4908 67.747C60.5401 67.8456 60.5895 67.988 60.5895 68.1797C60.5895 68.377 60.5401 68.5194 60.4908 68.618C60.447 68.7112 60.3483 68.8097 60.2058 68.9083C60.0578 68.9522 59.9153 69.0015 59.7672 69.0508C59.6247 69.1001 59.433 69.1001 59.2356 69.1001H58.3202Z" fill="black"/>
<path d="M68.0328 71.6091V72.3378H64.2124V66.5417H67.9341V67.2649H65.0346V69.0015H67.7423V69.6808H65.0346V71.6091H68.0328Z" fill="black"/>
<path d="M72.3797 70.6943V70.0642H70.4941V70.6943H72.3797Z" fill="black"/>
<path d="M75.9531 72.3378V66.5417H75.1309V72.3378H75.9531Z" fill="black"/>
<path d="M83.7807 66.5417H85.0413V72.3378H84.2192V67.5059L82.2842 72.3378H81.7526L79.8232 67.5059V72.3378H79.0503V66.5417H80.3056L82.0431 70.9846L83.7807 66.5417Z" fill="black"/>
<path d="M88.3739 72.3378L88.9056 70.886H91.6572L92.2382 72.3378H93.1536L90.6925 66.5417H89.969L87.4531 72.3378H88.3739ZM89.1961 70.2121L90.3033 67.5059L91.3667 70.2121H89.1961Z" fill="black"/>
<path d="M99.8241 67.7469L100.405 67.0731C100.164 66.8759 99.8241 66.6841 99.4843 66.5417C99.1006 66.3938 98.7114 66.3445 98.2291 66.3445C97.7961 66.3445 97.4069 66.4431 97.0232 66.591C96.6341 66.7334 96.3435 66.9745 96.053 67.2155C95.8119 67.5059 95.5707 67.7962 95.4282 68.1797C95.2802 68.5687 95.187 69.0014 95.187 69.4397C95.187 69.9217 95.2802 70.3053 95.4282 70.6942C95.5707 71.0776 95.768 71.368 96.053 71.6583C96.2942 71.9487 96.6341 72.1404 97.0232 72.2884C97.4069 72.4308 97.8454 72.5294 98.2784 72.5294C98.6621 72.5294 99.1006 72.4801 99.435 72.3814C99.8241 72.2884 100.164 72.1404 100.454 71.998V69.1986H98.3771V69.8725H99.6323V71.4667C99.4843 71.5597 99.2925 71.6091 99.0513 71.6583C98.8101 71.7077 98.5689 71.757 98.2784 71.757C97.9386 71.757 97.6481 71.6583 97.3576 71.5597C97.0726 71.4667 96.8259 71.2749 96.6341 71.0776C96.4422 70.886 96.2942 70.6449 96.201 70.3545C96.1024 70.0642 96.053 69.7738 96.053 69.4397C96.053 69.1 96.1024 68.8097 96.201 68.5193C96.2942 68.2783 96.4422 67.988 96.6341 67.7962C96.8259 67.6045 97.0232 67.4566 97.3137 67.3141C97.6042 67.1662 97.8893 67.1169 98.2291 67.1169C98.5689 67.1169 98.8594 67.2155 99.1499 67.3141C99.435 67.4072 99.6323 67.5552 99.8241 67.7469Z" fill="black"/>
<path d="M104.319 72.3378V66.5417H103.497V72.3378H104.319Z" fill="black"/>
<path d="M111.516 71.1764L108.523 66.5417H107.459V72.3378H108.282V67.6045L111.324 72.3378H112.338V66.5417H111.516V71.1764Z" fill="black"/>
<path d="M119.25 71.6091V72.3378H115.43V66.5417H119.151V67.2649H116.252V69.0015H118.96V69.6808H116.252V71.6091H119.25Z" fill="black"/>
<path d="M128.672 67.6045L129.297 67.1663C129.105 66.9745 128.864 66.7828 128.573 66.6842C128.234 66.5417 127.943 66.4924 127.609 66.4924C127.367 66.4924 127.126 66.5417 126.885 66.591C126.638 66.6349 126.447 66.7335 126.255 66.8759C126.107 67.0238 125.915 67.2156 125.822 67.4073C125.674 67.6045 125.624 67.8456 125.624 68.1359C125.624 68.4262 125.674 68.618 125.772 68.8097C125.866 68.9522 125.964 69.1001 126.107 69.2425C126.255 69.3411 126.397 69.4398 126.595 69.5328C126.737 69.5822 126.929 69.6808 127.126 69.7301C127.318 69.8232 127.51 69.8725 127.658 69.9218C127.8 69.9711 127.943 70.015 128.091 70.1135C128.184 70.2121 128.283 70.3053 128.381 70.4039C128.431 70.5025 128.475 70.6449 128.475 70.8367C128.475 70.9846 128.431 71.127 128.381 71.2749C128.283 71.368 128.234 71.4667 128.091 71.5598C127.943 71.6584 127.85 71.7077 127.702 71.757C127.609 71.8063 127.461 71.8063 127.318 71.8063C127.077 71.8063 126.836 71.757 126.595 71.6091C126.397 71.5159 126.205 71.3188 126.063 71.127L125.433 71.6584C125.624 71.9487 125.915 72.1405 126.255 72.2884C126.595 72.4308 126.929 72.4802 127.318 72.4802C127.559 72.4802 127.8 72.4308 128.042 72.3815C128.283 72.2884 128.475 72.1898 128.672 72.0474C128.864 71.8995 129.006 71.757 129.105 71.5159C129.204 71.3188 129.248 71.0339 129.248 70.7436C129.248 70.4532 129.204 70.2121 129.105 70.015C129.006 69.8232 128.864 69.6808 128.716 69.5328C128.573 69.4398 128.381 69.3411 128.184 69.2425C127.992 69.1987 127.8 69.1001 127.609 69.0507C127.411 69.0015 127.269 68.9522 127.126 68.9083C126.978 68.8591 126.836 68.8097 126.737 68.7111C126.638 68.618 126.545 68.5194 126.496 68.4262C126.447 68.3276 126.397 68.1797 126.397 68.0373C126.397 67.8456 126.447 67.6976 126.496 67.6045C126.545 67.5059 126.638 67.4073 126.737 67.3142C126.885 67.2156 126.978 67.1663 127.126 67.1169C127.269 67.0731 127.367 67.0731 127.51 67.0731C127.751 67.0731 127.992 67.1169 128.184 67.2156C128.381 67.3142 128.573 67.4566 128.672 67.6045Z" fill="black"/>
<path d="M137.947 69.4397C137.947 69.0014 137.853 68.5687 137.705 68.1797C137.563 67.7962 137.366 67.4566 137.075 67.2155C136.79 66.9252 136.499 66.7334 136.11 66.591C135.771 66.4431 135.338 66.3445 134.904 66.3445C134.466 66.3445 134.082 66.4431 133.693 66.591C133.309 66.7334 133.019 66.9745 132.728 67.2155C132.487 67.5059 132.246 67.7962 132.104 68.1797C131.956 68.5687 131.857 69.0014 131.857 69.4397C131.857 69.9217 131.956 70.3053 132.104 70.6942C132.246 71.0776 132.438 71.368 132.728 71.6583C133.019 71.9487 133.309 72.1404 133.693 72.2884C134.033 72.4308 134.466 72.5294 134.904 72.5294C135.338 72.5294 135.727 72.4308 136.11 72.2884C136.499 72.1404 136.79 71.9487 137.075 71.6583C137.322 71.368 137.563 71.0776 137.705 70.6942C137.853 70.3053 137.947 69.8725 137.947 69.4397ZM137.075 69.4397C137.075 69.7738 137.031 70.0642 136.932 70.3545C136.834 70.6449 136.691 70.886 136.499 71.0776C136.302 71.2749 136.11 71.4667 135.82 71.5597C135.529 71.7077 135.244 71.757 134.904 71.757C134.565 71.757 134.225 71.6583 133.984 71.5597C133.742 71.4667 133.501 71.2749 133.309 71.0776C133.118 70.886 132.97 70.6449 132.876 70.3545C132.778 70.0642 132.728 69.7738 132.728 69.4397C132.728 69.1 132.778 68.8097 132.876 68.5193C132.97 68.2783 133.118 67.988 133.309 67.7962C133.501 67.6045 133.693 67.4566 133.984 67.3141C134.274 67.1662 134.565 67.1169 134.904 67.1169C135.244 67.1169 135.529 67.1662 135.82 67.3141C136.061 67.4072 136.302 67.6045 136.499 67.7962C136.691 67.988 136.834 68.229 136.932 68.5193C137.031 68.8097 137.075 69.1 137.075 69.4397Z" fill="black"/>
<path d="M141.569 72.3378V69.7301H144.178V69.0508H141.569V67.2649H144.376V66.5417H140.747V72.3378H141.569Z" fill="black"/>
<path d="M149.106 72.3378V67.2649H150.942V66.5417H146.453V67.2649H148.289V72.3378H149.106Z" fill="black"/>
<path d="M156.308 66.5417H157.18L158.528 71.1764L159.789 66.5417H160.655L158.967 72.3378H158.144L156.741 67.6484L155.344 72.3378H154.521L152.828 66.5417H153.699L154.954 71.1764L156.308 66.5417Z" fill="black"/>
<path d="M163.314 72.3378L163.845 70.886H166.603L167.178 72.3378H168.099L165.632 66.5417H164.909L162.398 72.3378H163.314ZM164.185 70.2121L165.298 67.5059L166.356 70.2121H164.185Z" fill="black"/>
<path d="M171.382 72.3378H171.332V69.7739H172.204L173.656 72.3378H174.621L173.026 69.6808C173.459 69.6314 173.799 69.4398 174.04 69.1987C174.281 68.9522 174.429 68.618 174.429 68.1797C174.429 67.8456 174.38 67.6045 174.281 67.4073C174.188 67.2156 174.04 67.0731 173.848 66.9252C173.656 66.7828 173.41 66.6842 173.169 66.6349C172.927 66.5911 172.686 66.5417 172.396 66.5417H170.56V72.3378H171.382ZM171.382 69.1001V67.2649H172.352C172.494 67.2649 172.686 67.2649 172.834 67.3142C173.026 67.3142 173.169 67.4073 173.267 67.4566C173.41 67.5552 173.508 67.6484 173.558 67.747C173.607 67.8456 173.656 67.988 173.656 68.1797C173.656 68.377 173.607 68.5194 173.558 68.618C173.508 68.7112 173.41 68.8097 173.267 68.9083C173.125 68.9522 172.977 69.0015 172.834 69.0508C172.686 69.1001 172.494 69.1001 172.303 69.1001H171.382Z" fill="black"/>
<path d="M181.095 71.6091V72.3378H177.28V66.5417H180.996V67.2649H178.102V69.0015H180.804V69.6808H178.102V71.6091H181.095Z" fill="black"/>
<path d="M52.8823 77.0504H53.9688V39H52.8823V77.0504Z" fill="black"/>
</svg>
