<svg width="163" height="39" viewBox="0 0 163 39" fill="none" xmlns="http://www.w3.org/2000/svg">
<path d="M7.54873 27.2362C7.30621 28.0254 7.18157 28.8563 7.19541 29.7078C7.19541 34.3118 10.9361 38.0504 15.5426 38.0504C20.1491 38.0504 23.8897 34.3118 23.8897 29.7078C23.8897 25.1384 20.1976 21.4137 15.6188 21.3653C12.0929 21.2891 9.26665 18.4021 9.26665 14.8574C9.26665 11.2642 12.1899 8.34256 15.785 8.34256C18.3204 8.34256 20.5163 9.78954 21.59 11.9011L26.051 11.8873C24.7695 7.42866 20.6617 4.1748 15.785 4.1748C9.87623 4.1748 5.07568 8.9726 5.07568 14.8712C5.07568 20.6798 9.73078 25.4292 15.5288 25.5538C17.8216 25.5538 19.6988 27.4162 19.6988 29.7216C19.6988 32.034 17.8355 33.8964 15.5288 33.8964C13.2151 33.8964 11.3516 32.034 11.3516 29.7216C11.3516 29.5001 11.3656 29.2786 11.4001 29.0639L11.3516 29.0501C9.98704 28.6347 8.7194 28.0116 7.54873 27.2362Z" fill="#F4B400"/>
<path d="M11.4003 29.064C11.3657 29.2786 11.3518 29.5001 11.3518 29.7216C11.3518 32.034 13.2152 33.8964 15.5289 33.8964C17.8356 33.8964 19.699 32.034 19.699 29.7216C19.699 27.4162 17.8218 25.5539 15.5289 25.5539C9.73092 25.4292 5.07583 20.6799 5.07583 14.8712C5.07583 8.97261 9.87637 4.17472 15.7852 4.17472C20.6619 4.17472 24.7696 7.42867 26.0512 11.8873L30.3529 11.8735C28.9744 5.10246 22.9755 0 15.7852 0C7.56271 0 0.905762 6.66023 0.905762 14.8712C0.905762 20.036 3.538 24.5915 7.54887 27.257C8.71954 28.0255 9.98718 28.6486 11.3518 29.064H11.4003Z" fill="#DB4437"/>
<path d="M38.498 14.1472C38.498 19.4525 42.862 23.7682 48.2623 23.7682C52.1771 23.7682 56.582 21.4777 57.3476 16.1265H52.9836C52.3558 18.8251 50.4213 19.8555 48.1704 19.8555C45.1998 19.8555 42.7702 17.7895 42.7702 14.1472C42.7702 10.5915 45.1998 8.43372 48.1704 8.43372C50.4673 8.43372 52.4017 9.46924 53.0295 12.1678H57.3935C56.582 6.8166 52.1771 4.521 48.3031 4.521C42.862 4.521 38.498 8.79586 38.498 14.1472Z" fill="#DB4437"/>
<path d="M59.6904 16.259C59.6904 20.891 63.197 23.7681 67.7856 23.7681C72.6448 23.7681 75.84 20.6206 75.84 16.259V5.01562H71.5678V15.9886C71.5678 18.2383 70.2152 19.9472 67.7856 19.9472C65.3152 19.9472 63.9627 18.1924 63.9627 15.9886V5.01562H59.6904V16.259Z" fill="#DB4437"/>
<path d="M92.2192 4.97485V8.74986H83.537V12.2137H90.9585V15.7642H83.537V19.4984H92.311V23.3192H79.2598V4.97485H92.2192Z" fill="#DB4437"/>
<path d="M93.9751 17.6518C93.9751 20.6207 96.0423 23.7682 101.667 23.7274C106.215 23.7274 109.318 21.7481 109.318 18.0599C109.318 14.5042 106.48 12.979 102.795 12.2138C99.9113 11.673 98.6964 11.0864 98.6964 9.91816C98.6964 9.0662 99.1507 8.20919 101.442 8.20919C103.693 8.20919 104.413 9.24478 104.413 10.2804H108.685C108.685 6.77069 106.302 4.521 101.488 4.521C96.762 4.521 94.4243 6.72479 94.4243 9.91816C94.4243 13.8309 98.2013 14.9991 101.31 15.7643C103.693 16.305 105 16.8458 105 18.1058C105 19.4984 104.051 20.2177 101.667 20.2177C99.4621 20.2177 98.2472 19.1822 98.2472 17.6518H93.9751Z" fill="#DB4437"/>
<path d="M110.803 14.1472C110.803 19.4525 115.254 23.7682 120.792 23.7682C126.279 23.7682 130.781 19.4525 130.781 14.1472C130.781 8.79586 126.279 4.521 120.792 4.521C115.254 4.521 110.803 8.79586 110.803 14.1472ZM126.504 14.1472C126.504 17.4273 123.941 19.8555 120.792 19.8555C117.643 19.8555 115.075 17.4273 115.075 14.1472C115.075 10.8211 117.597 8.43372 120.792 8.43372C123.987 8.43372 126.504 10.8211 126.504 14.1472Z" fill="#DB4437"/>
<path d="M146.303 4.97485V8.79577H137.621V13.0248H145.042V16.5753H137.621V23.3192H133.343V4.97485H146.303Z" fill="#DB4437"/>
<path d="M152.693 8.79577L152.734 23.3192H156.965V8.79577H162.094V4.97485H147.563V8.79577H152.693Z" fill="#DB4437"/>
<path d="M39.3202 33.3378H39.2709V30.7739H40.1425L41.5895 33.3378H42.5542L40.9646 30.6808C41.3976 30.6314 41.7375 30.4398 41.9787 30.1987C42.2198 29.9522 42.3623 29.618 42.3623 29.1797C42.3623 28.8456 42.313 28.6045 42.2198 28.4073C42.1212 28.2156 41.9786 28.0731 41.7813 27.9252C41.5895 27.7828 41.3483 27.6842 41.1071 27.6349C40.866 27.5911 40.6247 27.5417 40.3342 27.5417H38.498V33.3378H39.3202ZM39.3202 30.1001V28.2649H40.285C40.433 28.2649 40.6247 28.2649 40.7672 28.3142C40.9646 28.3142 41.1071 28.4073 41.2058 28.4566C41.3483 28.5552 41.447 28.6484 41.4908 28.747C41.5401 28.8456 41.5895 28.988 41.5895 29.1797C41.5895 29.377 41.5401 29.5194 41.4908 29.618C41.447 29.7112 41.3483 29.8097 41.2058 29.9083C41.0578 29.9522 40.9153 30.0015 40.7672 30.0508C40.6247 30.1001 40.433 30.1001 40.2356 30.1001H39.3202Z" fill="black"/>
<path d="M49.0328 32.6091V33.3378H45.2124V27.5417H48.9341V28.2649H46.0346V30.0015H48.7423V30.6808H46.0346V32.6091H49.0328Z" fill="black"/>
<path d="M53.3797 31.6943V31.0642H51.4941V31.6943H53.3797Z" fill="black"/>
<path d="M56.9531 33.3378V27.5417H56.1309V33.3378H56.9531Z" fill="black"/>
<path d="M64.7807 27.5417H66.0413V33.3378H65.2192V28.5059L63.2842 33.3378H62.7526L60.8232 28.5059V33.3378H60.0503V27.5417H61.3056L63.0431 31.9846L64.7807 27.5417Z" fill="black"/>
<path d="M69.3739 33.3378L69.9056 31.886H72.6572L73.2382 33.3378H74.1536L71.6925 27.5417H70.969L68.4531 33.3378H69.3739ZM70.1961 31.2121L71.3033 28.5059L72.3667 31.2121H70.1961Z" fill="black"/>
<path d="M80.8241 28.7469L81.4052 28.0731C81.164 27.8759 80.8241 27.6841 80.4843 27.5417C80.1006 27.3938 79.7114 27.3445 79.2291 27.3445C78.7961 27.3445 78.4069 27.4431 78.0232 27.591C77.6341 27.7334 77.3435 27.9745 77.053 28.2155C76.8119 28.5059 76.5707 28.7962 76.4282 29.1797C76.2802 29.5687 76.187 30.0014 76.187 30.4397C76.187 30.9217 76.2802 31.3053 76.4282 31.6942C76.5707 32.0776 76.768 32.368 77.053 32.6583C77.2942 32.9487 77.6341 33.1404 78.0232 33.2884C78.4069 33.4308 78.8454 33.5294 79.2784 33.5294C79.6621 33.5294 80.1006 33.4801 80.435 33.3814C80.8241 33.2884 81.164 33.1404 81.4545 32.998V30.1986H79.3771V30.8725H80.6323V32.4667C80.4843 32.5597 80.2925 32.6091 80.0513 32.6583C79.8101 32.7077 79.5689 32.757 79.2784 32.757C78.9386 32.757 78.6481 32.6583 78.3576 32.5597C78.0726 32.4667 77.8259 32.2749 77.6341 32.0776C77.4422 31.886 77.2942 31.6449 77.201 31.3545C77.1024 31.0642 77.053 30.7738 77.053 30.4397C77.053 30.1 77.1024 29.8097 77.201 29.5193C77.2942 29.2783 77.4422 28.988 77.6341 28.7962C77.8259 28.6045 78.0232 28.4566 78.3137 28.3141C78.6042 28.1662 78.8893 28.1169 79.2291 28.1169C79.5689 28.1169 79.8594 28.2155 80.1499 28.3141C80.435 28.4072 80.6323 28.5552 80.8241 28.7469Z" fill="black"/>
<path d="M85.3193 33.3378V27.5417H84.4971V33.3378H85.3193Z" fill="black"/>
<path d="M92.5156 32.1764L89.5228 27.5417H88.4595V33.3378H89.2817V28.6045L92.3237 33.3378H93.3378V27.5417H92.5156V32.1764Z" fill="black"/>
<path d="M100.25 32.6091V33.3378H96.4297V27.5417H100.151V28.2649H97.2518V30.0015H99.9596V30.6808H97.2518V32.6091H100.25Z" fill="black"/>
<path d="M109.672 28.6045L110.297 28.1663C110.105 27.9745 109.864 27.7828 109.573 27.6842C109.234 27.5417 108.943 27.4924 108.609 27.4924C108.367 27.4924 108.126 27.5417 107.885 27.591C107.638 27.6349 107.447 27.7335 107.255 27.8759C107.107 28.0238 106.915 28.2156 106.822 28.4073C106.674 28.6045 106.624 28.8456 106.624 29.1359C106.624 29.4262 106.674 29.618 106.772 29.8097C106.866 29.9522 106.964 30.1001 107.107 30.2425C107.255 30.3411 107.397 30.4398 107.595 30.5328C107.737 30.5822 107.929 30.6808 108.126 30.7301C108.318 30.8232 108.51 30.8725 108.658 30.9218C108.8 30.9711 108.943 31.015 109.091 31.1135C109.184 31.2121 109.283 31.3053 109.381 31.4039C109.431 31.5025 109.475 31.6449 109.475 31.8367C109.475 31.9846 109.431 32.127 109.381 32.2749C109.283 32.368 109.234 32.4667 109.091 32.5598C108.943 32.6584 108.85 32.7077 108.702 32.757C108.609 32.8063 108.461 32.8063 108.318 32.8063C108.077 32.8063 107.836 32.757 107.595 32.6091C107.397 32.5159 107.205 32.3188 107.063 32.127L106.433 32.6584C106.624 32.9487 106.915 33.1405 107.255 33.2884C107.595 33.4308 107.929 33.4802 108.318 33.4802C108.559 33.4802 108.8 33.4308 109.042 33.3815C109.283 33.2884 109.475 33.1898 109.672 33.0474C109.864 32.8995 110.006 32.757 110.105 32.5159C110.204 32.3188 110.248 32.0339 110.248 31.7436C110.248 31.4532 110.204 31.2121 110.105 31.015C110.006 30.8232 109.864 30.6808 109.716 30.5328C109.573 30.4398 109.381 30.3411 109.184 30.2425C108.992 30.1987 108.8 30.1001 108.609 30.0507C108.411 30.0015 108.269 29.9522 108.126 29.9083C107.978 29.8591 107.836 29.8097 107.737 29.7111C107.638 29.618 107.545 29.5194 107.496 29.4262C107.447 29.3276 107.397 29.1797 107.397 29.0373C107.397 28.8456 107.447 28.6976 107.496 28.6045C107.545 28.5059 107.638 28.4073 107.737 28.3142C107.885 28.2156 107.978 28.1663 108.126 28.1169C108.269 28.0731 108.367 28.0731 108.51 28.0731C108.751 28.0731 108.992 28.1169 109.184 28.2156C109.381 28.3142 109.573 28.4566 109.672 28.6045Z" fill="black"/>
<path d="M118.947 30.4397C118.947 30.0014 118.853 29.5687 118.705 29.1797C118.563 28.7962 118.366 28.4566 118.075 28.2155C117.79 27.9252 117.499 27.7334 117.11 27.591C116.771 27.4431 116.338 27.3445 115.904 27.3445C115.466 27.3445 115.082 27.4431 114.693 27.591C114.309 27.7334 114.019 27.9745 113.728 28.2155C113.487 28.5059 113.246 28.7962 113.104 29.1797C112.956 29.5687 112.857 30.0014 112.857 30.4397C112.857 30.9217 112.956 31.3053 113.104 31.6942C113.246 32.0776 113.438 32.368 113.728 32.6583C114.019 32.9487 114.309 33.1404 114.693 33.2884C115.033 33.4308 115.466 33.5294 115.904 33.5294C116.338 33.5294 116.727 33.4308 117.11 33.2884C117.499 33.1404 117.79 32.9487 118.075 32.6583C118.322 32.368 118.563 32.0776 118.705 31.6942C118.853 31.3053 118.947 30.8725 118.947 30.4397ZM118.075 30.4397C118.075 30.7738 118.031 31.0642 117.932 31.3545C117.834 31.6449 117.691 31.886 117.499 32.0776C117.302 32.2749 117.11 32.4667 116.82 32.5597C116.529 32.7077 116.244 32.757 115.904 32.757C115.565 32.757 115.225 32.6583 114.984 32.5597C114.742 32.4667 114.501 32.2749 114.309 32.0776C114.118 31.886 113.97 31.6449 113.876 31.3545C113.778 31.0642 113.728 30.7738 113.728 30.4397C113.728 30.1 113.778 29.8097 113.876 29.5193C113.97 29.2783 114.118 28.988 114.309 28.7962C114.501 28.6045 114.693 28.4566 114.984 28.3141C115.274 28.1662 115.565 28.1169 115.904 28.1169C116.244 28.1169 116.529 28.1662 116.82 28.3141C117.061 28.4072 117.302 28.6045 117.499 28.7962C117.691 28.988 117.834 29.229 117.932 29.5193C118.031 29.8097 118.075 30.1 118.075 30.4397Z" fill="black"/>
<path d="M122.569 33.3378V30.7301H125.178V30.0508H122.569V28.2649H125.376V27.5417H121.747V33.3378H122.569Z" fill="black"/>
<path d="M130.106 33.3378V28.2649H131.942V27.5417H127.453V28.2649H129.289V33.3378H130.106Z" fill="black"/>
<path d="M137.308 27.5417H138.18L139.528 32.1764L140.789 27.5417H141.655L139.967 33.3378H139.144L137.741 28.6484L136.344 33.3378H135.521L133.828 27.5417H134.699L135.954 32.1764L137.308 27.5417Z" fill="black"/>
<path d="M144.314 33.3378L144.845 31.886H147.603L148.178 33.3378H149.099L146.632 27.5417H145.909L143.398 33.3378H144.314ZM145.185 31.2121L146.298 28.5059L147.356 31.2121H145.185Z" fill="black"/>
<path d="M152.382 33.3378H152.332V30.7739H153.204L154.656 33.3378H155.621L154.026 30.6808C154.459 30.6314 154.799 30.4398 155.04 30.1987C155.281 29.9522 155.429 29.618 155.429 29.1797C155.429 28.8456 155.38 28.6045 155.281 28.4073C155.188 28.2156 155.04 28.0731 154.848 27.9252C154.656 27.7828 154.41 27.6842 154.169 27.6349C153.927 27.5911 153.686 27.5417 153.396 27.5417H151.56V33.3378H152.382ZM152.382 30.1001V28.2649H153.352C153.494 28.2649 153.686 28.2649 153.834 28.3142C154.026 28.3142 154.169 28.4073 154.267 28.4566C154.41 28.5552 154.508 28.6484 154.558 28.747C154.607 28.8456 154.656 28.988 154.656 29.1797C154.656 29.377 154.607 29.5194 154.558 29.618C154.508 29.7112 154.41 29.8097 154.267 29.9083C154.125 29.9522 153.977 30.0015 153.834 30.0508C153.686 30.1001 153.494 30.1001 153.303 30.1001H152.382Z" fill="black"/>
<path d="M162.095 32.6091V33.3378H158.28V27.5417H161.996V28.2649H159.102V30.0015H161.804V30.6808H159.102V32.6091H162.095Z" fill="black"/>
<path d="M33.8823 38.0504H34.9688V0H33.8823V38.0504Z" fill="black"/>
</svg>
