<svg width="14" height="14" viewBox="0 0 14 14" fill="none" xmlns="http://www.w3.org/2000/svg">
<g clip-path="url(#clip0_662_349)">
<path d="M5.0496 0.266039C5.13121 0.365207 5.18121 0.48657 5.19313 0.614446C5.20505 0.742323 5.17835 0.870837 5.11648 0.983383C4.63312 1.87085 4.38069 2.86561 4.38242 3.87617C4.38242 7.23799 7.12304 9.96022 10.5007 9.96022C10.9414 9.96022 11.3703 9.91424 11.7824 9.82645C11.9088 9.79909 12.0404 9.80955 12.1608 9.85654C12.2813 9.90352 12.3852 9.98495 12.4596 10.0906C12.5382 10.2005 12.5783 10.3333 12.5736 10.4684C12.5689 10.6034 12.5197 10.7331 12.4337 10.8373C11.778 11.6427 10.9508 12.2918 10.0123 12.7369C9.07393 13.1821 8.04799 13.4123 7.00933 13.4107C3.15507 13.4107 0.0332031 10.3055 0.0332031 6.47968C0.0332031 3.60027 1.80065 1.13053 4.3172 0.0837767C4.44256 0.0307968 4.58173 0.0199229 4.71379 0.0527885C4.84586 0.0856541 4.96369 0.160485 5.0496 0.266039Z" fill="white"/>
<path d="M9.05733 2.66584C9.06932 2.62963 9.09241 2.59813 9.12333 2.57579C9.15425 2.55346 9.19142 2.54144 9.22956 2.54144C9.2677 2.54144 9.30487 2.55346 9.33579 2.57579C9.3667 2.59813 9.3898 2.62963 9.40179 2.66584L9.72535 3.63735C9.86998 4.07043 10.2094 4.40987 10.6425 4.55451L11.614 4.87807C11.6502 4.89006 11.6817 4.91315 11.7041 4.94407C11.7264 4.97499 11.7384 5.01216 11.7384 5.0503C11.7384 5.08844 11.7264 5.12561 11.7041 5.15653C11.6817 5.18744 11.6502 5.21054 11.614 5.22253L10.6425 5.54608C10.4289 5.61725 10.2348 5.73718 10.0756 5.89637C9.91644 6.05557 9.79651 6.24966 9.72535 6.46325L9.40179 7.43476C9.3898 7.47096 9.3667 7.50247 9.33579 7.5248C9.30487 7.54713 9.2677 7.55915 9.22956 7.55915C9.19142 7.55915 9.15425 7.54713 9.12333 7.5248C9.09241 7.50247 9.06932 7.47096 9.05733 7.43476L8.73377 6.46325C8.66261 6.24966 8.54268 6.05557 8.38348 5.89637C8.22429 5.73718 8.0302 5.61725 7.81661 5.54608L6.8451 5.22253C6.80889 5.21054 6.77739 5.18744 6.75505 5.15653C6.73272 5.12561 6.7207 5.08844 6.7207 5.0503C6.7207 5.01216 6.73272 4.97499 6.75505 4.94407C6.77739 4.91315 6.80889 4.89006 6.8451 4.87807L7.81661 4.55451C8.0302 4.48335 8.22429 4.36342 8.38348 4.20422C8.54268 4.04503 8.66261 3.85094 8.73377 3.63735L9.05733 2.66584ZM11.6232 0.116675C11.6315 0.092869 11.6469 0.0722262 11.6675 0.0576165C11.688 0.0430068 11.7126 0.0351562 11.7378 0.0351562C11.763 0.0351563 11.7875 0.0430068 11.808 0.0576165C11.8286 0.0722262 11.844 0.092869 11.8523 0.116675L12.068 0.76379C12.1641 1.05307 12.3907 1.27964 12.68 1.37579L13.3271 1.59149C13.3509 1.59975 13.3716 1.61521 13.3862 1.63574C13.4008 1.65627 13.4086 1.68084 13.4086 1.70604C13.4086 1.73123 13.4008 1.7558 13.3862 1.77633C13.3716 1.79686 13.3509 1.81232 13.3271 1.82058L12.68 2.03628C12.5374 2.08371 12.4079 2.16371 12.3017 2.26995C12.1954 2.37618 12.1154 2.50572 12.068 2.64828L11.8523 3.2954C11.844 3.3192 11.8286 3.33984 11.808 3.35445C11.7875 3.36906 11.763 3.37691 11.7378 3.37691C11.7126 3.37691 11.688 3.36906 11.6675 3.35445C11.6469 3.33984 11.6315 3.3192 11.6232 3.2954L11.4075 2.64828C11.3601 2.50572 11.2801 2.37618 11.1738 2.26995C11.0676 2.16371 10.9381 2.08371 10.7955 2.03628L10.1484 1.82058C10.1246 1.81232 10.1039 1.79686 10.0893 1.77633C10.0747 1.7558 10.0669 1.73123 10.0669 1.70604C10.0669 1.68084 10.0747 1.65627 10.0893 1.63574C10.1039 1.61521 10.1246 1.59975 10.1484 1.59149L10.7955 1.37579C11.0848 1.27964 11.3114 1.05307 11.4075 0.76379L11.6232 0.117511V0.116675Z" fill="white"/>
</g>
<defs>
<clipPath id="clip0_662_349">
<rect width="13.3771" height="13.377" fill="white" transform="translate(0.0332031 0.0332031)"/>
</clipPath>
</defs>
</svg>
