<svg width="51" height="50" viewBox="0 0 51 50" fill="none" xmlns="http://www.w3.org/2000/svg">
<path d="M25.4082 46.8754C24.818 46.8756 24.2381 46.7204 23.727 46.4254L18.377 43.2582C17.5785 42.8113 17.9676 42.6535 18.2317 42.5613C19.0808 42.299 19.8939 41.9315 20.652 41.4676C20.7154 41.4382 20.7853 41.4255 20.855 41.4307C20.9248 41.4359 20.992 41.4588 21.0504 41.4972L25.1613 43.9394C25.2379 43.9799 25.3232 44.0011 25.4098 44.0011C25.4964 44.0011 25.5817 43.9799 25.6582 43.9394L41.6895 34.6863C41.7645 34.6414 41.8265 34.5777 41.8695 34.5015C41.9125 34.4254 41.935 34.3394 41.9348 34.2519V15.7426C41.9348 15.6537 41.912 15.5664 41.8685 15.4889C41.825 15.4115 41.7622 15.3465 41.6863 15.3004L25.6551 6.05506C25.5795 6.01248 25.4942 5.99011 25.4074 5.99011C25.3207 5.99011 25.2354 6.01248 25.1598 6.05506L9.1379 15.3035C9.06148 15.3487 8.99802 15.4129 8.95367 15.4898C8.90933 15.5667 8.8856 15.6538 8.88478 15.7426V34.2441C8.885 34.3314 8.90841 34.417 8.95261 34.4922C8.99681 34.5675 9.06022 34.6296 9.13634 34.6722L13.5332 37.2097C15.916 38.4004 17.3754 36.9972 17.3754 35.5879V17.3207C17.3754 17.1964 17.4248 17.0771 17.5127 16.9892C17.6006 16.9013 17.7198 16.8519 17.8442 16.8519H19.8754C19.9997 16.8519 20.1189 16.9013 20.2069 16.9892C20.2948 17.0771 20.3442 17.1964 20.3442 17.3207V35.5894C20.3442 38.7691 18.6129 40.5894 15.5973 40.5894C14.2963 40.6121 13.0157 40.2642 11.9051 39.5863L7.69103 37.1691C7.17945 36.8712 6.75496 36.4443 6.45994 35.931C6.16493 35.4178 6.00971 34.8361 6.00978 34.2441V15.7426C6.00826 15.1496 6.16282 14.5668 6.45794 14.0525C6.75306 13.5382 7.17833 13.1107 7.69103 12.8129L23.7238 3.55662C24.2403 3.27407 24.8195 3.12598 25.4082 3.12598C25.9969 3.12598 26.5761 3.27407 27.0926 3.55662L43.1238 12.8129C43.6354 13.1102 44.0599 13.5365 44.3552 14.0492C44.6505 14.5619 44.8062 15.1431 44.8067 15.7347V34.2441C44.8058 34.8361 44.65 35.4176 44.3548 35.9307C44.0596 36.4439 43.6352 36.8708 43.1238 37.1691L27.0926 46.4254C26.5805 46.7208 25.9995 46.8761 25.4082 46.8754Z" fill="#83CD29"/>
<path d="M22.3672 28.0516C22.3672 27.9272 22.4166 27.808 22.5045 27.7201C22.5924 27.6322 22.7116 27.5828 22.8359 27.5828H24.9094C25.0202 27.5832 25.1272 27.6228 25.2116 27.6946C25.296 27.7663 25.3522 27.8657 25.3703 27.975C25.6828 30.0859 26.6203 31.15 30.8594 31.15C34.2359 31.15 35.675 30.3859 35.675 28.5937C35.675 27.5609 35.2672 26.7938 30.0188 26.2797C25.6313 25.8453 22.9187 24.8734 22.9187 21.3672C22.9187 18.1328 25.6453 16.2031 30.2156 16.2031C35.3516 16.2031 37.8938 17.9859 38.2156 21.8109C38.2205 21.8748 38.2123 21.939 38.1915 21.9995C38.1706 22.0601 38.1376 22.1157 38.0944 22.163C38.0512 22.2103 37.9988 22.2483 37.9403 22.2745C37.8819 22.3008 37.8187 22.3147 37.7547 22.3156H35.6672C35.5625 22.3142 35.4612 22.2777 35.3797 22.212C35.2981 22.1463 35.2409 22.0551 35.2172 21.9531C34.7188 19.7328 33.4984 19.0234 30.2172 19.0234C26.5297 19.0234 26.1016 20.3078 26.1016 21.2703C26.1016 22.4359 26.6078 22.7766 31.5859 23.4344C36.5125 24.0859 38.8531 25.0078 38.8531 28.4703C38.8531 31.9641 35.9406 33.9641 30.8609 33.9641C23.8375 33.9734 22.3672 30.7531 22.3672 28.0516Z" fill="#83CD29"/>
</svg>
