<svg width="203" height="250" viewBox="0 0 203 250" fill="none" xmlns="http://www.w3.org/2000/svg">
<path d="M1.95192 0L3.64234 2.92969H0.261508L1.95192 0Z" fill="#EE8888"/>
<path d="M1.95192 0L3.64234 2.92969H0.261508L1.95192 0Z" fill="#EE8888"/>
<path d="M1.95192 11.7188L3.64234 14.6484H0.261508L1.95192 11.7188Z" fill="#EE8888"/>
<path d="M1.95192 23.4375L3.64234 26.3672H0.261508L1.95192 23.4375Z" fill="#EE8888"/>
<path d="M1.95192 35.1562L3.64234 38.0859H0.261508L1.95192 35.1562Z" fill="#EE8888"/>
<path d="M1.95192 46.875L3.64234 49.8047H0.261508L1.95192 46.875Z" fill="#EE8888"/>
<path d="M1.95192 58.5938L3.64234 61.5234H0.261508L1.95192 58.5938Z" fill="#EE8888"/>
<path d="M1.95192 70.3125L3.64234 73.2422H0.261508L1.95192 70.3125Z" fill="#EE8888"/>
<path d="M1.95192 82.0312L3.64234 84.9609H0.261508L1.95192 82.0312Z" fill="#EE8888"/>
<path d="M1.95192 93.75L3.64234 96.6797H0.261508L1.95192 93.75Z" fill="#EE8888"/>
<path d="M1.95192 105.469L3.64234 108.398H0.261508L1.95192 105.469Z" fill="#EE8888"/>
<path d="M1.95192 117.188L3.64234 120.117H0.261508L1.95192 117.188Z" fill="#EE8888"/>
<path d="M1.95192 128.906L3.64234 131.836H0.261508L1.95192 128.906Z" fill="#EE8888"/>
<path d="M1.95192 140.625L3.64234 143.555H0.261508L1.95192 140.625Z" fill="#EE8888"/>
<path d="M1.95192 152.344L3.64234 155.273H0.261508L1.95192 152.344Z" fill="#EE8888"/>
<path d="M1.95192 164.062L3.64234 166.992H0.261508L1.95192 164.062Z" fill="#EE8888"/>
<path d="M1.95192 175.781L3.64234 178.711H0.261508L1.95192 175.781Z" fill="#EE8888"/>
<path d="M1.95192 187.5L3.64234 190.43H0.261508L1.95192 187.5Z" fill="#EE8888"/>
<path d="M1.95192 199.219L3.64234 202.148H0.261508L1.95192 199.219Z" fill="#EE8888"/>
<path d="M1.95192 210.938L3.64234 213.867H0.261508L1.95192 210.938Z" fill="#EE8888"/>
<path d="M1.95192 222.656L3.64234 225.586H0.261508L1.95192 222.656Z" fill="#EE8888"/>
<path d="M1.95192 234.375L3.64234 237.305H0.261508L1.95192 234.375Z" fill="#EE8888"/>
<path d="M1.95192 246.094L3.64234 249.023H0.261508L1.95192 246.094Z" fill="#EE8888"/>
<path d="M1.95192 0L3.64234 2.92969H0.261508L1.95192 0Z" fill="#EE8888"/>
<path d="M1.95192 0L3.64234 2.92969H0.261508L1.95192 0Z" fill="#EE8888"/>
<path d="M1.95192 11.7188L3.64234 14.6484H0.261508L1.95192 11.7188Z" fill="#EE8888"/>
<path d="M1.95192 23.4375L3.64234 26.3672H0.261508L1.95192 23.4375Z" fill="#EE8888"/>
<path d="M1.95192 35.1562L3.64234 38.0859H0.261508L1.95192 35.1562Z" fill="#EE8888"/>
<path d="M1.95192 46.875L3.64234 49.8047H0.261508L1.95192 46.875Z" fill="#EE8888"/>
<path d="M1.95192 58.5938L3.64234 61.5234H0.261508L1.95192 58.5938Z" fill="#EE8888"/>
<path d="M1.95192 70.3125L3.64234 73.2422H0.261508L1.95192 70.3125Z" fill="#EE8888"/>
<path d="M1.95192 82.0312L3.64234 84.9609H0.261508L1.95192 82.0312Z" fill="#EE8888"/>
<path d="M1.95192 93.75L3.64234 96.6797H0.261508L1.95192 93.75Z" fill="#EE8888"/>
<path d="M1.95192 105.469L3.64234 108.398H0.261508L1.95192 105.469Z" fill="#EE8888"/>
<path d="M1.95192 117.188L3.64234 120.117H0.261508L1.95192 117.188Z" fill="#EE8888"/>
<path d="M1.95192 128.906L3.64234 131.836H0.261508L1.95192 128.906Z" fill="#EE8888"/>
<path d="M1.95192 140.625L3.64234 143.555H0.261508L1.95192 140.625Z" fill="#EE8888"/>
<path d="M1.95192 152.344L3.64234 155.273H0.261508L1.95192 152.344Z" fill="#EE8888"/>
<path d="M1.95192 164.062L3.64234 166.992H0.261508L1.95192 164.062Z" fill="#EE8888"/>
<path d="M1.95192 175.781L3.64234 178.711H0.261508L1.95192 175.781Z" fill="#EE8888"/>
<path d="M1.95192 187.5L3.64234 190.43H0.261508L1.95192 187.5Z" fill="#EE8888"/>
<path d="M1.95192 199.219L3.64234 202.148H0.261508L1.95192 199.219Z" fill="#EE8888"/>
<path d="M1.95192 210.938L3.64234 213.867H0.261508L1.95192 210.938Z" fill="#EE8888"/>
<path d="M1.95192 222.656L3.64234 225.586H0.261508L1.95192 222.656Z" fill="#EE8888"/>
<path d="M1.95192 234.375L3.64234 237.305H0.261508L1.95192 234.375Z" fill="#EE8888"/>
<path d="M1.95192 246.094L3.64234 249.023H0.261508L1.95192 246.094Z" fill="#EE8888"/>
<path d="M13.6633 0L15.3538 2.92969H11.9729L13.6633 0Z" fill="#EE8888"/>
<path d="M13.6633 0L15.3538 2.92969H11.9729L13.6633 0Z" fill="#EE8888"/>
<path d="M13.6633 11.7188L15.3538 14.6484H11.9729L13.6633 11.7188Z" fill="#EE8888"/>
<path d="M13.6633 23.4375L15.3538 26.3672H11.9729L13.6633 23.4375Z" fill="#EE8888"/>
<path d="M13.6633 35.1562L15.3538 38.0859H11.9729L13.6633 35.1562Z" fill="#EE8888"/>
<path d="M13.6633 46.875L15.3538 49.8047H11.9729L13.6633 46.875Z" fill="#EE8888"/>
<path d="M13.6633 58.5938L15.3538 61.5234H11.9729L13.6633 58.5938Z" fill="#EE8888"/>
<path d="M13.6633 70.3125L15.3538 73.2422H11.9729L13.6633 70.3125Z" fill="#EE8888"/>
<path d="M13.6633 82.0312L15.3538 84.9609H11.9729L13.6633 82.0312Z" fill="#EE8888"/>
<path d="M13.6633 93.75L15.3538 96.6797H11.9729L13.6633 93.75Z" fill="#EE8888"/>
<path d="M13.6633 105.469L15.3538 108.398H11.9729L13.6633 105.469Z" fill="#EE8888"/>
<path d="M13.6633 117.188L15.3538 120.117H11.9729L13.6633 117.188Z" fill="#EE8888"/>
<path d="M13.6633 128.906L15.3538 131.836H11.9729L13.6633 128.906Z" fill="#EE8888"/>
<path d="M13.6633 140.625L15.3538 143.555H11.9729L13.6633 140.625Z" fill="#EE8888"/>
<path d="M13.6633 152.344L15.3538 155.273H11.9729L13.6633 152.344Z" fill="#EE8888"/>
<path d="M13.6633 164.062L15.3538 166.992H11.9729L13.6633 164.062Z" fill="#EE8888"/>
<path d="M13.6633 175.781L15.3538 178.711H11.9729L13.6633 175.781Z" fill="#EE8888"/>
<path d="M13.6633 187.5L15.3538 190.43H11.9729L13.6633 187.5Z" fill="#EE8888"/>
<path d="M13.6633 199.219L15.3538 202.148H11.9729L13.6633 199.219Z" fill="#EE8888"/>
<path d="M13.6633 210.938L15.3538 213.867H11.9729L13.6633 210.938Z" fill="#EE8888"/>
<path d="M13.6633 222.656L15.3538 225.586H11.9729L13.6633 222.656Z" fill="#EE8888"/>
<path d="M13.6633 234.375L15.3538 237.305H11.9729L13.6633 234.375Z" fill="#EE8888"/>
<path d="M13.6633 246.094L15.3538 249.023H11.9729L13.6633 246.094Z" fill="#EE8888"/>
<path d="M25.3748 0L27.0652 2.92969H23.6844L25.3748 0Z" fill="#EE8888"/>
<path d="M25.3748 0L27.0652 2.92969H23.6844L25.3748 0Z" fill="#EE8888"/>
<path d="M25.3748 11.7188L27.0652 14.6484H23.6844L25.3748 11.7188Z" fill="#EE8888"/>
<path d="M25.3748 23.4375L27.0652 26.3672H23.6844L25.3748 23.4375Z" fill="#EE8888"/>
<path d="M25.3748 35.1562L27.0652 38.0859H23.6844L25.3748 35.1562Z" fill="#EE8888"/>
<path d="M25.3748 46.875L27.0652 49.8047H23.6844L25.3748 46.875Z" fill="#EE8888"/>
<path d="M25.3748 58.5938L27.0652 61.5234H23.6844L25.3748 58.5938Z" fill="#EE8888"/>
<path d="M25.3748 70.3125L27.0652 73.2422H23.6844L25.3748 70.3125Z" fill="#EE8888"/>
<path d="M25.3748 82.0312L27.0652 84.9609H23.6844L25.3748 82.0312Z" fill="#EE8888"/>
<path d="M25.3748 93.75L27.0652 96.6797H23.6844L25.3748 93.75Z" fill="#EE8888"/>
<path d="M25.3748 105.469L27.0652 108.398H23.6844L25.3748 105.469Z" fill="#EE8888"/>
<path d="M25.3748 117.188L27.0652 120.117H23.6844L25.3748 117.188Z" fill="#EE8888"/>
<path d="M25.3748 128.906L27.0652 131.836H23.6844L25.3748 128.906Z" fill="#EE8888"/>
<path d="M25.3748 140.625L27.0652 143.555H23.6844L25.3748 140.625Z" fill="#EE8888"/>
<path d="M25.3748 152.344L27.0652 155.273H23.6844L25.3748 152.344Z" fill="#EE8888"/>
<path d="M25.3748 164.062L27.0652 166.992H23.6844L25.3748 164.062Z" fill="#EE8888"/>
<path d="M25.3748 175.781L27.0652 178.711H23.6844L25.3748 175.781Z" fill="#EE8888"/>
<path d="M25.3748 187.5L27.0652 190.43H23.6844L25.3748 187.5Z" fill="#EE8888"/>
<path d="M25.3748 199.219L27.0652 202.148H23.6844L25.3748 199.219Z" fill="#EE8888"/>
<path d="M25.3748 210.938L27.0652 213.867H23.6844L25.3748 210.938Z" fill="#EE8888"/>
<path d="M25.3748 222.656L27.0652 225.586H23.6844L25.3748 222.656Z" fill="#EE8888"/>
<path d="M25.3748 234.375L27.0652 237.305H23.6844L25.3748 234.375Z" fill="#EE8888"/>
<path d="M25.3748 246.094L27.0652 249.023H23.6844L25.3748 246.094Z" fill="#EE8888"/>
<path d="M37.0867 0L38.7771 2.92969H35.3963L37.0867 0Z" fill="#EE8888"/>
<path d="M37.0867 0L38.7771 2.92969H35.3963L37.0867 0Z" fill="#EE8888"/>
<path d="M37.0867 11.7188L38.7771 14.6484H35.3963L37.0867 11.7188Z" fill="#EE8888"/>
<path d="M37.0867 23.4375L38.7771 26.3672H35.3963L37.0867 23.4375Z" fill="#EE8888"/>
<path d="M37.0867 35.1562L38.7771 38.0859H35.3963L37.0867 35.1562Z" fill="#EE8888"/>
<path d="M37.0867 46.875L38.7771 49.8047H35.3963L37.0867 46.875Z" fill="#EE8888"/>
<path d="M37.0867 58.5938L38.7771 61.5234H35.3963L37.0867 58.5938Z" fill="#EE8888"/>
<path d="M37.0867 70.3125L38.7771 73.2422H35.3963L37.0867 70.3125Z" fill="#EE8888"/>
<path d="M37.0867 82.0312L38.7771 84.9609H35.3963L37.0867 82.0312Z" fill="#EE8888"/>
<path d="M37.0867 93.75L38.7771 96.6797H35.3963L37.0867 93.75Z" fill="#EE8888"/>
<path d="M37.0867 105.469L38.7771 108.398H35.3963L37.0867 105.469Z" fill="#EE8888"/>
<path d="M37.0867 117.188L38.7771 120.117H35.3963L37.0867 117.188Z" fill="#EE8888"/>
<path d="M37.0867 128.906L38.7771 131.836H35.3963L37.0867 128.906Z" fill="#EE8888"/>
<path d="M37.0867 140.625L38.7771 143.555H35.3963L37.0867 140.625Z" fill="#EE8888"/>
<path d="M37.0867 152.344L38.7771 155.273H35.3963L37.0867 152.344Z" fill="#EE8888"/>
<path d="M37.0867 164.062L38.7771 166.992H35.3963L37.0867 164.062Z" fill="#EE8888"/>
<path d="M37.0867 175.781L38.7771 178.711H35.3963L37.0867 175.781Z" fill="#EE8888"/>
<path d="M37.0867 187.5L38.7771 190.43H35.3963L37.0867 187.5Z" fill="#EE8888"/>
<path d="M37.0867 199.219L38.7771 202.148H35.3963L37.0867 199.219Z" fill="#EE8888"/>
<path d="M37.0867 210.938L38.7771 213.867H35.3963L37.0867 210.938Z" fill="#EE8888"/>
<path d="M37.0867 222.656L38.7771 225.586H35.3963L37.0867 222.656Z" fill="#EE8888"/>
<path d="M37.0867 234.375L38.7771 237.305H35.3963L37.0867 234.375Z" fill="#EE8888"/>
<path d="M37.0867 246.094L38.7771 249.023H35.3963L37.0867 246.094Z" fill="#EE8888"/>
<path d="M48.7981 0L50.4885 2.92969H47.1077L48.7981 0Z" fill="#EE8888"/>
<path d="M48.7981 0L50.4885 2.92969H47.1077L48.7981 0Z" fill="#EE8888"/>
<path d="M48.7981 11.7188L50.4885 14.6484H47.1077L48.7981 11.7188Z" fill="#EE8888"/>
<path d="M48.7981 23.4375L50.4885 26.3672H47.1077L48.7981 23.4375Z" fill="#EE8888"/>
<path d="M48.7981 35.1562L50.4885 38.0859H47.1077L48.7981 35.1562Z" fill="#EE8888"/>
<path d="M48.7981 46.875L50.4885 49.8047H47.1077L48.7981 46.875Z" fill="#EE8888"/>
<path d="M48.7981 58.5938L50.4885 61.5234H47.1077L48.7981 58.5938Z" fill="#EE8888"/>
<path d="M48.7981 70.3125L50.4885 73.2422H47.1077L48.7981 70.3125Z" fill="#EE8888"/>
<path d="M48.7981 82.0312L50.4885 84.9609H47.1077L48.7981 82.0312Z" fill="#EE8888"/>
<path d="M48.7981 93.75L50.4885 96.6797H47.1077L48.7981 93.75Z" fill="#EE8888"/>
<path d="M48.7981 105.469L50.4885 108.398H47.1077L48.7981 105.469Z" fill="#EE8888"/>
<path d="M48.7981 117.188L50.4885 120.117H47.1077L48.7981 117.188Z" fill="#EE8888"/>
<path d="M48.7981 128.906L50.4885 131.836H47.1077L48.7981 128.906Z" fill="#EE8888"/>
<path d="M48.7981 140.625L50.4885 143.555H47.1077L48.7981 140.625Z" fill="#EE8888"/>
<path d="M48.7981 152.344L50.4885 155.273H47.1077L48.7981 152.344Z" fill="#EE8888"/>
<path d="M48.7981 164.062L50.4885 166.992H47.1077L48.7981 164.062Z" fill="#EE8888"/>
<path d="M48.7981 175.781L50.4885 178.711H47.1077L48.7981 175.781Z" fill="#EE8888"/>
<path d="M48.7981 187.5L50.4885 190.43H47.1077L48.7981 187.5Z" fill="#EE8888"/>
<path d="M48.7981 199.219L50.4885 202.148H47.1077L48.7981 199.219Z" fill="#EE8888"/>
<path d="M48.7981 210.938L50.4885 213.867H47.1077L48.7981 210.938Z" fill="#EE8888"/>
<path d="M48.7981 222.656L50.4885 225.586H47.1077L48.7981 222.656Z" fill="#EE8888"/>
<path d="M48.7981 234.375L50.4885 237.305H47.1077L48.7981 234.375Z" fill="#EE8888"/>
<path d="M48.7981 246.094L50.4885 249.023H47.1077L48.7981 246.094Z" fill="#EE8888"/>
<path d="M60.5095 0L62.2 2.92969H58.8191L60.5095 0Z" fill="#EE8888"/>
<path d="M60.5095 0L62.2 2.92969H58.8191L60.5095 0Z" fill="#EE8888"/>
<path d="M60.5095 11.7188L62.2 14.6484H58.8191L60.5095 11.7188Z" fill="#EE8888"/>
<path d="M60.5095 23.4375L62.2 26.3672H58.8191L60.5095 23.4375Z" fill="#EE8888"/>
<path d="M60.5095 35.1562L62.2 38.0859H58.8191L60.5095 35.1562Z" fill="#EE8888"/>
<path d="M60.5095 46.875L62.2 49.8047H58.8191L60.5095 46.875Z" fill="#EE8888"/>
<path d="M60.5095 58.5938L62.2 61.5234H58.8191L60.5095 58.5938Z" fill="#EE8888"/>
<path d="M60.5095 70.3125L62.2 73.2422H58.8191L60.5095 70.3125Z" fill="#EE8888"/>
<path d="M60.5095 82.0312L62.2 84.9609H58.8191L60.5095 82.0312Z" fill="#EE8888"/>
<path d="M60.5095 93.75L62.2 96.6797H58.8191L60.5095 93.75Z" fill="#EE8888"/>
<path d="M60.5095 105.469L62.2 108.398H58.8191L60.5095 105.469Z" fill="#EE8888"/>
<path d="M60.5095 117.188L62.2 120.117H58.8191L60.5095 117.188Z" fill="#EE8888"/>
<path d="M60.5095 128.906L62.2 131.836H58.8191L60.5095 128.906Z" fill="#EE8888"/>
<path d="M60.5095 140.625L62.2 143.555H58.8191L60.5095 140.625Z" fill="#EE8888"/>
<path d="M60.5095 152.344L62.2 155.273H58.8191L60.5095 152.344Z" fill="#EE8888"/>
<path d="M60.5095 164.062L62.2 166.992H58.8191L60.5095 164.062Z" fill="#EE8888"/>
<path d="M60.5095 175.781L62.2 178.711H58.8191L60.5095 175.781Z" fill="#EE8888"/>
<path d="M60.5095 187.5L62.2 190.43H58.8191L60.5095 187.5Z" fill="#EE8888"/>
<path d="M60.5095 199.219L62.2 202.148H58.8191L60.5095 199.219Z" fill="#EE8888"/>
<path d="M60.5095 210.938L62.2 213.867H58.8191L60.5095 210.938Z" fill="#EE8888"/>
<path d="M60.5095 222.656L62.2 225.586H58.8191L60.5095 222.656Z" fill="#EE8888"/>
<path d="M60.5095 234.375L62.2 237.305H58.8191L60.5095 234.375Z" fill="#EE8888"/>
<path d="M60.5095 246.094L62.2 249.023H58.8191L60.5095 246.094Z" fill="#EE8888"/>
<path d="M72.221 0L73.9114 2.92969H70.5306L72.221 0Z" fill="#EE8888"/>
<path d="M72.221 0L73.9114 2.92969H70.5306L72.221 0Z" fill="#EE8888"/>
<path d="M72.221 11.7188L73.9114 14.6484H70.5306L72.221 11.7188Z" fill="#EE8888"/>
<path d="M72.221 23.4375L73.9114 26.3672H70.5306L72.221 23.4375Z" fill="#EE8888"/>
<path d="M72.221 35.1562L73.9114 38.0859H70.5306L72.221 35.1562Z" fill="#EE8888"/>
<path d="M72.221 46.875L73.9114 49.8047H70.5306L72.221 46.875Z" fill="#EE8888"/>
<path d="M72.221 58.5938L73.9114 61.5234H70.5306L72.221 58.5938Z" fill="#EE8888"/>
<path d="M72.221 70.3125L73.9114 73.2422H70.5306L72.221 70.3125Z" fill="#EE8888"/>
<path d="M72.221 82.0312L73.9114 84.9609H70.5306L72.221 82.0312Z" fill="#EE8888"/>
<path d="M72.221 93.75L73.9114 96.6797H70.5306L72.221 93.75Z" fill="#EE8888"/>
<path d="M72.221 105.469L73.9114 108.398H70.5306L72.221 105.469Z" fill="#EE8888"/>
<path d="M72.221 117.188L73.9114 120.117H70.5306L72.221 117.188Z" fill="#EE8888"/>
<path d="M72.221 128.906L73.9114 131.836H70.5306L72.221 128.906Z" fill="#EE8888"/>
<path d="M72.221 140.625L73.9114 143.555H70.5306L72.221 140.625Z" fill="#EE8888"/>
<path d="M72.221 152.344L73.9114 155.273H70.5306L72.221 152.344Z" fill="#EE8888"/>
<path d="M72.221 164.062L73.9114 166.992H70.5306L72.221 164.062Z" fill="#EE8888"/>
<path d="M72.221 175.781L73.9114 178.711H70.5306L72.221 175.781Z" fill="#EE8888"/>
<path d="M72.221 187.5L73.9114 190.43H70.5306L72.221 187.5Z" fill="#EE8888"/>
<path d="M72.221 199.219L73.9114 202.148H70.5306L72.221 199.219Z" fill="#EE8888"/>
<path d="M72.221 210.938L73.9114 213.867H70.5306L72.221 210.938Z" fill="#EE8888"/>
<path d="M72.221 222.656L73.9114 225.586H70.5306L72.221 222.656Z" fill="#EE8888"/>
<path d="M72.221 234.375L73.9114 237.305H70.5306L72.221 234.375Z" fill="#EE8888"/>
<path d="M72.221 246.094L73.9114 249.023H70.5306L72.221 246.094Z" fill="#EE8888"/>
<path d="M83.9329 0L85.6233 2.92969H82.2425L83.9329 0Z" fill="#EE8888"/>
<path d="M83.9329 0L85.6233 2.92969H82.2425L83.9329 0Z" fill="#EE8888"/>
<path d="M83.9329 11.7188L85.6233 14.6484H82.2425L83.9329 11.7188Z" fill="#EE8888"/>
<path d="M83.9329 23.4375L85.6233 26.3672H82.2425L83.9329 23.4375Z" fill="#EE8888"/>
<path d="M83.9329 35.1562L85.6233 38.0859H82.2425L83.9329 35.1562Z" fill="#EE8888"/>
<path d="M83.9329 46.875L85.6233 49.8047H82.2425L83.9329 46.875Z" fill="#EE8888"/>
<path d="M83.9329 58.5938L85.6233 61.5234H82.2425L83.9329 58.5938Z" fill="#EE8888"/>
<path d="M83.9329 70.3125L85.6233 73.2422H82.2425L83.9329 70.3125Z" fill="#EE8888"/>
<path d="M83.9329 82.0312L85.6233 84.9609H82.2425L83.9329 82.0312Z" fill="#EE8888"/>
<path d="M83.9329 93.75L85.6233 96.6797H82.2425L83.9329 93.75Z" fill="#EE8888"/>
<path d="M83.9329 105.469L85.6233 108.398H82.2425L83.9329 105.469Z" fill="#EE8888"/>
<path d="M83.9329 117.188L85.6233 120.117H82.2425L83.9329 117.188Z" fill="#EE8888"/>
<path d="M83.9329 128.906L85.6233 131.836H82.2425L83.9329 128.906Z" fill="#EE8888"/>
<path d="M83.9329 140.625L85.6233 143.555H82.2425L83.9329 140.625Z" fill="#EE8888"/>
<path d="M83.9329 152.344L85.6233 155.273H82.2425L83.9329 152.344Z" fill="#EE8888"/>
<path d="M83.9329 164.062L85.6233 166.992H82.2425L83.9329 164.062Z" fill="#EE8888"/>
<path d="M83.9329 175.781L85.6233 178.711H82.2425L83.9329 175.781Z" fill="#EE8888"/>
<path d="M83.9329 187.5L85.6233 190.43H82.2425L83.9329 187.5Z" fill="#EE8888"/>
<path d="M83.9329 199.219L85.6233 202.148H82.2425L83.9329 199.219Z" fill="#EE8888"/>
<path d="M83.9329 210.938L85.6233 213.867H82.2425L83.9329 210.938Z" fill="#EE8888"/>
<path d="M83.9329 222.656L85.6233 225.586H82.2425L83.9329 222.656Z" fill="#EE8888"/>
<path d="M83.9329 234.375L85.6233 237.305H82.2425L83.9329 234.375Z" fill="#EE8888"/>
<path d="M83.9329 246.094L85.6233 249.023H82.2425L83.9329 246.094Z" fill="#EE8888"/>
<path d="M95.6443 0L97.3347 2.92969H93.9539L95.6443 0Z" fill="#EE8888"/>
<path d="M95.6443 0L97.3347 2.92969H93.9539L95.6443 0Z" fill="#EE8888"/>
<path d="M95.6443 11.7188L97.3347 14.6484H93.9539L95.6443 11.7188Z" fill="#EE8888"/>
<path d="M95.6443 23.4375L97.3347 26.3672H93.9539L95.6443 23.4375Z" fill="#EE8888"/>
<path d="M95.6443 35.1562L97.3347 38.0859H93.9539L95.6443 35.1562Z" fill="#EE8888"/>
<path d="M95.6443 46.875L97.3347 49.8047H93.9539L95.6443 46.875Z" fill="#EE8888"/>
<path d="M95.6443 58.5938L97.3347 61.5234H93.9539L95.6443 58.5938Z" fill="#EE8888"/>
<path d="M95.6443 70.3125L97.3347 73.2422H93.9539L95.6443 70.3125Z" fill="#EE8888"/>
<path d="M95.6443 82.0312L97.3347 84.9609H93.9539L95.6443 82.0312Z" fill="#EE8888"/>
<path d="M95.6443 93.75L97.3347 96.6797H93.9539L95.6443 93.75Z" fill="#EE8888"/>
<path d="M95.6443 105.469L97.3347 108.398H93.9539L95.6443 105.469Z" fill="#EE8888"/>
<path d="M95.6443 117.188L97.3347 120.117H93.9539L95.6443 117.188Z" fill="#EE8888"/>
<path d="M95.6443 128.906L97.3347 131.836H93.9539L95.6443 128.906Z" fill="#EE8888"/>
<path d="M95.6443 140.625L97.3347 143.555H93.9539L95.6443 140.625Z" fill="#EE8888"/>
<path d="M95.6443 152.344L97.3347 155.273H93.9539L95.6443 152.344Z" fill="#EE8888"/>
<path d="M95.6443 164.062L97.3347 166.992H93.9539L95.6443 164.062Z" fill="#EE8888"/>
<path d="M95.6443 175.781L97.3347 178.711H93.9539L95.6443 175.781Z" fill="#EE8888"/>
<path d="M95.6443 187.5L97.3347 190.43H93.9539L95.6443 187.5Z" fill="#EE8888"/>
<path d="M95.6443 199.219L97.3347 202.148H93.9539L95.6443 199.219Z" fill="#EE8888"/>
<path d="M95.6443 210.938L97.3347 213.867H93.9539L95.6443 210.938Z" fill="#EE8888"/>
<path d="M95.6443 222.656L97.3347 225.586H93.9539L95.6443 222.656Z" fill="#EE8888"/>
<path d="M95.6443 234.375L97.3347 237.305H93.9539L95.6443 234.375Z" fill="#EE8888"/>
<path d="M95.6443 246.094L97.3347 249.023H93.9539L95.6443 246.094Z" fill="#EE8888"/>
<path d="M107.356 0L109.046 2.92969H105.665L107.356 0Z" fill="#EE8888"/>
<path d="M107.356 0L109.046 2.92969H105.665L107.356 0Z" fill="#EE8888"/>
<path d="M107.356 11.7188L109.046 14.6484H105.665L107.356 11.7188Z" fill="#EE8888"/>
<path d="M107.356 23.4375L109.046 26.3672H105.665L107.356 23.4375Z" fill="#EE8888"/>
<path d="M107.356 35.1562L109.046 38.0859H105.665L107.356 35.1562Z" fill="#EE8888"/>
<path d="M107.356 46.875L109.046 49.8047H105.665L107.356 46.875Z" fill="#EE8888"/>
<path d="M107.356 58.5938L109.046 61.5234H105.665L107.356 58.5938Z" fill="#EE8888"/>
<path d="M107.356 70.3125L109.046 73.2422H105.665L107.356 70.3125Z" fill="#EE8888"/>
<path d="M107.356 82.0312L109.046 84.9609H105.665L107.356 82.0312Z" fill="#EE8888"/>
<path d="M107.356 93.75L109.046 96.6797H105.665L107.356 93.75Z" fill="#EE8888"/>
<path d="M107.356 105.469L109.046 108.398H105.665L107.356 105.469Z" fill="#EE8888"/>
<path d="M107.356 117.188L109.046 120.117H105.665L107.356 117.188Z" fill="#EE8888"/>
<path d="M107.356 128.906L109.046 131.836H105.665L107.356 128.906Z" fill="#EE8888"/>
<path d="M107.356 140.625L109.046 143.555H105.665L107.356 140.625Z" fill="#EE8888"/>
<path d="M107.356 152.344L109.046 155.273H105.665L107.356 152.344Z" fill="#EE8888"/>
<path d="M107.356 164.062L109.046 166.992H105.665L107.356 164.062Z" fill="#EE8888"/>
<path d="M107.356 175.781L109.046 178.711H105.665L107.356 175.781Z" fill="#EE8888"/>
<path d="M107.356 187.5L109.046 190.43H105.665L107.356 187.5Z" fill="#EE8888"/>
<path d="M107.356 199.219L109.046 202.148H105.665L107.356 199.219Z" fill="#EE8888"/>
<path d="M107.356 210.938L109.046 213.867H105.665L107.356 210.938Z" fill="#EE8888"/>
<path d="M107.356 222.656L109.046 225.586H105.665L107.356 222.656Z" fill="#EE8888"/>
<path d="M107.356 234.375L109.046 237.305H105.665L107.356 234.375Z" fill="#EE8888"/>
<path d="M107.356 246.094L109.046 249.023H105.665L107.356 246.094Z" fill="#EE8888"/>
<path d="M119.067 0L120.758 2.92969H117.377L119.067 0Z" fill="#EE8888"/>
<path d="M119.067 0L120.758 2.92969H117.377L119.067 0Z" fill="#EE8888"/>
<path d="M119.067 11.7188L120.758 14.6484H117.377L119.067 11.7188Z" fill="#EE8888"/>
<path d="M119.067 23.4375L120.758 26.3672H117.377L119.067 23.4375Z" fill="#EE8888"/>
<path d="M119.067 35.1562L120.758 38.0859H117.377L119.067 35.1562Z" fill="#EE8888"/>
<path d="M119.067 46.875L120.758 49.8047H117.377L119.067 46.875Z" fill="#EE8888"/>
<path d="M119.067 58.5938L120.758 61.5234H117.377L119.067 58.5938Z" fill="#EE8888"/>
<path d="M119.067 70.3125L120.758 73.2422H117.377L119.067 70.3125Z" fill="#EE8888"/>
<path d="M119.067 82.0312L120.758 84.9609H117.377L119.067 82.0312Z" fill="#EE8888"/>
<path d="M119.067 93.75L120.758 96.6797H117.377L119.067 93.75Z" fill="#EE8888"/>
<path d="M119.067 105.469L120.758 108.398H117.377L119.067 105.469Z" fill="#EE8888"/>
<path d="M119.067 117.188L120.758 120.117H117.377L119.067 117.188Z" fill="#EE8888"/>
<path d="M119.067 128.906L120.758 131.836H117.377L119.067 128.906Z" fill="#EE8888"/>
<path d="M119.067 140.625L120.758 143.555H117.377L119.067 140.625Z" fill="#EE8888"/>
<path d="M119.067 152.344L120.758 155.273H117.377L119.067 152.344Z" fill="#EE8888"/>
<path d="M119.067 164.062L120.758 166.992H117.377L119.067 164.062Z" fill="#EE8888"/>
<path d="M119.067 175.781L120.758 178.711H117.377L119.067 175.781Z" fill="#EE8888"/>
<path d="M119.067 187.5L120.758 190.43H117.377L119.067 187.5Z" fill="#EE8888"/>
<path d="M119.067 199.219L120.758 202.148H117.377L119.067 199.219Z" fill="#EE8888"/>
<path d="M119.067 210.938L120.758 213.867H117.377L119.067 210.938Z" fill="#EE8888"/>
<path d="M119.067 222.656L120.758 225.586H117.377L119.067 222.656Z" fill="#EE8888"/>
<path d="M119.067 234.375L120.758 237.305H117.377L119.067 234.375Z" fill="#EE8888"/>
<path d="M119.067 246.094L120.758 249.023H117.377L119.067 246.094Z" fill="#EE8888"/>
<path d="M130.779 0L132.469 2.92969H129.089L130.779 0Z" fill="#EE8888"/>
<path d="M130.779 0L132.469 2.92969H129.089L130.779 0Z" fill="#EE8888"/>
<path d="M130.779 11.7188L132.469 14.6484H129.089L130.779 11.7188Z" fill="#EE8888"/>
<path d="M130.779 23.4375L132.469 26.3672H129.089L130.779 23.4375Z" fill="#EE8888"/>
<path d="M130.779 35.1562L132.469 38.0859H129.089L130.779 35.1562Z" fill="#EE8888"/>
<path d="M130.779 46.875L132.469 49.8047H129.089L130.779 46.875Z" fill="#EE8888"/>
<path d="M130.779 58.5938L132.469 61.5234H129.089L130.779 58.5938Z" fill="#EE8888"/>
<path d="M130.779 70.3125L132.469 73.2422H129.089L130.779 70.3125Z" fill="#EE8888"/>
<path d="M130.779 82.0312L132.469 84.9609H129.089L130.779 82.0312Z" fill="#EE8888"/>
<path d="M130.779 93.75L132.469 96.6797H129.089L130.779 93.75Z" fill="#EE8888"/>
<path d="M130.779 105.469L132.469 108.398H129.089L130.779 105.469Z" fill="#EE8888"/>
<path d="M130.779 117.188L132.469 120.117H129.089L130.779 117.188Z" fill="#EE8888"/>
<path d="M130.779 128.906L132.469 131.836H129.089L130.779 128.906Z" fill="#EE8888"/>
<path d="M130.779 140.625L132.469 143.555H129.089L130.779 140.625Z" fill="#EE8888"/>
<path d="M130.779 152.344L132.469 155.273H129.089L130.779 152.344Z" fill="#EE8888"/>
<path d="M130.779 164.062L132.469 166.992H129.089L130.779 164.062Z" fill="#EE8888"/>
<path d="M130.779 175.781L132.469 178.711H129.089L130.779 175.781Z" fill="#EE8888"/>
<path d="M130.779 187.5L132.469 190.43H129.089L130.779 187.5Z" fill="#EE8888"/>
<path d="M130.779 199.219L132.469 202.148H129.089L130.779 199.219Z" fill="#EE8888"/>
<path d="M130.779 210.938L132.469 213.867H129.089L130.779 210.938Z" fill="#EE8888"/>
<path d="M130.779 222.656L132.469 225.586H129.089L130.779 222.656Z" fill="#EE8888"/>
<path d="M130.779 234.375L132.469 237.305H129.089L130.779 234.375Z" fill="#EE8888"/>
<path d="M130.779 246.094L132.469 249.023H129.089L130.779 246.094Z" fill="#EE8888"/>
<path d="M142.49 0L144.181 2.92969H140.8L142.49 0Z" fill="#EE8888"/>
<path d="M142.49 0L144.181 2.92969H140.8L142.49 0Z" fill="#EE8888"/>
<path d="M142.49 11.7188L144.181 14.6484H140.8L142.49 11.7188Z" fill="#EE8888"/>
<path d="M142.49 23.4375L144.181 26.3672H140.8L142.49 23.4375Z" fill="#EE8888"/>
<path d="M142.49 35.1562L144.181 38.0859H140.8L142.49 35.1562Z" fill="#EE8888"/>
<path d="M142.49 46.875L144.181 49.8047H140.8L142.49 46.875Z" fill="#EE8888"/>
<path d="M142.49 58.5938L144.181 61.5234H140.8L142.49 58.5938Z" fill="#EE8888"/>
<path d="M142.49 70.3125L144.181 73.2422H140.8L142.49 70.3125Z" fill="#EE8888"/>
<path d="M142.49 82.0312L144.181 84.9609H140.8L142.49 82.0312Z" fill="#EE8888"/>
<path d="M142.49 93.75L144.181 96.6797H140.8L142.49 93.75Z" fill="#EE8888"/>
<path d="M142.49 105.469L144.181 108.398H140.8L142.49 105.469Z" fill="#EE8888"/>
<path d="M142.49 117.188L144.181 120.117H140.8L142.49 117.188Z" fill="#EE8888"/>
<path d="M142.49 128.906L144.181 131.836H140.8L142.49 128.906Z" fill="#EE8888"/>
<path d="M142.49 140.625L144.181 143.555H140.8L142.49 140.625Z" fill="#EE8888"/>
<path d="M142.49 152.344L144.181 155.273H140.8L142.49 152.344Z" fill="#EE8888"/>
<path d="M142.49 164.062L144.181 166.992H140.8L142.49 164.062Z" fill="#EE8888"/>
<path d="M142.49 175.781L144.181 178.711H140.8L142.49 175.781Z" fill="#EE8888"/>
<path d="M142.49 187.5L144.181 190.43H140.8L142.49 187.5Z" fill="#EE8888"/>
<path d="M142.49 199.219L144.181 202.148H140.8L142.49 199.219Z" fill="#EE8888"/>
<path d="M142.49 210.938L144.181 213.867H140.8L142.49 210.938Z" fill="#EE8888"/>
<path d="M142.49 222.656L144.181 225.586H140.8L142.49 222.656Z" fill="#EE8888"/>
<path d="M142.49 234.375L144.181 237.305H140.8L142.49 234.375Z" fill="#EE8888"/>
<path d="M142.49 246.094L144.181 249.023H140.8L142.49 246.094Z" fill="#EE8888"/>
<path d="M154.202 0L155.892 2.92969H152.512L154.202 0Z" fill="#EE8888"/>
<path d="M154.202 0L155.892 2.92969H152.512L154.202 0Z" fill="#EE8888"/>
<path d="M154.202 11.7188L155.892 14.6484H152.512L154.202 11.7188Z" fill="#EE8888"/>
<path d="M154.202 23.4375L155.892 26.3672H152.512L154.202 23.4375Z" fill="#EE8888"/>
<path d="M154.202 35.1562L155.892 38.0859H152.512L154.202 35.1562Z" fill="#EE8888"/>
<path d="M154.202 46.875L155.892 49.8047H152.512L154.202 46.875Z" fill="#EE8888"/>
<path d="M154.202 58.5938L155.892 61.5234H152.512L154.202 58.5938Z" fill="#EE8888"/>
<path d="M154.202 70.3125L155.892 73.2422H152.512L154.202 70.3125Z" fill="#EE8888"/>
<path d="M154.202 82.0312L155.892 84.9609H152.512L154.202 82.0312Z" fill="#EE8888"/>
<path d="M154.202 93.75L155.892 96.6797H152.512L154.202 93.75Z" fill="#EE8888"/>
<path d="M154.202 105.469L155.892 108.398H152.512L154.202 105.469Z" fill="#EE8888"/>
<path d="M154.202 117.188L155.892 120.117H152.512L154.202 117.188Z" fill="#EE8888"/>
<path d="M154.202 128.906L155.892 131.836H152.512L154.202 128.906Z" fill="#EE8888"/>
<path d="M154.202 140.625L155.892 143.555H152.512L154.202 140.625Z" fill="#EE8888"/>
<path d="M154.202 152.344L155.892 155.273H152.512L154.202 152.344Z" fill="#EE8888"/>
<path d="M154.202 164.062L155.892 166.992H152.512L154.202 164.062Z" fill="#EE8888"/>
<path d="M154.202 175.781L155.892 178.711H152.512L154.202 175.781Z" fill="#EE8888"/>
<path d="M154.202 187.5L155.892 190.43H152.512L154.202 187.5Z" fill="#EE8888"/>
<path d="M154.202 199.219L155.892 202.148H152.512L154.202 199.219Z" fill="#EE8888"/>
<path d="M154.202 210.938L155.892 213.867H152.512L154.202 210.938Z" fill="#EE8888"/>
<path d="M154.202 222.656L155.892 225.586H152.512L154.202 222.656Z" fill="#EE8888"/>
<path d="M154.202 234.375L155.892 237.305H152.512L154.202 234.375Z" fill="#EE8888"/>
<path d="M154.202 246.094L155.892 249.023H152.512L154.202 246.094Z" fill="#EE8888"/>
<path d="M165.913 0L167.604 2.92969H164.223L165.913 0Z" fill="#EE8888"/>
<path d="M165.913 0L167.604 2.92969H164.223L165.913 0Z" fill="#EE8888"/>
<path d="M165.913 11.7188L167.604 14.6484H164.223L165.913 11.7188Z" fill="#EE8888"/>
<path d="M165.913 23.4375L167.604 26.3672H164.223L165.913 23.4375Z" fill="#EE8888"/>
<path d="M165.913 35.1562L167.604 38.0859H164.223L165.913 35.1562Z" fill="#EE8888"/>
<path d="M165.913 46.875L167.604 49.8047H164.223L165.913 46.875Z" fill="#EE8888"/>
<path d="M165.913 58.5938L167.604 61.5234H164.223L165.913 58.5938Z" fill="#EE8888"/>
<path d="M165.913 70.3125L167.604 73.2422H164.223L165.913 70.3125Z" fill="#EE8888"/>
<path d="M165.913 82.0312L167.604 84.9609H164.223L165.913 82.0312Z" fill="#EE8888"/>
<path d="M165.913 93.75L167.604 96.6797H164.223L165.913 93.75Z" fill="#EE8888"/>
<path d="M165.913 105.469L167.604 108.398H164.223L165.913 105.469Z" fill="#EE8888"/>
<path d="M165.913 117.188L167.604 120.117H164.223L165.913 117.188Z" fill="#EE8888"/>
<path d="M165.913 128.906L167.604 131.836H164.223L165.913 128.906Z" fill="#EE8888"/>
<path d="M165.913 140.625L167.604 143.555H164.223L165.913 140.625Z" fill="#EE8888"/>
<path d="M165.913 152.344L167.604 155.273H164.223L165.913 152.344Z" fill="#EE8888"/>
<path d="M165.913 164.062L167.604 166.992H164.223L165.913 164.062Z" fill="#EE8888"/>
<path d="M165.913 175.781L167.604 178.711H164.223L165.913 175.781Z" fill="#EE8888"/>
<path d="M165.913 187.5L167.604 190.43H164.223L165.913 187.5Z" fill="#EE8888"/>
<path d="M165.913 199.219L167.604 202.148H164.223L165.913 199.219Z" fill="#EE8888"/>
<path d="M165.913 210.938L167.604 213.867H164.223L165.913 210.938Z" fill="#EE8888"/>
<path d="M165.913 222.656L167.604 225.586H164.223L165.913 222.656Z" fill="#EE8888"/>
<path d="M165.913 234.375L167.604 237.305H164.223L165.913 234.375Z" fill="#EE8888"/>
<path d="M165.913 246.094L167.604 249.023H164.223L165.913 246.094Z" fill="#EE8888"/>
<path d="M177.625 0L179.315 2.92969H175.934L177.625 0Z" fill="#EE8888"/>
<path d="M177.625 0L179.315 2.92969H175.934L177.625 0Z" fill="#EE8888"/>
<path d="M177.625 11.7188L179.315 14.6484H175.934L177.625 11.7188Z" fill="#EE8888"/>
<path d="M177.625 23.4375L179.315 26.3672H175.934L177.625 23.4375Z" fill="#EE8888"/>
<path d="M177.625 35.1562L179.315 38.0859H175.934L177.625 35.1562Z" fill="#EE8888"/>
<path d="M177.625 46.875L179.315 49.8047H175.934L177.625 46.875Z" fill="#EE8888"/>
<path d="M177.625 58.5938L179.315 61.5234H175.934L177.625 58.5938Z" fill="#EE8888"/>
<path d="M177.625 70.3125L179.315 73.2422H175.934L177.625 70.3125Z" fill="#EE8888"/>
<path d="M177.625 82.0312L179.315 84.9609H175.934L177.625 82.0312Z" fill="#EE8888"/>
<path d="M177.625 93.75L179.315 96.6797H175.934L177.625 93.75Z" fill="#EE8888"/>
<path d="M177.625 105.469L179.315 108.398H175.934L177.625 105.469Z" fill="#EE8888"/>
<path d="M177.625 117.188L179.315 120.117H175.934L177.625 117.188Z" fill="#EE8888"/>
<path d="M177.625 128.906L179.315 131.836H175.934L177.625 128.906Z" fill="#EE8888"/>
<path d="M177.625 140.625L179.315 143.555H175.934L177.625 140.625Z" fill="#EE8888"/>
<path d="M177.625 152.344L179.315 155.273H175.934L177.625 152.344Z" fill="#EE8888"/>
<path d="M177.625 164.062L179.315 166.992H175.934L177.625 164.062Z" fill="#EE8888"/>
<path d="M177.625 175.781L179.315 178.711H175.934L177.625 175.781Z" fill="#EE8888"/>
<path d="M177.625 187.5L179.315 190.43H175.934L177.625 187.5Z" fill="#EE8888"/>
<path d="M177.625 199.219L179.315 202.148H175.934L177.625 199.219Z" fill="#EE8888"/>
<path d="M177.625 210.938L179.315 213.867H175.934L177.625 210.938Z" fill="#EE8888"/>
<path d="M177.625 222.656L179.315 225.586H175.934L177.625 222.656Z" fill="#EE8888"/>
<path d="M177.625 234.375L179.315 237.305H175.934L177.625 234.375Z" fill="#EE8888"/>
<path d="M177.625 246.094L179.315 249.023H175.934L177.625 246.094Z" fill="#EE8888"/>
<path d="M189.337 0L191.027 2.92969H187.646L189.337 0Z" fill="#EE8888"/>
<path d="M189.337 0L191.027 2.92969H187.646L189.337 0Z" fill="#EE8888"/>
<path d="M189.337 11.7188L191.027 14.6484H187.646L189.337 11.7188Z" fill="#EE8888"/>
<path d="M189.337 23.4375L191.027 26.3672H187.646L189.337 23.4375Z" fill="#EE8888"/>
<path d="M189.337 35.1562L191.027 38.0859H187.646L189.337 35.1562Z" fill="#EE8888"/>
<path d="M189.337 46.875L191.027 49.8047H187.646L189.337 46.875Z" fill="#EE8888"/>
<path d="M189.337 58.5938L191.027 61.5234H187.646L189.337 58.5938Z" fill="#EE8888"/>
<path d="M189.337 70.3125L191.027 73.2422H187.646L189.337 70.3125Z" fill="#EE8888"/>
<path d="M189.337 82.0312L191.027 84.9609H187.646L189.337 82.0312Z" fill="#EE8888"/>
<path d="M189.337 93.75L191.027 96.6797H187.646L189.337 93.75Z" fill="#EE8888"/>
<path d="M189.337 105.469L191.027 108.398H187.646L189.337 105.469Z" fill="#EE8888"/>
<path d="M189.337 117.188L191.027 120.117H187.646L189.337 117.188Z" fill="#EE8888"/>
<path d="M189.337 128.906L191.027 131.836H187.646L189.337 128.906Z" fill="#EE8888"/>
<path d="M189.337 140.625L191.027 143.555H187.646L189.337 140.625Z" fill="#EE8888"/>
<path d="M189.337 152.344L191.027 155.273H187.646L189.337 152.344Z" fill="#EE8888"/>
<path d="M189.337 164.062L191.027 166.992H187.646L189.337 164.062Z" fill="#EE8888"/>
<path d="M189.337 175.781L191.027 178.711H187.646L189.337 175.781Z" fill="#EE8888"/>
<path d="M189.337 187.5L191.027 190.43H187.646L189.337 187.5Z" fill="#EE8888"/>
<path d="M189.337 199.219L191.027 202.148H187.646L189.337 199.219Z" fill="#EE8888"/>
<path d="M189.337 210.938L191.027 213.867H187.646L189.337 210.938Z" fill="#EE8888"/>
<path d="M189.337 222.656L191.027 225.586H187.646L189.337 222.656Z" fill="#EE8888"/>
<path d="M189.337 234.375L191.027 237.305H187.646L189.337 234.375Z" fill="#EE8888"/>
<path d="M189.337 246.094L191.027 249.023H187.646L189.337 246.094Z" fill="#EE8888"/>
<path d="M201.048 0L202.739 2.92969H199.358L201.048 0Z" fill="#EE8888"/>
<path d="M201.048 0L202.739 2.92969H199.358L201.048 0Z" fill="#EE8888"/>
<path d="M201.048 11.7188L202.739 14.6484H199.358L201.048 11.7188Z" fill="#EE8888"/>
<path d="M201.048 23.4375L202.739 26.3672H199.358L201.048 23.4375Z" fill="#EE8888"/>
<path d="M201.048 35.1562L202.739 38.0859H199.358L201.048 35.1562Z" fill="#EE8888"/>
<path d="M201.048 46.875L202.739 49.8047H199.358L201.048 46.875Z" fill="#EE8888"/>
<path d="M201.048 58.5938L202.739 61.5234H199.358L201.048 58.5938Z" fill="#EE8888"/>
<path d="M201.048 70.3125L202.739 73.2422H199.358L201.048 70.3125Z" fill="#EE8888"/>
<path d="M201.048 82.0312L202.739 84.9609H199.358L201.048 82.0312Z" fill="#EE8888"/>
<path d="M201.048 93.75L202.739 96.6797H199.358L201.048 93.75Z" fill="#EE8888"/>
<path d="M201.048 105.469L202.739 108.398H199.358L201.048 105.469Z" fill="#EE8888"/>
<path d="M201.048 117.188L202.739 120.117H199.358L201.048 117.188Z" fill="#EE8888"/>
<path d="M201.048 128.906L202.739 131.836H199.358L201.048 128.906Z" fill="#EE8888"/>
<path d="M201.048 140.625L202.739 143.555H199.358L201.048 140.625Z" fill="#EE8888"/>
<path d="M201.048 152.344L202.739 155.273H199.358L201.048 152.344Z" fill="#EE8888"/>
<path d="M201.048 164.062L202.739 166.992H199.358L201.048 164.062Z" fill="#EE8888"/>
<path d="M201.048 175.781L202.739 178.711H199.358L201.048 175.781Z" fill="#EE8888"/>
<path d="M201.048 187.5L202.739 190.43H199.358L201.048 187.5Z" fill="#EE8888"/>
<path d="M201.048 199.219L202.739 202.148H199.358L201.048 199.219Z" fill="#EE8888"/>
<path d="M201.048 210.938L202.739 213.867H199.358L201.048 210.938Z" fill="#EE8888"/>
<path d="M201.048 222.656L202.739 225.586H199.358L201.048 222.656Z" fill="#EE8888"/>
<path d="M201.048 234.375L202.739 237.305H199.358L201.048 234.375Z" fill="#EE8888"/>
<path d="M201.048 246.094L202.739 249.023H199.358L201.048 246.094Z" fill="#EE8888"/>
</svg>
