<svg width="51" height="50" viewBox="0 0 51 50" fill="none" xmlns="http://www.w3.org/2000/svg">
<g clip-path="url(#clip0_270_807)">
<path d="M25.4082 49.8519C39.2153 49.8519 50.4082 38.6921 50.4082 24.9259C50.4082 11.1597 39.2153 0 25.4082 0C11.6011 0 0.408203 11.1597 0.408203 24.9259C0.408203 38.6921 11.6011 49.8519 25.4082 49.8519Z" fill="url(#paint0_radial_270_807)"/>
<path d="M25.4082 47.9997C38.676 47.9997 49.4316 37.6691 49.4316 24.9256C49.4316 12.1822 38.676 1.85156 25.4082 1.85156C12.1404 1.85156 1.38477 12.1822 1.38477 24.9256C1.38477 37.6691 12.1404 47.9997 25.4082 47.9997Z" fill="#6181B6"/>
<path d="M29.5868 30.9631L30.7537 22.8939C31.0215 21.0693 30.792 19.7073 30.1033 18.8592C29.4338 18.0369 28.2859 17.6257 26.6025 17.6257H24.5747L25.1486 13.6168C25.1678 13.4626 25.1486 13.3084 25.0721 13.1799C24.9956 13.0514 24.8999 13 24.7852 13H21.9922C21.8009 13 21.6478 13.1799 21.6096 13.4112L20.3661 21.9687C20.2513 20.9922 19.9835 20.1698 19.5244 19.5017C18.7018 18.2425 17.4201 17.6 15.6793 17.6H10.3037C10.1124 17.6 9.95939 17.7799 9.92113 18.0112L7.4151 35.3832C7.39597 35.5374 7.4151 35.6916 7.49162 35.8201C7.56814 35.9486 7.66379 36 7.77857 36H10.5907C10.782 36 10.935 35.8201 10.9733 35.5888L11.5854 31.4H13.6706C14.761 31.4 15.6984 31.2458 16.4062 30.9374C17.1523 30.6034 17.8218 30.0637 18.4149 29.3184C18.8931 28.7274 19.2948 28.0592 19.6009 27.3397L19.1035 30.8089C19.0844 30.9631 19.1035 31.1173 19.1801 31.2458C19.2566 31.3743 19.3522 31.4257 19.467 31.4257H22.26C22.4513 31.4257 22.6043 31.2458 22.6426 31.0145L24.02 21.5061H25.933C26.7555 21.5061 26.9851 21.7117 27.0616 21.8145C27.119 21.8916 27.2338 22.2 27.0999 23.1508L25.9903 30.8346C25.9712 30.9888 25.9903 31.143 26.0669 31.2715C26.1434 31.4 26.239 31.4514 26.3538 31.4514H29.2233C29.3955 31.3743 29.5485 31.1944 29.5868 30.9631ZM16.6549 24.2816C16.4827 25.4894 16.1575 26.3631 15.6793 26.8514C15.201 27.3397 14.4167 27.5966 13.3837 27.5966H12.1402L13.0393 21.3777H14.6462C15.8323 21.3777 16.3106 21.7117 16.5019 21.9944C16.7505 22.4056 16.8079 23.2022 16.6549 24.2816ZM41.5239 19.5017C40.7013 18.2425 39.4196 17.6 37.6788 17.6H32.265C32.0737 17.6 31.9206 17.7799 31.8824 18.0112L29.3764 35.3575C29.3572 35.5117 29.3764 35.6659 29.4529 35.7944C29.5294 35.9229 29.625 35.9743 29.7398 35.9743H32.5519C32.7432 35.9743 32.8963 35.7944 32.9345 35.5631L33.5467 31.3743H35.6319C36.7223 31.3743 37.6597 31.2201 38.3675 30.9117C39.1135 30.5777 39.7831 30.038 40.3761 29.2927C40.8735 28.676 41.2944 27.9821 41.6004 27.2369C41.9065 26.4916 42.1361 25.6693 42.27 24.7698C42.5952 22.5341 42.3465 20.7866 41.5239 19.5017ZM38.597 24.2816C38.4249 25.4894 38.0996 26.3631 37.6214 26.8514C37.1431 27.3397 36.3588 27.5966 35.3258 27.5966H34.0823L34.9815 21.3777H36.5884C37.7744 21.3777 38.2527 21.7117 38.444 21.9944C38.7118 22.4056 38.7692 23.2022 38.597 24.2816Z" fill="white"/>
<path d="M14.4126 20.7026C15.5082 20.7026 16.2322 20.9719 16.6039 21.5375C16.9756 22.103 17.0539 23.0457 16.8582 24.3923C16.6626 25.7927 16.2713 26.8162 15.7039 27.4087C15.1365 28.0012 14.2756 28.2974 13.1213 28.2974H11.38L12.4561 20.7026H14.4126ZM7.4082 36H10.2843L10.9691 31.1792H13.4343C14.53 31.1792 15.4104 31.0176 16.1148 30.6944C16.8191 30.3712 17.4452 29.8595 18.0322 29.1054C18.5213 28.4859 18.9126 27.8126 19.2061 27.0855C19.4996 26.3583 19.7148 25.5504 19.8322 24.6616C20.1452 22.507 19.9104 20.8372 19.1474 19.6253C18.3843 18.4133 17.1713 17.8208 15.5082 17.8208H9.97126L7.4082 36ZM21.9452 13H24.8018L24.117 17.8208H26.6605C28.2648 17.8208 29.3605 18.1979 29.967 18.9789C30.5735 19.76 30.7496 20.9988 30.5148 22.7225L29.3213 31.1792H26.4257L27.5605 23.1265C27.6974 22.2108 27.6387 21.5913 27.4235 21.2681C27.2083 20.945 26.7192 20.7564 25.9952 20.7564H23.7061L22.2387 31.1792H19.3822L21.9452 13ZM36.854 20.7026C37.9496 20.7026 38.6736 20.9719 39.0453 21.5375C39.417 22.103 39.4953 23.0457 39.2997 24.3923C39.104 25.7927 38.7127 26.8162 38.1453 27.4087C37.5779 28.0012 36.717 28.2974 35.5627 28.2974H33.8214L34.8975 20.7026H36.854ZM29.8496 36H32.7257L33.4105 31.1792H35.8757C36.9714 31.1792 37.8518 31.0176 38.5562 30.6944C39.2605 30.3712 39.8866 29.8595 40.4736 29.1054C40.9627 28.4859 41.354 27.8126 41.6475 27.0855C41.941 26.3583 42.1562 25.5504 42.2736 24.6616C42.5866 22.507 42.3518 20.8372 41.5888 19.6253C40.8257 18.4133 39.6127 17.8208 37.9496 17.8208H32.4127L29.8496 36Z" fill="#000004"/>
</g>
<defs>
<radialGradient id="paint0_radial_270_807" cx="0" cy="0" r="1" gradientUnits="userSpaceOnUse" gradientTransform="translate(15.4183 8.76574) scale(32.8311 62.2576)">
<stop stop-color="white"/>
<stop offset="0.5" stop-color="#4C6B97"/>
<stop offset="1" stop-color="#231F20"/>
</radialGradient>
<clipPath id="clip0_270_807">
<rect width="50" height="50" fill="white" transform="translate(0.408203)"/>
</clipPath>
</defs>
</svg>
