<svg width="62" height="55" viewBox="0 0 62 55" fill="none" xmlns="http://www.w3.org/2000/svg">
<path d="M31.1314 13.2002C23.1904 13.2002 15.9899 14.6955 10.672 17.192C5.35411 19.6885 1.77539 23.285 1.77539 27.5002C1.77539 31.7154 5.35411 35.3119 10.672 37.8084C15.9899 40.3049 23.1904 41.8002 31.1314 41.8002C39.0724 41.8002 46.2728 40.3049 51.5907 37.8084C56.9086 35.3119 60.4874 31.7154 60.4874 27.5002C60.4874 23.285 56.9086 19.6885 51.5907 17.192C46.2728 14.6955 39.0724 13.2002 31.1314 13.2002ZM31.1314 15.4002C38.7284 15.4002 45.5944 16.8568 50.4584 19.1428C55.3224 21.4244 58.041 24.4236 58.041 27.5002C58.041 30.5768 55.3224 33.576 50.4584 35.8576C45.5944 38.1436 38.7284 39.6002 31.1314 39.6002C23.5344 39.6002 16.6684 38.1436 11.8044 35.8576C6.9404 33.576 4.22172 30.5768 4.22172 27.5002C4.22172 24.4236 6.9404 21.4244 11.8044 19.1428C16.6684 16.8568 23.5344 15.4002 31.1314 15.4002ZM28.083 17.6002L25.0155 30.8002H28.2264L29.7744 24.2002H32.3402C33.1572 24.2002 33.7019 24.3205 33.9552 24.5654C34.2036 24.8104 34.2562 25.2744 34.1128 25.9404L32.9422 30.8002H36.2008L37.4718 25.5451C37.7441 24.2861 37.5387 23.3623 36.8602 22.7994C36.1674 22.2279 34.949 22.0002 33.1334 22.0002H30.2713L31.2891 17.6002H28.083ZM14.0071 22.0002L11.5273 34.1002H14.762L15.407 30.8002H17.4233C21.6375 30.8002 23.9309 29.9236 24.7862 26.6709C25.522 23.8736 23.6395 22.0002 20.529 22.0002H14.0071ZM39.6935 22.0002L37.2138 34.1002H40.4485L41.0935 30.8002H43.1098C47.324 30.8002 49.6174 29.9236 50.4727 26.6709C51.2085 23.8736 49.326 22.0002 46.2155 22.0002H39.6935ZM16.7878 24.2002H19.3058C21.3986 24.2002 21.8382 25.0467 21.7283 25.9877C21.4464 28.4154 19.7645 28.6002 17.9585 28.6002H15.8609L16.7878 24.2002ZM42.4743 24.2002H44.9923C47.0851 24.2002 47.5247 25.0467 47.4148 25.9877C47.1329 28.4154 45.451 28.6002 43.6449 28.6002H41.5474L42.4743 24.2002Z" fill="#FFFCFC"/>
</svg>
