<svg width="83" height="83" viewBox="0 0 83 83" fill="none" xmlns="http://www.w3.org/2000/svg">
<path d="M72.6582 63.6291C77.6056 59.2197 80.4071 53.3424 80.4071 47.2434C80.4071 40.7616 77.3727 34.6997 71.8628 30.1733C66.5002 25.7694 59.4021 23.3438 51.875 23.3438C44.3479 23.3438 37.2498 25.7694 31.888 30.1736C26.3781 34.6997 23.3438 40.7616 23.3438 47.2434C23.3438 53.7252 26.3781 59.7871 31.888 64.3135C37.2498 68.7177 44.3479 71.1432 51.875 71.1432C52.878 71.1432 53.8871 71.0989 54.8878 71.0109L56.5974 72.4927C62.4871 77.5964 70.0192 80.406 77.8125 80.4062H80.4062V74.8853L79.6466 74.1258C76.6499 71.1202 74.2751 67.5533 72.6582 63.6291ZM59.9949 68.5723L56.5645 65.599L55.4207 65.7392C54.2442 65.8831 53.0602 65.9553 51.875 65.9553C39.0035 65.9553 28.5312 57.5611 28.5312 47.2434C28.5312 36.9256 39.0035 28.5312 51.875 28.5312C64.7465 28.5312 75.2188 36.9254 75.2188 47.2434C75.2188 52.3839 72.6542 57.1829 67.9974 60.7565L66.5036 61.9028L67.1929 63.8537C68.6054 67.8383 70.6817 71.5553 73.3339 74.8475C68.3948 74.0231 63.7791 71.8516 59.9949 68.5723Z" fill="#E8E8E8"/>
<path d="M9.75655 51.4658C12.1845 48.3925 14.0908 44.9409 15.3993 41.2492L16.0834 39.308L14.5908 38.1625C10.1996 34.7929 7.78125 30.2704 7.78125 25.428C7.78125 15.6975 17.6714 7.78125 29.8281 7.78125C38.7714 7.78125 46.4876 12.0658 49.9422 18.2049C50.5836 18.1738 51.2279 18.1562 51.875 18.1562C53.1748 18.1562 54.4627 18.2193 55.7387 18.3454C54.4037 14.8868 52.0853 11.7296 48.8977 9.11152C43.7812 4.90851 37.0096 2.59375 29.8281 2.59375C22.6467 2.59375 15.875 4.90851 10.7582 9.11152C5.49324 13.4364 2.59375 19.231 2.59375 25.428C2.59375 31.2315 5.24456 36.8235 9.9292 41.0299C8.40041 44.7089 6.16657 48.0533 3.35356 50.8746L2.59375 51.6343V57.0625H5.1875C9.98384 57.0619 14.7142 55.945 19.0042 53.8C18.5338 52.0171 18.2582 50.1883 18.1822 48.3459C15.5784 49.8719 12.7263 50.928 9.75655 51.4658Z" fill="#E8E8E8"/>
</svg>
