<svg width="31" height="30" viewBox="0 0 31 30" fill="none" xmlns="http://www.w3.org/2000/svg">
<path opacity="0.5" d="M22.9786 29.6061C24.2756 29.6061 25.4861 29.1089 26.6102 28.1145C27.691 27.0769 28.5557 25.7367 29.2042 24.0938C29.8094 22.4509 30.1121 20.7 30.1121 18.8409C30.1121 15.9875 29.6149 13.3071 28.6205 10.7995C27.5829 8.24878 26.3292 6.10873 24.8592 4.3794C23.3893 2.60683 21.9842 1.35307 20.644 0.618099H20.5791L18.3094 2.6933V3.6012C19.3902 4.59557 20.4062 6.02227 21.3573 7.8813C22.3085 9.6971 22.784 11.9452 22.784 14.6257C22.784 16.0092 22.5895 17.1332 22.2004 17.9979C21.8113 18.8626 21.2276 19.8137 20.4494 20.8513C19.8009 21.6727 19.3254 22.3861 19.0227 22.9914C18.7201 23.5966 18.5688 24.3316 18.5688 25.1962C18.5688 26.4932 19.0011 27.5525 19.8658 28.3739C20.6872 29.1953 21.7248 29.6061 22.9786 29.6061ZM4.95028 29.6061C6.24728 29.6061 7.43619 29.1089 8.51703 28.1145C9.59786 27.0769 10.4625 25.7367 11.111 24.0938C11.7163 22.4509 12.0189 20.7 12.0189 18.8409C12.0189 15.9875 11.5217 13.3071 10.5274 10.7995C9.48978 8.24878 8.23601 6.08711 6.76608 4.31455C5.29614 2.54198 3.89106 1.30983 2.55082 0.618099H2.48598L0.281076 2.6933V3.6012C1.36191 4.59557 2.37789 6.02227 3.32903 7.8813C4.28016 9.6971 4.75573 11.9452 4.75573 14.6257C4.75573 16.0092 4.56118 17.1332 4.17208 17.9979C3.78298 18.8626 3.19933 19.8137 2.42113 20.8513C1.77263 21.6727 1.29706 22.3861 0.994425 22.9914C0.691793 23.5966 0.540477 24.3316 0.540477 25.1962C0.540477 26.4932 0.97281 27.5525 1.83748 28.3739C2.65891 29.1953 3.69651 29.6061 4.95028 29.6061Z" fill="#091638"/>
</svg>
