<svg width="31" height="30" viewBox="0 0 31 30" fill="none" xmlns="http://www.w3.org/2000/svg">
<path opacity="0.5" d="M7.55365 29.1075C6.25665 29.1075 5.04612 28.6103 3.92205 27.616C2.84122 26.5784 1.97655 25.2381 1.32805 23.5953C0.722784 21.9524 0.42015 20.2014 0.42015 18.3424C0.42015 15.489 0.917334 12.8085 1.9117 10.301C2.9493 7.75025 4.20307 5.6102 5.673 3.88086C7.14293 2.1083 8.54802 0.854532 9.88825 0.119564H9.9531L12.2229 2.19476V3.10266C11.142 4.09703 10.126 5.52373 9.1749 7.38276C8.22377 9.19856 7.7482 11.4467 7.7482 14.1272C7.7482 15.5106 7.94275 16.6347 8.33185 17.4994C8.72095 18.364 9.3046 19.3152 10.0828 20.3528C10.7313 21.1742 11.2069 21.8875 11.5095 22.4928C11.8121 23.0981 11.9635 23.833 11.9635 24.6977C11.9635 25.9947 11.5311 27.0539 10.6664 27.8754C9.84502 28.6968 8.80742 29.1075 7.55365 29.1075ZM25.582 29.1075C24.285 29.1075 23.096 28.6103 22.0152 27.616C20.9344 26.5784 20.0697 25.2381 19.4212 23.5953C18.8159 21.9524 18.5133 20.2014 18.5133 18.3424C18.5133 15.489 19.0105 12.8085 20.0049 10.301C21.0425 7.75025 22.2962 5.58858 23.7662 3.81601C25.2361 2.04345 26.6412 0.811296 27.9814 0.119564H28.0463L30.2512 2.19476V3.10266C29.1703 4.09703 28.1543 5.52373 27.2032 7.38276C26.2521 9.19856 25.7765 11.4467 25.7765 14.1272C25.7765 15.5106 25.971 16.6347 26.3602 17.4994C26.7493 18.364 27.3329 19.3152 28.1111 20.3528C28.7596 21.1742 29.2352 21.8875 29.5378 22.4928C29.8404 23.0981 29.9917 23.833 29.9917 24.6977C29.9917 25.9947 29.5594 27.0539 28.6948 27.8754C27.8733 28.6968 26.8357 29.1075 25.582 29.1075Z" fill="#091638"/>
</svg>
