<svg width="60" height="60" viewBox="0 0 60 60" fill="none" xmlns="http://www.w3.org/2000/svg">
<path fill-rule="evenodd" clip-rule="evenodd" d="M30 56.25C36.9619 56.25 43.6387 53.4844 48.5616 48.5616C53.4844 43.6387 56.25 36.9619 56.25 30C56.25 23.0381 53.4844 16.3613 48.5616 11.4384C43.6387 6.51562 36.9619 3.75 30 3.75C23.0381 3.75 16.3613 6.51562 11.4384 11.4384C6.51562 16.3613 3.75 23.0381 3.75 30C3.75 36.9619 6.51562 43.6387 11.4384 48.5616C16.3613 53.4844 23.0381 56.25 30 56.25ZM30 60C37.9565 60 45.5871 56.8393 51.2132 51.2132C56.8393 45.5871 60 37.9565 60 30C60 22.0435 56.8393 14.4129 51.2132 8.7868C45.5871 3.16071 37.9565 0 30 0C22.0435 0 14.4129 3.16071 8.7868 8.7868C3.16071 14.4129 0 22.0435 0 30C0 37.9565 3.16071 45.5871 8.7868 51.2132C14.4129 56.8393 22.0435 60 30 60Z" fill="#E8E8E8"/>
<path fill-rule="evenodd" clip-rule="evenodd" d="M16.0688 35.8761C16.4994 35.6275 17.0112 35.5601 17.4915 35.6888C17.9719 35.8175 18.3814 36.1317 18.63 36.5623C19.7817 38.5586 21.439 40.2162 23.435 41.3683C25.4311 42.5204 27.6954 43.1262 30 43.1248C32.3047 43.1262 34.569 42.5204 36.5651 41.3683C38.5611 40.2162 40.2184 38.5586 41.37 36.5623C41.4923 36.3474 41.6558 36.1587 41.8512 36.0072C42.0466 35.8557 42.2701 35.7444 42.5087 35.6796C42.7474 35.6148 42.9965 35.5978 43.2417 35.6297C43.4869 35.6616 43.7234 35.7416 43.9375 35.8653C44.1517 35.9889 44.3393 36.1537 44.4895 36.3501C44.6397 36.5466 44.7495 36.7708 44.8127 37.0098C44.8759 37.2489 44.8912 37.4981 44.8577 37.7431C44.8242 37.9881 44.7426 38.224 44.6175 38.4373C43.1368 41.0037 41.0061 43.1347 38.44 44.6159C35.8739 46.0971 32.9629 46.8762 30 46.8748C27.0371 46.8762 24.1262 46.0971 21.5601 44.6159C18.994 43.1347 16.8633 41.0037 15.3825 38.4373C15.1339 38.0067 15.0665 37.4949 15.1952 37.0146C15.3239 36.5343 15.6382 36.1247 16.0688 35.8761Z" fill="#E8E8E8"/>
<path d="M26.25 24.375C26.25 27.48 24.57 30 22.5 30C20.43 30 18.75 27.48 18.75 24.375C18.75 21.27 20.43 18.75 22.5 18.75C24.57 18.75 26.25 21.27 26.25 24.375ZM41.25 24.375C41.25 27.48 39.57 30 37.5 30C35.43 30 33.75 27.48 33.75 24.375C33.75 21.27 35.43 18.75 37.5 18.75C39.57 18.75 41.25 21.27 41.25 24.375Z" fill="#E8E8E8"/>
</svg>
