<svg width="15" height="14" viewBox="0 0 15 14" fill="none" xmlns="http://www.w3.org/2000/svg">
<g clip-path="url(#clip0_662_324)">
<path d="M7.62478 3.93457C6.88565 3.93457 6.17679 4.22819 5.65415 4.75083C5.13151 5.27347 4.83789 5.98233 4.83789 6.72146C4.83789 7.46058 5.13151 8.16944 5.65415 8.69208C6.17679 9.21472 6.88565 9.50834 7.62478 9.50834C8.3639 9.50834 9.07276 9.21472 9.5954 8.69208C10.118 8.16944 10.4117 7.46058 10.4117 6.72146C10.4117 5.98233 10.118 5.27347 9.5954 4.75083C9.07276 4.22819 8.3639 3.93457 7.62478 3.93457Z" fill="#343741"/>
<path fill-rule="evenodd" clip-rule="evenodd" d="M7.62333 0.59082C7.77116 0.59082 7.91293 0.649544 8.01746 0.754072C8.12199 0.858601 8.18071 1.00037 8.18071 1.1482V1.70557C8.18071 1.8534 8.12199 1.99517 8.01746 2.0997C7.91293 2.20423 7.77116 2.26295 7.62333 2.26295C7.47551 2.26295 7.33374 2.20423 7.22921 2.0997C7.12468 1.99517 7.06596 1.8534 7.06596 1.70557V1.1482C7.06596 1.00037 7.12468 0.858601 7.22921 0.754072C7.33374 0.649544 7.47551 0.59082 7.62333 0.59082ZM2.77025 1.86889C2.87478 1.76439 3.01652 1.70569 3.16432 1.70569C3.31212 1.70569 3.45386 1.76439 3.55838 1.86889L4.39445 2.70495C4.49598 2.81007 4.55216 2.95087 4.55089 3.09701C4.54962 3.24315 4.491 3.38295 4.38766 3.48629C4.28432 3.58964 4.14452 3.64825 3.99838 3.64952C3.85224 3.65079 3.71144 3.59461 3.60632 3.49308L2.77025 2.65702C2.66576 2.55249 2.60706 2.41075 2.60706 2.26295C2.60706 2.11515 2.66576 1.97341 2.77025 1.86889ZM12.4764 1.86889C12.5809 1.97341 12.6396 2.11515 12.6396 2.26295C12.6396 2.41075 12.5809 2.55249 12.4764 2.65702L11.6404 3.49308C11.5889 3.54632 11.5274 3.58878 11.4594 3.61799C11.3914 3.6472 11.3183 3.66258 11.2443 3.66322C11.1703 3.66387 11.0969 3.64976 11.0284 3.62174C10.9599 3.59371 10.8976 3.55233 10.8453 3.49999C10.793 3.44766 10.7516 3.38543 10.7236 3.31693C10.6955 3.24843 10.6814 3.17503 10.6821 3.10102C10.6827 3.02701 10.6981 2.95388 10.7273 2.88587C10.7565 2.81787 10.799 2.75637 10.8522 2.70495L11.6883 1.86889C11.7928 1.76439 11.9346 1.70569 12.0824 1.70569C12.2301 1.70569 12.3719 1.76439 12.4764 1.86889ZM1.49219 6.72197C1.49219 6.57414 1.55091 6.43237 1.65544 6.32784C1.75997 6.22331 1.90174 6.16459 2.04956 6.16459H2.60694C2.75477 6.16459 2.89654 6.22331 3.00107 6.32784C3.1056 6.43237 3.16432 6.57414 3.16432 6.72197C3.16432 6.86979 3.1056 7.01156 3.00107 7.11609C2.89654 7.22062 2.75477 7.27934 2.60694 7.27934H2.04956C1.90174 7.27934 1.75997 7.22062 1.65544 7.11609C1.55091 7.01156 1.49219 6.86979 1.49219 6.72197ZM12.0824 6.72197C12.0824 6.57414 12.1411 6.43237 12.2456 6.32784C12.3501 6.22331 12.4919 6.16459 12.6397 6.16459H13.1971C13.3449 6.16459 13.4867 6.22331 13.5912 6.32784C13.6958 6.43237 13.7545 6.57414 13.7545 6.72197C13.7545 6.86979 13.6958 7.01156 13.5912 7.11609C13.4867 7.22062 13.3449 7.27934 13.1971 7.27934H12.6397C12.4919 7.27934 12.3501 7.22062 12.2456 7.11609C12.1411 7.01156 12.0824 6.86979 12.0824 6.72197ZM4.39445 9.95085C4.49894 10.0554 4.55764 10.1971 4.55764 10.3449C4.55764 10.4927 4.49894 10.6345 4.39445 10.739L3.55838 11.5751C3.45326 11.6766 3.31247 11.7328 3.16632 11.7315C3.02018 11.7302 2.88038 11.6716 2.77704 11.5683C2.6737 11.4649 2.61508 11.3251 2.61381 11.179C2.61254 11.0328 2.66872 10.892 2.77025 10.7869L3.60632 9.95085C3.71084 9.84636 3.85259 9.78766 4.00038 9.78766C4.14818 9.78766 4.28993 9.84636 4.39445 9.95085ZM10.8522 9.95085C10.9567 9.84636 11.0985 9.78766 11.2463 9.78766C11.3941 9.78766 11.5358 9.84636 11.6404 9.95085L12.4764 10.7869C12.5779 10.892 12.6341 11.0328 12.6329 11.179C12.6316 11.3251 12.573 11.4649 12.4696 11.5683C12.3663 11.6716 12.2265 11.7302 12.0803 11.7315C11.9342 11.7328 11.7934 11.6766 11.6883 11.5751L10.8522 10.739C10.7477 10.6345 10.689 10.4927 10.689 10.3449C10.689 10.1971 10.7477 10.0554 10.8522 9.95085ZM7.62333 11.181C7.77116 11.181 7.91293 11.2397 8.01746 11.3442C8.12199 11.4488 8.18071 11.5905 8.18071 11.7384V12.2957C8.18071 12.4436 8.12199 12.5853 8.01746 12.6899C7.91293 12.7944 7.77116 12.8531 7.62333 12.8531C7.47551 12.8531 7.33374 12.7944 7.22921 12.6899C7.12468 12.5853 7.06596 12.4436 7.06596 12.2957V11.7384C7.06596 11.5905 7.12468 11.4488 7.22921 11.3442C7.33374 11.2397 7.47551 11.181 7.62333 11.181Z" fill="#343741"/>
</g>
<defs>
<clipPath id="clip0_662_324">
<rect width="13.377" height="13.377" fill="white" transform="translate(0.935547 0.0332031)"/>
</clipPath>
</defs>
</svg>
