<?xml version="1.0" standalone="no"?>
<!DOCTYPE svg PUBLIC "-//W3C//DTD SVG 20010904//EN"
 "http://www.w3.org/TR/2001/REC-SVG-20010904/DTD/svg10.dtd">
<svg version="1.0" xmlns="http://www.w3.org/2000/svg"
 width="297.000000pt" height="88.000000pt" viewBox="0 0 297.000000 88.000000"
 preserveAspectRatio="xMidYMid meet">

<g transform="translate(0.000000,88.000000) scale(0.100000,-0.100000)"
fill="#000000" stroke="none">
<path d="M125 809 c-19 -17 -40 -47 -45 -67 -7 -23 -10 -131 -8 -287 3 -226 5
-250 20 -253 16 -3 17 19 20 267 l3 271 33 32 32 33 225 3 c188 3 225 5 225
18 0 12 -37 14 -235 14 l-234 0 -36 -31z"/>
<path d="M800 456 l0 -266 -34 -38 -34 -37 -269 -5 c-229 -4 -268 -7 -268 -20
0 -13 37 -15 270 -15 311 0 322 2 356 80 18 40 19 65 17 302 -3 236 -4 258
-20 261 -17 3 -18 -15 -18 -262z"/>
<path d="M239 681 c-20 -16 -24 -29 -24 -70 0 -75 15 -85 131 -89 53 -2 116
-1 140 3 l45 6 -3 82 -3 82 -131 3 c-117 2 -134 1 -155 -17z"/>
<path d="M1075 665 c-48 -48 -31 -95 55 -149 46 -29 49 -69 7 -74 -17 -2 -36
3 -47 13 -17 15 -19 15 -34 -6 -15 -22 -14 -24 12 -41 15 -10 45 -18 70 -18
58 0 92 33 92 88 0 44 -13 58 -78 91 -33 17 -43 27 -40 43 5 32 33 46 59 30
18 -12 24 -11 38 3 15 15 15 17 -3 31 -33 23 -103 18 -131 -11z"/>
<path d="M1563 580 c-32 -13 -55 -54 -55 -97 0 -29 7 -43 31 -65 46 -41 111
-37 111 8 0 17 -4 22 -15 18 -48 -19 -90 30 -65 76 9 18 19 21 46 18 30 -3 34
-1 34 18 0 32 -39 43 -87 24z"/>
<path d="M1732 563 c-64 -59 -33 -173 48 -173 17 0 40 5 51 10 13 7 19 7 19 0
0 -5 11 -10 25 -10 25 0 25 0 25 95 l0 95 -37 0 c-21 -1 -52 2 -69 5 -26 6
-37 2 -62 -22z m99 -33 c29 -16 25 -65 -6 -86 -23 -15 -27 -15 -50 0 -29 19
-33 56 -9 80 18 19 38 20 65 6z"/>
<path d="M2022 574 c-12 -8 -22 -10 -22 -5 0 6 -11 11 -25 11 -25 0 -25 0 -25
-95 0 -95 0 -95 25 -95 24 0 25 3 25 58 0 69 19 103 47 86 14 -9 19 -26 21
-78 3 -63 4 -66 27 -66 24 0 25 3 25 63 0 65 11 87 41 87 23 0 29 -20 29 -91
0 -56 1 -59 25 -59 25 0 25 1 25 80 0 67 -3 83 -20 100 -24 24 -57 26 -80 5
-15 -14 -20 -14 -46 0 -36 19 -44 19 -72 -1z"/>
<path d="M2319 562 c-25 -23 -32 -36 -33 -70 -2 -112 157 -148 200 -45 44 104
-82 191 -167 115z m105 -38 c19 -18 21 -55 4 -72 -15 -15 -61 -15 -76 0 -28
28 -2 88 38 88 10 0 26 -7 34 -16z"/>
<path d="M2622 574 c-12 -8 -22 -10 -22 -5 0 6 -14 11 -30 11 l-31 0 3 -92 3
-93 28 -3 c27 -3 27 -3 27 57 0 61 15 91 46 91 8 0 14 10 14 25 0 29 -7 31
-38 9z"/>
<path d="M2735 565 c-19 -19 -25 -35 -25 -70 0 -90 91 -137 156 -81 l28 23
-22 12 c-18 9 -27 8 -47 -5 -24 -16 -27 -16 -45 1 -11 10 -20 22 -20 27 0 4
32 8 70 8 41 0 70 4 70 10 0 24 -30 79 -48 89 -37 20 -91 13 -117 -14z m95
-19 c0 -2 3 -11 6 -20 5 -13 -2 -16 -35 -16 -42 0 -50 7 -29 28 11 11 58 17
58 8z"/>
<path d="M1312 494 c40 -86 40 -87 24 -121 -21 -45 -20 -53 7 -53 20 0 32 17
80 123 32 67 57 125 57 130 0 4 -11 7 -25 7 -20 0 -28 -9 -46 -50 -12 -27 -25
-50 -28 -50 -4 0 -17 23 -28 50 -19 44 -25 50 -51 50 l-31 0 41 -86z"/>
<path d="M340 327 c0 -106 2 -107 177 -107 122 0 142 2 156 18 40 44 29 129
-19 151 -15 6 -83 11 -169 11 l-145 0 0 -73z"/>
<path d="M2437 323 c-4 -3 -7 -27 -7 -51 0 -57 7 -51 12 11 5 50 5 51 -5 40z"/>
<path d="M2030 275 c0 -27 2 -46 4 -44 8 8 10 78 3 85 -4 4 -7 -14 -7 -41z"/>
<path d="M2118 313 c-2 -5 -1 -28 3 -53 l6 -45 1 53 c2 48 -2 63 -10 45z"/>
<path d="M2255 290 c-3 -6 1 -7 9 -4 18 7 21 14 7 14 -6 0 -13 -4 -16 -10z"/>
<path d="M2480 285 c-6 -8 -10 -19 -8 -24 1 -6 8 1 15 14 13 28 11 31 -7 10z"/>
<path d="M2532 278 c7 -15 15 -23 17 -17 2 6 -4 18 -13 27 -15 15 -15 15 -4
-10z"/>
<path d="M2573 265 c0 -22 2 -30 4 -17 2 12 2 30 0 40 -3 9 -5 -1 -4 -23z"/>
<path d="M2831 275 c-1 -31 14 -55 33 -55 5 0 2 6 -6 13 -9 6 -19 26 -21 42
l-4 30 -2 -30z"/>
<path d="M2893 260 c0 -25 2 -35 4 -22 2 12 2 32 0 45 -2 12 -4 2 -4 -23z"/>
<path d="M2150 261 c0 -11 4 -22 9 -25 4 -3 6 6 3 19 -5 30 -12 33 -12 6z"/>
<path d="M2680 225 c0 -8 2 -15 4 -15 2 0 6 7 10 15 3 8 1 15 -4 15 -6 0 -10
-7 -10 -15z"/>
</g>
</svg>
