<svg width="200" height="200" viewBox="0 0 303 250" fill="none" xmlns="http://www.w3.org/2000/svg">
<path d="M101.952 0L103.642 2.92969H100.262L101.952 0Z" fill="#EE8888"/>
<path d="M101.952 0L103.642 2.92969H100.262L101.952 0Z" fill="#EE8888"/>
<path d="M101.952 11.7188L103.642 14.6484H100.262L101.952 11.7188Z" fill="#EE8888"/>
<path d="M101.952 23.4375L103.642 26.3672H100.262L101.952 23.4375Z" fill="#EE8888"/>
<path d="M101.952 35.1562L103.642 38.0859H100.262L101.952 35.1562Z" fill="#EE8888"/>
<path d="M101.952 46.875L103.642 49.8047H100.262L101.952 46.875Z" fill="#EE8888"/>
<path d="M101.952 58.5938L103.642 61.5234H100.262L101.952 58.5938Z" fill="#EE8888"/>
<path d="M101.952 70.3125L103.642 73.2422H100.262L101.952 70.3125Z" fill="#EE8888"/>
<path d="M101.952 82.0312L103.642 84.9609H100.262L101.952 82.0312Z" fill="#EE8888"/>
<path d="M101.952 93.75L103.642 96.6797H100.262L101.952 93.75Z" fill="#EE8888"/>
<path d="M101.952 105.469L103.642 108.398H100.262L101.952 105.469Z" fill="#EE8888"/>
<path d="M101.952 117.188L103.642 120.117H100.262L101.952 117.188Z" fill="#EE8888"/>
<path d="M101.952 128.906L103.642 131.836H100.262L101.952 128.906Z" fill="#EE8888"/>
<path d="M101.952 140.625L103.642 143.555H100.262L101.952 140.625Z" fill="#EE8888"/>
<path d="M101.952 152.344L103.642 155.273H100.262L101.952 152.344Z" fill="#EE8888"/>
<path d="M101.952 164.062L103.642 166.992H100.262L101.952 164.062Z" fill="#EE8888"/>
<path d="M101.952 175.781L103.642 178.711H100.262L101.952 175.781Z" fill="#EE8888"/>
<path d="M101.952 187.5L103.642 190.43H100.262L101.952 187.5Z" fill="#EE8888"/>
<path d="M101.952 199.219L103.642 202.148H100.262L101.952 199.219Z" fill="#EE8888"/>
<path d="M101.952 210.938L103.642 213.867H100.262L101.952 210.938Z" fill="#EE8888"/>
<path d="M101.952 222.656L103.642 225.586H100.262L101.952 222.656Z" fill="#EE8888"/>
<path d="M101.952 234.375L103.642 237.305H100.262L101.952 234.375Z" fill="#EE8888"/>
<path d="M101.952 246.094L103.642 249.023H100.262L101.952 246.094Z" fill="#EE8888"/>
<path d="M101.952 0L103.642 2.92969H100.262L101.952 0Z" fill="#EE8888"/>
<path d="M101.952 0L103.642 2.92969H100.262L101.952 0Z" fill="#EE8888"/>
<path d="M101.952 11.7188L103.642 14.6484H100.262L101.952 11.7188Z" fill="#EE8888"/>
<path d="M101.952 23.4375L103.642 26.3672H100.262L101.952 23.4375Z" fill="#EE8888"/>
<path d="M101.952 35.1562L103.642 38.0859H100.262L101.952 35.1562Z" fill="#EE8888"/>
<path d="M101.952 46.875L103.642 49.8047H100.262L101.952 46.875Z" fill="#EE8888"/>
<path d="M101.952 58.5938L103.642 61.5234H100.262L101.952 58.5938Z" fill="#EE8888"/>
<path d="M101.952 70.3125L103.642 73.2422H100.262L101.952 70.3125Z" fill="#EE8888"/>
<path d="M101.952 82.0312L103.642 84.9609H100.262L101.952 82.0312Z" fill="#EE8888"/>
<path d="M101.952 93.75L103.642 96.6797H100.262L101.952 93.75Z" fill="#EE8888"/>
<path d="M101.952 105.469L103.642 108.398H100.262L101.952 105.469Z" fill="#EE8888"/>
<path d="M101.952 117.188L103.642 120.117H100.262L101.952 117.188Z" fill="#EE8888"/>
<path d="M101.952 128.906L103.642 131.836H100.262L101.952 128.906Z" fill="#EE8888"/>
<path d="M101.952 140.625L103.642 143.555H100.262L101.952 140.625Z" fill="#EE8888"/>
<path d="M101.952 152.344L103.642 155.273H100.262L101.952 152.344Z" fill="#EE8888"/>
<path d="M101.952 164.062L103.642 166.992H100.262L101.952 164.062Z" fill="#EE8888"/>
<path d="M101.952 175.781L103.642 178.711H100.262L101.952 175.781Z" fill="#EE8888"/>
<path d="M101.952 187.5L103.642 190.43H100.262L101.952 187.5Z" fill="#EE8888"/>
<path d="M101.952 199.219L103.642 202.148H100.262L101.952 199.219Z" fill="#EE8888"/>
<path d="M101.952 210.938L103.642 213.867H100.262L101.952 210.938Z" fill="#EE8888"/>
<path d="M101.952 222.656L103.642 225.586H100.262L101.952 222.656Z" fill="#EE8888"/>
<path d="M101.952 234.375L103.642 237.305H100.262L101.952 234.375Z" fill="#EE8888"/>
<path d="M101.952 246.094L103.642 249.023H100.262L101.952 246.094Z" fill="#EE8888"/>
<path d="M113.663 0L115.354 2.92969H111.973L113.663 0Z" fill="#EE8888"/>
<path d="M113.663 0L115.354 2.92969H111.973L113.663 0Z" fill="#EE8888"/>
<path d="M113.663 11.7188L115.354 14.6484H111.973L113.663 11.7188Z" fill="#EE8888"/>
<path d="M113.663 23.4375L115.354 26.3672H111.973L113.663 23.4375Z" fill="#EE8888"/>
<path d="M113.663 35.1562L115.354 38.0859H111.973L113.663 35.1562Z" fill="#EE8888"/>
<path d="M113.663 46.875L115.354 49.8047H111.973L113.663 46.875Z" fill="#EE8888"/>
<path d="M113.663 58.5938L115.354 61.5234H111.973L113.663 58.5938Z" fill="#EE8888"/>
<path d="M113.663 70.3125L115.354 73.2422H111.973L113.663 70.3125Z" fill="#EE8888"/>
<path d="M113.663 82.0312L115.354 84.9609H111.973L113.663 82.0312Z" fill="#EE8888"/>
<path d="M113.663 93.75L115.354 96.6797H111.973L113.663 93.75Z" fill="#EE8888"/>
<path d="M113.663 105.469L115.354 108.398H111.973L113.663 105.469Z" fill="#EE8888"/>
<path d="M113.663 117.188L115.354 120.117H111.973L113.663 117.188Z" fill="#EE8888"/>
<path d="M113.663 128.906L115.354 131.836H111.973L113.663 128.906Z" fill="#EE8888"/>
<path d="M113.663 140.625L115.354 143.555H111.973L113.663 140.625Z" fill="#EE8888"/>
<path d="M113.663 152.344L115.354 155.273H111.973L113.663 152.344Z" fill="#EE8888"/>
<path d="M113.663 164.062L115.354 166.992H111.973L113.663 164.062Z" fill="#EE8888"/>
<path d="M113.663 175.781L115.354 178.711H111.973L113.663 175.781Z" fill="#EE8888"/>
<path d="M113.663 187.5L115.354 190.43H111.973L113.663 187.5Z" fill="#EE8888"/>
<path d="M113.663 199.219L115.354 202.148H111.973L113.663 199.219Z" fill="#EE8888"/>
<path d="M113.663 210.938L115.354 213.867H111.973L113.663 210.938Z" fill="#EE8888"/>
<path d="M113.663 222.656L115.354 225.586H111.973L113.663 222.656Z" fill="#EE8888"/>
<path d="M113.663 234.375L115.354 237.305H111.973L113.663 234.375Z" fill="#EE8888"/>
<path d="M113.663 246.094L115.354 249.023H111.973L113.663 246.094Z" fill="#EE8888"/>
<path d="M125.375 0L127.065 2.92969H123.684L125.375 0Z" fill="#EE8888"/>
<path d="M125.375 0L127.065 2.92969H123.684L125.375 0Z" fill="#EE8888"/>
<path d="M125.375 11.7188L127.065 14.6484H123.684L125.375 11.7188Z" fill="#EE8888"/>
<path d="M125.375 23.4375L127.065 26.3672H123.684L125.375 23.4375Z" fill="#EE8888"/>
<path d="M125.375 35.1562L127.065 38.0859H123.684L125.375 35.1562Z" fill="#EE8888"/>
<path d="M125.375 46.875L127.065 49.8047H123.684L125.375 46.875Z" fill="#EE8888"/>
<path d="M125.375 58.5938L127.065 61.5234H123.684L125.375 58.5938Z" fill="#EE8888"/>
<path d="M125.375 70.3125L127.065 73.2422H123.684L125.375 70.3125Z" fill="#EE8888"/>
<path d="M125.375 82.0312L127.065 84.9609H123.684L125.375 82.0312Z" fill="#EE8888"/>
<path d="M125.375 93.75L127.065 96.6797H123.684L125.375 93.75Z" fill="#EE8888"/>
<path d="M125.375 105.469L127.065 108.398H123.684L125.375 105.469Z" fill="#EE8888"/>
<path d="M125.375 117.188L127.065 120.117H123.684L125.375 117.188Z" fill="#EE8888"/>
<path d="M125.375 128.906L127.065 131.836H123.684L125.375 128.906Z" fill="#EE8888"/>
<path d="M125.375 140.625L127.065 143.555H123.684L125.375 140.625Z" fill="#EE8888"/>
<path d="M125.375 152.344L127.065 155.273H123.684L125.375 152.344Z" fill="#EE8888"/>
<path d="M125.375 164.062L127.065 166.992H123.684L125.375 164.062Z" fill="#EE8888"/>
<path d="M125.375 175.781L127.065 178.711H123.684L125.375 175.781Z" fill="#EE8888"/>
<path d="M125.375 187.5L127.065 190.43H123.684L125.375 187.5Z" fill="#EE8888"/>
<path d="M125.375 199.219L127.065 202.148H123.684L125.375 199.219Z" fill="#EE8888"/>
<path d="M125.375 210.938L127.065 213.867H123.684L125.375 210.938Z" fill="#EE8888"/>
<path d="M125.375 222.656L127.065 225.586H123.684L125.375 222.656Z" fill="#EE8888"/>
<path d="M125.375 234.375L127.065 237.305H123.684L125.375 234.375Z" fill="#EE8888"/>
<path d="M125.375 246.094L127.065 249.023H123.684L125.375 246.094Z" fill="#EE8888"/>
<path d="M137.087 0L138.777 2.92969H135.396L137.087 0Z" fill="#EE8888"/>
<path d="M137.087 0L138.777 2.92969H135.396L137.087 0Z" fill="#EE8888"/>
<path d="M137.087 11.7188L138.777 14.6484H135.396L137.087 11.7188Z" fill="#EE8888"/>
<path d="M137.087 23.4375L138.777 26.3672H135.396L137.087 23.4375Z" fill="#EE8888"/>
<path d="M137.087 35.1562L138.777 38.0859H135.396L137.087 35.1562Z" fill="#EE8888"/>
<path d="M137.087 46.875L138.777 49.8047H135.396L137.087 46.875Z" fill="#EE8888"/>
<path d="M137.087 58.5938L138.777 61.5234H135.396L137.087 58.5938Z" fill="#EE8888"/>
<path d="M137.087 70.3125L138.777 73.2422H135.396L137.087 70.3125Z" fill="#EE8888"/>
<path d="M137.087 82.0312L138.777 84.9609H135.396L137.087 82.0312Z" fill="#EE8888"/>
<path d="M137.087 93.75L138.777 96.6797H135.396L137.087 93.75Z" fill="#EE8888"/>
<path d="M137.087 105.469L138.777 108.398H135.396L137.087 105.469Z" fill="#EE8888"/>
<path d="M137.087 117.188L138.777 120.117H135.396L137.087 117.188Z" fill="#EE8888"/>
<path d="M137.087 128.906L138.777 131.836H135.396L137.087 128.906Z" fill="#EE8888"/>
<path d="M137.087 140.625L138.777 143.555H135.396L137.087 140.625Z" fill="#EE8888"/>
<path d="M137.087 152.344L138.777 155.273H135.396L137.087 152.344Z" fill="#EE8888"/>
<path d="M137.087 164.062L138.777 166.992H135.396L137.087 164.062Z" fill="#EE8888"/>
<path d="M137.087 175.781L138.777 178.711H135.396L137.087 175.781Z" fill="#EE8888"/>
<path d="M137.087 187.5L138.777 190.43H135.396L137.087 187.5Z" fill="#EE8888"/>
<path d="M137.087 199.219L138.777 202.148H135.396L137.087 199.219Z" fill="#EE8888"/>
<path d="M137.087 210.938L138.777 213.867H135.396L137.087 210.938Z" fill="#EE8888"/>
<path d="M137.087 222.656L138.777 225.586H135.396L137.087 222.656Z" fill="#EE8888"/>
<path d="M137.087 234.375L138.777 237.305H135.396L137.087 234.375Z" fill="#EE8888"/>
<path d="M137.087 246.094L138.777 249.023H135.396L137.087 246.094Z" fill="#EE8888"/>
<path d="M148.798 0L150.489 2.92969H147.108L148.798 0Z" fill="#EE8888"/>
<path d="M148.798 0L150.489 2.92969H147.108L148.798 0Z" fill="#EE8888"/>
<path d="M148.798 11.7188L150.489 14.6484H147.108L148.798 11.7188Z" fill="#EE8888"/>
<path d="M148.798 23.4375L150.489 26.3672H147.108L148.798 23.4375Z" fill="#EE8888"/>
<path d="M148.798 35.1562L150.489 38.0859H147.108L148.798 35.1562Z" fill="#EE8888"/>
<path d="M148.798 46.875L150.489 49.8047H147.108L148.798 46.875Z" fill="#EE8888"/>
<path d="M148.798 58.5938L150.489 61.5234H147.108L148.798 58.5938Z" fill="#EE8888"/>
<path d="M148.798 70.3125L150.489 73.2422H147.108L148.798 70.3125Z" fill="#EE8888"/>
<path d="M148.798 82.0312L150.489 84.9609H147.108L148.798 82.0312Z" fill="#EE8888"/>
<path d="M148.798 93.75L150.489 96.6797H147.108L148.798 93.75Z" fill="#EE8888"/>
<path d="M148.798 105.469L150.489 108.398H147.108L148.798 105.469Z" fill="#EE8888"/>
<path d="M148.798 117.188L150.489 120.117H147.108L148.798 117.188Z" fill="#EE8888"/>
<path d="M148.798 128.906L150.489 131.836H147.108L148.798 128.906Z" fill="#EE8888"/>
<path d="M148.798 140.625L150.489 143.555H147.108L148.798 140.625Z" fill="#EE8888"/>
<path d="M148.798 152.344L150.489 155.273H147.108L148.798 152.344Z" fill="#EE8888"/>
<path d="M148.798 164.062L150.489 166.992H147.108L148.798 164.062Z" fill="#EE8888"/>
<path d="M148.798 175.781L150.489 178.711H147.108L148.798 175.781Z" fill="#EE8888"/>
<path d="M148.798 187.5L150.489 190.43H147.108L148.798 187.5Z" fill="#EE8888"/>
<path d="M148.798 199.219L150.489 202.148H147.108L148.798 199.219Z" fill="#EE8888"/>
<path d="M148.798 210.938L150.489 213.867H147.108L148.798 210.938Z" fill="#EE8888"/>
<path d="M148.798 222.656L150.489 225.586H147.108L148.798 222.656Z" fill="#EE8888"/>
<path d="M148.798 234.375L150.489 237.305H147.108L148.798 234.375Z" fill="#EE8888"/>
<path d="M148.798 246.094L150.489 249.023H147.108L148.798 246.094Z" fill="#EE8888"/>
<path d="M160.51 0L162.2 2.92969H158.819L160.51 0Z" fill="#EE8888"/>
<path d="M160.51 0L162.2 2.92969H158.819L160.51 0Z" fill="#EE8888"/>
<path d="M160.51 11.7188L162.2 14.6484H158.819L160.51 11.7188Z" fill="#EE8888"/>
<path d="M160.51 23.4375L162.2 26.3672H158.819L160.51 23.4375Z" fill="#EE8888"/>
<path d="M160.51 35.1562L162.2 38.0859H158.819L160.51 35.1562Z" fill="#EE8888"/>
<path d="M160.51 46.875L162.2 49.8047H158.819L160.51 46.875Z" fill="#EE8888"/>
<path d="M160.51 58.5938L162.2 61.5234H158.819L160.51 58.5938Z" fill="#EE8888"/>
<path d="M160.51 70.3125L162.2 73.2422H158.819L160.51 70.3125Z" fill="#EE8888"/>
<path d="M160.51 82.0312L162.2 84.9609H158.819L160.51 82.0312Z" fill="#EE8888"/>
<path d="M160.51 93.75L162.2 96.6797H158.819L160.51 93.75Z" fill="#EE8888"/>
<path d="M160.51 105.469L162.2 108.398H158.819L160.51 105.469Z" fill="#EE8888"/>
<path d="M160.51 117.188L162.2 120.117H158.819L160.51 117.188Z" fill="#EE8888"/>
<path d="M160.51 128.906L162.2 131.836H158.819L160.51 128.906Z" fill="#EE8888"/>
<path d="M160.51 140.625L162.2 143.555H158.819L160.51 140.625Z" fill="#EE8888"/>
<path d="M160.51 152.344L162.2 155.273H158.819L160.51 152.344Z" fill="#EE8888"/>
<path d="M160.51 164.062L162.2 166.992H158.819L160.51 164.062Z" fill="#EE8888"/>
<path d="M160.51 175.781L162.2 178.711H158.819L160.51 175.781Z" fill="#EE8888"/>
<path d="M160.51 187.5L162.2 190.43H158.819L160.51 187.5Z" fill="#EE8888"/>
<path d="M160.51 199.219L162.2 202.148H158.819L160.51 199.219Z" fill="#EE8888"/>
<path d="M160.51 210.938L162.2 213.867H158.819L160.51 210.938Z" fill="#EE8888"/>
<path d="M160.51 222.656L162.2 225.586H158.819L160.51 222.656Z" fill="#EE8888"/>
<path d="M160.51 234.375L162.2 237.305H158.819L160.51 234.375Z" fill="#EE8888"/>
<path d="M160.51 246.094L162.2 249.023H158.819L160.51 246.094Z" fill="#EE8888"/>
<path d="M172.221 0L173.911 2.92969H170.531L172.221 0Z" fill="#EE8888"/>
<path d="M172.221 0L173.911 2.92969H170.531L172.221 0Z" fill="#EE8888"/>
<path d="M172.221 11.7188L173.911 14.6484H170.531L172.221 11.7188Z" fill="#EE8888"/>
<path d="M172.221 23.4375L173.911 26.3672H170.531L172.221 23.4375Z" fill="#EE8888"/>
<path d="M172.221 35.1562L173.911 38.0859H170.531L172.221 35.1562Z" fill="#EE8888"/>
<path d="M172.221 46.875L173.911 49.8047H170.531L172.221 46.875Z" fill="#EE8888"/>
<path d="M172.221 58.5938L173.911 61.5234H170.531L172.221 58.5938Z" fill="#EE8888"/>
<path d="M172.221 70.3125L173.911 73.2422H170.531L172.221 70.3125Z" fill="#EE8888"/>
<path d="M172.221 82.0312L173.911 84.9609H170.531L172.221 82.0312Z" fill="#EE8888"/>
<path d="M172.221 93.75L173.911 96.6797H170.531L172.221 93.75Z" fill="#EE8888"/>
<path d="M172.221 105.469L173.911 108.398H170.531L172.221 105.469Z" fill="#EE8888"/>
<path d="M172.221 117.188L173.911 120.117H170.531L172.221 117.188Z" fill="#EE8888"/>
<path d="M172.221 128.906L173.911 131.836H170.531L172.221 128.906Z" fill="#EE8888"/>
<path d="M172.221 140.625L173.911 143.555H170.531L172.221 140.625Z" fill="#EE8888"/>
<path d="M172.221 152.344L173.911 155.273H170.531L172.221 152.344Z" fill="#EE8888"/>
<path d="M172.221 164.062L173.911 166.992H170.531L172.221 164.062Z" fill="#EE8888"/>
<path d="M172.221 175.781L173.911 178.711H170.531L172.221 175.781Z" fill="#EE8888"/>
<path d="M172.221 187.5L173.911 190.43H170.531L172.221 187.5Z" fill="#EE8888"/>
<path d="M172.221 199.219L173.911 202.148H170.531L172.221 199.219Z" fill="#EE8888"/>
<path d="M172.221 210.938L173.911 213.867H170.531L172.221 210.938Z" fill="#EE8888"/>
<path d="M172.221 222.656L173.911 225.586H170.531L172.221 222.656Z" fill="#EE8888"/>
<path d="M172.221 234.375L173.911 237.305H170.531L172.221 234.375Z" fill="#EE8888"/>
<path d="M172.221 246.094L173.911 249.023H170.531L172.221 246.094Z" fill="#EE8888"/>
<path d="M183.933 0L185.623 2.92969H182.242L183.933 0Z" fill="#EE8888"/>
<path d="M183.933 0L185.623 2.92969H182.242L183.933 0Z" fill="#EE8888"/>
<path d="M183.933 11.7188L185.623 14.6484H182.242L183.933 11.7188Z" fill="#EE8888"/>
<path d="M183.933 23.4375L185.623 26.3672H182.242L183.933 23.4375Z" fill="#EE8888"/>
<path d="M183.933 35.1562L185.623 38.0859H182.242L183.933 35.1562Z" fill="#EE8888"/>
<path d="M183.933 46.875L185.623 49.8047H182.242L183.933 46.875Z" fill="#EE8888"/>
<path d="M183.933 58.5938L185.623 61.5234H182.242L183.933 58.5938Z" fill="#EE8888"/>
<path d="M183.933 70.3125L185.623 73.2422H182.242L183.933 70.3125Z" fill="#EE8888"/>
<path d="M183.933 82.0312L185.623 84.9609H182.242L183.933 82.0312Z" fill="#EE8888"/>
<path d="M183.933 93.75L185.623 96.6797H182.242L183.933 93.75Z" fill="#EE8888"/>
<path d="M183.933 105.469L185.623 108.398H182.242L183.933 105.469Z" fill="#EE8888"/>
<path d="M183.933 117.188L185.623 120.117H182.242L183.933 117.188Z" fill="#EE8888"/>
<path d="M183.933 128.906L185.623 131.836H182.242L183.933 128.906Z" fill="#EE8888"/>
<path d="M183.933 140.625L185.623 143.555H182.242L183.933 140.625Z" fill="#EE8888"/>
<path d="M183.933 152.344L185.623 155.273H182.242L183.933 152.344Z" fill="#EE8888"/>
<path d="M183.933 164.062L185.623 166.992H182.242L183.933 164.062Z" fill="#EE8888"/>
<path d="M183.933 175.781L185.623 178.711H182.242L183.933 175.781Z" fill="#EE8888"/>
<path d="M183.933 187.5L185.623 190.43H182.242L183.933 187.5Z" fill="#EE8888"/>
<path d="M183.933 199.219L185.623 202.148H182.242L183.933 199.219Z" fill="#EE8888"/>
<path d="M183.933 210.938L185.623 213.867H182.242L183.933 210.938Z" fill="#EE8888"/>
<path d="M183.933 222.656L185.623 225.586H182.242L183.933 222.656Z" fill="#EE8888"/>
<path d="M183.933 234.375L185.623 237.305H182.242L183.933 234.375Z" fill="#EE8888"/>
<path d="M183.933 246.094L185.623 249.023H182.242L183.933 246.094Z" fill="#EE8888"/>
<path d="M195.644 0L197.335 2.92969H193.954L195.644 0Z" fill="#EE8888"/>
<path d="M195.644 0L197.335 2.92969H193.954L195.644 0Z" fill="#EE8888"/>
<path d="M195.644 11.7188L197.335 14.6484H193.954L195.644 11.7188Z" fill="#EE8888"/>
<path d="M195.644 23.4375L197.335 26.3672H193.954L195.644 23.4375Z" fill="#EE8888"/>
<path d="M195.644 35.1562L197.335 38.0859H193.954L195.644 35.1562Z" fill="#EE8888"/>
<path d="M195.644 46.875L197.335 49.8047H193.954L195.644 46.875Z" fill="#EE8888"/>
<path d="M195.644 58.5938L197.335 61.5234H193.954L195.644 58.5938Z" fill="#EE8888"/>
<path d="M195.644 70.3125L197.335 73.2422H193.954L195.644 70.3125Z" fill="#EE8888"/>
<path d="M195.644 82.0312L197.335 84.9609H193.954L195.644 82.0312Z" fill="#EE8888"/>
<path d="M195.644 93.75L197.335 96.6797H193.954L195.644 93.75Z" fill="#EE8888"/>
<path d="M195.644 105.469L197.335 108.398H193.954L195.644 105.469Z" fill="#EE8888"/>
<path d="M195.644 117.188L197.335 120.117H193.954L195.644 117.188Z" fill="#EE8888"/>
<path d="M195.644 128.906L197.335 131.836H193.954L195.644 128.906Z" fill="#EE8888"/>
<path d="M195.644 140.625L197.335 143.555H193.954L195.644 140.625Z" fill="#EE8888"/>
<path d="M195.644 152.344L197.335 155.273H193.954L195.644 152.344Z" fill="#EE8888"/>
<path d="M195.644 164.062L197.335 166.992H193.954L195.644 164.062Z" fill="#EE8888"/>
<path d="M195.644 175.781L197.335 178.711H193.954L195.644 175.781Z" fill="#EE8888"/>
<path d="M195.644 187.5L197.335 190.43H193.954L195.644 187.5Z" fill="#EE8888"/>
<path d="M195.644 199.219L197.335 202.148H193.954L195.644 199.219Z" fill="#EE8888"/>
<path d="M195.644 210.938L197.335 213.867H193.954L195.644 210.938Z" fill="#EE8888"/>
<path d="M195.644 222.656L197.335 225.586H193.954L195.644 222.656Z" fill="#EE8888"/>
<path d="M195.644 234.375L197.335 237.305H193.954L195.644 234.375Z" fill="#EE8888"/>
<path d="M195.644 246.094L197.335 249.023H193.954L195.644 246.094Z" fill="#EE8888"/>
<path d="M207.356 0L209.046 2.92969H205.665L207.356 0Z" fill="#EE8888"/>
<path d="M207.356 0L209.046 2.92969H205.665L207.356 0Z" fill="#EE8888"/>
<path d="M207.356 11.7188L209.046 14.6484H205.665L207.356 11.7188Z" fill="#EE8888"/>
<path d="M207.356 23.4375L209.046 26.3672H205.665L207.356 23.4375Z" fill="#EE8888"/>
<path d="M207.356 35.1562L209.046 38.0859H205.665L207.356 35.1562Z" fill="#EE8888"/>
<path d="M207.356 46.875L209.046 49.8047H205.665L207.356 46.875Z" fill="#EE8888"/>
<path d="M207.356 58.5938L209.046 61.5234H205.665L207.356 58.5938Z" fill="#EE8888"/>
<path d="M207.356 70.3125L209.046 73.2422H205.665L207.356 70.3125Z" fill="#EE8888"/>
<path d="M207.356 82.0312L209.046 84.9609H205.665L207.356 82.0312Z" fill="#EE8888"/>
<path d="M207.356 93.75L209.046 96.6797H205.665L207.356 93.75Z" fill="#EE8888"/>
<path d="M207.356 105.469L209.046 108.398H205.665L207.356 105.469Z" fill="#EE8888"/>
<path d="M207.356 117.188L209.046 120.117H205.665L207.356 117.188Z" fill="#EE8888"/>
<path d="M207.356 128.906L209.046 131.836H205.665L207.356 128.906Z" fill="#EE8888"/>
<path d="M207.356 140.625L209.046 143.555H205.665L207.356 140.625Z" fill="#EE8888"/>
<path d="M207.356 152.344L209.046 155.273H205.665L207.356 152.344Z" fill="#EE8888"/>
<path d="M207.356 164.062L209.046 166.992H205.665L207.356 164.062Z" fill="#EE8888"/>
<path d="M207.356 175.781L209.046 178.711H205.665L207.356 175.781Z" fill="#EE8888"/>
<path d="M207.356 187.5L209.046 190.43H205.665L207.356 187.5Z" fill="#EE8888"/>
<path d="M207.356 199.219L209.046 202.148H205.665L207.356 199.219Z" fill="#EE8888"/>
<path d="M207.356 210.938L209.046 213.867H205.665L207.356 210.938Z" fill="#EE8888"/>
<path d="M207.356 222.656L209.046 225.586H205.665L207.356 222.656Z" fill="#EE8888"/>
<path d="M207.356 234.375L209.046 237.305H205.665L207.356 234.375Z" fill="#EE8888"/>
<path d="M207.356 246.094L209.046 249.023H205.665L207.356 246.094Z" fill="#EE8888"/>
<path d="M219.067 0L220.758 2.92969H217.377L219.067 0Z" fill="#EE8888"/>
<path d="M219.067 0L220.758 2.92969H217.377L219.067 0Z" fill="#EE8888"/>
<path d="M219.067 11.7188L220.758 14.6484H217.377L219.067 11.7188Z" fill="#EE8888"/>
<path d="M219.067 23.4375L220.758 26.3672H217.377L219.067 23.4375Z" fill="#EE8888"/>
<path d="M219.067 35.1562L220.758 38.0859H217.377L219.067 35.1562Z" fill="#EE8888"/>
<path d="M219.067 46.875L220.758 49.8047H217.377L219.067 46.875Z" fill="#EE8888"/>
<path d="M219.067 58.5938L220.758 61.5234H217.377L219.067 58.5938Z" fill="#EE8888"/>
<path d="M219.067 70.3125L220.758 73.2422H217.377L219.067 70.3125Z" fill="#EE8888"/>
<path d="M219.067 82.0312L220.758 84.9609H217.377L219.067 82.0312Z" fill="#EE8888"/>
<path d="M219.067 93.75L220.758 96.6797H217.377L219.067 93.75Z" fill="#EE8888"/>
<path d="M219.067 105.469L220.758 108.398H217.377L219.067 105.469Z" fill="#EE8888"/>
<path d="M219.067 117.188L220.758 120.117H217.377L219.067 117.188Z" fill="#EE8888"/>
<path d="M219.067 128.906L220.758 131.836H217.377L219.067 128.906Z" fill="#EE8888"/>
<path d="M219.067 140.625L220.758 143.555H217.377L219.067 140.625Z" fill="#EE8888"/>
<path d="M219.067 152.344L220.758 155.273H217.377L219.067 152.344Z" fill="#EE8888"/>
<path d="M219.067 164.062L220.758 166.992H217.377L219.067 164.062Z" fill="#EE8888"/>
<path d="M219.067 175.781L220.758 178.711H217.377L219.067 175.781Z" fill="#EE8888"/>
<path d="M219.067 187.5L220.758 190.43H217.377L219.067 187.5Z" fill="#EE8888"/>
<path d="M219.067 199.219L220.758 202.148H217.377L219.067 199.219Z" fill="#EE8888"/>
<path d="M219.067 210.938L220.758 213.867H217.377L219.067 210.938Z" fill="#EE8888"/>
<path d="M219.067 222.656L220.758 225.586H217.377L219.067 222.656Z" fill="#EE8888"/>
<path d="M219.067 234.375L220.758 237.305H217.377L219.067 234.375Z" fill="#EE8888"/>
<path d="M219.067 246.094L220.758 249.023H217.377L219.067 246.094Z" fill="#EE8888"/>
<path d="M230.779 0L232.469 2.92969H229.089L230.779 0Z" fill="#EE8888"/>
<path d="M230.779 0L232.469 2.92969H229.089L230.779 0Z" fill="#EE8888"/>
<path d="M230.779 11.7188L232.469 14.6484H229.089L230.779 11.7188Z" fill="#EE8888"/>
<path d="M230.779 23.4375L232.469 26.3672H229.089L230.779 23.4375Z" fill="#EE8888"/>
<path d="M230.779 35.1562L232.469 38.0859H229.089L230.779 35.1562Z" fill="#EE8888"/>
<path d="M230.779 46.875L232.469 49.8047H229.089L230.779 46.875Z" fill="#EE8888"/>
<path d="M230.779 58.5938L232.469 61.5234H229.089L230.779 58.5938Z" fill="#EE8888"/>
<path d="M230.779 70.3125L232.469 73.2422H229.089L230.779 70.3125Z" fill="#EE8888"/>
<path d="M230.779 82.0312L232.469 84.9609H229.089L230.779 82.0312Z" fill="#EE8888"/>
<path d="M230.779 93.75L232.469 96.6797H229.089L230.779 93.75Z" fill="#EE8888"/>
<path d="M230.779 105.469L232.469 108.398H229.089L230.779 105.469Z" fill="#EE8888"/>
<path d="M230.779 117.188L232.469 120.117H229.089L230.779 117.188Z" fill="#EE8888"/>
<path d="M230.779 128.906L232.469 131.836H229.089L230.779 128.906Z" fill="#EE8888"/>
<path d="M230.779 140.625L232.469 143.555H229.089L230.779 140.625Z" fill="#EE8888"/>
<path d="M230.779 152.344L232.469 155.273H229.089L230.779 152.344Z" fill="#EE8888"/>
<path d="M230.779 164.062L232.469 166.992H229.089L230.779 164.062Z" fill="#EE8888"/>
<path d="M230.779 175.781L232.469 178.711H229.089L230.779 175.781Z" fill="#EE8888"/>
<path d="M230.779 187.5L232.469 190.43H229.089L230.779 187.5Z" fill="#EE8888"/>
<path d="M230.779 199.219L232.469 202.148H229.089L230.779 199.219Z" fill="#EE8888"/>
<path d="M230.779 210.938L232.469 213.867H229.089L230.779 210.938Z" fill="#EE8888"/>
<path d="M230.779 222.656L232.469 225.586H229.089L230.779 222.656Z" fill="#EE8888"/>
<path d="M230.779 234.375L232.469 237.305H229.089L230.779 234.375Z" fill="#EE8888"/>
<path d="M230.779 246.094L232.469 249.023H229.089L230.779 246.094Z" fill="#EE8888"/>
<path d="M242.49 0L244.181 2.92969H240.8L242.49 0Z" fill="#EE8888"/>
<path d="M242.49 0L244.181 2.92969H240.8L242.49 0Z" fill="#EE8888"/>
<path d="M242.49 11.7188L244.181 14.6484H240.8L242.49 11.7188Z" fill="#EE8888"/>
<path d="M242.49 23.4375L244.181 26.3672H240.8L242.49 23.4375Z" fill="#EE8888"/>
<path d="M242.49 35.1562L244.181 38.0859H240.8L242.49 35.1562Z" fill="#EE8888"/>
<path d="M242.49 46.875L244.181 49.8047H240.8L242.49 46.875Z" fill="#EE8888"/>
<path d="M242.49 58.5938L244.181 61.5234H240.8L242.49 58.5938Z" fill="#EE8888"/>
<path d="M242.49 70.3125L244.181 73.2422H240.8L242.49 70.3125Z" fill="#EE8888"/>
<path d="M242.49 82.0312L244.181 84.9609H240.8L242.49 82.0312Z" fill="#EE8888"/>
<path d="M242.49 93.75L244.181 96.6797H240.8L242.49 93.75Z" fill="#EE8888"/>
<path d="M242.49 105.469L244.181 108.398H240.8L242.49 105.469Z" fill="#EE8888"/>
<path d="M242.49 117.188L244.181 120.117H240.8L242.49 117.188Z" fill="#EE8888"/>
<path d="M242.49 128.906L244.181 131.836H240.8L242.49 128.906Z" fill="#EE8888"/>
<path d="M242.49 140.625L244.181 143.555H240.8L242.49 140.625Z" fill="#EE8888"/>
<path d="M242.49 152.344L244.181 155.273H240.8L242.49 152.344Z" fill="#EE8888"/>
<path d="M242.49 164.062L244.181 166.992H240.8L242.49 164.062Z" fill="#EE8888"/>
<path d="M242.49 175.781L244.181 178.711H240.8L242.49 175.781Z" fill="#EE8888"/>
<path d="M242.49 187.5L244.181 190.43H240.8L242.49 187.5Z" fill="#EE8888"/>
<path d="M242.49 199.219L244.181 202.148H240.8L242.49 199.219Z" fill="#EE8888"/>
<path d="M242.49 210.938L244.181 213.867H240.8L242.49 210.938Z" fill="#EE8888"/>
<path d="M242.49 222.656L244.181 225.586H240.8L242.49 222.656Z" fill="#EE8888"/>
<path d="M242.49 234.375L244.181 237.305H240.8L242.49 234.375Z" fill="#EE8888"/>
<path d="M242.49 246.094L244.181 249.023H240.8L242.49 246.094Z" fill="#EE8888"/>
<path d="M254.202 0L255.892 2.92969H252.512L254.202 0Z" fill="#EE8888"/>
<path d="M254.202 0L255.892 2.92969H252.512L254.202 0Z" fill="#EE8888"/>
<path d="M254.202 11.7188L255.892 14.6484H252.512L254.202 11.7188Z" fill="#EE8888"/>
<path d="M254.202 23.4375L255.892 26.3672H252.512L254.202 23.4375Z" fill="#EE8888"/>
<path d="M254.202 35.1562L255.892 38.0859H252.512L254.202 35.1562Z" fill="#EE8888"/>
<path d="M254.202 46.875L255.892 49.8047H252.512L254.202 46.875Z" fill="#EE8888"/>
<path d="M254.202 58.5938L255.892 61.5234H252.512L254.202 58.5938Z" fill="#EE8888"/>
<path d="M254.202 70.3125L255.892 73.2422H252.512L254.202 70.3125Z" fill="#EE8888"/>
<path d="M254.202 82.0312L255.892 84.9609H252.512L254.202 82.0312Z" fill="#EE8888"/>
<path d="M254.202 93.75L255.892 96.6797H252.512L254.202 93.75Z" fill="#EE8888"/>
<path d="M254.202 105.469L255.892 108.398H252.512L254.202 105.469Z" fill="#EE8888"/>
<path d="M254.202 117.188L255.892 120.117H252.512L254.202 117.188Z" fill="#EE8888"/>
<path d="M254.202 128.906L255.892 131.836H252.512L254.202 128.906Z" fill="#EE8888"/>
<path d="M254.202 140.625L255.892 143.555H252.512L254.202 140.625Z" fill="#EE8888"/>
<path d="M254.202 152.344L255.892 155.273H252.512L254.202 152.344Z" fill="#EE8888"/>
<path d="M254.202 164.062L255.892 166.992H252.512L254.202 164.062Z" fill="#EE8888"/>
<path d="M254.202 175.781L255.892 178.711H252.512L254.202 175.781Z" fill="#EE8888"/>
<path d="M254.202 187.5L255.892 190.43H252.512L254.202 187.5Z" fill="#EE8888"/>
<path d="M254.202 199.219L255.892 202.148H252.512L254.202 199.219Z" fill="#EE8888"/>
<path d="M254.202 210.938L255.892 213.867H252.512L254.202 210.938Z" fill="#EE8888"/>
<path d="M254.202 222.656L255.892 225.586H252.512L254.202 222.656Z" fill="#EE8888"/>
<path d="M254.202 234.375L255.892 237.305H252.512L254.202 234.375Z" fill="#EE8888"/>
<path d="M254.202 246.094L255.892 249.023H252.512L254.202 246.094Z" fill="#EE8888"/>
<path d="M265.913 0L267.604 2.92969H264.223L265.913 0Z" fill="#EE8888"/>
<path d="M265.913 0L267.604 2.92969H264.223L265.913 0Z" fill="#EE8888"/>
<path d="M265.913 11.7188L267.604 14.6484H264.223L265.913 11.7188Z" fill="#EE8888"/>
<path d="M265.913 23.4375L267.604 26.3672H264.223L265.913 23.4375Z" fill="#EE8888"/>
<path d="M265.913 35.1562L267.604 38.0859H264.223L265.913 35.1562Z" fill="#EE8888"/>
<path d="M265.913 46.875L267.604 49.8047H264.223L265.913 46.875Z" fill="#EE8888"/>
<path d="M265.913 58.5938L267.604 61.5234H264.223L265.913 58.5938Z" fill="#EE8888"/>
<path d="M265.913 70.3125L267.604 73.2422H264.223L265.913 70.3125Z" fill="#EE8888"/>
<path d="M265.913 82.0312L267.604 84.9609H264.223L265.913 82.0312Z" fill="#EE8888"/>
<path d="M265.913 93.75L267.604 96.6797H264.223L265.913 93.75Z" fill="#EE8888"/>
<path d="M265.913 105.469L267.604 108.398H264.223L265.913 105.469Z" fill="#EE8888"/>
<path d="M265.913 117.188L267.604 120.117H264.223L265.913 117.188Z" fill="#EE8888"/>
<path d="M265.913 128.906L267.604 131.836H264.223L265.913 128.906Z" fill="#EE8888"/>
<path d="M265.913 140.625L267.604 143.555H264.223L265.913 140.625Z" fill="#EE8888"/>
<path d="M265.913 152.344L267.604 155.273H264.223L265.913 152.344Z" fill="#EE8888"/>
<path d="M265.913 164.062L267.604 166.992H264.223L265.913 164.062Z" fill="#EE8888"/>
<path d="M265.913 175.781L267.604 178.711H264.223L265.913 175.781Z" fill="#EE8888"/>
<path d="M265.913 187.5L267.604 190.43H264.223L265.913 187.5Z" fill="#EE8888"/>
<path d="M265.913 199.219L267.604 202.148H264.223L265.913 199.219Z" fill="#EE8888"/>
<path d="M265.913 210.938L267.604 213.867H264.223L265.913 210.938Z" fill="#EE8888"/>
<path d="M265.913 222.656L267.604 225.586H264.223L265.913 222.656Z" fill="#EE8888"/>
<path d="M265.913 234.375L267.604 237.305H264.223L265.913 234.375Z" fill="#EE8888"/>
<path d="M265.913 246.094L267.604 249.023H264.223L265.913 246.094Z" fill="#EE8888"/>
<path d="M277.625 0L279.315 2.92969H275.934L277.625 0Z" fill="#EE8888"/>
<path d="M277.625 0L279.315 2.92969H275.934L277.625 0Z" fill="#EE8888"/>
<path d="M277.625 11.7188L279.315 14.6484H275.934L277.625 11.7188Z" fill="#EE8888"/>
<path d="M277.625 23.4375L279.315 26.3672H275.934L277.625 23.4375Z" fill="#EE8888"/>
<path d="M277.625 35.1562L279.315 38.0859H275.934L277.625 35.1562Z" fill="#EE8888"/>
<path d="M277.625 46.875L279.315 49.8047H275.934L277.625 46.875Z" fill="#EE8888"/>
<path d="M277.625 58.5938L279.315 61.5234H275.934L277.625 58.5938Z" fill="#EE8888"/>
<path d="M277.625 70.3125L279.315 73.2422H275.934L277.625 70.3125Z" fill="#EE8888"/>
<path d="M277.625 82.0312L279.315 84.9609H275.934L277.625 82.0312Z" fill="#EE8888"/>
<path d="M277.625 93.75L279.315 96.6797H275.934L277.625 93.75Z" fill="#EE8888"/>
<path d="M277.625 105.469L279.315 108.398H275.934L277.625 105.469Z" fill="#EE8888"/>
<path d="M277.625 117.188L279.315 120.117H275.934L277.625 117.188Z" fill="#EE8888"/>
<path d="M277.625 128.906L279.315 131.836H275.934L277.625 128.906Z" fill="#EE8888"/>
<path d="M277.625 140.625L279.315 143.555H275.934L277.625 140.625Z" fill="#EE8888"/>
<path d="M277.625 152.344L279.315 155.273H275.934L277.625 152.344Z" fill="#EE8888"/>
<path d="M277.625 164.062L279.315 166.992H275.934L277.625 164.062Z" fill="#EE8888"/>
<path d="M277.625 175.781L279.315 178.711H275.934L277.625 175.781Z" fill="#EE8888"/>
<path d="M277.625 187.5L279.315 190.43H275.934L277.625 187.5Z" fill="#EE8888"/>
<path d="M277.625 199.219L279.315 202.148H275.934L277.625 199.219Z" fill="#EE8888"/>
<path d="M277.625 210.938L279.315 213.867H275.934L277.625 210.938Z" fill="#EE8888"/>
<path d="M277.625 222.656L279.315 225.586H275.934L277.625 222.656Z" fill="#EE8888"/>
<path d="M277.625 234.375L279.315 237.305H275.934L277.625 234.375Z" fill="#EE8888"/>
<path d="M277.625 246.094L279.315 249.023H275.934L277.625 246.094Z" fill="#EE8888"/>
<path d="M289.337 0L291.027 2.92969H287.646L289.337 0Z" fill="#EE8888"/>
<path d="M289.337 0L291.027 2.92969H287.646L289.337 0Z" fill="#EE8888"/>
<path d="M289.337 11.7188L291.027 14.6484H287.646L289.337 11.7188Z" fill="#EE8888"/>
<path d="M289.337 23.4375L291.027 26.3672H287.646L289.337 23.4375Z" fill="#EE8888"/>
<path d="M289.337 35.1562L291.027 38.0859H287.646L289.337 35.1562Z" fill="#EE8888"/>
<path d="M289.337 46.875L291.027 49.8047H287.646L289.337 46.875Z" fill="#EE8888"/>
<path d="M289.337 58.5938L291.027 61.5234H287.646L289.337 58.5938Z" fill="#EE8888"/>
<path d="M289.337 70.3125L291.027 73.2422H287.646L289.337 70.3125Z" fill="#EE8888"/>
<path d="M289.337 82.0312L291.027 84.9609H287.646L289.337 82.0312Z" fill="#EE8888"/>
<path d="M289.337 93.75L291.027 96.6797H287.646L289.337 93.75Z" fill="#EE8888"/>
<path d="M289.337 105.469L291.027 108.398H287.646L289.337 105.469Z" fill="#EE8888"/>
<path d="M289.337 117.188L291.027 120.117H287.646L289.337 117.188Z" fill="#EE8888"/>
<path d="M289.337 128.906L291.027 131.836H287.646L289.337 128.906Z" fill="#EE8888"/>
<path d="M289.337 140.625L291.027 143.555H287.646L289.337 140.625Z" fill="#EE8888"/>
<path d="M289.337 152.344L291.027 155.273H287.646L289.337 152.344Z" fill="#EE8888"/>
<path d="M289.337 164.062L291.027 166.992H287.646L289.337 164.062Z" fill="#EE8888"/>
<path d="M289.337 175.781L291.027 178.711H287.646L289.337 175.781Z" fill="#EE8888"/>
<path d="M289.337 187.5L291.027 190.43H287.646L289.337 187.5Z" fill="#EE8888"/>
<path d="M289.337 199.219L291.027 202.148H287.646L289.337 199.219Z" fill="#EE8888"/>
<path d="M289.337 210.938L291.027 213.867H287.646L289.337 210.938Z" fill="#EE8888"/>
<path d="M289.337 222.656L291.027 225.586H287.646L289.337 222.656Z" fill="#EE8888"/>
<path d="M289.337 234.375L291.027 237.305H287.646L289.337 234.375Z" fill="#EE8888"/>
<path d="M289.337 246.094L291.027 249.023H287.646L289.337 246.094Z" fill="#EE8888"/>
<path d="M301.048 0L302.739 2.92969H299.358L301.048 0Z" fill="#EE8888"/>
<path d="M301.048 0L302.739 2.92969H299.358L301.048 0Z" fill="#EE8888"/>
<path d="M301.048 11.7188L302.739 14.6484H299.358L301.048 11.7188Z" fill="#EE8888"/>
<path d="M301.048 23.4375L302.739 26.3672H299.358L301.048 23.4375Z" fill="#EE8888"/>
<path d="M301.048 35.1562L302.739 38.0859H299.358L301.048 35.1562Z" fill="#EE8888"/>
<path d="M301.048 46.875L302.739 49.8047H299.358L301.048 46.875Z" fill="#EE8888"/>
<path d="M301.048 58.5938L302.739 61.5234H299.358L301.048 58.5938Z" fill="#EE8888"/>
<path d="M301.048 70.3125L302.739 73.2422H299.358L301.048 70.3125Z" fill="#EE8888"/>
<path d="M301.048 82.0312L302.739 84.9609H299.358L301.048 82.0312Z" fill="#EE8888"/>
<path d="M301.048 93.75L302.739 96.6797H299.358L301.048 93.75Z" fill="#EE8888"/>
<path d="M301.048 105.469L302.739 108.398H299.358L301.048 105.469Z" fill="#EE8888"/>
<path d="M301.048 117.188L302.739 120.117H299.358L301.048 117.188Z" fill="#EE8888"/>
<path d="M301.048 128.906L302.739 131.836H299.358L301.048 128.906Z" fill="#EE8888"/>
<path d="M301.048 140.625L302.739 143.555H299.358L301.048 140.625Z" fill="#EE8888"/>
<path d="M301.048 152.344L302.739 155.273H299.358L301.048 152.344Z" fill="#EE8888"/>
<path d="M301.048 164.062L302.739 166.992H299.358L301.048 164.062Z" fill="#EE8888"/>
<path d="M301.048 175.781L302.739 178.711H299.358L301.048 175.781Z" fill="#EE8888"/>
<path d="M301.048 187.5L302.739 190.43H299.358L301.048 187.5Z" fill="#EE8888"/>
<path d="M301.048 199.219L302.739 202.148H299.358L301.048 199.219Z" fill="#EE8888"/>
<path d="M301.048 210.938L302.739 213.867H299.358L301.048 210.938Z" fill="#EE8888"/>
<path d="M301.048 222.656L302.739 225.586H299.358L301.048 222.656Z" fill="#EE8888"/>
<path d="M301.048 234.375L302.739 237.305H299.358L301.048 234.375Z" fill="#EE8888"/>
<path d="M301.048 246.094L302.739 249.023H299.358L301.048 246.094Z" fill="#EE8888"/>
<rect y="12" width="240" height="202" fill="#F4B400"/>
</svg>
