<svg width="200" height="200" viewBox="0 0 305 250" fill="none" xmlns="http://www.w3.org/2000/svg">
<path d="M103.952 0L105.642 2.92969H102.262L103.952 0Z" fill="#EE8888"/>
<path d="M103.952 0L105.642 2.92969H102.262L103.952 0Z" fill="#EE8888"/>
<path d="M103.952 11.7188L105.642 14.6484H102.262L103.952 11.7188Z" fill="#EE8888"/>
<path d="M103.952 23.4375L105.642 26.3672H102.262L103.952 23.4375Z" fill="#EE8888"/>
<path d="M103.952 35.1562L105.642 38.0859H102.262L103.952 35.1562Z" fill="#EE8888"/>
<path d="M103.952 46.875L105.642 49.8047H102.262L103.952 46.875Z" fill="#EE8888"/>
<path d="M103.952 58.5938L105.642 61.5234H102.262L103.952 58.5938Z" fill="#EE8888"/>
<path d="M103.952 70.3125L105.642 73.2422H102.262L103.952 70.3125Z" fill="#EE8888"/>
<path d="M103.952 82.0312L105.642 84.9609H102.262L103.952 82.0312Z" fill="#EE8888"/>
<path d="M103.952 93.75L105.642 96.6797H102.262L103.952 93.75Z" fill="#EE8888"/>
<path d="M103.952 105.469L105.642 108.398H102.262L103.952 105.469Z" fill="#EE8888"/>
<path d="M103.952 117.188L105.642 120.117H102.262L103.952 117.188Z" fill="#EE8888"/>
<path d="M103.952 128.906L105.642 131.836H102.262L103.952 128.906Z" fill="#EE8888"/>
<path d="M103.952 140.625L105.642 143.555H102.262L103.952 140.625Z" fill="#EE8888"/>
<path d="M103.952 152.344L105.642 155.273H102.262L103.952 152.344Z" fill="#EE8888"/>
<path d="M103.952 164.062L105.642 166.992H102.262L103.952 164.062Z" fill="#EE8888"/>
<path d="M103.952 175.781L105.642 178.711H102.262L103.952 175.781Z" fill="#EE8888"/>
<path d="M103.952 187.5L105.642 190.43H102.262L103.952 187.5Z" fill="#EE8888"/>
<path d="M103.952 199.219L105.642 202.148H102.262L103.952 199.219Z" fill="#EE8888"/>
<path d="M103.952 210.938L105.642 213.867H102.262L103.952 210.938Z" fill="#EE8888"/>
<path d="M103.952 222.656L105.642 225.586H102.262L103.952 222.656Z" fill="#EE8888"/>
<path d="M103.952 234.375L105.642 237.305H102.262L103.952 234.375Z" fill="#EE8888"/>
<path d="M103.952 246.094L105.642 249.023H102.262L103.952 246.094Z" fill="#EE8888"/>
<path d="M103.952 0L105.642 2.92969H102.262L103.952 0Z" fill="#EE8888"/>
<path d="M103.952 0L105.642 2.92969H102.262L103.952 0Z" fill="#EE8888"/>
<path d="M103.952 11.7188L105.642 14.6484H102.262L103.952 11.7188Z" fill="#EE8888"/>
<path d="M103.952 23.4375L105.642 26.3672H102.262L103.952 23.4375Z" fill="#EE8888"/>
<path d="M103.952 35.1562L105.642 38.0859H102.262L103.952 35.1562Z" fill="#EE8888"/>
<path d="M103.952 46.875L105.642 49.8047H102.262L103.952 46.875Z" fill="#EE8888"/>
<path d="M103.952 58.5938L105.642 61.5234H102.262L103.952 58.5938Z" fill="#EE8888"/>
<path d="M103.952 70.3125L105.642 73.2422H102.262L103.952 70.3125Z" fill="#EE8888"/>
<path d="M103.952 82.0312L105.642 84.9609H102.262L103.952 82.0312Z" fill="#EE8888"/>
<path d="M103.952 93.75L105.642 96.6797H102.262L103.952 93.75Z" fill="#EE8888"/>
<path d="M103.952 105.469L105.642 108.398H102.262L103.952 105.469Z" fill="#EE8888"/>
<path d="M103.952 117.188L105.642 120.117H102.262L103.952 117.188Z" fill="#EE8888"/>
<path d="M103.952 128.906L105.642 131.836H102.262L103.952 128.906Z" fill="#EE8888"/>
<path d="M103.952 140.625L105.642 143.555H102.262L103.952 140.625Z" fill="#EE8888"/>
<path d="M103.952 152.344L105.642 155.273H102.262L103.952 152.344Z" fill="#EE8888"/>
<path d="M103.952 164.062L105.642 166.992H102.262L103.952 164.062Z" fill="#EE8888"/>
<path d="M103.952 175.781L105.642 178.711H102.262L103.952 175.781Z" fill="#EE8888"/>
<path d="M103.952 187.5L105.642 190.43H102.262L103.952 187.5Z" fill="#EE8888"/>
<path d="M103.952 199.219L105.642 202.148H102.262L103.952 199.219Z" fill="#EE8888"/>
<path d="M103.952 210.938L105.642 213.867H102.262L103.952 210.938Z" fill="#EE8888"/>
<path d="M103.952 222.656L105.642 225.586H102.262L103.952 222.656Z" fill="#EE8888"/>
<path d="M103.952 234.375L105.642 237.305H102.262L103.952 234.375Z" fill="#EE8888"/>
<path d="M103.952 246.094L105.642 249.023H102.262L103.952 246.094Z" fill="#EE8888"/>
<path d="M115.663 0L117.354 2.92969H113.973L115.663 0Z" fill="#EE8888"/>
<path d="M115.663 0L117.354 2.92969H113.973L115.663 0Z" fill="#EE8888"/>
<path d="M115.663 11.7188L117.354 14.6484H113.973L115.663 11.7188Z" fill="#EE8888"/>
<path d="M115.663 23.4375L117.354 26.3672H113.973L115.663 23.4375Z" fill="#EE8888"/>
<path d="M115.663 35.1562L117.354 38.0859H113.973L115.663 35.1562Z" fill="#EE8888"/>
<path d="M115.663 46.875L117.354 49.8047H113.973L115.663 46.875Z" fill="#EE8888"/>
<path d="M115.663 58.5938L117.354 61.5234H113.973L115.663 58.5938Z" fill="#EE8888"/>
<path d="M115.663 70.3125L117.354 73.2422H113.973L115.663 70.3125Z" fill="#EE8888"/>
<path d="M115.663 82.0312L117.354 84.9609H113.973L115.663 82.0312Z" fill="#EE8888"/>
<path d="M115.663 93.75L117.354 96.6797H113.973L115.663 93.75Z" fill="#EE8888"/>
<path d="M115.663 105.469L117.354 108.398H113.973L115.663 105.469Z" fill="#EE8888"/>
<path d="M115.663 117.188L117.354 120.117H113.973L115.663 117.188Z" fill="#EE8888"/>
<path d="M115.663 128.906L117.354 131.836H113.973L115.663 128.906Z" fill="#EE8888"/>
<path d="M115.663 140.625L117.354 143.555H113.973L115.663 140.625Z" fill="#EE8888"/>
<path d="M115.663 152.344L117.354 155.273H113.973L115.663 152.344Z" fill="#EE8888"/>
<path d="M115.663 164.062L117.354 166.992H113.973L115.663 164.062Z" fill="#EE8888"/>
<path d="M115.663 175.781L117.354 178.711H113.973L115.663 175.781Z" fill="#EE8888"/>
<path d="M115.663 187.5L117.354 190.43H113.973L115.663 187.5Z" fill="#EE8888"/>
<path d="M115.663 199.219L117.354 202.148H113.973L115.663 199.219Z" fill="#EE8888"/>
<path d="M115.663 210.938L117.354 213.867H113.973L115.663 210.938Z" fill="#EE8888"/>
<path d="M115.663 222.656L117.354 225.586H113.973L115.663 222.656Z" fill="#EE8888"/>
<path d="M115.663 234.375L117.354 237.305H113.973L115.663 234.375Z" fill="#EE8888"/>
<path d="M115.663 246.094L117.354 249.023H113.973L115.663 246.094Z" fill="#EE8888"/>
<path d="M127.375 0L129.065 2.92969H125.684L127.375 0Z" fill="#EE8888"/>
<path d="M127.375 0L129.065 2.92969H125.684L127.375 0Z" fill="#EE8888"/>
<path d="M127.375 11.7188L129.065 14.6484H125.684L127.375 11.7188Z" fill="#EE8888"/>
<path d="M127.375 23.4375L129.065 26.3672H125.684L127.375 23.4375Z" fill="#EE8888"/>
<path d="M127.375 35.1562L129.065 38.0859H125.684L127.375 35.1562Z" fill="#EE8888"/>
<path d="M127.375 46.875L129.065 49.8047H125.684L127.375 46.875Z" fill="#EE8888"/>
<path d="M127.375 58.5938L129.065 61.5234H125.684L127.375 58.5938Z" fill="#EE8888"/>
<path d="M127.375 70.3125L129.065 73.2422H125.684L127.375 70.3125Z" fill="#EE8888"/>
<path d="M127.375 82.0312L129.065 84.9609H125.684L127.375 82.0312Z" fill="#EE8888"/>
<path d="M127.375 93.75L129.065 96.6797H125.684L127.375 93.75Z" fill="#EE8888"/>
<path d="M127.375 105.469L129.065 108.398H125.684L127.375 105.469Z" fill="#EE8888"/>
<path d="M127.375 117.188L129.065 120.117H125.684L127.375 117.188Z" fill="#EE8888"/>
<path d="M127.375 128.906L129.065 131.836H125.684L127.375 128.906Z" fill="#EE8888"/>
<path d="M127.375 140.625L129.065 143.555H125.684L127.375 140.625Z" fill="#EE8888"/>
<path d="M127.375 152.344L129.065 155.273H125.684L127.375 152.344Z" fill="#EE8888"/>
<path d="M127.375 164.062L129.065 166.992H125.684L127.375 164.062Z" fill="#EE8888"/>
<path d="M127.375 175.781L129.065 178.711H125.684L127.375 175.781Z" fill="#EE8888"/>
<path d="M127.375 187.5L129.065 190.43H125.684L127.375 187.5Z" fill="#EE8888"/>
<path d="M127.375 199.219L129.065 202.148H125.684L127.375 199.219Z" fill="#EE8888"/>
<path d="M127.375 210.938L129.065 213.867H125.684L127.375 210.938Z" fill="#EE8888"/>
<path d="M127.375 222.656L129.065 225.586H125.684L127.375 222.656Z" fill="#EE8888"/>
<path d="M127.375 234.375L129.065 237.305H125.684L127.375 234.375Z" fill="#EE8888"/>
<path d="M127.375 246.094L129.065 249.023H125.684L127.375 246.094Z" fill="#EE8888"/>
<path d="M139.087 0L140.777 2.92969H137.396L139.087 0Z" fill="#EE8888"/>
<path d="M139.087 0L140.777 2.92969H137.396L139.087 0Z" fill="#EE8888"/>
<path d="M139.087 11.7188L140.777 14.6484H137.396L139.087 11.7188Z" fill="#EE8888"/>
<path d="M139.087 23.4375L140.777 26.3672H137.396L139.087 23.4375Z" fill="#EE8888"/>
<path d="M139.087 35.1562L140.777 38.0859H137.396L139.087 35.1562Z" fill="#EE8888"/>
<path d="M139.087 46.875L140.777 49.8047H137.396L139.087 46.875Z" fill="#EE8888"/>
<path d="M139.087 58.5938L140.777 61.5234H137.396L139.087 58.5938Z" fill="#EE8888"/>
<path d="M139.087 70.3125L140.777 73.2422H137.396L139.087 70.3125Z" fill="#EE8888"/>
<path d="M139.087 82.0312L140.777 84.9609H137.396L139.087 82.0312Z" fill="#EE8888"/>
<path d="M139.087 93.75L140.777 96.6797H137.396L139.087 93.75Z" fill="#EE8888"/>
<path d="M139.087 105.469L140.777 108.398H137.396L139.087 105.469Z" fill="#EE8888"/>
<path d="M139.087 117.188L140.777 120.117H137.396L139.087 117.188Z" fill="#EE8888"/>
<path d="M139.087 128.906L140.777 131.836H137.396L139.087 128.906Z" fill="#EE8888"/>
<path d="M139.087 140.625L140.777 143.555H137.396L139.087 140.625Z" fill="#EE8888"/>
<path d="M139.087 152.344L140.777 155.273H137.396L139.087 152.344Z" fill="#EE8888"/>
<path d="M139.087 164.062L140.777 166.992H137.396L139.087 164.062Z" fill="#EE8888"/>
<path d="M139.087 175.781L140.777 178.711H137.396L139.087 175.781Z" fill="#EE8888"/>
<path d="M139.087 187.5L140.777 190.43H137.396L139.087 187.5Z" fill="#EE8888"/>
<path d="M139.087 199.219L140.777 202.148H137.396L139.087 199.219Z" fill="#EE8888"/>
<path d="M139.087 210.938L140.777 213.867H137.396L139.087 210.938Z" fill="#EE8888"/>
<path d="M139.087 222.656L140.777 225.586H137.396L139.087 222.656Z" fill="#EE8888"/>
<path d="M139.087 234.375L140.777 237.305H137.396L139.087 234.375Z" fill="#EE8888"/>
<path d="M139.087 246.094L140.777 249.023H137.396L139.087 246.094Z" fill="#EE8888"/>
<path d="M150.798 0L152.489 2.92969H149.108L150.798 0Z" fill="#EE8888"/>
<path d="M150.798 0L152.489 2.92969H149.108L150.798 0Z" fill="#EE8888"/>
<path d="M150.798 11.7188L152.489 14.6484H149.108L150.798 11.7188Z" fill="#EE8888"/>
<path d="M150.798 23.4375L152.489 26.3672H149.108L150.798 23.4375Z" fill="#EE8888"/>
<path d="M150.798 35.1562L152.489 38.0859H149.108L150.798 35.1562Z" fill="#EE8888"/>
<path d="M150.798 46.875L152.489 49.8047H149.108L150.798 46.875Z" fill="#EE8888"/>
<path d="M150.798 58.5938L152.489 61.5234H149.108L150.798 58.5938Z" fill="#EE8888"/>
<path d="M150.798 70.3125L152.489 73.2422H149.108L150.798 70.3125Z" fill="#EE8888"/>
<path d="M150.798 82.0312L152.489 84.9609H149.108L150.798 82.0312Z" fill="#EE8888"/>
<path d="M150.798 93.75L152.489 96.6797H149.108L150.798 93.75Z" fill="#EE8888"/>
<path d="M150.798 105.469L152.489 108.398H149.108L150.798 105.469Z" fill="#EE8888"/>
<path d="M150.798 117.188L152.489 120.117H149.108L150.798 117.188Z" fill="#EE8888"/>
<path d="M150.798 128.906L152.489 131.836H149.108L150.798 128.906Z" fill="#EE8888"/>
<path d="M150.798 140.625L152.489 143.555H149.108L150.798 140.625Z" fill="#EE8888"/>
<path d="M150.798 152.344L152.489 155.273H149.108L150.798 152.344Z" fill="#EE8888"/>
<path d="M150.798 164.062L152.489 166.992H149.108L150.798 164.062Z" fill="#EE8888"/>
<path d="M150.798 175.781L152.489 178.711H149.108L150.798 175.781Z" fill="#EE8888"/>
<path d="M150.798 187.5L152.489 190.43H149.108L150.798 187.5Z" fill="#EE8888"/>
<path d="M150.798 199.219L152.489 202.148H149.108L150.798 199.219Z" fill="#EE8888"/>
<path d="M150.798 210.938L152.489 213.867H149.108L150.798 210.938Z" fill="#EE8888"/>
<path d="M150.798 222.656L152.489 225.586H149.108L150.798 222.656Z" fill="#EE8888"/>
<path d="M150.798 234.375L152.489 237.305H149.108L150.798 234.375Z" fill="#EE8888"/>
<path d="M150.798 246.094L152.489 249.023H149.108L150.798 246.094Z" fill="#EE8888"/>
<path d="M162.51 0L164.2 2.92969H160.819L162.51 0Z" fill="#EE8888"/>
<path d="M162.51 0L164.2 2.92969H160.819L162.51 0Z" fill="#EE8888"/>
<path d="M162.51 11.7188L164.2 14.6484H160.819L162.51 11.7188Z" fill="#EE8888"/>
<path d="M162.51 23.4375L164.2 26.3672H160.819L162.51 23.4375Z" fill="#EE8888"/>
<path d="M162.51 35.1562L164.2 38.0859H160.819L162.51 35.1562Z" fill="#EE8888"/>
<path d="M162.51 46.875L164.2 49.8047H160.819L162.51 46.875Z" fill="#EE8888"/>
<path d="M162.51 58.5938L164.2 61.5234H160.819L162.51 58.5938Z" fill="#EE8888"/>
<path d="M162.51 70.3125L164.2 73.2422H160.819L162.51 70.3125Z" fill="#EE8888"/>
<path d="M162.51 82.0312L164.2 84.9609H160.819L162.51 82.0312Z" fill="#EE8888"/>
<path d="M162.51 93.75L164.2 96.6797H160.819L162.51 93.75Z" fill="#EE8888"/>
<path d="M162.51 105.469L164.2 108.398H160.819L162.51 105.469Z" fill="#EE8888"/>
<path d="M162.51 117.188L164.2 120.117H160.819L162.51 117.188Z" fill="#EE8888"/>
<path d="M162.51 128.906L164.2 131.836H160.819L162.51 128.906Z" fill="#EE8888"/>
<path d="M162.51 140.625L164.2 143.555H160.819L162.51 140.625Z" fill="#EE8888"/>
<path d="M162.51 152.344L164.2 155.273H160.819L162.51 152.344Z" fill="#EE8888"/>
<path d="M162.51 164.062L164.2 166.992H160.819L162.51 164.062Z" fill="#EE8888"/>
<path d="M162.51 175.781L164.2 178.711H160.819L162.51 175.781Z" fill="#EE8888"/>
<path d="M162.51 187.5L164.2 190.43H160.819L162.51 187.5Z" fill="#EE8888"/>
<path d="M162.51 199.219L164.2 202.148H160.819L162.51 199.219Z" fill="#EE8888"/>
<path d="M162.51 210.938L164.2 213.867H160.819L162.51 210.938Z" fill="#EE8888"/>
<path d="M162.51 222.656L164.2 225.586H160.819L162.51 222.656Z" fill="#EE8888"/>
<path d="M162.51 234.375L164.2 237.305H160.819L162.51 234.375Z" fill="#EE8888"/>
<path d="M162.51 246.094L164.2 249.023H160.819L162.51 246.094Z" fill="#EE8888"/>
<path d="M174.221 0L175.911 2.92969H172.531L174.221 0Z" fill="#EE8888"/>
<path d="M174.221 0L175.911 2.92969H172.531L174.221 0Z" fill="#EE8888"/>
<path d="M174.221 11.7188L175.911 14.6484H172.531L174.221 11.7188Z" fill="#EE8888"/>
<path d="M174.221 23.4375L175.911 26.3672H172.531L174.221 23.4375Z" fill="#EE8888"/>
<path d="M174.221 35.1562L175.911 38.0859H172.531L174.221 35.1562Z" fill="#EE8888"/>
<path d="M174.221 46.875L175.911 49.8047H172.531L174.221 46.875Z" fill="#EE8888"/>
<path d="M174.221 58.5938L175.911 61.5234H172.531L174.221 58.5938Z" fill="#EE8888"/>
<path d="M174.221 70.3125L175.911 73.2422H172.531L174.221 70.3125Z" fill="#EE8888"/>
<path d="M174.221 82.0312L175.911 84.9609H172.531L174.221 82.0312Z" fill="#EE8888"/>
<path d="M174.221 93.75L175.911 96.6797H172.531L174.221 93.75Z" fill="#EE8888"/>
<path d="M174.221 105.469L175.911 108.398H172.531L174.221 105.469Z" fill="#EE8888"/>
<path d="M174.221 117.188L175.911 120.117H172.531L174.221 117.188Z" fill="#EE8888"/>
<path d="M174.221 128.906L175.911 131.836H172.531L174.221 128.906Z" fill="#EE8888"/>
<path d="M174.221 140.625L175.911 143.555H172.531L174.221 140.625Z" fill="#EE8888"/>
<path d="M174.221 152.344L175.911 155.273H172.531L174.221 152.344Z" fill="#EE8888"/>
<path d="M174.221 164.062L175.911 166.992H172.531L174.221 164.062Z" fill="#EE8888"/>
<path d="M174.221 175.781L175.911 178.711H172.531L174.221 175.781Z" fill="#EE8888"/>
<path d="M174.221 187.5L175.911 190.43H172.531L174.221 187.5Z" fill="#EE8888"/>
<path d="M174.221 199.219L175.911 202.148H172.531L174.221 199.219Z" fill="#EE8888"/>
<path d="M174.221 210.938L175.911 213.867H172.531L174.221 210.938Z" fill="#EE8888"/>
<path d="M174.221 222.656L175.911 225.586H172.531L174.221 222.656Z" fill="#EE8888"/>
<path d="M174.221 234.375L175.911 237.305H172.531L174.221 234.375Z" fill="#EE8888"/>
<path d="M174.221 246.094L175.911 249.023H172.531L174.221 246.094Z" fill="#EE8888"/>
<path d="M185.933 0L187.623 2.92969H184.242L185.933 0Z" fill="#EE8888"/>
<path d="M185.933 0L187.623 2.92969H184.242L185.933 0Z" fill="#EE8888"/>
<path d="M185.933 11.7188L187.623 14.6484H184.242L185.933 11.7188Z" fill="#EE8888"/>
<path d="M185.933 23.4375L187.623 26.3672H184.242L185.933 23.4375Z" fill="#EE8888"/>
<path d="M185.933 35.1562L187.623 38.0859H184.242L185.933 35.1562Z" fill="#EE8888"/>
<path d="M185.933 46.875L187.623 49.8047H184.242L185.933 46.875Z" fill="#EE8888"/>
<path d="M185.933 58.5938L187.623 61.5234H184.242L185.933 58.5938Z" fill="#EE8888"/>
<path d="M185.933 70.3125L187.623 73.2422H184.242L185.933 70.3125Z" fill="#EE8888"/>
<path d="M185.933 82.0312L187.623 84.9609H184.242L185.933 82.0312Z" fill="#EE8888"/>
<path d="M185.933 93.75L187.623 96.6797H184.242L185.933 93.75Z" fill="#EE8888"/>
<path d="M185.933 105.469L187.623 108.398H184.242L185.933 105.469Z" fill="#EE8888"/>
<path d="M185.933 117.188L187.623 120.117H184.242L185.933 117.188Z" fill="#EE8888"/>
<path d="M185.933 128.906L187.623 131.836H184.242L185.933 128.906Z" fill="#EE8888"/>
<path d="M185.933 140.625L187.623 143.555H184.242L185.933 140.625Z" fill="#EE8888"/>
<path d="M185.933 152.344L187.623 155.273H184.242L185.933 152.344Z" fill="#EE8888"/>
<path d="M185.933 164.062L187.623 166.992H184.242L185.933 164.062Z" fill="#EE8888"/>
<path d="M185.933 175.781L187.623 178.711H184.242L185.933 175.781Z" fill="#EE8888"/>
<path d="M185.933 187.5L187.623 190.43H184.242L185.933 187.5Z" fill="#EE8888"/>
<path d="M185.933 199.219L187.623 202.148H184.242L185.933 199.219Z" fill="#EE8888"/>
<path d="M185.933 210.938L187.623 213.867H184.242L185.933 210.938Z" fill="#EE8888"/>
<path d="M185.933 222.656L187.623 225.586H184.242L185.933 222.656Z" fill="#EE8888"/>
<path d="M185.933 234.375L187.623 237.305H184.242L185.933 234.375Z" fill="#EE8888"/>
<path d="M185.933 246.094L187.623 249.023H184.242L185.933 246.094Z" fill="#EE8888"/>
<path d="M197.644 0L199.335 2.92969H195.954L197.644 0Z" fill="#EE8888"/>
<path d="M197.644 0L199.335 2.92969H195.954L197.644 0Z" fill="#EE8888"/>
<path d="M197.644 11.7188L199.335 14.6484H195.954L197.644 11.7188Z" fill="#EE8888"/>
<path d="M197.644 23.4375L199.335 26.3672H195.954L197.644 23.4375Z" fill="#EE8888"/>
<path d="M197.644 35.1562L199.335 38.0859H195.954L197.644 35.1562Z" fill="#EE8888"/>
<path d="M197.644 46.875L199.335 49.8047H195.954L197.644 46.875Z" fill="#EE8888"/>
<path d="M197.644 58.5938L199.335 61.5234H195.954L197.644 58.5938Z" fill="#EE8888"/>
<path d="M197.644 70.3125L199.335 73.2422H195.954L197.644 70.3125Z" fill="#EE8888"/>
<path d="M197.644 82.0312L199.335 84.9609H195.954L197.644 82.0312Z" fill="#EE8888"/>
<path d="M197.644 93.75L199.335 96.6797H195.954L197.644 93.75Z" fill="#EE8888"/>
<path d="M197.644 105.469L199.335 108.398H195.954L197.644 105.469Z" fill="#EE8888"/>
<path d="M197.644 117.188L199.335 120.117H195.954L197.644 117.188Z" fill="#EE8888"/>
<path d="M197.644 128.906L199.335 131.836H195.954L197.644 128.906Z" fill="#EE8888"/>
<path d="M197.644 140.625L199.335 143.555H195.954L197.644 140.625Z" fill="#EE8888"/>
<path d="M197.644 152.344L199.335 155.273H195.954L197.644 152.344Z" fill="#EE8888"/>
<path d="M197.644 164.062L199.335 166.992H195.954L197.644 164.062Z" fill="#EE8888"/>
<path d="M197.644 175.781L199.335 178.711H195.954L197.644 175.781Z" fill="#EE8888"/>
<path d="M197.644 187.5L199.335 190.43H195.954L197.644 187.5Z" fill="#EE8888"/>
<path d="M197.644 199.219L199.335 202.148H195.954L197.644 199.219Z" fill="#EE8888"/>
<path d="M197.644 210.938L199.335 213.867H195.954L197.644 210.938Z" fill="#EE8888"/>
<path d="M197.644 222.656L199.335 225.586H195.954L197.644 222.656Z" fill="#EE8888"/>
<path d="M197.644 234.375L199.335 237.305H195.954L197.644 234.375Z" fill="#EE8888"/>
<path d="M197.644 246.094L199.335 249.023H195.954L197.644 246.094Z" fill="#EE8888"/>
<path d="M209.356 0L211.046 2.92969H207.665L209.356 0Z" fill="#EE8888"/>
<path d="M209.356 0L211.046 2.92969H207.665L209.356 0Z" fill="#EE8888"/>
<path d="M209.356 11.7188L211.046 14.6484H207.665L209.356 11.7188Z" fill="#EE8888"/>
<path d="M209.356 23.4375L211.046 26.3672H207.665L209.356 23.4375Z" fill="#EE8888"/>
<path d="M209.356 35.1562L211.046 38.0859H207.665L209.356 35.1562Z" fill="#EE8888"/>
<path d="M209.356 46.875L211.046 49.8047H207.665L209.356 46.875Z" fill="#EE8888"/>
<path d="M209.356 58.5938L211.046 61.5234H207.665L209.356 58.5938Z" fill="#EE8888"/>
<path d="M209.356 70.3125L211.046 73.2422H207.665L209.356 70.3125Z" fill="#EE8888"/>
<path d="M209.356 82.0312L211.046 84.9609H207.665L209.356 82.0312Z" fill="#EE8888"/>
<path d="M209.356 93.75L211.046 96.6797H207.665L209.356 93.75Z" fill="#EE8888"/>
<path d="M209.356 105.469L211.046 108.398H207.665L209.356 105.469Z" fill="#EE8888"/>
<path d="M209.356 117.188L211.046 120.117H207.665L209.356 117.188Z" fill="#EE8888"/>
<path d="M209.356 128.906L211.046 131.836H207.665L209.356 128.906Z" fill="#EE8888"/>
<path d="M209.356 140.625L211.046 143.555H207.665L209.356 140.625Z" fill="#EE8888"/>
<path d="M209.356 152.344L211.046 155.273H207.665L209.356 152.344Z" fill="#EE8888"/>
<path d="M209.356 164.062L211.046 166.992H207.665L209.356 164.062Z" fill="#EE8888"/>
<path d="M209.356 175.781L211.046 178.711H207.665L209.356 175.781Z" fill="#EE8888"/>
<path d="M209.356 187.5L211.046 190.43H207.665L209.356 187.5Z" fill="#EE8888"/>
<path d="M209.356 199.219L211.046 202.148H207.665L209.356 199.219Z" fill="#EE8888"/>
<path d="M209.356 210.938L211.046 213.867H207.665L209.356 210.938Z" fill="#EE8888"/>
<path d="M209.356 222.656L211.046 225.586H207.665L209.356 222.656Z" fill="#EE8888"/>
<path d="M209.356 234.375L211.046 237.305H207.665L209.356 234.375Z" fill="#EE8888"/>
<path d="M209.356 246.094L211.046 249.023H207.665L209.356 246.094Z" fill="#EE8888"/>
<path d="M221.067 0L222.758 2.92969H219.377L221.067 0Z" fill="#EE8888"/>
<path d="M221.067 0L222.758 2.92969H219.377L221.067 0Z" fill="#EE8888"/>
<path d="M221.067 11.7188L222.758 14.6484H219.377L221.067 11.7188Z" fill="#EE8888"/>
<path d="M221.067 23.4375L222.758 26.3672H219.377L221.067 23.4375Z" fill="#EE8888"/>
<path d="M221.067 35.1562L222.758 38.0859H219.377L221.067 35.1562Z" fill="#EE8888"/>
<path d="M221.067 46.875L222.758 49.8047H219.377L221.067 46.875Z" fill="#EE8888"/>
<path d="M221.067 58.5938L222.758 61.5234H219.377L221.067 58.5938Z" fill="#EE8888"/>
<path d="M221.067 70.3125L222.758 73.2422H219.377L221.067 70.3125Z" fill="#EE8888"/>
<path d="M221.067 82.0312L222.758 84.9609H219.377L221.067 82.0312Z" fill="#EE8888"/>
<path d="M221.067 93.75L222.758 96.6797H219.377L221.067 93.75Z" fill="#EE8888"/>
<path d="M221.067 105.469L222.758 108.398H219.377L221.067 105.469Z" fill="#EE8888"/>
<path d="M221.067 117.188L222.758 120.117H219.377L221.067 117.188Z" fill="#EE8888"/>
<path d="M221.067 128.906L222.758 131.836H219.377L221.067 128.906Z" fill="#EE8888"/>
<path d="M221.067 140.625L222.758 143.555H219.377L221.067 140.625Z" fill="#EE8888"/>
<path d="M221.067 152.344L222.758 155.273H219.377L221.067 152.344Z" fill="#EE8888"/>
<path d="M221.067 164.062L222.758 166.992H219.377L221.067 164.062Z" fill="#EE8888"/>
<path d="M221.067 175.781L222.758 178.711H219.377L221.067 175.781Z" fill="#EE8888"/>
<path d="M221.067 187.5L222.758 190.43H219.377L221.067 187.5Z" fill="#EE8888"/>
<path d="M221.067 199.219L222.758 202.148H219.377L221.067 199.219Z" fill="#EE8888"/>
<path d="M221.067 210.938L222.758 213.867H219.377L221.067 210.938Z" fill="#EE8888"/>
<path d="M221.067 222.656L222.758 225.586H219.377L221.067 222.656Z" fill="#EE8888"/>
<path d="M221.067 234.375L222.758 237.305H219.377L221.067 234.375Z" fill="#EE8888"/>
<path d="M221.067 246.094L222.758 249.023H219.377L221.067 246.094Z" fill="#EE8888"/>
<path d="M232.779 0L234.469 2.92969H231.089L232.779 0Z" fill="#EE8888"/>
<path d="M232.779 0L234.469 2.92969H231.089L232.779 0Z" fill="#EE8888"/>
<path d="M232.779 11.7188L234.469 14.6484H231.089L232.779 11.7188Z" fill="#EE8888"/>
<path d="M232.779 23.4375L234.469 26.3672H231.089L232.779 23.4375Z" fill="#EE8888"/>
<path d="M232.779 35.1562L234.469 38.0859H231.089L232.779 35.1562Z" fill="#EE8888"/>
<path d="M232.779 46.875L234.469 49.8047H231.089L232.779 46.875Z" fill="#EE8888"/>
<path d="M232.779 58.5938L234.469 61.5234H231.089L232.779 58.5938Z" fill="#EE8888"/>
<path d="M232.779 70.3125L234.469 73.2422H231.089L232.779 70.3125Z" fill="#EE8888"/>
<path d="M232.779 82.0312L234.469 84.9609H231.089L232.779 82.0312Z" fill="#EE8888"/>
<path d="M232.779 93.75L234.469 96.6797H231.089L232.779 93.75Z" fill="#EE8888"/>
<path d="M232.779 105.469L234.469 108.398H231.089L232.779 105.469Z" fill="#EE8888"/>
<path d="M232.779 117.188L234.469 120.117H231.089L232.779 117.188Z" fill="#EE8888"/>
<path d="M232.779 128.906L234.469 131.836H231.089L232.779 128.906Z" fill="#EE8888"/>
<path d="M232.779 140.625L234.469 143.555H231.089L232.779 140.625Z" fill="#EE8888"/>
<path d="M232.779 152.344L234.469 155.273H231.089L232.779 152.344Z" fill="#EE8888"/>
<path d="M232.779 164.062L234.469 166.992H231.089L232.779 164.062Z" fill="#EE8888"/>
<path d="M232.779 175.781L234.469 178.711H231.089L232.779 175.781Z" fill="#EE8888"/>
<path d="M232.779 187.5L234.469 190.43H231.089L232.779 187.5Z" fill="#EE8888"/>
<path d="M232.779 199.219L234.469 202.148H231.089L232.779 199.219Z" fill="#EE8888"/>
<path d="M232.779 210.938L234.469 213.867H231.089L232.779 210.938Z" fill="#EE8888"/>
<path d="M232.779 222.656L234.469 225.586H231.089L232.779 222.656Z" fill="#EE8888"/>
<path d="M232.779 234.375L234.469 237.305H231.089L232.779 234.375Z" fill="#EE8888"/>
<path d="M232.779 246.094L234.469 249.023H231.089L232.779 246.094Z" fill="#EE8888"/>
<path d="M244.49 0L246.181 2.92969H242.8L244.49 0Z" fill="#EE8888"/>
<path d="M244.49 0L246.181 2.92969H242.8L244.49 0Z" fill="#EE8888"/>
<path d="M244.49 11.7188L246.181 14.6484H242.8L244.49 11.7188Z" fill="#EE8888"/>
<path d="M244.49 23.4375L246.181 26.3672H242.8L244.49 23.4375Z" fill="#EE8888"/>
<path d="M244.49 35.1562L246.181 38.0859H242.8L244.49 35.1562Z" fill="#EE8888"/>
<path d="M244.49 46.875L246.181 49.8047H242.8L244.49 46.875Z" fill="#EE8888"/>
<path d="M244.49 58.5938L246.181 61.5234H242.8L244.49 58.5938Z" fill="#EE8888"/>
<path d="M244.49 70.3125L246.181 73.2422H242.8L244.49 70.3125Z" fill="#EE8888"/>
<path d="M244.49 82.0312L246.181 84.9609H242.8L244.49 82.0312Z" fill="#EE8888"/>
<path d="M244.49 93.75L246.181 96.6797H242.8L244.49 93.75Z" fill="#EE8888"/>
<path d="M244.49 105.469L246.181 108.398H242.8L244.49 105.469Z" fill="#EE8888"/>
<path d="M244.49 117.188L246.181 120.117H242.8L244.49 117.188Z" fill="#EE8888"/>
<path d="M244.49 128.906L246.181 131.836H242.8L244.49 128.906Z" fill="#EE8888"/>
<path d="M244.49 140.625L246.181 143.555H242.8L244.49 140.625Z" fill="#EE8888"/>
<path d="M244.49 152.344L246.181 155.273H242.8L244.49 152.344Z" fill="#EE8888"/>
<path d="M244.49 164.062L246.181 166.992H242.8L244.49 164.062Z" fill="#EE8888"/>
<path d="M244.49 175.781L246.181 178.711H242.8L244.49 175.781Z" fill="#EE8888"/>
<path d="M244.49 187.5L246.181 190.43H242.8L244.49 187.5Z" fill="#EE8888"/>
<path d="M244.49 199.219L246.181 202.148H242.8L244.49 199.219Z" fill="#EE8888"/>
<path d="M244.49 210.938L246.181 213.867H242.8L244.49 210.938Z" fill="#EE8888"/>
<path d="M244.49 222.656L246.181 225.586H242.8L244.49 222.656Z" fill="#EE8888"/>
<path d="M244.49 234.375L246.181 237.305H242.8L244.49 234.375Z" fill="#EE8888"/>
<path d="M244.49 246.094L246.181 249.023H242.8L244.49 246.094Z" fill="#EE8888"/>
<path d="M256.202 0L257.892 2.92969H254.512L256.202 0Z" fill="#EE8888"/>
<path d="M256.202 0L257.892 2.92969H254.512L256.202 0Z" fill="#EE8888"/>
<path d="M256.202 11.7188L257.892 14.6484H254.512L256.202 11.7188Z" fill="#EE8888"/>
<path d="M256.202 23.4375L257.892 26.3672H254.512L256.202 23.4375Z" fill="#EE8888"/>
<path d="M256.202 35.1562L257.892 38.0859H254.512L256.202 35.1562Z" fill="#EE8888"/>
<path d="M256.202 46.875L257.892 49.8047H254.512L256.202 46.875Z" fill="#EE8888"/>
<path d="M256.202 58.5938L257.892 61.5234H254.512L256.202 58.5938Z" fill="#EE8888"/>
<path d="M256.202 70.3125L257.892 73.2422H254.512L256.202 70.3125Z" fill="#EE8888"/>
<path d="M256.202 82.0312L257.892 84.9609H254.512L256.202 82.0312Z" fill="#EE8888"/>
<path d="M256.202 93.75L257.892 96.6797H254.512L256.202 93.75Z" fill="#EE8888"/>
<path d="M256.202 105.469L257.892 108.398H254.512L256.202 105.469Z" fill="#EE8888"/>
<path d="M256.202 117.188L257.892 120.117H254.512L256.202 117.188Z" fill="#EE8888"/>
<path d="M256.202 128.906L257.892 131.836H254.512L256.202 128.906Z" fill="#EE8888"/>
<path d="M256.202 140.625L257.892 143.555H254.512L256.202 140.625Z" fill="#EE8888"/>
<path d="M256.202 152.344L257.892 155.273H254.512L256.202 152.344Z" fill="#EE8888"/>
<path d="M256.202 164.062L257.892 166.992H254.512L256.202 164.062Z" fill="#EE8888"/>
<path d="M256.202 175.781L257.892 178.711H254.512L256.202 175.781Z" fill="#EE8888"/>
<path d="M256.202 187.5L257.892 190.43H254.512L256.202 187.5Z" fill="#EE8888"/>
<path d="M256.202 199.219L257.892 202.148H254.512L256.202 199.219Z" fill="#EE8888"/>
<path d="M256.202 210.938L257.892 213.867H254.512L256.202 210.938Z" fill="#EE8888"/>
<path d="M256.202 222.656L257.892 225.586H254.512L256.202 222.656Z" fill="#EE8888"/>
<path d="M256.202 234.375L257.892 237.305H254.512L256.202 234.375Z" fill="#EE8888"/>
<path d="M256.202 246.094L257.892 249.023H254.512L256.202 246.094Z" fill="#EE8888"/>
<path d="M267.913 0L269.604 2.92969H266.223L267.913 0Z" fill="#EE8888"/>
<path d="M267.913 0L269.604 2.92969H266.223L267.913 0Z" fill="#EE8888"/>
<path d="M267.913 11.7188L269.604 14.6484H266.223L267.913 11.7188Z" fill="#EE8888"/>
<path d="M267.913 23.4375L269.604 26.3672H266.223L267.913 23.4375Z" fill="#EE8888"/>
<path d="M267.913 35.1562L269.604 38.0859H266.223L267.913 35.1562Z" fill="#EE8888"/>
<path d="M267.913 46.875L269.604 49.8047H266.223L267.913 46.875Z" fill="#EE8888"/>
<path d="M267.913 58.5938L269.604 61.5234H266.223L267.913 58.5938Z" fill="#EE8888"/>
<path d="M267.913 70.3125L269.604 73.2422H266.223L267.913 70.3125Z" fill="#EE8888"/>
<path d="M267.913 82.0312L269.604 84.9609H266.223L267.913 82.0312Z" fill="#EE8888"/>
<path d="M267.913 93.75L269.604 96.6797H266.223L267.913 93.75Z" fill="#EE8888"/>
<path d="M267.913 105.469L269.604 108.398H266.223L267.913 105.469Z" fill="#EE8888"/>
<path d="M267.913 117.188L269.604 120.117H266.223L267.913 117.188Z" fill="#EE8888"/>
<path d="M267.913 128.906L269.604 131.836H266.223L267.913 128.906Z" fill="#EE8888"/>
<path d="M267.913 140.625L269.604 143.555H266.223L267.913 140.625Z" fill="#EE8888"/>
<path d="M267.913 152.344L269.604 155.273H266.223L267.913 152.344Z" fill="#EE8888"/>
<path d="M267.913 164.062L269.604 166.992H266.223L267.913 164.062Z" fill="#EE8888"/>
<path d="M267.913 175.781L269.604 178.711H266.223L267.913 175.781Z" fill="#EE8888"/>
<path d="M267.913 187.5L269.604 190.43H266.223L267.913 187.5Z" fill="#EE8888"/>
<path d="M267.913 199.219L269.604 202.148H266.223L267.913 199.219Z" fill="#EE8888"/>
<path d="M267.913 210.938L269.604 213.867H266.223L267.913 210.938Z" fill="#EE8888"/>
<path d="M267.913 222.656L269.604 225.586H266.223L267.913 222.656Z" fill="#EE8888"/>
<path d="M267.913 234.375L269.604 237.305H266.223L267.913 234.375Z" fill="#EE8888"/>
<path d="M267.913 246.094L269.604 249.023H266.223L267.913 246.094Z" fill="#EE8888"/>
<path d="M279.625 0L281.315 2.92969H277.934L279.625 0Z" fill="#EE8888"/>
<path d="M279.625 0L281.315 2.92969H277.934L279.625 0Z" fill="#EE8888"/>
<path d="M279.625 11.7188L281.315 14.6484H277.934L279.625 11.7188Z" fill="#EE8888"/>
<path d="M279.625 23.4375L281.315 26.3672H277.934L279.625 23.4375Z" fill="#EE8888"/>
<path d="M279.625 35.1562L281.315 38.0859H277.934L279.625 35.1562Z" fill="#EE8888"/>
<path d="M279.625 46.875L281.315 49.8047H277.934L279.625 46.875Z" fill="#EE8888"/>
<path d="M279.625 58.5938L281.315 61.5234H277.934L279.625 58.5938Z" fill="#EE8888"/>
<path d="M279.625 70.3125L281.315 73.2422H277.934L279.625 70.3125Z" fill="#EE8888"/>
<path d="M279.625 82.0312L281.315 84.9609H277.934L279.625 82.0312Z" fill="#EE8888"/>
<path d="M279.625 93.75L281.315 96.6797H277.934L279.625 93.75Z" fill="#EE8888"/>
<path d="M279.625 105.469L281.315 108.398H277.934L279.625 105.469Z" fill="#EE8888"/>
<path d="M279.625 117.188L281.315 120.117H277.934L279.625 117.188Z" fill="#EE8888"/>
<path d="M279.625 128.906L281.315 131.836H277.934L279.625 128.906Z" fill="#EE8888"/>
<path d="M279.625 140.625L281.315 143.555H277.934L279.625 140.625Z" fill="#EE8888"/>
<path d="M279.625 152.344L281.315 155.273H277.934L279.625 152.344Z" fill="#EE8888"/>
<path d="M279.625 164.062L281.315 166.992H277.934L279.625 164.062Z" fill="#EE8888"/>
<path d="M279.625 175.781L281.315 178.711H277.934L279.625 175.781Z" fill="#EE8888"/>
<path d="M279.625 187.5L281.315 190.43H277.934L279.625 187.5Z" fill="#EE8888"/>
<path d="M279.625 199.219L281.315 202.148H277.934L279.625 199.219Z" fill="#EE8888"/>
<path d="M279.625 210.938L281.315 213.867H277.934L279.625 210.938Z" fill="#EE8888"/>
<path d="M279.625 222.656L281.315 225.586H277.934L279.625 222.656Z" fill="#EE8888"/>
<path d="M279.625 234.375L281.315 237.305H277.934L279.625 234.375Z" fill="#EE8888"/>
<path d="M279.625 246.094L281.315 249.023H277.934L279.625 246.094Z" fill="#EE8888"/>
<path d="M291.337 0L293.027 2.92969H289.646L291.337 0Z" fill="#EE8888"/>
<path d="M291.337 0L293.027 2.92969H289.646L291.337 0Z" fill="#EE8888"/>
<path d="M291.337 11.7188L293.027 14.6484H289.646L291.337 11.7188Z" fill="#EE8888"/>
<path d="M291.337 23.4375L293.027 26.3672H289.646L291.337 23.4375Z" fill="#EE8888"/>
<path d="M291.337 35.1562L293.027 38.0859H289.646L291.337 35.1562Z" fill="#EE8888"/>
<path d="M291.337 46.875L293.027 49.8047H289.646L291.337 46.875Z" fill="#EE8888"/>
<path d="M291.337 58.5938L293.027 61.5234H289.646L291.337 58.5938Z" fill="#EE8888"/>
<path d="M291.337 70.3125L293.027 73.2422H289.646L291.337 70.3125Z" fill="#EE8888"/>
<path d="M291.337 82.0312L293.027 84.9609H289.646L291.337 82.0312Z" fill="#EE8888"/>
<path d="M291.337 93.75L293.027 96.6797H289.646L291.337 93.75Z" fill="#EE8888"/>
<path d="M291.337 105.469L293.027 108.398H289.646L291.337 105.469Z" fill="#EE8888"/>
<path d="M291.337 117.188L293.027 120.117H289.646L291.337 117.188Z" fill="#EE8888"/>
<path d="M291.337 128.906L293.027 131.836H289.646L291.337 128.906Z" fill="#EE8888"/>
<path d="M291.337 140.625L293.027 143.555H289.646L291.337 140.625Z" fill="#EE8888"/>
<path d="M291.337 152.344L293.027 155.273H289.646L291.337 152.344Z" fill="#EE8888"/>
<path d="M291.337 164.062L293.027 166.992H289.646L291.337 164.062Z" fill="#EE8888"/>
<path d="M291.337 175.781L293.027 178.711H289.646L291.337 175.781Z" fill="#EE8888"/>
<path d="M291.337 187.5L293.027 190.43H289.646L291.337 187.5Z" fill="#EE8888"/>
<path d="M291.337 199.219L293.027 202.148H289.646L291.337 199.219Z" fill="#EE8888"/>
<path d="M291.337 210.938L293.027 213.867H289.646L291.337 210.938Z" fill="#EE8888"/>
<path d="M291.337 222.656L293.027 225.586H289.646L291.337 222.656Z" fill="#EE8888"/>
<path d="M291.337 234.375L293.027 237.305H289.646L291.337 234.375Z" fill="#EE8888"/>
<path d="M291.337 246.094L293.027 249.023H289.646L291.337 246.094Z" fill="#EE8888"/>
<path d="M303.048 0L304.739 2.92969H301.358L303.048 0Z" fill="#EE8888"/>
<path d="M303.048 0L304.739 2.92969H301.358L303.048 0Z" fill="#EE8888"/>
<path d="M303.048 11.7188L304.739 14.6484H301.358L303.048 11.7188Z" fill="#EE8888"/>
<path d="M303.048 23.4375L304.739 26.3672H301.358L303.048 23.4375Z" fill="#EE8888"/>
<path d="M303.048 35.1562L304.739 38.0859H301.358L303.048 35.1562Z" fill="#EE8888"/>
<path d="M303.048 46.875L304.739 49.8047H301.358L303.048 46.875Z" fill="#EE8888"/>
<path d="M303.048 58.5938L304.739 61.5234H301.358L303.048 58.5938Z" fill="#EE8888"/>
<path d="M303.048 70.3125L304.739 73.2422H301.358L303.048 70.3125Z" fill="#EE8888"/>
<path d="M303.048 82.0312L304.739 84.9609H301.358L303.048 82.0312Z" fill="#EE8888"/>
<path d="M303.048 93.75L304.739 96.6797H301.358L303.048 93.75Z" fill="#EE8888"/>
<path d="M303.048 105.469L304.739 108.398H301.358L303.048 105.469Z" fill="#EE8888"/>
<path d="M303.048 117.188L304.739 120.117H301.358L303.048 117.188Z" fill="#EE8888"/>
<path d="M303.048 128.906L304.739 131.836H301.358L303.048 128.906Z" fill="#EE8888"/>
<path d="M303.048 140.625L304.739 143.555H301.358L303.048 140.625Z" fill="#EE8888"/>
<path d="M303.048 152.344L304.739 155.273H301.358L303.048 152.344Z" fill="#EE8888"/>
<path d="M303.048 164.062L304.739 166.992H301.358L303.048 164.062Z" fill="#EE8888"/>
<path d="M303.048 175.781L304.739 178.711H301.358L303.048 175.781Z" fill="#EE8888"/>
<path d="M303.048 187.5L304.739 190.43H301.358L303.048 187.5Z" fill="#EE8888"/>
<path d="M303.048 199.219L304.739 202.148H301.358L303.048 199.219Z" fill="#EE8888"/>
<path d="M303.048 210.938L304.739 213.867H301.358L303.048 210.938Z" fill="#EE8888"/>
<path d="M303.048 222.656L304.739 225.586H301.358L303.048 222.656Z" fill="#EE8888"/>
<path d="M303.048 234.375L304.739 237.305H301.358L303.048 234.375Z" fill="#EE8888"/>
<path d="M303.048 246.094L304.739 249.023H301.358L303.048 246.094Z" fill="#EE8888"/>
<rect y="14" width="240" height="201" fill="#DB4437"/>
</svg>
