<svg id="Layer_1" data-name="Layer 1" xmlns="http://www.w3.org/2000/svg" viewBox="0 0 373.45 77.9"><defs><style>.cls-1{fill:#000000;}</style></defs><path class="cls-1" d="M258.84,258.69h27.92c0,.45.12.91.12,1.36,0,13.36,0,26.71,0,40.07,0,4.16-.27,8.3-2.05,12.18-1.91,4.14-4.78,7.16-9.49,7.94-7.84,1.29-12.69-3.17-14.94-9.09a29.05,29.05,0,0,1-1.6-10.36c0-13.71,0-27.42,0-41.14C258.77,259.38,258.81,259.1,258.84,258.69Z" transform="translate(-234.22 -258.69)"/><path class="cls-1" d="M316.67,286.56h9.77v3.69c3.14-2.93,6.52-4.73,10.8-4.25s7,3.15,9.18,6.72l1-1.28c5.22-6.53,16-7.45,21.74-1.88a13.14,13.14,0,0,1,3.9,9.64c.13,7.56,0,15.12,0,22.68a2.45,2.45,0,0,1-.08.42h-9.87V321c0-6.2,0-12.4,0-18.6a16.1,16.1,0,0,0-.26-2.86c-.76-4.09-4-6-8-4.82a7.31,7.31,0,0,0-5.23,6.63c-.15,2.67-.13,5.36-.15,8,0,3.83,0,7.68,0,11.52,0,.46,0,.93-.08,1.44h-9.72c0-.43-.08-.89-.08-1.35,0-5.8,0-11.6,0-17.4a25.75,25.75,0,0,0-.42-4.64c-.74-3.81-3.6-5.41-7.34-4.23a7.32,7.32,0,0,0-5.22,6.77c-.14,5.28-.12,10.56-.15,15.84,0,1.63,0,3.26,0,5h-9.75Z" transform="translate(-234.22 -258.69)"/><path class="cls-1" d="M576.84,324.2a18.1,18.1,0,0,0,7.8,3.45,16.42,16.42,0,0,0,8.28-.68c4.3-1.62,6.76-5.65,6.32-10.57l-1,.89c-4.9,4.55-10.66,5.34-16.72,3.22s-9.51-6.66-10.5-13a20,20,0,0,1,.52-9.26c2-6.38,6.19-10.69,12.87-12.06a12.54,12.54,0,0,1,11.91,3.49,16.58,16.58,0,0,1,1.11,1.37l.38-.19v-4.3h9.85v1.33c0,9.92.05,19.84,0,29.76a24.05,24.05,0,0,1-.86,6.49c-2.09,7.23-7.44,10.89-14.5,12.1a25.56,25.56,0,0,1-18.12-3.84c-.89-.55-1-1-.51-2C574.75,328.41,575.75,326.33,576.84,324.2Zm3.81-20.53c.11.91.17,1.83.36,2.72a8.68,8.68,0,0,0,8.25,6.92,8.27,8.27,0,0,0,8.26-6.5,16.23,16.23,0,0,0,.34-4.4,8.36,8.36,0,0,0-6.27-7.86C585.7,293.19,580.72,297.36,580.65,303.67Z" transform="translate(-234.22 -258.69)"/><path class="cls-1" d="M425.55,317.69c0,1.44,0,2.62,0,3.8,0,.54-.09.91-.79.9-2.95,0-5.91,0-9,0V272.9h9.74v17.55c.47-.37.69-.52.89-.7a14.7,14.7,0,0,1,17.23-2c5.66,3.29,8.53,8.35,8.91,14.84s-1.61,12.09-6.6,16.5c-5.8,5.13-14.63,5.2-19.72-.84A5.73,5.73,0,0,0,425.55,317.69Zm17.09-13.2a10.44,10.44,0,0,0-2.78-7.63,7.72,7.72,0,0,0-12.17.53,12.22,12.22,0,0,0-.79,12.9,8,8,0,0,0,13,1.53A9.72,9.72,0,0,0,442.64,304.49Z" transform="translate(-234.22 -258.69)"/><path class="cls-1" d="M492.13,307.89a6.86,6.86,0,0,0,2.47,4.49,11.33,11.33,0,0,0,13.71.19c.51-.38,1-.8,1.58-1.28l5.35,5.79a1.8,1.8,0,0,1-.16.36c-7.34,7.56-21.55,7.22-28.48-.68a16.15,16.15,0,0,1-4.12-10.5,28.71,28.71,0,0,1,.62-7.47c1.77-7.16,8.59-12.45,16-12.82a19.84,19.84,0,0,1,11.62,2.6c5,3,7.41,7.55,7.6,13.33,0,1.55-.06,3.12,0,4.67.07,1.11-.36,1.34-1.37,1.34-7.68,0-15.36,0-23,0Zm.38-7.1h15.72c-.31-4.35-3.52-6.94-8.2-6.72C496.11,294.25,492.45,297.5,492.51,300.79Z" transform="translate(-234.22 -258.69)"/><path class="cls-1" d="M394.21,285.93c9,0,16.25,5.42,18.38,13.75a18.4,18.4,0,0,1-17.82,23.21c-7.91.08-14.14-3-17.63-10.18A18.42,18.42,0,0,1,394.21,285.93Zm9.05,18.3c-.08-.62-.14-1.5-.29-2.36a9,9,0,0,0-8-7.55,8.76,8.76,0,0,0-9.27,6.4,13.4,13.4,0,0,0-.32,6.17,8.91,8.91,0,0,0,12.32,6.91C401.69,312.05,403.08,308.6,403.26,304.23Z" transform="translate(-234.22 -258.69)"/><path class="cls-1" d="M535.08,322.32V286.58h9.75v3.61l.32.11.94-.82c4.14-3.56,8.87-4.61,13.95-2.68s7.61,5.86,8.28,11.12a19.08,19.08,0,0,1,.18,2.39q0,10.43,0,20.87c0,.35,0,.7,0,1.2-3.12,0-6.18,0-9.24,0-.19,0-.48-.37-.54-.61a5.21,5.21,0,0,1,0-1.19c0-6.68,0-13.36-.1-20a9.41,9.41,0,0,0-.34-2.24c-.6-2.28-1.85-4-4.33-4.43a7.27,7.27,0,0,0-7.55,3.07c-1.35,1.84-1.45,4-1.46,6.19,0,5.88,0,11.76,0,17.63,0,.51-.05,1-.08,1.58Z" transform="translate(-234.22 -258.69)"/><path class="cls-1" d="M284.89,336.08c2.29-1.34,4.89-2.59,7.19-4.25,6.84-4.94,10.58-11.87,12-20.05a73.88,73.88,0,0,0,.94-11.32c.11-12.75,0-25.51,0-38.27v-1.55a5.17,5.17,0,0,1,.74.32,12.78,12.78,0,0,1,5.88,10.71c.09,17.12.06,34.24,0,51.35a13.41,13.41,0,0,1-12.94,13.05C294,336.13,289.32,336.08,284.89,336.08Z" transform="translate(-234.22 -258.69)"/><path class="cls-1" d="M240.66,260.63v1.66c0,13.44,0,26.88,0,40.32a41.93,41.93,0,0,0,3.54,17.58,29.68,29.68,0,0,0,16.17,15.42,1.58,1.58,0,0,1,.71.48c-4.57,0-9.15,0-13.72,0a12.7,12.7,0,0,1-3.07-.43,13.31,13.31,0,0,1-10.08-12.89q0-25.38,0-50.75a13.06,13.06,0,0,1,5.15-10.49C239.72,261.24,240.08,261,240.66,260.63Z" transform="translate(-234.22 -258.69)"/><path class="cls-1" d="M470,272.87h9.64v49.44H470Z" transform="translate(-234.22 -258.69)"/><path class="cls-1" d="M455.4,286.55H465V322.3H455.4Z" transform="translate(-234.22 -258.69)"/><path class="cls-1" d="M466,277.65a5.74,5.74,0,0,1-5.73,5.82,5.82,5.82,0,1,1,0-11.63A5.67,5.67,0,0,1,466,277.65Z" transform="translate(-234.22 -258.69)"/><path class="cls-1" d="M525.4,322.88a5.64,5.64,0,0,1-5.77-5.86,5.78,5.78,0,1,1,11.56.13A5.66,5.66,0,0,1,525.4,322.88Z" transform="translate(-234.22 -258.69)"/></svg>