<?xml version="1.0" encoding="UTF-8"?>
<!DOCTYPE svg PUBLIC "-//W3C//DTD SVG 1.1//EN" "http://www.w3.org/Graphics/SVG/1.1/DTD/svg11.dtd">
<!-- Creator: CorelDRAW 2020 (64-Bit) -->
<svg xmlns="http://www.w3.org/2000/svg" xml:space="preserve" width="297mm" height="210mm" version="1.1" style="shape-rendering:geometricPrecision; text-rendering:geometricPrecision; image-rendering:optimizeQuality; fill-rule:evenodd; clip-rule:evenodd"
viewBox="0 0 29700 21000"
 xmlns:xlink="http://www.w3.org/1999/xlink"
 xmlns:xodm="http://www.corel.com/coreldraw/odm/2003">
 <defs>
  <style type="text/css">
   <![CDATA[
    .fil6 {fill:#263138;fill-rule:nonzero}
    .fil9 {fill:#36464F;fill-rule:nonzero}
    .fil7 {fill:#445964;fill-rule:nonzero}
    .fil8 {fill:#8F5924;fill-rule:nonzero}
    .fil1 {fill:#A5A5A5;fill-rule:nonzero}
    .fil0 {fill:#C6C6C6;fill-rule:nonzero}
    .fil3 {fill:#D37569;fill-rule:nonzero}
    .fil5 {fill:#DB4437;fill-rule:nonzero}
    .fil2 {fill:#DBDBDB;fill-rule:nonzero}
    .fil11 {fill:#EBEBEB;fill-rule:nonzero}
    .fil12 {fill:#F4B400;fill-rule:nonzero}
    .fil10 {fill:#FF9CBC;fill-rule:nonzero}
    .fil4 {fill:white;fill-rule:nonzero}
    .fil13 {fill:black;fill-rule:nonzero;fill-opacity:0.101961}
   ]]>
  </style>
 </defs>
 <g id="Layer_x0020_1">
  <metadata id="CorelCorpID_0Corel-Layer"/>
  <g id="_2008322062624">
   <g>
    <g>
     <g>
      <polygon class="fil0" points="19901.57,13598.22 19810.34,14145.32 19192.32,17482.88 19092.7,17482.88 19542.11,14145.32 19608.52,13598.22 "/>
     </g>
    </g>
    <polygon class="fil1" points="19608.52,13598.22 19901.57,13598.22 19810.34,14145.32 19542.11,14145.32 "/>
   </g>
   <g>
    <g>
     <g>
      <polygon class="fil0" points="21842.36,17482.88 21742.74,17482.88 21124.72,14145.32 21033.49,13598.22 21326.54,13598.22 21392.95,14145.32 "/>
     </g>
    </g>
    <polygon class="fil1" points="21326.54,13598.22 21392.95,14145.32 21124.72,14145.32 21033.49,13598.22 "/>
   </g>
   <g>
    <g>
     <g>
      <polygon class="fil0" points="23696.11,17482.88 23596.48,17482.88 22978.46,14145.32 22887.23,13598.22 23180.28,13598.22 23246.69,14145.32 "/>
     </g>
    </g>
    <polygon class="fil1" points="23246.69,14145.32 22978.46,14145.32 22887.23,13598.22 23180.28,13598.22 "/>
   </g>
   <polygon class="fil0" points="23538.1,13855.28 19009.45,13855.28 19009.45,13378.1 20704.75,13378.1 21274.51,9357.63 23365.45,9357.63 "/>
   <polygon class="fil2" points="23274.26,13378.12 19009.45,13378.12 19009.45,13855.28 23291.24,13855.28 "/>
   <polygon class="fil2" points="23538.1,13855.28 23291.24,13855.28 23130.35,9357.63 23365.45,9357.63 "/>
  </g>
  <g id="_2008311156272">
   <g>
    <g>
     <g>
      <path class="fil3" d="M18931.27 18107.15c87.7,8.26 2474.82,-562.91 2549.96,-640.43 9.19,-8.61 -37.94,-225.58 -107.22,-521.44l-1.34 -5.82c-43.24,-187.58 -740.35,-1704.32 -740.35,-1704.32l-1547.15 433.09 704.54 1407.21c0,0 -291.05,210.57 -540.57,410.49 -0.26,0.42 -0.61,0.49 -0.53,0.84 -154.11,122.76 -286.94,233.05 -315.12,268.75 -72.96,93.24 -89.77,344.05 -2.22,351.63z"/>
      <path class="fil4" d="M18931.38 18107.02c87.47,8.34 2474.56,-562.88 2550,-640.25 9.12,-8.79 -38.17,-225.48 -107.34,-521.54l-1.41 -5.62c-15.88,-69.89 -123.28,-324.81 -251.1,-616.94 -254.61,68.76 -1167.34,316.32 -1498.85,419.24l166.86 333.54c0,0 -291,210.73 -540.55,410.52 0,0.35 -0.35,0.35 -0.35,0.7 -154.09,122.76 -287.11,233.21 -315.17,268.71 -72.97,93.52 -89.92,344.36 -2.09,351.64z"/>
      <g>
       <path class="fil5" d="M18923.45 18118.51c90.2,7.74 2478.98,-570 2556.17,-649.6 29.42,-30.04 -23.82,-407.02 -155.04,-806.39l-1539.62 374.31c0,0 -785.86,623.41 -861.14,719.8 -74.77,96.27 -90.56,354.14 -0.37,361.88z"/>
       <g>
        <g>
         <path class="fil6" d="M18934.6 18014.67c398.05,-106.68 2013.61,-499.38 2415.19,-574.58 3.27,-0.62 3.8,1.58 0.61,2.51 -392.23,114.35 -2010.92,493.96 -2414.23,578.64 -8.51,1.78 -9.98,-4.33 -1.57,-6.57z"/>
         <path class="fil6" d="M19056.69 17633.54c94.03,-26.84 197.75,-4.18 263.2,39.85 62.89,42.31 123.93,108.43 141.2,192.15 0.49,2.4 -3.89,3.53 -4.85,1.16 -60.77,-151.17 -236.58,-254.34 -398.35,-228.14 -3.26,0.53 -4.42,-4.1 -1.2,-5.02z"/>
         <path class="fil6" d="M19669.06 17107.36c159.74,-40.98 359.24,-29.36 490.53,77.63 5.1,4.15 -0.88,11.32 -6.22,10.02 -162.96,-39.65 -314.15,-61.99 -482.29,-67.25 -11.86,-0.37 -13.46,-17.46 -2.02,-20.4z"/>
         <path class="fil6" d="M19557 17185.52c159.74,-40.99 359.23,-29.36 490.54,77.63 5.08,4.15 -0.89,11.31 -6.24,10.01 -162.94,-39.64 -314.14,-61.99 -482.29,-67.24 -11.85,-0.37 -13.44,-17.46 -2.01,-20.4z"/>
         <path class="fil6" d="M19444.94 17263.68c159.73,-40.99 359.24,-29.35 490.54,77.63 5.09,4.15 -0.89,11.32 -6.24,10.01 -162.95,-39.64 -314.13,-61.99 -482.3,-67.25 -11.84,-0.36 -13.45,-17.45 -2,-20.39z"/>
         <path class="fil6" d="M19332.88 17341.84c159.73,-40.99 359.23,-29.35 490.53,77.63 5.09,4.15 -0.88,11.31 -6.23,10.02 -162.94,-39.66 -314.14,-62 -482.29,-67.25 -11.85,-0.38 -13.45,-17.46 -2.01,-20.4z"/>
         <path class="fil6" d="M21155.81 17084.42c179.94,-42.97 247.03,236.61 66.78,279.66 -179.95,42.96 -247.03,-236.62 -66.78,-279.66z"/>
        </g>
        <path class="fil6" d="M19462.03 16953.41c113.47,90.67 262.24,129.04 395.44,180.37 13.82,5.33 25.05,-7.58 25.7,-19.91 2.67,-0.44 4.92,-2.43 3.9,-5.79 -42.37,-135.98 -136.39,-281.09 -244.77,-374.62 -66.92,-57.75 -185.02,-98.78 -249.88,-11.88 -61.34,82.18 3.35,178.89 69.61,231.83zm-39.54 -130.99l0 0c-26.23,-178.23 163.49,-82.32 211.11,-37.79 30.62,28.61 58.32,61.47 84.7,93.94 55.26,68.07 99.8,142.71 147.75,215.65 -63.89,-29.23 -129.71,-52.73 -194.6,-79.56 -77.36,-32 -234.5,-93.97 -248.96,-192.24z"/>
        <path class="fil6" d="M20431.5 16868.22c-37.88,-101.6 -162.74,-95.37 -243.18,-58.72 -130.27,59.36 -261.23,172.25 -340.06,290.89 -1.93,2.92 -0.32,5.47 2.12,6.65 -2.83,12.01 4.31,27.55 19.07,26.31 142.26,-11.89 295.82,-6.97 430.18,-62.16 78.43,-32.22 167.67,-106.88 131.87,-202.97zm-350.06 203l0 0c-69.83,7.54 -139.59,11.62 -209.12,21.75 66.48,-56.55 130.19,-115.7 202.33,-165.51 34.43,-23.78 70.24,-47.54 107.65,-66.42 58.22,-29.36 267.22,-68.19 192.02,95.52 -41.44,90.27 -209.66,105.66 -292.88,114.66z"/>
       </g>
      </g>
     </g>
     <g>
      <path class="fil6" d="M19614.53 16946.75l1657.55 -497.14c0,0 -1366.23,-2847.29 -1323.16,-2992.12 28.77,-96.75 2077.28,-103.42 2677.62,-642.51 621.4,-558.01 137.57,-1653.98 137.57,-1653.98l-1722.27 -8.89c0,0 29.59,359.48 -36.22,415.38 -43.38,37.26 -2398.14,244.48 -2849.04,1110.27 -409.26,785.82 1457.95,4268.99 1457.95,4268.99z"/>
      <path class="fil6" d="M19948.84 13457.43c-7.46,24.39 25.81,126.76 86.5,279.75l-1237.86 1520.86c-441.46,-1006.32 -856.47,-2166.82 -640.98,-2580.2 451.11,-865.73 2805.54,-1073.04 2849.29,-1110.27 65.44,-55.85 35.94,-415.51 35.94,-415.51l1093.19 5.64 -1816.85 2231.61c-218.77,24.1 -361.78,42.91 -369.23,68.12z"/>
      <g>
       <g>
        <path class="fil7" d="M19573.39 16596.08c42.87,-21.67 90.02,-34.91 135.14,-50.25 47.8,-16.24 95.61,-32.65 143.67,-48.11 94.59,-30.45 189.54,-59.56 285.14,-86.58 192.49,-54.42 385.31,-107.79 579.21,-157.07 101.06,-25.69 317.61,-81.76 331.05,-79.69 6.46,1 7.89,11.8 2.13,13.86 -187.35,67.06 -377.61,124.49 -567.84,182.5 -189.9,57.91 -380.18,115.16 -572.72,163.76 -53.32,13.46 -106.99,25.42 -160.47,38.22 -55.97,13.42 -112.6,31.32 -170.38,36.52 -5.55,0.49 -10.98,-10.1 -4.93,-13.16z"/>
       </g>
       <path class="fil7" d="M22671.59 11489.05c-5.31,-57.48 -11.74,-114.86 -18.26,-172.23 -0.76,-6.63 -11.17,-6.56 -10.5,0.2 22.97,232.9 46.55,471.34 3.7,703.43 -40.09,217.1 -146.42,407.09 -307.61,557.41 -341.71,318.65 -819.48,412.48 -1264.66,488.22 -254.99,43.39 -511.48,76.74 -768.88,102 -126.07,12.36 -252.36,22.47 -378.8,30.34 -125.31,7.78 -250.87,9 -376.14,15.97 -39.56,2.2 -74.88,20.29 -68.71,65.52 3.74,27.41 19.15,54.02 30.12,79.08 13.34,30.48 26.84,60.9 40.28,91.33 50.28,113.75 100.85,227.36 151.71,340.85 104.83,233.88 211.22,467.04 319.02,699.58 214.02,461.65 436.2,919.64 666.1,1373.59 28.53,56.35 57.15,112.66 85.84,168.94 1.87,3.67 7.17,0.33 5.42,-3.32 -219.7,-459.79 -437.09,-920.77 -651.09,-1383.25 -106.21,-229.54 -212.7,-458.94 -317.78,-689.01 -52.53,-115 -104.74,-230.15 -156.66,-345.43 -25.95,-57.65 -51.83,-115.32 -77.63,-173.04 -12.9,-28.85 -25.77,-57.72 -38.64,-86.59 -10.69,-23.99 -49.68,-81.5 -22.78,-103.93 17.96,-14.98 55.27,-9.83 76.81,-10.45 33.31,-0.96 66.61,-2.2 99.93,-3.31 63.28,-2.1 126.55,-4.66 189.79,-7.84 128.13,-6.43 256.14,-15.19 383.95,-26.27 250.36,-21.68 499.91,-53.41 747.99,-93.33 442.4,-71.18 923.47,-151.47 1277.54,-448.44 156.15,-130.98 278.89,-299.57 339.6,-495.23 67.55,-217.66 61.07,-450.39 40.34,-674.79z"/>
      </g>
     </g>
    </g>
    <g>
     <g>
      <path class="fil3" d="M15289.3 15924.74c62.29,62.29 2265.23,1144.7 2372.54,1132.91 12.57,-0.77 114.64,-197.95 249.95,-470.02l2.68 -5.34c86.32,-172.06 870.01,-1619.42 870.01,-1619.42l-1370.57 -693.9 -805.43 1408.55c0,0 -358.46,-23.42 -678.15,-28.57 -0.47,0.17 -0.79,0 -0.95,0.31 -196.99,-3.71 -369.65,-3.48 -414.11,6.04 -115.67,25.3 -288.56,207.77 -225.97,269.44z"/>
      <path class="fil4" d="M15289.27 15924.62c62.34,62.27 2265.23,1144.84 2372.72,1132.95 12.46,-0.57 114.55,-197.93 249.83,-469.77l2.65 -5.36c6.01,-11.95 12.19,-24.19 18.68,-36.26 4.26,-8.9 8.82,-17.61 13.7,-26.16 6.53,-12.85 13.54,-25.84 20.54,-38.83 59.7,-113.16 157.71,-296.26 265.63,-496.76l-1397.49 -704.33 -227.13 397.39c0,0 -358.39,-23.29 -678.12,-28.57 -0.48,0.13 -0.79,-0.04 -0.96,0.26 -196.94,-3.57 -369.7,-3.46 -413.96,6.07 -115.63,25.44 -288.79,207.72 -226.09,269.37z"/>
      <g>
       <path class="fil5" d="M15276.04 15928.5c64.54,63.49 2272.94,1141.89 2383.17,1129.81 41.81,-4.37 241.22,-328.7 394.84,-720l-1424.6 -693.55c0,0 -1002.89,-21 -1122.34,5.24 -118.99,26.47 -295.61,215.02 -231.07,278.5z"/>
       <g>
        <g>
         <path class="fil6" d="M15350.86 15855.63c374.62,171.69 1869.44,899.51 2226.73,1097.69 2.9,1.6 1.91,3.63 -1.14,2.32 -375.04,-162.06 -1863.92,-901.97 -2228.57,-1093.95 -7.69,-4.05 -4.94,-9.69 2.98,-6.06z"/>
         <path class="fil6" d="M15687.95 15639.93c89.54,39.29 154.98,122.89 177.32,198.54 21.46,72.7 26.31,162.56 -13.79,238.05 -1.15,2.17 -5.24,0.24 -4.46,-2.2 49.59,-155.18 -20.04,-346.78 -161.35,-429.76 -2.85,-1.68 -0.79,-5.99 2.28,-4.63z"/>
         <path class="fil6" d="M16495.2 15625.16c149.18,70.3 295.41,206.49 328.31,372.63 1.27,6.45 -7.89,8.16 -11.18,3.75 -100.22,-134.47 -202.42,-248.09 -328.59,-359.38 -8.89,-7.85 0.78,-22.03 11.46,-17z"/>
         <path class="fil6" d="M16359.04 15613.9c149.18,70.3 295.42,206.48 328.33,372.63 1.26,6.44 -7.9,8.15 -11.19,3.74 -100.22,-134.46 -202.44,-248.09 -328.6,-359.38 -8.9,-7.84 0.78,-22.03 11.46,-16.99z"/>
         <path class="fil6" d="M16222.87 15602.64c149.18,70.3 295.43,206.49 328.33,372.63 1.28,6.44 -7.89,8.15 -11.19,3.73 -100.22,-134.45 -202.42,-248.08 -328.6,-359.37 -8.88,-7.84 0.78,-22.03 11.46,-16.99z"/>
         <path class="fil6" d="M16086.71 15591.38c149.18,70.29 295.42,206.48 328.33,372.62 1.28,6.44 -7.89,8.16 -11.19,3.74 -100.22,-134.45 -202.43,-248.09 -328.6,-359.37 -8.88,-7.85 0.78,-22.02 11.46,-16.99z"/>
         <path class="fil6" d="M17654.99 16555.64c166.01,81.67 39.38,339.8 -126.9,258.01 -166.01,-81.68 -39.39,-339.8 126.9,-258.01z"/>
        </g>
        <path class="fil6" d="M16433.91 15374.55c29.58,142.21 119.7,266.63 189.56,391.12 7.24,12.91 24.13,10.13 32.49,1.06 2.34,1.35 5.35,1.26 6.69,-1.99 54.09,-131.75 74.21,-303.48 50.38,-444.64 -14.71,-87.16 -79.52,-194.07 -184.89,-168.51 -99.66,24.18 -111.5,139.93 -94.23,222.96zm53.08 -126.11l0 0c93.46,-154.01 178.43,40.85 186.72,105.52 5.33,41.56 5.71,84.55 5.32,126.38 -0.85,87.67 -14.14,173.57 -23.72,260.32 -30.57,-63.25 -66.29,-123.32 -99.16,-185.38 -39.17,-73.97 -120.7,-221.93 -69.16,-306.84z"/>
        <path class="fil6" d="M17234.97 15927.19c35.62,-102.41 -64.54,-177.24 -149.86,-200.3 -138.19,-37.36 -311.07,-33.92 -447.43,7.19 -3.36,1.01 -3.74,4.01 -2.61,6.46 -9.85,7.45 -14.25,23.98 -2.1,32.44 117.15,81.56 232.3,183.28 370.98,226.46 80.97,25.21 197.31,24.61 231.02,-72.25zm-399.1 -66.88l0 0c-58.6,-38.72 -114.92,-80.06 -174.93,-116.6 87.26,-1.16 174.05,-6.09 261.39,1.54 41.67,3.65 84.41,8.19 125.27,17.51 63.57,14.5 249.31,117.88 86.99,196.03 -89.5,43.09 -228.88,-52.34 -298.72,-98.48z"/>
       </g>
      </g>
     </g>
     <g>
      <path class="fil6" d="M16615.36 15449.61l1652.64 825.8c0,0 1289.94,-2622.64 1431.48,-2791.63 188.67,-225.28 2645.93,92.88 3225.52,-634.67 599.39,-752.43 85.8,-1686.84 85.8,-1686.84l-1870.48 -1.15c0,0 -5.54,207.46 102.3,510.76 0,0 -2138.88,-127.27 -2744.12,461.06 -464.58,451.59 -1883.14,3316.67 -1883.14,3316.67z"/>
      <g>
       <path class="fil7" d="M21583.51 11860.72c-96.48,-65.35 -194.44,-127.16 -297.54,-181.78 -52.08,-27.59 -158.92,-74.92 -225.4,-91.06 -54.51,-13.23 -78.45,-17.21 -27.27,6.96 29.29,13.83 85.43,40.55 137.59,65.35 -9.83,-0.32 -19.58,-0.62 -29,-1.1 -36.73,-1.89 -73.54,-3.16 -110.31,-4.11 -71.88,-1.86 -143.91,-1.4 -215.81,-1.82 -146,-0.85 -290.5,12.96 -436.09,20.25 -3.86,0.19 -3.73,6.13 0.14,6.01 145.3,-4.74 291.26,2.99 436.65,2.39 72,-0.29 143.87,1.76 215.85,3.11 35.15,0.66 70.31,1.32 105.46,1.87 29,0.45 59.91,2.8 89.33,0.12 15.6,7.4 29.78,14.13 40.08,18.99 105.75,49.86 211.29,101.93 313.15,159.3 3.01,1.7 6.16,-2.46 3.17,-4.48z"/>
       <path class="fil7" d="M21096.15 11091.18c19,88.25 35.3,177.09 57.42,264.66 10.14,40.16 20.1,81.02 33.86,120.13 11.59,33.01 29.58,70.85 67.02,79.4 43.18,9.86 56.84,-26.95 54.51,-62.95 -2.59,-40.19 -11.49,-80.68 -18.07,-120.35 -7.6,-45.74 -15.28,-91.46 -22.01,-137.36 -3.36,-22.94 -6.9,-45.87 -10,-68.85 -0.78,-5.78 -3.58,-49.61 -6.28,-62.23 -0.38,1.04 -1.09,2.04 -2.46,1.8 -0.5,-0.09 -1,-0.18 -1.51,-0.27 -1.18,-0.2 -2.45,-1.03 -2.59,-2.35 -0.33,-3.45 -0.26,-4.16 2.41,-6.48 1.16,-1.02 2.74,-0.9 3.99,-0.17 8.15,4.84 8.37,16.25 10.77,24.73 6.32,22.39 12.78,44.73 18.5,67.3 10.69,42.17 21.09,84.47 30.3,126.99 9.2,42.49 18.12,85.05 27.08,127.6 6.71,31.8 14.8,65.36 5.19,97.5 -10.5,35.11 -39.39,52 -70.61,53.66 1.42,2.91 3.12,5.68 4.33,8.68 3.53,8.74 6.03,18.03 8.98,26.97 3.02,9.18 5.73,18.3 8.03,27.68 1.1,4.44 1.73,9.04 2.07,13.6 0.39,5.1 -0.81,10.01 -0.33,15.11 0.74,7.86 -10.05,12.31 -13.73,4.42 -2.14,-4.58 -5.36,-8.12 -7.77,-12.51 -2.53,-4.6 -4.26,-9.89 -5.78,-14.87 -2.68,-8.84 -4.89,-17.66 -6.83,-26.71 -1.91,-8.91 -4.33,-17.89 -5.68,-26.92 -0.79,-5.36 -0.81,-10.78 -1.09,-16.19 -17.71,-2.39 -35.27,-9.1 -49.82,-20.9 -25.44,-20.62 -39.69,-51.26 -49.59,-81.71 -11.98,-36.87 -20.95,-74.92 -29.94,-112.62 -22.25,-93.29 -40.67,-187.97 -46.3,-283.87 -0.6,-10.15 13.68,-13.39 15.93,-2.92z"/>
       <path class="fil7" d="M21997.99 11342.45c6.46,43.69 10.02,87.74 18.58,131.11 8.38,42.47 18.4,84.97 30.89,126.42 11.95,39.63 26.96,79.72 49.59,114.6 21.93,33.84 51.43,63.38 82.03,89.38 60.02,51.01 128.48,92.27 201.69,121.35 36.88,14.65 74.66,27.32 113.08,37.29 20.02,5.21 40.27,9.4 60.69,12.73 16.99,2.77 33.84,3.96 48.78,13.05 6.38,3.88 4.95,14.09 -1.5,16.99 -26.6,11.98 -63.17,3.66 -91.01,-0.16 -32.62,-4.47 -64.92,-11.09 -96.54,-20.32 -63.7,-18.62 -125.12,-47.75 -180.95,-83.55 -54.79,-35.14 -109.66,-78.55 -149.23,-130.69 -41.01,-54.05 -62.86,-116.65 -76,-182.62 -15.73,-79.05 -25.55,-164.69 -18.53,-245.19 0.42,-4.71 7.72,-5.22 8.43,-0.39z"/>
       <g>
        <path class="fil7" d="M16950.74 15148.92c46.05,13.68 89.43,36.42 132.76,56.25 45.91,21 91.93,41.91 137.49,63.66 89.67,42.81 178.69,86.83 266.75,132.82 177.31,92.6 354.16,186.19 528.97,283.48 91.11,50.71 287.05,158.63 295.4,169.36 4.02,5.16 -2.37,13.99 -7.97,11.53 -182.26,-79.88 -360.02,-168.74 -538.14,-257.17 -177.84,-88.29 -355.5,-177.3 -528.85,-274.16 -48.01,-26.83 -95.23,-54.98 -142.91,-82.38 -49.9,-28.69 -103.36,-54.55 -148.94,-90.44 -4.38,-3.45 -1.05,-14.88 5.44,-12.95z"/>
       </g>
       <path class="fil7" d="M23009.51 11597.22c-0.18,-7.99 -12.47,-7.75 -12.4,0.24 3.56,406.17 -59.19,860.3 -371.79,1151.62 -342.78,319.45 -837.28,357.56 -1282.3,353.83 -255.45,-2.13 -510.42,-8.66 -765.87,-0.54 -256.6,8.16 -515.77,20.77 -770.59,53.3 -102.85,13.13 -189.06,50.16 -261.66,125.14 -70.61,72.93 -121.31,162.97 -173.42,249.29 -128.48,212.86 -252.97,428.12 -373.37,645.65 -239.34,432.39 -460.66,874.43 -664.44,1324.68 -25.3,55.93 -50.34,111.97 -75.14,168.12 -1.64,3.71 3.84,6.84 5.56,3.11 206.88,-452.04 430.6,-896.32 668,-1333.07 118.74,-218.44 241.58,-434.66 368.42,-648.5 59.63,-100.5 117.35,-203.39 183.81,-299.6 58.73,-85.03 132.26,-164.93 234.05,-195.78 61.35,-18.59 126.81,-21.82 190.31,-27.66 65.23,-5.99 130.52,-11.37 195.86,-16.14 127.33,-9.3 254.83,-16.26 382.42,-20.91 257.53,-9.38 514.65,-6.23 772.22,-1.57 447.14,8.09 935.62,-7.32 1306.34,-291.94 160.35,-123.11 275.95,-291.86 344.59,-481.22 69.99,-193.08 94.97,-400.3 99.65,-604.68 1.17,-51.12 0.94,-102.26 -0.25,-153.37z"/>
       <path class="fil7" d="M20332.62 13376.15c-91.22,1.61 -182.4,5.43 -273.59,8.48 -75.88,2.55 -152.15,1.77 -226.38,20.23 -69.03,17.16 -123.89,25.53 -180.37,102.72 -70.54,96.42 -454.5,838.21 -615.75,1166.63 -44.71,91.07 -88.87,182.35 -132.18,274.09 -44.73,94.76 -84.37,191.85 -128.92,286.64 -1.63,3.48 3.53,6.39 5.26,2.91 39.48,-79.28 83.45,-156.39 124.22,-235.02 40.81,-78.71 80.46,-158.06 120.09,-237.37 80,-160.13 159.95,-320.29 240.45,-480.17 79.8,-158.48 176.71,-312.98 257.69,-470.86 68.05,-132.68 160.89,-313.79 225.71,-340.64 76.33,-31.61 200.59,-62.88 282.36,-68.6 100.53,-7.03 201.18,-13.18 301.59,-21.83 4.59,-0.4 4.5,-7.29 -0.18,-7.21z"/>
      </g>
     </g>
    </g>
   </g>
   <g>
    <g>
     <path class="fil6" d="M22342.97 8623.51c85.79,339.11 245.92,731.71 167.48,1085.67 -61.86,277.29 -265.98,497.39 -491.01,658.07 -495.19,353.01 -1251.45,541.07 -1744.18,78.8 -196.74,-184.72 -315.28,-629.3 -96.39,-845.9 112.52,-110.97 262.87,-162.21 401.33,-232.03 182.83,-91.56 300.14,-228.9 352.63,-427.5 102.8,-386.89 15.07,-636.75 -29.53,-1023.26 -8.05,-71.73 -5.82,-144.54 51.53,-218.23 46.25,-72.81 117.63,-130.79 199.56,-171.33 67.5,-44.63 141.31,-77.77 222.82,-85.54 171.79,-16.98 365.03,104.91 514.96,174.76 151.74,70.86 233.28,160.58 277.4,323.66 61.1,226.67 115.6,455.22 173.4,682.83z"/>
     <path class="fil6" d="M22418.46 8776.15c-98.67,-305.77 -203.18,-609.11 -305.81,-913.46 -0.62,-1.83 -3.58,-1.22 -3,0.7 77.16,252.86 150.79,506.46 231.3,758.4 78.89,246.88 176.97,495.32 233.94,748.26 127.9,567.79 -410.54,920.31 -900.98,992.03 -22.3,3.26 -14.61,38.42 7.88,34.41 428.59,-76.52 907.44,-326.72 940.91,-816.44 18.31,-267.87 -123.58,-553.94 -204.24,-803.9z"/>
     <path class="fil6" d="M20924.64 7881.77c-1.39,-6.06 -10.31,-3.91 -9.35,2.14 50.13,316.41 138.27,680.63 15.88,990.32 -59.89,151.53 -165.95,284.08 -301.52,374.77 -107.79,72.11 -231.74,101.94 -349.86,151.41 -461.85,193.45 -332.91,844.26 68.86,1025.84 8.45,3.81 15.34,-10.55 7.01,-14.78 -286.46,-145.56 -440.9,-485.43 -294,-788.41 117.9,-243.18 440.96,-240.11 637.33,-398.65 406.92,-328.52 328.85,-889.42 225.65,-1342.64z"/>
    </g>
    <g>
     <g>
      <path class="fil8" d="M21776.74 9161.43c-212.03,458.18 -936.29,1520.92 -1285.27,1569.37 -308.75,42.86 -1073.02,-134.75 -1330.53,-276.18 -118.35,-65 179.46,-942.11 378.15,-900.47 248.31,52.05 584.37,174.59 814.55,188.83 81.46,5.04 473.8,-275.15 1164.88,-730.31 257.02,-169.27 377.63,-109.28 258.22,148.76z"/>
      <g>
       <g>
        <path class="fil8" d="M19139.3 9663.33c0,0 -614.74,-95.05 -646.35,-89.25 -31.8,6.31 -24.99,51.23 -21.11,86.82 0.85,8.63 12.54,30.42 26.81,59.12 46.24,91.28 124.26,254.32 0.35,291.33 -162.97,48.66 -338.95,-317.51 -357.46,-379.03 -4.79,-16.59 -3.34,-47.51 4.87,-84.79 22.16,-100.28 91.76,-246.57 210.15,-284.28 162.28,-51.77 347.7,-29.23 510.01,-21.08l272.73 421.16z"/>
        <path class="fil6" d="M19139.3 9663.33c0,0 -614.74,-95.05 -646.35,-89.25 -31.8,6.31 -24.99,51.23 -21.11,86.82 0.85,8.63 12.54,30.42 26.81,59.12 -125.58,-60.91 -264.1,-128.76 -352.24,-172.49 22.16,-100.28 91.76,-246.57 210.15,-284.28 162.28,-51.77 347.7,-29.23 510.01,-21.08l272.73 421.16z"/>
       </g>
       <g>
        <path class="fil8" d="M19160.94 10454.62c-32.12,-17.19 -197.39,-65.99 -420.83,-143.36 -60.02,-172.56 -219.83,-502.29 -261.74,-589.77 -30.03,-105.31 -154.22,-313.36 -163.86,-308.65 -18.12,8.77 -82.14,39.8 -162.81,71.22 -106.66,41.35 -242.24,83.9 -339.23,77.7 -52.89,-3.48 -93.85,-21.07 -113.31,-60.8 -34.82,-71.37 118.29,-154.14 291.09,-268.08 235.14,-155.45 532.46,-333.59 677.99,-290.67 215.04,63.36 427.19,326.32 499.36,397.23 72.53,70.94 371.49,214.71 371.49,214.71 -61.38,322.58 -335.04,923.05 -378.15,900.47z"/>
       </g>
       <path class="fil6" d="M18454.01 9655.99c-2.65,-4.32 -5.15,-2.14 -3.18,3.27 6.19,16.93 32.8,92.71 16.27,100.92 -28.75,14.3 -200.76,-78.51 -279.72,-104.81 -4.26,-1.41 -6.6,4.35 -2.48,5.45 21.59,5.77 97.3,46.14 115.96,55.4 36.22,17.98 142.54,80.74 178.72,62.76 24.2,-12.03 -15.19,-106.05 -25.57,-122.99z"/>
       <g>
        <path class="fil6" d="M17611.47 10069.36c-21.23,20.7 -44.71,37.58 -54.76,28.03l-0.33 -0.34c-9.29,-10.29 8.18,-33.33 29.41,-54.03l25.68 26.34z"/>
        <path class="fil9" d="M17857.56 10040.24c-22.18,21.62 -190.64,38.85 -252.89,35.76 -12.13,-0.6 -25.63,-14.18 -25.9,-25.88 -1.45,-61.51 20.14,-230.67 42.4,-252.36 15.08,-14.7 85.17,-51.24 153.33,-93.83 89.25,-55.21 1047.58,-943.35 1063.33,-947.58 15.74,-4.23 44.42,19.49 58.72,34.16 14.3,14.67 37.68,44.35 33.05,59.98 -5.02,15.23 -916.87,951.05 -974.33,1038.86 -44.33,67.05 -82.63,136.19 -97.71,150.89z"/>
        <path class="fil1" d="M17857.44 10040.4c-1.71,1.67 -4.44,3.66 -8.51,4.96 -61.99,-39.64 -109.11,-79.77 -144.8,-116.36 -48.02,-49.26 -75.17,-92.17 -89.69,-119.38 1.77,-5.72 4.18,-9.41 6.57,-11.74 2.4,-2.34 6.15,-5.33 10.92,-8.65 20.42,41.48 81.97,142.25 235.12,239.13 -3.79,5.7 -7.22,9.71 -9.61,12.04z"/>
        <g>
         <path class="fil6" d="M17849.01 9824.84l-12.72 -13.06c-9.93,-10.18 -9.72,-26.48 0.46,-36.4l268.84 -262.07c10.18,-9.93 26.48,-9.72 36.4,0.46l12.73 13.06c9.92,10.18 9.72,26.48 -0.46,36.4l-268.84 262.07c-10.18,9.93 -26.48,9.72 -36.41,-0.46z"/>
         <path class="fil1" d="M17859.87 9808.95l-7.43 -7.62c-5.79,-5.94 -5.67,-15.46 0.27,-21.25l172.57 -168.22c5.94,-5.79 15.45,-5.67 21.25,0.27l7.43 7.63c5.8,5.94 5.68,15.46 -0.27,21.25l-172.56 168.21c-5.95,5.8 -15.46,5.68 -21.26,-0.27z"/>
         <polygon class="fil6" points="17942.9,9748.93 17934.35,9757.27 17906.01,9728.2 17914.55,9719.87 "/>
        </g>
       </g>
       <path class="fil8" d="M18740.11 10311.26c-76.41,-26.22 -144.65,-48.76 -191.46,-62.79 -184.36,-55.15 -268.87,-145.6 -342.99,-253.63 -73.39,-107.96 -449.03,-223.66 -266.3,-337.1 183.1,-113.42 509.96,164.29 541.82,116.44 5.96,-9.09 4.28,-28.07 -2.81,-52.69 41.91,87.48 201.72,417.21 261.74,589.77z"/>
      </g>
     </g>
     <g>
      <g>
       <path class="fil5" d="M20725.22 9437.81l759.56 304.43c0,0 239.84,-334.12 346.48,-537.75 141.1,-269.46 74.12,-385.03 -273.54,-250.22 -232.62,90.2 -832.5,483.54 -832.5,483.54z"/>
      </g>
      <path class="fil6" d="M21392.06 9705.36c8.75,1.79 87.79,30.47 92.86,34.16 27.22,-40 53.92,-80.36 81.59,-120.07 13.82,-19.83 28.03,-39.5 42.47,-58.88 15.93,-21.38 32.91,-46.53 47.02,-65.41 2.2,-2.97 6.17,-0.49 4.26,2.7 -15.86,26.4 -28.55,45.57 -42.42,68.34 -12.37,20.31 -25.31,40.47 -38.58,60.2 -28.14,41.81 -56.3,87.59 -86.44,127.95 -2.33,3.11 -94.51,-41.53 -101.99,-46.32 -1.29,-0.83 -0.16,-2.95 1.23,-2.67z"/>
      <path class="fil6" d="M20831.18 9396.68c113.6,36.66 226.39,74.87 337.67,118.15 55.51,21.58 110.66,43.97 165.49,67.23 54.74,23.24 107.28,52.18 162.27,74.57 3.02,1.23 0.85,6.02 -2.13,4.62 -53.66,-25.24 -111.36,-43.4 -166.35,-65.68 -55.2,-22.35 -110.53,-44.44 -165.97,-66.19 -110.7,-43.45 -221.44,-87.17 -333.11,-128.08 -3.12,-1.14 -0.92,-5.6 2.13,-4.62z"/>
     </g>
    </g>
    <g>
     <path class="fil5" d="M20978.71 11248.08l2157.92 174.35c0,0 -552.29,-1882.62 -997.09,-2357.87 -202.4,-216.27 -400.24,-183.23 -567.89,-44.11 -41.83,34.77 -560.43,692.98 -604.36,922.38 -38.82,202.74 125.96,427.76 125.96,427.76l-114.54 877.49z"/>
     <g>
      <path class="fil6" d="M21298.29 9369.4c-64.98,103.81 -135.73,203.78 -201.09,306.83 -33.07,51.13 -64.98,103.03 -91.12,157.63 -26.54,54.21 -44.22,113.04 -44.61,174.56 -3.46,-30.38 -2.3,-61.52 3.47,-92.28 5.76,-30.38 15.37,-59.98 27.68,-88.43 23.83,-57.29 56.52,-109.57 88.43,-161.87 31.15,-46.9 63.06,-93.81 96.12,-139.18 5.39,-16.15 11.92,-31.92 18.08,-47.68 10.37,-22.69 20.37,-45.75 33.83,-66.9 -6.15,24.22 -15.76,47.29 -24.99,70.36 -3.08,6.54 -5.77,12.69 -8.46,19.23 33.07,-44.99 67.29,-89.21 102.66,-132.27z"/>
     </g>
     <g>
      <path class="fil6" d="M21672.24 10325.01c-83.57,3.63 -167.6,10.11 -249.82,26.08 -40.91,7.95 -81.17,17.74 -121.44,28.42 -20.07,5.32 -40.19,9.96 -60.45,14.5 -20.78,4.66 -43.04,8.84 -64.44,8.26 -1.93,-0.05 -2.05,2.82 -0.13,2.99 20.74,1.79 40.59,3.46 61.45,2.48 19.82,-0.92 39.66,-3.98 59.17,-7.58 41.57,-7.66 82.76,-17.26 124.24,-25.35 83.7,-16.32 167.36,-32.62 252.05,-42.87 3.9,-0.47 3.32,-7.11 -0.63,-6.93z"/>
      <path class="fil6" d="M21873.85 10410.98c-67.9,-10.99 -137.37,-18.91 -206.11,-22.13 -34.58,-1.62 -68.97,-1.23 -103.56,0.07 -16.51,0.62 -33.02,1.54 -49.49,2.66 -18.14,1.22 -36.14,4.89 -54.27,5.86 -1.89,0.1 -2.07,3.03 -0.13,2.98 17.14,-0.4 34.42,2.05 51.55,2.65 17.22,0.61 34.44,1.08 51.65,1.67 34.48,1.19 68.92,2.76 103.41,3.63 69.05,1.74 137.76,4.16 206.71,8.28 3.73,0.23 3.75,-5.1 0.24,-5.67z"/>
     </g>
    </g>
    <g>
     <g>
      <path class="fil8" d="M21856.79 8965.75c2.24,38.99 -101.92,327.1 -270.91,368.5 -55.06,13.39 -141.56,-283.88 -141.56,-283.88l-11.41 -20.48 -159.39 -286.87 292.44 -338.05 43.09 -46.04c0,0 38.43,81.36 85.27,183.15 2.2,4.71 4.4,9.42 6.68,14.49 2.8,5.69 5.51,11.03 7.88,16.46 7.19,15.11 14.47,30.58 21.4,46.14 5.32,11.81 10.56,23.29 15.69,35.9 5.48,12.52 10.53,24.77 16.02,37.3 51.33,124.61 93.62,256.88 94.8,273.38z"/>
      <path class="fil6" d="M21694.32 8542.08c-15.8,270.44 -181.65,427.77 -261.41,487.81l-159.39 -286.87 292.44 -338.05 43.09 -46.04c0,0 38.43,81.36 85.27,183.15z"/>
     </g>
     <g>
      <path class="fil8" d="M20734.42 8309.61c18.61,575.65 365.5,629.51 489.63,625.36 112.68,-3.77 495.88,-30.92 536.84,-605.41 40.97,-574.51 -232.57,-747.83 -490.73,-752.85 -258.18,-5.01 -554.36,157.23 -535.74,732.9z"/>
      <g>
       <path class="fil6" d="M20812.41 8207.61c13.41,-2.3 25.4,-6.66 38.42,-10.32 14.7,-4.11 26.82,-5.88 37.18,-17.98 5.55,-6.5 4.4,-19 -1.39,-24.98 -13.51,-13.94 -32.77,-13.37 -50.67,-9.13 -19.42,4.6 -33.2,13.1 -45.34,28.9 -11.76,15.32 4.11,36.54 21.8,33.51z"/>
       <path class="fil6" d="M21206.71 8184.9c-13.58,-0.84 -25.97,-3.88 -39.31,-6.09 -15.07,-2.5 -27.31,-2.94 -38.91,-13.85 -6.22,-5.84 -6.44,-18.41 -1.32,-24.97 11.91,-15.33 31.11,-16.85 49.35,-14.59 19.81,2.47 34.45,9.43 48.23,23.81 13.34,13.95 -0.13,36.78 -18.04,35.69z"/>
       <g>
        <g>
         <path class="fil6" d="M21123.26 8331.01c0.26,-1.5 3.12,1.76 3.12,3.37 -0.02,39.23 6.54,84.18 42.41,96.09 1.11,0.37 1.06,2.34 -0.26,2.2 -43.46,-4.75 -51.59,-64.5 -45.27,-101.66z"/>
         <path class="fil6" d="M21156.99 8288.99c62.89,-6.75 71.76,119.54 13.48,125.79 -57.34,6.14 -66.2,-120.14 -13.48,-125.79z"/>
        </g>
        <path class="fil6" d="M21182.25 8293.92c11.54,6.37 23.22,18.23 36.61,18.61 15.5,0.44 26.19,-13.6 35.35,-27.01 0.95,-1.4 2.12,-0.37 2.26,1.29 2.06,24.18 -5.5,49.65 -31.19,55.08 -23.43,4.95 -41.93,-15.28 -49.67,-39.18 -1.45,-4.42 2,-11.36 6.64,-8.79z"/>
       </g>
       <g>
        <g>
         <path class="fil6" d="M20905.23 8338.02c-0.43,-1.46 -2.92,2.09 -2.74,3.69 4.28,39 2.63,84.39 -31.72,100.13 -1.07,0.48 -0.81,2.44 0.49,2.15 42.69,-9.43 44.28,-69.7 33.97,-105.97z"/>
         <path class="fil6" d="M20867.13 8299.92c-63.26,0.12 -58.35,126.62 0.24,126.51 57.68,-0.12 52.79,-126.62 -0.24,-126.51z"/>
        </g>
        <path class="fil6" d="M20841.07 8309.26c-9.74,7.09 -19.14,19.66 -31.06,20.91 -13.8,1.44 -24.56,-11.85 -33.92,-24.62 -0.97,-1.33 -1.92,-0.23 -1.91,1.45 0.28,24.21 9.25,49.08 32.65,52.82 21.35,3.41 36.12,-17.94 40.94,-42.25 0.91,-4.5 -2.78,-11.17 -6.7,-8.31z"/>
       </g>
       <path class="fil6" d="M21150.28 8651.81c-8.26,10.21 -16.11,23.85 -30.12,26.67 -13.42,2.72 -30.01,-1.57 -43.01,-4.94 -1.28,-0.33 -2.38,1.11 -1.46,2.19 11.85,13.78 34.22,20.67 51.91,15.42 17.27,-5.13 24.23,-21.38 26.63,-38 0.35,-2.34 -2.73,-2.82 -3.95,-1.34z"/>
       <g>
        <path class="fil6" d="M20995.08 8596.8c0,0 26.87,36.56 63.82,49.87 13.61,4.95 28.29,6.93 43.69,2.89 31.64,-8.19 32.54,-37.19 26.83,-62.03 -4.62,-20.43 -14.01,-38.05 -14.01,-38.05 0,0 -46.32,43.02 -120.33,47.32z"/>
        <path class="fil10" d="M21058.9 8646.67c13.61,4.95 28.29,6.93 43.69,2.89 31.64,-8.19 32.54,-37.19 26.83,-62.03 -33.89,3.34 -67.52,26.21 -70.52,59.14z"/>
       </g>
       <g>
        <path class="fil6" d="M20978.34 8519.85c0,0 -4.66,58.94 -3.05,86.53 0.16,2.58 6.9,3.42 16.29,3.42 0.46,0.11 0.72,0.28 1.08,-0.03 49.15,4.75 97.21,-14.92 124.48,-56.41 1.76,-2.8 -1.91,-5.44 -4.32,-3.58 -34.8,28.83 -74.58,38.06 -117.73,41.3 -2.39,-7.53 11.37,-100.68 6.98,-100.76 -15.15,-0.41 -44.26,11.58 -61.8,17.84 6.16,-123.06 32,-244.14 36.29,-366.76 0.08,-4.39 -6.26,-5.32 -7.3,-1.37 -36.07,124.98 -46.26,266.45 -55.89,393.37 -1.36,15.82 54.21,-8.21 64.97,-13.55z"/>
       </g>
      </g>
      <path class="fil6" d="M21719.62 8375.47c-62.61,-3.96 -225.01,-176.87 -228.86,-479.31 0,0 22.23,271.35 42.49,311.21 20.27,39.85 -90.79,-97.3 -97.31,-341.18 0,0 -135.44,96.98 -250.73,128.83 -115.28,31.84 -185.75,30.49 -193.95,22.13 -8.2,-8.37 161.48,-61.12 207.51,-113.79 0,0 -306.9,141.27 -448.16,151.51 -16.35,1.18 -34.56,-334.82 184.28,-476.56 218.84,-141.75 564.11,13.52 656.76,103.69 0,0 109.16,15.95 227.21,177.9 118.07,161.93 -31.81,519.83 -99.24,515.57z"/>
      <g>
       <g>
        <path class="fil8" d="M21768.82 8541.75c-9.06,4.7 -17.5,7.9 -25.67,9.99 -9.56,2.93 -18.54,4 -26.88,3.93 -13.03,0.31 -24.48,-2.42 -34.25,-6.72 -8.98,-3.64 -17,-8.81 -23.58,-14.09 -17.04,-13.89 -25.53,-29.53 -25.53,-29.53l13.4 -156.56c0,0 103.66,-193.41 189.79,-158.51 86.48,34.87 23.65,304.81 -67.28,351.49z"/>
        <path class="fil6" d="M21816.28 8267.07c1.51,-0.32 2.06,1.79 0.8,2.48 -63.44,34.98 -91.17,100.99 -108.09,168.03 16.89,-27.03 42.27,-43.78 78.14,-24.12 1.88,1.02 0.54,3.94 -1.38,3.77 -28.02,-2.59 -47.15,4.51 -62.99,28.59 -11.21,17.05 -17.8,37.7 -25.03,56.7 -2.4,6.33 -13.55,4.42 -12.1,-2.71 0.11,-0.53 0.25,-1.08 0.36,-1.61 -11.83,-84.82 40.03,-211.67 130.29,-231.13z"/>
       </g>
       <path class="fil4" d="M21757.99 8518.62c-1.18,14.69 -14.04,25.64 -28.73,24.46 -14.68,-1.18 -25.63,-14.04 -24.45,-28.73 1.18,-14.69 14.04,-25.63 28.73,-24.46 14.69,1.19 25.63,14.05 24.45,28.73z"/>
       <path class="fil4" d="M21807.66 8472.13c-0.83,10.39 -9.93,18.12 -20.31,17.29 -10.38,-0.83 -18.13,-9.93 -17.29,-20.31 0.83,-10.38 9.93,-18.13 20.31,-17.3 10.39,0.84 18.13,9.93 17.29,20.32z"/>
      </g>
     </g>
    </g>
    <g>
     <polygon class="fil6" points="17720.42,11905.51 20171.27,11905.51 19575.98,10270.02 17125.12,10270.02 "/>
     <polygon class="fil9" points="17633.56,11905.51 20084.42,11905.51 19489.13,10270.02 17038.27,10270.02 "/>
     <polygon class="fil6" points="17038.14,10270.13 17633.61,11905.61 18624.91,11905.61 17267.66,10270.13 "/>
     <g>
      <polygon class="fil7" points="17196.89,11905.51 17495.19,11905.51 17762.9,11441.83 17464.59,11441.83 "/>
      <polygon class="fil9" points="17762.9,11441.83 17762.9,11905.61 17495.19,11905.61 "/>
     </g>
     <g>
      <polygon class="fil7" points="18870.02,11905.51 19168.31,11905.51 19436.02,11441.83 19137.72,11441.83 "/>
      <polygon class="fil6" points="19436.02,11441.83 19436.02,11905.61 19168.31,11905.61 "/>
     </g>
    </g>
    <g>
     <g>
      <path class="fil8" d="M22238.53 9167.75c392.37,607.93 908.67,1624.95 627.57,1819.92 -462.15,320.54 -1744.76,423.23 -2038.11,434.74 -126.6,4.97 -311.5,-834.7 -219.25,-933.91 92.23,-99.22 1436.92,-66.04 1452.95,-147.43 9.09,-46.12 -67.44,-454.57 -158.07,-962.4 -104.51,-585.56 222.65,-384.86 334.91,-210.92z"/>
      <g>
       <path class="fil8" d="M20833.53 10438.66c0,0 -383.91,-33.95 -636.01,-44.34 -140.65,-5.8 -382.67,5.77 -487.94,48.78 -157.47,64.32 -774.96,433.9 -688.58,585.55 78.2,137.28 568.39,-247.62 568.39,-247.62 0,0 -528.97,344.65 -404.43,492.63 124.55,147.97 620.55,-360.54 620.55,-360.54 0,0 -535.55,366.31 -382.97,498.58 115.3,99.96 590.5,-335.28 590.5,-335.28 0,0 -458.14,318.03 -344,425.93 126.14,119.25 589.98,-254.99 589.98,-254.99 336.32,225.45 588.69,195.23 765.65,152.36 42.85,-10.38 -191.14,-961.06 -191.14,-961.06z"/>
       <g>
        <path class="fil6" d="M19764.69 10650.12c-63.59,38.23 -128.23,76.51 -188.22,120.27 -59.98,43.75 -118.49,89.64 -174.13,138.78 -136.47,120.53 -203.07,217.37 -198.3,211.83 112.7,-130.84 325,-290.81 385.01,-334.58 59.87,-43.67 117.54,-90.35 177.39,-134.08 1.51,-1.1 -0.23,-3.14 -1.75,-2.22z"/>
        <path class="fil6" d="M19926.64 10863.84c-79.1,52.34 -159.54,101.39 -236.36,157.25 -76.43,55.57 -144.09,114.99 -216.5,175.67 -5.57,4.68 -1.23,6.14 4.56,1.67 74.78,-57.75 148.35,-105.37 223.8,-162.24 75.18,-56.66 148.72,-116.69 225.89,-170.57 1.2,-0.84 -0.19,-2.58 -1.39,-1.78z"/>
        <path class="fil6" d="M20098.6 11022.28c-124.97,73.79 -236.2,170.56 -343,268.09 -5.32,4.86 0.5,6.12 6.23,1.47 112.34,-91.26 199.82,-163.67 339.36,-265.21 2.18,-1.59 0.05,-5.9 -2.59,-4.35z"/>
       </g>
      </g>
      <path class="fil6" d="M20906.71 10425.93c-89.27,-7.59 -186.24,-3.18 -278.07,-6.61 -80.12,-2.99 -155.12,-13.89 -233.12,-18.99 -159.92,-10.45 -395.81,-25.39 -554.83,-0.07 -115.11,18.33 -257.85,112.26 -338.94,150.47 -3.59,1.69 -0.75,6.6 2.77,5.34 152.05,-54.58 243.89,-119.91 381.63,-139.68 158.37,-22.73 571.61,8.38 730.85,17.5 93.22,5.34 195.97,-4.19 289.29,-0.77 4.64,0.17 5.05,-6.81 0.42,-7.19z"/>
     </g>
     <g>
      <g>
       <path class="fil5" d="M22740.12 9939.33l-815.31 -69.96c0,0 -63.81,-406.31 -67.39,-636.14 -4.74,-304.13 107.08,-377.19 356.88,-100.35 167.13,185.24 525.82,806.45 525.82,806.45z"/>
      </g>
      <path class="fil6" d="M22024.21 9878.15c-8.62,-2.34 -92.11,-12.29 -98.3,-11.27 -6.31,-47.98 -11.98,-96.04 -18.83,-143.94 -3.41,-23.92 -7.25,-47.88 -11.42,-71.69 -4.6,-26.27 -8.45,-56.36 -12.54,-79.58 -0.64,-3.64 -5.3,-3.21 -5.02,0.5 2.28,30.71 4.98,53.54 7.12,80.11 1.9,23.72 4.38,47.53 7.36,71.13 6.31,49.99 10.85,103.55 19.61,153.16 0.67,3.82 103.08,5.44 111.91,4.53 1.54,-0.16 1.48,-2.58 0.11,-2.95z"/>
      <path class="fil6" d="M22664 9854.92c-117.95,-18.38 -235.86,-35.02 -354.71,-46.46 -59.29,-5.71 -118.61,-10.53 -178.04,-14.43 -59.35,-3.88 -119.28,-1.69 -178.47,-6.44 -3.25,-0.26 -3.47,5 -0.18,5.09 59.28,1.6 118.98,11.35 178.11,16.21 59.36,4.88 118.71,10.05 178,15.57 118.42,11.03 236.98,21.82 355.11,35.55 3.3,0.39 3.35,-4.59 0.18,-5.09z"/>
     </g>
    </g>
   </g>
  </g>
  <g id="_2008311158672">
   <g>
    <g>
     <g>
      <g>
       <polygon class="fil2" points="9037.07,13202.62 9130.57,13763.29 9763.92,17183.62 9866.01,17183.62 9405.46,13763.29 9337.39,13202.62 "/>
      </g>
     </g>
     <polygon class="fil1" points="9337.39,13202.62 9037.07,13202.62 9130.57,13763.29 9405.46,13763.29 "/>
    </g>
    <g>
     <g>
      <g>
       <polygon class="fil2" points="7048.15,17183.62 7150.24,17183.62 7783.59,13763.29 7877.1,13202.62 7576.76,13202.62 7508.71,13763.29 "/>
      </g>
     </g>
     <polygon class="fil1" points="7576.76,13202.62 7508.71,13763.29 7783.59,13763.29 7877.1,13202.62 "/>
    </g>
    <g>
     <g>
      <g>
       <polygon class="fil2" points="5148.45,17183.62 5250.53,17183.62 5883.88,13763.29 5977.38,13202.62 5677.06,13202.62 5608.99,13763.29 "/>
      </g>
     </g>
     <polygon class="fil1" points="5608.99,13763.29 5883.88,13763.29 5977.38,13202.62 5677.06,13202.62 "/>
    </g>
    <polygon class="fil2" points="5310.36,13466.07 9951.32,13466.07 9951.32,12977.04 8213.97,12977.04 7630.08,9579.9 5487.29,9579.9 "/>
    <polygon class="fil1" points="5310.36,13466.07 5563.35,13466.07 5728.23,9579.9 5487.29,9579.9 "/>
   </g>
   <g>
    <g>
     <g>
      <g>
       <g>
        <path class="fil3" d="M9975.53 17961.27c-92.96,10.31 -2638.95,-536.73 -2720.28,-615.86 -9.93,-8.76 35.77,-235.23 103.41,-544.16l1.31 -6.07c42.17,-195.85 752.02,-1786.22 752.02,-1786.22l1651.37 419.94 -719.93 1476.66c0,0 313.24,213.2 582.17,416.14 0.28,0.42 0.66,0.5 0.58,0.86 166.08,124.61 309.32,236.66 339.95,273.22 79.34,95.49 102.19,355.9 9.4,365.49z"/>
        <path class="fil11" d="M9975.4 17961.14c-92.71,10.38 -2638.66,-536.71 -2720.31,-615.66 -9.87,-8.96 36.02,-235.15 103.53,-544.28l1.39 -5.87c15.47,-72.95 124.41,-340.07 254.29,-646.25 271.71,66.5 1245.77,305.98 1599.81,406.48l-170.5 350.01c0,0 313.18,213.37 582.14,416.17 0.01,0.37 0.39,0.36 0.39,0.73 166.05,124.6 309.51,236.8 340.02,273.17 79.34,95.79 102.35,356.21 9.24,365.5z"/>
        <g>
         <path class="fil1" d="M9984.04 17972.93c-95.62,9.81 -2643.48,-544.03 -2727.03,-625.27 -31.85,-30.64 17.15,-423.58 148.49,-841.31l1642.19 358.98c0,0 846.87,632.68 928.73,731.42 81.31,98.61 103.23,366.37 7.62,376.18z"/>
         <path class="fil12" d="M7257.08 17347.75c55.76,54.27 1214.52,319.85 2004.02,487 390.65,82.84 691.35,141.64 722.75,138.29 95.88,-10.08 73.85,-277.83 -7.24,-376.47 -30.92,-37.08 -169.9,-149.93 -331.61,-276.37 -267.87,-209.05 -597.31,-455.05 -597.31,-455.05l-1642.39 -358.81c-130.99,417.7 -180.25,810.76 -148.22,841.41z"/>
         <path class="fil13" d="M9261.1 17834.75c390.65,82.84 691.35,141.64 722.75,138.29 95.88,-10.08 73.85,-277.83 -7.24,-376.47 -30.92,-37.08 -169.9,-149.93 -331.61,-276.37l-383.9 514.55z"/>
         <g>
          <g>
           <path class="fil6" d="M9970.13 17865.2c-424.76,-103.11 -2147.96,-479.73 -2575.86,-550.04 -3.48,-0.58 -4,1.72 -0.58,2.62 418.73,111.21 2144.98,474.14 2574.91,554.28 9.06,1.68 10.51,-4.69 1.53,-6.86z"/>
           <path class="fil6" d="M9832.89 17471.39c-100.38,-26.07 -210.05,-0.49 -278.67,46.56 -65.92,45.22 -129.42,115.15 -146.07,202.53 -0.48,2.49 4.2,3.59 5.16,1.1 61.51,-158.33 246.12,-269.02 418.4,-244.96 3.48,0.5 4.62,-4.34 1.18,-5.23z"/>
           <path class="fil6" d="M9172.17 16936.38c-170.43,-39.48 -382.02,-23.49 -519.28,90.3 -5.32,4.42 1.15,11.75 6.81,10.3 172.24,-44.41 332.31,-70.6 510.74,-79.35 12.59,-0.62 13.93,-18.42 1.73,-21.25z"/>
           <path class="fil6" d="M9292.71 17015.43c-170.42,-39.48 -382.01,-23.48 -519.28,90.3 -5.32,4.42 1.16,11.75 6.82,10.29 172.21,-44.39 332.31,-70.59 510.74,-79.34 12.58,-0.62 13.92,-18.42 1.72,-21.25z"/>
           <path class="fil6" d="M9413.26 17094.49c-170.42,-39.47 -382.02,-23.48 -519.28,90.31 -5.32,4.4 1.16,11.75 6.82,10.28 172.21,-44.4 332.3,-70.58 510.74,-79.35 12.57,-0.62 13.92,-18.41 1.72,-21.24z"/>
           <path class="fil6" d="M9533.8 17173.55c-170.41,-39.48 -382.01,-23.48 -519.27,90.3 -5.32,4.41 1.15,11.75 6.81,10.29 172.22,-44.41 332.31,-70.59 510.74,-79.35 12.58,-0.62 13.93,-18.41 1.72,-21.24z"/>
          </g>
         </g>
        </g>
       </g>
       <g>
        <path class="fil9" d="M9094.28 16942.52l-1753.14 -426.94c0,0 1567.74,-3370.47 1440.85,-3539.61 -63.46,-84.59 -1700.07,-128.33 -2215.4,-566.84 -669.41,-569.63 -205.26,-1422.63 -205.26,-1422.63l1828.72 -31.84c0,0 -26.61,374.14 44.02,431.4 46.56,38.17 2222.61,243.06 2453.07,965.55 282.58,885.92 -1592.86,4590.91 -1592.86,4590.91z"/>
        <g>
         <g>
          <path class="fil6" d="M9171.17 16579.5c-45.81,-21.96 -96.07,-35.13 -144.17,-50.47 -50.98,-16.27 -101.98,-32.71 -153.21,-48.15 -100.85,-30.4 -202.07,-59.43 -303.94,-86.27 -205.13,-54.03 -410.6,-107 -617.16,-155.7 -107.66,-25.38 -338.36,-80.82 -352.6,-78.5 -6.85,1.13 -8.22,12.37 -2.07,14.44 199.84,67.25 402.63,124.48 605.4,182.28 202.45,57.72 405.26,114.75 610.37,162.75 56.8,13.3 113.95,25.02 170.9,37.63 59.62,13.21 120,31.07 181.42,35.72 5.9,0.44 11.52,-10.63 5.06,-13.73z"/>
         </g>
         <path class="fil6" d="M9096.48 12831.23c-36.38,-31.2 -91.5,-35.6 -137.45,-43.67 -263.37,-46.32 -526.65,-93.05 -790.02,-139.36 -246.47,-43.34 -494.25,-82.48 -739.46,-131.8 -203.07,-40.86 -409.39,-95.17 -584.12,-205.37 -174.95,-110.32 -294.75,-274.46 -353.89,-465.12 -59.12,-190.61 -61.01,-394.84 -39.31,-591.22 5.32,-48.06 14.91,-95.97 24.68,-143.37 0.74,-3.61 -5.14,-4.89 -5.84,-1.28 -71.4,366.25 -82.59,792.23 194.64,1088.05 135.15,144.2 322.16,230.18 513.35,286.69 215.74,63.77 441.59,95.41 663.28,134.38 263.38,46.32 526.74,92.68 790.17,138.74 126.72,22.15 255.47,39.85 381.08,67.14 24.1,5.24 51.31,12.48 68.44,30.6 23.6,24.97 16.66,59.98 10.04,89.8 -13.46,60.8 -30.94,120.84 -49.53,180.38 -149.94,480.15 -1221.47,2760.87 -1250.68,2813.46 -3.06,5.53 5.82,9.96 9.02,4.53 247.25,-419.9 1044.75,-2180.15 1210.16,-2634.13 42.26,-115.96 81.38,-233.36 108.12,-353.54 9.64,-43.33 15.54,-92.14 -22.68,-124.91z"/>
        </g>
       </g>
      </g>
      <g>
       <g>
        <path class="fil3" d="M12589.19 18100.33c-89.01,28.22 -2695.27,-11.57 -2791.06,-73.24 -11.51,-6.66 -12.79,-237.51 -9.31,-553.43l0.05 -6.2c1.49,-200.15 -40.4,-1910.97 -40.4,-1910.97l1631.38 5.79 81.22 1685.17c0,0 350.31,147.87 655.13,294.32 0.37,0.38 0.74,0.36 0.74,0.74 188.1,89.73 351.26,171.62 388.71,201.48 97.17,78.12 172.53,328.85 83.54,356.34z"/>
        <path class="fil11" d="M12589.27 18100.24c-89.03,28.17 -2695.33,-11.45 -2791.23,-73.29 -11.52,-6.42 -12.71,-237.46 -9.32,-553.14l0.08 -6.23c0.09,-13.89 0.16,-28.15 -0.15,-42.4 0.27,-10.25 0.16,-20.49 -0.32,-30.7 0.04,-15 -0.31,-30.34 -0.66,-45.67 -1.8,-133.01 -6.02,-348.91 -11.22,-585.6l1661.88 8.86 22.83 475.39c0,0 350.19,147.95 655.1,294.3 0.39,0.35 0.77,0.34 0.78,0.7 187.97,89.84 351.3,171.67 388.56,201.42 97.05,78.24 172.75,328.93 83.67,356.36z"/>
        <g>
         <path class="fil12" d="M12599.9 18110.09c-91.7,28.26 -2701.19,-17.83 -2799.59,-81.15 -37.44,-23.82 -69.33,-418.44 -25.56,-853.42l1682.32 31.67c0,0 958.57,454.94 1058.87,535.74 99.73,80.8 175.67,338.92 83.96,367.16z"/>
         <g>
          <g>
           <path class="fil6" d="M12564.35 18007.23c-437.23,-18.24 -2202.51,-51.39 -2636.14,-36.9 -3.52,0.1 -3.56,2.47 -0.03,2.69 432.96,27.34 2198.46,46.51 2636.07,41.22 9.24,-0.1 9.34,-6.63 0.1,-7.01z"/>
           <path class="fil6" d="M12349.78 17648.06c-103.66,-5.98 -205.94,40.48 -263.62,99.96 -55.41,57.16 -103.41,138.07 -101.96,226.94 0.04,2.54 4.84,2.7 5.28,0.07 28.07,-167.15 186.49,-311.61 360.21,-321.6 3.51,-0.21 3.64,-5.17 0.09,-5.37z"/>
           <path class="fil6" d="M11593.49 17252.56c-175.03,-5.47 -379.15,51.44 -490.52,189.73 -4.32,5.35 3.52,11.28 8.77,8.75 159.76,-77.09 311.29,-133.96 484.38,-177.33 12.2,-3.05 9.91,-20.75 -2.63,-21.15z"/>
           <path class="fil6" d="M11727.7 17306.54c-175.05,-5.48 -379.13,51.45 -490.52,189.72 -4.32,5.36 3.53,11.28 8.77,8.74 159.74,-77.07 311.31,-133.95 484.38,-177.31 12.2,-3.06 9.9,-20.76 -2.63,-21.15z"/>
           <path class="fil6" d="M11861.92 17360.52c-175.05,-5.48 -379.16,51.45 -490.53,189.72 -4.33,5.35 3.53,11.27 8.77,8.75 159.74,-77.09 311.29,-133.96 484.38,-177.33 12.19,-3.05 9.91,-20.77 -2.62,-21.14z"/>
           <path class="fil6" d="M11996.13 17414.49c-175.05,-5.48 -379.14,51.45 -490.53,189.73 -4.32,5.35 3.53,11.28 8.77,8.75 159.74,-77.09 311.29,-133.97 484.38,-177.33 12.2,-3.06 9.9,-20.76 -2.62,-21.15z"/>
          </g>
         </g>
        </g>
       </g>
       <g>
        <path class="fil9" d="M11540.35 17206.19l-1794.53 -1.7c0,0 -109.42,-3599.52 -248.99,-3783.52 -136.92,-180.48 -2742.41,43.65 -3309.78,-748.06 -509.57,-711.05 -60.04,-1703.68 -60.04,-1703.68l2037.69 -35.48c0,0 -67.4,315.94 -196.45,625.88 0,0 2440.82,163.85 2942.67,810.75 416.17,536.46 629.43,4835.81 629.43,4835.81z"/>
        <g>
         <path class="fil6" d="M8328.15 11427.13c-58.96,9.49 -117.35,32.08 -173.27,52.19 -58.76,21.13 -116.63,45.27 -173.22,71.47 -112.01,51.86 -218.92,111.44 -324.44,174.73 -3.25,1.96 -0.13,6.43 3.16,4.81 110.83,-54.77 225.31,-103.86 339.9,-150.66 55.12,-22.51 110.29,-44.95 165.39,-67.49 55.47,-22.68 114.55,-41.84 167.31,-70.08 6.96,-3.72 3.31,-16.29 -4.83,-14.97z"/>
         <path class="fil6" d="M8212.06 10933.44c-24.43,90.76 -46.01,182.26 -73.69,272.17 -12.71,41.24 -25.24,83.22 -41.72,123.19 -13.91,33.73 -34.8,72.19 -74.94,79.31 -46.28,8.19 -59,-30.68 -54.8,-67.98 4.7,-41.61 16.1,-83.25 24.99,-124.14 10.27,-47.16 20.63,-94.28 29.97,-141.63 4.68,-23.68 9.54,-47.31 13.94,-71.06 1.11,-5.95 6.19,-51.34 9.66,-64.33 0.36,1.11 1.07,2.17 2.54,1.99 0.53,-0.06 1.07,-0.13 1.61,-0.21 1.25,-0.15 2.65,-0.95 2.86,-2.32 0.51,-3.56 0.47,-4.3 -2.24,-6.84 -1.19,-1.11 -2.88,-1.07 -4.24,-0.36 -8.88,4.63 -9.66,16.48 -12.61,25.18 -7.78,22.95 -15.72,45.85 -22.88,69.01 -13.37,43.3 -26.44,86.74 -38.28,130.47 -11.81,43.71 -23.31,87.5 -34.88,131.25 -8.66,32.73 -18.85,67.21 -10.21,101.04 9.44,36.96 39.28,55.88 72.31,59.07 -1.64,2.96 -3.58,5.76 -5,8.82 -4.16,8.9 -7.26,18.44 -10.83,27.59 -3.64,9.38 -6.97,18.73 -9.86,28.37 -1.37,4.56 -2.26,9.3 -2.84,14.02 -0.66,5.27 0.37,10.44 -0.39,15.71 -1.16,8.13 10.07,13.26 14.36,5.25 2.49,-4.66 6.07,-8.19 8.84,-12.64 2.9,-4.65 5,-10.06 6.85,-15.16 3.28,-9.07 6.04,-18.13 8.54,-27.42 2.45,-9.18 5.45,-18.38 7.33,-27.7 1.09,-5.53 1.37,-11.16 1.92,-16.76 18.91,-1.65 37.85,-7.79 53.87,-19.36 27.98,-20.21 44.58,-51.36 56.55,-82.51 14.5,-37.74 25.85,-76.86 37.19,-115.58 28.11,-95.84 52.23,-193.31 62.83,-292.65 1.12,-10.52 -13.86,-14.56 -16.75,-3.79z"/>
         <path class="fil6" d="M6997.93 11142.12c-8.97,45.07 -14.86,90.66 -26.04,135.32 -10.95,43.69 -23.61,87.38 -38.88,129.84 -14.59,40.6 -32.45,81.52 -58.13,116.69 -24.9,34.1 -57.62,63.39 -91.33,88.95 -66.14,50.15 -140.76,89.77 -219.83,116.52 -39.83,13.47 -80.52,24.84 -121.76,33.38 -21.48,4.46 -43.18,7.86 -65,10.35 -18.15,2.07 -36.09,2.51 -52.38,11.25 -6.96,3.73 -5.93,14.41 0.77,17.73 27.63,13.68 66.84,6.77 96.55,4.12 34.84,-3.09 69.41,-8.44 103.4,-16.54 68.48,-16.32 135.04,-43.68 196,-78.23 59.82,-33.91 120.14,-76.4 164.62,-128.69 46.12,-54.2 72.32,-118.19 89.43,-186.09 20.52,-81.36 35.06,-169.84 31.49,-253.8 -0.2,-4.91 -7.92,-5.79 -8.91,-0.8z"/>
         <g>
          <path class="fil6" d="M11456.92 16829.65c-50.07,-5.01 -102.09,-4.98 -152.62,-6.34 -53.54,-1.44 -107.12,-2.97 -160.7,-3.98 -105.46,-1.96 -210.89,-3.18 -316.38,-3.22 -212.43,-0.06 -424.9,0.46 -637.3,3.27 -110.69,1.46 -348.19,4.07 -361.33,7.14 -6.32,1.46 -4.68,7.31 1.81,7.55 210.81,7.41 421.82,9.39 632.97,11.67 210.79,2.28 421.77,4.16 632.57,1.18 58.38,-0.82 116.67,-2.48 175.03,-3.67 61.08,-1.22 124.11,-0.23 184.68,-6.02 5.82,-0.55 8.31,-6.87 1.27,-7.58z"/>
         </g>
         <path class="fil6" d="M8710.56 13323.11c128.32,-0.12 256.68,2.65 385.02,9.56 64.14,3.92 128.22,9.4 192.22,17.22 63.95,9.12 127.97,16 191.08,42.79 7.83,4.26 15.78,7.82 23.34,15.17 7.61,5.88 12.71,17.58 15.81,25.1 6.21,16.36 9.92,32.28 13.91,48.24 6.95,31.87 12.24,63.77 17.14,95.63 9.71,63.77 17.21,127.61 24.42,191.47 14.15,127.73 25.95,255.59 36.81,383.5 19.27,256.02 36.56,512.1 49.55,768.41l17.41 384.57 10.77 384.82 -54.43 -767.77c-18.43,-255.86 -35.44,-511.8 -57.34,-767.26 -9.81,-127.81 -20.58,-255.56 -33.64,-382.95 -6.68,-63.65 -13.65,-127.32 -22.75,-190.47 -4.48,-31.57 -9.77,-62.95 -15.82,-93.9 -3.41,-15.25 -6.69,-30.67 -11.55,-44.46 -3.85,-12.78 -11.45,-19.63 -25.33,-26.67 -54.74,-25.04 -119.97,-34.77 -182.3,-44.91 -63.13,-9.37 -126.81,-16.09 -190.57,-21.95 -127.52,-12.42 -255.58,-20.71 -383.75,-26.14z"/>
         <path class="fil6" d="M8036.65 11564.83c126.49,4.82 252.9,12.69 379.2,22.22 126.16,10.92 252.21,23.57 378.03,38.58 251.59,30.21 501.91,72.39 749.69,127.4 247.99,56.2 488.78,137.89 726.87,224.04 118.69,44.51 236.83,91.77 349.44,151.18 55.68,30.82 109.7,65.16 158.6,105.92 49.11,40.54 92.08,87.54 132.44,136.21 -42.46,-46.88 -87.32,-91.8 -137.61,-129.73 -50.09,-38.18 -104.78,-69.66 -161.06,-97.69 -112.98,-55.59 -231.36,-100.02 -350.65,-141.31 -239.48,-80.58 -479.01,-162.45 -725.69,-215.35 -245.78,-57.29 -495.23,-99.07 -745.46,-134.61 -125.1,-18.14 -250.59,-33.65 -376.24,-48 -125.58,-15.05 -251.42,-28.48 -377.56,-38.86z"/>
         <path class="fil6" d="M6319.83 11076.52c-59.39,162.32 -97.96,331.98 -117.44,503.19 -19.07,171.08 -16.51,345.61 21.26,512.95 36.68,166.97 112.2,326.41 226.89,452.1 57.49,61.58 129.79,108.65 204.95,148.48 75.54,39.72 155.39,71.47 236.37,99.59 326.3,108.09 668.64,163.73 1010.15,210.1 342.19,45.4 686.34,76.04 1030.5,111.44 172.02,18.78 344.16,37.36 515.62,70.08 42.83,8.57 85.61,18.2 128.15,31.34 21.25,6.94 42.48,14.09 63.47,24.56 10.87,5.14 20.12,10.35 31.97,18.99 11.31,9.34 18.7,19.65 25.25,29.84 24.92,41.13 37.61,83.36 50.25,125.63 12.1,42.34 21.85,84.91 30.67,127.57 34.5,170.74 56.16,342.7 75.85,514.72 19.47,172.05 34.86,344.42 47.97,516.92 26.48,344.94 46.38,690.23 63.38,1035.6 15.7,345.45 26.81,691.03 39.77,1036.5 -20.47,-345.14 -39.08,-690.37 -62.29,-1035.26 -21.41,-344.98 -45.36,-689.8 -76.07,-1033.92 -33.09,-343.48 -62.17,-688.95 -129.36,-1026.07 -8.83,-41.93 -18.58,-83.62 -30.41,-124.36 -11.98,-40.28 -25.42,-81.53 -45.74,-114.37 -5.02,-7.96 -10.77,-15.23 -16.25,-19.57 -5.65,-3.9 -15.11,-9.83 -23.87,-13.66 -17.73,-8.84 -37.61,-15.51 -57.42,-21.88 -40.12,-12.22 -81.8,-21.49 -123.73,-29.7 -168.34,-31.61 -340.47,-49.08 -512.01,-67.81 -343.45,-36.7 -688.09,-68.74 -1031.22,-115.65 -342.38,-48.44 -686.73,-103.54 -1016.05,-218.3 -81.88,-29.55 -162.77,-62.81 -239.8,-104.48 -76.65,-41.83 -150.96,-91.23 -211.01,-157.02 -117.21,-131.77 -192.75,-296.07 -227.41,-466.81 -34.83,-171.17 -33.49,-347.3 -10.7,-518.87 23.2,-171.68 65.5,-340.79 128.31,-501.87z"/>
        </g>
       </g>
      </g>
     </g>
     <g>
      <g>
       <g>
        <path class="fil3" d="M7945.87 9118.62c97.65,759.35 353.23,1733.83 605.95,1950.22 203.84,174.62 1813.46,724.88 1876.98,738.01 157.4,31.42 591.04,-1056.73 424.48,-1098.43 -219.81,-55.05 -1671.44,-371.51 -1721.82,-433.51 -52.17,-64.81 -362.41,-576.59 -712.33,-1168.52 -241.44,-409.02 -533.85,-458.93 -473.26,12.23z"/>
       </g>
       <g>
        <path class="fil12" d="M10305.03 10495.15l-537.42 1158.6c0,0 -1181.16,-443.19 -1324.56,-661.29 -143.4,-218.1 -462.29,-1281.45 -504.43,-1841.08 -42.16,-559.61 231.16,-423.19 449.06,-124.91 217.89,298.26 749.1,1211.15 768.58,1226.18 19.49,15.03 1148.77,242.5 1148.77,242.5z"/>
        <path class="fil4" d="M8740.99 10661.92c-12.75,29.18 -24.15,59.72 -28.26,93.01 22.34,-25.54 37.39,-53.8 51.06,-82.99 12.77,-29.18 23.71,-59.71 28.28,-92.99 -22.35,25.52 -37.39,53.78 -51.08,82.97zm1408.33 -198.33l0 0c-14.59,20.07 -25.53,41.95 -36.01,63.83 -12.77,29.18 -23.72,59.73 -27.82,93.01 21.88,-25.54 37.38,-53.8 50.6,-82.98 10.04,-22.8 19.15,-46.95 24.17,-72.04 -3.65,-0.45 -7.29,-1.35 -10.94,-1.82zm-706.22 977.94l0 0c-10.03,23.25 -19.14,47.42 -24.62,73.41 3.2,1.37 5.94,2.72 9.13,4.09 15.49,-21.42 27.81,-44.22 38.29,-67.47 12.77,-29.18 24.17,-59.72 28.26,-93 -22.33,25.52 -37.37,53.79 -51.06,82.97zm-1104.22 -1671.38l0 0c-12.76,29.64 -23.71,59.72 -28.27,93 22.35,-25.07 37.39,-53.34 51.06,-82.52 12.77,-29.63 23.72,-59.72 28.28,-93 -22.35,25.08 -37.39,53.79 -51.07,82.52zm-368.83 -455.46l0 0c-4.56,-1.83 -9.58,-4.1 -14.14,-5.92 1.37,9.57 2.74,19.14 4.11,29.17 29.64,12.31 59.27,23.26 92.55,27.81 -25.07,-22.33 -53.34,-37.38 -82.52,-51.06zm272.18 1061.37l0 0c-13.68,-5.93 -27.81,-11.85 -42.4,-16.41l8.21 27.36c8.2,4.09 15.95,8.2 24.15,11.85 29.18,12.77 59.73,23.7 93.01,27.81 -25.52,-21.89 -53.8,-37.39 -82.97,-50.61zm1017.14 610.92l0 0c-29.63,-12.77 -59.72,-24.16 -93,-28.26 25.07,22.34 53.34,37.39 82.52,51.06 29.63,12.77 59.72,23.71 93.01,28.26 -25.09,-22.33 -53.8,-37.37 -82.53,-51.06zm-495.12 -864.87l0 0c-11.86,-29.63 -25.53,-58.81 -46.04,-85.71 2.27,33.75 11.38,64.74 22.33,94.84 11.85,29.63 25.54,58.81 46.05,85.71 -2.28,-33.75 -11.4,-64.74 -22.34,-94.84zm968.37 671.56l0 0c-11.87,-29.63 -25.09,-58.8 -45.6,-85.25 1.82,33.29 11.4,64.29 22.33,94.38 11.87,29.63 25.09,58.81 46.05,85.7 -2.27,-33.73 -11.85,-64.73 -22.78,-94.83zm-1219.57 -1432.47l0 0c-12.32,-30.1 -25.54,-59.27 -46.06,-85.72 2.28,33.74 11.4,64.29 22.34,94.38 11.85,30.08 25.54,59.27 46.05,85.71 -2.28,-33.28 -11.4,-64.29 -22.33,-94.37zm771.86 1014.41l0 0c-29.64,11.85 -59.27,25.52 -85.71,46.04 33.73,-2.28 64.28,-11.85 94.82,-22.79 29.63,-11.4 58.81,-25.07 85.25,-45.6 -33.27,1.83 -64.28,11.4 -94.36,22.35zm-1056.36 -1526.39l0 0c-10.03,3.19 -20.06,6.38 -30.09,10.03 -29.63,11.85 -58.81,25.52 -85.71,46.04 33.73,-2.28 64.28,-11.39 94.82,-22.34 13.22,-5.47 26.46,-10.93 39.21,-17.32 -5.92,-5.93 -12.3,-11.4 -18.23,-16.41z"/>
        <path class="fil6" d="M9606.59 11357.63c19.34,-38.62 40.15,-76.55 58.66,-115.58 38.5,-81.16 76.98,-162.3 115.33,-243.54 38.37,-81.3 76.34,-162.84 113.71,-244.58 37.4,-81.78 71.62,-165.34 110.24,-246.5 1.74,-3.67 -3.79,-6.59 -5.73,-2.95 -42.21,79.34 -87.89,156.85 -129.32,236.7 -42.15,81.22 -82.66,163.39 -121.68,246.1 -38.36,81.34 -75.39,163.17 -111.46,245.52 -18.11,41.29 -33.27,83.78 -50.12,125.57 -16.34,40.49 -33.89,80.56 -47.24,122.11 -0.9,2.82 3.43,4.18 4.81,1.75 23.15,-40.43 41.95,-83.01 62.8,-124.6z"/>
        <path class="fil6" d="M9254.02 11446.52c-337.76,-145.28 -731.78,-333.92 -810.88,-454.25 -143.42,-217.98 -462.56,-1281.1 -504.44,-1840.72 -20.02,-265.72 31.13,-374.73 113.61,-383.37l1201.71 2678.34z"/>
        <path class="fil6" d="M8233.96 8853.72c55.37,43.26 97.26,100.85 141.41,154.91 43.4,55.06 84.97,111.49 125.02,168.95 80.23,114.83 159.05,230.69 233.78,349.09 75.3,118.06 149.03,237.07 221.79,356.67 73.1,119.38 142.63,240.89 213.6,361.51l-10.08 -7.28c156.26,33.47 312.11,68.83 467.87,104.6 155.9,35.17 311.38,72.26 466.69,110.24 -157.3,-28.6 -314.39,-58.1 -471.09,-89.53 -156.83,-30.8 -313.55,-62.02 -469.89,-95.15l-6.55 -1.39 -3.54 -5.88 -215.78 -359.75c-71.54,-120.14 -144.05,-239.68 -218.11,-358.23 -74,-118.58 -147.32,-237.6 -224.69,-353.95 -38.74,-58.13 -77.29,-116.43 -117.9,-173.24 -20.16,-28.53 -40.9,-56.65 -62.52,-84.03 -21.79,-27.13 -42.84,-55.52 -70.01,-77.54z"/>
       </g>
      </g>
      <g>
       <path class="fil12" d="M8413.88 11477.86c-61.58,49.84 -2527.42,109.5 -2538.22,92.48 -28.96,-46.02 609.82,-2257.48 1651.85,-2955.79 183.62,-123.05 466.85,-43.45 590.54,48.71 61.8,46.04 216.02,382.57 244.54,673.55 28.21,290.59 90.06,2109.22 51.29,2141.05z"/>
       <path class="fil4" d="M7582.98 8953.62c-12.77,29.63 -23.72,59.73 -27.81,93.01 21.87,-25.08 37.38,-53.35 50.6,-82.52 12.77,-29.63 24.16,-59.73 28.27,-93.01 -22.35,25.07 -37.39,53.33 -51.06,82.52zm-256.69 1161.2l0 0c-12.76,29.64 -23.7,59.72 -28.26,93.47 22.34,-25.54 37.38,-53.8 51.06,-82.99 12.76,-29.63 23.71,-59.72 28.27,-93.01 -22.34,25.09 -37.38,53.8 -51.07,82.53zm1057.73 -419.44l0 0 0 0.45c-19.15,22.8 -32.83,48.33 -45.14,74.32 -12.76,29.64 -23.71,59.72 -28.27,93 22.35,-25.07 37.39,-53.34 51.06,-82.52 9.13,-20.97 17.33,-42.85 23.25,-65.2 0,-0.45 0,-0.45 0,-0.9 1.84,-8.66 3.66,-17.78 5.03,-26.9 -2.29,2.28 -4.56,5.02 -5.93,7.75zm-694.36 1528.69l0 0c-12.77,29.63 -24.17,59.71 -28.26,92.99 22.33,-25.07 37.37,-53.8 51.06,-82.51 12.77,-29.64 23.7,-59.72 27.81,-93.01 -21.89,25.08 -36.94,53.34 -50.61,82.53zm-1310.76 -609.11l0 0c-12.77,29.64 -23.7,59.72 -27.81,93.46 21.89,-25.53 37.39,-53.79 50.61,-82.97 12.77,-29.64 24.17,-59.72 28.26,-93.01 -22.33,25.08 -37.37,53.8 -51.06,82.52zm406.23 -1003.47l0 0c-12.77,29.63 -23.72,59.72 -27.81,93.01 21.88,-25.07 37.38,-53.8 50.61,-82.53 12.75,-29.63 24.15,-59.72 28.26,-93 -22.35,25.07 -37.39,53.34 -51.06,82.52zm1184.92 -296.8l0 0c-29.63,-12.76 -59.73,-24.16 -93.01,-28.27 25.07,22.35 53.8,37.39 82.52,51.06 29.63,12.77 59.73,23.72 93.01,28.27 -25.07,-22.33 -53.34,-37.38 -82.52,-51.06zm272.18 1061.37l0 0c-29.18,-12.77 -59.73,-24.17 -93.01,-28.26 25.53,22.33 53.8,37.38 82.97,51.06 29.18,12.77 59.73,23.7 93.01,27.81 -25.52,-21.89 -53.8,-37.39 -82.97,-50.61zm-127.2 1107.42l0 0c10.03,9.11 20.97,16.86 31.91,23.7 15.05,-0.9 29.64,-1.82 43.31,-2.74 -23.71,-9.56 -48.78,-17.77 -75.22,-20.96zm-1130.67 -874.45l0 0c-29.18,-12.77 -59.72,-24.16 -93.01,-28.26 25.53,22.33 53.8,37.37 82.98,51.06 29.18,12.77 59.72,23.7 93.01,27.81 -25.54,-21.89 -53.8,-36.93 -82.98,-50.61zm28.26 761.38l0 0c-29.63,-12.77 -59.72,-24.17 -93,-28.26 25.08,22.33 53.34,37.37 82.52,51.06 29.63,12.75 59.72,23.7 93.01,27.81 -25.08,-21.89 -53.35,-37.39 -82.53,-50.61zm319.6 -1893.42l0 0c-11.85,-30.08 -25.52,-59.26 -46.05,-85.71 2.28,33.28 11.86,64.29 22.8,94.37 11.4,30.1 25.07,59.28 45.6,85.72 -1.83,-33.29 -11.4,-64.28 -22.35,-94.38zm432.67 1095.57l0 0c-11.86,-30.1 -25.54,-59.26 -46.05,-85.72 2.28,33.29 11.4,64.3 22.33,94.38 11.86,30.09 25.54,59.27 46.05,85.71 -2.27,-33.28 -11.4,-64.28 -22.33,-94.37zm-1148 456.82l0 0c-11.85,-29.63 -25.52,-58.81 -46.05,-85.7 2.29,33.73 11.4,64.28 22.35,94.83 11.85,29.63 25.52,58.8 46.04,85.26 -2.27,-33.3 -11.39,-64.3 -22.34,-94.39zm455.46 -1993.7l0 0 -0.45 0c-10.04,12.32 -20.52,24.62 -30.55,36.94 2.74,-0.92 5.47,-1.83 8.21,-2.74 30.08,-11.85 59.26,-25.53 85.71,-46.05 -22.35,1.37 -42.86,5.93 -62.92,11.85zm1156.2 1917.11l0 0c-30.09,11.86 -59.27,25.53 -85.71,46.04 33.28,-2.27 64.28,-11.85 94.37,-22.78 30.1,-11.4 59.28,-25.09 85.72,-45.6 -33.75,1.83 -64.28,11.4 -94.38,22.34zm-1551.02 -809.25l0 0c-29.64,11.86 -58.82,25.08 -85.26,45.59 33.29,-2.27 64.28,-11.39 94.38,-22.34 30.09,-11.85 59.27,-25.07 85.71,-46.05 -33.74,2.29 -64.28,11.87 -94.83,22.8zm604.55 809.25l0 0c-30.1,11.86 -59.28,25.53 -85.72,46.04 33.29,-2.27 64.28,-11.85 94.38,-22.78 30.08,-11.86 59.26,-25.09 85.71,-45.6 -33.75,1.83 -64.29,11.4 -94.37,22.34zm-1025.81 393.45l0 0c-29.63,11.86 -58.81,25.54 -85.72,46.05 33.74,-2.27 64.75,-11.4 94.83,-22.33 29.64,-11.86 58.82,-25.54 85.71,-46.06 -33.73,2.29 -64.73,11.4 -94.82,22.34zm1497.67 -1582.47l0 0c-29.63,11.85 -58.81,25.52 -85.71,46.04 33.73,-2.27 64.29,-11.85 94.84,-22.79 29.63,-11.4 58.8,-25.07 85.25,-45.6 -33.29,1.83 -64.29,11.4 -94.38,22.35zm474.61 -914.55l0 0c-10.03,3.19 -20.06,6.38 -30.09,10.03 -29.63,11.85 -58.81,25.52 -85.71,46.04 33.73,-2.28 64.28,-11.39 94.82,-22.34 10.04,-4.1 20.07,-8.21 29.64,-12.77 -2.73,-7.29 -5.92,-14.12 -8.66,-20.96z"/>
      </g>
      <g>
       <g>
        <path class="fil8" d="M7285.09 8758.87c-525.96,364.56 -1931.39,1837.2 -1665.15,2216.87 268.15,382.38 2198.44,331.75 2767.19,194.92 169.18,-40.7 -263.52,-1149.58 -449.32,-1144.79 -99.88,2.59 -935.15,127.48 -948.28,79.56 -14.84,-54.13 226.57,-333.56 550.22,-951.53 373.18,-712.54 -22.33,-556.06 -254.66,-395.03z"/>
        <g>
         <g>
          <path class="fil8" d="M8687.68 9950.06c365.75,23.41 455.98,84.38 775.36,-56.36 209.59,-92.35 359.76,-0.96 212.43,183.33 -240.97,301.42 -719.33,368.26 -891.97,344.68l-95.82 -471.65z"/>
          <g>
           <path class="fil8" d="M7672.68 10094.21c0,0 445.27,-136.41 837.55,-149.23 271.28,-8.85 863.65,36.3 1298.35,705.64 103.11,158.75 135.03,456.58 -129.56,257.15 -187.94,-141.65 -263.41,-287.07 -388.05,-349.98 0,0 -5.33,383.55 -171.8,478.47 -74.4,42.42 -280.24,153.54 -453.1,217.7 0,0 -24.38,-33.1 -49.2,-79.37 0,0 -164.06,74.29 -426.72,-4.86l-517.47 -1075.52z"/>
          </g>
          <g>
           <path class="fil8" d="M8770.51 9977.01c110.24,88.04 340.66,278.49 473.82,498.46 147.92,244.34 365.56,754.05 180.22,859.09 -135.91,77.01 -236.49,-110.43 -236.49,-110.43 0,0 44.61,229.24 -93.71,272.53 -126.03,39.43 -194.95,-110.16 -194.95,-110.16 0,0 2.63,143.62 -126.24,158.72 -155.02,18.17 -135.12,-285.8 -308.37,-400.23 -38.89,-25.7 305.72,-1167.98 305.72,-1167.98z"/>
           <g>
            <g>
             <path class="fil8" d="M8954.58 10585.42c89.81,99.44 234.56,376.53 236.55,633.62 0.04,5.83 -4.42,8.99 -5.62,3.68 -63.58,-282.61 -178.16,-532.67 -233.28,-635.94 -0.74,-1.38 1.34,-2.48 2.35,-1.36z"/>
            </g>
            <g>
             <path class="fil8" d="M8707 10738.77c68.49,93.59 204.66,385.72 197.53,646.31 -0.16,5.83 -4.88,8.68 -5.83,3.33 -54.02,-297.95 -145.4,-542.11 -194.14,-648.42 -0.65,-1.42 1.56,-2.43 2.44,-1.22z"/>
            </g>
           </g>
          </g>
         </g>
         <path class="fil6" d="M9291.52 10555.52c108.81,56.81 172.44,127.71 256.19,213.95 41.43,42.66 83.68,84.79 129.74,122.72 41.93,34.54 103.55,86.38 162.07,57.4 32.58,-16.11 40.53,-55.83 40.9,-88.34 0.42,-36.51 -6.17,-73.03 -21.31,-106.48 -0.76,-1.68 2.24,-3.05 3.04,-1.36 14.15,29.9 25.25,60.87 30.24,93.55 4.51,29.56 5.84,63.15 -8.22,90.64 -30.23,59.13 -107.28,52.1 -157.01,24.1 -29.73,-16.73 -56.45,-39.45 -82.06,-61.64 -24.78,-21.45 -48.46,-44.07 -71.55,-67.24 -47.4,-47.56 -91.95,-97.76 -138.77,-145.85 -51.44,-52.84 -88.69,-81.14 -145.79,-128.02 -1.94,-1.57 0.39,-4.56 2.53,-3.43z"/>
         <path class="fil6" d="M9449.97 11003.67c-16.34,-70.75 -121.87,-372.96 -161.38,-445.94 -1.01,-1.86 1.61,-3.48 2.86,-1.74 72.63,102.07 170.81,354.02 189.58,432.19 18.55,77.24 38.05,175.11 21.48,253.68 -24.98,118.52 -110,124.75 -140.92,124.55 -36.88,-0.26 -71.13,-14.79 -99.53,-37.35 -31.63,-25.13 -58.03,-69.3 -75.27,-104.8 -0.9,-1.87 1.77,-3.63 2.87,-1.75 32.09,55.16 92.07,115.35 159.63,120.18 29.31,2.11 60.88,-4.77 83.2,-24.4 26.24,-23.08 35.41,-58.56 39.48,-91.55 9.21,-74.71 -5.24,-150.4 -22,-223.07z"/>
         <path class="fil6" d="M8904.53 11385.08c13.86,17.52 38.24,73.69 91.17,95.35 38.71,15.83 81.71,20.63 118.76,-1.87 36.29,-22.04 56.05,-59.54 66.32,-98.97 5.8,-22.32 7.96,-123.32 6.11,-154.3 -0.14,-2.43 3.03,-2.88 3.3,-0.54 6.46,55.83 13.3,116.56 2.51,167.81 -8.97,42.64 -32.39,85.61 -71.28,108.77 -40.24,23.97 -91.99,24.86 -132.14,0.13 -19.88,-12.26 -78.99,-68.77 -89.88,-114.96 -0.25,-0.99 4.52,-2.2 5.13,-1.42z"/>
         <path class="fil6" d="M8480.72 11126.01c16.71,14.84 29.69,34.64 42.38,52.76 13.62,19.45 26.49,39.43 38.91,59.61 24.86,40.38 44.34,84.77 60.07,129.25 15.96,45.17 29.03,94.53 63.03,130.54 33.28,35.27 86.02,50.47 131.82,30.01 23.87,-10.66 42.29,-28.91 54.09,-51.73 12.12,-23.48 23.14,-52.87 24.76,-79.3 0.14,-2.36 3.63,-2.08 3.32,0.31 -3.27,25.37 -1.24,49.95 -9.55,74.66 -7.32,21.74 -19.36,42.27 -36.9,57.63 -35.91,31.45 -89.11,37.69 -133.12,20.21 -48.65,-19.31 -77.89,-64.05 -96.87,-109.85 -21.11,-51.01 -36.21,-103.91 -59.68,-154.09 -12.35,-26.4 -24.34,-52.95 -38.6,-78.42 -14.84,-26.52 -34.09,-51.47 -47.14,-78.78 -1.05,-2.19 1.43,-4.62 3.48,-2.81z"/>
         <path class="fil6" d="M8274.27 11182.24c47.12,6.94 157.85,14.5 248.38,7.47 2.65,-0.2 4.44,7.38 1.91,8.07 -35.46,9.57 -105.17,11.05 -125.89,10.34 -41.39,-1.39 -85.5,-8.02 -124.8,-21.49 -2.22,-0.77 -2.33,-4.79 0.4,-4.39z"/>
        </g>
       </g>
       <g>
        <path class="fil12" d="M7691 9997.66l423.47 1273.03c0,0 -2426.63,160.8 -2548.69,-341.02 -122.07,-501.8 1185.06,-1809.03 1657.87,-2150.78 472.81,-341.75 576.8,-134.32 401.81,237.28 -175,371.56 -604.85,1078.16 -594.56,1078.96 10.28,0.8 660.1,-97.47 660.1,-97.47z"/>
        <path class="fil4" d="M7282.08 10952.79c-30.1,11.86 -59.28,25.53 -85.72,46.04 33.29,-2.27 64.28,-11.85 94.38,-22.78 30.08,-11.86 59.26,-25.09 85.71,-45.6 -33.75,1.83 -64.29,11.4 -94.37,22.34zm-604.55 -809.25l0 0c-29.64,11.86 -58.82,25.08 -85.26,45.59 33.29,-2.27 64.28,-11.39 94.38,-22.34 30.09,-11.85 59.27,-25.07 85.71,-46.05 -33.74,2.29 -64.28,11.87 -94.83,22.8zm363.37 -1097.37l0 0c-30.1,11.86 -59.28,25.53 -85.72,46.05 33.29,-2.29 64.29,-11.4 94.38,-22.34 30.08,-11.85 59.26,-25.53 85.71,-46.05 -33.73,2.27 -64.29,11.4 -94.37,22.34zm-1101.95 1314.85l0 0c-11.86,-30.1 -25.53,-59.27 -46.05,-85.71 2.29,33.28 11.4,64.28 22.34,94.37 11.85,30.08 25.53,59.26 46.05,85.7 -2.29,-33.73 -11.4,-64.28 -22.34,-94.36zm677.94 668.36l0 0c-11.85,-29.63 -25.52,-58.81 -46.05,-85.7 2.29,33.73 11.4,64.28 22.35,94.83 11.85,29.63 25.52,58.8 46.04,85.26 -2.27,-33.3 -11.39,-64.3 -22.34,-94.39zm1148 -456.82l0 0c-11.86,-30.1 -25.54,-59.26 -46.05,-85.72 2.28,33.29 11.4,64.3 22.33,94.38 11.86,30.09 25.54,59.27 46.05,85.71 -2.27,-33.28 -11.4,-64.28 -22.33,-94.37zm-432.67 -1095.57l0 0c-11.85,-30.08 -25.52,-59.26 -46.05,-85.71 2.28,33.28 11.86,64.29 22.8,94.37 8.66,22.35 18.24,44.69 31.46,65.2 3.19,-5.46 5.93,-10.48 9.12,-15.96 -4.11,-20.06 -10.49,-39.2 -17.33,-57.9zm-1400.11 1442.07l0 0c-29.18,-12.77 -59.72,-24.17 -93.01,-28.27 25.53,22.33 53.8,37.38 82.98,51.06 29.18,12.76 59.72,23.71 93.01,27.81 -25.54,-21.89 -53.8,-37.38 -82.98,-50.6zm365.64 -1065.94l0 0c-29.63,-12.75 -59.73,-24.15 -93.01,-28.26 25.08,22.34 53.35,37.39 82.52,51.06 29.63,12.77 59.73,23.71 93.01,28.26 -25.07,-22.33 -53.33,-37.37 -82.52,-51.06zm686.61 755.91l0 0c-29.18,-12.77 -59.72,-24.16 -93.01,-28.26 25.53,22.33 53.8,37.37 82.98,51.06 29.18,12.77 59.72,23.7 93.01,27.81 -25.54,-21.89 -53.8,-36.93 -82.98,-50.61zm-199.23 -997.54l0 0c-12.77,29.63 -23.72,59.72 -27.81,93.01 21.88,-25.07 37.38,-53.8 50.61,-82.53 12.75,-29.63 24.15,-59.72 28.26,-93 -22.35,25.07 -37.39,53.34 -51.06,82.52zm-406.23 1003.47l0 0c-12.77,29.64 -23.7,59.72 -27.81,93.46 21.89,-25.53 37.39,-53.79 50.61,-82.97 12.77,-29.64 24.17,-59.72 28.26,-93.01 -22.33,25.08 -37.37,53.8 -51.06,82.52zm1310.76 609.11l0 0c-9.12,21.42 -17.78,42.85 -22.8,65.65 5.02,0 10.48,0 15.5,-0.47 11.86,-17.77 21.43,-36.02 30.1,-54.7 12.77,-29.64 23.7,-59.72 27.81,-93.01 -21.89,25.08 -36.94,53.34 -50.61,82.53zm-323.7 -1177.64l0 0c-16.41,21.43 -28.27,45.14 -39.67,68.39 -12.76,29.64 -23.7,59.72 -28.26,93.47 22.34,-25.54 37.38,-53.8 51.06,-82.99 10.94,-25.99 20.97,-51.96 25.99,-80.24 -3.2,0.47 -6.39,0.92 -9.12,1.37zm217.02 -1092.81l0 0c-12.77,29.63 -23.72,59.73 -27.81,93.01 21.87,-25.08 37.38,-53.35 50.6,-82.52 12.77,-29.63 24.16,-59.73 28.27,-93.01 -22.35,25.07 -37.39,53.33 -51.06,82.52z"/>
        <g>
         <path class="fil6" d="M7692.18 9995.47c-206.12,10.21 -410.94,48.12 -611.66,93.66 -201.53,45.71 -401.37,100.62 -596.2,168.83 -111.82,39.15 -220.44,83.74 -330.16,128.04 -3.9,1.56 -0.86,7 2.96,5.62 98.7,-35.33 200.19,-64.44 300.43,-95.29 97.84,-30.08 196.66,-57.96 295.58,-84.45 198.16,-53.07 398.76,-98.08 600.43,-136.38 113.35,-21.52 226.96,-41.44 339.81,-65.33 8.09,-1.71 7.6,-15.12 -1.19,-14.7z"/>
         <path class="fil6" d="M7676.54 11060.91c-10.52,-41.77 -19.49,-83.92 -30.92,-125.47 -23.78,-86.4 -47.56,-172.78 -71.52,-259.15 -23.97,-86.44 -48.4,-172.79 -73.42,-258.94 -25.03,-86.19 -53.67,-171.74 -77.36,-258.21 -1.07,-3.92 -7.24,-2.66 -6.32,1.34 19.75,87.34 35.63,175.48 56.29,262.71 21.03,88.75 43.93,177.2 68.34,265.12 24,86.45 49.35,172.45 75.76,258.23 13.24,43.03 29.52,85.13 44.03,127.74 14.06,41.3 26.92,83.05 43.97,123.28 1.16,2.73 5.36,1.03 4.83,-1.69 -8.8,-45.55 -22.36,-89.99 -33.68,-134.96z"/>
         <path class="fil6" d="M8134.55 11290.79c-5.22,-20.01 -10.44,-40.02 -15.58,-60.06 -1.68,-6.55 -13.33,-6.42 -12.78,1.01 1.24,16.52 2.4,33.05 3.56,49.58 -136.27,-3.64 -273.02,5.97 -409.25,9.29 -141.16,3.45 -282.35,4.77 -423.57,3.23 -278.51,-3.05 -556.56,-17.85 -833.62,-46.15 -158.34,-16.18 -315.65,-39.61 -473.61,-58.65 -4.13,-0.5 -5.45,6.06 -1.39,7.08 272.46,69.02 558.22,95.24 838.35,112.72 281.6,17.59 563.96,20.63 846.05,16.34 157.13,-2.4 316.42,-1.32 472.57,-20.24 6.35,-0.77 10.79,-8.36 9.27,-14.15z"/>
         <path class="fil6" d="M7369.22 9586.84c-24.94,28.13 -50,56.31 -72.37,86.48 -5.05,6.81 -9.82,13.79 -14.75,20.67 41.9,-80.63 81.4,-162.28 121.61,-243.97 1.19,-2.43 -2.93,-4.35 -4.33,-2.05 -69.5,114.58 -141.53,227.17 -207.74,343.67 -32.34,56.91 -64.01,114.12 -95.73,171.36 -16.27,29.35 -33.07,58.46 -48.77,88.11 -13.17,24.89 -32.7,52.5 -35.58,80.63 -0.3,2.97 3.3,4.03 5.39,2.53 23.63,-16.94 39.2,-49.31 54.37,-73.51 17.81,-28.39 34.67,-57.38 51.88,-86.12 34.44,-57.55 68.34,-115.33 101.3,-173.7 8.22,-14.53 15.95,-29.24 23.9,-43.87 20.52,-24.29 40.99,-48.51 60.38,-73.75 23.05,-30.01 43.4,-61.93 63.61,-93.8 1.2,-1.9 -1.54,-4.5 -3.17,-2.68z"/>
        </g>
       </g>
      </g>
      <g>
       <g>
        <g>
         <g>
          <path class="fil8" d="M8029.9 9014.61c-141.8,29.42 -376.36,-186.83 -466.09,-359.8 -6.09,-11.89 59.06,-479.15 62.16,-572.97 0.56,-19.25 595.64,156.6 595.64,156.6 0,0 -65.54,195.31 -69.93,358.9 -0.22,13.69 15.26,388.75 -121.78,417.27z"/>
         </g>
         <path class="fil6" d="M8221.84 8238.32c0,0 0,0 -0.41,0.4 -0.84,2.86 -4.63,14.27 -10.11,32.62 -9.27,31.38 -23.6,82.34 -35.49,140.6 -12.28,58.26 -22.54,123.84 -24.06,185.31 -0.43,4.48 -0.03,8.95 -0.05,13.03l0 2.04c0.37,7.73 0.32,17.9 0.27,30.11 -17.85,2.12 -37.35,2.62 -58.51,1.91 -326.41,-14.73 -423.36,-410.72 -448.81,-562.42 3.31,0.39 6.63,1.19 10.37,1.99 15.74,2.77 36.47,7.56 61.33,13.53 6.22,1.61 12.42,3.21 19.07,4.81 39.76,9.98 87.01,22.78 136.31,35.98 16.16,4.39 32.33,8.8 48.88,13.61 35.23,10 70.86,20 104.01,29.21 14.09,4.42 28.16,8.42 41.42,12.01 14.51,4.01 29.01,8.42 42.26,12.01 6.63,2 13.26,4.02 19.48,5.61 3.32,1.21 6.21,2 9.11,2.8 19.47,5.61 36.05,10.42 49.3,14.43 9.95,2.8 17.82,5.2 23.62,6.81 4.97,1.6 8.29,2.39 9.94,3.2 0.83,0 1.24,0 1.66,0.4 0.41,0 0.41,0 0.41,0z"/>
        </g>
        <g>
         <path class="fil6" d="M8293 7116.69c0,0 207.98,74.8 255.3,280.1 47.3,205.32 10.55,424.8 -6.85,436.29 -17.41,11.46 -248.45,-716.39 -248.45,-716.39z"/>
         <g>
          <path class="fil8" d="M7539.7 7447.56c-52.86,213.13 93.59,807.81 252.21,931.56 229.96,179.42 589.32,172.93 742.95,-97.4 148.92,-262.04 -55.93,-1033.52 -231.52,-1143.79 -258.62,-162.39 -685.55,-5.18 -763.64,309.63z"/>
         </g>
         <g>
          <g>
           <path class="fil6" d="M8158.85 7758.52c-0.72,-1.42 -2.66,2.77 -2.16,4.38 12.12,39.47 19.23,86.8 -13.9,110.2 -1.04,0.73 -0.37,2.7 0.94,2.14 43.14,-18.63 33.06,-81.33 15.12,-116.72z"/>
           <path class="fil6" d="M8111.28 7726.99c-66.62,13.25 -36.78,143.14 24.94,130.88 60.76,-12.1 30.9,-142 -24.94,-130.88z"/>
          </g>
          <g>
           <path class="fil6" d="M8397.66 7708.93c-0.05,-1.61 3.65,1.14 3.97,2.81 7.95,40.54 23.99,85.55 64.14,90.14 1.26,0.14 1.59,2.2 0.18,2.31 -46.69,4.48 -67.39,-55.5 -68.29,-95.26z"/>
           <path class="fil6" d="M8424.6 7658.25c64.8,-20.52 99.78,108.05 39.76,127.05 -59.08,18.73 -94.07,-109.86 -39.76,-127.05z"/>
          </g>
          <path class="fil6" d="M8063.46 7679.79c18.99,-1.94 36.21,-6.83 54.81,-10.65 20.98,-4.31 38.1,-5.62 53.93,-21.32 8.49,-8.43 8.31,-25.73 0.92,-34.51 -17.27,-20.42 -44.2,-21.41 -69.66,-17.24 -27.62,4.54 -47.84,14.97 -66.57,35.59 -18.17,20 1.55,50.68 26.57,48.13z"/>
          <path class="fil6" d="M8459.48 7561.84c-19.03,1.41 -36.76,-0.43 -55.68,-0.94 -21.35,-0.6 -38.44,1.09 -56.42,-11.64 -9.64,-6.83 -12.07,-23.93 -6.09,-33.89 13.96,-23.16 40.4,-28.84 66.15,-29.16 27.94,-0.35 49.45,6.44 71.04,23.51 20.93,16.55 6.07,50.27 -19,52.12z"/>
          <path class="fil6" d="M8206.76 8140.94c11.98,7.11 24.76,17.76 39.92,15.47 14.53,-2.21 29.8,-12.48 41.73,-20.56 1.18,-0.79 2.82,0.25 2.25,1.64 -7.1,17.97 -27.26,32.95 -47.01,34.17 -19.29,1.2 -32.08,-12.36 -40.41,-27.95 -1.17,-2.18 1.77,-3.79 3.52,-2.77z"/>
          <g>
           <g>
            <path class="fil6" d="M8222.18 8010.29c30.95,29.49 69.07,40.59 107.15,38.9 17.03,-0.65 34.28,-4.15 50.72,-9.63 3.28,-0.85 6.51,-1.99 9.36,-3.35 2.89,-1.06 5.52,-2.04 8.66,-3.48 4.64,-1.82 6.37,-6.31 6.15,-10.95l-0.08 -0.3c-0.36,-1.46 -0.65,-2.65 -1.32,-4.02 0,0 0,0 -0.06,-0.3l-0.89 -3.51c-6.26,-31.19 -20.15,-77.57 -20.15,-77.57 12.83,2.93 77.59,14.98 72.94,-0.98 -38.93,-132.06 -82.23,-278.92 -149.41,-401.82 -2.02,-4.18 -8.66,-1.51 -7.25,2.79 32.29,128.46 87.39,250.12 121.93,378.61 -20.37,-2.56 -53.95,-8.27 -70.39,-4.05 -4.18,2.34 28.48,89.16 30.15,103.42 0,0 0.15,0.58 0.06,1.54 -51.48,19.2 -95.06,12.93 -154.58,-9.83 -3.58,-1.57 -6.2,1.9 -2.99,4.53z"/>
           </g>
          </g>
         </g>
         <g>
          <path class="fil6" d="M7615.36 7969.75c71.82,7.57 110.07,-211.49 116.83,-294.14 5.96,-72.89 -14.37,-296.36 -13.98,-311.94 0.39,-15.57 297.65,166.08 458.79,82.83 161.13,-83.27 281.07,-288.73 269.46,-360.75 -56.52,-350.36 -1339.54,-554.53 -1251.59,374.99 9.87,103.14 336.09,500.11 420.49,509.01z"/>
         </g>
         <g>
          <path class="fil8" d="M7704.54 7928.48c0,0 -153.56,-182.08 -239.65,-125.49 -86.08,56.59 39.93,329.22 148.41,358.3 108.46,29.09 139.34,-69.59 139.34,-69.59l-48.1 -163.22z"/>
          <path class="fil6" d="M7503.01 7880.22c-1.71,0.02 -1.87,2.37 -0.34,2.83 76.24,22.79 120.41,86.66 153.09,154.05 -24.07,-24.9 -55.17,-36.93 -89.84,-7.92 -1.81,1.51 0.27,4.32 2.31,3.7 29.8,-9.1 52.06,-5.91 74.38,16.09 15.79,15.58 27.36,36.03 39.26,54.59 3.95,6.19 15.62,1.62 12.52,-5.64 -0.23,-0.52 -0.49,-1.07 -0.74,-1.61 -5.31,-92.81 -88.68,-215.87 -190.64,-216.09z"/>
         </g>
        </g>
       </g>
       <g>
        <g>
         <path class="fil11" d="M8154.09 8646.76l-149.06 349.39 -436.45 -446.12 -127.99 141.41c0,0 422.54,707.02 425.79,675.21l152.02 -301 209 211.46 -8.71 -527.53 -64.6 -102.82z"/>
         <path class="fil6" d="M8238.11 9015.98c-4.41,-87.02 -6.37,-174.81 -14.89,-261.5 -0.31,-3.08 -5.18,-4.47 -6.01,-0.87 -19.12,83.9 -0.44,416.59 -2.12,496.3 -0.29,-0.29 -0.64,-0.62 -0.91,-0.93 -8.71,-9.13 -193.87,-186.11 -195.78,-183.33 -32.69,47.74 -144.22,266.92 -151.92,286.89 -66.81,-112.31 -323.27,-520.65 -402.79,-626.95 -2.27,-3.05 -7.12,-0.58 -5.35,2.99 58.7,118.51 397.91,668.37 403.28,666.85 3.59,2.79 142.16,-267.18 159.01,-318.24 31.2,38.51 217.75,238.07 218.61,225.14 5.77,-87.24 3.29,-199.21 -1.13,-286.35z"/>
        </g>
       </g>
      </g>
     </g>
     <g>
      <g>
       <g>
        <polygon class="fil0" points="7757.65,11975.38 7757.65,12098.55 10562.55,12098.55 10562.55,11975.38 "/>
       </g>
       <g>
        <polygon class="fil1" points="8357.81,11975.38 8261.79,12098.55 10562.55,12098.55 10562.55,11975.38 "/>
       </g>
       <g>
        <polygon class="fil0" points="8477.79,12098.43 11211.37,12098.43 11438.95,10280.72 8705.36,10280.72 "/>
        <path class="fil4" d="M9791.97 11189.59c-1.61,89.96 71.58,162.9 163.47,162.9 91.9,0 167.71,-72.94 169.32,-162.9 1.62,-89.99 -71.57,-162.92 -163.47,-162.92 -91.89,0 -167.7,72.93 -169.32,162.92z"/>
       </g>
      </g>
      <g>
       <path class="fil8" d="M11416.78 10456.5c102.98,155.73 357.36,337.82 392.32,471.4 31.57,120.6 -66.57,177.13 -66.57,177.13 0,0 147.42,49.64 158.74,175.98 5.83,65 -95.15,131.22 -95.15,131.22 0,0 116.38,44.83 119.37,157.79 2.37,90 -99.13,142.88 -99.13,142.88 0,0 91.15,93.94 63.55,186.38 -56,187.47 -838.48,288.73 -997.46,22.15 -74.1,-124.24 118.41,-138.81 118.41,-138.81 0,0 -281.99,-44.51 -307.44,-201.9 -25.46,-157.41 225.84,-161.56 225.84,-161.56 0,0 -272.89,-45.48 -282.46,-211.28 -9.96,-172.6 242.11,-134.61 242.11,-134.61 0,0 -189.59,-92.98 -167.21,-221.56 36.92,-212.31 483.19,13.36 649.78,-48.85l45.3 -346.36z"/>
       <g>
        <path class="fil6" d="M11811.54 11723.53c2.57,-0.53 3.85,2.89 1.32,3.86 -249.1,94.7 -552.42,124.02 -812.44,57.26 -8.53,-2.18 -8.61,-16.7 1.26,-16.05 281.44,18.62 532.74,13.19 809.86,-45.07z"/>
        <path class="fil6" d="M11810.14 11413.36c3.01,-0.65 4.14,4.22 1.05,5.37 -257.2,96.23 -599.78,120.04 -890.24,8.55 -9.95,-3.83 -14.98,-17.04 -3.17,-13.5 198.89,59.81 643.17,53.26 892.36,-0.42z"/>
        <path class="fil6" d="M10870.34 11058.63c282.73,96.37 568.56,94.3 861.84,50.87 3.82,-0.57 4.25,4.78 1.18,6.1 -137.54,59.52 -327.44,68.13 -475.76,62.6 -142.08,-5.31 -269.19,-38.03 -390.7,-109.89 -4.73,-2.79 -2.61,-11.73 3.44,-9.68z"/>
       </g>
      </g>
     </g>
    </g>
   </g>
  </g>
  <g id="_2008311158336">
   <g>
    <path class="fil12" d="M15081.14 6183.48c-66.22,-104.11 -171.19,-183.77 -300.52,-215.3 -265.71,-64.79 -533.64,98.09 -598.44,363.81 -64.78,265.73 98.11,533.65 363.81,598.44 132.13,32.22 263.24,6.72 371.21,-58.3l6.12 -4.22 -336.2 1378.84 1083.71 264.25 -4.21 -6.12c-65.02,-107.98 -90.52,-239.08 -58.31,-371.21 64.8,-265.72 332.72,-428.61 598.45,-363.81 265.71,64.78 428.6,332.72 363.81,598.43 -31.53,129.33 -111.19,234.3 -215.3,300.52l-10.54 6.5 1164.98 284.06c251.96,-561.19 397.89,-1315.5 88.86,-2176.49 -498.74,-1389.54 -1646.9,-1824.61 -2039.73,-1935.47l-134.85 -32.88 -336.35 1379.49 -6.5 -10.54z"/>
    <g>
     <path class="fil12" d="M15081.14 6183.48c0,0 1.3,1.7 6.76,10.37l-0.57 0.09c11.76,-54.77 131.65,-552.48 332.31,-1380.47l1.06 -4.35 4.36 1.06c36.34,8.81 73.35,17.77 111.04,26.9 37.76,8.72 75.35,21.53 113.8,33.03 76.3,25.14 154.41,53.39 233.25,86.67 157.57,66.46 320.6,147.88 480.77,251.97 160.26,103.66 319.77,226.15 471.55,370.09 148.99,146.64 291.38,312.37 417.58,499.49 31.64,46.62 59.2,96.5 89.38,145.23 14.81,24.55 29.68,49.2 44.61,73.95 13.67,25.45 26.13,51.69 39.33,77.66 26.01,52.14 52.22,104.69 78.64,157.64 22.19,54.87 44.55,110.14 67.07,165.81 89.34,222.83 153.51,463.71 186.39,715.02 29.85,251.44 30.95,513.6 -11.28,775.31 -8.77,65.69 -23.49,130.66 -36.64,196.21 -16.04,64.92 -31.55,130.31 -51.73,194.74 -38.79,129.26 -86.16,257.22 -142.12,382.6l-2.6 5.81 -6.21 -1.51c-259.65,-63.29 -534.53,-130.3 -813.03,-198.19 -118,-28.77 -235.36,-57.39 -351.95,-85.82l-18.2 -4.44 15.98 -9.59c87.01,-52.21 156.34,-131.49 195.87,-223.55 20.5,-45.75 31.89,-94.98 37.39,-144.31 6.09,-49.43 2.45,-99.59 -7.35,-147.93 -4.15,-24.44 -12.47,-47.74 -19.85,-71.26 -9.71,-22.65 -18.63,-45.64 -31.28,-66.78 -23.99,-42.73 -53.27,-82.81 -89.16,-115.97 -70.27,-67.82 -160.99,-112.6 -255.92,-128.38 -94.78,-16.52 -193.66,-3.42 -279.96,35.6 -86.57,38.49 -160.74,102.53 -210.92,181.04 -24.92,39.24 -45.33,81.53 -57.49,126.16 -13.98,44.07 -20.11,90.21 -20.19,135.93 -0.06,91.46 27.28,182.23 74.92,257.6l9.68 15.31 -17.31 -4.23c-378.98,-92.61 -740.65,-180.98 -1083.57,-264.77l-6.47 -1.58 1.59 -6.46c123.33,-504.15 236.15,-965.27 337.26,-1378.58l8.54 5.88c-77.28,48.63 -165.04,74.66 -251.52,76.84 -86.52,2.44 -170.76,-18.73 -242.94,-57.01 -146.89,-75.26 -238.07,-219.25 -261.48,-360.6 -23.66,-142.96 18.26,-281.48 91.93,-379.73 74.29,-99.36 177.14,-158.48 274.28,-184.7 49.16,-12.11 96.97,-16.56 141.78,-15.64 44.72,2.48 86.27,9.17 123.64,19.93 74.82,21.96 131.78,57.54 172.9,90.79 41.06,33.79 67.07,65.24 83.22,87.01 16.26,21.79 22.86,34.11 22.86,34.11 0,0 -2.17,-2.75 -6.09,-8.37 -3.81,-5.71 -9.76,-14.05 -18.05,-24.77 -16.52,-21.37 -42.82,-52.33 -83.93,-85.5 -41.19,-32.65 -97.96,-67.49 -172.21,-88.77 -37.1,-10.41 -78.28,-16.79 -122.52,-19.02 -44.32,-0.66 -91.53,3.99 -140.05,16.16 -95.81,26.36 -196.99,85.13 -269.8,183.25 -72.2,97.01 -112.93,233.47 -89.28,373.8 23.41,138.77 113.32,279.83 257.42,353.18 70.81,37.36 153.41,57.9 238.01,55.32 84.41,-2.19 170.84,-28.22 245.53,-75.42l11.78 -7.44 -3.24 13.33c-100.47,413.46 -212.57,874.76 -335.13,1379.1l-4.88 -8.03c343.01,83.46 704.75,171.47 1083.84,263.7l-7.63 11.08c-49.78,-78.6 -77.5,-171.2 -77.68,-265.75 0.04,-47.14 6.35,-94.7 20.7,-140.09 12.51,-45.95 33.49,-89.56 59.16,-130.02 51.67,-80.93 128.04,-146.95 217.24,-186.67 88.89,-40.26 190.88,-53.82 288.57,-36.83 97.82,16.21 191.44,62.36 263.93,132.28 36.99,34.2 67.23,75.49 91.97,119.54 13.02,21.81 22.27,45.49 32.26,68.86 7.65,24.24 16.19,48.29 20.51,73.49 10.13,49.85 13.85,101.61 7.6,152.59 -5.64,50.9 -17.4,101.62 -38.53,148.83 -40.7,94.94 -112.44,176.89 -201.88,230.55l-2.21 -14.02c116.6,28.42 233.95,57.04 351.96,85.81 278.49,67.92 553.37,134.95 813.01,198.28l-8.79 4.3c55.73,-124.78 102.89,-252.1 141.53,-380.68 20.11,-64.11 35.56,-129.16 51.54,-193.73 13.1,-65.21 27.79,-129.83 36.53,-195.16 42.13,-260.3 41.17,-521.02 11.66,-771.2 -32.55,-250.02 -96.19,-489.78 -184.96,-711.77 -22.37,-55.47 -44.58,-110.54 -66.63,-165.2 -26.24,-52.75 -52.3,-105.11 -78.15,-157.05 -13.11,-25.87 -25.48,-52.02 -39.06,-77.37 -14.84,-24.66 -29.62,-49.22 -44.34,-73.68 -30,-48.55 -57.37,-98.25 -88.82,-144.71 -125.43,-186.45 -266.98,-351.66 -415.13,-497.94 -150.95,-143.57 -309.61,-265.85 -469.1,-369.44 -159.39,-104.02 -321.7,-185.5 -478.6,-252.11 -78.49,-33.36 -156.28,-61.7 -232.24,-86.95 -38.29,-11.55 -75.45,-24.36 -113.19,-33.17 -37.61,-9.23 -74.56,-18.29 -110.83,-27.19l5.4 -3.29c-202.97,827.43 -325.63,1324.47 -340.39,1378.5l-0.21 0.73 -0.37 -0.64c-5.29,-8.78 -6.23,-10.7 -6.23,-10.7z"/>
    </g>
   </g>
   <g>
    <g>
     <path class="fil5" d="M13589.86 6553.26c129,-20.36 254.15,12.05 353.46,81.25l9.88 7.09 -217.17 -1376.02 -0.04 0.01 -134.41 21.21c-393.02,76.56 -1550.92,408.96 -2151.1,1727.24 -371.86,816.8 -290.27,1566.13 -89.36,2135.22l143.25 -22.6 1115.22 -176.01 -7.08 9.87c-69.21,99.31 -101.63,224.46 -81.26,353.47 41.83,265.04 290.61,446 555.65,404.17 265.06,-41.83 446.01,-290.61 404.18,-555.66 -20.8,-131.79 -93.46,-240.83 -193.16,-313.99l-6.13 -3.94 30.9 -4.88 953.66 -150.51 -217.06 -1375.38 -3.95 6.13c-73.16,99.69 -182.2,172.36 -314,193.16 -265.05,41.83 -513.82,-139.13 -555.66,-404.17 -41.83,-265.06 139.13,-513.83 404.18,-555.66z"/>
     <g>
      <path class="fil5" d="M13589.86 6553.26c0,0 -10.94,2.8 -32.4,7.55 -10.86,1.91 -23.95,5.81 -39.37,11.16 -7.71,2.62 -16.19,5.04 -25.02,8.38 -8.65,3.81 -17.9,7.87 -27.72,12.18 -38.7,18.13 -85.51,44.95 -131.18,88.41 -45.53,43.16 -89.65,102.99 -119.23,179.35 -8,18.82 -12.82,39.43 -18.83,60.09 -3.89,21.22 -9.3,42.79 -10.44,65.54 -5.03,45.13 -2.43,93.32 7.54,142.07 18.07,97.87 73.48,198.24 162.52,273.57 88.52,75.19 214.23,122.14 346.86,111.02 66.06,-4.62 132.97,-24.18 194.15,-58.22 60.77,-34.31 116.43,-83.19 158.21,-143.34l7.41 -10.68 2.02 12.65c64.25,404.79 137.68,867.35 218.3,1375.19l1 6.32 -6.33 1c-309.21,48.98 -639.47,101.31 -984.47,155.96l2.69 -12.77c73.46,51.41 133.02,123.26 169.29,207.44 17.79,42.08 30.57,86.83 35.19,132.88 6.87,45.84 3.96,92.83 -2.52,139 -7.09,46.34 -22.58,91.2 -42.25,134.11 -20.41,42.74 -47.96,81.97 -79.46,117.8 -31.94,35.65 -70.05,65.6 -110.94,91.07 -41.19,25.36 -86.96,42.78 -133.89,55.48 -47.32,11.92 -96.47,15.86 -145.58,14.38 -49.15,-2.82 -97.84,-13.18 -144.56,-29.76 -92.71,-34.76 -176.56,-97.25 -233.74,-180.46 -15.22,-20.18 -26.7,-42.76 -38.94,-64.87 -10.04,-23.23 -20.84,-46.21 -27.56,-70.77 -15.04,-48.41 -23.56,-99.27 -22.85,-150.46 0.36,-102.31 34.2,-204.99 95.61,-288.34l7.41 12.03c-259.96,41.04 -535.13,84.47 -813.94,128.5 -150.31,23.71 -299.56,47.26 -444.52,70.14l-6.36 1 -2.09 -6.04c-86.18,-247.71 -142.75,-502.4 -161.46,-756.07 -11.37,-126.71 -9.63,-253.06 -3.58,-377.62 5.1,-62.2 8.63,-124.25 18.1,-185.36 4.38,-30.59 7.32,-61.31 12.85,-91.54 5.64,-30.22 11.26,-60.36 16.86,-90.41 46.54,-240.23 126.26,-468.07 226.78,-678.43 26.25,-52.09 52.35,-103.86 78.26,-155.28l19.42 -38.49c6.86,-12.59 14.74,-24.6 22.03,-36.89 14.86,-24.45 29.68,-48.8 44.44,-73.06 14.77,-24.28 29.47,-48.46 44.13,-72.56l22 -36.06 24.64 -34.12c32.8,-45.42 65.36,-90.51 97.67,-135.26 15.43,-22.94 34,-43.3 51.58,-64.3 17.71,-20.89 35.35,-41.72 52.92,-62.45 17.56,-20.73 35.07,-41.39 52.5,-61.95 17.81,-20.23 37.46,-38.63 55.99,-57.91 37.82,-37.79 74.15,-76.55 112.34,-112.65 39.53,-34.71 78.71,-69.12 117.55,-103.22 159.2,-131.81 324.69,-244.29 492.35,-336.32 168.48,-90.5 337.41,-162.57 502.67,-217.63 165.2,-55.07 326.75,-93.93 481.61,-113.6l4.68 -0.59 0.74 4.76c97.25,623.78 170.03,1090.7 214.58,1376.42l0.87 5.58 -4.56 -3.3c-106.09,-77.03 -206.29,-91.75 -268.24,-94.71 -31.59,-1.47 -55.05,0.88 -70.58,1.99 -15.47,1.85 -23.15,2.47 -23.15,2.47 0,0 7.56,-1.42 23.02,-3.67 15.52,-1.52 39.03,-4.28 70.81,-3.19 62.24,2.19 163.4,16.2 270.87,93.29l-3.68 2.28c-45.62,-285.55 -120.16,-752.2 -219.76,-1375.61l5.42 4.17c-153.86,19.96 -314.55,58.96 -479.14,114.2 -164.54,55.19 -332.71,127.32 -500.38,217.73 -166.85,91.95 -331.47,204.22 -489.78,335.65 -38.63,34 -77.6,68.31 -116.91,102.91 -37.97,35.99 -74.07,74.63 -111.69,112.29 -18.41,19.22 -37.97,37.54 -55.67,57.7 -17.33,20.5 -34.73,41.08 -52.19,61.75 -17.46,20.65 -35,41.39 -52.6,62.22 -17.48,20.92 -35.94,41.19 -51.27,64.05 -32.13,44.59 -64.5,89.5 -97.1,134.75l-24.49 33.98 -21.86 35.93c-14.58,24 -29.2,48.1 -43.88,72.28 -14.66,24.17 -29.39,48.43 -44.17,72.77 -7.25,12.24 -15.08,24.2 -21.9,36.73l-19.3 38.36c-25.77,51.22 -51.7,102.79 -77.81,154.68 -99.9,209.51 -179.04,436.24 -225.19,675.2 -5.56,29.9 -11.12,59.87 -16.72,89.93 -5.48,30.07 -8.39,60.63 -12.73,91.04 -9.39,60.78 -12.86,122.5 -17.92,184.35 -5.94,123.89 -7.64,249.53 3.73,375.54 18.69,252.28 75.01,505.63 160.8,752.13l-8.45 -5.03c144.96,-22.89 294.21,-46.44 444.52,-70.17 278.82,-43.99 554,-87.4 813.95,-128.4l18.42 -2.91 -11.01 14.92c-59.72,81.06 -92.39,180.32 -92.81,279.51 -0.73,49.61 7.55,98.95 22.11,145.87 6.47,23.82 16.99,46.07 26.66,68.59 11.9,21.42 22.97,43.33 37.73,62.88 55.37,80.69 136.68,141.3 226.55,175.07 45.29,16.08 92.48,26.15 140.14,28.93 47.6,1.42 95.31,-2.33 141.22,-13.87 45.52,-12.33 89.93,-29.15 129.89,-53.73 39.67,-24.7 76.67,-53.7 107.68,-88.29 30.58,-34.76 57.37,-72.8 77.2,-114.27 19.1,-41.64 34.21,-85.16 41.11,-130.13 6.29,-44.8 9.22,-90.4 2.54,-134.94 -4.42,-44.72 -16.81,-88.14 -34.02,-129 -34.88,-81.53 -93.41,-151.93 -163.79,-201.29l-14.38 -10.09 17.07 -2.68c345.06,-54.26 675.39,-106.19 984.65,-154.81l-5.32 7.31c-79.7,-507.97 -152.3,-970.67 -215.83,-1375.57l9.41 1.99c-43.32,62.08 -99.84,111.27 -162.1,146.31 -62.54,34.61 -130.89,54.36 -198.21,58.88 -135.21,10.97 -263.06,-37.28 -352.78,-114.02 -90.29,-76.88 -146.14,-179.09 -164.06,-278.42 -9.91,-49.48 -12.32,-98.32 -7.01,-144.02 1.26,-23.05 6.84,-44.87 10.88,-66.33 6.18,-20.9 11.19,-41.72 19.37,-60.71 30.32,-77.1 75.3,-137.25 121.53,-180.46 46.4,-43.51 93.79,-70.13 132.93,-87.93 9.92,-4.22 19.26,-8.2 28.01,-11.92 8.92,-3.25 17.48,-5.57 25.26,-8.08 15.55,-5.15 28.76,-8.83 39.7,-10.51 21.64,-4.3 32.73,-6.12 32.73,-6.12z"/>
     </g>
    </g>
   </g>
  </g>
 </g>
</svg>
