<?xml version="1.0" encoding="UTF-8"?>
<!DOCTYPE svg PUBLIC "-//W3C//DTD SVG 1.1//EN" "http://www.w3.org/Graphics/SVG/1.1/DTD/svg11.dtd">
<!-- Creator: CorelDRAW 2020 (64-Bit) -->
<svg xmlns="http://www.w3.org/2000/svg" xml:space="preserve" width="297mm" height="210mm" version="1.1" style="shape-rendering:geometricPrecision; text-rendering:geometricPrecision; image-rendering:optimizeQuality; fill-rule:evenodd; clip-rule:evenodd"
viewBox="0 0 29700 21000"
 xmlns:xlink="http://www.w3.org/1999/xlink"
 xmlns:xodm="http://www.corel.com/coreldraw/odm/2003">
 <defs>
  <style type="text/css">
   <![CDATA[
    .fil0 {fill:#96989A;fill-rule:nonzero}
    .fil2 {fill:#263138;fill-rule:nonzero}
    .fil13 {fill:#36464F;fill-rule:nonzero}
    .fil7 {fill:#445964;fill-rule:nonzero}
    .fil12 {fill:#8F5924;fill-rule:nonzero}
    .fil1 {fill:#A5A5A5;fill-rule:nonzero}
    .fil3 {fill:#C6C6C6;fill-rule:nonzero}
    .fil10 {fill:#D37569;fill-rule:nonzero}
    .fil6 {fill:#DB4437;fill-rule:nonzero}
    .fil9 {fill:#DBDBDB;fill-rule:nonzero}
    .fil8 {fill:#EBEBEB;fill-rule:nonzero}
    .fil11 {fill:#F4B400;fill-rule:nonzero}
    .fil14 {fill:#FF9CBC;fill-rule:nonzero}
    .fil5 {fill:#FFC626;fill-rule:nonzero}
    .fil4 {fill:white;fill-rule:nonzero}
    .fil15 {fill:#DB4437;fill-rule:nonzero;fill-opacity:0.101961}
    .fil19 {fill:#FFC626;fill-rule:nonzero;fill-opacity:0.200000}
    .fil18 {fill:#FFC626;fill-rule:nonzero;fill-opacity:0.400000}
    .fil17 {fill:#FFC626;fill-rule:nonzero;fill-opacity:0.600000}
    .fil16 {fill:#FFC626;fill-rule:nonzero;fill-opacity:0.800000}
   ]]>
  </style>
 </defs>
 <g id="Layer_x0020_1">
  <metadata id="CorelCorpID_0Corel-Layer"/>
  <g id="_2008315464384">
   <g>
    <g>
     <g>
      <polygon class="fil0" points="22266.62,9182.41 22213.71,9182.41 22213.71,9147.13 22231.34,9147.13 22231.34,9129.49 22266.62,9129.49 "/>
      <path class="fil0" d="M22142.32 9182.41l-71.38 0 0 -35.28 71.38 0 0 35.28zm-142.76 0l0 0 -71.39 0 0 -35.28 71.39 0 0 35.28zm-142.77 0l0 0 -71.38 0 0 -35.28 71.38 0 0 35.28zm-142.78 0l0 0 -71.38 0 0 -35.28 71.38 0 0 35.28zm-142.77 0l0 0 -71.38 0 0 -35.28 71.38 0 0 35.28zm-142.76 0l0 0 -71.38 0 0 -35.28 71.38 0 0 35.28zm-142.76 0l0 0 -71.38 0 0 -35.28 71.38 0 0 35.28zm-142.77 0l0 0 -71.38 0 0 -35.28 71.38 0 0 35.28zm-142.76 0l0 0 -71.4 0 0 -35.28 71.4 0 0 35.28zm-142.78 0l0 0 -71.39 0 0 -35.28 71.39 0 0 35.28zm-142.77 0l0 0 -71.38 0 0 -35.28 71.38 0 0 35.28zm-142.77 0l0 0 -71.38 0 0 -35.28 71.38 0 0 35.28zm-142.76 0l0 0 -71.38 0 0 -35.28 71.38 0 0 35.28z"/>
      <polygon class="fil0" points="20286.35,9182.41 20233.43,9182.41 20233.43,9129.49 20268.71,9129.49 20268.71,9147.13 20286.35,9147.13 "/>
      <path class="fil0" d="M20268.71 9058.11l-35.28 0 0 -71.38 35.28 0 0 71.38zm0 -142.76l0 0 -35.28 0 0 -71.39 35.28 0 0 71.39zm0 -142.77l0 0 -35.28 0 0 -71.38 35.28 0 0 71.38zm0 -142.78l0 0 -35.28 0 0 -71.38 35.28 0 0 71.38zm0 -142.77l0 0 -35.28 0 0 -71.38 35.28 0 0 71.38zm0 -142.76l0 0 -35.28 0 0 -71.38 35.28 0 0 71.38zm0 -142.77l0 0 -35.28 0 0 -71.38 35.28 0 0 71.38zm0 -142.76l0 0 -35.28 0 0 -71.38 35.28 0 0 71.38zm0 -142.78l0 0 -35.28 0 0 -71.38 35.28 0 0 71.38zm0 -142.77l0 0 -35.28 0 0 -71.38 35.28 0 0 71.38zm0 -142.76l0 0 -35.28 0 0 -71.38 35.28 0 0 71.38zm0 -142.77l0 0 -35.28 0 0 -71.38 35.28 0 0 71.38zm0 -142.76l0 0 -35.28 0 0 -71.38 35.28 0 0 71.38z"/>
      <polygon class="fil0" points="20268.71,7202.13 20233.43,7202.13 20233.43,7149.22 20286.35,7149.22 20286.35,7184.49 20268.71,7184.49 "/>
      <path class="fil0" d="M22142.32 7184.49l-71.38 0 0 -35.27 71.38 0 0 35.27zm-142.76 0l0 0 -71.39 0 0 -35.27 71.39 0 0 35.27zm-142.77 0l0 0 -71.38 0 0 -35.27 71.38 0 0 35.27zm-142.76 0l0 0 -71.38 0 0 -35.27 71.38 0 0 35.27zm-142.77 0l0 0 -71.4 0 0 -35.27 71.4 0 0 35.27zm-142.78 0l0 0 -71.38 0 0 -35.27 71.38 0 0 35.27zm-142.76 0l0 0 -71.38 0 0 -35.27 71.38 0 0 35.27zm-142.77 0l0 0 -71.38 0 0 -35.27 71.38 0 0 35.27zm-142.76 0l0 0 -71.39 0 0 -35.27 71.39 0 0 35.27zm-142.77 0l0 0 -71.38 0 0 -35.27 71.38 0 0 35.27zm-142.78 0l0 0 -71.38 0 0 -35.27 71.38 0 0 35.27zm-142.77 0l0 0 -71.38 0 0 -35.27 71.38 0 0 35.27zm-142.76 0l0 0 -71.38 0 0 -35.27 71.38 0 0 35.27z"/>
      <polygon class="fil0" points="22266.62,7202.13 22231.34,7202.13 22231.34,7184.49 22213.71,7184.49 22213.71,7149.22 22266.62,7149.22 "/>
      <path class="fil0" d="M22266.62 9058.11l-35.28 0 0 -71.38 35.28 0 0 71.38zm0 -142.76l0 0 -35.28 0 0 -71.39 35.28 0 0 71.39zm0 -142.77l0 0 -35.28 0 0 -71.38 35.28 0 0 71.38zm0 -142.76l0 0 -35.28 0 0 -71.39 35.28 0 0 71.39zm0 -142.77l0 0 -35.28 0 0 -71.38 35.28 0 0 71.38zm0 -142.78l0 0 -35.28 0 0 -71.38 35.28 0 0 71.38zm0 -142.77l0 0 -35.28 0 0 -71.38 35.28 0 0 71.38zm0 -142.76l0 0 -35.28 0 0 -71.38 35.28 0 0 71.38zm0 -142.76l0 0 -35.28 0 0 -71.39 35.28 0 0 71.39zm0 -142.77l0 0 -35.28 0 0 -71.38 35.28 0 0 71.38zm0 -142.78l0 0 -35.28 0 0 -71.38 35.28 0 0 71.38zm0 -142.77l0 0 -35.28 0 0 -71.38 35.28 0 0 71.38zm0 -142.76l0 0 -35.28 0 0 -71.38 35.28 0 0 71.38z"/>
     </g>
     <g>
      <polygon class="fil0" points="20375.55,9289.26 20126.57,9289.26 20126.57,9040.29 20375.55,9040.29 "/>
      <path class="fil0" d="M20393.18 9306.9l-284.24 0 0 -284.26 284.24 0 0 284.26zm-248.96 -35.28l0 0 213.68 0 0 -213.7 -213.68 0 0 213.7z"/>
     </g>
     <g>
      <polygon class="fil0" points="20375.55,8290.3 20126.57,8290.3 20126.57,8041.32 20375.55,8041.32 "/>
      <path class="fil0" d="M20393.18 8307.94l-284.24 0 0 -284.25 284.24 0 0 284.25zm-248.96 -35.28l0 0 213.68 0 0 -213.7 -213.68 0 0 213.7z"/>
     </g>
     <g>
      <polygon class="fil0" points="20375.55,7291.33 20126.57,7291.33 20126.57,7042.36 20375.55,7042.36 "/>
      <path class="fil0" d="M20393.18 7308.97l-284.24 0 0 -284.24 284.24 0 0 284.24zm-248.96 -35.28l0 0 213.68 0 0 -213.68 -213.68 0 0 213.68z"/>
     </g>
     <g>
      <polygon class="fil0" points="22373.47,9289.26 22124.5,9289.26 22124.5,9040.29 22373.47,9040.29 "/>
      <path class="fil0" d="M22391.11 9306.9l-284.25 0 0 -284.26 284.25 0 0 284.26zm-248.98 -35.28l0 0 213.7 0 0 -213.7 -213.7 0 0 213.7z"/>
     </g>
     <g>
      <polygon class="fil0" points="22373.47,8290.3 22124.5,8290.3 22124.5,8041.32 22373.47,8041.32 "/>
      <path class="fil0" d="M22391.11 8307.94l-284.25 0 0 -284.25 284.25 0 0 284.25zm-248.98 -35.28l0 0 213.7 0 0 -213.7 -213.7 0 0 213.7z"/>
     </g>
     <g>
      <polygon class="fil0" points="22373.47,7291.33 22124.5,7291.33 22124.5,7042.36 22373.47,7042.36 "/>
      <path class="fil0" d="M22391.11 7308.97l-284.25 0 0 -284.24 284.25 0 0 284.24zm-248.98 -35.28l0 0 213.7 0 0 -213.68 -213.7 0 0 213.68z"/>
     </g>
     <g>
      <polygon class="fil0" points="21374.51,7291.33 21125.54,7291.33 21125.54,7042.36 21374.51,7042.36 "/>
      <path class="fil0" d="M21392.15 7308.97l-284.25 0 0 -284.24 284.25 0 0 284.24zm-248.97 -35.28l0 0 213.7 0 0 -213.68 -213.7 0 0 213.68z"/>
     </g>
     <g>
      <polygon class="fil0" points="21374.51,9289.26 21125.54,9289.26 21125.54,9040.29 21374.51,9040.29 "/>
      <path class="fil0" d="M21392.15 9306.9l-284.25 0 0 -284.26 284.25 0 0 284.26zm-248.97 -35.28l0 0 213.7 0 0 -213.7 -213.7 0 0 213.7z"/>
     </g>
     <g>
      <path class="fil0" d="M21274.2 8403.39l-398.68 0 -155.02 434.9 151 0 0 38.26 -308.04 0 0 -38.26 94.62 0 513.42 -1383.22 165.11 0 507.37 1383.22 92.61 0 0 38.26 -658.37 0 0 -38.26 142.93 0 -146.95 -434.9zm-380.55 -44.29l0 0 364.43 0 -175.16 -527.53 -189.27 527.53z"/>
     </g>
    </g>
    <g>
     <g>
      <path class="fil0" d="M20188.97 5959.05c0,0 -6.9,392.43 -258.16,837.53l-354.01 0c-251.25,-445.1 -258.17,-837.53 -258.17,-837.53 363.51,-203.33 373.01,-658.36 373.01,-658.36l36.7 0 0 720.53c-49.22,11.66 -85.48,55.26 -85.48,108.36 0,61.31 49.64,110.95 110.94,110.95 61.31,0 110.96,-49.64 110.96,-110.95 0,-53.1 -36.27,-96.7 -85.48,-108.36l0 -720.53 36.69 0c0,0 9.5,455.03 373,658.36z"/>
      <polygon class="fil0" points="20015.31,6973.58 19492.3,6973.58 19492.3,6753.45 20015.31,6753.45 "/>
     </g>
     <path class="fil0" d="M20968.13 6478.41l-35.28 0c0,-650.12 -528.93,-1179.05 -1179.05,-1179.05 -650.12,0 -1179.05,528.93 -1179.05,1179.05l-35.27 0c0,-669.59 544.73,-1214.33 1214.32,-1214.33 669.59,0 1214.33,544.74 1214.33,1214.33z"/>
     <polygon class="fil0" points="20950.49,5284.77 18529.79,5284.77 18529.79,5249.49 20950.49,5249.49 "/>
     <g>
      <polygon class="fil0" points="18681.6,6602.89 18432.63,6602.89 18432.63,6353.93 18681.6,6353.93 "/>
      <path class="fil0" d="M18699.26 6620.54l-284.26 0 0 -284.26 284.26 0 0 284.26zm-248.98 -35.28l0 0 213.7 0 0 -213.7 -213.7 0 0 213.7z"/>
     </g>
     <g>
      <polygon class="fil0" points="18681.6,5391.62 18432.63,5391.62 18432.63,5142.65 18681.6,5142.65 "/>
      <path class="fil0" d="M18699.26 5409.26l-284.26 0 0 -284.26 284.26 0 0 284.26zm-248.98 -35.28l0 0 213.7 0 0 -213.7 -213.7 0 0 213.7z"/>
     </g>
     <g>
      <polygon class="fil0" points="21074.98,6602.89 20826.01,6602.89 20826.01,6353.93 21074.98,6353.93 "/>
      <path class="fil0" d="M21092.63 6620.54l-284.25 0 0 -284.26 284.25 0 0 284.26zm-248.97 -35.28l0 0 213.7 0 0 -213.7 -213.7 0 0 213.7z"/>
     </g>
     <g>
      <polygon class="fil0" points="21074.98,5391.62 20826.01,5391.62 20826.01,5142.65 21074.98,5142.65 "/>
      <path class="fil0" d="M21092.63 5409.26l-284.25 0 0 -284.26 284.25 0 0 284.26zm-248.97 -35.28l0 0 213.7 0 0 -213.7 -213.7 0 0 213.7z"/>
     </g>
    </g>
   </g>
   <g>
    <g>
     <polygon class="fil1" points="17758.98,9486.31 11803.14,9486.31 11803.14,3542.71 17758.98,3542.71 "/>
     <polygon class="fil2" points="17762.79,3901.97 11803.14,3901.97 11803.14,3542.71 17762.79,3542.71 "/>
     <g>
      <path class="fil3" d="M12086.3 3722.34c0,41.23 -33.42,74.66 -74.65,74.66 -41.23,0 -74.66,-33.43 -74.66,-74.66 0,-41.23 33.43,-74.65 74.66,-74.65 41.23,0 74.65,33.42 74.65,74.65z"/>
      <path class="fil4" d="M12391.14 3722.34c0,41.23 -33.43,74.66 -74.65,74.66 -41.24,0 -74.66,-33.43 -74.66,-74.66 0,-41.23 33.42,-74.65 74.66,-74.65 41.22,0 74.65,33.42 74.65,74.65z"/>
      <path class="fil5" d="M12695.98 3722.34c0,41.23 -33.42,74.66 -74.66,74.66 -41.22,0 -74.65,-33.43 -74.65,-74.66 0,-41.23 33.43,-74.65 74.65,-74.65 41.24,0 74.66,33.42 74.66,74.65z"/>
     </g>
     <polygon class="fil4" points="16960.42,8864.97 12605.51,8864.97 12605.51,4510.04 16960.42,4510.04 "/>
     <g>
      <path class="fil6" d="M14780.28 8152.58l0 -33.95c834.93,0 1514.19,-679.28 1514.19,-1514.23 0,-834.95 -679.26,-1514.24 -1514.19,-1514.24 -834.96,0 -1514.25,679.29 -1514.25,1514.24l-33.95 0c0,-853.68 694.51,-1548.19 1548.2,-1548.19 853.63,0 1548.14,694.51 1548.14,1548.19 0,853.67 -694.51,1548.18 -1548.14,1548.18z"/>
      <g>
       <path class="fil6" d="M13332.18 6604.39c0,45.91 -37.21,83.12 -83.12,83.12 -45.9,0 -83.11,-37.21 -83.11,-83.12 0,-45.9 37.21,-83.11 83.11,-83.11 45.91,0 83.12,37.21 83.12,83.11z"/>
       <path class="fil6" d="M13249.06 6704.48c-55.19,0 -100.1,-44.89 -100.1,-100.08 0,-55.18 44.91,-100.09 100.1,-100.09 55.18,0 100.09,44.91 100.09,100.09 0,55.19 -44.91,100.08 -100.09,100.08zm0 -166.22l0 0c-36.47,0 -66.14,29.67 -66.14,66.14 0,36.47 29.67,66.13 66.14,66.13 36.46,0 66.14,-29.66 66.14,-66.13 0,-36.47 -29.68,-66.14 -66.14,-66.14z"/>
      </g>
      <path class="fil6" d="M14315.2 6284.97c0,99.68 -80.81,180.48 -180.48,180.48 -99.68,0 -180.48,-80.8 -180.48,-180.48 0,-99.68 80.8,-180.48 180.48,-180.48 99.67,0 180.48,80.8 180.48,180.48z"/>
      <path class="fil6" d="M15606.28 6284.97c0,99.68 -80.8,180.48 -180.48,180.48 -99.67,0 -180.48,-80.8 -180.48,-180.48 0,-99.68 80.81,-180.48 180.48,-180.48 99.68,0 180.48,80.8 180.48,180.48z"/>
      <g>
       <path class="fil6" d="M16394.57 6604.39c0,45.91 -37.21,83.12 -83.11,83.12 -45.9,0 -83.12,-37.21 -83.12,-83.12 0,-45.9 37.22,-83.11 83.12,-83.11 45.9,0 83.11,37.21 83.11,83.11z"/>
       <path class="fil6" d="M16311.45 6704.48c-55.2,0 -100.09,-44.89 -100.09,-100.08 0,-55.18 44.89,-100.09 100.09,-100.09 55.2,0 100.09,44.91 100.09,100.09 0,55.19 -44.89,100.08 -100.09,100.08zm0 -166.22l0 0c-36.47,0 -66.14,29.67 -66.14,66.14 0,36.47 29.67,66.13 66.14,66.13 36.47,0 66.14,-29.66 66.14,-66.13 0,-36.47 -29.67,-66.14 -66.14,-66.14z"/>
      </g>
      <g>
       <path class="fil6" d="M14863.38 5073.19c0,45.9 -37.21,83.12 -83.12,83.12 -45.9,0 -83.11,-37.22 -83.11,-83.12 0,-45.9 37.21,-83.11 83.11,-83.11 45.91,0 83.12,37.21 83.12,83.11z"/>
       <path class="fil6" d="M14780.28 5173.28c-55.19,0 -100.1,-44.91 -100.1,-100.1 0,-55.18 44.91,-100.09 100.1,-100.09 55.19,0 100.09,44.91 100.09,100.09 0,55.19 -44.9,100.1 -100.09,100.1zm0 -166.24l0 0c-36.47,0 -66.15,29.67 -66.15,66.14 0,36.47 29.68,66.15 66.15,66.15 36.46,0 66.14,-29.68 66.14,-66.15 0,-36.47 -29.68,-66.14 -66.14,-66.14z"/>
      </g>
      <path class="fil6" d="M14863.38 8134.93c0,45.9 -37.21,83.12 -83.12,83.12 -45.9,0 -83.11,-37.22 -83.11,-83.12 0,-45.9 37.21,-83.12 83.11,-83.12 45.91,0 83.12,37.22 83.12,83.12z"/>
      <g>
       <g>
        <path class="fil6" d="M15110.9 8329.75c0,0 80.73,172.93 65.94,420.99l-154.66 75.54c-204.75,-140.82 -291.51,-310.79 -291.51,-310.79 115.42,-166.41 22.46,-367.23 22.46,-367.23l16.04 -7.84 153.76 314.79c-19.01,15.6 -25.55,42.39 -14.22,65.59 13.08,26.78 45.37,37.88 72.14,24.79 26.78,-13.08 37.88,-45.36 24.79,-72.15 -11.33,-23.2 -36.48,-34.51 -60.45,-29.1l-153.77 -314.79 16.03 -7.83c0,0 101.26,196.77 303.45,208.03z"/>
        <polygon class="fil6" points="15251.53,8810.04 15023.03,8921.65 14976.06,8825.48 15204.55,8713.86 "/>
       </g>
       <g>
        <polygon class="fil6" points="15399.45,8933.39 15379.7,8933.39 15379.7,8742.91 15399.45,8742.91 "/>
        <polygon class="fil6" points="15484.82,8848.03 15294.34,8848.03 15294.34,8828.27 15484.82,8828.27 "/>
        <polygon class="fil6" points="15329.21,8912.48 15315.25,8898.52 15449.94,8763.82 15463.91,8777.78 "/>
        <polygon class="fil6" points="15449.94,8912.48 15315.25,8777.78 15329.21,8763.82 15463.91,8898.52 "/>
       </g>
       <path class="fil6" d="M15389.08 8425c-150.08,-3.76 -200.48,-101.76 -244.96,-188.22 -24.59,-47.83 -47.82,-92.99 -85.4,-114.92 -119.86,-69.92 -233.11,32.05 -237.88,36.44l-26.8 -29.02c1.38,-1.27 139.25,-126.34 284.59,-41.54 47.53,27.73 73.32,77.88 100.63,130.97 43.27,84.14 84.15,163.63 210.81,166.81l-0.99 39.48z"/>
      </g>
      <path class="fil6" d="M15119.32 6244.15c0,187.19 -151.71,338.9 -338.89,338.9 -187.18,0 -339.23,-151.71 -339.23,-338.9l678.12 0z"/>
     </g>
    </g>
    <g>
     <polygon class="fil7" points="9956.35,9668.49 8917.66,9668.49 8917.66,5762.61 9956.35,5762.61 "/>
     <g>
      <polygon class="fil8" points="9031.09,5876.34 8966.9,5812.15 8972.9,5806.15 9037.09,5870.34 "/>
      <polygon class="fil8" points="8972.9,5876.34 8966.9,5870.34 9031.09,5806.15 9037.09,5812.15 "/>
     </g>
     <g>
      <g>
       <polygon class="fil8" points="9864.61,5879.47 9826.5,5841.38 9832.5,5835.38 9870.61,5873.47 "/>
       <polygon class="fil8" points="9832.5,5847.38 9826.5,5841.38 9864.61,5803.28 9870.61,5809.28 "/>
      </g>
      <g>
       <polygon class="fil8" points="9906.62,5879.47 9868.53,5841.38 9874.53,5835.38 9912.62,5873.47 "/>
       <polygon class="fil8" points="9874.53,5847.38 9868.53,5841.38 9906.62,5803.28 9912.62,5809.28 "/>
      </g>
     </g>
     <path class="fil8" d="M9204.58 6412.67l-44.6 -107.83 -79.76 61.88 0 -346.49 242.28 244.74 -101.39 15.13 44.44 107.32 -60.97 25.25zm-37.41 -134.89l0 0 46.6 112.71 29.61 -12.25 -46.27 -111.73 89.78 -13.38 -189.69 -191.62 0 270.56 69.97 -54.29z"/>
     <polygon class="fil8" points="9757.3,6273.31 9802.66,6382.83 9757.36,6401.57 9711.76,6291.31 9636.9,6349.39 9636.9,6040.86 9852.87,6259.05 "/>
     <g>
      <polygon class="fil8" points="9101.41,6983.32 9081.32,6967.67 9292,6696.95 9312.09,6712.6 "/>
      <polygon class="fil8" points="9176.49,6731.12 9124.92,6740.65 9113.4,6795.01 9101.88,6740.65 9050.31,6731.09 9101.66,6718.54 9113.4,6667.2 9125.15,6718.54 "/>
      <polygon class="fil8" points="9290.88,6645.08 9260.62,6650.68 9253.85,6682.58 9247.09,6650.68 9216.83,6645.07 9246.96,6637.7 9253.85,6607.57 9260.75,6637.7 "/>
      <polygon class="fil8" points="9326.57,6816.38 9309.32,6819.57 9305.47,6837.75 9301.61,6819.57 9284.37,6816.38 9301.54,6812.18 9305.47,6795.01 9309.39,6812.18 "/>
     </g>
     <g>
      <polygon class="fil8" points="9602.23,7951.65 9582.14,7936 9792.82,7665.28 9812.91,7680.93 "/>
     </g>
     <g>
      <polygon class="fil8" points="9757.3,6887.8 9802.66,6997.32 9757.36,7016.06 9711.76,6905.81 9636.9,6963.88 9636.9,6655.35 9852.87,6873.54 "/>
      <path class="fil8" d="M9615.94 6845.68c-44.49,0 -79.24,-15.43 -91.2,-38.94 -17.89,-35.13 -4.4,-109.26 106.09,-169.52 87.94,-48.02 175.42,-28.21 197.03,6.47 9.32,14.97 10.55,35.87 3.45,58.86 -11.85,38.43 -49.96,90.71 -121.39,122.23 -33.04,14.58 -65.5,20.9 -93.98,20.9zm122.81 -220.24l0 0c-29.69,0 -64.79,7.59 -99.8,26.67 -99.15,54.09 -113.4,118.82 -99.1,146.94 14.29,28.01 83.27,45.48 163.21,10.21 66.29,-29.26 101.78,-78.46 112.04,-111.71 5.6,-18.22 5.02,-34.15 -1.66,-44.88 -9.78,-15.71 -38.13,-27.23 -74.69,-27.23z"/>
      <path class="fil8" d="M9567.82 6867.68c-11.95,0 -23.89,-4.79 -32.46,-16.27l0 -0.01c-9.38,-12.55 -11.14,-26.43 -4.95,-39.04 7.42,-15.15 25.52,-25.96 43.99,-26.29 15.52,-0.04 28.31,6.99 35.24,19.92 12.12,22.7 0.96,43.4 -15.48,53.86 -7.74,4.93 -17.04,7.83 -26.34,7.83zm-18.87 -26.44l0 0c9.44,12.66 25.33,11.07 36.09,4.29 9.57,-6.08 17.11,-17.55 9.62,-31.55 -4.94,-9.25 -13.88,-11.24 -19.96,-10.94 -11.97,0.2 -24.45,7.43 -29.04,16.8 -3.35,6.79 -2.24,14 3.29,21.4z"/>
      <path class="fil8" d="M9615.69 6913.1l-10.17 -13.6c5.07,-3.79 10.95,-9.5 10.19,-15.16 -1.33,-9.97 -20.12,-20.41 -29.01,-23.89l6.18 -15.82c3.75,1.46 36.61,14.91 39.66,37.42 1.5,11.12 -4.16,21.56 -16.85,31.05z"/>
     </g>
     <g>
      <path class="fil8" d="M9088 7289.06c0,0 60.89,-58.78 167.06,-88.33l53.97 53.97c-29.55,106.17 -88.33,167.06 -88.33,167.06 -86.42,-24.42 -157.25,43.51 -157.25,43.51l-5.59 -5.6 109.85 -109.85c9.28,5.72 21.46,4.61 29.56,-3.49 9.35,-9.35 9.35,-24.49 0,-33.83 -9.35,-9.35 -24.49,-9.35 -33.83,-0.01 -8.1,8.1 -9.22,20.28 -3.49,29.56l-109.86 109.86 -5.6 -5.6c0,0 67.93,-70.82 43.51,-157.25z"/>
      <polygon class="fil8" points="9269.16,7160.86 9348.91,7240.6 9315.34,7274.17 9235.6,7194.42 "/>
     </g>
     <polygon class="fil2" points="9886.52,7496.1 9470.79,7496.1 9470.79,7107.78 9886.52,7107.78 "/>
     <g>
      <g>
       <path class="fil8" d="M9621.45 7289.06c0,0 60.88,-58.78 167.06,-88.33l53.97 53.97c-29.56,106.17 -88.34,167.06 -88.34,167.06 -86.42,-24.42 -157.25,43.51 -157.25,43.51l-5.59 -5.6 109.86 -109.85c9.28,5.72 21.46,4.61 29.55,-3.49 9.35,-9.35 9.35,-24.49 0,-33.83 -9.35,-9.35 -24.48,-9.35 -33.83,-0.01 -8.1,8.1 -9.22,20.28 -3.49,29.56l-109.86 109.86 -5.59 -5.6c0,0 67.93,-70.82 43.51,-157.25z"/>
       <polygon class="fil8" points="9802.61,7160.86 9882.35,7240.6 9848.79,7274.17 9769.04,7194.42 "/>
      </g>
      <path class="fil8" d="M9583.53 7460.39c-25.39,0 -46.53,-10.46 -58,-28.7 -11.92,-18.93 -19.4,-55.52 12.65,-122.3 11.42,-23.79 13.1,-43.3 4.96,-57.99 -13.94,-25.18 -52.17,-29.74 -52.55,-29.77l1.89 -16.88c1.92,0.22 47.36,5.67 65.51,38.43 10.96,19.77 9.43,44.52 -4.49,73.57 -28.71,59.77 -23.25,90.59 -13.61,105.89 11.37,18.07 32.22,20.77 43.64,20.77l0 16.98z"/>
     </g>
     <g>
      <path class="fil8" d="M9298.26 7650.84l0 69.29 -1.61 0 -4.87 0 -16.61 0c-5.27,0 -8.51,-2.82 -9.74,-7.69 -0.39,-2.44 -1.2,-7.7 -2.01,-16.61l-59.57 0 0 207.88c4.86,0.81 8.9,1.63 11.74,2.03 2.84,0.41 4.87,1.22 6.09,1.22 1.2,0 2.03,0.39 2.42,0.39 6.9,1.64 10.55,5.68 10.55,12.57l0 23.91 -30.8 0 -54.71 0 -30.39 0 0 -23.91c0,-6.89 3.23,-10.93 10.13,-12.57 0.41,0 1.22,-0.39 2.42,-0.39 1.22,0 3.25,-0.81 6.09,-1.22 2.84,-0.4 6.88,-1.22 11.75,-2.03l0 -208.29 -59.58 0c-0.81,8.92 -1.62,14.58 -2.01,17.02 -1.22,4.87 -4.06,7.69 -9.32,7.69l-17.03 0 -4.87 0 -1.61 0 0 -69.29 6.07 0 0.41 0 230.58 0 6.48 0z"/>
     </g>
     <path class="fil8" d="M9339.31 8508.28l-297.33 0 0 -297.3 297.33 0 0 297.3zm-271.87 -25.46l0 0 246.4 0 0 -246.38 -246.4 0 0 246.38z"/>
     <g>
      <path class="fil8" d="M9808.03 9394.71l-256.67 0 0 -229.79 256.67 0 0 229.79zm-231.21 -25.46l0 0 205.75 0 0 -178.87 -205.75 0 0 178.87z"/>
      <path class="fil8" d="M9667.06 9462.47l-178.86 0 0 -161.01 178.86 0 0 161.01zm-153.4 -25.46l0 0 127.94 0 0 -110.09 -127.94 0 0 110.09z"/>
      <polygon class="fil8" points="9698.76,9288.9 9686.76,9276.9 9751.46,9212.21 9763.46,9224.21 "/>
      <polygon class="fil8" points="9769.71,9256.62 9752.74,9256.62 9752.74,9222.72 9720.25,9222.72 9720.25,9205.75 9769.71,9205.75 "/>
     </g>
     <g>
      <path class="fil8" d="M9822.11 8508.37l-297.46 0 0 -297.46 138.83 0c7.37,-55.66 54.28,-97.66 111.77,-97.66 62.16,0 112.74,50.58 112.74,112.74 0,44.17 -26.13,84.4 -65.88,102.77l0 179.61zm-271.99 -25.46l0 0 246.53 0 0 -171.51 8.32 -3.08c34.43,-12.68 57.56,-45.77 57.56,-82.33 0,-48.12 -39.16,-87.27 -87.28,-87.27 -47.76,0 -86.1,37.44 -87.28,85.24l-0.32 12.41 -137.53 0 0 246.54z"/>
      <path class="fil8" d="M9712.66 8294.35c-44.33,-7.39 -50.56,39.32 -51.26,57.58 -0.71,18.26 -22.48,36.52 -35.82,39.33 0,0 68.82,18.96 103.23,-16.15 32.34,-33.01 13.34,-75.85 -16.15,-80.76z"/>
      <path class="fil8" d="M9864.45 8151.67l-111.16 157.11c-7.1,-13.85 -19.6,-23.98 -34.47,-26.35 -2.7,-0.34 -5.4,-0.68 -7.77,-0.68l92.24 -130.08 61.16 0z"/>
     </g>
     <g>
      <polygon class="fil8" points="9132.15,8990.24 9054.02,8912.11 9213.26,8752.88 9291.38,8831.01 "/>
      <polygon class="fil8" points="9304.46,8817.92 9226.34,8739.8 9260.11,8706.03 9338.23,8784.16 "/>
      <polygon class="fil8" points="9047.19,8997.08 9053.4,8914.01 9070.34,8915.27 9065.59,8978.67 9128.99,8973.92 9130.25,8990.86 "/>
     </g>
     <g>
      <g>
       <path class="fil8" d="M9766.24 8864.81c-33.03,0 -59.92,-26.89 -59.92,-59.93 0,-33.04 26.89,-59.92 59.92,-59.92 33.04,0 59.91,26.88 59.91,59.92 0,33.04 -26.87,59.93 -59.91,59.93zm0 -94.39l0 0c-18.99,0 -34.46,15.46 -34.46,34.46 0,19 15.47,34.46 34.46,34.46 19,0 34.45,-15.46 34.45,-34.46 0,-19 -15.45,-34.46 -34.45,-34.46z"/>
       <path class="fil8" d="M9490.76 8958.68l235.11 -129.47 40.37 22.86c0,0 -171.19,104.63 -201.53,115.73 -30.34,11.1 -73.95,-9.12 -73.95,-9.12z"/>
      </g>
      <g>
       <path class="fil8" d="M9765.37 8998.15c-33.04,0 -59.93,-26.87 -59.93,-59.91 0,-33.04 26.89,-59.92 59.93,-59.92 33.03,0 59.92,26.88 59.92,59.92 0,33.04 -26.89,59.91 -59.92,59.91zm0 -94.37l0 0c-19,0 -34.47,15.47 -34.47,34.46 0,19 15.47,34.45 34.47,34.45 18.99,0 34.46,-15.45 34.46,-34.45 0,-18.99 -15.47,-34.46 -34.46,-34.46z"/>
       <path class="fil8" d="M9489.9 8784.45l235.1 129.45 40.37 -22.85c0,0 -171.19,-104.63 -201.52,-115.73 -30.34,-11.1 -73.95,9.13 -73.95,9.13z"/>
      </g>
     </g>
     <g>
      <path class="fil8" d="M9043.65 9423.93l0 -220.47 140.64 110.24 -140.64 110.23zm25.47 -168.16l0 0 0 115.85 73.9 -57.92 -73.9 -57.93z"/>
      <polygon class="fil8" points="9337.29,9206.71 9337.29,9420.68 9201.13,9313.69 "/>
      <path class="fil8" d="M9197.8 9431.03l-8.48 0 0 -33.95 8.48 0 0 33.95zm0 -67.9l0 0 -8.48 0 0 -33.95 8.48 0 0 33.95zm0 -67.9l0 0 -8.48 0 0 -33.95 8.48 0 0 33.95zm0 -67.9l0 0 -8.48 0 0 -33.95 8.48 0 0 33.95z"/>
     </g>
    </g>
    <g>
     <polygon class="fil7" points="20234.81,4778.52 18095.66,4778.52 18095.66,3509.38 20234.81,3509.38 "/>
     <g>
      <polygon class="fil8" points="18209.08,3623.11 18144.89,3558.92 18150.93,3552.92 18215.11,3617.11 "/>
      <polygon class="fil8" points="18150.93,3623.11 18144.89,3617.11 18209.08,3552.92 18215.11,3558.92 "/>
     </g>
     <g>
      <g>
       <polygon class="fil8" points="20138.24,3626.26 20100.15,3588.15 20106.15,3582.14 20144.24,3620.26 "/>
       <polygon class="fil8" points="20106.15,3594.15 20100.15,3588.15 20138.24,3550.05 20144.24,3556.05 "/>
      </g>
      <g>
       <polygon class="fil8" points="20180.25,3626.26 20142.15,3588.15 20148.16,3582.14 20186.25,3620.26 "/>
       <polygon class="fil8" points="20148.16,3594.15 20142.15,3588.15 20180.25,3550.05 20186.25,3556.05 "/>
      </g>
     </g>
     <polygon class="fil8" points="18482.2,4545.3 18473.71,4545.3 18473.71,3711.36 18482.2,3711.36 "/>
     <polygon class="fil8" points="18789.83,4545.3 18781.35,4545.3 18781.35,3711.36 18789.83,3711.36 "/>
     <g>
      <path class="fil8" d="M18321.47 3788.22c-61.73,0 -89.09,50.48 -89.09,50.48 0,0 29.95,50.76 89.09,50.76 59.12,0 90.48,-50.76 90.48,-50.76 0,0 -29.05,-50.48 -90.48,-50.48zm0 92.02l0 0c-23.08,0 -41.54,-18.47 -41.54,-41.25 0,-23.08 18.46,-41.54 41.54,-41.54 22.78,0 41.24,18.46 41.24,41.54 0,22.78 -18.46,41.25 -41.24,41.25z"/>
      <path class="fil8" d="M18353.29 3838.84c0,17.66 -14.32,31.97 -31.97,31.97 -17.66,0 -31.97,-14.31 -31.97,-31.97 0,-17.65 14.31,-31.97 31.97,-31.97 17.65,0 31.97,14.32 31.97,31.97z"/>
     </g>
     <g>
      <path class="fil8" d="M18321.47 4078.33c-61.73,0 -89.09,50.48 -89.09,50.48 0,0 29.95,50.76 89.09,50.76 59.12,0 90.48,-50.76 90.48,-50.76 0,0 -29.05,-50.48 -90.48,-50.48zm0 92.02l0 0c-23.08,0 -41.54,-18.47 -41.54,-41.25 0,-23.08 18.46,-41.54 41.54,-41.54 22.78,0 41.24,18.46 41.24,41.54 0,22.78 -18.46,41.25 -41.24,41.25z"/>
      <path class="fil8" d="M18353.29 4128.95c0,17.66 -14.32,31.97 -31.97,31.97 -17.66,0 -31.97,-14.31 -31.97,-31.97 0,-17.65 14.31,-31.96 31.97,-31.96 17.65,0 31.97,14.31 31.97,31.96z"/>
     </g>
     <g>
      <path class="fil8" d="M18321.47 4355.48c-61.73,0 -89.09,50.48 -89.09,50.48 0,0 29.95,50.76 89.09,50.76 59.12,0 90.48,-50.76 90.48,-50.76 0,0 -29.05,-50.48 -90.48,-50.48zm0 92.01l0 0c-23.08,0 -41.54,-18.46 -41.54,-41.25 0,-23.07 18.46,-41.53 41.54,-41.53 22.78,0 41.24,18.46 41.24,41.53 0,22.79 -18.46,41.25 -41.24,41.25z"/>
      <path class="fil8" d="M18353.29 4406.1c0,17.66 -14.32,31.97 -31.97,31.97 -17.66,0 -31.97,-14.31 -31.97,-31.97 0,-17.66 14.31,-31.97 31.97,-31.97 17.65,0 31.97,14.31 31.97,31.97z"/>
     </g>
     <polygon class="fil8" points="20146.43,3994 18184.04,3994 18184.04,3985.51 20146.43,3985.51 "/>
     <polygon class="fil8" points="20146.43,4272.39 18184.04,4272.39 18184.04,4263.91 20146.43,4263.91 "/>
     <g>
      <path class="fil8" d="M19017.53 3899.18l-0.39 0c-2.62,0 -4.88,-2.22 -4.88,-4.86l0 -132.07c0,-2.63 2.26,-4.86 4.88,-4.86 2.85,0 5.07,2.23 5.07,4.86l0 127 67.83 0c2.86,0 5.08,2.24 5.08,5.07 0,2.64 -2.22,4.86 -5.08,4.86l-72.51 0z"/>
      <path class="fil8" d="M19207.34 3804.79l0 89.53c0,2.64 -2.22,4.86 -4.87,4.86 -2.62,0 -4.84,-2.22 -4.84,-4.86l0 -14.78c-8.52,11.73 -22.08,19.64 -37.27,19.64 -26.12,0 -47.01,-22.48 -47.01,-49.63 0,-27.14 20.89,-49.62 47.01,-49.62 15.19,0 28.75,7.69 37.27,19.45l0 -14.59c0,-2.84 2.22,-4.86 4.84,-4.86 2.65,0 4.87,2.02 4.87,4.86zm-9.71 44.76l0 0c0,-22.28 -16.81,-40.1 -37.27,-40.1 -20.25,0 -37.26,17.82 -37.26,40.1 0,22.28 17.01,39.91 37.26,39.91 20.46,0 37.27,-17.63 37.27,-39.91z"/>
      <path class="fil8" d="M19247.46 3804.59c0,-2.64 2.22,-4.66 4.64,-4.66 2.85,0 5.07,2.02 5.07,4.66l0 53.88c0,17 13.56,30.58 30.37,30.58 17.04,0 30.6,-13.58 30.8,-30.58l0 -53.88c0,-0.81 0.2,-1.82 0.8,-2.44 0,-0.2 0.23,-0.39 0.23,-0.59 0.2,0 0.2,-0.22 0.4,-0.22 0.4,-0.6 1.19,-1.01 1.82,-1.21l0.4 0c0.2,0 0.4,-0.2 0.6,-0.2l0.63 0 0.59 0c0.8,0.2 1.63,0.6 2.42,1.01 0.4,0.4 1.03,1.01 1.23,1.63 0.4,0.59 0.6,1.41 0.6,2.02l0 53.88 0 1.82 0 30.98c0,25.93 -21.06,46.6 -47.18,46.6 -7.3,0 -14.19,-1.83 -20.46,-4.66 -2.25,-1.42 -3.25,-4.26 -2.02,-6.48 1.19,-2.44 3.85,-3.05 6.27,-2.44 4.87,2.44 10.54,3.85 16.21,3.85 20.65,0 37.26,-16.39 37.46,-36.87l0 -6.48c-7.49,8.52 -18.43,14.19 -30.8,14.19 -22.08,-0.2 -40.08,-18.23 -40.08,-40.51l0 -53.88z"/>
      <path class="fil8" d="M19361.68 3849.76c0,-27.55 21.48,-49.83 48.2,-49.83 25.53,0 45.79,20.26 47.81,46.18l0 0.21 0 0.61c0,2.62 -2.22,4.44 -4.84,4.44l-81.43 0c0.99,21.68 18.01,38.09 38.46,38.09 13.16,0 25.33,-6.89 32.03,-18.03 1.39,-2.44 4.44,-2.84 6.46,-1.63 2.22,1.63 3.05,4.46 1.63,6.9 -8.53,13.56 -23.31,22.48 -40.12,22.48 -26.72,0 -48.2,-22.28 -48.2,-49.42zm10.34 -7.9l0 0 75.13 0c-3.22,-18.64 -19.03,-32.21 -37.27,-32.21 -18.63,0 -34.22,13.38 -37.86,32.21z"/>
      <path class="fil8" d="M19487.86 3804.99c0,-2.84 2.22,-4.86 5.07,-4.86 2.42,0 4.64,2.02 4.64,4.86l0 21.88c0.43,-0.81 0.83,-1.63 1.43,-2.44 7.49,-11.73 20.65,-24.3 39.72,-24.3 2.62,0 4.84,2.02 4.84,4.86 0,2.63 -2.22,4.87 -4.84,4.87 -12.97,0 -21.88,7.28 -28.78,16.2 -6.7,8.92 -10.54,19.05 -11.94,23.09 -0.43,0.81 -0.43,1.21 -0.43,1.62l0 43.55c0,2.84 -2.22,4.86 -4.64,4.86 -2.85,0 -5.07,-2.02 -5.07,-4.86l0 -89.33z"/>
      <path class="fil8" d="M19652.93 3771.77l-20.02 11.75c-0.63,0.41 -1.63,0.81 -2.46,0.81 -1.82,0 -3.44,-1.01 -4.24,-2.44 -1.42,-2.63 -0.6,-5.46 1.82,-6.67l27.36 -16.62c2.22,-1.21 5.47,-0.39 6.66,1.83 0.63,1.21 0.83,2.44 0.63,3.65l0 130.24c0,2.64 -2.02,4.86 -4.87,4.86 -2.62,0 -4.88,-2.22 -4.88,-4.86l0 -122.55z"/>
     </g>
     <g>
      <path class="fil8" d="M19017.53 4191.3l-0.39 0c-2.62,0 -4.88,-2.22 -4.88,-4.86l0 -132.07c0,-2.63 2.26,-4.85 4.88,-4.85 2.85,0 5.07,2.22 5.07,4.85l0 127 67.83 0c2.86,0 5.08,2.24 5.08,5.07 0,2.64 -2.22,4.86 -5.08,4.86l-72.51 0z"/>
      <path class="fil8" d="M19207.34 4096.91l0 89.53c0,2.64 -2.22,4.86 -4.87,4.86 -2.62,0 -4.84,-2.22 -4.84,-4.86l0 -14.79c-8.52,11.74 -22.08,19.65 -37.27,19.65 -26.12,0 -47.01,-22.48 -47.01,-49.63 0,-27.14 20.89,-49.62 47.01,-49.62 15.19,0 28.75,7.69 37.27,19.45l0 -14.59c0,-2.84 2.22,-4.86 4.84,-4.86 2.65,0 4.87,2.02 4.87,4.86zm-9.71 44.76l0 0c0,-22.28 -16.81,-40.1 -37.27,-40.1 -20.25,0 -37.26,17.82 -37.26,40.1 0,22.28 17.01,39.91 37.26,39.91 20.46,0 37.27,-17.63 37.27,-39.91z"/>
      <path class="fil8" d="M19247.46 4096.71c0,-2.64 2.22,-4.66 4.64,-4.66 2.85,0 5.07,2.02 5.07,4.66l0 53.88c0,17 13.56,30.58 30.37,30.58 17.04,0 30.6,-13.58 30.8,-30.58l0 -53.88c0,-0.81 0.2,-1.82 0.8,-2.44 0,-0.2 0.23,-0.39 0.23,-0.59 0.2,0 0.2,-0.22 0.4,-0.22 0.4,-0.6 1.19,-1.01 1.82,-1.21l0.4 0c0.2,0 0.4,-0.2 0.6,-0.2l0.63 0 0.59 0c0.8,0.2 1.63,0.6 2.42,1.01 0.4,0.4 1.03,1.01 1.23,1.63 0.4,0.59 0.6,1.41 0.6,2.02l0 53.88 0 1.82 0 30.98c0,25.93 -21.06,46.6 -47.18,46.6 -7.3,0 -14.19,-1.82 -20.46,-4.66 -2.25,-1.43 -3.25,-4.26 -2.02,-6.48 1.19,-2.44 3.85,-3.05 6.27,-2.44 4.87,2.44 10.54,3.85 16.21,3.85 20.65,0 37.26,-16.4 37.46,-36.87l0 -6.48c-7.49,8.52 -18.43,14.19 -30.8,14.19 -22.08,-0.2 -40.08,-18.24 -40.08,-40.51l0 -53.88z"/>
      <path class="fil8" d="M19361.68 4141.88c0,-27.55 21.48,-49.83 48.2,-49.83 25.53,0 45.79,20.26 47.81,46.19l0 0.19 0 0.62c0,2.62 -2.22,4.44 -4.84,4.44l-81.43 0c0.99,21.68 18.01,38.09 38.46,38.09 13.16,0 25.33,-6.89 32.03,-18.03 1.39,-2.44 4.44,-2.84 6.46,-1.63 2.22,1.63 3.05,4.46 1.63,6.9 -8.53,13.56 -23.31,22.48 -40.12,22.48 -26.72,0 -48.2,-22.28 -48.2,-49.42zm10.34 -7.91l0 0 75.13 0c-3.22,-18.63 -19.03,-32.2 -37.27,-32.2 -18.63,0 -34.22,13.37 -37.86,32.2z"/>
      <path class="fil8" d="M19487.86 4097.11c0,-2.84 2.22,-4.86 5.07,-4.86 2.42,0 4.64,2.02 4.64,4.86l0 21.88c0.43,-0.81 0.83,-1.62 1.43,-2.44 7.49,-11.73 20.65,-24.3 39.72,-24.3 2.62,0 4.84,2.02 4.84,4.86 0,2.63 -2.22,4.87 -4.84,4.87 -12.97,0 -21.88,7.28 -28.78,16.2 -6.7,8.91 -10.54,19.04 -11.94,23.09 -0.43,0.81 -0.43,1.21 -0.43,1.62l0 43.55c0,2.84 -2.22,4.86 -4.64,4.86 -2.85,0 -5.07,-2.02 -5.07,-4.86l0 -89.33z"/>
      <path class="fil8" d="M19629.66 4182.6l66.24 -59.76c7.89,-7.3 12.13,-17.01 12.13,-27.14 0,-8.72 -3.25,-17.42 -9.51,-24.32 -7.1,-7.89 -17.01,-11.93 -26.92,-11.93 -8.92,0 -17.64,3.03 -24.73,9.31l-6.9 6.27c-2.02,2.04 -5.24,1.82 -6.86,-0.2 -2.02,-2.02 -1.83,-5.26 0.19,-6.88l6.9 -6.48c8.89,-7.91 20.26,-11.95 31.4,-11.95 12.33,0 24.9,4.85 34.01,15.18 8.29,8.92 12.14,20.06 12.14,31 0,12.55 -5.04,25.11 -15.18,34.43l-56.7 51.24 67.04 0c2.62,0 4.84,2.24 4.84,5.07 0,2.64 -2.22,4.86 -4.84,4.86l-79.01 0 -0.79 0c-1.43,0 -2.85,-0.4 -3.65,-1.43 -1.82,-2.22 -1.82,-5.25 0.2,-7.27z"/>
     </g>
     <g>
      <path class="fil8" d="M19017.53 4483.42l-0.39 0c-2.62,0 -4.88,-2.22 -4.88,-4.86l0 -132.07c0,-2.63 2.26,-4.85 4.88,-4.85 2.85,0 5.07,2.22 5.07,4.85l0 127 67.83 0c2.86,0 5.08,2.24 5.08,5.07 0,2.64 -2.22,4.86 -5.08,4.86l-72.51 0z"/>
      <path class="fil8" d="M19207.34 4389.03l0 89.53c0,2.64 -2.22,4.86 -4.87,4.86 -2.62,0 -4.84,-2.22 -4.84,-4.86l0 -14.78c-8.52,11.73 -22.08,19.64 -37.27,19.64 -26.12,0 -47.01,-22.48 -47.01,-49.63 0,-27.14 20.89,-49.62 47.01,-49.62 15.19,0 28.75,7.7 37.27,19.45l0 -14.59c0,-2.83 2.22,-4.86 4.84,-4.86 2.65,0 4.87,2.03 4.87,4.86zm-9.71 44.76l0 0c0,-22.28 -16.81,-40.1 -37.27,-40.1 -20.25,0 -37.26,17.82 -37.26,40.1 0,22.28 17.01,39.92 37.26,39.92 20.46,0 37.27,-17.64 37.27,-39.92z"/>
      <path class="fil8" d="M19247.46 4388.83c0,-2.63 2.22,-4.66 4.64,-4.66 2.85,0 5.07,2.03 5.07,4.66l0 53.87c0,17.01 13.56,30.59 30.37,30.59 17.04,0 30.6,-13.58 30.8,-30.59l0 -53.87c0,-0.81 0.2,-1.82 0.8,-2.44 0,-0.19 0.23,-0.4 0.23,-0.59 0.2,0 0.2,-0.22 0.4,-0.22 0.4,-0.59 1.19,-1.01 1.82,-1.21l0.4 0c0.2,0 0.4,-0.2 0.6,-0.2l0.63 0 0.59 0c0.8,0.2 1.63,0.6 2.42,1.01 0.4,0.4 1.03,1.02 1.23,1.63 0.4,0.6 0.6,1.41 0.6,2.02l0 53.87 0 1.83 0 30.98c0,25.93 -21.06,46.6 -47.18,46.6 -7.3,0 -14.19,-1.82 -20.46,-4.66 -2.25,-1.42 -3.25,-4.26 -2.02,-6.48 1.19,-2.44 3.85,-3.05 6.27,-2.44 4.87,2.44 10.54,3.85 16.21,3.85 20.65,0 37.26,-16.4 37.46,-36.87l0 -6.48c-7.49,8.52 -18.43,14.19 -30.8,14.19 -22.08,-0.2 -40.08,-18.23 -40.08,-40.52l0 -53.87z"/>
      <path class="fil8" d="M19361.68 4434c0,-27.55 21.48,-49.83 48.2,-49.83 25.53,0 45.79,20.26 47.81,46.19l0 0.19 0 0.62c0,2.62 -2.22,4.44 -4.84,4.44l-81.43 0c0.99,21.68 18.01,38.1 38.46,38.1 13.16,0 25.33,-6.9 32.03,-18.04 1.39,-2.44 4.44,-2.84 6.46,-1.62 2.22,1.62 3.05,4.45 1.63,6.89 -8.53,13.56 -23.31,22.48 -40.12,22.48 -26.72,0 -48.2,-22.28 -48.2,-49.42zm10.34 -7.9l0 0 75.13 0c-3.22,-18.64 -19.03,-32.21 -37.27,-32.21 -18.63,0 -34.22,13.37 -37.86,32.21z"/>
      <path class="fil8" d="M19487.86 4389.23c0,-2.84 2.22,-4.86 5.07,-4.86 2.42,0 4.64,2.02 4.64,4.86l0 21.88c0.43,-0.81 0.83,-1.62 1.43,-2.44 7.49,-11.74 20.65,-24.3 39.72,-24.3 2.62,0 4.84,2.02 4.84,4.86 0,2.64 -2.22,4.87 -4.84,4.87 -12.97,0 -21.88,7.28 -28.78,16.2 -6.7,8.92 -10.54,19.04 -11.94,23.09 -0.43,0.81 -0.43,1.21 -0.43,1.62l0 43.55c0,2.84 -2.22,4.86 -4.64,4.86 -2.85,0 -5.07,-2.02 -5.07,-4.86l0 -89.33z"/>
      <path class="fil8" d="M19715.53 4350.54l-36.67 37.68c8.92,1.82 17.44,6.08 24.33,12.96 9.32,9.32 13.96,21.68 13.96,34.03 0,12.35 -4.64,24.72 -14.19,34.03 -9.31,9.32 -21.65,14.18 -34.01,14.18 -12.14,0 -24.5,-4.66 -33.82,-14.18 -2.02,-1.82 -2.02,-5.07 0,-7.09 1.82,-2.02 5.07,-2.02 7.09,0 7.5,7.29 17.01,10.94 26.73,10.94 9.71,0 19.46,-3.65 26.95,-10.94 7.49,-7.49 11.14,-17.22 11.14,-26.94 0,-9.73 -3.65,-19.44 -11.14,-26.74 -7.29,-7.49 -17.04,-11.14 -26.76,-11.14 -1.62,0 -3.01,-0.81 -4.04,-2.02l-0.2 0c-2.02,-2.02 -2.02,-5.27 0,-7.29l35.25 -36.26 -54.28 0c-2.85,0 -5.07,-2.24 -5.07,-5.07 0,-2.83 2.22,-5.05 5.07,-5.05l66.21 0c2.85,0 5.07,2.22 5.07,5.05 0,0.81 -0.2,1.62 -0.59,2.24 -0.2,0.59 -0.6,1.21 -1.03,1.61z"/>
     </g>
     <polygon class="fil7" points="18874.49,4249.34 18810.97,4249.34 18810.97,4008.57 18874.49,4008.57 "/>
     <polygon class="fil2" points="18874.49,4526.49 18810.97,4526.49 18810.97,4285.71 18874.49,4285.71 "/>
     <polygon class="fil5" points="18874.49,3959.23 18810.97,3959.23 18810.97,3718.45 18874.49,3718.45 "/>
     <polygon class="fil8" points="18556.96,4684.63 18184.04,4684.63 18184.04,4676.14 18556.96,4676.14 "/>
     <g>
      <polygon class="fil8" points="18697.03,3932.53 18567.91,3932.53 18567.91,3824.04 18697.03,3824.04 "/>
      <path class="fil8" d="M18681.4 3835.97l-15.01 0 0 -28.5c0,-31.39 -11.11,-47.31 -32.97,-47.31 -35.53,0 -35.93,41.99 -35.93,43.78l0 32.03 -15.01 0 0 -32.03c0,-28.32 15.94,-58.78 50.94,-58.78 30.95,0 47.98,22.13 47.98,62.31l0 28.5z"/>
     </g>
     <path class="fil8" d="M19974.53 3904.86c-36.41,0 -66.01,-29.61 -66.01,-66.01 0,-36.41 29.6,-66.03 66.01,-66.03 36.4,0 66.01,29.62 66.01,66.03 0,36.4 -29.61,66.01 -66.01,66.01zm0 -123.55l0 0c-31.73,0 -57.52,25.81 -57.52,57.54 0,31.71 25.79,57.52 57.52,57.52 31.72,0 57.52,-25.81 57.52,-57.52 0,-31.73 -25.8,-57.54 -57.52,-57.54z"/>
     <path class="fil8" d="M19974.53 4194.97c-36.41,0 -66.01,-29.62 -66.01,-66.02 0,-36.41 29.6,-66.01 66.01,-66.01 36.4,0 66.01,29.6 66.01,66.01 0,36.4 -29.61,66.02 -66.01,66.02zm0 -123.55l0 0c-31.73,0 -57.52,25.82 -57.52,57.53 0,31.73 25.79,57.54 57.52,57.54 31.72,0 57.52,-25.81 57.52,-57.54 0,-31.71 -25.8,-57.53 -57.52,-57.53z"/>
     <path class="fil8" d="M19974.53 4485.07c-36.41,0 -66.01,-29.61 -66.01,-66.01 0,-36.4 29.6,-66.01 66.01,-66.01 36.4,0 66.01,29.61 66.01,66.01 0,36.4 -29.61,66.01 -66.01,66.01zm0 -123.53l0 0c-31.73,0 -57.52,25.81 -57.52,57.52 0,31.71 25.79,57.52 57.52,57.52 31.72,0 57.52,-25.81 57.52,-57.52 0,-31.71 -25.8,-57.52 -57.52,-57.52z"/>
    </g>
   </g>
   <g>
    <g>
     <g>
      <g>
       <polygon class="fil3" points="16061.92,12558.01 15970.69,13105.11 15352.67,16442.67 15253.05,16442.67 15702.46,13105.11 15768.87,12558.01 "/>
      </g>
     </g>
     <polygon class="fil1" points="15768.87,12558.01 16061.92,12558.01 15970.69,13105.11 15702.46,13105.11 "/>
    </g>
    <g>
     <g>
      <g>
       <polygon class="fil3" points="18002.71,16442.67 17903.09,16442.67 17285.07,13105.11 17193.84,12558.01 17486.89,12558.01 17553.3,13105.11 "/>
      </g>
     </g>
     <polygon class="fil1" points="17486.89,12558.01 17553.3,13105.11 17285.07,13105.11 17193.84,12558.01 "/>
    </g>
    <g>
     <g>
      <g>
       <polygon class="fil3" points="19856.46,16442.67 19756.83,16442.67 19138.81,13105.11 19047.58,12558.01 19340.63,12558.01 19407.04,13105.11 "/>
      </g>
     </g>
     <polygon class="fil1" points="19407.04,13105.11 19138.81,13105.11 19047.58,12558.01 19340.63,12558.01 "/>
    </g>
    <polygon class="fil3" points="19698.45,12815.07 15169.8,12815.07 15169.8,12337.89 16865.1,12337.89 17434.86,8317.42 19525.8,8317.42 "/>
    <polygon class="fil9" points="19434.61,12337.91 15169.8,12337.91 15169.8,12815.07 19451.59,12815.07 "/>
    <polygon class="fil9" points="19698.45,12815.07 19451.59,12815.07 19290.7,8317.42 19525.8,8317.42 "/>
   </g>
   <g>
    <g>
     <g>
      <g>
       <path class="fil10" d="M15091.62 17066.94c87.7,8.26 2474.82,-562.91 2549.96,-640.43 9.19,-8.61 -37.94,-225.58 -107.22,-521.44l-1.34 -5.82c-43.24,-187.58 -740.35,-1704.32 -740.35,-1704.32l-1547.15 433.09 704.54 1407.21c0,0 -291.05,210.57 -540.57,410.49 -0.26,0.42 -0.61,0.49 -0.53,0.84 -154.11,122.76 -286.94,233.05 -315.12,268.75 -72.96,93.24 -89.77,344.05 -2.22,351.63z"/>
       <path class="fil4" d="M15091.73 17066.81c87.47,8.34 2474.56,-562.88 2550,-640.25 9.12,-8.79 -38.17,-225.48 -107.34,-521.54l-1.41 -5.62c-15.88,-69.89 -123.28,-324.81 -251.1,-616.94 -254.61,68.76 -1167.34,316.32 -1498.85,419.24l166.86 333.54c0,0 -291,210.73 -540.55,410.52 0,0.35 -0.35,0.35 -0.35,0.7 -154.09,122.76 -287.11,233.21 -315.17,268.71 -72.97,93.52 -89.92,344.36 -2.09,351.64z"/>
       <g>
        <path class="fil11" d="M15083.8 17078.3c90.2,7.74 2478.98,-570 2556.17,-649.6 29.42,-30.04 -23.82,-407.02 -155.04,-806.39l-1539.62 374.31c0,0 -785.86,623.41 -861.14,719.8 -74.77,96.27 -90.56,354.14 -0.37,361.88z"/>
        <g>
         <g>
          <path class="fil2" d="M15094.95 16974.46c398.05,-106.68 2013.61,-499.38 2415.19,-574.58 3.27,-0.62 3.8,1.58 0.61,2.51 -392.23,114.35 -2010.92,493.96 -2414.23,578.64 -8.51,1.78 -9.98,-4.33 -1.57,-6.57z"/>
          <path class="fil2" d="M15217.04 16593.33c94.03,-26.84 197.75,-4.18 263.2,39.85 62.89,42.31 123.93,108.43 141.2,192.15 0.49,2.4 -3.89,3.53 -4.85,1.16 -60.77,-151.17 -236.58,-254.34 -398.35,-228.14 -3.26,0.53 -4.42,-4.1 -1.2,-5.02z"/>
          <path class="fil2" d="M15829.41 16067.15c159.74,-40.98 359.24,-29.36 490.53,77.63 5.1,4.15 -0.88,11.32 -6.22,10.02 -162.96,-39.65 -314.15,-61.99 -482.29,-67.25 -11.86,-0.37 -13.46,-17.46 -2.02,-20.4z"/>
          <path class="fil2" d="M15717.35 16145.31c159.74,-40.99 359.23,-29.36 490.54,77.63 5.08,4.15 -0.89,11.31 -6.24,10.01 -162.94,-39.64 -314.14,-61.99 -482.29,-67.24 -11.85,-0.37 -13.44,-17.46 -2.01,-20.4z"/>
          <path class="fil2" d="M15605.29 16223.47c159.73,-40.99 359.24,-29.35 490.54,77.63 5.09,4.15 -0.89,11.32 -6.24,10.01 -162.95,-39.64 -314.13,-61.99 -482.3,-67.25 -11.84,-0.36 -13.45,-17.45 -2,-20.39z"/>
          <path class="fil2" d="M15493.23 16301.63c159.73,-40.99 359.23,-29.35 490.53,77.63 5.09,4.15 -0.88,11.31 -6.23,10.02 -162.94,-39.66 -314.14,-62 -482.29,-67.25 -11.85,-0.38 -13.45,-17.46 -2.01,-20.4z"/>
          <path class="fil2" d="M17316.16 16044.21c179.94,-42.97 247.03,236.61 66.78,279.66 -179.95,42.96 -247.03,-236.62 -66.78,-279.66z"/>
         </g>
         <path class="fil2" d="M15622.38 15913.2c113.47,90.67 262.24,129.04 395.44,180.37 13.82,5.33 25.05,-7.58 25.7,-19.91 2.67,-0.44 4.92,-2.43 3.9,-5.79 -42.37,-135.98 -136.39,-281.09 -244.77,-374.62 -66.92,-57.75 -185.02,-98.78 -249.88,-11.88 -61.34,82.18 3.35,178.89 69.61,231.83zm-39.54 -130.99l0 0c-26.23,-178.23 163.49,-82.32 211.11,-37.79 30.62,28.61 58.32,61.47 84.7,93.94 55.26,68.07 99.8,142.71 147.75,215.65 -63.89,-29.23 -129.71,-52.73 -194.6,-79.56 -77.36,-32 -234.5,-93.97 -248.96,-192.24z"/>
         <path class="fil2" d="M16591.85 15828.01c-37.88,-101.6 -162.74,-95.37 -243.18,-58.72 -130.27,59.36 -261.23,172.25 -340.06,290.89 -1.93,2.92 -0.32,5.47 2.12,6.65 -2.83,12.01 4.31,27.55 19.07,26.31 142.26,-11.89 295.82,-6.97 430.18,-62.16 78.43,-32.22 167.67,-106.88 131.87,-202.97zm-350.06 203l0 0c-69.83,7.54 -139.59,11.62 -209.12,21.75 66.48,-56.55 130.19,-115.7 202.33,-165.51 34.43,-23.78 70.24,-47.54 107.65,-66.42 58.22,-29.36 267.22,-68.19 192.02,95.52 -41.44,90.27 -209.66,105.66 -292.88,114.66z"/>
        </g>
       </g>
      </g>
      <g>
       <path class="fil2" d="M15774.88 15906.54l1657.55 -497.14c0,0 -1366.23,-2847.29 -1323.16,-2992.12 28.77,-96.75 2077.28,-103.42 2677.62,-642.51 621.4,-558.01 137.57,-1653.98 137.57,-1653.98l-1722.27 -8.89c0,0 29.59,359.48 -36.22,415.38 -43.38,37.26 -2398.14,244.48 -2849.04,1110.27 -409.26,785.82 1457.95,4268.99 1457.95,4268.99z"/>
       <path class="fil2" d="M16109.19 12417.22c-7.46,24.39 25.81,126.76 86.5,279.75l-1237.86 1520.86c-441.46,-1006.32 -856.47,-2166.82 -640.98,-2580.2 451.11,-865.73 2805.54,-1073.04 2849.29,-1110.27 65.44,-55.85 35.94,-415.51 35.94,-415.51l1093.19 5.64 -1816.85 2231.61c-218.77,24.1 -361.78,42.91 -369.23,68.12z"/>
       <g>
        <g>
         <path class="fil7" d="M15733.74 15555.87c42.87,-21.67 90.02,-34.91 135.14,-50.25 47.8,-16.24 95.61,-32.65 143.67,-48.11 94.59,-30.45 189.54,-59.56 285.14,-86.58 192.49,-54.42 385.31,-107.79 579.21,-157.07 101.06,-25.69 317.61,-81.76 331.05,-79.69 6.46,1 7.89,11.8 2.13,13.86 -187.35,67.06 -377.61,124.49 -567.84,182.5 -189.9,57.91 -380.18,115.16 -572.72,163.76 -53.32,13.46 -106.99,25.42 -160.47,38.22 -55.97,13.42 -112.6,31.32 -170.38,36.52 -5.55,0.49 -10.98,-10.1 -4.93,-13.16z"/>
        </g>
        <path class="fil7" d="M18831.94 10448.84c-5.31,-57.48 -11.74,-114.86 -18.26,-172.23 -0.76,-6.63 -11.17,-6.56 -10.5,0.2 22.97,232.9 46.55,471.34 3.7,703.43 -40.09,217.1 -146.42,407.09 -307.61,557.41 -341.71,318.65 -819.48,412.48 -1264.66,488.22 -254.99,43.39 -511.48,76.74 -768.88,102 -126.07,12.36 -252.36,22.47 -378.8,30.34 -125.31,7.78 -250.87,9 -376.14,15.97 -39.56,2.2 -74.88,20.29 -68.71,65.52 3.74,27.41 19.15,54.02 30.12,79.08 13.34,30.48 26.84,60.9 40.28,91.33 50.28,113.75 100.85,227.36 151.71,340.85 104.83,233.88 211.22,467.04 319.02,699.58 214.02,461.65 436.2,919.64 666.1,1373.59 28.53,56.35 57.15,112.66 85.84,168.94 1.87,3.67 7.17,0.33 5.42,-3.32 -219.7,-459.79 -437.09,-920.77 -651.09,-1383.25 -106.21,-229.54 -212.7,-458.94 -317.78,-689.01 -52.53,-115 -104.74,-230.15 -156.66,-345.43 -25.95,-57.65 -51.83,-115.32 -77.63,-173.04 -12.9,-28.85 -25.77,-57.72 -38.64,-86.59 -10.69,-23.99 -49.68,-81.5 -22.78,-103.93 17.96,-14.98 55.27,-9.83 76.81,-10.45 33.31,-0.96 66.61,-2.2 99.93,-3.31 63.28,-2.1 126.55,-4.66 189.79,-7.84 128.13,-6.43 256.14,-15.19 383.95,-26.27 250.36,-21.68 499.91,-53.41 747.99,-93.33 442.4,-71.18 923.47,-151.47 1277.54,-448.44 156.15,-130.98 278.89,-299.57 339.6,-495.23 67.55,-217.66 61.07,-450.39 40.34,-674.79z"/>
       </g>
      </g>
     </g>
     <g>
      <g>
       <path class="fil10" d="M11449.65 14884.53c62.29,62.29 2265.23,1144.7 2372.54,1132.91 12.57,-0.77 114.64,-197.95 249.95,-470.02l2.68 -5.34c86.32,-172.06 870.01,-1619.42 870.01,-1619.42l-1370.57 -693.9 -805.43 1408.55c0,0 -358.46,-23.42 -678.15,-28.57 -0.47,0.17 -0.79,0 -0.95,0.31 -196.99,-3.71 -369.65,-3.48 -414.11,6.04 -115.67,25.3 -288.56,207.77 -225.97,269.44z"/>
       <path class="fil4" d="M11449.62 14884.41c62.34,62.27 2265.23,1144.84 2372.72,1132.95 12.46,-0.57 114.55,-197.93 249.83,-469.77l2.65 -5.36c6.01,-11.95 12.19,-24.19 18.68,-36.26 4.26,-8.9 8.82,-17.61 13.7,-26.16 6.53,-12.85 13.54,-25.84 20.54,-38.83 59.7,-113.16 157.71,-296.26 265.63,-496.76l-1397.49 -704.33 -227.13 397.39c0,0 -358.39,-23.29 -678.12,-28.57 -0.48,0.13 -0.79,-0.04 -0.96,0.26 -196.94,-3.57 -369.7,-3.46 -413.96,6.07 -115.63,25.44 -288.79,207.72 -226.09,269.37z"/>
       <g>
        <path class="fil11" d="M11436.39 14888.29c64.54,63.49 2272.94,1141.89 2383.17,1129.81 41.81,-4.37 241.22,-328.7 394.84,-720l-1424.6 -693.55c0,0 -1002.89,-21 -1122.34,5.24 -118.99,26.47 -295.61,215.02 -231.07,278.5z"/>
        <g>
         <g>
          <path class="fil2" d="M11511.21 14815.42c374.62,171.69 1869.44,899.51 2226.73,1097.69 2.9,1.6 1.91,3.63 -1.14,2.32 -375.04,-162.06 -1863.92,-901.97 -2228.57,-1093.95 -7.69,-4.05 -4.94,-9.69 2.98,-6.06z"/>
          <path class="fil2" d="M11848.3 14599.72c89.54,39.29 154.98,122.89 177.32,198.54 21.46,72.7 26.31,162.56 -13.79,238.05 -1.15,2.17 -5.24,0.24 -4.46,-2.2 49.59,-155.18 -20.04,-346.78 -161.35,-429.76 -2.85,-1.68 -0.79,-5.99 2.28,-4.63z"/>
          <path class="fil2" d="M12655.55 14584.95c149.18,70.3 295.41,206.49 328.31,372.63 1.27,6.45 -7.89,8.16 -11.18,3.75 -100.22,-134.47 -202.42,-248.09 -328.59,-359.38 -8.89,-7.85 0.78,-22.03 11.46,-17z"/>
          <path class="fil2" d="M12519.39 14573.69c149.18,70.3 295.42,206.48 328.33,372.63 1.26,6.44 -7.9,8.15 -11.19,3.74 -100.22,-134.46 -202.44,-248.09 -328.6,-359.38 -8.9,-7.84 0.78,-22.03 11.46,-16.99z"/>
          <path class="fil2" d="M12383.22 14562.43c149.18,70.3 295.43,206.49 328.33,372.63 1.28,6.44 -7.89,8.15 -11.19,3.73 -100.22,-134.45 -202.42,-248.08 -328.6,-359.37 -8.88,-7.84 0.78,-22.03 11.46,-16.99z"/>
          <path class="fil2" d="M12247.06 14551.17c149.18,70.29 295.42,206.48 328.33,372.62 1.28,6.44 -7.89,8.16 -11.19,3.74 -100.22,-134.45 -202.43,-248.09 -328.6,-359.37 -8.88,-7.85 0.78,-22.02 11.46,-16.99z"/>
          <path class="fil2" d="M13815.34 15515.43c166.01,81.67 39.38,339.8 -126.9,258.01 -166.01,-81.68 -39.39,-339.8 126.9,-258.01z"/>
         </g>
         <path class="fil2" d="M12594.26 14334.34c29.58,142.21 119.7,266.63 189.56,391.12 7.24,12.91 24.13,10.13 32.49,1.06 2.34,1.35 5.35,1.26 6.69,-1.99 54.09,-131.75 74.21,-303.48 50.38,-444.64 -14.71,-87.16 -79.52,-194.07 -184.89,-168.51 -99.66,24.18 -111.5,139.93 -94.23,222.96zm53.08 -126.11l0 0c93.46,-154.01 178.43,40.85 186.72,105.52 5.33,41.56 5.71,84.55 5.32,126.38 -0.85,87.67 -14.14,173.57 -23.72,260.32 -30.57,-63.25 -66.29,-123.32 -99.16,-185.38 -39.17,-73.97 -120.7,-221.93 -69.16,-306.84z"/>
         <path class="fil2" d="M13395.32 14886.98c35.62,-102.41 -64.54,-177.24 -149.86,-200.3 -138.19,-37.36 -311.07,-33.92 -447.43,7.19 -3.36,1.01 -3.74,4.01 -2.61,6.46 -9.85,7.45 -14.25,23.98 -2.1,32.44 117.15,81.56 232.3,183.28 370.98,226.46 80.97,25.21 197.31,24.61 231.02,-72.25zm-399.1 -66.88l0 0c-58.6,-38.72 -114.92,-80.06 -174.93,-116.6 87.26,-1.16 174.05,-6.09 261.39,1.54 41.67,3.65 84.41,8.19 125.27,17.51 63.57,14.5 249.31,117.88 86.99,196.03 -89.5,43.09 -228.88,-52.34 -298.72,-98.48z"/>
        </g>
       </g>
      </g>
      <g>
       <path class="fil2" d="M12775.71 14409.4l1652.64 825.8c0,0 1289.94,-2622.64 1431.48,-2791.63 188.67,-225.28 2645.93,92.88 3225.52,-634.67 599.39,-752.43 85.8,-1686.84 85.8,-1686.84l-1870.48 -1.15c0,0 -5.54,207.46 102.3,510.76 0,0 -2138.88,-127.27 -2744.12,461.06 -464.58,451.59 -1883.14,3316.67 -1883.14,3316.67z"/>
       <g>
        <path class="fil7" d="M17743.86 10820.51c-96.48,-65.35 -194.44,-127.16 -297.54,-181.78 -52.08,-27.59 -158.92,-74.92 -225.4,-91.06 -54.51,-13.23 -78.45,-17.21 -27.27,6.96 29.29,13.83 85.43,40.55 137.59,65.35 -9.83,-0.32 -19.58,-0.62 -29,-1.1 -36.73,-1.89 -73.54,-3.16 -110.31,-4.11 -71.88,-1.86 -143.91,-1.4 -215.81,-1.82 -146,-0.85 -290.5,12.96 -436.09,20.25 -3.86,0.19 -3.73,6.13 0.14,6.01 145.3,-4.74 291.26,2.99 436.65,2.39 72,-0.29 143.87,1.76 215.85,3.11 35.15,0.66 70.31,1.32 105.46,1.87 29,0.45 59.91,2.8 89.33,0.12 15.6,7.4 29.78,14.13 40.08,18.99 105.75,49.86 211.29,101.93 313.15,159.3 3.01,1.7 6.16,-2.46 3.17,-4.48z"/>
        <path class="fil7" d="M17256.5 10050.97c19,88.25 35.3,177.09 57.42,264.66 10.14,40.16 20.1,81.02 33.86,120.13 11.59,33.01 29.58,70.85 67.02,79.4 43.18,9.86 56.84,-26.95 54.51,-62.95 -2.59,-40.19 -11.49,-80.68 -18.07,-120.35 -7.6,-45.74 -15.28,-91.46 -22.01,-137.36 -3.36,-22.94 -6.9,-45.87 -10,-68.85 -0.78,-5.78 -3.58,-49.61 -6.28,-62.23 -0.38,1.04 -1.09,2.04 -2.46,1.8 -0.5,-0.09 -1,-0.18 -1.51,-0.27 -1.18,-0.2 -2.45,-1.03 -2.59,-2.35 -0.33,-3.45 -0.26,-4.16 2.41,-6.48 1.16,-1.02 2.74,-0.9 3.99,-0.17 8.15,4.84 8.37,16.25 10.77,24.73 6.32,22.39 12.78,44.73 18.5,67.3 10.69,42.17 21.09,84.47 30.3,126.99 9.2,42.49 18.12,85.05 27.08,127.6 6.71,31.8 14.8,65.36 5.19,97.5 -10.5,35.11 -39.39,52 -70.61,53.66 1.42,2.91 3.12,5.68 4.33,8.68 3.53,8.74 6.03,18.03 8.98,26.97 3.02,9.18 5.73,18.3 8.03,27.68 1.1,4.44 1.73,9.04 2.07,13.6 0.39,5.1 -0.81,10.01 -0.33,15.11 0.74,7.86 -10.05,12.31 -13.73,4.42 -2.14,-4.58 -5.36,-8.12 -7.77,-12.51 -2.53,-4.6 -4.26,-9.89 -5.78,-14.87 -2.68,-8.84 -4.89,-17.66 -6.83,-26.71 -1.91,-8.91 -4.33,-17.89 -5.68,-26.92 -0.79,-5.36 -0.81,-10.78 -1.09,-16.19 -17.71,-2.39 -35.27,-9.1 -49.82,-20.9 -25.44,-20.62 -39.69,-51.26 -49.59,-81.71 -11.98,-36.87 -20.95,-74.92 -29.94,-112.62 -22.25,-93.29 -40.67,-187.97 -46.3,-283.87 -0.6,-10.15 13.68,-13.39 15.93,-2.92z"/>
        <path class="fil7" d="M18158.34 10302.24c6.46,43.69 10.02,87.74 18.58,131.11 8.38,42.47 18.4,84.97 30.89,126.42 11.95,39.63 26.96,79.72 49.59,114.6 21.93,33.84 51.43,63.38 82.03,89.38 60.02,51.01 128.48,92.27 201.69,121.35 36.88,14.65 74.66,27.32 113.08,37.29 20.02,5.21 40.27,9.4 60.69,12.73 16.99,2.77 33.84,3.96 48.78,13.05 6.38,3.88 4.95,14.09 -1.5,16.99 -26.6,11.98 -63.17,3.66 -91.01,-0.16 -32.62,-4.47 -64.92,-11.09 -96.54,-20.32 -63.7,-18.62 -125.12,-47.75 -180.95,-83.55 -54.79,-35.14 -109.66,-78.55 -149.23,-130.69 -41.01,-54.05 -62.86,-116.65 -76,-182.62 -15.73,-79.05 -25.55,-164.69 -18.53,-245.19 0.42,-4.71 7.72,-5.22 8.43,-0.39z"/>
        <g>
         <path class="fil7" d="M13111.09 14108.71c46.05,13.68 89.43,36.42 132.76,56.25 45.91,21 91.93,41.91 137.49,63.66 89.67,42.81 178.69,86.83 266.75,132.82 177.31,92.6 354.16,186.19 528.97,283.48 91.11,50.71 287.05,158.63 295.4,169.36 4.02,5.16 -2.37,13.99 -7.97,11.53 -182.26,-79.88 -360.02,-168.74 -538.14,-257.17 -177.84,-88.29 -355.5,-177.3 -528.85,-274.16 -48.01,-26.83 -95.23,-54.98 -142.91,-82.38 -49.9,-28.69 -103.36,-54.55 -148.94,-90.44 -4.38,-3.45 -1.05,-14.88 5.44,-12.95z"/>
        </g>
        <path class="fil7" d="M19169.86 10557.01c-0.18,-7.99 -12.47,-7.75 -12.4,0.24 3.56,406.17 -59.19,860.3 -371.79,1151.62 -342.78,319.45 -837.28,357.56 -1282.3,353.83 -255.45,-2.13 -510.42,-8.66 -765.87,-0.54 -256.6,8.16 -515.77,20.77 -770.59,53.3 -102.85,13.13 -189.06,50.16 -261.66,125.14 -70.61,72.93 -121.31,162.97 -173.42,249.29 -128.48,212.86 -252.97,428.12 -373.37,645.65 -239.34,432.39 -460.66,874.43 -664.44,1324.68 -25.3,55.93 -50.34,111.97 -75.14,168.12 -1.64,3.71 3.84,6.84 5.56,3.11 206.88,-452.04 430.6,-896.32 668,-1333.07 118.74,-218.44 241.58,-434.66 368.42,-648.5 59.63,-100.5 117.35,-203.39 183.81,-299.6 58.73,-85.03 132.26,-164.93 234.05,-195.78 61.35,-18.59 126.81,-21.82 190.31,-27.66 65.23,-5.99 130.52,-11.37 195.86,-16.14 127.33,-9.3 254.83,-16.26 382.42,-20.91 257.53,-9.38 514.65,-6.23 772.22,-1.57 447.14,8.09 935.62,-7.32 1306.34,-291.94 160.35,-123.11 275.95,-291.86 344.59,-481.22 69.99,-193.08 94.97,-400.3 99.65,-604.68 1.17,-51.12 0.94,-102.26 -0.25,-153.37z"/>
        <path class="fil7" d="M16492.97 12335.94c-91.22,1.61 -182.4,5.43 -273.59,8.48 -75.88,2.55 -152.15,1.77 -226.38,20.23 -69.03,17.16 -123.89,25.53 -180.37,102.72 -70.54,96.42 -454.5,838.21 -615.75,1166.63 -44.71,91.07 -88.87,182.35 -132.18,274.09 -44.73,94.76 -84.37,191.85 -128.92,286.64 -1.63,3.48 3.53,6.39 5.26,2.91 39.48,-79.28 83.45,-156.39 124.22,-235.02 40.81,-78.71 80.46,-158.06 120.09,-237.37 80,-160.13 159.95,-320.29 240.45,-480.17 79.8,-158.48 176.71,-312.98 257.69,-470.86 68.05,-132.68 160.89,-313.79 225.71,-340.64 76.33,-31.61 200.59,-62.88 282.36,-68.6 100.53,-7.03 201.18,-13.18 301.59,-21.83 4.59,-0.4 4.5,-7.29 -0.18,-7.21z"/>
       </g>
      </g>
     </g>
    </g>
    <g>
     <g>
      <path class="fil2" d="M18503.32 7583.3c85.79,339.11 245.92,731.71 167.48,1085.67 -61.86,277.29 -265.98,497.39 -491.01,658.07 -495.19,353.01 -1251.45,541.07 -1744.18,78.8 -196.74,-184.72 -315.28,-629.3 -96.39,-845.9 112.52,-110.97 262.87,-162.21 401.33,-232.03 182.83,-91.56 300.14,-228.9 352.63,-427.5 102.8,-386.89 15.07,-636.75 -29.53,-1023.26 -8.05,-71.73 -5.82,-144.54 51.53,-218.23 46.25,-72.81 117.63,-130.79 199.56,-171.33 67.5,-44.63 141.31,-77.77 222.82,-85.54 171.79,-16.98 365.03,104.91 514.96,174.76 151.74,70.86 233.28,160.58 277.4,323.66 61.1,226.67 115.6,455.22 173.4,682.83z"/>
      <path class="fil2" d="M18578.81 7735.94c-98.67,-305.77 -203.18,-609.11 -305.81,-913.46 -0.62,-1.83 -3.58,-1.22 -3,0.7 77.16,252.86 150.79,506.46 231.3,758.4 78.89,246.88 176.97,495.32 233.94,748.26 127.9,567.79 -410.54,920.31 -900.98,992.03 -22.3,3.26 -14.61,38.42 7.88,34.41 428.59,-76.52 907.44,-326.72 940.91,-816.44 18.31,-267.87 -123.58,-553.94 -204.24,-803.9z"/>
      <path class="fil2" d="M17084.99 6841.56c-1.39,-6.06 -10.31,-3.91 -9.35,2.14 50.13,316.41 138.27,680.63 15.88,990.32 -59.89,151.53 -165.95,284.08 -301.52,374.77 -107.79,72.11 -231.74,101.94 -349.86,151.41 -461.85,193.45 -332.91,844.26 68.86,1025.84 8.45,3.81 15.34,-10.55 7.01,-14.78 -286.46,-145.56 -440.9,-485.43 -294,-788.41 117.9,-243.18 440.96,-240.11 637.33,-398.65 406.92,-328.52 328.85,-889.42 225.65,-1342.64z"/>
     </g>
     <g>
      <g>
       <path class="fil12" d="M17937.09 8121.22c-212.03,458.18 -936.29,1520.92 -1285.27,1569.37 -308.75,42.86 -1073.02,-134.75 -1330.53,-276.18 -118.35,-65 179.46,-942.11 378.15,-900.47 248.31,52.05 584.37,174.59 814.55,188.83 81.46,5.04 473.8,-275.15 1164.88,-730.31 257.02,-169.27 377.63,-109.28 258.22,148.76z"/>
       <g>
        <g>
         <path class="fil12" d="M15299.65 8623.12c0,0 -614.74,-95.05 -646.35,-89.25 -31.8,6.31 -24.99,51.23 -21.11,86.82 0.85,8.63 12.54,30.42 26.81,59.12 46.24,91.28 124.26,254.32 0.35,291.33 -162.97,48.66 -338.95,-317.51 -357.46,-379.03 -4.79,-16.59 -3.34,-47.51 4.87,-84.79 22.16,-100.28 91.76,-246.57 210.15,-284.28 162.28,-51.77 347.7,-29.23 510.01,-21.08l272.73 421.16z"/>
         <path class="fil2" d="M15299.65 8623.12c0,0 -614.74,-95.05 -646.35,-89.25 -31.8,6.31 -24.99,51.23 -21.11,86.82 0.85,8.63 12.54,30.42 26.81,59.12 -125.58,-60.91 -264.1,-128.76 -352.24,-172.49 22.16,-100.28 91.76,-246.57 210.15,-284.28 162.28,-51.77 347.7,-29.23 510.01,-21.08l272.73 421.16z"/>
        </g>
        <g>
         <path class="fil12" d="M15321.29 9414.41c-32.12,-17.19 -197.39,-65.99 -420.83,-143.36 -60.02,-172.56 -219.83,-502.29 -261.74,-589.77 -30.03,-105.31 -154.22,-313.36 -163.86,-308.65 -18.12,8.77 -82.14,39.8 -162.81,71.22 -106.66,41.35 -242.24,83.9 -339.23,77.7 -52.89,-3.48 -93.85,-21.07 -113.31,-60.8 -34.82,-71.37 118.29,-154.14 291.09,-268.08 235.14,-155.45 532.46,-333.59 677.99,-290.67 215.04,63.36 427.19,326.32 499.36,397.23 72.53,70.94 371.49,214.71 371.49,214.71 -61.38,322.58 -335.04,923.05 -378.15,900.47z"/>
        </g>
        <path class="fil2" d="M14614.36 8615.78c-2.65,-4.32 -5.15,-2.14 -3.18,3.27 6.19,16.93 32.8,92.71 16.27,100.92 -28.75,14.3 -200.76,-78.51 -279.72,-104.81 -4.26,-1.41 -6.6,4.35 -2.48,5.45 21.59,5.77 97.3,46.14 115.96,55.4 36.22,17.98 142.54,80.74 178.72,62.76 24.2,-12.03 -15.19,-106.05 -25.57,-122.99z"/>
        <g>
         <path class="fil2" d="M13771.82 9029.15c-21.23,20.7 -44.71,37.58 -54.76,28.03l-0.33 -0.34c-9.29,-10.29 8.18,-33.33 29.41,-54.03l25.68 26.34z"/>
         <path class="fil13" d="M14017.91 9000.03c-22.18,21.62 -190.64,38.85 -252.89,35.76 -12.13,-0.6 -25.63,-14.18 -25.9,-25.88 -1.45,-61.51 20.14,-230.67 42.4,-252.36 15.08,-14.7 85.17,-51.24 153.33,-93.83 89.25,-55.21 1047.58,-943.35 1063.33,-947.58 15.74,-4.23 44.42,19.49 58.72,34.16 14.3,14.67 37.68,44.35 33.05,59.98 -5.02,15.23 -916.87,951.05 -974.33,1038.86 -44.33,67.05 -82.63,136.19 -97.71,150.89z"/>
         <path class="fil1" d="M14017.79 9000.19c-1.71,1.67 -4.44,3.66 -8.51,4.96 -61.99,-39.64 -109.11,-79.77 -144.8,-116.36 -48.02,-49.26 -75.17,-92.17 -89.69,-119.38 1.77,-5.72 4.18,-9.41 6.57,-11.74 2.4,-2.34 6.15,-5.33 10.92,-8.65 20.42,41.48 81.97,142.25 235.12,239.13 -3.79,5.7 -7.22,9.71 -9.61,12.04z"/>
         <g>
          <path class="fil2" d="M14009.36 8784.63l-12.72 -13.06c-9.93,-10.18 -9.72,-26.48 0.46,-36.4l268.84 -262.07c10.18,-9.93 26.48,-9.72 36.4,0.46l12.73 13.06c9.92,10.18 9.72,26.48 -0.46,36.4l-268.84 262.07c-10.18,9.93 -26.48,9.72 -36.41,-0.46z"/>
          <path class="fil1" d="M14020.22 8768.74l-7.43 -7.62c-5.79,-5.94 -5.67,-15.46 0.27,-21.25l172.57 -168.22c5.94,-5.79 15.45,-5.67 21.25,0.27l7.43 7.63c5.8,5.94 5.68,15.46 -0.27,21.25l-172.56 168.21c-5.95,5.8 -15.46,5.68 -21.26,-0.27z"/>
          <polygon class="fil2" points="14103.25,8708.72 14094.7,8717.06 14066.36,8687.99 14074.9,8679.66 "/>
         </g>
        </g>
        <path class="fil12" d="M14900.46 9271.05c-76.41,-26.22 -144.65,-48.76 -191.46,-62.79 -184.36,-55.15 -268.87,-145.6 -342.99,-253.63 -73.39,-107.96 -449.03,-223.66 -266.3,-337.1 183.1,-113.42 509.96,164.29 541.82,116.44 5.96,-9.09 4.28,-28.07 -2.81,-52.69 41.91,87.48 201.72,417.21 261.74,589.77z"/>
       </g>
      </g>
      <g>
       <g>
        <path class="fil5" d="M16885.57 8397.6l759.56 304.43c0,0 239.84,-334.12 346.48,-537.75 141.1,-269.46 74.12,-385.03 -273.54,-250.22 -232.62,90.2 -832.5,483.54 -832.5,483.54z"/>
       </g>
       <path class="fil2" d="M17552.41 8665.15c8.75,1.79 87.79,30.47 92.86,34.16 27.22,-40 53.92,-80.36 81.59,-120.07 13.82,-19.83 28.03,-39.5 42.47,-58.88 15.93,-21.38 32.91,-46.53 47.02,-65.41 2.2,-2.97 6.17,-0.49 4.26,2.7 -15.86,26.4 -28.55,45.57 -42.42,68.34 -12.37,20.31 -25.31,40.47 -38.58,60.2 -28.14,41.81 -56.3,87.59 -86.44,127.95 -2.33,3.11 -94.51,-41.53 -101.99,-46.32 -1.29,-0.83 -0.16,-2.95 1.23,-2.67z"/>
       <path class="fil2" d="M16991.53 8356.47c113.6,36.66 226.39,74.87 337.67,118.15 55.51,21.58 110.66,43.97 165.49,67.23 54.74,23.24 107.28,52.18 162.27,74.57 3.02,1.23 0.85,6.02 -2.13,4.62 -53.66,-25.24 -111.36,-43.4 -166.35,-65.68 -55.2,-22.35 -110.53,-44.44 -165.97,-66.19 -110.7,-43.45 -221.44,-87.17 -333.11,-128.08 -3.12,-1.14 -0.92,-5.6 2.13,-4.62z"/>
      </g>
     </g>
     <g>
      <path class="fil11" d="M17139.06 10207.87l2157.92 174.35c0,0 -552.29,-1882.62 -997.09,-2357.87 -202.4,-216.27 -400.24,-183.23 -567.89,-44.11 -41.83,34.77 -560.43,692.98 -604.36,922.38 -38.82,202.74 125.96,427.76 125.96,427.76l-114.54 877.49z"/>
      <g>
       <path class="fil2" d="M17458.64 8329.19c-64.98,103.81 -135.73,203.78 -201.09,306.83 -33.07,51.13 -64.98,103.03 -91.12,157.63 -26.54,54.21 -44.22,113.04 -44.61,174.56 -3.46,-30.38 -2.3,-61.52 3.47,-92.28 5.76,-30.38 15.37,-59.98 27.68,-88.43 23.83,-57.29 56.52,-109.57 88.43,-161.87 31.15,-46.9 63.06,-93.81 96.12,-139.18 5.39,-16.15 11.92,-31.92 18.08,-47.68 10.37,-22.69 20.37,-45.75 33.83,-66.9 -6.15,24.22 -15.76,47.29 -24.99,70.36 -3.08,6.54 -5.77,12.69 -8.46,19.23 33.07,-44.99 67.29,-89.21 102.66,-132.27z"/>
      </g>
      <g>
       <path class="fil2" d="M17832.59 9284.8c-83.57,3.63 -167.6,10.11 -249.82,26.08 -40.91,7.95 -81.17,17.74 -121.44,28.42 -20.07,5.32 -40.19,9.96 -60.45,14.5 -20.78,4.66 -43.04,8.84 -64.44,8.26 -1.93,-0.05 -2.05,2.82 -0.13,2.99 20.74,1.79 40.59,3.46 61.45,2.48 19.82,-0.92 39.66,-3.98 59.17,-7.58 41.57,-7.66 82.76,-17.26 124.24,-25.35 83.7,-16.32 167.36,-32.62 252.05,-42.87 3.9,-0.47 3.32,-7.11 -0.63,-6.93z"/>
       <path class="fil2" d="M18034.2 9370.77c-67.9,-10.99 -137.37,-18.91 -206.11,-22.13 -34.58,-1.62 -68.97,-1.23 -103.56,0.07 -16.51,0.62 -33.02,1.54 -49.49,2.66 -18.14,1.22 -36.14,4.89 -54.27,5.86 -1.89,0.1 -2.07,3.03 -0.13,2.98 17.14,-0.4 34.42,2.05 51.55,2.65 17.22,0.61 34.44,1.08 51.65,1.67 34.48,1.19 68.92,2.76 103.41,3.63 69.05,1.74 137.76,4.16 206.71,8.28 3.73,0.23 3.75,-5.1 0.24,-5.67z"/>
      </g>
     </g>
     <g>
      <g>
       <path class="fil12" d="M18017.14 7925.54c2.24,38.99 -101.92,327.1 -270.91,368.5 -55.06,13.39 -141.56,-283.88 -141.56,-283.88l-11.41 -20.48 -159.39 -286.87 292.44 -338.05 43.09 -46.04c0,0 38.43,81.36 85.27,183.15 2.2,4.71 4.4,9.42 6.68,14.49 2.8,5.69 5.51,11.03 7.88,16.46 7.19,15.11 14.47,30.58 21.4,46.14 5.32,11.81 10.56,23.29 15.69,35.9 5.48,12.52 10.53,24.77 16.02,37.3 51.33,124.61 93.62,256.88 94.8,273.38z"/>
       <path class="fil2" d="M17854.67 7501.87c-15.8,270.44 -181.65,427.77 -261.41,487.81l-159.39 -286.87 292.44 -338.05 43.09 -46.04c0,0 38.43,81.36 85.27,183.15z"/>
      </g>
      <g>
       <path class="fil12" d="M16894.77 7269.4c18.61,575.65 365.5,629.51 489.63,625.36 112.68,-3.77 495.88,-30.92 536.84,-605.41 40.97,-574.51 -232.57,-747.83 -490.73,-752.85 -258.18,-5.01 -554.36,157.23 -535.74,732.9z"/>
       <g>
        <path class="fil2" d="M16972.76 7167.4c13.41,-2.3 25.4,-6.66 38.42,-10.32 14.7,-4.11 26.82,-5.88 37.18,-17.98 5.55,-6.5 4.4,-19 -1.39,-24.98 -13.51,-13.94 -32.77,-13.37 -50.67,-9.13 -19.42,4.6 -33.2,13.1 -45.34,28.9 -11.76,15.32 4.11,36.54 21.8,33.51z"/>
        <path class="fil2" d="M17367.06 7144.69c-13.58,-0.84 -25.97,-3.88 -39.31,-6.09 -15.07,-2.5 -27.31,-2.94 -38.91,-13.85 -6.22,-5.84 -6.44,-18.41 -1.32,-24.97 11.91,-15.33 31.11,-16.85 49.35,-14.59 19.81,2.47 34.45,9.43 48.23,23.81 13.34,13.95 -0.13,36.78 -18.04,35.69z"/>
        <g>
         <g>
          <path class="fil2" d="M17283.61 7290.8c0.26,-1.5 3.12,1.76 3.12,3.37 -0.02,39.23 6.54,84.18 42.41,96.09 1.11,0.37 1.06,2.34 -0.26,2.2 -43.46,-4.75 -51.59,-64.5 -45.27,-101.66z"/>
          <path class="fil2" d="M17317.34 7248.78c62.89,-6.75 71.76,119.54 13.48,125.79 -57.34,6.14 -66.2,-120.14 -13.48,-125.79z"/>
         </g>
         <path class="fil2" d="M17342.6 7253.71c11.54,6.37 23.22,18.23 36.61,18.61 15.5,0.44 26.19,-13.6 35.35,-27.01 0.95,-1.4 2.12,-0.37 2.26,1.29 2.06,24.18 -5.5,49.65 -31.19,55.08 -23.43,4.95 -41.93,-15.28 -49.67,-39.18 -1.45,-4.42 2,-11.36 6.64,-8.79z"/>
        </g>
        <g>
         <g>
          <path class="fil2" d="M17065.58 7297.81c-0.43,-1.46 -2.92,2.09 -2.74,3.69 4.28,39 2.63,84.39 -31.72,100.13 -1.07,0.48 -0.81,2.44 0.49,2.15 42.69,-9.43 44.28,-69.7 33.97,-105.97z"/>
          <path class="fil2" d="M17027.48 7259.71c-63.26,0.12 -58.35,126.62 0.24,126.51 57.68,-0.12 52.79,-126.62 -0.24,-126.51z"/>
         </g>
         <path class="fil2" d="M17001.42 7269.05c-9.74,7.09 -19.14,19.66 -31.06,20.91 -13.8,1.44 -24.56,-11.85 -33.92,-24.62 -0.97,-1.33 -1.92,-0.23 -1.91,1.45 0.28,24.21 9.25,49.08 32.65,52.82 21.35,3.41 36.12,-17.94 40.94,-42.25 0.91,-4.5 -2.78,-11.17 -6.7,-8.31z"/>
        </g>
        <path class="fil2" d="M17310.63 7611.6c-8.26,10.21 -16.11,23.85 -30.12,26.67 -13.42,2.72 -30.01,-1.57 -43.01,-4.94 -1.28,-0.33 -2.38,1.11 -1.46,2.19 11.85,13.78 34.22,20.67 51.91,15.42 17.27,-5.13 24.23,-21.38 26.63,-38 0.35,-2.34 -2.73,-2.82 -3.95,-1.34z"/>
        <g>
         <path class="fil2" d="M17155.43 7556.59c0,0 26.87,36.56 63.82,49.87 13.61,4.95 28.29,6.93 43.69,2.89 31.64,-8.19 32.54,-37.19 26.83,-62.03 -4.62,-20.43 -14.01,-38.05 -14.01,-38.05 0,0 -46.32,43.02 -120.33,47.32z"/>
         <path class="fil14" d="M17219.25 7606.46c13.61,4.95 28.29,6.93 43.69,2.89 31.64,-8.19 32.54,-37.19 26.83,-62.03 -33.89,3.34 -67.52,26.21 -70.52,59.14z"/>
        </g>
        <g>
         <path class="fil2" d="M17138.69 7479.64c0,0 -4.66,58.94 -3.05,86.53 0.16,2.58 6.9,3.42 16.29,3.42 0.46,0.11 0.72,0.28 1.08,-0.03 49.15,4.75 97.21,-14.92 124.48,-56.41 1.76,-2.8 -1.91,-5.44 -4.32,-3.58 -34.8,28.83 -74.58,38.06 -117.73,41.3 -2.39,-7.53 11.37,-100.68 6.98,-100.76 -15.15,-0.41 -44.26,11.58 -61.8,17.84 6.16,-123.06 32,-244.14 36.29,-366.76 0.08,-4.39 -6.26,-5.32 -7.3,-1.37 -36.07,124.98 -46.26,266.45 -55.89,393.37 -1.36,15.82 54.21,-8.21 64.97,-13.55z"/>
        </g>
       </g>
       <path class="fil2" d="M17879.97 7335.26c-62.61,-3.96 -225.01,-176.87 -228.86,-479.31 0,0 22.23,271.35 42.49,311.21 20.27,39.85 -90.79,-97.3 -97.31,-341.18 0,0 -135.44,96.98 -250.73,128.83 -115.28,31.84 -185.75,30.49 -193.95,22.13 -8.2,-8.37 161.48,-61.12 207.51,-113.79 0,0 -306.9,141.27 -448.16,151.51 -16.35,1.18 -34.56,-334.82 184.28,-476.56 218.84,-141.75 564.11,13.52 656.76,103.69 0,0 109.16,15.95 227.21,177.9 118.07,161.93 -31.81,519.83 -99.24,515.57z"/>
       <g>
        <path class="fil5" d="M17359.29 7477.91c-99.31,-8.32 -173.34,-95.89 -165.05,-195.19l0 -0.02c8.32,-99.32 95.86,-173.36 195.21,-165.04 99.31,8.32 173.35,95.87 165.05,195.21 -7.02,84 -70.75,149.91 -150.29,163.22 -14.53,2.44 -29.57,3.1 -44.92,1.82zm-140.97 -193.19l0 0c-7.17,86.04 56.96,161.9 143.01,169.11 85.99,7.29 161.87,-56.96 169.1,-142.98 7.16,-86.04 -56.97,-161.91 -143.01,-169.1 -13.27,-1.12 -26.32,-0.53 -38.89,1.58 -68.93,11.53 -124.11,68.64 -130.21,141.39z"/>
        <path class="fil5" d="M16977.97 7495.46c-74.08,3.61 -138.32,-74.43 -143.21,-173.97 -2.34,-47.52 9.01,-93 31.94,-128.08 23.73,-36.28 56.84,-57.31 93.63,-59.03 36.64,-1.8 71.79,15.82 98.92,49.61 26.27,32.64 42.01,76.82 44.33,124.35 4.6,94.2 -45.6,174.43 -113.81,185.84 -3.89,0.65 -7.8,1.07 -11.8,1.28zm-91.03 -288.84l0 0c-20.16,30.85 -30.13,71.22 -28.06,113.7 4.25,86.22 57.13,153.97 117.93,150.99 61.03,-2.92 106.84,-75.55 102.65,-161.8 -2.1,-42.47 -15.97,-81.67 -39.02,-110.39 -22.21,-27.58 -50.24,-42 -78.94,-40.59 -3.08,0.14 -6.12,0.48 -9.12,0.98 -25.17,4.21 -48.14,20.66 -65.44,47.11z"/>
        <path class="fil5" d="M17201.32 7303.31l14.62 -19.25c-28.51,-21.65 -93.35,-49.48 -135.12,-0.14l18.44 15.61c37.36,-44.26 99.43,1.83 102.06,3.78z"/>
        <path class="fil5" d="M18008.02 7310.39l20.89 -12.13c-5.67,-9.73 -56.85,-95.38 -111.18,-101.5 -50.78,-5.57 -372.83,40.58 -386.5,42.56l3.45 23.91c92.32,-13.32 341.13,-46.87 380.34,-42.45 35.88,4.03 79.28,66.06 93,89.61z"/>
       </g>
       <g>
        <g>
         <path class="fil12" d="M17929.17 7501.54c-9.06,4.7 -17.5,7.9 -25.67,9.99 -9.56,2.93 -18.54,4 -26.88,3.93 -13.03,0.31 -24.48,-2.42 -34.25,-6.72 -8.98,-3.64 -17,-8.81 -23.58,-14.09 -17.04,-13.89 -25.53,-29.53 -25.53,-29.53l13.4 -156.56c0,0 103.66,-193.41 189.79,-158.51 86.48,34.87 23.65,304.81 -67.28,351.49z"/>
         <path class="fil2" d="M17976.63 7226.86c1.51,-0.32 2.06,1.79 0.8,2.48 -63.44,34.98 -91.17,100.99 -108.09,168.03 16.89,-27.03 42.27,-43.78 78.14,-24.12 1.88,1.02 0.54,3.94 -1.38,3.77 -28.02,-2.59 -47.15,4.51 -62.99,28.59 -11.21,17.05 -17.8,37.7 -25.03,56.7 -2.4,6.33 -13.55,4.42 -12.1,-2.71 0.11,-0.53 0.25,-1.08 0.36,-1.61 -11.83,-84.82 40.03,-211.67 130.29,-231.13z"/>
        </g>
        <path class="fil4" d="M17918.34 7478.41c-1.18,14.69 -14.04,25.64 -28.73,24.46 -14.68,-1.18 -25.63,-14.04 -24.45,-28.73 1.18,-14.69 14.04,-25.63 28.73,-24.46 14.69,1.19 25.63,14.05 24.45,28.73z"/>
        <path class="fil4" d="M17968.01 7431.92c-0.83,10.39 -9.93,18.12 -20.31,17.29 -10.38,-0.83 -18.13,-9.93 -17.29,-20.31 0.83,-10.38 9.93,-18.13 20.31,-17.3 10.39,0.84 18.13,9.93 17.29,20.32z"/>
       </g>
      </g>
     </g>
     <g>
      <g>
       <path class="fil12" d="M18398.88 8127.54c392.37,607.93 908.67,1624.95 627.57,1819.92 -462.15,320.54 -1744.76,423.23 -2038.11,434.74 -126.6,4.97 -311.5,-834.7 -219.25,-933.91 92.23,-99.22 1436.92,-66.04 1452.95,-147.43 9.09,-46.12 -67.44,-454.57 -158.07,-962.4 -104.51,-585.56 222.65,-384.86 334.91,-210.92z"/>
       <g>
        <path class="fil12" d="M16993.88 9398.45c0,0 -383.91,-33.95 -636.01,-44.34 -140.65,-5.8 -382.67,5.77 -487.94,48.78 -157.47,64.32 -774.96,433.9 -688.58,585.55 78.2,137.28 568.39,-247.62 568.39,-247.62 0,0 -528.97,344.65 -404.43,492.63 124.55,147.97 620.55,-360.54 620.55,-360.54 0,0 -535.55,366.31 -382.97,498.58 115.3,99.96 590.5,-335.28 590.5,-335.28 0,0 -458.14,318.03 -344,425.93 126.14,119.25 589.98,-254.99 589.98,-254.99 336.32,225.45 588.69,195.23 765.65,152.36 42.85,-10.38 -191.14,-961.06 -191.14,-961.06z"/>
        <g>
         <path class="fil2" d="M15925.04 9609.91c-63.59,38.23 -128.23,76.51 -188.22,120.27 -59.98,43.75 -118.49,89.64 -174.13,138.78 -136.47,120.53 -203.07,217.37 -198.3,211.83 112.7,-130.84 325,-290.81 385.01,-334.58 59.87,-43.67 117.54,-90.35 177.39,-134.08 1.51,-1.1 -0.23,-3.14 -1.75,-2.22z"/>
         <path class="fil2" d="M16086.99 9823.63c-79.1,52.34 -159.54,101.39 -236.36,157.25 -76.43,55.57 -144.09,114.99 -216.5,175.67 -5.57,4.68 -1.23,6.14 4.56,1.67 74.78,-57.75 148.35,-105.37 223.8,-162.24 75.18,-56.66 148.72,-116.69 225.89,-170.57 1.2,-0.84 -0.19,-2.58 -1.39,-1.78z"/>
         <path class="fil2" d="M16258.95 9982.07c-124.97,73.79 -236.2,170.56 -343,268.09 -5.32,4.86 0.5,6.12 6.23,1.47 112.34,-91.26 199.82,-163.67 339.36,-265.21 2.18,-1.59 0.05,-5.9 -2.59,-4.35z"/>
        </g>
       </g>
       <path class="fil2" d="M17067.06 9385.72c-89.27,-7.59 -186.24,-3.18 -278.07,-6.61 -80.12,-2.99 -155.12,-13.89 -233.12,-18.99 -159.92,-10.45 -395.81,-25.39 -554.83,-0.07 -115.11,18.33 -257.85,112.26 -338.94,150.47 -3.59,1.69 -0.75,6.6 2.77,5.34 152.05,-54.58 243.89,-119.91 381.63,-139.68 158.37,-22.73 571.61,8.38 730.85,17.5 93.22,5.34 195.97,-4.19 289.29,-0.77 4.64,0.17 5.05,-6.81 0.42,-7.19z"/>
      </g>
      <g>
       <g>
        <path class="fil5" d="M18900.47 8899.12l-815.31 -69.96c0,0 -63.81,-406.31 -67.39,-636.14 -4.74,-304.13 107.08,-377.19 356.88,-100.35 167.13,185.24 525.82,806.45 525.82,806.45z"/>
       </g>
       <path class="fil2" d="M18184.56 8837.94c-8.62,-2.34 -92.11,-12.29 -98.3,-11.27 -6.31,-47.98 -11.98,-96.04 -18.83,-143.94 -3.41,-23.92 -7.25,-47.88 -11.42,-71.69 -4.6,-26.27 -8.45,-56.36 -12.54,-79.58 -0.64,-3.64 -5.3,-3.21 -5.02,0.5 2.28,30.71 4.98,53.54 7.12,80.11 1.9,23.72 4.38,47.53 7.36,71.13 6.31,49.99 10.85,103.55 19.61,153.16 0.67,3.82 103.08,5.44 111.91,4.53 1.54,-0.16 1.48,-2.58 0.11,-2.95z"/>
       <path class="fil2" d="M18824.35 8814.71c-117.95,-18.38 -235.86,-35.02 -354.71,-46.46 -59.29,-5.71 -118.61,-10.53 -178.04,-14.43 -59.35,-3.88 -119.28,-1.69 -178.47,-6.44 -3.25,-0.26 -3.47,5 -0.18,5.09 59.28,1.6 118.98,11.35 178.11,16.21 59.36,4.88 118.71,10.05 178,15.57 118.42,11.03 236.98,21.82 355.11,35.55 3.3,0.39 3.35,-4.59 0.18,-5.09z"/>
      </g>
     </g>
    </g>
   </g>
   <g>
    <g>
     <polygon class="fil13" points="20883.53,10702.01 9002.16,10702.01 9002.16,10279.49 20883.53,10279.49 "/>
    </g>
    <g>
     <polygon class="fil7" points="20458.26,11124.53 9427.43,11124.53 9427.43,10702.13 20458.26,10702.13 "/>
    </g>
    <g>
     <polygon class="fil7" points="9428.35,17053.09 9257.55,17053.09 9754.63,11124.53 10190.53,11124.53 "/>
     <polygon class="fil2" points="10190.43,11124.64 10139.4,11521.31 9721.53,11521.31 9754.67,11124.64 "/>
    </g>
    <g>
     <polygon class="fil7" points="20457.35,17053.09 20628.14,17053.09 20131.06,11124.53 19695.17,11124.53 "/>
     <polygon class="fil2" points="19695.26,11124.64 19746.29,11521.31 20164.17,11521.31 20131.03,11124.64 "/>
    </g>
   </g>
   <g>
    <polygon class="fil2" points="11990.15,10279.39 14441,10279.39 13845.71,8643.9 11394.85,8643.9 "/>
    <polygon class="fil13" points="11903.29,10279.39 14354.15,10279.39 13758.86,8643.9 11308,8643.9 "/>
    <polygon class="fil2" points="11307.87,8644.01 11903.34,10279.49 12894.64,10279.49 11537.39,8644.01 "/>
    <g>
     <polygon class="fil7" points="11466.62,10279.39 11764.92,10279.39 12032.63,9815.71 11734.32,9815.71 "/>
     <polygon class="fil13" points="12032.63,9815.71 12032.63,10279.49 11764.92,10279.49 "/>
    </g>
    <g>
     <polygon class="fil7" points="13139.75,10279.39 13438.04,10279.39 13705.75,9815.71 13407.45,9815.71 "/>
     <polygon class="fil2" points="13705.75,9815.71 13705.75,10279.49 13438.04,10279.49 "/>
    </g>
   </g>
   <g>
    <g>
     <polygon class="fil3" points="17432.09,10190.64 17432.09,10279.49 15451.13,10279.49 15451.13,10190.64 "/>
     <polygon class="fil1" points="16448.17,10190.64 16448.17,10279.49 15451.13,10279.49 15451.13,10190.64 "/>
    </g>
    <g>
     <polygon class="fil3" points="16340.91,10279.41 14410.32,10279.41 14157.9,8968.21 16088.49,8968.21 "/>
     <path class="fil1" d="M15366.91 9623.81c5.68,64.9 -42.33,117.51 -107.23,117.51 -64.9,0 -122.12,-52.61 -127.8,-117.51 -5.68,-64.9 42.34,-117.51 107.24,-117.51 64.9,0 122.11,52.61 127.79,117.51z"/>
    </g>
   </g>
   <g>
    <g>
     <polygon class="fil2" points="10461.68,10062.58 10398.18,10054.27 10725,7567.97 11911.51,6916.81 11942.31,6972.93 10784.25,7608.49 "/>
     <path class="fil6" d="M10664.34 7588.22c0,49.88 40.42,90.3 90.29,90.3 49.87,0 90.3,-40.42 90.3,-90.3 0,-49.87 -40.43,-90.29 -90.3,-90.29 -49.87,0 -90.29,40.42 -90.29,90.29z"/>
     <path class="fil6" d="M11823.98 6944.86c0,49.87 40.42,90.3 90.29,90.3 49.88,0 90.3,-40.43 90.3,-90.3 0,-49.87 -40.42,-90.3 -90.3,-90.3 -49.87,0 -90.29,40.43 -90.29,90.3z"/>
    </g>
    <g>
     <g>
      <polygon class="fil6" points="12521.25,7027.48 12096.86,7501.26 11900.97,7259.33 11781.68,7111.82 12099.89,6757 12259.49,6859.48 "/>
      <polygon class="fil15" points="12521.25,7027.48 12096.86,7501.26 11900.97,7259.33 12259.49,6859.48 "/>
     </g>
     <polygon class="fil6" points="13136.51,7261.32 12396.45,8087.26 11904.96,7460.28 12459.57,6841.32 "/>
    </g>
    <polygon class="fil6" points="11011.05,10279.49 9916.02,10279.49 9983.22,9935.51 10943.84,9935.51 "/>
   </g>
   <g>
    <g>
     <path class="fil8" d="M17046.48 4076.87l-1132.12 1123.88c-76.81,76.29 -201.34,75.86 -277.63,-0.97 -76.64,-76.81 -76.2,-201.35 0.97,-277.63l1131.76 -1124.24 277.02 278.96z"/>
     <polygon class="fil3" points="17046.48,4076.87 16724.68,4396.42 16510.68,4054.89 16769.46,3797.91 "/>
     <path class="fil8" d="M15562.83 5273.13c-19.37,-19.49 -19.26,-51 0.24,-70.36l256.08 -254.3 70.12 70.61 -256.08 254.3c-19.49,19.37 -51,19.26 -70.36,-0.25z"/>
     <path class="fil8" d="M15889.42 5018.97l-256.31 254.52c-19.47,19.33 -50.86,19.22 -70.2,-0.25 -19.34,-19.47 -19.22,-51.22 0.25,-70.56l43.19 -42.88 212.75 -211.28 70.32 70.45z"/>
     <polygon class="fil6" points="16933.17,4328.1 16519.11,3911.14 16715.74,3715.87 17129.8,4132.84 "/>
     <path class="fil6" d="M16948.85 4173.55l-276.79 -278.73 233.82 -232.19c76.96,-76.43 201.32,-76 277.76,0.97 76.43,76.97 76,201.33 -0.97,277.76l-233.82 232.19z"/>
     <path class="fil6" d="M16335.09 4783.1l-420.56 417.64c-64.78,64.33 -162.89,74.22 -237.87,29.51l-43.55 43.24c-19.47,19.33 -50.86,19.22 -70.2,-0.25 -19.34,-19.47 -19.22,-51.22 0.25,-70.56l43.19 -42.88c-44.19,-75.3 -33.62,-173.34 31.17,-237.67l141.95 -140.97 555.62 1.94z"/>
    </g>
    <g>
     <g>
      <polygon class="fil8" points="11429.37,6326.45 10806.15,6326.45 10806.15,4133.51 11429.37,4133.51 "/>
      <g>
       <polygon class="fil5" points="11351.87,4506.34 10883.64,4506.34 10883.64,4203.02 11351.87,4203.02 "/>
       <polygon class="fil16" points="11351.87,4874.01 10883.64,4874.01 10883.64,4570.68 11351.87,4570.68 "/>
       <polygon class="fil17" points="11351.87,5241.67 10883.64,5241.67 10883.64,4938.35 11351.87,4938.35 "/>
       <polygon class="fil18" points="11351.87,5609.33 10883.64,5609.33 10883.64,5306.01 11351.87,5306.01 "/>
       <polygon class="fil19" points="11351.87,5976.99 10883.64,5976.99 10883.64,5673.67 11351.87,5673.67 "/>
      </g>
      <path class="fil2" d="M11181.86 6177.71c0,35.4 -28.7,64.1 -64.1,64.1 -35.4,0 -64.1,-28.7 -64.1,-64.1 0,-35.4 28.7,-64.1 64.1,-64.1 35.4,0 64.1,28.7 64.1,64.1z"/>
     </g>
    </g>
    <g>
     <polygon class="fil9" points="10263,5437.36 8787,5437.36 8787,3542.64 9882.92,3542.64 10263,3903.67 "/>
     <polygon class="fil8" points="10263,5437.36 8787,5437.36 8787,4882.9 10263,4882.9 "/>
     <polygon class="fil5" points="8787,4882.9 9253.92,4435.62 9677.24,4882.9 "/>
     <polygon class="fil5" points="9386.6,4882.9 9941.05,4182.23 10263,4589.07 10263,4882.9 "/>
     <path class="fil4" d="M9270.34 4140.66c0,91.37 -74.07,165.44 -165.44,165.44 -91.38,0 -165.45,-74.07 -165.45,-165.44 0,-91.38 74.07,-165.45 165.45,-165.45 91.37,0 165.44,74.07 165.44,165.45z"/>
     <polygon class="fil8" points="9882.92,3542.64 10263,3903.67 9882.92,3903.67 "/>
     <g>
      <path class="fil1" d="M9129.8 5221.65c5.51,-1.69 11.44,1.27 12.71,6.36 10.58,32.57 40.62,55.84 76.14,55.41 44.03,0 79.99,-35.53 79.99,-79.53l0 -185.74c0,-5.51 4.65,-10.16 10.13,-10.16 5.52,0 10.17,4.65 10.17,10.16l0 185.74c0,55.85 -44.86,100.27 -100.29,100.27 -44.41,0 -82.93,-29.2 -95.6,-69.38 -1.69,-5.52 1.27,-11.42 6.75,-13.13z"/>
      <path class="fil1" d="M9399.03 5018.15c0,-5.51 4.65,-10.16 10.17,-10.16l1.27 0 82.51 0c46.54,0 84.2,38.08 84.2,84.63 0,46.54 -37.66,84.19 -84.2,84.19l-73.21 0.85 0 116.34c0,5.51 -4.65,10.16 -10.57,10.16 -5.52,0 -10.17,-4.65 -10.17,-10.16l0 -275.85zm93.95 138.77l0 0c35.11,-0.42 63.87,-29.2 63.87,-64.3 0,-35.13 -28.76,-63.89 -63.87,-63.89l-73.21 0 0 128.19 73.21 0z"/>
      <path class="fil1" d="M9784.2 5170.89c-5.93,0 -10.58,-4.24 -10.58,-10.17 0,-5.92 4.65,-10.57 10.58,-10.57l91.39 0 1.28 0c5.06,0.43 9.3,5.08 9.3,10.57l0 101.55 0 1.7c-0.41,2.95 -1.69,5.91 -3.82,7.62 -26.22,20.72 -59.22,32.57 -95.61,32.57 -85.05,-0.43 -153.99,-66.85 -153.99,-150.62 0,-82.51 68.94,-149.77 153.99,-149.77 36.8,0 69.39,12.69 96.05,33.41 3.79,2.97 5.07,10.17 1.28,14.39 -3.41,4.23 -9.75,5.08 -14.82,1.69 -21.6,-17.77 -50.78,-28.77 -82.51,-28.77 -74.03,0 -133.29,57.96 -133.29,129.05 0,71.92 59.26,129.88 133.29,129.88 28.77,0 56.26,-9.3 78.28,-25.37l0 -87.16 -80.82 0z"/>
     </g>
    </g>
   </g>
  </g>
 </g>
</svg>
