<?xml version="1.0" encoding="UTF-8"?>
<!DOCTYPE svg PUBLIC "-//W3C//DTD SVG 1.1//EN" "http://www.w3.org/Graphics/SVG/1.1/DTD/svg11.dtd">
<!-- Creator: CorelDRAW 2020 (64-Bit) -->
<svg xmlns="http://www.w3.org/2000/svg" xml:space="preserve" width="297mm" height="210mm" version="1.1" style="shape-rendering:geometricPrecision; text-rendering:geometricPrecision; image-rendering:optimizeQuality; fill-rule:evenodd; clip-rule:evenodd"
viewBox="0 0 29700 21000"
 xmlns:xlink="http://www.w3.org/1999/xlink"
 xmlns:xodm="http://www.corel.com/coreldraw/odm/2003">
 <defs>
  <style type="text/css">
   <![CDATA[
    .fil0 {fill:#A9ABAE;fill-rule:nonzero}
    .fil6 {fill:#263138;fill-rule:nonzero}
    .fil9 {fill:#445964;fill-rule:nonzero}
    .fil17 {fill:#542F09;fill-rule:nonzero}
    .fil16 {fill:#542F09;fill-rule:nonzero}
    .fil12 {fill:#8F5924;fill-rule:nonzero}
    .fil23 {fill:#A5A5A5;fill-rule:nonzero}
    .fil22 {fill:#C6C6C6;fill-rule:nonzero}
    .fil15 {fill:#DB4437;fill-rule:nonzero}
    .fil1 {fill:#DFDFDF;fill-rule:nonzero}
    .fil3 {fill:#E8505B;fill-rule:nonzero}
    .fil8 {fill:#EBEBEB;fill-rule:nonzero}
    .fil7 {fill:#F9F9F9;fill-rule:nonzero}
    .fil4 {fill:#FFBD9C;fill-rule:nonzero}
    .fil14 {fill:white;fill-rule:nonzero}
    .fil19 {fill:#263138;fill-rule:nonzero;fill-opacity:0.200000}
    .fil18 {fill:#E8505B;fill-rule:nonzero;fill-opacity:0.200000}
    .fil20 {fill:white;fill-rule:nonzero;fill-opacity:0.200000}
    .fil21 {fill:black;fill-rule:nonzero;fill-opacity:0.301961}
    .fil5 {fill:white;fill-rule:nonzero;fill-opacity:0.301961}
    .fil11 {fill:black;fill-rule:nonzero;fill-opacity:0.400000}
    .fil10 {fill:#263138;fill-rule:nonzero;fill-opacity:0.400000}
    .fil13 {fill:white;fill-rule:nonzero;fill-opacity:0.600000}
    .fil2 {fill:#A9ABAE;fill-rule:nonzero;fill-opacity:0.800000}
   ]]>
  </style>
 </defs>
 <g id="Layer_x0020_1">
  <metadata id="CorelCorpID_0Corel-Layer"/>
  <g id="_2008322218192">
   <g>
    <g>
     <g>
      <g>
       <g>
        <g>
         <path class="fil0" d="M17217.95 5269.25l2119.04 0c0,0 -187.39,-341 -732.84,-291.37 -520.93,47.41 -547.41,-167.75 -812.29,-194.25 -264.89,-26.48 -485.61,176.6 -573.91,485.62z"/>
        </g>
       </g>
      </g>
     </g>
    </g>
   </g>
   <g>
    <g>
     <g>
      <path class="fil0" d="M11679.21 10871.14c0,0 -212.28,114.83 96.79,558.2 309.06,443.37 510.18,656.25 510.18,656.25 0,0 58.42,104.76 -32.41,134.81 -90.82,30.05 -300.56,25.6 -326.36,145.37 -26.76,124.22 74.54,223.96 262.23,297.83 187.68,73.87 592.96,250.8 629.54,266.93 35.91,15.85 76.21,62.79 17.63,93.18 -58.6,30.38 -513.55,142.18 -447.58,354.89 65.98,212.71 622.67,332.58 683.27,346.85 60.6,14.27 77.73,36.76 77.39,69 -0.34,32.24 -156.8,55.4 -284.89,92.5 -128.1,37.09 -270.12,102.56 -221.78,222.1 48.35,119.53 398.2,336.44 1170.96,306.06l357.14 -37.52 152.09 -327.06c282.83,-719.78 193.05,-1121.51 96.08,-1206.48 -96.98,-84.97 -205.52,27.62 -282.68,136.39 -77.17,108.77 -150.5,248.91 -181.05,238.62 -30.55,-10.28 -46.16,-33.85 -39.7,-95.78 6.45,-61.92 76.32,-627.06 -102.85,-759.32 -179.18,-132.26 -434.39,260.62 -482.35,305.96 -47.96,45.33 -79.04,-8.17 -82.2,-47.29 -3.2,-39.86 -37,-480.77 -45.03,-682.32 -8.04,-201.54 -68.91,-330.01 -195.02,-345.58 -121.6,-15.02 -186.38,184.5 -244.62,260.39 -58.25,75.89 -137.97,-13.74 -137.97,-13.74 0,0 -134.89,-259.93 -451.95,-697.62 -317.07,-437.69 -499,-269.99 -499,-269.99l4.14 -2.63z"/>
     </g>
     <g>
      <g>
       <path class="fil0" d="M14201.28 14458.7c-231.6,-322.35 -633.59,-902.21 -981.31,-1398.25 -347.6,-495.87 -662.72,-944.53 -892.66,-1268.04 -114.94,-161.35 -208.04,-292.04 -272.7,-382.82 -31.96,-44.92 -56.86,-79.95 -74.08,-104.15 -8.17,-11.69 -14.49,-20.75 -19.04,-27.25 -4.23,-6.19 -6.18,-9.51 -6.18,-9.51 0,0 2.56,2.88 7.1,8.83 4.76,6.35 11.38,15.2 19.94,26.61 17.61,23.92 43.09,58.53 75.78,102.93 65.71,89.45 159.87,219.57 275.6,380.79 231.59,322.35 547.78,770.34 895.37,1266.21 347.71,496.04 748.67,1076.57 978.59,1400.07l-6.41 4.58z"/>
      </g>
     </g>
     <g>
      <g>
       <path class="fil0" d="M12220.57 12383.8c0.16,-0.75 9.31,0.53 25.74,3.49 16.45,2.89 40.1,7.77 69.27,14.06 58.3,12.72 138.37,32.33 226.35,55.55 86.67,23.23 165.04,44.23 225,60.3 27.06,7.07 49.89,13.04 68.25,17.84 16.14,4.13 25,6.78 24.85,7.54 -0.15,0.75 -9.31,-0.46 -25.78,-3.3 -16.44,-2.94 -40.11,-7.82 -69.21,-14.42 -58.2,-13.29 -138,-33.93 -225.94,-57.17 -86.8,-22.59 -165.29,-43.03 -225.34,-58.66 -27.12,-6.94 -49.99,-12.79 -68.39,-17.5 -16.13,-4.25 -24.97,-6.97 -24.8,-7.73z"/>
      </g>
     </g>
     <g>
      <g>
       <path class="fil0" d="M12881.2 12516.5c-3.01,-0.65 30.14,-167.52 74.04,-372.69 43.91,-205.23 81.94,-371.02 84.95,-370.37 3.01,0.65 -30.13,167.48 -74.04,372.71 -43.9,205.16 -81.93,370.99 -84.95,370.35z"/>
      </g>
     </g>
     <g>
      <g>
       <path class="fil0" d="M13380.74 13302.2c-0.66,-0.4 3.43,-8.9 11.41,-23.95 9.16,-17 20.6,-38.24 34.18,-63.45 28.78,-53.59 68.21,-127.78 108.71,-211.22 40.71,-83.39 74.92,-160.13 99.24,-215.88 11.47,-26.23 21.13,-48.33 28.87,-66.03 6.91,-15.56 11.07,-24.04 11.78,-23.76 0.72,0.29 -2.07,9.3 -7.75,25.37 -5.68,16.07 -14.31,39.17 -25.62,67.46 -22.5,56.62 -55.67,134.1 -96.49,217.72 -40.62,83.69 -81.26,157.51 -111.85,210.2 -15.4,26.29 -28.11,47.42 -37.32,61.77 -9.13,14.38 -14.5,22.15 -15.16,21.77z"/>
      </g>
     </g>
     <g>
      <g>
       <path class="fil0" d="M12756.77 13313.7c-0.03,-0.78 8.64,-1.78 24.35,-2.94 18.09,-1.05 40.31,-2.33 66.52,-3.85 56.19,-2.77 133.83,-5.81 219.61,-8.5 85.8,-2.67 163.49,-4.48 219.74,-5.22 26.25,-0.12 48.51,-0.22 66.63,-0.31 15.74,0.17 24.46,0.64 24.49,1.4 0.02,0.78 -8.65,1.79 -24.35,2.95 -18.1,1.04 -40.31,2.33 -66.52,3.84 -56.19,2.77 -133.84,5.81 -219.64,8.5 -85.78,2.67 -163.47,4.47 -219.71,5.22 -26.26,0.12 -48.52,0.23 -66.64,0.3 -15.74,-0.16 -24.45,-0.63 -24.48,-1.39z"/>
      </g>
     </g>
     <g>
      <g>
       <path class="fil0" d="M13109.65 14063.34c-0.04,-0.76 11.08,-1.95 31.2,-3.44 22.2,-1.37 50.84,-3.13 85.22,-5.25 71.99,-3.95 171.48,-8.63 281.38,-13.11 109.94,-4.49 209.48,-7.92 281.55,-9.85 34.44,-0.69 63.12,-1.27 85.37,-1.72 20.17,-0.15 31.33,0.13 31.36,0.9 0.04,0.76 -11.07,1.95 -31.18,3.44 -22.21,1.37 -50.85,3.13 -85.23,5.25 -71.99,3.95 -171.49,8.64 -281.42,13.12 -109.91,4.49 -209.43,7.92 -281.51,9.85 -34.44,0.69 -63.12,1.26 -85.37,1.71 -20.17,0.15 -31.34,-0.12 -31.37,-0.9z"/>
      </g>
     </g>
     <g>
      <g>
       <path class="fil0" d="M13886.48 14026.28c-0.67,-0.36 4.23,-11.27 13.7,-30.69 10.42,-21.15 24.03,-48.75 40.43,-82.01 34.06,-69.26 80.74,-165.11 129.28,-272.37 48.72,-107.23 90.25,-205.43 119.81,-276.72 14.24,-34.24 26.05,-62.65 35.09,-84.43 8.38,-19.91 13.35,-30.8 14.06,-30.51 0.72,0.27 -2.88,11.67 -10,32.08 -7.13,20.39 -17.9,49.74 -31.82,85.79 -27.73,72.13 -68.19,170.98 -116.99,278.4 -48.62,107.44 -96.5,202.92 -132.4,271.35 -18.05,34.16 -32.92,61.66 -43.63,80.44 -10.64,18.8 -16.85,29.04 -17.53,28.67z"/>
      </g>
     </g>
    </g>
    <g>
     <g>
      <g>
       <g>
        <g>
         <path class="fil0" d="M16883.53 9270.1c-383.71,-430.15 -346.79,-1051.13 -201.63,-1582.8 24.21,-88.76 36.73,-185.4 97.88,-253.83 61.17,-68.4 173.17,-98.52 244.35,-41.86 59.03,47.02 69.68,131.16 91.72,203.88 29.29,96.77 86.3,184.59 162.34,250.13 49.98,43.05 116.18,77.82 179.77,60.13 87.26,-24.31 121.61,-128.76 142.14,-217.89 38.24,-166.11 76.51,-332.2 114.74,-498.27 20.52,-89.1 41.78,-180.02 89.45,-257.92 47.67,-77.9 127.42,-141.86 217.68,-145.54 90.28,-3.64 183.39,69.96 180.64,161.29 -1.15,38.01 -17.44,73.88 -23.72,111.39 -6.28,37.54 1.25,82.48 33.89,101.08 33.05,18.85 74.63,2.05 107.4,-17.69 113.13,-68.08 202.86,-169.07 288.37,-270.37 85.51,-101.31 169.96,-205.76 276.51,-284.01 106.55,-78.26 240.21,-128.6 369.36,-105.64 129.16,22.98 246.29,133.8 248.86,266.52 2.59,133.1 -100.75,243.04 -204.45,325.73 -153.84,122.68 -325.18,222.8 -506.93,296.24 -32.76,13.27 -68.27,27.58 -86.8,58 -33.38,54.75 8.88,126.98 62.82,160.35 61.1,37.81 134.71,47.97 202.15,72.57 67.45,24.6 135.36,73.01 146.07,144.81 14.91,99.58 -83.73,176.89 -173.37,221.61 -179.49,89.53 -374.02,147.76 -572.43,171.4 -71.13,8.45 -145,13.14 -208.67,46.63 -63.69,33.5 -114.49,105.92 -97.44,176.14 17.05,70.32 94.14,109.75 165.73,113.26 71.55,3.54 141.75,-19.15 212.93,-28.33 133.21,-17.19 289.14,28.65 342.44,152.89 35.02,81.66 16.64,179.47 -29.01,256.1 -45.63,76.65 -115.34,135.48 -186.99,187.97 -250.47,183.52 -545.22,309.21 -852.2,340.37 -306.96,31.17 -576.12,-4.47 -833.6,-174.34z"/>
        </g>
       </g>
      </g>
     </g>
     <g>
      <g>
       <g>
        <g>
         <g>
          <path class="fil0" d="M16961.24 9321.8c69.72,-207.73 -3.2,-103.45 140.23,-354.93 142.96,-251.81 322.56,-514.83 519.85,-783.48 49.57,-66.96 98.54,-133.15 146.81,-198.37 48.33,-64.99 96.26,-129.46 147.04,-189.6 101.05,-120.77 207.41,-229.16 311.58,-328.9 104.16,-99.84 206.65,-190.76 303.09,-275.09 96.67,-84.15 188.25,-160.89 274.7,-227.27 172.57,-133.44 324.21,-224.4 430.85,-282.58 53.29,-29.28 95.37,-50.62 124.09,-64.71 13.79,-6.65 24.61,-11.88 32.75,-15.82 7.42,-3.46 11.28,-5.11 11.4,-4.85 0.15,0.27 -3.45,2.44 -10.63,6.41 -7.96,4.31 -18.56,10.02 -32,17.31 -28.19,15.07 -69.74,37.33 -122.49,67.43 -105.52,59.9 -255.64,152.1 -426.77,286.34 -85.75,66.79 -176.67,143.87 -272.78,228.37 -95.99,84.74 -197.98,175.9 -301.6,275.78 -103.61,99.81 -209.31,208.07 -309.63,328.3 -50.41,59.89 -97.85,123.83 -146.25,189.02 -48.22,65.2 -97.15,131.36 -146.68,198.31 -197.12,268.44 -376.65,530.55 -519.95,781.17 -143.69,250.28 -71.48,144.52 -142.37,351.02l-11.24 -3.86z"/>
         </g>
        </g>
       </g>
      </g>
     </g>
     <g>
      <g>
       <g>
        <g>
         <g>
          <path class="fil0" d="M17920.01 7795.9c-1.16,-0.09 -0.97,-14.33 0.29,-40.02 1.15,-25.7 4.04,-62.8 8.29,-108.61 8.4,-91.57 24.33,-217.65 42.41,-356.58 18.1,-139 32.18,-264.93 39.17,-356.38 3.61,-45.71 6.19,-82.76 7.62,-108.36 1.59,-25.63 3.02,-39.82 4.18,-39.82 1.17,0.02 1.94,14.22 2.35,39.95 0.57,25.72 -0.17,62.97 -2.31,108.92 -3.95,91.97 -16.21,218.65 -34.35,357.78 -18.19,137.04 -34.66,261.03 -47.25,355.75 -5.41,42.83 -9.94,78.93 -13.58,107.91 -3.31,25.46 -5.66,39.55 -6.82,39.46z"/>
         </g>
        </g>
       </g>
      </g>
     </g>
     <g>
      <g>
       <g>
        <g>
         <g>
          <path class="fil0" d="M19114.69 7853.07c-0.24,1.15 -16.95,-0.81 -46.93,-5.34 -29.97,-4.33 -73.31,-10.86 -127.09,-17.18 -107.46,-13.52 -256.56,-26.98 -421.71,-34.63 -165.22,-7.36 -315.01,-7.67 -423.36,-4.75 -54.21,1.06 -98.04,3.11 -128.35,4.35 -30.32,1.35 -47.13,1.54 -47.24,0.38 -0.1,-1.19 16.56,-3.6 46.81,-7 30.23,-3.24 74.09,-7.12 128.41,-9.76 108.55,-6 258.89,-7.6 424.6,-0.23 165.63,7.7 315.13,23.1 422.5,39.73 53.76,7.87 96.94,16.2 126.64,22.59 29.66,6.54 45.94,10.67 45.72,11.84z"/>
         </g>
        </g>
       </g>
      </g>
     </g>
     <g>
      <g>
       <g>
        <g>
         <g>
          <path class="fil0" d="M17120.52 8949.15c-0.57,0.11 -2.11,-5.32 -4.54,-15.81 -2.64,-12.44 -5.85,-27.63 -9.75,-46.02 -8.31,-40 -18.8,-98.2 -30.83,-170.27 -24.15,-144.14 -51.25,-344.28 -78.16,-565.54 -26.95,-221.35 -52.14,-421.49 -73.25,-565.9 -10.46,-70.26 -19.08,-128.06 -25.49,-171.01 -2.68,-18.62 -4.88,-33.98 -6.68,-46.58 -1.34,-10.67 -1.78,-16.33 -1.19,-16.47 0.56,-0.08 2.11,5.35 4.54,15.84 2.64,12.45 5.85,27.6 9.76,45.99 8.3,40.01 18.8,98.2 30.83,170.28 24.14,144.13 51.24,344.28 78.16,565.63 26.93,221.29 52.13,421.39 73.22,565.84 10.51,70.23 19.1,128.05 25.51,170.98 2.68,18.62 4.87,34 6.68,46.58 1.33,10.7 1.77,16.36 1.19,16.46z"/>
         </g>
        </g>
       </g>
      </g>
     </g>
     <g>
      <g>
       <g>
        <g>
         <g>
          <path class="fil0" d="M18756.84 8819.28c0.01,0.6 -5.69,1.48 -16.56,2.65 -12.83,1.17 -28.59,2.6 -47.66,4.34 -43.92,3.57 -103.19,8.38 -175.29,14.19 -148.02,12.03 -352.25,30.98 -577.9,52.21 -225.72,21.28 -430.34,38.35 -578.64,47.31 -74.16,4.5 -134.19,7.53 -175.71,8.77 -19.17,0.47 -34.97,0.84 -47.83,1.17 -10.93,0.09 -16.71,-0.18 -16.73,-0.77 -0.01,-0.58 5.7,-1.47 16.57,-2.67 12.8,-1.15 28.55,-2.57 47.65,-4.31 43.91,-3.57 103.15,-8.35 175.26,-14.2 148.02,-11.99 352.29,-30.96 578,-52.21 225.66,-21.27 430.24,-38.34 578.55,-47.29 74.16,-4.52 134.18,-7.55 175.73,-8.78 19.18,-0.47 34.95,-0.87 47.83,-1.17 10.94,-0.08 16.69,0.17 16.73,0.76z"/>
         </g>
        </g>
       </g>
      </g>
     </g>
    </g>
    <g>
     <g>
      <g>
       <g>
        <g>
         <g>
          <path class="fil1" d="M20026.09 12099.17c0.34,0.15 -1.49,5.27 -5.38,15.04 -4.4,10.73 -10.25,24.97 -17.63,42.98 -16.38,38.56 -39.55,93.14 -68.78,161.99 -60.58,140.15 -146.15,338.15 -248.32,574.54l-1.51 3.49 -3.79 0.63c-229.08,37.84 -496.28,81.98 -780.54,128.93 -89.08,14.56 -176.5,28.86 -261.68,42.79l-11.89 1.94 2.95 -11.67c63.62,-251.05 122.19,-482.2 171.94,-678.55l3.68 7.52c-190.57,-85.18 -347.83,-155.47 -458.68,-205.01 -53.83,-24.53 -96.34,-43.9 -126.55,-57.65 -13.71,-6.47 -24.6,-11.62 -32.97,-15.56 -7.41,-3.62 -11.15,-5.63 -11.02,-5.93 0.14,-0.31 4.15,1.1 11.81,4.12 8.56,3.51 19.72,8.07 33.74,13.81 30.55,12.99 73.54,31.28 127.98,54.42 111.38,48.31 269.41,116.86 460.93,199.92l5.02 2.17 -1.34 5.35c-48.96,196.55 -106.6,427.94 -169.21,679.24l-8.93 -9.72c85.16,-13.99 172.56,-28.35 261.64,-42.99 284.36,-46.24 551.68,-89.72 780.84,-126.99l-5.29 4.11c104.35,-235.43 191.75,-432.64 253.62,-572.23 30.75,-68.18 55.12,-122.24 72.35,-160.43 8.21,-17.65 14.7,-31.61 19.6,-42.1 4.55,-9.49 7.06,-14.32 7.41,-14.16z"/>
         </g>
        </g>
       </g>
      </g>
     </g>
     <g>
      <g>
       <g>
        <g>
         <polygon class="fil1" points="18729.95,12977.38 18708.62,13033.55 18742.78,13082.96 18682.77,13080.02 18646.35,13127.8 18630.58,13069.81 18573.89,13049.93 18624.17,13017.03 18625.56,12956.96 18672.38,12994.61 "/>
        </g>
       </g>
      </g>
     </g>
     <g>
      <g>
       <g>
        <g>
         <polygon class="fil1" points="18193.99,12066.83 18183.38,12094.76 18200.38,12119.35 18170.52,12117.9 18152.4,12141.66 18144.56,12112.82 18116.37,12102.92 18141.37,12086.55 18142.06,12056.68 18165.36,12075.4 "/>
        </g>
       </g>
      </g>
     </g>
     <g>
      <g>
       <g>
        <g>
         <polygon class="fil1" points="19707.77,12858.57 19697.16,12886.51 19714.16,12911.09 19684.3,12909.63 19666.18,12933.4 19658.34,12904.56 19630.14,12894.66 19655.15,12878.3 19655.85,12848.41 19679.13,12867.14 "/>
        </g>
       </g>
      </g>
     </g>
     <g>
      <g>
       <g>
        <g>
         <polygon class="fil1" points="18834.24,12355.9 18823.62,12383.84 18840.62,12408.42 18810.77,12406.96 18792.65,12430.73 18784.81,12401.88 18756.61,12391.99 18781.61,12375.62 18782.3,12345.75 18805.6,12364.46 "/>
        </g>
       </g>
      </g>
     </g>
     <g>
      <g>
       <g>
        <g>
         <polygon class="fil1" points="20062.41,12071.22 20051.79,12099.17 20068.79,12123.75 20038.95,12122.29 20020.82,12146.05 20012.98,12117.21 19984.77,12107.32 20009.79,12090.95 20010.48,12061.07 20033.78,12079.8 "/>
        </g>
       </g>
      </g>
     </g>
    </g>
    <g>
     <g>
      <g>
       <g>
        <g>
         <g>
          <path class="fil0" d="M10294.15 14416.52l1687.17 0c0,0 -149.19,-271.51 -583.48,-231.99 -414.76,37.74 -435.85,-133.56 -646.74,-154.66 -210.9,-21.09 -386.65,140.6 -456.95,386.65z"/>
         </g>
        </g>
       </g>
      </g>
     </g>
    </g>
    <g>
     <g>
      <g>
       <g>
        <g>
         <g>
          <path class="fil0" d="M10629.15 7773.84l1687.17 0c0,0 -149.2,-271.5 -583.49,-231.98 -414.76,37.74 -435.84,-133.57 -646.74,-154.66 -210.89,-21.09 -386.64,140.6 -456.94,386.64z"/>
         </g>
        </g>
       </g>
      </g>
     </g>
    </g>
    <g>
     <g>
      <g>
       <g>
        <g>
         <g>
          <path class="fil0" d="M19197.98 8947.12l1386.21 0c0,0 -122.58,-223.08 -479.4,-190.61 -340.77,31.01 -358.1,-109.74 -531.37,-127.06 -173.29,-17.33 -317.67,115.51 -375.44,317.67z"/>
         </g>
        </g>
       </g>
      </g>
     </g>
    </g>
   </g>
   <g>
    <g>
     <path class="fil0" d="M16430.01 11683.19c68.81,-519.46 -296.36,-948 -752.71,-1205.52 -456.35,-257.52 -985.73,-343.72 -1489.75,-486.94 -475.38,-135.07 -948.16,-332.12 -1300.26,-678.9 -352.1,-346.77 -563.3,-868.05 -436.74,-1345.76 31.78,-119.94 88.57,-240.43 191.58,-309.62 103,-69.18 260.26,-67.42 337.08,30.01 163.63,207.5 -155.22,579.16 44.44,752.26 45.82,39.73 108.87,54.36 156.29,92.16 126.25,100.67 85.37,296.42 103.19,456.9 35.26,317.4 332.88,537.8 625.2,666.41 391.49,172.27 815.65,253.23 1231.01,355.33 415.35,102.09 834.16,230.71 1180.19,482.11 346.04,251.42 646.23,644.99 643.84,1072.7 -0.66,119.52 -15.87,266.5 -90.88,359.54 -75.01,93.06 -170.55,112.37 -278.7,61.5 -108.14,-50.89 -183.82,-129.59 -163.78,-302.18z"/>
     <g>
      <path class="fil2" d="M16430.01 11683.19c68.81,-519.46 -296.36,-948 -752.71,-1205.52 -456.35,-257.52 -985.73,-343.72 -1489.75,-486.94 -475.38,-135.07 -948.16,-332.12 -1300.26,-678.9 -352.1,-346.77 -563.3,-868.05 -436.74,-1345.76 31.78,-119.94 88.57,-240.43 191.58,-309.62 103,-69.18 260.26,-67.42 337.08,30.01 163.63,207.5 -155.22,579.16 44.44,752.26 45.82,39.73 108.87,54.36 156.29,92.16 126.25,100.67 85.37,296.42 103.19,456.9 35.26,317.4 332.88,537.8 625.2,666.41 391.49,172.27 815.65,253.23 1231.01,355.33 415.35,102.09 834.16,230.71 1180.19,482.11 346.04,251.42 646.23,644.99 643.84,1072.7 -0.66,119.52 -15.87,266.5 -90.88,359.54 -75.01,93.06 -170.55,112.37 -278.7,61.5 -108.14,-50.89 -183.82,-129.59 -163.78,-302.18z"/>
     </g>
    </g>
    <g>
     <path class="fil0" d="M14222.28 7554.01c-16.45,-192.39 126.9,-359.93 289.91,-449.76 163,-89.83 349.7,-126.29 517.77,-205.97 417.27,-197.82 682.58,-663.37 702.18,-1140.88 19.61,-477.52 -187.37,-954.76 -511.23,-1305.5 -131.59,-142.5 -293.47,-291.81 -295.42,-486.26 -2.03,-202.88 194.76,-362.76 391.31,-360.19 196.56,2.57 377.67,134.13 495.34,299.65 117.68,165.52 182.79,362.76 246.13,556.42 -45.16,-80.96 47.56,-181.25 136.89,-172.6 89.34,8.64 159.86,83.14 214.99,157.36 236.79,318.79 353.99,728.38 321.32,1122.92 -32.67,394.56 -214.86,770.08 -499.52,1029.55 -317.94,289.79 -738.7,425.78 -1146.49,554.45 -283.77,89.54 -567.53,179.09 -851.31,268.63l-11.87 132.18z"/>
     <g>
      <path class="fil2" d="M14222.28 7554.01c-16.45,-192.39 126.9,-359.93 289.91,-449.76 163,-89.83 349.7,-126.29 517.77,-205.97 417.27,-197.82 682.58,-663.37 702.18,-1140.88 19.61,-477.52 -187.37,-954.76 -511.23,-1305.5 -131.59,-142.5 -293.47,-291.81 -295.42,-486.26 -2.03,-202.88 194.76,-362.76 391.31,-360.19 196.56,2.57 377.67,134.13 495.34,299.65 117.68,165.52 182.79,362.76 246.13,556.42 -45.16,-80.96 47.56,-181.25 136.89,-172.6 89.34,8.64 159.86,83.14 214.99,157.36 236.79,318.79 353.99,728.38 321.32,1122.92 -32.67,394.56 -214.86,770.08 -499.52,1029.55 -317.94,289.79 -738.7,425.78 -1146.49,554.45 -283.77,89.54 -567.53,179.09 -851.31,268.63l-11.87 132.18z"/>
     </g>
    </g>
    <g>
     <path class="fil0" d="M13985.46 3511.02c-84.58,35.59 -130.98,142.72 -99.09,228.76 31.89,86.05 136.91,137.05 224.25,108.92 87.35,-28.14 142.85,-130.84 118.53,-219.33 -24.33,-88.48 -124.54,-148.38 -213.98,-127.9l-29.71 9.55z"/>
     <g>
      <path class="fil2" d="M13985.46 3511.02c-84.58,35.59 -130.98,142.72 -99.09,228.76 31.89,86.05 136.91,137.05 224.25,108.92 87.35,-28.14 142.85,-130.84 118.53,-219.33 -24.33,-88.48 -124.54,-148.38 -213.98,-127.9l-29.71 9.55z"/>
     </g>
    </g>
   </g>
   <g>
    <path class="fil3" d="M15461.81 15247.3c-84.9,-176.05 -10.89,-395.48 124.39,-536.57 135.27,-141.08 320.04,-221.59 498.91,-300.39 394.79,-173.9 812.76,-381.13 1013.51,-762.96 67.7,-128.77 106.28,-270.48 144.36,-410.89 73.7,-271.78 142.77,-580.42 -5.41,-819.87 -42.62,-68.87 -106.73,-130.14 -186.47,-144.3 -90.79,-16.12 -184.18,33.89 -240.14,107.19 -55.95,73.29 -79.96,166.13 -91.53,257.61 -22.03,174.06 -3.78,351.08 -22.08,525.56 -18.31,174.48 -82.14,356.91 -226.05,457.25 -174.77,121.85 -424.17,94.49 -593.92,223.23 -137.06,103.95 -189.21,284.23 -296.41,418.77 -90.09,113.06 -216.17,190.34 -331.65,277.31 -115.5,86.97 -227.19,193.1 -266.43,332.24 -40.76,144.55 10.21,310.77 124.99,407.63 114.79,96.85 287.22,119.11 422.84,54.6l-68.91 -86.41z"/>
    <g>
     <path class="fil2" d="M15461.81 15247.3c-84.9,-176.05 -10.89,-395.48 124.39,-536.57 135.27,-141.08 320.04,-221.59 498.91,-300.39 394.79,-173.9 812.76,-381.13 1013.51,-762.96 67.7,-128.77 106.28,-270.48 144.36,-410.89 73.7,-271.78 142.77,-580.42 -5.41,-819.87 -42.62,-68.87 -106.73,-130.14 -186.47,-144.3 -90.79,-16.12 -184.18,33.89 -240.14,107.19 -55.95,73.29 -79.96,166.13 -91.53,257.61 -22.03,174.06 -3.78,351.08 -22.08,525.56 -18.31,174.48 -82.14,356.91 -226.05,457.25 -174.77,121.85 -424.17,94.49 -593.92,223.23 -137.06,103.95 -189.21,284.23 -296.41,418.77 -90.09,113.06 -216.17,190.34 -331.65,277.31 -115.5,86.97 -227.19,193.1 -266.43,332.24 -40.76,144.55 10.21,310.77 124.99,407.63 114.79,96.85 287.22,119.11 422.84,54.6l-68.91 -86.41z"/>
    </g>
   </g>
   <g>
    <g>
     <path class="fil0" d="M11808.28 5004.24c-170.87,-126.75 -275.15,-338.62 -271.35,-551.34 3.79,-212.71 115.56,-420.73 290.85,-541.31 99.09,-68.16 216.61,-109.88 304.71,-191.75 78.35,-72.79 129.3,-173.81 216.98,-235.05 108.91,-76.06 266.96,-72.71 372.55,7.91 105.6,80.63 150.47,232.2 105.79,357.31 -40.41,113.11 -141.94,195.75 -184.37,308.12 -45.67,120.96 -16.25,256.44 -33.21,384.61 -20.84,157.5 -116.51,303.44 -252.63,385.36 -136.12,81.92 -309.86,98.13 -458.79,42.8l-90.53 33.34z"/>
     <g>
      <path class="fil2" d="M11808.28 5004.24c-170.87,-126.75 -275.15,-338.62 -271.35,-551.34 3.79,-212.71 115.56,-420.73 290.85,-541.31 99.09,-68.16 216.61,-109.88 304.71,-191.75 78.35,-72.79 129.3,-173.81 216.98,-235.05 108.91,-76.06 266.96,-72.71 372.55,7.91 105.6,80.63 150.47,232.2 105.79,357.31 -40.41,113.11 -141.94,195.75 -184.37,308.12 -45.67,120.96 -16.25,256.44 -33.21,384.61 -20.84,157.5 -116.51,303.44 -252.63,385.36 -136.12,81.92 -309.86,98.13 -458.79,42.8l-90.53 33.34z"/>
     </g>
    </g>
    <g>
     <path class="fil3" d="M12042.29 5304.25l-47.16 0c-96.36,0 -174.46,-78.11 -174.46,-174.45l0 -816.51 396.09 0 0 816.51c0,96.34 -78.11,174.45 -174.47,174.45z"/>
     <polygon class="fil4" points="11820.67,4313.29 12018.71,3950.05 12216.76,4313.29 "/>
     <path class="fil3" d="M11940.27 4093.93c0,0 60.14,90.45 156.88,0l-78.44 -143.88 -78.44 143.88z"/>
     <polygon class="fil5" points="11879.32,4313.29 11964.36,4313.29 "/>
    </g>
    <g>
     <path class="fil6" d="M12222.23 5090.03c0,4.42 -90.15,8.01 -201.32,8.01 -111.22,0 -201.35,-3.59 -201.35,-8.01 0,-4.42 90.13,-8 201.35,-8 111.17,0 201.32,3.58 201.32,8z"/>
    </g>
    <g>
     <path class="fil6" d="M12218.18 5029.33c0,4.43 -88.33,8.01 -197.27,8.01 -108.99,0 -197.3,-3.58 -197.3,-8.01 0,-4.42 88.31,-8 197.3,-8 108.94,0 197.27,3.58 197.27,8z"/>
    </g>
    <g>
     <path class="fil7" d="M11936.92 4319.1c4.42,0 8,158.1 8,353.07 0,195.05 -3.58,353.11 -8,353.11 -4.42,0 -8.01,-158.06 -8.01,-353.11 0,-194.97 3.59,-353.07 8.01,-353.07z"/>
    </g>
    <g>
     <path class="fil7" d="M12097.15 4319.1c4.42,0 8.01,158.1 8.01,353.07 0,195.05 -3.59,353.11 -8.01,353.11 -4.42,0 -8,-158.06 -8,-353.11 0,-194.97 3.58,-353.07 8,-353.07z"/>
    </g>
   </g>
   <g>
    <polygon class="fil6" points="15261.83,15473.99 17061.28,15550.95 17104.73,15655.79 15925.37,17570.09 13796.32,17508.02 "/>
    <polygon class="fil1" points="13715.54,17321.41 15857.42,17443.74 16976.12,15707.63 16190.59,15771.48 14202.35,16471.64 "/>
    <g>
     <path class="fil8" d="M13414.73 17192.66l1966.85 31.05c-81.71,-251.62 110.98,-606.03 375.39,-725.22 175.27,-79.02 505.07,-181.38 675.21,-268.66 323.33,-165.88 615.51,-479.98 589.97,-749.5l-807.81 -25.74 -1031.02 -39.85c-86.22,255.76 -270.64,423.32 -550.97,524.1 -250.87,90.2 -536.42,89.98 -781.15,192.47 -393.86,164.97 -583.12,699.46 -436.47,1061.35z"/>
     <g>
      <path class="fil6" d="M13414.73 17192.66c0,0 -1.85,-4.2 -4.94,-12.68 -3.18,-8.95 -7.65,-21.53 -13.48,-37.95 -6.87,-16.49 -10.86,-38.21 -16.74,-63.69 -7.06,-25.3 -9.43,-55.55 -13.57,-89.53 -4.99,-68.07 -4.29,-153.13 15.6,-250.07 20.01,-96.5 58.04,-205.28 126.13,-312.14 17.66,-26.23 34.64,-53.99 56.62,-79.08 10.66,-12.77 20.67,-26.37 32.21,-38.89 11.97,-12.12 24.09,-24.39 36.34,-36.81 11.78,-12.91 25.35,-24.19 39.32,-35.3 13.92,-11.13 27.4,-23.19 42.12,-33.89 30.86,-19.37 60.74,-41.99 95.76,-57.11 136.29,-68.72 299.12,-97.71 468.66,-128.4 85.01,-15.45 172.53,-31.67 260.42,-55.83 87.5,-24.81 175.63,-57.98 259.27,-104.35 42.03,-22.73 82.63,-49.25 121.03,-79.37 38.68,-29.77 74.91,-63.62 107.39,-101.41 66.11,-74.75 115.87,-165.61 149.44,-263.77l1.79 -5.24 5.51 0.21c273.82,10.44 561.21,21.4 859.07,32.74 297.87,11.72 606.35,19.81 922.12,30.4 19.39,0.61 38.75,1.22 57.6,1.82l7.11 0.23 0.61 7.03c5.42,62.3 -5.95,124.27 -26,181.8 -9.17,29.27 -23.19,56.34 -36.03,83.81 -15.19,26.2 -29.37,52.94 -47.03,77.33 -67.09,100.14 -153,183.96 -243.69,257.6 -91.45,73.09 -190.68,133.8 -294.04,181.67 -103.76,46.64 -208.81,84.67 -311.7,122.73 -102.85,38.06 -204.58,74.11 -301.17,116.15 -47.37,22.07 -92.87,47.24 -132.3,80.31 -20.92,14.92 -38.37,33.81 -57.46,50.52 -16.83,19 -35.54,36.22 -50.51,56.5 -63.5,77.91 -111.23,166.24 -137.53,258.5 -27.86,91.62 -30.95,188.59 -4.87,275.19l2.63 8.71 -8.95 -0.15c-595.76,-10.57 -1087.27,-19.3 -1430.42,-25.38 -171.01,-3.46 -304.93,-6.19 -396.67,-8.04 -45.29,-1.14 -80.06,-2.01 -104.05,-2.6 -23.5,-0.71 -35.6,-1.57 -35.6,-1.57 0,0 12.12,-0.48 35.64,-0.44 23.99,0.16 58.77,0.4 104.07,0.69 91.75,1.03 225.7,2.55 396.73,4.49 343.17,4.74 834.71,11.53 1430.5,19.76l-6.32 8.56c-27.32,-89.72 -24.09,-189.43 4.12,-283.02 26.69,-94.3 75.09,-184.22 139.65,-263.74 15.22,-20.65 34.24,-38.29 51.4,-57.66 19.43,-17.13 37.22,-36.39 58.57,-51.7 40.16,-33.8 87.08,-59.9 135.39,-82.45 97.39,-42.54 199.08,-78.7 301.89,-116.9 102.78,-38.14 207.7,-76.27 310.51,-122.6 102.02,-47.34 200.25,-107.53 290.64,-179.86 89.64,-72.86 174.51,-155.81 240.33,-254.2 17.37,-23.97 31.2,-50.16 46.09,-75.8 12.49,-26.82 26.22,-53.28 35.08,-81.68 19.48,-55.88 30.33,-115.57 25.17,-175.02l7.71 7.24c-18.86,-0.6 -38.22,-1.22 -57.61,-1.84 -315.8,-10.58 -624.3,-18.78 -922.18,-30.7 -297.86,-11.68 -585.26,-22.93 -859.08,-33.66l7.28 -5.02c-34.23,99.74 -85.14,192.37 -152.68,268.44 -33.17,38.47 -70.15,72.87 -109.54,103.07 -39.1,30.55 -80.39,57.4 -123.03,80.34 -84.88,46.83 -173.94,80.09 -262.39,104.94 -88.7,24.15 -176.63,40.18 -261.72,55.4 -169.64,30.18 -331.55,58.64 -466.03,125.87 -34.54,14.73 -64.03,36.94 -94.52,55.87 -14.55,10.48 -27.89,22.33 -41.68,33.25 -13.82,10.91 -27.26,21.96 -38.94,34.68 -12.15,12.19 -24.18,24.26 -36.05,36.18 -11.47,12.31 -21.42,25.73 -32.01,38.3 -21.86,24.69 -38.78,52.08 -56.41,77.96 -67.95,105.45 -106.35,213.12 -126.9,308.78 -20.42,96.08 -21.85,180.52 -17.65,248.24 3.76,33.79 5.71,63.93 12.35,89.18 5.48,25.42 9.07,47.17 15.54,63.7 5.32,16.54 9.39,29.21 12.3,38.23 2.69,8.61 3.78,13.12 3.78,13.12z"/>
     </g>
    </g>
    <g>
     <path class="fil6" d="M15735.83 15446.64c-1.42,-0.44 2.59,-12.64 4.44,-35.17 1.73,-22.35 0.24,-55.88 -15.44,-92.9 -15.16,-36.56 -45.31,-77.13 -92.98,-99.61 -46.96,-22.63 -109.01,-27.35 -165.74,-5.95 -57.13,20.97 -98.3,67.5 -119.73,115.25 -22.31,48.08 -25.33,97.63 -18.92,136.98 6.44,39.74 21.48,69.57 33.61,88.53 12.18,19.13 21.27,28.17 20.26,29.14 -0.52,0.6 -11.19,-6.97 -25.38,-25.57 -14.07,-18.42 -31.41,-48.67 -39.64,-90.09 -8.19,-41.01 -6.29,-93.7 16.61,-145.02 21.91,-50.92 65.72,-101.47 127.55,-124.2 61.06,-23.01 127.52,-17.48 177.85,7.67 51.26,25.17 82.46,69.62 97.02,108.69 15.16,39.64 14.84,74.9 11.13,97.79 -1.93,11.53 -4.26,20.31 -6.57,26 -2.16,5.74 -3.54,8.63 -4.07,8.46z"/>
    </g>
    <g>
     <path class="fil6" d="M16044.11 15446.64c-1.44,-0.44 2.57,-12.64 4.43,-35.17 1.72,-22.35 0.23,-55.88 -15.45,-92.9 -15.17,-36.56 -45.3,-77.13 -92.98,-99.61 -46.96,-22.63 -109.01,-27.35 -165.74,-5.95 -57.13,20.97 -98.3,67.5 -119.72,115.25 -22.32,48.08 -25.34,97.63 -18.94,136.98 6.45,39.74 21.5,69.57 33.61,88.53 12.19,19.13 21.28,28.17 20.27,29.14 -0.52,0.6 -11.19,-6.97 -25.38,-25.57 -14.07,-18.42 -31.41,-48.67 -39.64,-90.09 -8.19,-41.01 -6.3,-93.7 16.61,-145.02 21.91,-50.92 65.72,-101.47 127.55,-124.2 61.06,-23.01 127.53,-17.48 177.85,7.67 51.27,25.17 82.46,69.62 97.02,108.69 15.16,39.64 14.83,74.9 11.13,97.79 -1.93,11.53 -4.26,20.31 -6.57,26 -2.16,5.74 -3.53,8.63 -4.05,8.46z"/>
    </g>
    <g>
     <path class="fil6" d="M16278.23 15462.63c-1.45,-0.35 1.86,-12.76 2.44,-35.35 0.46,-22.42 -2.92,-55.8 -20.68,-91.87 -17.2,-35.66 -49.59,-74.45 -98.46,-94.21 -48.17,-19.92 -110.39,-21.13 -165.82,3.46 -55.85,24.16 -94.32,72.95 -113.01,121.83 -19.56,49.27 -19.76,98.91 -11.15,137.84 8.69,39.32 25.39,68.25 38.57,86.48 13.26,18.41 22.84,26.93 21.88,27.95 -0.48,0.63 -11.56,-6.33 -26.78,-24.09 -15.09,-17.6 -34.11,-46.81 -44.68,-87.7 -10.49,-40.48 -11.59,-93.2 8.38,-145.74 18.99,-52.08 59.87,-105.03 120.32,-131.21 59.66,-26.43 126.32,-24.67 178,-2.41 52.6,22.23 86.26,64.84 103.01,103.02 17.38,38.71 19.05,73.94 16.64,97.01 -1.27,11.61 -3.09,20.52 -5.09,26.33 -1.82,5.85 -3.04,8.81 -3.57,8.66z"/>
    </g>
    <g>
     <path class="fil6" d="M16529.24 15476.93c-1.47,-0.28 1.18,-12.85 0.56,-35.44 -0.73,-22.41 -5.88,-55.57 -25.52,-90.65 -19.06,-34.69 -53.46,-71.71 -103.31,-88.85 -49.15,-17.35 -111.35,-15.27 -165.39,12.22 -54.5,27.09 -90.33,77.84 -106.41,127.64 -16.92,50.24 -14.5,99.83 -3.83,138.24 10.75,38.81 28.97,66.81 43.09,84.32 14.22,17.68 24.24,25.67 23.33,26.75 -0.45,0.66 -11.89,-5.7 -28.01,-22.64 -16.01,-16.76 -36.55,-44.93 -49.26,-85.21 -12.64,-39.87 -16.51,-92.45 0.65,-145.97 16.19,-53.01 54.21,-108.05 113.19,-137.4 58.18,-29.55 124.85,-31.33 177.63,-11.83 53.71,19.4 89.57,60.19 108.32,97.41 19.4,37.75 22.94,72.84 21.76,96.01 -0.66,11.66 -2.01,20.64 -3.69,26.56 -1.52,5.93 -2.57,8.96 -3.11,8.84z"/>
    </g>
    <g>
     <path class="fil6" d="M16780.73 15471.02c-1.47,-0.24 0.83,-12.87 -0.42,-35.45 -1.37,-22.37 -7.44,-55.37 -28.06,-89.88 -20.03,-34.15 -55.45,-70.19 -105.77,-85.92 -49.63,-15.96 -111.73,-12.13 -164.99,16.87 -53.71,28.6 -88.1,80.35 -102.77,130.58 -15.51,50.69 -11.69,100.19 0.05,138.29 11.84,38.49 30.84,65.97 45.45,83.08 14.7,17.27 24.95,24.98 24.07,26.08 -0.43,0.67 -12.04,-5.36 -28.64,-21.84 -16.47,-16.31 -37.79,-43.9 -51.63,-83.79 -13.75,-39.51 -19.11,-91.95 -3.47,-145.94 14.71,-53.44 51.17,-109.53 109.29,-140.53 57.34,-31.18 123.93,-34.81 177.23,-16.82 54.23,17.89 91.23,57.65 111.02,94.34 20.46,37.19 24.98,72.16 24.45,95.34 -0.32,11.69 -1.43,20.71 -2.94,26.65 -1.35,5.99 -2.32,9.04 -2.87,8.94z"/>
    </g>
    <g>
     <path class="fil6" d="M16992.66 15499.27c-1.46,-0.3 1.34,-12.83 0.99,-35.43 -0.48,-22.41 -5.23,-55.64 -24.46,-90.94 -18.65,-34.91 -52.61,-72.34 -102.25,-90.07 -48.95,-17.93 -111.16,-16.58 -165.53,10.27 -54.81,26.44 -91.24,76.78 -107.9,126.38 -17.52,50.03 -15.67,99.66 -5.46,138.19 10.29,38.93 28.17,67.15 42.09,84.82 14.01,17.84 23.94,25.96 23.02,27.03 -0.46,0.64 -11.82,-5.85 -27.75,-22.98 -15.8,-16.95 -36.01,-45.37 -48.25,-85.78 -12.16,-40.02 -15.42,-92.64 2.36,-145.95 16.83,-52.83 55.49,-107.41 114.81,-136.07 58.53,-28.86 125.21,-29.84 177.76,-9.73 53.47,20.04 88.85,61.24 107.16,98.68 18.97,37.98 22.08,73.11 20.63,96.26 -0.8,11.65 -2.25,20.63 -4,26.51 -1.59,5.92 -2.68,8.92 -3.22,8.81z"/>
    </g>
   </g>
   <g>
    <path class="fil3" d="M17919.59 8897.29c-84.66,-2.39 -174.48,0.64 -266.47,12.04 -555.33,68.82 -969.14,545.81 -968.04,1105.4 0.32,162.92 17.71,345.3 68.89,526.85 154.92,549.67 202.73,1034.29 184.85,1270.23l518.77 278.85c0,0 240.17,-345.03 472.15,-493.88 231.98,-148.84 1004.32,-546.69 1310.08,-955.74 197.11,-263.71 234.98,-804.88 -234.89,-1278.19 -287.08,-289.18 -678.03,-454.08 -1085.34,-465.56z"/>
    <polygon class="fil9" points="16693.28,12412.11 17161.94,12665.41 16856.86,13052.83 16544.46,12910.83 "/>
    <g>
     <path class="fil6" d="M16716.04 12427.72c-4.16,-1.5 42.35,-140.61 103.86,-310.67 61.53,-170.11 114.76,-306.74 118.93,-305.24 4.15,1.51 -42.35,140.58 -103.88,310.69 -61.51,170.06 -114.76,306.73 -118.91,305.22z"/>
    </g>
    <g>
     <path class="fil10" d="M17132.38 12646.34c-3.8,-2.24 69.62,-133.64 163.99,-293.45 94.4,-159.86 173.99,-287.59 177.79,-285.34 3.81,2.25 -69.6,133.62 -164,293.48 -94.37,159.81 -173.97,287.56 -177.78,285.31z"/>
    </g>
    <g>
     <path class="fil11" d="M18075.87 8912.01c-21.06,1.17 -278.91,303.03 -392.99,507.32 -383.76,687.31 -401.01,1356.22 -507.53,2136.18 -15.22,111.42 -70.61,351.66 -69.56,346.05 56.78,44.51 247.63,133.11 247.63,133.11 0,0 179.96,-217.22 251.49,-326.49 286.42,-437.5 597.32,-778.53 842.49,-1240.41 245.16,-461.87 481.12,-871.45 254.21,-1342.57 0,0 -392.96,-226.23 -625.74,-213.19z"/>
    </g>
    <g>
     <path class="fil6" d="M19241.82 10710.19c-0.37,0.13 -2.66,-4.95 -6.71,-14.85 -4.32,-9.79 -9.24,-24.89 -17.93,-43.57 -16.91,-37.48 -44.57,-91.47 -90.55,-152.35 -46.16,-60.32 -110.5,-128.49 -199.07,-185.72 -87.15,-58.57 -199.34,-104.94 -326.52,-120.88l-3.12 -0.38 -1.85 -2.51c-59.62,-80.39 -127.98,-163.37 -209.38,-240.35 -81.25,-76.76 -176.38,-147.42 -285.85,-196.8 -109.2,-48.73 -226.84,-70.34 -337.81,-64.41 -111.02,5.61 -215.12,40.91 -295.67,98.54l-4.67 3.34 -4.31 -3.79c-96.32,-84.73 -211.76,-128.54 -315.73,-140.31 -104.7,-12.08 -197.62,7.19 -268.46,34.22 -71.37,27.16 -121.72,61.73 -154.21,86.79 -16.22,12.68 -28.3,22.97 -36.17,30.21 -7.97,7.14 -12.25,10.71 -12.52,10.43 -0.28,-0.27 3.44,-4.39 10.91,-12.11 7.38,-7.82 19.02,-18.74 34.92,-32.09 31.85,-26.37 81.98,-62.51 153.95,-91.25 71.38,-28.58 165.84,-49.43 272.9,-38.08 106.27,11.05 224.64,54.91 323.94,141.39l-8.97 -0.45c82.63,-59.78 189.62,-96.41 303.23,-102.4 113.59,-6.34 233.66,15.59 345.23,65.37 111.54,50.31 208.02,122.25 290,200.09 82.15,78.06 150.71,161.97 210.27,243.13l-4.96 -2.88c129.76,16.91 243.54,64.98 331.45,125.22 89.34,58.92 153.69,128.8 199.37,190.53 45.49,62.31 72.16,117.42 87.84,155.71 8.08,19.08 12.32,34.51 15.94,44.58 3.34,10.2 4.89,15.52 4.51,15.63z"/>
    </g>
    <g>
     <path class="fil6" d="M18277.47 11395.06c-3.14,1.11 -2.55,-46.89 -44.72,-112.73 -21.31,-31.97 -53.14,-68.29 -99.61,-95.61 -45.4,-28.14 -106.18,-47.03 -171.69,-40.69l-6.49 0.63 -1.01 -6.44c-10.38,-66.64 -37.98,-137.54 -85.1,-200.38 -46.87,-62.53 -112.47,-118.31 -192.46,-149.42 -65.67,-26.15 -135.59,-35.32 -201.24,-30.83 -65.79,4.7 -127.15,23.38 -179.22,50.62l-4.94 2.59 -3.8 -4.08c-51.87,-55.55 -118.8,-86.73 -180.17,-97.58 -61.59,-12.45 -117.77,-6.19 -161.52,5.07 -88.68,24.16 -126.44,67 -128.21,63.65 -0.27,-0.3 2.07,-2.67 6.87,-6.99 4.95,-4.1 11.73,-11.06 21.97,-18.21 20.18,-14.63 52.27,-33.57 97.06,-46.75 44.54,-12.76 102.19,-20.39 166.01,-8.53 63.52,10.26 133.63,41.66 188.64,99.61l-8.73 -1.49c53.61,-28.65 116.95,-48.34 184.91,-53.46 67.83,-4.92 140.18,4.39 208.3,31.51 83.04,32.33 150.85,90.31 198.9,155.12 48.35,65.16 76.31,138.59 86.3,207.53l-7.5 -5.8c69.34,-6 132.47,14.84 178.98,44.78 47.64,29.17 79.61,67.39 100.5,100.87 20.75,34 29.95,64.24 34.35,84.86 2.27,10.33 2.62,18.51 3.35,23.89 0.54,5.42 0.64,8.22 0.27,8.26z"/>
    </g>
    <g>
     <path class="fil6" d="M17071.36 12787.41c-1.2,0.91 -5.1,-6.42 -17.21,-11.4 -12.07,-5.06 -31.58,-5.75 -54.81,1.67 -11.87,3.15 -25.35,7.52 -41.45,7.58 -16.12,0.3 -33.97,-7.52 -46.32,-20.44 -24.89,-25.89 -34.35,-63.33 -57.84,-89.2 -11.69,-12.66 -26.92,-19.19 -43.19,-18.2 -16.26,0.64 -32.57,6.03 -48.84,9.78 -16.17,3.86 -33.31,6.3 -49.12,2.61 -15.65,-3.33 -28.49,-11.1 -38.4,-19.65 -19.89,-17.43 -28.58,-37.96 -30.85,-52.09 -2.42,-14.31 -0.12,-22.21 0.67,-22.09 1.38,0.02 1.33,7.83 5.37,20.58 3.85,12.62 13.42,30.43 31.97,44.83 9.21,7.06 20.73,13.19 33.85,15.4 12.92,2.53 27.5,0.21 42.97,-3.92 15.54,-3.88 32.18,-10 51.76,-11.11 19.71,-1.77 41.64,7.34 55.45,22.87 27.24,31.02 35.8,67.84 56.83,89.96 10.17,10.88 22.89,16.95 36.04,17.4 13.22,0.55 26.25,-2.76 38.41,-5.31 24.53,-6.37 47.46,-4.05 60.25,3.74 13.12,7.79 15.15,16.94 14.46,16.99z"/>
    </g>
    <g>
     <path class="fil6" d="M17125.08 12712.19c-2.07,3.9 -104.44,-46.65 -228.62,-112.89 -124.23,-66.27 -223.21,-123.13 -221.13,-127.03 2.08,-3.9 104.44,46.64 228.66,112.91 124.17,66.24 223.18,123.11 221.09,127.01z"/>
    </g>
    <g>
     <path class="fil6" d="M17032 12830.41c0.27,1.23 -6.54,3.22 -17.86,8.47 -5.71,2.54 -12.26,6.43 -21.17,10.03 -8.94,3.71 -20.5,5.08 -32.3,4.23 -23.41,-1.65 -52.24,-8.98 -77.23,-29.78 -12.4,-10.13 -22.9,-24.95 -29.45,-40.51 -6.9,-15.29 -12.3,-30.99 -22.67,-42.18 -21.43,-22.91 -56.13,-25.37 -84.9,-24.34 -29.58,1.1 -58.72,1.96 -81.5,-7.8 -22.47,-9.39 -36.08,-25.33 -41.19,-37.77 -5.25,-12.64 -3.39,-20.41 -2.62,-20.31 1.39,-0.17 1.84,7.13 8.17,17.46 6.11,10.2 19.35,23.02 39.69,30.05 20.2,7.24 46.7,5.63 76.89,3.63 29.39,-1.54 69.12,-1.05 97.26,28.28 13.36,14.71 18.77,32.24 25.2,46.6 6.06,14.7 14.17,26.4 24.79,35.76 21.11,18.67 47.18,26.81 68.61,29.64 21.71,3.95 37.32,-5.11 50.23,-8.81 12.58,-3.68 19.89,-3.58 20.05,-2.65z"/>
    </g>
   </g>
   <g>
    <g>
     <path class="fil3" d="M13493.62 9820.43l810.4 -120.16 -387.47 -548.92 -207.79 12.26c-139.85,8.25 -263.1,94.66 -318.53,223.31 -29.44,68.34 -37.65,143.94 -23.52,217l126.91 216.51z"/>
     <path class="fil11" d="M13493.62 9820.43l810.4 -120.16 -387.47 -548.92 -207.79 12.26c-139.85,8.25 -263.1,94.66 -318.53,223.31 -29.44,68.34 -37.65,143.94 -23.52,217l126.91 216.51z"/>
    </g>
    <g>
     <g>
      <path class="fil12" d="M16974.82 10718.46c8.36,23.21 17.47,50.69 26.7,83.54 7.92,28.2 10.71,57.59 8.74,86.82 -2.4,35.43 -7.49,82.39 -18.27,107.22 -13.34,30.74 17.63,61.69 43.9,46.32 26.27,-15.36 65.07,-99.17 62.67,-207.03 -2.4,-107.85 107.63,21.43 148.57,67.82 40.95,46.39 174.36,183.99 198.59,182.7 35.54,-1.89 40.07,-40.31 -1.91,-85.69 -42.48,-45.93 -158.23,-190.34 -132.68,-210.78 25.16,-20.13 230.36,218.89 230.36,218.89 0,0 35.59,58.19 65.91,35.56 54.65,-40.83 -182.2,-278.87 -205.31,-300.97 -16.05,-15.36 10.91,-38.55 27.26,-21.15 16.85,17.92 199.14,243.18 255.2,202.14 43.01,-31.48 -193.01,-197.6 -204.86,-265.34 -11.86,-67.74 166.17,144.16 206.02,112.41 14.84,-11.83 24.26,-22.72 -95.54,-129.65 -58.15,-51.91 -279.22,-206.61 -279.22,-206.61l-665.16 -1904.53 -513.68 294.18 842.71 1894.15z"/>
     </g>
     <path class="fil12" d="M13015.13 7116.66l-743.31 -887.06 -0.05 0.01c-9.63,-30.48 -21.22,-60.22 -36.37,-88.44 -37.14,-69.2 -98.61,-129.49 -175.34,-146.28 -47.14,-10.3 -101.11,-5.35 -138.09,-36.35 -16.54,-13.86 -27.57,-33.59 -44.88,-46.46 -17.33,-12.85 -46.2,-15.33 -57.28,3.18 -7.88,13.18 -2.88,30.07 3.08,44.22 27.59,65.48 72.67,123.34 129.03,166.57 -69.69,21.19 -169.22,53.21 -169.22,53.21 0,0 -157.13,-170.49 -237.62,-169.95 -80.48,0.55 65.04,152.23 65.04,152.23 0,0 -128.88,-119.1 -168.85,-85.53 -39.96,33.57 62.45,121.98 62.45,121.98 -32.53,-17.39 -68.15,-35.33 -104.53,-29.29 -36.4,6.05 -67.73,49.01 -48.14,80.26 7.51,11.99 20.38,19.35 32.73,26.23 65.94,36.76 131.89,73.51 197.84,110.28 33.11,18.45 67.88,37.38 105.77,38.55 100.34,3.1 176.69,-59.04 277.04,-56.38 0,0 560.52,1179.93 617.21,1240.77 56.69,60.84 1288.06,143.71 1288.06,143.71l712.7 -614.06 -1567.27 -21.4z"/>
     <g>
      <path class="fil3" d="M15247.67 13543.79l759.06 330.6 -406.49 946.49c-88.03,-44.37 -59.27,-611.99 -59.27,-611.99l-495.04 -191.86 201.74 -473.24z"/>
      <g>
       <path class="fil13" d="M15625.66 13898.6c12.87,-16.16 38.9,-19.97 55.58,-7.77 16.69,12.19 20.79,38.63 8.2,55.02 -12.58,16.4 -43.7,21.93 -58.91,7.94 -15.21,-13.99 -18.33,-45.29 -2.18,-58.18l-2.69 2.99z"/>
      </g>
      <path class="fil14" d="M16006.73 13874.39l-77.81 -30.33 -360.64 918.82c0,0 0.24,50.02 31.96,58l406.49 -946.49z"/>
      <g>
       <path class="fil6" d="M15529.56 14222.17c4.7,1.82 16.71,-20.38 41.34,-36.74 24.2,-17 49.26,-20.12 49.25,-25.17 0.93,-4.64 -29.65,-9.62 -59.12,10.71 -29.64,20.06 -36.14,50.37 -31.47,51.2z"/>
      </g>
      <g>
       <path class="fil6" d="M15527.99 14339.07c4.03,2.98 20.48,-13.66 46.78,-20.95 26.07,-8.08 48.91,-2.97 50.68,-7.65 2.59,-4.04 -23.1,-18.86 -55.62,-9.15 -32.58,9.4 -46.2,35.76 -41.84,37.75z"/>
      </g>
      <g>
       <path class="fil6" d="M15622.59 14446.49c2.8,-3.78 -17.54,-20.13 -47.94,-19.14 -30.43,0.79 -49.77,18.29 -46.76,21.9 2.68,4.24 22.29,-3.96 47.27,-4.39 24.95,-1.03 45.01,6.02 47.43,1.63z"/>
      </g>
      <g>
       <path class="fil6" d="M15421.61 14165.92c5.04,-0.13 7.76,-24.06 20.76,-49.43 12.47,-25.63 29.98,-42.18 27.04,-46.29 -2.18,-4.12 -27.81,8.38 -42.7,38.47 -15.11,29.96 -9.72,57.96 -5.1,57.25z"/>
      </g>
      <g>
       <path class="fil6" d="M15318.98 14095.15c1.9,0.87 12.6,-16.17 20.12,-47.51 3.72,-15.6 6.33,-34.76 6.06,-56.14 -0.15,-10.68 -0.99,-21.9 -2.76,-33.42 -0.93,-5.56 -1.53,-11.95 -4.99,-19.1 -2.63,-7.2 -13.64,-15.36 -23.68,-12.68 -9.36,1.73 -16.17,8.95 -19.26,15.71 -3.23,6.88 -4.24,13.14 -5.18,18.83 -1.98,11.64 -2.72,23.02 -2.55,33.82 0.46,21.62 4.56,40.78 9.92,56.03 10.9,30.7 24.95,45.61 26.52,44.41 2.42,-1.44 -7.45,-18.34 -14.64,-47.89 -3.57,-14.73 -6.1,-32.68 -5.67,-52.52 0.27,-9.9 1.28,-20.27 3.3,-30.81 1.67,-11.16 5.26,-19.72 10.83,-20.38 2.1,-0.2 2.83,-0.03 4.86,3.33 1.77,3.32 2.68,8.52 3.62,14.01 1.87,10.72 2.99,21.19 3.56,31.19 1.09,20.04 -0.09,38.23 -2.12,53.37 -4.08,30.36 -10.48,48.76 -7.94,49.75z"/>
      </g>
      <g>
       <path class="fil6" d="M15328.2 14091.98c1.41,-1.34 -11.22,-17.62 -40.42,-32.16 -14.51,-7.17 -33.16,-13.36 -54.68,-15.83 -10.75,-1.17 -22.18,-1.39 -33.96,-0.29 -11.73,1.54 -27.16,2.93 -36.92,19.96 -4.37,9.22 -0.4,20.14 4.72,25.48 5.06,5.88 10.28,8.86 15.29,12.33 10.3,6.48 21.23,10.93 31.91,13.74 21.42,5.67 41.73,4.62 57.65,0.78 32.48,-7.96 46.28,-24.87 44.89,-25.93 -1.66,-2.54 -17.5,9.74 -47.15,13.76 -14.61,1.99 -32.61,1.61 -50.99,-4.13 -9.16,-2.84 -18.4,-6.96 -27.01,-12.63 -9.42,-5.8 -15.92,-13.05 -13.28,-16.39 1.95,-4.73 12.97,-9.47 22.66,-9.91 10.57,-1.21 20.91,-1.35 30.73,-0.7 19.65,1.41 37.14,5.86 51.24,11.12 28.34,10.64 43.53,23.02 45.32,20.8z"/>
      </g>
     </g>
     <g>
      <path class="fil3" d="M14663.05 14844.05l313.96 657.76 98.31 591.85c7.08,42.66 48.81,70.4 90.88,60.43 23.57,-5.59 42.87,-22.01 51.93,-44.47 57.72,-142.9 267.4,-669.62 241.73,-716.46 -29.73,-54.26 -285.11,-715.81 -285.11,-715.81l-511.7 166.7z"/>
      <path class="fil13" d="M15166.2 16154.09l273.5 -805.8 12.65 28.17c10.94,24.35 13.03,51.77 5.58,77.4 -19.91,68.58 -79.04,256.75 -237.77,654.88 -9.24,23.15 -29.55,40.25 -53.96,45.35z"/>
      <g>
       <path class="fil13" d="M15206.88 15195.18c-11.49,19.01 -5.6,46.64 12.9,58.9 18.52,12.24 46.69,6.5 58.49,-12.3 11.81,-18.79 5.77,-52.19 -14,-62.29 -19.76,-10.09 -52.47,-1.55 -59.41,19.53l2.02 -3.84z"/>
      </g>
      <g>
       <path class="fil6" d="M15187.58 15795.33c-2.93,3.53 -33.57,-24.55 -81.53,-25.51 -47.92,-2.38 -80.43,23.5 -83.12,19.77 -1.31,-1.37 4.78,-10.32 19.36,-19.51 14.4,-9.2 37.86,-17.13 64.31,-16.24 26.46,0.97 49.32,10.49 63.03,20.68 13.9,10.18 19.36,19.53 17.95,20.81z"/>
      </g>
      <g>
       <path class="fil6" d="M15180.25 15905.63c-1.88,4.3 -32.93,-7.72 -71.74,-2.12 -38.93,4.75 -65.75,24.48 -68.67,20.82 -3.44,-2.53 22.21,-31.01 66.57,-36.67 44.27,-6.14 76.49,14.63 73.84,17.97z"/>
      </g>
      <g>
       <path class="fil6" d="M15224.43 15641.62c-1.69,4.55 -49.36,-14.17 -110.48,-10.75 -61.18,2.48 -106.81,25.72 -108.94,21.34 -2.67,-3.06 42.57,-34.49 108.17,-37.32 65.55,-3.51 113.62,23.41 111.25,26.73z"/>
      </g>
      <g>
       <path class="fil6" d="M15145.7 15433.69c0.02,4.78 -43.61,5.95 -92.16,25.7 -48.84,19.09 -81.29,48.27 -84.56,44.78 -3.3,-2.43 26.19,-39.01 78.63,-59.65 52.23,-21.11 98.81,-14.87 98.09,-10.83z"/>
      </g>
      <g>
       <path class="fil6" d="M15058.42 15238.27c-0.33,4.77 -47.21,-0.78 -96.64,24.21 -50,23.9 -74.22,64.41 -78.2,61.77 -1.72,-0.91 1.8,-12.51 13.14,-28.26 11.21,-15.7 31.25,-34.67 58,-47.88 26.78,-13.11 54.03,-17.39 73.31,-16.68 19.39,0.63 30.73,4.93 30.39,6.84z"/>
      </g>
      <g>
       <path class="fil6" d="M14946.26 15224.8c-0.84,0.41 -6.36,-7.86 -12.22,-24.73 -5.76,-16.76 -11.74,-42.56 -9.62,-74.84 1.64,-15.58 1.98,-34.82 16.59,-51.91 7.25,-8.57 21.76,-13.05 33.6,-7.78 11.67,5.05 19.05,14.84 24.01,25.28 18.27,42.52 0.39,99.62 -44.33,127.01 -45.32,26.65 -100.71,18.84 -135.95,-9.1 -8.39,-7.58 -16.44,-17.86 -16.33,-31.41 -0.02,-13.61 11.47,-24.2 21.72,-26.84 21.08,-5.94 38.63,-0.17 54.03,3.07 31.18,8.12 54.06,21.11 68.58,31.25 14.59,10.23 21.14,17.68 20.54,18.38 -1.55,2.79 -31.48,-25.09 -91.71,-38.62 -14.84,-2.65 -32.37,-6.6 -47.16,-1.52 -7.23,2.43 -11.96,7.86 -11.92,14.55 -0.13,6.51 5.02,14.23 11.93,20.03 29.37,22.64 80.01,29.65 117.96,6.52 37.93,-22.69 53.57,-72.92 39.18,-107.27 -3.58,-8.21 -9.45,-15.47 -16,-18.36 -6.45,-2.84 -13.59,-1.21 -18.6,4.03 -10.6,11.02 -12.98,28.89 -14.86,43.7 -6.07,61.4 13.8,97.91 10.56,98.56z"/>
      </g>
     </g>
     <g>
      <path class="fil6" d="M15720.89 13624.16l-860.69 -579.36 284.84 -2797.19 -815.27 -476.11 -745.55 -172.75c0,0 -311.37,647.76 -449.84,1062.43 -294.5,881.93 -501.22,1197.98 -453.98,1837.26 14.95,202.31 762.11,708.45 1233.96,989.64 6.48,64.56 14.73,120.93 25.03,167.47 161.25,728.89 653.39,1698.27 653.39,1698.27l747.98 -347.76 -241.36 -826.52 251.38 146.61 370.11 -701.99zm-1850.08 -1803.68l0 0 100.42 -448.36c-21.25,285.06 -40.64,582.48 -54.52,867.7 -48.35,-131.82 -64.83,-278.32 -45.9,-419.34z"/>
      <g>
       <path class="fil9" d="M14592.78 15353.82c-0.25,0.11 -2.22,-3.89 -5.8,-11.81 -3.79,-8.63 -8.92,-20.32 -15.48,-35.29 -13.55,-31.95 -32.97,-77.77 -57.83,-136.42 -49.68,-118.69 -120.82,-290.75 -206.42,-504.3 -85.13,-213.74 -186.5,-468.3 -288.59,-755.06 -25.45,-71.72 -50.39,-145.64 -73.8,-221.94 -10.36,-38.67 -23.41,-76.74 -30.2,-117.64 -1.96,-10.11 -4.25,-20.23 -5.91,-30.38l-3.58 -30.5c-2.28,-20.4 -4.56,-40.9 -6.86,-61.49 -8.76,-82.38 -16.02,-166.4 -21.41,-251.81 -2.71,-42.7 -5.02,-85.74 -6.7,-129.11 -1.54,-43.19 -3.5,-87.33 -1,-131.22 12.63,-351.49 42.2,-684.64 66.49,-987.91 25.32,-302.96 48.14,-575.84 67.33,-805.33 18.56,-229.26 31.53,-414.93 38.9,-543.33 4.01,-64.17 6.23,-114.04 7.73,-147.87 0.89,-16.32 1.58,-29.07 2.1,-38.47 0.55,-8.67 0.97,-13.1 1.26,-13.1 0.27,0.01 0.39,4.45 0.37,13.13 -0.13,9.42 -0.29,22.19 -0.49,38.54 -0.48,33.87 -1.69,83.83 -4.75,148.09 -5.46,128.58 -16.71,314.45 -33.84,543.89 -18.21,229.57 -39.87,502.57 -63.92,805.65 -23.47,303.16 -52.59,636.68 -65.18,987.02 -2.5,43.79 -0.54,86.91 0.97,130.3 1.67,43.21 3.95,86.14 6.63,128.73 5.31,85.17 12.48,168.99 21.1,251.16 2.26,20.54 4.52,40.97 6.76,61.33l3.52 30.43c1.63,9.97 3.86,19.72 5.74,29.56 6.44,39.39 19.42,77.74 29.59,115.95 23.13,75.94 47.86,149.77 73.06,221.44 101.17,286.61 201.44,541.57 285.19,755.76 84.93,213.12 153.76,385.85 201.67,506.13 23.66,59.12 42.15,105.32 55.04,137.54 5.95,15.22 10.59,27.11 14.03,35.89 3.08,8.12 4.54,12.33 4.28,12.44z"/>
      </g>
      <g>
       <path class="fil9" d="M14017.49 10306.33c-0.7,0.85 -7.55,-4.72 -19.63,-15.9 -11.2,-11.81 -24.82,-31.64 -36.38,-58.49 -23.18,-53.87 -34.93,-134.25 -36.69,-221.92 -1.6,-87.92 4.9,-167.12 10.67,-224.13 5.95,-57.02 10.78,-92.09 12.94,-91.96 2.24,0.15 1.39,35.68 -1.66,92.82 -2.87,57.14 -7.54,136.02 -5.95,222.93 1.74,86.69 11.57,165.32 31.22,218.11 9.81,26.32 21.3,46.04 30.61,58.61 10.14,11.89 15.57,19.08 14.87,19.93z"/>
      </g>
      <g>
       <path class="fil9" d="M13695.61 9640.58c1.61,-0.34 9.37,29.32 6.4,78.27 -2.69,48.47 -19.2,116.72 -61.69,179.11 -42.54,62.4 -100.02,102.74 -144.16,122.96 -44.47,20.67 -74.91,24.3 -75.17,22.68 -0.78,-2.65 28.27,-10.18 70.05,-32.77 41.59,-22.21 95.41,-62.27 136.05,-121.89 40.6,-59.6 58.19,-124.34 63.65,-171.16 5.75,-47.15 2.12,-76.94 4.87,-77.2z"/>
      </g>
      <g>
       <path class="fil9" d="M15033.04 11266.84c0.28,0.02 0.22,2.92 -0.16,8.53 -0.55,6.51 -1.24,14.7 -2.09,24.86 -2.31,23.03 -5.52,54.96 -9.59,95.5 -9.16,84.11 -22.2,203.69 -38.24,350.95 -33.65,297.21 -79.92,705.8 -131.02,1157.12 -19.76,225.97 -0.02,443.43 42.39,635.02 20.94,96.03 48.71,185.2 77.92,267.69 28.94,82.62 55.92,159.64 80.59,230.09 48.51,139.95 87.91,253.61 115.62,333.54 13.03,38.6 23.28,69.02 30.68,90.96 3.1,9.72 5.6,17.55 7.59,23.79 1.63,5.39 2.33,8.19 2.07,8.28 -0.26,0.09 -1.48,-2.53 -3.61,-7.74 -2.39,-6.1 -5.38,-13.74 -9.09,-23.26 -8.08,-21.68 -19.29,-51.77 -33.5,-89.95 -28.86,-79.52 -69.9,-192.6 -120.43,-331.84 -25.23,-70.25 -52.83,-147.05 -82.43,-229.44 -29.83,-82.5 -58.34,-172.35 -79.8,-268.89 -43.51,-192.76 -63.87,-411.91 -43.95,-639.6 50.35,-452.59 100.34,-860.81 135.72,-1156.93 18.16,-147.02 32.9,-266.41 43.28,-350.39 5.35,-40.4 9.55,-72.25 12.58,-95.2 1.51,-10.1 2.72,-18.24 3.67,-24.72 0.93,-5.56 1.53,-8.39 1.8,-8.37z"/>
      </g>
     </g>
     <g>
      <polygon class="fil12" points="13584.22,9593.37 13716.25,9256.02 14017.49,9705.24 13615.83,9604.83 "/>
      <path class="fil15" d="M16736.85 8579.24l-357.57 -801.56c-42.74,-128.88 -122.94,-148.89 -190.09,-223.67l-895.72 -505.17c-652.77,-267.37 -1008.17,629.31 -1008.17,629.31l-593.33 1353.34c-697.73,231.31 -203.7,767.14 -203.7,767.14 0,0 -189.8,-329.89 -3.15,-448.92 195.45,-124.62 412.11,203.72 620.28,515.59 245.76,368.19 1044.37,607.33 1044.37,607.33 93.43,-98.68 67.3,-443.17 140.43,-628.05 23.19,-58.62 576.24,-1339.61 576.24,-1339.61l214.37 519.39c0,0 274.81,-322.17 408,-373.4 133.19,-51.23 248.04,-71.72 248.04,-71.72z"/>
      <g>
       <path class="fil6" d="M15149.77 9148.88c0.51,0.82 -8.87,7.97 -27.12,18.93 -18.21,11.01 -45.77,25.11 -81.48,38.62 -70.84,27.29 -178.08,48.47 -294.34,30.53 -116.31,-17.95 -212.16,-70.49 -271.48,-117.86 -29.97,-23.66 -52,-45.42 -66.05,-61.39 -14.08,-15.96 -20.87,-25.59 -20.13,-26.22 2.21,-2.11 32.33,34.32 93,78.57 59.99,44.23 154.04,93.62 267.1,111.08 113.01,17.43 217.59,-1.3 288.12,-25.38 71.19,-23.9 110.9,-49.56 112.38,-46.88z"/>
      </g>
      <path class="fil15" d="M13665.42 7877.83l552.78 52.14 884.27 -934.66 -520.07 -17.87 -926.14 91.4c0,0 82.02,386.03 9.16,808.99z"/>
      <g>
       <path class="fil6" d="M14433.17 7385.36c0.49,0.24 -1.86,6.13 -6.77,17.12 -5.81,12.48 -13.15,28.28 -22.19,47.71 -20.27,43.29 -48.07,102.65 -82.02,175.14 -68.74,148.12 -159.94,354.45 -258.8,583.22 -98.85,228.88 -188.78,435.95 -256.77,584.57 -33.93,74.34 -61.94,134.24 -82.07,175.27 -9.54,19.19 -17.3,34.79 -23.43,47.13 -5.52,10.69 -8.65,16.19 -9.15,15.97 -0.5,-0.24 1.65,-6.21 6.23,-17.33 5.41,-12.67 12.26,-28.68 20.68,-48.38 19.13,-43.81 45.36,-103.88 77.4,-177.26 65.35,-151.8 154.22,-358.21 252.42,-586.33 98.89,-228.83 191.83,-434.66 263.25,-581.69 35.6,-73.57 65.25,-132.71 86.68,-173.09 10.14,-18.89 18.37,-34.25 24.89,-46.39 5.85,-10.51 9.15,-15.92 9.65,-15.66z"/>
      </g>
      <g>
       <path class="fil6" d="M16120.24 7657.17c1.55,2.72 -32.73,20.59 -79.51,60.39 -23.56,19.65 -49.07,45.94 -74.68,77.25 -24.88,31.89 -49.43,69.16 -70.1,111.05 -20.09,42.2 -34.14,84.56 -43.76,123.86 -8.71,39.51 -13.53,75.82 -14.37,106.5 -2.26,61.37 4.95,99.34 1.86,99.81 -1.09,0.2 -3.43,-9.11 -6.73,-26.3 -1.83,-8.56 -3.62,-19.12 -4.33,-31.53 -0.89,-12.39 -2.77,-26.52 -2.11,-42.2 -0.61,-31.36 3.13,-68.75 11.29,-109.48 9.05,-40.53 23.08,-84.28 43.75,-127.64 21.23,-43.07 46.87,-81.17 73.06,-113.39 26.92,-31.62 53.95,-57.72 78.95,-76.68 11.9,-10.23 24.15,-17.51 34.43,-24.48 10.18,-7.14 19.57,-12.28 27.44,-16.16 15.53,-8.03 24.3,-11.98 24.81,-11z"/>
      </g>
     </g>
     <g>
      <g>
       <g>
        <g>
         <g>
          <g>
           <g>
            <g>
             <g>
              <g>
               <g>
                <g>
                 <g>
                  <g>
                   <path class="fil12" d="M16274.69 6373.46l-518.58 969.33c-84.67,158.26 -277.3,224.11 -441.12,150.79 -180.38,-80.71 -255.01,-297.17 -162.63,-471.84 48.91,-92.48 89.48,-167.96 89.48,-167.96 0,0 -225.46,-146.12 -120.03,-389.73 94.06,-217.34 439.43,-830.81 512.78,-960.54l437.07 195.59c245.48,127.53 337.29,432.51 203.03,674.36z"/>
                  </g>
                 </g>
                </g>
               </g>
              </g>
             </g>
            </g>
            <g>
             <g>
              <g>
               <g>
                <g>
                 <g>
                  <g>
                   <path class="fil16" d="M15243 6850.11c0,0 147.56,80.97 356.03,51.58 0,0 -152.68,140.95 -384.68,10.95l28.65 -62.53z"/>
                  </g>
                 </g>
                </g>
               </g>
              </g>
             </g>
            </g>
           </g>
          </g>
         </g>
         <g>
          <g>
           <g>
            <g>
             <g>
              <g>
               <g>
                <g>
                 <g>
                  <g>
                   <g>
                    <g>
                     <g>
                      <path class="fil6" d="M15409.56 6075.1c-8.83,17.98 -0.88,40.28 17.74,49.84 18.57,9.54 40.8,2.75 49.62,-15.24 8.83,-17.98 0.88,-40.3 -17.69,-49.83 -18.61,-9.57 -40.86,-2.75 -49.67,15.23z"/>
                     </g>
                    </g>
                   </g>
                  </g>
                 </g>
                </g>
               </g>
               <g>
                <g>
                 <g>
                  <g>
                   <g>
                    <g>
                     <g>
                      <g>
                       <path class="fil6" d="M15411.52 6044.23c2.29,6.44 37.17,-1.23 74.37,15.53 37.38,16.21 56.12,47.59 62.21,44.84 2.89,-1.13 2.15,-11.23 -5.86,-25.21 -7.84,-13.87 -24.07,-31.2 -47.31,-41.48 -23.25,-10.25 -46.58,-10.45 -61.7,-6.73 -15.38,3.66 -22.91,10.09 -21.71,13.05z"/>
                      </g>
                     </g>
                    </g>
                   </g>
                  </g>
                 </g>
                </g>
               </g>
              </g>
              <g>
               <g>
                <g>
                 <g>
                  <g>
                   <g>
                    <g>
                     <g>
                      <path class="fil6" d="M15757.89 6246.45c-8.82,17.98 -0.87,40.27 17.74,49.84 18.57,9.53 40.8,2.74 49.62,-15.24 8.82,-17.98 0.88,-40.3 -17.7,-49.85 -18.6,-9.56 -40.85,-2.73 -49.66,15.25z"/>
                     </g>
                    </g>
                   </g>
                  </g>
                 </g>
                </g>
               </g>
               <g>
                <g>
                 <g>
                  <g>
                   <g>
                    <g>
                     <g>
                      <g>
                       <path class="fil6" d="M15774.39 6214.96c2.27,6.43 37.21,-1.21 74.36,15.53 37.38,16.21 56.14,47.59 62.22,44.84 2.88,-1.13 2.2,-11.21 -5.87,-25.23 -7.85,-13.86 -24.06,-31.18 -47.3,-41.46 -23.26,-10.25 -46.57,-10.44 -61.71,-6.73 -15.34,3.68 -22.89,10.09 -21.7,13.05z"/>
                      </g>
                     </g>
                    </g>
                   </g>
                  </g>
                 </g>
                </g>
               </g>
              </g>
              <g>
               <g>
                <g>
                 <g>
                  <g>
                   <g>
                    <g>
                     <g>
                      <path class="fil6" d="M15515.7 6430.61c1.13,-2.04 -20.22,-16.39 -55.58,-37.97 -9.07,-5.24 -17.22,-11.16 -15.92,-18.36 0.83,-7.87 9.4,-16.35 18.96,-25.35 19.24,-19 39.38,-38.92 60.51,-59.81 85.17,-85.6 151.36,-157.7 147.89,-161.1 -3.48,-3.4 -75.33,63.22 -160.51,148.82 -20.77,21.22 -40.6,41.42 -59.52,60.78 -8.43,9.19 -20.11,18.68 -21.64,35.1 -0.61,8.25 4.05,16.54 9.42,20.9 5.26,4.59 10.56,7.08 15.14,9.48 36.83,18.91 60.17,29.56 61.25,27.51z"/>
                     </g>
                    </g>
                   </g>
                  </g>
                 </g>
                </g>
               </g>
              </g>
              <g>
               <g>
                <g>
                 <g>
                  <g>
                   <g>
                    <g>
                     <g>
                      <path class="fil6" d="M15613.76 6505.4c-5.91,-3.07 -24.07,37.31 -71.49,50.52 -47.4,13.32 -88.46,-10.5 -91.3,-4.99 -1.7,2.28 6.07,12.14 24.04,20.77 17.56,8.6 46.18,14.52 75.19,6.45 28.98,-8.14 48.55,-27.56 57.35,-43.52 9.1,-16.2 9.07,-28.24 6.21,-29.23z"/>
                     </g>
                    </g>
                   </g>
                  </g>
                 </g>
                </g>
               </g>
              </g>
             </g>
            </g>
           </g>
           <g>
            <g>
             <g>
              <g>
               <g>
                <g>
                 <g>
                  <path class="fil6" d="M15830.08 6064.74c-0.86,11.78 38.46,23.61 79.78,48.42 41.83,23.98 71.33,52.54 81.19,46.05 4.53,-3.18 2.65,-15.45 -7.21,-31.63 -9.74,-16.1 -28.1,-35.48 -53.02,-50.14 -24.94,-14.6 -50.81,-21.18 -69.62,-21.82 -18.93,-0.72 -30.56,3.62 -31.12,9.12z"/>
                 </g>
                </g>
               </g>
              </g>
             </g>
            </g>
           </g>
           <g>
            <g>
             <g>
              <g>
               <g>
                <g>
                 <g>
                  <path class="fil6" d="M15473.43 5942.61c2.77,11.38 32.34,14.09 63.38,27.48 31.49,12.3 54.41,31.16 64.38,25.01 4.55,-3.11 4.23,-13.43 -3.59,-26.54 -7.68,-13 -23.57,-27.94 -45.05,-36.78 -21.49,-8.81 -43.29,-9.37 -57.89,-5.51 -14.79,3.82 -22.27,10.92 -21.23,16.34z"/>
                 </g>
                </g>
               </g>
              </g>
             </g>
            </g>
           </g>
          </g>
         </g>
         <g>
          <g>
           <g>
            <g>
             <g>
              <g>
               <g>
                <g>
                 <path class="fil12" d="M16111.63 6518.75c4.93,0.07 188.5,25.26 109.08,188.54 -79.41,163.27 -226.94,49.86 -224.95,45.03 2,-4.81 115.87,-233.57 115.87,-233.57z"/>
                </g>
               </g>
              </g>
             </g>
            </g>
           </g>
          </g>
          <g>
           <g>
            <g>
             <g>
              <g>
               <g>
                <g>
                 <g>
                  <path class="fil17" d="M16075.72 6714.73c0.97,-0.17 1.88,3.38 5.61,7.92 3.65,4.42 10.98,9.82 21.05,10.78 20.33,2.06 48.17,-18.27 63.27,-47.3 7.65,-14.67 11.42,-30.32 11.85,-44.6 0.83,-14.37 -2.84,-26.47 -10.77,-32.23 -7.67,-6.21 -16.35,-4 -20.58,-0.38 -4.41,3.5 -4.96,7.27 -5.96,7.13 -0.65,0.18 -2.17,-4.44 2.42,-10.55 2.25,-2.91 6.04,-5.83 11.4,-7.1 5.47,-1.29 12.02,-0.1 17.76,3.49 12.17,7 17.86,24.09 17.39,39.77 0.2,16.07 -3.69,33.83 -12.27,50.3 -17.05,32.39 -48.86,54.98 -75.79,50.32 -12.94,-2.58 -20.84,-10.71 -23.91,-16.97 -3.09,-6.49 -2.18,-10.56 -1.47,-10.58z"/>
                 </g>
                </g>
               </g>
              </g>
             </g>
            </g>
           </g>
          </g>
         </g>
        </g>
       </g>
       <g>
        <g>
         <g>
          <path class="fil6" d="M16206.3 6554.38c-22.53,-17.42 -76.67,-13.65 -98.02,5.18 -21.36,18.83 -35.73,44.57 -57.05,63.44 -21.33,18.87 -55.19,29.4 -77.81,12.1 -15.59,-11.93 -20.75,-33.87 -17.6,-53.25 3.15,-19.38 13.21,-36.86 23.41,-53.64 44.38,-72.98 94.97,-142.42 132.95,-218.93 37.97,-76.51 63.09,-162.42 51.89,-247.1 -11.21,-84.68 -64.5,-167.11 -145.02,-195.62 -53.34,-18.9 -112.56,-13.18 -166.91,-28.9 -64.44,-18.64 -118.97,-68.74 -143.01,-131.36 -3.08,-8.02 -21.31,-36.64 -21.31,-36.64 1.8,-4.01 21.07,-36.91 40.35,-43.41 143.45,-48.43 338,7.19 456.93,100.89 118.91,93.7 202.2,244.54 203.65,395.93 1.47,151.41 -93.81,318.43 -182.45,431.31z"/>
         </g>
        </g>
       </g>
      </g>
      <g>
       <path class="fil6" d="M16207.87 6538.02c45.35,-77.14 118.97,-133.06 175.16,-202.7 1052.51,-863.01 -1103.59,-1399.91 -840.57,-769.31 1.94,31.08 17.33,59.72 35.17,85.25 58.74,84.14 148.59,146.02 248.14,170.92l222.47 -17.35 182.38 135.17 134.99 214.84 -244.78 318 87.04 65.18z"/>
      </g>
     </g>
    </g>
   </g>
   <g>
    <g>
     <path class="fil18" d="M14816 5269.88c-27.98,-433.02 -401.68,-761.36 -834.7,-733.39 -433.02,27.98 -761.36,401.69 -733.38,834.71 20.26,313.5 221.8,572.02 495.81,680.29 6,92.91 12.77,197.8 12.77,197.8l687.19 -44.41c0,0 -3.02,-111.28 -7.88,-210.47 244.05,-146.54 399.81,-420.87 380.19,-724.53z"/>
     <g>
      <path class="fil19" d="M14194.98 6217.68c0,0 -0.11,-3.3 0.15,-9.72 0.33,-6.81 0.78,-16.28 1.38,-28.49 1.42,-25.03 3.47,-61.95 7.36,-109.43 3.93,-47.46 9.47,-105.54 20.17,-172.44 11.02,-66.74 27.01,-142.73 57.05,-222.79 15.05,-40 32.8,-81.11 56.9,-121.48 12.44,-19.81 28.35,-39.34 50.48,-51.62 22.1,-12.39 50.64,-14.23 74.61,-2.39 11.86,5.89 22.28,16.38 26.83,29.43 4.99,12.81 4.63,27.78 -0.68,40.45 -10.52,25.59 -32.5,44.36 -57.19,56.1 -50.61,21.47 -110.57,20.76 -163.74,-1 -53.35,-21.72 -97.79,-67.33 -119.16,-123.66 -10.3,-28.02 -16.95,-59.02 -10.48,-90.15 5.44,-30.88 33.25,-60 67.72,-59.09 17.07,0.15 33.24,10.77 41.7,25.08 8.81,14.21 11.94,31.5 9.42,47.93 -5.45,33.2 -27.46,59.2 -50.09,81.46 -46.76,44.04 -112.61,71.07 -179.33,64.84 -66.26,-6.24 -127.98,-45.81 -158.9,-103.22 -16.1,-28.18 -21.79,-63.27 -11.44,-94.63 5.22,-15.48 16.27,-30.32 32.14,-36.9 15.58,-7.2 33.83,-5.44 48.56,1.32 14.9,6.68 27.4,18.44 35.32,32.26 8.18,13.78 12.55,29.17 14.87,44.4 4.2,30.58 1.81,61.39 -6.11,90.38 -15.46,58.08 -52.94,108.65 -102.03,138.63 -48.85,30.27 -107.14,41.21 -160.79,32.78 -26.51,-4.08 -53.9,-12.8 -73.01,-32.87 -18.7,-19.59 -25.7,-52.07 -9.23,-75.24 8.21,-11.16 21.22,-17.67 34.12,-19.5 12.98,-1.77 26.1,0.03 37.87,4.85 24.02,9.99 39.63,30.67 51.47,50.7 22.45,41.25 40.94,81.55 59.51,119.97 72.91,153.97 125.81,281.3 161.43,369.61 17.79,44.16 31.08,78.66 39.99,102.09 4.26,11.46 7.56,20.35 9.93,26.73 2.19,6.05 3.07,9.23 3.07,9.23 0,0 -1.5,-2.95 -3.99,-8.87 -2.58,-6.3 -6.17,-15.07 -10.81,-26.38 -9.69,-23.56 -23.69,-57.66 -41.66,-101.39 -36.67,-87.81 -90.5,-214.66 -164.11,-368.08 -18.65,-38.1 -37.62,-78.85 -59.77,-119.12 -11.48,-19.42 -26.64,-38.65 -47.95,-47.31 -20.68,-8.58 -48.78,-6.69 -62.64,12.2 -13.61,18.75 -7.88,47.71 8.77,64.84 17.04,17.91 42.69,26.34 68.31,30.17 51.62,7.96 107.9,-2.75 154.8,-31.98 47.06,-28.85 83.03,-77.54 97.81,-133.46 7.59,-27.83 9.8,-57.58 5.77,-86.59 -3.93,-28.51 -17.87,-57.72 -44.83,-69.43 -12.92,-5.87 -28.1,-7.19 -40.86,-1.24 -13.01,5.41 -22.23,17.55 -26.94,31.33 -9.18,28.12 -4.37,60.45 10.88,86.95 29.2,54.31 88.32,92.29 151.36,98.16 63.48,5.98 126.88,-19.89 171.83,-62.2 21.91,-21.4 42.6,-46.57 47.24,-75.91 2.24,-14.33 -0.57,-29.41 -8.05,-41.51 -7.3,-12.14 -20.08,-20.44 -33.96,-20.63 -13.84,-0.48 -27.8,5.62 -38.17,15.1 -10.53,9.39 -17.04,22.6 -20.08,36.56 -6,28.17 0.07,58.05 9.96,84.85 20.38,54 62.97,97.87 113.94,118.73 50.75,21.06 109.09,21.65 156.76,1.52 23.13,-10.81 43.82,-28.79 53.08,-51.39 9.93,-22.51 -0.65,-49.78 -22.11,-59.77 -21,-10.57 -47.35,-9.14 -67.22,2.03 -20.46,11.22 -35.74,29.59 -47.92,48.83 -23.72,39.33 -41.75,80.4 -56.82,119.9 -30.23,79.32 -46.62,154.84 -58.11,221.28 -11.17,66.58 -17.25,124.52 -21.74,171.88 -3.96,47.11 -7.04,83.85 -9.17,109.23 -1,12.18 -1.78,21.63 -2.33,28.43 -0.59,6.39 -1.14,9.65 -1.14,9.65z"/>
     </g>
     <path class="fil19" d="M14399.03 6335.52l-590.02 38.13c-24.45,1.58 -45.56,-16.96 -47.14,-41.42 -1.59,-24.45 16.96,-45.56 41.42,-47.14l590.01 -38.13c24.46,-1.58 45.57,16.97 47.15,41.42 1.58,24.46 -16.97,45.56 -41.42,47.14z"/>
     <path class="fil19" d="M14401.52 6374.19l-590.01 38.14c-24.46,1.57 -43,22.68 -41.42,47.13 1.58,24.45 22.69,43 47.14,41.42l64.76 -4.19 96.5 157.99c11.03,18.07 31.19,28.53 52.32,27.17l210.82 -13.62c21.35,-1.38 40.12,-14.6 48.63,-34.22l72.95 -168.42 44.04 -2.84c24.45,-1.58 43,-22.68 41.42,-47.14 -1.58,-24.45 -22.69,-43 -47.15,-41.42z"/>
    </g>
    <g>
     <path class="fil20" d="M13495.99 4853.5c49.58,-52.09 102.61,-89.83 150.26,-114.51 47.66,-24.82 89.12,-38.02 118.57,-42.93 29.48,-5 46.54,-3.22 48.39,2.93 4.32,14.03 -53.75,38.97 -130.38,97.63 -76.38,57.5 -170.43,155.55 -222.37,288.85 -51.58,133.5 -48.23,269.34 -30.61,363.31 17.03,94.99 43.07,152.55 30.43,159.98 -5.5,3.31 -19.31,-6.89 -37.7,-30.45 -18.44,-23.49 -40.14,-61.18 -58.61,-111.65 -18.53,-50.36 -32.24,-114 -33.72,-185.9 -1.63,-71.75 10.24,-151.76 40.22,-230.2l125.52 -197.06z"/>
    </g>
    <g>
     <path class="fil20" d="M14003.95 4720.64c-49.74,2.75 -94.46,-8.01 -101.25,-34 -3.03,-12.89 5.27,-27.4 22.51,-39.42 17.14,-12 43.29,-21.16 73.01,-22.94 29.71,-1.75 56.76,4.24 75.2,14.14 18.55,9.88 28.51,23.3 27.03,36.46l-96.5 45.76z"/>
    </g>
    <g>
     <path class="fil9" d="M14280.17 6648.69c-0.6,1.51 -15.88,-4.31 -41.34,-9.86 -25.4,-5.62 -61.4,-9.76 -100.9,-6.15 -39.49,3.79 -74.1,14.56 -98.01,24.8 -23.99,10.18 -37.92,18.74 -38.79,17.37 -0.61,-0.85 12.09,-11.53 35.94,-23.57 23.72,-12.09 59.19,-24.31 99.96,-28.21 40.77,-3.74 77.9,1.68 103.45,9.13 25.67,7.42 40.13,15.56 39.69,16.49z"/>
    </g>
    <g>
     <path class="fil9" d="M14364.61 6467.52c0.18,2.66 -106.35,11.71 -237.91,20.21 -131.59,8.51 -238.38,13.24 -238.55,10.58 -0.17,-2.66 106.33,-11.71 237.93,-20.21 131.55,-8.5 238.36,-13.24 238.53,-10.58z"/>
    </g>
    <g>
     <path class="fil9" d="M14332.21 6539.89c0.14,1.29 -21.9,5.08 -57.72,9.66 -35.82,4.6 -85.45,9.87 -140.38,14.2 -54.95,4.33 -104.79,6.89 -140.89,7.97 -36.1,1.08 -58.45,0.8 -58.51,-0.5 -0.05,-1.36 22.18,-3.49 58.14,-6.31 38.86,-2.99 87.12,-6.69 140.5,-10.78 53.36,-4.32 101.59,-8.22 140.44,-11.37 35.96,-2.84 58.26,-4.22 58.42,-2.87z"/>
    </g>
   </g>
   <g>
    <g>
     <g>
      <g>
       <path class="fil3" d="M12178.01 13201.27l19.46 32.34c21.84,36.29 53.64,65.57 91.61,84.35l33.83 16.73 -32.34 19.46c-36.3,21.84 -65.57,53.63 -84.36,91.61l-16.72 33.83 -19.46 -32.34c-21.85,-36.3 -53.64,-65.58 -91.61,-84.35l-33.83 -16.74 32.34 -19.45c36.29,-21.85 65.57,-53.64 84.35,-91.62l16.73 -33.82z"/>
      </g>
     </g>
    </g>
   </g>
   <g>
    <g>
     <g>
      <g>
       <path class="fil3" d="M10391.17 6553.7l19.46 32.34c21.85,36.29 53.64,65.57 91.61,84.36l33.83 16.72 -32.34 19.46c-36.3,21.85 -65.58,53.64 -84.36,91.61l-16.73 33.83 -19.46 -32.34c-21.83,-36.3 -53.62,-65.57 -91.6,-84.36l-33.83 -16.72 32.34 -19.47c36.3,-21.83 65.57,-53.63 84.35,-91.6l16.73 -33.83z"/>
      </g>
     </g>
    </g>
   </g>
   <g>
    <g>
     <g>
      <g>
       <path class="fil3" d="M18660.48 7700.62l19.46 32.34c21.84,36.29 53.63,65.57 91.6,84.35l33.84 16.73 -32.34 19.47c-36.3,21.83 -65.58,53.62 -84.36,91.6l-16.73 33.83 -19.45 -32.34c-21.85,-36.3 -53.64,-65.58 -91.62,-84.36l-33.82 -16.73 32.34 -19.45c36.29,-21.85 65.57,-53.64 84.35,-91.62l16.73 -33.82z"/>
      </g>
     </g>
    </g>
   </g>
   <g>
    <g>
     <g>
      <g>
       <path class="fil3" d="M17683.93 13618.77l19.46 32.34c21.84,36.3 53.64,65.58 91.6,84.35l33.84 16.74 -32.34 19.45c-36.3,21.85 -65.57,53.64 -84.36,91.61l-16.72 33.83 -19.46 -32.34c-21.84,-36.3 -53.64,-65.58 -91.61,-84.35l-33.83 -16.74 32.34 -19.45c36.3,-21.84 65.57,-53.63 84.36,-91.61l16.72 -33.83z"/>
      </g>
     </g>
    </g>
   </g>
   <g>
    <g>
     <g>
      <g>
       <path class="fil3" d="M17869.84 14862.44l9.33 3.75c10.45,4.2 21.89,5.32 32.96,3.22l9.87 -1.87 -3.75 9.32c-4.2,10.46 -5.32,21.9 -3.22,32.97l1.87 9.86 -9.32 -3.74c-10.45,-4.21 -21.9,-5.33 -32.97,-3.23l-9.87 1.87 3.75 -9.31c4.21,-10.46 5.33,-21.9 3.22,-32.97l-1.87 -9.87z"/>
      </g>
     </g>
    </g>
   </g>
   <g>
    <g>
     <g>
      <g>
       <path class="fil3" d="M18432.13 6453.08l9.32 3.74c10.45,4.21 21.89,5.33 32.97,3.23l9.86 -1.87 -3.74 9.31c-4.21,10.47 -5.33,21.9 -3.23,32.98l1.88 9.86 -9.32 -3.74c-10.46,-4.22 -21.9,-5.33 -32.97,-3.23l-9.87 1.86 3.75 -9.3c4.21,-10.46 5.32,-21.9 3.22,-32.97l-1.87 -9.87z"/>
      </g>
     </g>
    </g>
   </g>
   <g>
    <g>
     <g>
      <g>
       <path class="fil3" d="M10754.54 5685.26l9.32 3.75c10.45,4.2 21.9,5.31 32.97,3.22l9.87 -1.87 -3.75 9.32c-4.21,10.45 -5.32,21.89 -3.22,32.96l1.86 9.86 -9.31 -3.74c-10.46,-4.2 -21.9,-5.33 -32.97,-3.23l-9.87 1.88 3.75 -9.32c4.2,-10.45 5.33,-21.9 3.23,-32.97l-1.88 -9.86z"/>
      </g>
     </g>
    </g>
   </g>
   <g>
    <g>
     <g>
      <g>
       <path class="fil3" d="M11702.11 12233.11l9.31 3.76c10.45,4.2 21.9,5.31 32.97,3.22l9.87 -1.87 -3.75 9.31c-4.2,10.46 -5.32,21.91 -3.22,32.98l1.87 9.87 -9.32 -3.75c-10.45,-4.21 -21.9,-5.33 -32.97,-3.23l-9.86 1.87 3.74 -9.32c4.2,-10.45 5.33,-21.9 3.23,-32.97l-1.87 -9.87z"/>
      </g>
     </g>
    </g>
   </g>
   <g>
    <g>
     <g>
      <g>
       <g>
        <g>
         <path class="fil3" d="M12729.38 14764.04c0,0 -2.81,3.36 -8.79,9.41 -6.47,6.42 -15.36,15.24 -26.78,26.59 -24.26,23.63 -59.24,57.7 -104.14,101.43 -91.42,88.19 -223.14,215.22 -386.31,372.61l1.53 -3.81c18.36,404.41 43.33,954.03 71.08,1565.27l0.63 13.83 -11.53 -7.7c-44.3,-29.62 -91.7,-61.3 -139.49,-93.24 -318.21,-213.04 -619.44,-414.69 -884.5,-592.16l-1.81 -1.21 -0.68 -2.03c-131.97,-394.11 -243.3,-726.56 -321.86,-961.15 -38.59,-116.67 -69.12,-208.98 -90.23,-272.79 -10.08,-31.17 -17.9,-55.35 -23.4,-72.38 -2.43,-7.84 -4.32,-13.96 -5.78,-18.67 -1.24,-4.22 -1.79,-6.39 -1.62,-6.44 0.16,-0.06 1.04,2 2.61,6.1 1.69,4.63 3.9,10.65 6.73,18.35 5.94,16.89 14.38,40.86 25.26,71.76 21.9,63.54 53.57,155.46 93.61,271.65 79.72,234.19 192.72,566.08 326.68,959.52l-2.48 -3.24c265.31,177.12 566.8,378.4 885.28,591.01 47.77,31.95 95.17,63.64 139.48,93.28l-10.89 6.13c-26.18,-611.31 -49.72,-1161 -67.04,-1565.45l-0.1 -2.27 1.63 -1.56c164.49,-156.01 297.25,-281.96 389.41,-369.38 45.69,-42.91 81.28,-76.33 105.96,-99.51 11.85,-10.93 21.06,-19.41 27.76,-25.59 6.3,-5.69 9.78,-8.36 9.78,-8.36z"/>
        </g>
       </g>
      </g>
     </g>
    </g>
    <g>
     <g>
      <g>
       <g>
        <polygon class="fil3" points="12317.64,16651.47 12314.82,16742.72 12388.39,16796.77 12300.73,16822.29 12272.05,16908.97 12220.7,16833.48 12129.41,16833 12185.33,16760.82 12157.58,16673.85 12243.5,16704.74 "/>
       </g>
      </g>
     </g>
    </g>
    <g>
     <g>
      <g>
       <g>
        <polygon class="fil3" points="11252.18,16032.21 11253.96,16091.26 11303.61,16123.29 11247.99,16143.22 11232.88,16200.34 11196.73,16153.6 11137.73,16156.89 11171.02,16108.07 11149.67,16052.97 11206.38,16069.54 "/>
       </g>
      </g>
     </g>
    </g>
    <g>
     <g>
      <g>
       <g>
        <polygon class="fil3" points="10793.24,14713.2 10837.79,14770.42 10910.19,14766.16 10869.54,14826.21 10895.97,14893.74 10826.29,14873.64 10770.24,14919.64 10767.82,14847.17 10706.75,14808.07 10774.93,14783.37 "/>
       </g>
      </g>
     </g>
    </g>
    <g>
     <g>
      <g>
       <g>
        <polygon class="fil3" points="12684.82,14656 12729.38,14713.2 12801.76,14708.94 12761.12,14768.99 12787.56,14836.52 12717.88,14816.43 12661.81,14862.43 12659.4,14789.95 12598.33,14750.85 12666.51,14726.16 "/>
       </g>
      </g>
     </g>
    </g>
    <g>
     <g>
      <g>
       <g>
        <polygon class="fil3" points="12188.23,15208.58 12216.67,15245.1 12262.87,15242.37 12236.93,15280.7 12253.8,15323.8 12209.33,15310.97 12173.55,15340.33 12172.01,15294.08 12133.04,15269.12 12176.55,15253.36 "/>
       </g>
      </g>
     </g>
    </g>
   </g>
   <g>
    <g>
     <g>
      <g>
       <g>
        <g>
         <path class="fil3" d="M11125.39 12128.41c0,355 -287.78,642.78 -642.78,642.78 -354.99,0 -642.78,-287.78 -642.78,-642.78 0,-354.99 287.79,-642.78 642.78,-642.78 355,0 642.78,287.79 642.78,642.78z"/>
        </g>
       </g>
      </g>
     </g>
     <g>
      <g>
       <g>
        <g>
         <path class="fil14" d="M10399.06 12329.05c0,57.9 -46.94,104.83 -104.83,104.83 -57.9,0 -104.84,-46.93 -104.84,-104.83 0,-57.91 46.94,-104.83 104.84,-104.83 57.89,0 104.83,46.92 104.83,104.83z"/>
        </g>
       </g>
      </g>
     </g>
     <g>
      <g>
       <g>
        <g>
         <path class="fil14" d="M10250.38 12026.52c0,33.68 -27.31,60.98 -60.99,60.98 -33.68,0 -60.98,-27.3 -60.98,-60.98 0,-33.68 27.3,-60.99 60.98,-60.99 33.68,0 60.99,27.31 60.99,60.99z"/>
        </g>
       </g>
      </g>
     </g>
    </g>
    <g>
     <g>
      <g>
       <g>
        <path class="fil3" d="M9859.05 12284.73c2.87,11.14 -550.15,541.75 -407.6,654.81 142.55,113.04 742.2,-176.96 1253.39,-589.84 511.19,-412.88 978.13,-914.23 850.34,-1046.94 -127.8,-132.72 -766.63,260.22 -766.63,260.22l76.34 48.68c0,0 386.25,-247.82 508.42,-151.62 122.18,96.2 -226.1,471.86 -717.62,830.68 -491.53,358.82 -966.46,610.7 -1040.19,512.39 -73.72,-98.3 274.16,-426.2 274.16,-426.2l-30.61 -92.18z"/>
       </g>
      </g>
     </g>
    </g>
    <g>
     <g>
      <g>
       <g>
        <path class="fil21" d="M9859.05 12284.73c2.87,11.14 -550.15,541.75 -407.6,654.81 142.55,113.04 742.2,-176.96 1253.39,-589.84 511.19,-412.88 978.13,-914.23 850.34,-1046.94 -127.8,-132.72 -766.63,260.22 -766.63,260.22l76.34 48.68c0,0 386.25,-247.82 508.42,-151.62 122.18,96.2 -226.1,471.86 -717.62,830.68 -491.53,358.82 -966.46,610.7 -1040.19,512.39 -73.72,-98.3 274.16,-426.2 274.16,-426.2l-30.61 -92.18z"/>
       </g>
      </g>
     </g>
    </g>
    <g>
     <g>
      <g>
       <g>
        <g>
         <path class="fil5" d="M10128.41 11675.63c5.19,6.2 -38.39,43.2 -87.69,117.4 -49.34,73.09 -100.95,188.84 -103.79,323.07 -2.52,134.29 44.46,252.01 90.83,327 46.32,76.12 88.38,114.81 82.94,120.8 -3.26,4.49 -54.92,-25.35 -112.1,-101.12 -28.44,-37.63 -56.81,-87.06 -78.05,-146.29 -21.31,-59.09 -34.44,-128.29 -33.35,-201.38 1.83,-73.06 17.71,-141.66 41.35,-199.84 23.58,-58.33 53.89,-106.6 83.82,-143.06 60.14,-73.43 112.96,-101.2 116.04,-96.58z"/>
        </g>
       </g>
      </g>
     </g>
    </g>
   </g>
   <g>
    <g>
     <g>
      <g>
       <g>
        <path class="fil3" d="M17035.49 6095.27c6.94,-292.76 249.89,-524.46 542.65,-517.51 292.75,6.95 524.46,249.9 517.51,542.66 -6.95,292.75 -249.91,524.45 -542.66,517.5 -292.76,-6.94 -524.45,-249.9 -517.5,-542.65z"/>
       </g>
      </g>
     </g>
    </g>
    <g>
     <g>
      <g>
       <g>
        <path class="fil11" d="M17738.34 5904.75c1.14,-47.75 40.77,-85.53 88.51,-84.4 47.75,1.14 85.54,40.76 84.4,88.5 -1.13,47.75 -40.75,85.54 -88.49,84.41 -47.75,-1.13 -85.55,-40.76 -84.42,-88.51z"/>
       </g>
      </g>
     </g>
    </g>
    <g>
     <g>
      <g>
       <g>
        <path class="fil11" d="M17911.29 6106.65c0.66,-27.78 23.72,-49.76 51.49,-49.1 27.78,0.66 49.76,23.71 49.09,51.48 -0.65,27.78 -23.7,49.76 -51.48,49.11 -27.77,-0.66 -49.76,-23.72 -49.1,-51.49z"/>
       </g>
      </g>
     </g>
    </g>
    <g>
     <g>
      <g>
       <g>
        <path class="fil11" d="M17843.8 6261.12c10.24,0.25 18.34,8.74 18.1,18.99 -0.24,10.25 -8.74,18.35 -18.99,18.1 -10.24,-0.23 -18.34,-8.74 -18.1,-18.98 0.24,-10.24 8.74,-18.35 18.99,-18.11z"/>
       </g>
      </g>
     </g>
    </g>
   </g>
  </g>
  <g id="_2008322217808">
   <g>
    <g>
     <polygon class="fil22" points="8890.01,10115.29 8890.01,10205 10932.86,10205 10932.86,10115.29 "/>
    </g>
    <g>
     <polygon class="fil23" points="9327.11,10115.29 9257.18,10205 10932.86,10205 10932.86,10115.29 "/>
    </g>
    <g>
     <polygon class="fil22" points="9414.5,10204.92 11405.4,10204.92 11571.15,8881.05 9580.24,8881.05 "/>
     <path class="fil14" d="M10371.63 9542.99c-1.17,65.52 52.13,118.64 119.06,118.64 66.93,0 122.15,-53.12 123.31,-118.64 1.19,-65.54 -52.12,-118.66 -119.05,-118.66 -66.93,0 -122.14,53.12 -123.32,118.66z"/>
    </g>
   </g>
  </g>
 </g>
</svg>
