<?xml version="1.0" encoding="UTF-8"?>
<!DOCTYPE svg PUBLIC "-//W3C//DTD SVG 1.1//EN" "http://www.w3.org/Graphics/SVG/1.1/DTD/svg11.dtd">
<!-- Creator: CorelDRAW 2020 (64-Bit) -->
<svg xmlns="http://www.w3.org/2000/svg" xml:space="preserve" width="297mm" height="210mm" version="1.1" style="shape-rendering:geometricPrecision; text-rendering:geometricPrecision; image-rendering:optimizeQuality; fill-rule:evenodd; clip-rule:evenodd"
viewBox="0 0 29700 21000"
 xmlns:xlink="http://www.w3.org/1999/xlink"
 xmlns:xodm="http://www.corel.com/coreldraw/odm/2003">
 <defs>
  <style type="text/css">
   <![CDATA[
    .str0 {stroke:#C9C9C9;stroke-width:35.28;stroke-miterlimit:10}
    .str1 {stroke:#ECECEC;stroke-width:35.28;stroke-miterlimit:10}
    .fil2 {fill:none;fill-rule:nonzero}
    .fil5 {fill:#202E34;fill-rule:nonzero}
    .fil6 {fill:#2A454E;fill-rule:nonzero}
    .fil7 {fill:#375964;fill-rule:nonzero}
    .fil12 {fill:#8F5924;fill-rule:nonzero}
    .fil11 {fill:#A8190C;fill-rule:nonzero}
    .fil9 {fill:#A8A8A8;fill-rule:nonzero}
    .fil3 {fill:#C9C9C9;fill-rule:nonzero}
    .fil14 {fill:#DB4437;fill-rule:nonzero}
    .fil1 {fill:gainsboro;fill-rule:nonzero}
    .fil0 {fill:#ECECEC;fill-rule:nonzero}
    .fil10 {fill:#FF9581;fill-rule:nonzero}
    .fil13 {fill:#FF9ABC;fill-rule:nonzero}
    .fil15 {fill:#FF9EC0;fill-rule:nonzero}
    .fil4 {fill:#FFC90C;fill-rule:nonzero}
    .fil8 {fill:white;fill-rule:nonzero}
   ]]>
  </style>
 </defs>
 <g id="Layer_x0020_1">
  <metadata id="CorelCorpID_0Corel-Layer"/>
  <g id="_2008310745456">
   <g>
    <path class="fil0" d="M23150.08 4173.19c138.57,0 251,112.47 251,251.01 0,138.53 -112.43,250.75 -251,250.75 -138.54,0 -250.72,-112.22 -250.72,-250.75 0,-138.54 112.18,-251.01 250.72,-251.01zm-462.28 160.87c23.92,13.79 37.07,40.01 35.66,67.59 -0.39,7.48 -0.56,15 -0.56,22.55 0,7.62 0.17,15.2 0.56,22.71 1.38,27.45 -11.71,53.63 -35.52,67.35l-81.42 46.99 153.07 265.29 81.38 -46.96c23.89,-13.79 53.27,-12.41 76.34,2.69 12.74,8.29 25.9,15.94 39.48,22.86 24.52,12.48 40.22,37.21 40.22,64.69l0 93.77 306.38 0 0 -93.77c0,-27.48 15.74,-52.21 40.19,-64.69 13.61,-6.92 26.77,-14.57 39.47,-22.86 23.11,-15.1 52.49,-16.48 76.41,-2.69l81.39 46.96 153.07 -265.29 -81.77 -47.24c-23.78,-13.76 -36.87,-39.86 -35.46,-67.27 0.39,-7.48 0.57,-14.99 0.57,-22.54 0,-7.55 -0.18,-15.07 -0.57,-22.55 -1.41,-27.55 11.75,-53.8 35.67,-67.55l81.56 -46.99 -153.07 -265.26 -81.21 46.92c-23.85,13.8 -53.2,12.46 -76.34,-2.61 -12.74,-8.32 -25.97,-15.94 -39.65,-22.89 -24.49,-12.49 -40.26,-37.22 -40.26,-64.74l0 -93.73 -306.38 0 0 93.73c0,27.52 -15.74,52.25 -40.26,64.74 -13.65,6.95 -26.91,14.57 -39.65,22.89 -23.14,15.07 -52.49,16.41 -76.37,2.61l-81.14 -46.92 -153.07 265.26 81.28 46.95z"/>
    <path class="fil0" d="M22149.93 6422c-89,609.07 -613.76,1076.46 -1247.24,1076.46 -696.39,0 -1261.36,-564.55 -1261.36,-1261.39 0,-696.35 564.97,-1260.9 1261.36,-1260.9l0 1260.9 1247.24 184.93z"/>
    <path class="fil1" d="M22420.44 5980.28c0,62.9 -4.73,124.54 -13.72,184.9l-1247.21 -184.9 0 -1260.93c467.82,0 876.54,255.09 1094.42,633.91 106.15,184.89 166.51,399.31 166.51,627.02z"/>
    <path class="fil0" d="M10409.11 8494.5l0 1039.64 -674.51 790.57c-223.31,-190.5 -364.77,-473.78 -364.77,-790.57 0,-573.97 465.31,-1039.64 1039.28,-1039.64z"/>
    <path class="fil0" d="M11660.4 9639.96c0,220.84 -69.11,425.8 -186.62,594.08 -187.68,269.16 -499.85,445.19 -853.02,445.19 -257.17,0 -493.18,-93.48 -674.51,-248.71l674.51 -790.56 0 -1039.64c385.94,0 722.49,210.26 902.41,522.82 87.14,152.4 137.23,328.79 137.23,516.82z"/>
    <path class="fil1" d="M11660.4 9639.96c0,220.84 -69.11,425.8 -186.62,594.08 -187.68,269.16 -499.85,445.19 -853.02,445.19 -257.17,0 -493.18,-93.48 -674.51,-248.71l674.51 -790.56 0 -1039.64c385.94,0 722.49,210.26 902.41,522.82 87.14,152.4 137.23,328.79 137.23,516.82z"/>
    <line class="fil2 str0" x1="9946.26" y1="9027.35" x2="9946.26" y2= "7686.27" />
    <path class="fil2 str0" d="M10040.26 7592.28c0,51.93 -42.09,94.02 -94.02,94.02 -51.89,0 -93.98,-42.09 -93.98,-94.02 0,-51.89 42.09,-93.98 93.98,-93.98 51.93,0 94.02,42.09 94.02,93.98z"/>
    <polygon class="fil3" points="11272.7,7545.3 10231.09,7545.3 10231.09,7498.31 11272.7,7498.31 "/>
    <polygon class="fil3" points="10820.75,7639.28 10231.09,7639.28 10231.09,7592.25 10820.75,7592.25 "/>
    <line class="fil2 str0" x1="21039.23" y1="6702.4" x2="22380.32" y2= "6702.4" />
    <path class="fil2 str0" d="M22474.29 6796.39c-51.93,0 -93.98,-42.08 -93.98,-94.01 0,-51.9 42.05,-93.98 93.98,-93.98 51.92,0 94.01,42.08 94.01,93.98 0,51.93 -42.09,94.01 -94.01,94.01z"/>
    <polygon class="fil3" points="23856.69,6678.91 22815.08,6678.91 22815.08,6631.92 23856.69,6631.92 "/>
    <polygon class="fil3" points="23404.75,6772.89 22815.08,6772.89 22815.08,6725.87 23404.75,6725.87 "/>
    <polygon class="fil2 str1" points="15211.74,6325.96 10398.9,6325.96 10398.9,3204.97 15211.74,3204.97 "/>
    <polygon class="fil2 str1" points="15211.74,3619.66 10398.9,3619.66 10398.9,3204.97 15211.74,3204.97 "/>
    <path class="fil3" d="M10788.07 3415.31c0,57.61 -46.71,104.35 -104.35,104.35 -57.61,0 -104.32,-46.74 -104.32,-104.35 0,-57.61 46.71,-104.35 104.32,-104.35 57.64,0 104.35,46.74 104.35,104.35z"/>
    <path class="fil0" d="M11214.1 3415.31c0,57.61 -46.7,104.35 -104.35,104.35 -57.61,0 -104.31,-46.74 -104.31,-104.35 0,-57.61 46.7,-104.35 104.31,-104.35 57.65,0 104.35,46.74 104.35,104.35z"/>
    <path class="fil4" d="M11640.13 3415.31c0,57.61 -46.71,104.35 -104.36,104.35 -57.6,0 -104.31,-46.74 -104.31,-104.35 0,-57.61 46.71,-104.35 104.31,-104.35 57.65,0 104.36,46.74 104.36,104.35z"/>
    <polygon class="fil5" points="12727.54,16613.52 10784.65,16616.62 8841.84,16625.2 10784.65,16633.77 12727.54,16636.87 16613.24,16642.83 20498.98,16636.91 22441.83,16633.8 24384.69,16625.2 22441.83,16616.55 20498.98,16613.45 16613.24,16607.63 "/>
    <polygon class="fil6" points="21885.27,15963.55 11341.24,15963.55 11341.24,4153.83 21885.27,4153.83 "/>
    <polygon class="fil5" points="21729.2,11870.45 11524.33,11870.45 11524.33,4340.7 21729.2,4340.7 "/>
    <polygon class="fil7" points="18725.82,5114.24 14527.67,5114.24 14527.67,5021.21 18725.82,5021.21 "/>
    <polygon class="fil7" points="18007.96,5308.48 15245.47,5308.48 15245.47,5215.48 18007.96,5215.48 "/>
    <path class="fil8" d="M18069.22 10522.43c-109.33,60.14 -235.27,94.65 -369.04,94.65 -423.09,0 -766.2,-343.35 -766.2,-766.44 0,-423.08 343.11,-766.48 766.2,-766.48l0 766.48 369.04 671.79z"/>
    <path class="fil4" d="M18154.58 9233.85l-454.41 616.76 0 -766.44c170.22,0 327.24,55.53 454.41,149.68z"/>
    <path class="fil9" d="M18466.4 9850.63c0,200.8 -77.08,382.97 -203.27,519.45l-562.96 -519.45 454.41 -616.76c189.27,139.38 311.82,363.89 311.82,616.76z"/>
    <path class="fil7" d="M18538.89 10725.69c-55.78,60.92 -121.29,112.25 -193.96,152.33l-369.04 -671.79 563 519.46z"/>
    <path class="fil9" d="M15631.63 9113.53l-210.57 737.09 0 766.44c-423.09,0 -766.2,-343.35 -766.2,-766.44 0,-423.08 343.11,-766.44 766.2,-766.44 73.13,0 143.79,10.51 210.57,29.35z"/>
    <path class="fil8" d="M15874.96 10467.89c-126.93,93.91 -283.92,149.19 -453.88,149.19l0 -766.47 453.88 617.28z"/>
    <path class="fil7" d="M16187.51 9850.63c0,253.36 -123.01,477.87 -312.56,617.28l-453.88 -617.28 595.98 -481.79c106.61,131.58 170.46,299.37 170.46,481.79z"/>
    <path class="fil4" d="M16187.51 9120.63l-596.01 481.79 210.6 -737.1c153.57,43.99 287.59,134.23 385.41,255.31z"/>
    <path class="fil7" d="M13141.93 9084.18l0 766.44 -516.01 566.41c-153.84,-140.36 -250.19,-342.15 -250.19,-566.41 0,-423.08 343.11,-766.44 766.2,-766.44z"/>
    <path class="fil4" d="M13690.73 9315.53l-548.81 535.1 0 -766.45c215.23,0 409.39,88.76 548.81,231.35z"/>
    <path class="fil9" d="M13908.38 9850.63c0,239.43 -109.79,453.42 -282.22,594.03l-484.23 -594.03 548.82 -535.1c134.48,138.19 217.63,326.99 217.63,535.1z"/>
    <path class="fil8" d="M13626.17 10645.59c-131.83,107.84 -300.56,172.4 -484.25,172.4 -198.79,0 -379.77,-76.06 -516.01,-200.02l516.01 -566.41 484.25 594.03z"/>
    <path class="fil4" d="M19979.31 9084.18l0 1532.88c-423.33,0 -766.23,-343.35 -766.23,-766.44 0,-423.08 342.9,-766.44 766.23,-766.44z"/>
    <path class="fil5" d="M20172.76 9108.88l-193.43 741.75 0 -766.44c66.74,0 131.55,8.78 193.43,24.69z"/>
    <path class="fil7" d="M20877.73 9806.56c0,99.06 -18.81,193.96 -53.06,280.99l-713.14 -280.99 193.46 -741.75c329.43,85.59 572.74,385.2 572.74,741.75z"/>
    <path class="fil9" d="M20692.45 10131.64c-112.29,284.16 -389.08,485.42 -713.14,485.42l0 -766.44 713.14 281.02z"/>
    <polygon class="fil7" points="13683.44,11153.78 12788.65,11153.78 12788.65,11067.81 13683.44,11067.81 "/>
    <polygon class="fil7" points="13382.49,11333.24 12788.65,11333.24 12788.65,11247.3 13382.49,11247.3 "/>
    <polygon class="fil7" points="12643.56,11334.44 12375.73,11334.44 12375.73,11066.61 12643.56,11066.61 "/>
    <polygon class="fil7" points="15962.56,11153.78 15067.78,11153.78 15067.78,11067.81 15962.56,11067.81 "/>
    <polygon class="fil7" points="15661.61,11333.24 15067.78,11333.24 15067.78,11247.3 15661.61,11247.3 "/>
    <polygon class="fil9" points="14922.68,11334.44 14654.85,11334.44 14654.85,11066.61 14922.68,11066.61 "/>
    <polygon class="fil7" points="18241.67,11153.78 17346.92,11153.78 17346.92,11067.81 18241.67,11067.81 "/>
    <polygon class="fil7" points="17940.75,11333.24 17346.92,11333.24 17346.92,11247.3 17940.75,11247.3 "/>
    <polygon class="fil8" points="17201.82,11334.44 16934,11334.44 16934,11066.61 17201.82,11066.61 "/>
    <polygon class="fil7" points="20520.83,11153.78 19626.08,11153.78 19626.08,11067.81 20520.83,11067.81 "/>
    <polygon class="fil7" points="20219.87,11333.24 19626.04,11333.24 19626.04,11247.3 20219.87,11247.3 "/>
    <polygon class="fil4" points="19480.91,11334.44 19213.08,11334.44 19213.08,11066.61 19480.91,11066.61 "/>
    <path class="fil7" d="M12375.72 5773.96l2125.53 -5.5c708.48,1.94 1417,0.74 2125.47,5.5 -708.47,4.76 -1416.99,3.56 -2125.47,5.5l-2125.53 -5.5z"/>
    <path class="fil7" d="M12375.72 5942.89l2125.53 -5.5c708.48,1.94 1417,0.74 2125.47,5.5 -708.47,4.76 -1416.99,3.56 -2125.47,5.5l-2125.53 -5.5z"/>
    <path class="fil7" d="M12375.72 6111.82l2125.53 -5.51c708.48,1.94 1417,0.75 2125.47,5.51 -708.47,4.73 -1416.99,3.56 -2125.47,5.5l-2125.53 -5.5z"/>
    <path class="fil7" d="M12375.72 6280.73l2125.53 -5.5c708.48,1.94 1417,0.74 2125.47,5.5 -708.47,4.76 -1416.99,3.56 -2125.47,5.5l-2125.53 -5.5z"/>
    <path class="fil7" d="M12375.72 6449.66l2125.53 -5.5c708.48,1.94 1417,0.74 2125.47,5.5 -708.47,4.77 -1416.99,3.57 -2125.47,5.51l-2125.53 -5.51z"/>
    <path class="fil7" d="M12375.72 6618.59l2125.53 -5.5c708.48,1.94 1417,0.74 2125.47,5.5 -708.47,4.77 -1416.99,3.57 -2125.47,5.51l-2125.53 -5.51z"/>
    <path class="fil7" d="M12375.72 6787.51l2125.53 -5.51c708.48,1.94 1417,0.74 2125.47,5.51 -708.47,4.76 -1416.99,3.56 -2125.47,5.5l-2125.53 -5.5z"/>
    <path class="fil7" d="M12375.72 6956.43l2125.53 -5.5c708.48,1.94 1417,0.74 2125.47,5.5 -708.47,4.77 -1416.99,3.57 -2125.47,5.51l-2125.53 -5.51z"/>
    <path class="fil7" d="M12375.72 7125.37l2125.53 -5.51c708.48,1.94 1417,0.74 2125.47,5.51 -708.47,4.76 -1416.99,3.56 -2125.47,5.5l-2125.53 -5.5z"/>
    <path class="fil7" d="M12375.72 7294.28l2125.53 -5.5c708.48,1.94 1417,0.77 2125.47,5.5 -708.47,4.76 -1416.99,3.56 -2125.47,5.5l-2125.53 -5.5z"/>
    <path class="fil7" d="M12375.72 7463.21l2125.53 -5.5c708.48,1.94 1417,0.74 2125.47,5.5 -708.47,4.76 -1416.99,3.56 -2125.47,5.5l-2125.53 -5.5z"/>
    <path class="fil7" d="M12375.72 7632.14l2125.53 -5.5c708.48,1.94 1417,0.74 2125.47,5.5 -708.47,4.76 -1416.99,3.56 -2125.47,5.5l-2125.53 -5.5z"/>
    <path class="fil7" d="M12375.72 7801.07l2125.53 -5.5c708.48,1.94 1417,0.74 2125.47,5.5 -708.47,4.73 -1416.99,3.56 -2125.47,5.5l-2125.53 -5.5z"/>
    <path class="fil7" d="M12375.72 7969.98l2125.53 -5.5c708.48,1.94 1417,0.78 2125.47,5.5 -708.47,4.77 -1416.99,3.57 -2125.47,5.51l-2125.53 -5.51z"/>
    <path class="fil7" d="M12375.72 8138.91l2125.53 -5.5c708.48,1.94 1417,0.74 2125.47,5.5 -708.47,4.77 -1416.99,3.57 -2125.47,5.51l-2125.53 -5.51z"/>
    <polygon class="fil4" points="13147.61,6956.44 12825.24,6956.44 12825.24,8335.87 13147.61,8335.87 "/>
    <polygon class="fil8" points="13745.63,6372.95 13423.27,6372.95 13423.27,8335.84 13745.63,8335.84 "/>
    <polygon class="fil9" points="14343.66,6793.35 14021.3,6793.35 14021.3,8335.84 14343.66,8335.84 "/>
    <polygon class="fil4" points="14941.66,6280.73 14619.29,6280.73 14619.29,8335.84 14941.66,8335.84 "/>
    <polygon class="fil8" points="15539.69,6556.36 15217.32,6556.36 15217.32,8335.87 15539.69,8335.87 "/>
    <polygon class="fil9" points="16137.71,7564.6 15815.35,7564.6 15815.35,8335.84 16137.71,8335.84 "/>
    <path class="fil7" d="M12491.08 5655.41l8.82 670.1 6.03 670.1c4.13,446.76 5.37,893.48 6.11,1340.21l-20.96 -20.39 1033.92 -0.85 1033.93 2.4 1033.88 6.77 1033.91 12.1 -1033.91 12.1 -1033.88 6.74 -1033.93 2.4 -1033.92 -0.85 -20.95 0 0.03 -20.42c0.74,-446.73 1.98,-893.45 6.11,-1340.21l6.03 -670.1 8.78 -670.1z"/>
    <polygon class="fil7" points="13147.61,8505.88 12825.24,8505.88 12825.24,8477.48 13147.61,8477.48 "/>
    <polygon class="fil7" points="13745.63,8505.88 13423.27,8505.88 13423.27,8477.48 13745.63,8477.48 "/>
    <polygon class="fil7" points="14343.66,8505.88 14021.3,8505.88 14021.3,8477.48 14343.66,8477.48 "/>
    <polygon class="fil7" points="14941.66,8505.88 14619.29,8505.88 14619.29,8477.48 14941.66,8477.48 "/>
    <polygon class="fil7" points="15539.69,8505.88 15217.32,8505.88 15217.32,8477.48 15539.69,8477.48 "/>
    <polygon class="fil7" points="16137.71,8505.88 15815.35,8505.88 15815.35,8477.48 16137.71,8477.48 "/>
    <path class="fil4" d="M19012.35 6806.78c0,366.82 -222.99,682.55 -541.31,817.88l-347.23 -817.88 888.54 0z"/>
    <path class="fil4" d="M18010.2 6745.75l347.24 817.92c-0.85,0 -0.85,0.81 -1.69,0.81 -27.27,11.08 -54.47,21.31 -81.71,29.81 -85.97,26.39 -174.48,40 -263.84,40 -91.9,0 -180.45,-14.46 -263.84,-40 -278.31,-86.82 -497.91,-306.39 -583.85,-584.7 -25.54,-83.39 -40,-171.9 -40,-263.84 0,-91.9 14.46,-180.41 40,-263.84 85.94,-278.31 305.54,-497.88 583.85,-583.81 83.39,-25.54 171.94,-40.01 263.84,-40.01 91.9,0 180.41,14.47 263.84,40.01 279.16,85.93 497.88,305.5 584.7,583.81 25.5,83.43 40,171.94 40,263.84l-888.54 0z"/>
    <path class="fil9" d="M18010.2 6745.75l347.24 817.92c-0.85,0 -0.85,0.81 -1.69,0.81 -27.27,11.08 -54.47,21.31 -81.71,29.81 -85.97,26.39 -174.48,40 -263.84,40 -91.9,0 -180.45,-14.46 -263.84,-40 -276.62,-87.67 -496.18,-308.08 -583.85,-584.7 -25.54,-83.39 -40,-171.9 -40,-263.84 0,-91.9 14.46,-180.41 40,-263.84 87.67,-276.58 307.23,-496.15 583.85,-583.81 83.39,-25.54 171.94,-40.01 263.84,-40.01 91.9,0 180.41,14.47 263.84,40.01 276.58,87.66 497,307.23 584.7,583.81 25.5,83.43 40,171.94 40,263.84l-888.54 0z"/>
    <path class="fil7" d="M18010.51 6745.92l-578.84 673.38c-196.18,-168.59 -309.14,-414.72 -309.14,-673.38 0,-487.11 400.83,-887.98 887.98,-887.98 487.12,0 887.98,400.87 887.98,887.98l-887.98 0z"/>
    <polygon class="fil5" points="19471.78,7922.75 18800.8,7922.75 17969.9,7091.85 17982.04,7079.72 18807.89,7905.6 19471.78,7905.6 "/>
    <polygon class="fil5" points="18022.67,7132.48 17929.25,7132.48 17929.25,7039.06 18022.67,7039.06 "/>
    <polygon class="fil5" points="19471.78,7279.91 18715.6,7279.91 18356.76,6921 18368.82,6908.9 18722.77,7262.77 19471.78,7262.77 "/>
    <polygon class="fil5" points="18409.49,6961.66 18316.11,6961.66 18316.11,6868.25 18409.49,6868.25 "/>
    <polygon class="fil5" points="19471.77,6660.96 18328.46,6660.96 18328.46,6643.81 19471.77,6643.81 "/>
    <polygon class="fil5" points="18362.78,6699.09 18269.4,6699.09 18269.4,6605.67 18362.78,6605.67 "/>
    <polygon class="fil7" points="20562.39,6635.87 19731.81,6635.87 19731.81,6558.61 20562.39,6558.61 "/>
    <polygon class="fil7" points="20809.54,6797.27 19731.81,6797.27 19731.81,6720.01 20809.54,6720.01 "/>
    <polygon class="fil7" points="20307.93,6958.63 19731.81,6958.63 19731.81,6881.37 20307.93,6881.37 "/>
    <polygon class="fil7" points="19565.54,6746.12 19378.04,6746.12 19378.04,6558.61 19565.54,6558.61 "/>
    <polygon class="fil7" points="20663.42,7260.15 19731.84,7260.15 19731.84,7182.89 20663.42,7182.89 "/>
    <polygon class="fil7" points="20508.76,7421.51 19731.84,7421.51 19731.84,7344.25 20508.76,7344.25 "/>
    <polygon class="fil7" points="20809.54,7582.87 19731.81,7582.87 19731.81,7505.61 20809.54,7505.61 "/>
    <polygon class="fil4" points="19565.54,7370.39 19378.04,7370.39 19378.04,7182.89 19565.54,7182.89 "/>
    <polygon class="fil7" points="20663.42,7884.42 19731.84,7884.42 19731.84,7807.17 20663.42,7807.17 "/>
    <polygon class="fil7" points="20508.76,8045.78 19731.84,8045.78 19731.84,7968.53 20508.76,7968.53 "/>
    <polygon class="fil7" points="20809.54,8207.14 19731.81,8207.14 19731.81,8129.89 20809.54,8129.89 "/>
    <polygon class="fil9" points="19565.54,7994.67 19378.04,7994.67 19378.04,7807.17 19565.54,7807.17 "/>
    <polygon class="fil5" points="16230.92,15761.66 11524.3,15761.66 11524.3,12067.9 16230.92,12067.9 "/>
    <polygon class="fil7" points="15555.38,12464.07 12199.8,12464.07 12199.8,12389.74 15555.38,12389.74 "/>
    <polygon class="fil7" points="14981.63,12619.36 12773.59,12619.36 12773.59,12545.03 14981.63,12545.03 "/>
    <polygon class="fil4" points="12568.8,15439.82 12380.67,15439.82 12380.67,15251.65 12568.8,15251.65 "/>
    <polygon class="fil7" points="14759.59,15307.25 12699.51,15307.25 12699.51,15251.65 14759.59,15251.65 "/>
    <polygon class="fil7" points="14030.64,15439.82 12699.51,15439.82 12699.51,15384.22 14030.64,15384.22 "/>
    <path class="fil7" d="M12256.2 13361.98c540.45,-3.39 1080.94,-2.51 1621.4,-3.92 540.45,1.41 1080.94,0.53 1621.36,3.92 -540.42,3.38 -1080.91,2.5 -1621.36,3.88 -540.46,-1.38 -1080.95,-0.53 -1621.4,-3.88z"/>
    <path class="fil7" d="M12256.2 13682.37c540.45,-3.35 1080.94,-2.5 1621.4,-3.88 540.45,1.38 1080.94,0.5 1621.36,3.88 -540.42,3.39 -1080.91,2.51 -1621.36,3.88 -540.46,-1.37 -1080.95,-0.49 -1621.4,-3.88z"/>
    <path class="fil7" d="M12256.2 14002.77c540.45,-3.36 1080.94,-2.47 1621.4,-3.88 540.45,1.37 1080.94,0.49 1621.36,3.88 -540.42,3.38 -1080.91,2.54 -1621.36,3.91 -540.46,-1.41 -1080.95,-0.53 -1621.4,-3.91z"/>
    <path class="fil7" d="M12256.2 14323.19c540.45,-3.38 1080.94,-2.5 1621.4,-3.91 540.45,1.37 1080.94,0.53 1621.36,3.91 -540.42,3.39 -1080.91,2.51 -1621.36,3.88 -540.46,-1.41 -1080.95,-0.52 -1621.4,-3.88z"/>
    <path class="fil7" d="M12256.2 14643.59c540.45,-3.39 1080.94,-2.51 1621.4,-3.88 540.45,1.37 1080.94,0.49 1621.36,3.88 -540.42,3.38 -1080.91,2.5 -1621.36,3.88 -540.46,-1.38 -1080.95,-0.53 -1621.4,-3.88z"/>
    <path class="fil7" d="M12909.09 13153.65c4.77,299.37 3.57,598.77 5.54,898.14 -1.94,299.37 -0.74,598.77 -5.54,898.14 -4.79,-299.37 -3.6,-598.77 -5.54,-898.14 1.98,-299.37 0.78,-598.77 5.54,-898.14z"/>
    <path class="fil7" d="M13469.87 13153.65c4.76,299.37 3.56,598.77 5.54,898.14 -1.94,299.37 -0.74,598.77 -5.54,898.14 -4.8,-299.37 -3.6,-598.77 -5.54,-898.14 1.98,-299.37 0.78,-598.77 5.54,-898.14z"/>
    <path class="fil7" d="M14030.64 13153.65c4.77,299.37 3.57,598.77 5.54,898.14 -1.94,299.37 -0.74,598.77 -5.54,898.14 -4.79,-299.37 -3.56,-598.77 -5.53,-898.14 1.97,-299.37 0.77,-598.77 5.53,-898.14z"/>
    <path class="fil7" d="M14591.42 13153.65c4.76,299.37 3.56,598.77 5.54,898.14 -1.94,299.37 -0.74,598.77 -5.54,898.14 -4.8,-299.37 -3.56,-598.77 -5.54,-898.14 1.98,-299.37 0.78,-598.77 5.54,-898.14z"/>
    <path class="fil7" d="M15152.19 13153.65c4.77,299.37 3.57,598.77 5.54,898.14 -1.94,299.37 -0.74,598.77 -5.54,898.14 -4.79,-299.37 -3.59,-598.77 -5.53,-898.14 1.97,-299.37 0.77,-598.77 5.53,-898.14z"/>
    <g>
     <image x="12335.32" y="13646.83" width="3189.65" height="1309.86" xlink:href="Functional processes_Images\Functional processes_ImgID1.png"/>
    </g>
    <path class="fil4" d="M12337.9 14426.86l0 -31.33c29.95,0 71.26,-76.02 101.42,-131.55 51.75,-95.32 105.34,-193.92 196.78,-193.92 87.74,0 131.34,72.21 169.83,135.89 30.12,49.95 61.31,101.56 103.15,101.56 36.93,0 68.93,-100.15 92.29,-173.28 38.24,-119.88 77.82,-243.81 180.72,-243.81 91.9,0 127.96,48.65 159.71,91.58 30.9,41.67 57.53,77.65 128.05,77.65 63.82,0 88.76,-91.79 112.96,-180.55 28.4,-104.39 57.79,-212.37 163.76,-212.37 105.1,0 131.94,135.99 160.45,279.93 23,116.45 51.61,261.4 123.61,261.4 43.04,0 78.25,-35.73 115.46,-73.55 45.37,-46.14 96.81,-98.39 179.67,-98.39 49.82,0 88.66,21.34 126.3,41.98 39.37,21.7 80.18,44.03 135.54,44.03 40.99,0 78.31,-78.64 108.37,-141.82 44.06,-92.85 89.64,-188.84 183.23,-188.84 92.89,0 138.68,62.44 179.04,117.47 29.49,40.22 57.32,78.18 93.98,78.18 31.18,0 66.57,-60.85 97.72,-114.55 53.27,-91.72 119.55,-205.84 249.06,-205.84l0 31.32c-99.73,0 -157.24,98.99 -208,186.38 -43.43,74.89 -77.82,134.02 -138.78,134.02 -63.68,0 -97.51,-46.22 -133.35,-95.08 -36.27,-49.46 -73.77,-100.57 -139.67,-100.57 -61.63,0 -103.89,88.93 -141.22,167.42 -41.59,87.6 -77.54,163.23 -150.38,163.23 -70.63,0 -119.6,-26.88 -162.81,-50.62 -34.57,-18.98 -64.42,-35.38 -99.03,-35.38 -59.62,0 -102.13,43.18 -143.22,84.95 -42.09,42.75 -85.62,86.99 -151.91,86.99 -110.63,0 -138.29,-140.09 -167.6,-288.39 -22.23,-112.72 -49.99,-252.95 -116.46,-252.95 -69.28,0 -96.34,99.31 -120.22,186.98 -28.83,105.9 -56.02,205.95 -156.5,205.95 -97.36,0 -134.55,-50.17 -167.35,-94.48 -29.74,-40.11 -55.39,-74.75 -120.41,-74.75 -67.41,0 -106.25,121.64 -137.44,219.36 -35.28,110.45 -63.15,197.73 -135.57,197.73 -71.16,0 -106.54,-58.56 -143.97,-120.62 -34.71,-57.43 -70.56,-116.84 -129.01,-116.84 -60.93,0 -113.28,96.38 -155.36,173.82 -46.01,84.74 -82.38,151.66 -142.84,151.66z"/>
    <path class="fil7" d="M12337.88 13173.15c3.6,296.12 6.7,592.25 7.02,888.4l3.35 888.37 -10.37 -7.34 1580.55 1.87 790.29 1.45 790.26 4.02 -790.26 4.02 -790.29 1.45 -1580.55 1.83 -10.37 0 0 -7.3 3.38 -888.37c0.32,-296.15 3.39,-592.28 6.99,-888.4z"/>
    <polygon class="fil5" points="21729.2,15761.66 16426.92,15761.66 16426.92,12067.9 21729.2,12067.9 "/>
    <polygon class="fil7" points="20755.81,12464.07 17400.26,12464.07 17400.26,12389.74 20755.81,12389.74 "/>
    <polygon class="fil7" points="20182.06,12619.36 17974.02,12619.36 17974.02,12545.03 20182.06,12545.03 "/>
    <polygon class="fil4" points="17240.63,14691.76 17005.22,14691.76 17005.22,14456.38 17240.63,14456.38 "/>
    <polygon class="fil7" points="18671.85,14525.95 17404.18,14525.95 17404.18,14456.38 18671.85,14456.38 "/>
    <polygon class="fil7" points="19069.57,14691.76 17404.18,14691.76 17404.18,14622.22 19069.57,14622.22 "/>
    <polygon class="fil7" points="17240.63,15137.56 17005.22,15137.56 17005.22,14902.15 17240.63,14902.15 "/>
    <polygon class="fil7" points="18367.37,14971.68 17404.18,14971.68 17404.18,14902.12 18367.37,14902.12 "/>
    <polygon class="fil7" points="19069.57,15137.56 17404.18,15137.56 17404.18,15068.03 19069.57,15068.03 "/>
    <path class="fil7" d="M17760.85 13542.64c0,226.69 -183.8,410.49 -410.5,410.49 -226.69,0 -410.45,-183.8 -410.45,-410.49 0,-226.7 183.76,-410.49 410.45,-410.49 152.44,0 285.4,83.07 356.27,206.41 34.44,60.11 54.23,129.78 54.23,204.08z"/>
    <path class="fil4" d="M17706.62 13338.55l-356.27 204.08 0 -410.49c152.44,0 285.4,83.08 356.27,206.41z"/>
    <path class="fil8" d="M17634.24 13542.64c0,156.77 -127.11,283.88 -283.88,283.88 -156.78,0 -283.88,-127.11 -283.88,-283.88 0,-156.78 127.1,-283.88 283.88,-283.88 156.77,0 283.88,127.1 283.88,283.88z"/>
    <polygon class="fil5" points="17468.52,13512.91 17232.2,13512.91 17232.2,13479.58 17468.52,13479.58 "/>
    <polygon class="fil9" points="17527.05,13605.66 17173.64,13605.66 17173.64,13572.32 17527.05,13572.32 "/>
    <path class="fil7" d="M18909.44 13542.64c0,20.39 -1.48,40.53 -4.51,60.11 -28.9,198.19 -199.68,350.38 -405.95,350.38 -226.69,0 -410.49,-183.83 -410.49,-410.49 0,-226.66 183.8,-410.46 410.49,-410.46 152.33,0 285.3,83.01 356.24,206.41 34.5,60.11 54.22,129.82 54.22,204.05z"/>
    <path class="fil4" d="M18909.44 13542.64c0,20.39 -1.48,40.53 -4.51,60.11l-405.95 -60.11 0 -410.46c152.33,0 285.3,83.01 356.24,206.41 34.5,60.11 54.22,129.82 54.22,204.05z"/>
    <path class="fil8" d="M18782.83 13542.64c0,156.77 -127.1,283.88 -283.88,283.88 -156.77,0 -283.88,-127.11 -283.88,-283.88 0,-156.78 127.11,-283.88 283.88,-283.88 156.78,0 283.88,127.1 283.88,283.88z"/>
    <polygon class="fil5" points="18617.1,13512.91 18380.81,13512.91 18380.81,13479.58 18617.1,13479.58 "/>
    <polygon class="fil9" points="18675.66,13605.66 18322.21,13605.66 18322.21,13572.32 18675.66,13572.32 "/>
    <path class="fil7" d="M20065.92 13542.64c0,174.76 -109.29,324.17 -263.38,383.19 -45.72,17.67 -95.32,27.3 -147.07,27.3 -226.7,0 -410.49,-183.83 -410.49,-410.49 0,-226.66 183.79,-410.49 410.49,-410.49 152.43,0 285.43,83.04 356.23,206.44 34.5,60.11 54.22,129.82 54.22,204.05z"/>
    <path class="fil4" d="M20065.92 13542.64c0,174.76 -109.29,324.17 -263.38,383.19l-147.07 -383.19 0 -410.49c152.43,0 285.43,83.04 356.23,206.44 34.5,60.11 54.22,129.82 54.22,204.05z"/>
    <path class="fil8" d="M19939.35 13542.64c0,156.77 -127.14,283.88 -283.91,283.88 -156.74,0 -283.85,-127.11 -283.85,-283.88 0,-156.78 127.11,-283.88 283.85,-283.88 156.77,0 283.91,127.1 283.91,283.88z"/>
    <polygon class="fil5" points="19773.61,13512.91 19537.32,13512.91 19537.32,13479.58 19773.61,13479.58 "/>
    <polygon class="fil9" points="19832.17,13605.66 19478.72,13605.66 19478.72,13572.32 19832.17,13572.32 "/>
    <path class="fil7" d="M21216.17 13542.64c0,87.24 -27.23,168.2 -73.69,234.6 -74.08,106.29 -197.38,175.89 -336.8,175.89 -101.6,0 -194.73,-37.01 -266.38,-98.35 -88.2,-75.18 -144.08,-187.08 -144.08,-312.14 0,-226.66 183.8,-410.49 410.46,-410.49 152.33,0 285.29,83.04 356.27,206.44 34.47,60.11 54.22,129.82 54.22,204.05z"/>
    <path class="fil4" d="M21216.17 13542.64c0,87.24 -27.23,168.2 -73.69,234.6 -74.08,106.29 -197.38,175.89 -336.8,175.89 -101.6,0 -194.73,-37.01 -266.38,-98.35l266.38 -312.14 0 -410.49c152.33,0 285.29,83.04 356.27,206.44 34.47,60.11 54.22,129.82 54.22,204.05z"/>
    <path class="fil8" d="M21089.53 13542.64c0,156.77 -127.11,283.88 -283.88,283.88 -156.77,0 -283.88,-127.11 -283.88,-283.88 0,-156.78 127.11,-283.88 283.88,-283.88 156.77,0 283.88,127.1 283.88,283.88z"/>
    <polygon class="fil5" points="20923.81,13512.91 20687.48,13512.91 20687.48,13479.58 20923.81,13479.58 "/>
    <polygon class="fil9" points="20982.37,13605.66 20628.95,13605.66 20628.95,13572.32 20982.37,13572.32 "/>
    <polygon class="fil9" points="21885.27,4153.8 11341.24,4153.8 11341.24,3862.16 21885.27,3862.16 "/>
    <path class="fil3" d="M11573.05 4008c0,39.94 -32.39,72.32 -72.32,72.32 -39.97,0 -72.35,-32.38 -72.35,-72.32 0,-39.93 32.38,-72.32 72.35,-72.32 39.93,0 72.32,32.39 72.32,72.32z"/>
    <path class="fil8" d="M11868.4 4008c0,39.94 -32.39,72.32 -72.32,72.32 -39.97,0 -72.36,-32.38 -72.36,-72.32 0,-39.93 32.39,-72.32 72.36,-72.32 39.93,0 72.32,32.39 72.32,72.32z"/>
    <path class="fil4" d="M12163.73 4008c0,39.94 -32.35,72.32 -72.32,72.32 -39.93,0 -72.32,-32.38 -72.32,-72.32 0,-39.93 32.39,-72.32 72.32,-72.32 39.97,0 72.32,32.39 72.32,72.32z"/>
    <path class="fil10" d="M19966.71 17765.78c70.87,22.82 2090.8,-3.36 2167.04,-53.24 29.28,-18.45 42.61,-313.02 48.51,-669.36l0.1 -11.18c1.38,-73.41 2.29,-149.05 2.44,-225.71 0,-10.55 0.03,-21.1 0.38,-31.64l-98.03 -1047.89 -1351.25 13.54 133.35 1038.09 1.55 41.09 8.15 214.88 0.82 22.12c0,0 -768.71,355.81 -846.78,419.52 -77.43,63.43 -137.19,267.2 -66.28,289.78z"/>
    <path class="fil0" d="M19966.71 17765.78c70.87,22.82 2090.8,-3.36 2167.04,-53.24 29.28,-18.45 42.61,-313.02 48.51,-669.36l0.1 -11.18c1.38,-73.41 2.29,-149.05 2.44,-225.71 0,-10.55 0.03,-21.1 0.38,-31.64l-1315.93 3.74 1.55 41.09 8.15 214.88 0.82 22.12c0,0 -768.71,355.81 -846.78,419.52 -77.43,63.43 -137.19,267.2 -66.28,289.78z"/>
    <path class="fil11" d="M19966.53 17765.64c36.44,11.71 585.26,10.48 1121.66,-0.32 107.88,-2.15 215.09,-4.66 317.36,-7.44 382.55,-10.52 698.64,-26.25 727.99,-45.41 29.03,-18.2 42.33,-304.69 48.23,-654.47 0,-4.94 0.31,-9.88 0.31,-14.82 0,-3.7 0,-7.72 0.32,-11.46l-1.55 0 -1301.86 2.5 0.64 22.23c0,0 -768.81,355.67 -846.67,419.31 -77.54,63.68 -137.19,267.3 -66.43,289.88z"/>
    <path class="fil5" d="M19988.55 17687.12c340.39,-12.73 1714.53,-32.17 2051.96,-18.94 2.75,0.14 2.79,2.01 0.04,2.15 -337.12,20.04 -1711.36,28.29 -2051.93,22.37 -7.2,-0.11 -7.27,-5.29 -0.07,-5.58z"/>
    <path class="fil5" d="M20733.96 17039.96c133.67,-26.77 297.78,-8.29 401.43,85.83 4.02,3.64 -1.2,9.28 -5.58,7.98 -132.75,-39.97 -256.54,-65.13 -395.11,-76.91 -9.77,-0.81 -10.3,-14.99 -0.74,-16.9z"/>
    <path class="fil5" d="M20638.02 17099.5c133.66,-26.78 297.78,-8.3 401.42,85.83 4.02,3.63 -1.23,9.27 -5.57,7.97 -132.75,-39.97 -256.58,-65.09 -395.11,-76.91 -9.77,-0.81 -10.3,-14.99 -0.74,-16.89z"/>
    <path class="fil5" d="M20542.04 17159.03c133.66,-26.74 297.81,-8.29 401.42,85.86 4.02,3.64 -1.2,9.28 -5.57,7.94 -132.75,-39.93 -256.54,-65.09 -395.11,-76.91 -9.77,-0.81 -10.3,-14.95 -0.74,-16.89z"/>
    <path class="fil5" d="M21088.19 17765.33c107.88,-2.19 215.08,-4.66 317.36,-7.45 382.55,-10.51 698.64,-26.24 727.99,-45.4 29.03,-18.24 42.33,-304.69 48.22,-654.47 0,-4.94 0.32,-9.88 0.32,-14.85 0,-3.67 0,-7.69 0.32,-11.43l-1.56 0c-178.32,125.16 -806.8,543.52 -1092.65,733.6z"/>
    <path class="fil7" d="M20790.33 17038.86l1454.75 0c0,0 -292.92,-3397.78 -281.49,-3457.12 14.54,-75.99 100.4,-419.91 214.77,-869.24 35.81,-140.58 74.48,-291.36 114.66,-447.71 108.44,-422.74 228.03,-884.66 332.17,-1286.69 156.32,-602.26 278.38,-1070.07 278.38,-1070.07l-1232.92 0c0,0 -143.65,455.46 -324.73,1048.13 -295.1,963.15 -689.4,2288.75 -728.31,2611.05 -63.08,520.38 172.72,3471.65 172.72,3471.65z"/>
    <path class="fil5" d="M20854.75 16790.64c222.18,-4.62 158.36,-6.45 380.57,-8.57 108.73,-1.02 823.32,-7.27 924.92,9.52 2.22,0.39 2.22,4.2 0,4.56 -101.6,16.82 -816.19,10.58 -924.92,9.56 -222.21,-2.16 -158.39,-3.99 -380.57,-8.58 -4.17,-0.07 -4.17,-6.42 0,-6.49z"/>
    <path class="fil5" d="M21689.87 13374.07c47.73,-210.29 118.96,-416.38 181.01,-622.79 126.09,-419.42 253.23,-838.56 380.55,-1257.59 63.71,-209.51 127.45,-419.03 191.87,-628.29 32.56,-105.7 65.05,-211.39 98.14,-316.9 32.39,-103.23 69.22,-205.64 98.43,-309.77 11.89,-42.4 18.38,-19.12 3.17,34.68 -30.72,108.5 -60.99,217.13 -92.6,325.36 -62.69,214.35 -125.84,428.59 -189.2,642.72 -126.11,426.19 -253.92,851.89 -381.63,1277.66 -64.03,213.43 -128.48,426.75 -192.58,640.18 -30.62,101.99 -60.61,204.58 -78.64,309.67 -18.8,109.65 -19.79,220.52 -12.84,331.33 13.97,222.57 39.73,444.82 60.29,666.86 20.61,222.53 41.17,445.06 61.77,667.59 41,442.85 82.03,885.69 121.89,1328.6 5.04,56.16 9.95,112.29 14.25,168.52 1.45,18.77 -26.95,17.36 -28.93,-0.74 -47.9,-437.9 -84.63,-877.22 -125.76,-1315.79 -40.92,-436.42 -81.88,-872.81 -122.63,-1309.23 -10.23,-109.54 -21.9,-219.36 -21.98,-329.49 -0.07,-102.17 12.81,-202.99 35.42,-302.58z"/>
    <path class="fil5" d="M21810.66 9908.04c85.58,662.19 248.74,1903.75 367.7,2804.47 278.09,-1091.36 725.2,-2804.47 725.2,-2804.47l-1092.9 0z"/>
    <path class="fil10" d="M21507.8 17785.21c70.8,23.14 2090.84,4.3 2167.22,-45.3 29.35,-18.34 43.78,-312.84 50.98,-669.18l0.1 -11.15c1.66,-73.41 2.9,-149.09 3.28,-225.71 0.07,-10.58 0.15,-21.1 0.5,-31.61 4.69,-514.28 -32.39,-1047.92 -32.39,-1047.92l-1320.37 8.57 36.86 1038.19 1.41 41.17 7.38 214.87 0.67 22.12c0,0 -769.98,353.03 -848.29,416.46 -77.65,63.14 -138.15,266.7 -67.35,289.49z"/>
    <path class="fil0" d="M21507.8 17785.21c70.8,23.14 2090.84,4.3 2167.22,-45.3 29.35,-18.34 43.78,-312.84 50.98,-669.18l0.1 -11.15c1.66,-73.41 2.9,-149.09 3.28,-225.71 0.07,-10.58 0.15,-21.1 0.5,-31.61l-1315.9 -1.16 1.41 41.17 7.38 214.87 0.67 22.12c0,0 -769.98,353.03 -848.29,416.46 -77.65,63.14 -138.15,266.7 -67.35,289.49z"/>
    <path class="fil11" d="M21507.8 17785.21c70.8,23.14 2090.84,4.3 2167.22,-45.3 29.35,-18.34 43.78,-312.84 50.98,-669.18l0.1 -11.15 -1303.33 -2.44 0.67 22.12c0,0 -769.98,353.03 -848.29,416.46 -77.65,63.14 -138.15,266.7 -67.35,289.49z"/>
    <path class="fil5" d="M21529.95 17706.69c340.43,-11.53 1714.64,-25.93 2052.04,-11.46 2.72,0.14 2.75,1.97 0,2.11 -337.19,18.84 -1711.47,22.05 -2052,14.93 -7.2,-0.18 -7.23,-5.33 -0.04,-5.58z"/>
    <path class="fil5" d="M22277.71 17062.22c133.77,-26.25 297.82,-7.2 401.11,87.31 4.02,3.63 -1.24,9.28 -5.61,7.94 -132.57,-40.43 -256.29,-66.04 -394.79,-78.35 -9.78,-0.85 -10.27,-15.03 -0.71,-16.9z"/>
    <path class="fil5" d="M22181.52 17121.4c133.78,-26.24 297.85,-7.19 401.15,87.32 3.98,3.63 -1.27,9.27 -5.61,7.93 -132.61,-40.43 -256.33,-66.04 -394.8,-78.35 -9.8,-0.85 -10.3,-14.99 -0.74,-16.9z"/>
    <path class="fil5" d="M22085.37 17180.59c133.74,-26.25 297.81,-7.2 401.11,87.31 3.98,3.67 -1.27,9.28 -5.61,7.94 -132.61,-40.39 -256.29,-66 -394.8,-78.35 -9.8,-0.85 -10.26,-14.99 -0.7,-16.9z"/>
    <path class="fil7" d="M21710.51 9908.04c0,0 28.47,589.87 163.48,1057.09 10.79,38.63 22.54,76.62 35.24,113.1 0,0 140.58,50.97 355.32,182.6 0,0 14.22,474.62 28.47,1003.97 15.73,591.71 32.1,1251.72 28.71,1391.74 -12.34,523.77 65.51,3403.6 65.51,3403.6l1454.47 5.89c0,0 -262.96,-3216.1 -261.09,-3407.97 2.75,-308.37 -70.45,-1671.39 -127.03,-2665.45 -34.58,-612.42 -63.01,-1084.57 -63.01,-1084.57l-1680.07 0z"/>
    <path class="fil5" d="M22437.08 16801.42c222.18,-3.67 158.36,-5.75 380.58,-6.91 108.76,-0.6 823.38,-3.81 924.88,13.47 2.22,0.36 2.22,4.17 0,4.52 -101.71,16.37 -816.23,7.13 -924.99,5.64 -222.18,-3.1 -158.36,-4.65 -380.5,-10.19 -4.17,-0.11 -4.13,-6.42 0.03,-6.53z"/>
    <path class="fil5" d="M23268.35 10118.79c26.77,811.45 55.1,1622.98 91.44,2434.12 36.4,813.9 85.47,1627.47 153.56,2439.39 38.03,453.57 73.91,1091.64 122.87,1544.18 0.36,3.03 -4.3,4.16 -4.72,1.06 -105.91,-804.97 -164.93,-1800.3 -217,-2610.31 -52.07,-809.91 -87.38,-1621.23 -115,-2432.33 -15.63,-458.83 -27.56,-917.75 -41.28,-1376.64 -0.21,-6.52 9.91,-5.96 10.13,0.53z"/>
    <path class="fil5" d="M21848.76 11043.05c144.78,57.54 283.49,136.06 415.78,217.8 5.23,3.21 1.31,11.29 -4.33,8.58 -140.3,-68.2 -283.6,-133.85 -419.99,-209.62 -10.72,-5.97 -2.57,-21.17 8.54,-16.76z"/>
    <path class="fil5" d="M21840.6 10542.58c9.59,51.72 22.15,102.87 33.3,154.27 10.48,48.19 18.17,97.4 30.9,145.06 12.39,46.22 32.07,88.58 67.56,121.6 18.94,17.57 39.76,33.13 59.97,49.22 10.83,8.68 22.58,17.04 33.9,25.82 -1.48,-6.84 -2.68,-13.76 -3.91,-20.81 -3.42,-19.58 -6.74,-39.23 -10.02,-58.81 -7.34,-43.57 -14.29,-87.17 -20.96,-130.81 -13.12,-85.8 -25.22,-172.47 -43.07,-257.39 -0.74,-3.49 4.45,-4.8 5.33,-1.34 21.38,84.17 44.98,167.39 63.6,252.27 9.07,41.63 41.67,247.12 43.11,261.66 1.48,15.03 2.72,30.13 3.28,45.15 0.53,14.93 3.5,31.58 0.04,46.18 -0.85,3.74 -5.4,3.14 -6.99,0.6 -0.07,0.07 -0.14,0.11 -0.21,0.14 -7.48,-13.08 -9.35,-30.16 -13.05,-44.66 -3.81,-14.64 -7.09,-29.53 -9.77,-44.45 -0.92,-5.36 -1.66,-10.86 -2.44,-16.4 -20.25,-12.28 -39.08,-28.54 -57.99,-42.27 -20.43,-14.74 -41.17,-29.13 -60.47,-45.36 -36.94,-31.15 -60.01,-69.25 -73.8,-115.36 -14.29,-47.8 -18.66,-98.28 -24.24,-147.67 -6.49,-58.39 -11.29,-117.13 -19.4,-175.3 -0.49,-3.42 4.66,-4.87 5.33,-1.34z"/>
    <path class="fil12" d="M22496.4 8364.95c-196.21,337.32 -1043.19,1071.59 -1344.89,1093.01 -218.23,15.48 -949.96,-581.73 -1156.37,-789.59 -199.21,-200.52 470.68,-754.42 595.77,-644.81 176.64,154.73 564.34,602.19 648.94,615.42 59.3,9.28 421.46,-166.75 982.48,-497.1 310.48,-182.77 391.2,21.7 274.07,223.07z"/>
    <path class="fil12" d="M19567.25 8239.7c87.98,165.35 400.19,433.1 500.38,468.74 100.12,35.63 573.02,-479.99 554.53,-587.52 -18.45,-107.49 -357.79,-641.25 -533.33,-716.85 -175.54,-75.56 -612.74,664.32 -521.58,835.63z"/>
    <path class="fil12" d="M20580.34 8019.83c0,0 -29.38,-241.83 17.33,-451.3 39.26,-176.18 117.47,-433.29 23.56,-457.95 -192.83,-50.65 -387.67,590.66 -387.67,590.66 0,0 -40.53,296.72 146.09,363.82 117.02,42.09 200.69,-45.23 200.69,-45.23z"/>
    <path class="fil12" d="M20335.47 7574.57c-53.06,83.86 -119.1,35.95 -119.1,35.95 0,0 141.71,130.28 96.56,230.29 -43.71,96.24 -178.33,15.14 -188.07,9.46 7.44,6.95 134.55,130.1 78.85,225.88 -57.97,99.56 -179.11,-5.08 -186.91,-11.89 4.94,8.79 68.55,125.91 9.7,189.09 -101.17,108.48 -272.06,-186.55 -389.32,-212.58 0,0 -66.78,193.71 -69.92,198.93 0,0 -168.35,-277.35 -124.39,-433.56 23.14,-82.38 104.49,-77.02 104.49,-77.02 0,0 -64.13,-83.43 -22.68,-160.23 21.38,-39.37 103.36,-40.18 103.36,-40.18 0,0 -48.58,-68.97 -7.41,-134.97 32.67,-52.81 109.86,-45.4 109.86,-45.4 0,0 -379.27,-303.53 -311.5,-394.69 116.7,-157.02 817.52,519.89 902.93,507.36 42.37,-6.24 36.65,77.01 13.55,113.56z"/>
    <path class="fil5" d="M19742.88 7347.61c-1.66,-0.64 -1.09,-3.07 0.74,-2.68 176.14,37.89 358.1,133.49 479.25,268.36 3.98,4.41 7.97,31.78 3.21,27.12 -119.03,-116.84 -305.05,-223.52 -483.2,-292.8z"/>
    <path class="fil5" d="M19626.16 7526.57c-1.94,-0.74 -0.74,-3.95 1.45,-3.46 181.32,40 383.29,153.39 504.64,325.22 4.17,5.93 1.98,15.39 -3.31,8.97 -89.36,-108.2 -342.09,-269.17 -502.78,-330.73z"/>
    <path class="fil5" d="M20021.14 8079.17c-122.73,-160.26 -284.52,-265.11 -466.16,-348.89 -2.36,-1.06 -0.57,-4.31 1.66,-3.92 100.01,16.76 210.22,82.23 291.67,140.41 78,55.77 137.2,121.71 178.44,208.1 1.59,3.39 -3,7.73 -5.61,4.3z"/>
    <path class="fil5" d="M20219.75 7610.14c4.76,5.33 -17.22,6.71 -12.67,12.21 49.46,59.72 132.82,170.95 93.35,222.25 -31.72,40.99 -108.87,26.85 -136.32,9.77l-69.14 -42.9 50.02 64.35c21.84,28.08 40.92,60.78 52.35,94.26 11.47,33.37 14.08,69.68 -2.04,97.33 -16.26,29.25 -45.55,44.31 -77.54,36.3 -31.93,-6.63 -64.1,-27.76 -89.68,-50.94l-71.44 -64.7 46.18 84.18c12.49,22.79 22.97,48.71 29.25,74.26 6.1,25.54 8.01,52.35 -0.46,74.36 -8.18,21.63 -28.4,38.98 -50.48,40.29 -23.22,1.69 -48.9,-9.95 -72.15,-23.36 -47.09,-27.94 -88.75,-66.39 -132.01,-102.44 -21.51,-18.24 -43.1,-36.58 -65.61,-53.91 -22.54,-16.72 -46.22,-34.64 -74.19,-40.67 27.02,8.85 47.98,28.71 69.18,46.71 20.92,18.76 40.89,38.55 60.99,58.38 40.11,39.69 81.04,79.16 129.44,111.73 24.45,15.24 51.61,30.93 85.58,30.72 35.1,-0.49 64.91,-26 76.77,-56.51 12.24,-31.15 9.31,-63.33 3.03,-92.29 -6.84,-29.35 -17.18,-56.34 -31.33,-83.22l-25.33 19.47c29.99,27.59 62.83,50.98 105.31,61.18 20.92,4.93 45.54,3.49 66.36,-7.17 20.95,-10.61 36.01,-27.41 46.67,-46.56 21.91,-39.83 16.05,-86.19 2.61,-123.23 -13.87,-38.06 -34.08,-71.44 -59.16,-102.8l-19.12 21.45c35.66,20.5 120.15,45.76 177.37,-11.71 63.36,-86.01 -78.07,-231.92 -105.79,-256.79z"/>
    <path class="fil11" d="M20607.49 8030.5l-552.13 996.17c0,0 825.93,486.9 1092.63,460.48 266.73,-26.42 1044.36,-657.61 1348.45,-1070.29 185.11,-251.22 54.9,-463.87 -306,-275.7 -370.84,193.36 -890.97,459.71 -928.12,466.13 -37.11,6.38 -654.83,-576.79 -654.83,-576.79z"/>
    <path class="fil5" d="M20552.03 8674.31c36.09,-75.63 178.54,-379.23 208.1,-457.3 0.49,-1.27 -1.37,-2.47 -2.12,-1.24 -42.82,69.01 -192.12,364.46 -228.49,440.16 -72.43,150.92 -148.45,301.24 -203.94,459.46 -0.99,2.79 3.1,5.51 4.76,2.68 83.72,-142.73 150.43,-294.64 221.69,-443.76z"/>
    <g>
     <image x="21333.94" y="8069.36" width="1246.28" height="1352.11" xlink:href="Functional processes_Images\Functional processes_ImgID2.png"/>
    </g>
    <path class="fil8" d="M23447.21 10617.06c-5.29,5.19 -1910.39,-199.88 -1928.24,-223.13 -24.91,-32.74 518.4,-1971.81 687.45,-2290.01 72.04,-135.61 416.67,-155.05 552.91,-26.95 341.07,320.74 578.42,1357.87 628.34,1668.85 82.86,512.41 78.52,852.51 59.54,871.24z"/>
    <path class="fil11" d="M22243.74 8046.05l-467.29 2679.62 -359.76 -185.14c0,0 596.58,-1973.18 635.67,-2110.06 39.12,-136.84 118.82,-333.12 191.38,-384.42z"/>
    <path class="fil11" d="M22647.06 7990.79c-23.6,-9.84 -44.2,1057.31 -46.82,1233.28 -2.61,175.96 -20.03,1564.13 -20.03,1564.13l934.47 -121.18c0,0 -67.45,-1251.33 -401.85,-2006.06 -188.7,-425.94 -291.22,-597.36 -465.77,-670.17z"/>
    <path class="fil5" d="M22193.38 8138.64c0.24,-0.99 1.72,-0.78 1.58,0.25 -12.59,96.3 -35.52,320 117.02,316.72 61.45,-1.31 119.8,-35.6 168.84,-69.78 50.41,-35.07 95.95,-76.69 137.65,-121.67 46.25,-49.92 93.95,-102.34 131.31,-159.32 1.58,-2.43 5.25,0.5 3.52,2.9 -40,56.62 -74.18,115.95 -119.69,168.8 -43.75,50.84 -92.82,97.58 -148.73,134.9 -52.43,35 -114.34,68.97 -179.18,67.24 -61.74,-1.62 -103.93,-42.68 -118.07,-100.72 -18.56,-76.27 -11.36,-163.58 5.75,-239.32z"/>
    <path class="fil11" d="M22653.4 8400.88c51.47,241.05 451.55,2087.27 591.5,2105.83 412.47,54.68 856.09,15.27 858.56,-317.28 3.88,-521.97 -713.74,-1531.41 -1170.2,-2001.59 -300.54,-309.53 -330.66,-24.8 -279.86,213.04z"/>
    <path class="fil5" d="M22773.77 8888.82c-26.78,-101.63 -54.68,-203.2 -84.28,-304.02 -0.78,-2.79 -4.73,-1.48 -4.2,1.27 27.45,135.82 58.21,270.93 90.38,405.7 -26.91,-57.05 -48.93,-116.17 -68.19,-176.57 -1.16,-3.74 -6.7,-2.05 -5.78,1.73 17.18,71.26 46.14,139.49 80.99,204.08 9.07,37.71 18.21,75.42 27.38,113.14 44.49,181.68 87.24,364.03 136.77,544.44 27.84,101.39 54.15,203.27 82.98,304.41 0.98,3.46 5.99,1.83 5.25,-1.59 -76.94,-366.25 -166.05,-730.71 -261.3,-1092.59z"/>
    <polygon class="fil7" points="23495.38,10520.65 22224.25,10146.01 22711.97,8491.31 23983.06,8865.96 "/>
    <polygon class="fil9" points="23625.12,8866.9 23022.89,8688.64 23076.9,8506.15 23679.13,8684.4 "/>
    <polygon class="fil9" points="23542.33,8644 23468.15,8622.02 23493.09,8537.88 23312.85,8484.54 23287.95,8568.72 23213.79,8546.77 23259.19,8393.42 23588.76,8491 "/>
    <path class="fil12" d="M22476.32 9123.11c-68.09,66.64 -23.39,154.55 -23.39,154.55 0,0 -74.72,14.18 -116.7,74.01 -48.01,68.51 38.35,173.89 38.35,173.89 0,0 -72.64,30.02 -110.6,97.65 -39.37,70.23 32.64,188.98 32.64,188.98 0,0 -52.32,65.12 -43.15,147.11 15.63,140.19 209.87,233.43 332.74,293.93 122.87,60.5 528.07,117.08 604.17,135.67l395.18 -785.24c0,0 -473.78,-428.13 -628.33,-478.75 -130.25,-42.65 -404.5,-76.63 -480.91,-1.8z"/>
    <path class="fil10" d="M23529.59 9553.95c141.18,104.81 565.92,511.14 470.74,722.63 -95.17,211.48 -431.87,195.36 -900.43,95.07l429.69 -817.7z"/>
    <path class="fil11" d="M23529.59 9553.95c141.18,104.81 587.58,500.91 480.23,772.27 -85.33,215.64 -480.87,247.64 -949.39,147.34l469.16 -919.61z"/>
    <path class="fil5" d="M23300.77 10477.56c140.75,-349.21 341.73,-694.93 372.46,-757.69 1.45,-2.96 6.03,-0.25 4.44,2.68 -33.4,59.94 -220.16,479.92 -372,757.9 -1.76,3.21 -6.24,0.46 -4.9,-2.89z"/>
    <path class="fil5" d="M23507.61 10523.87c-181.65,-8.43 -355.67,-32.88 -441.85,-49.63 6.35,-17.25 36.79,-87.49 47.3,-103.79 2.08,-3.14 -3.52,-5.93 -5.08,-1.98 -7.9,20.25 -49.88,93.1 -61.06,109.05 -3.14,4.55 0.6,10.62 5.22,11.92 73.34,21.17 287.48,58.03 454.55,42.83 4.66,-0.39 5.82,-8.19 0.92,-8.4z"/>
    <path class="fil5" d="M23548.05 9560.67c51.16,39.76 93.35,68.51 140.41,115.82 11.04,11.04 22.12,22.15 33.19,33.33 4.84,2.9 9.56,5.89 14.29,8.89 20.08,12.7 39.72,26.04 58.49,40.57 36.37,28.22 70.17,59.41 102.52,92.15 2.33,2.36 -1.27,5.82 -3.67,3.6 -34.04,-31.54 -70.8,-59.87 -109.18,-85.94 -4.98,-3.39 -10.16,-6.56 -15.17,-9.95 18.52,19.97 36.65,40.29 53.44,61.49 44.98,56.83 87.07,113.88 124.78,175.86 1.73,2.86 -2.68,5.33 -4.41,2.58 -69.67,-108.2 -338.67,-382.52 -403.54,-430.18 -39.55,-29 -16.16,-27.66 8.85,-8.22z"/>
    <path class="fil5" d="M22464.68 9267.79c149.33,12.13 286.95,67.76 427.42,115.46 3.14,1.09 1.41,5.96 -1.69,4.87 -139.17,-49.07 -286.32,-69.92 -427.18,-113.35 -3.88,-1.2 -2.58,-7.3 1.45,-6.98z"/>
    <path class="fil5" d="M22382.3 9516.54c33.66,3.77 66.04,18.63 97.3,31.01 33.65,13.33 67.03,27.27 100.26,41.73 66.43,28.89 132.25,59.3 197.09,91.65 2.9,1.42 1.42,6.18 -1.69,4.84 -66.29,-28.68 -133,-56.38 -200.41,-82.27 -33.76,-12.95 -67.63,-25.61 -101.57,-38.03 -31.53,-11.57 -65.82,-21.13 -94.26,-39.55 -4.2,-2.75 -1.83,-9.94 3.28,-9.38z"/>
    <path class="fil5" d="M22299.45 9813.3c29.42,2.12 59.69,20.46 86.11,32.6 30.02,13.79 60.12,27.44 90.24,40.88 60.29,26.96 120.62,53.84 181.79,78.64 3.07,1.23 1.37,6.07 -1.69,4.83 -62.31,-24.87 -124.96,-48.89 -187.01,-74.36 -30.52,-12.49 -60.93,-25.12 -91.27,-37.96 -25.82,-10.9 -59.3,-21.59 -79.65,-41.67 -1.13,-1.09 0.03,-3.07 1.48,-2.96z"/>
    <path class="fil12" d="M22310.96 8352.13c108.37,18.2 303.46,-172.01 367.06,-308.96 4.31,-9.42 -15.84,-104.04 -34.92,-220.14 -11.29,-70.52 -22.23,-149.26 -27.03,-221.89l-448.06 140.61c0,0 54.79,149.26 62.34,275.88 0.49,10.58 0.14,20.49 -1.17,30.02 -0.07,1.37 -0.35,3.03 -0.35,4.97 -5.47,57.19 -22.65,281.84 82.13,299.51z"/>
    <path class="fil5" d="M22600.24 7606.15c-1.06,80.78 -22.93,418.39 -324.55,445.91 -16.94,1.41 -32.46,1.76 -46.92,0.7 0,-2.11 0.35,-3.88 0.35,-5.29 1.45,-9.52 1.76,-19.4 1.06,-29.99 -7.41,-126.64 -62.09,-275.87 -62.09,-275.87l432.15 -135.46z"/>
    <path class="fil12" d="M22700.77 7142.38c37.25,165.03 -82.59,624.84 -205.04,720.27 -177.62,138.29 -451.09,132.47 -564.26,-77.01 -109.68,-203.1 57.11,-799.61 192.33,-884.52 199.11,-125.1 521.9,-2.51 576.97,241.26z"/>
    <path class="fil5" d="M22290.25 7412.7c0.57,-1.13 2.08,2.08 1.7,3.35 -8.93,30.77 -13.94,67.49 11.5,84.92 0.77,0.56 0.31,2.12 -0.71,1.69 -33.02,-13.54 -25.86,-62.26 -12.49,-89.96z"/>
    <path class="fil5" d="M22326.22 7387.38c50.83,8.97 29.21,110 -17.92,101.68 -46.36,-8.15 -24.7,-109.19 17.92,-101.68z"/>
    <path class="fil5" d="M22116 7368.06c0.03,-1.24 -2.75,0.95 -3,2.22 -5.72,31.54 -17.53,66.64 -48.09,70.98 -0.95,0.14 -1.19,1.73 -0.1,1.8 35.59,2.54 50.83,-44.24 51.19,-75z"/>
    <path class="fil5" d="M22095.05 7329.38c-49.5,-14.6 -75.07,85.52 -29.18,99.03 45.12,13.33 70.7,-86.78 29.18,-99.03z"/>
    <path class="fil5" d="M22375.96 7349.73c-13.01,-6.42 -23.95,-14.5 -36.16,-22.16 -13.79,-8.67 -25.68,-14.14 -32.59,-29.63 -3.71,-8.32 1.23,-20.78 8.99,-25.15 17.99,-10.16 37.54,-3.78 54.58,6 18.45,10.58 29.98,23.42 37.6,43.25 7.41,19.22 -15.24,36.16 -32.42,27.69z"/>
    <path class="fil5" d="M22066.87 7270.15c14.5,0.74 28.01,-1.03 42.4,-1.84 16.27,-0.85 29.28,0.11 42.87,-10.09 7.3,-5.47 8.99,-18.73 4.33,-26.32 -10.83,-17.63 -30.97,-21.51 -50.58,-21.27 -21.28,0.28 -37.61,5.93 -53.91,19.58 -15.8,13.2 -4.2,38.98 14.89,39.94z"/>
    <path class="fil5" d="M22258.11 7698.27c-9.07,5.72 -18.7,14.22 -30.27,12.74 -11.08,-1.45 -22.83,-9.07 -31.96,-15.1 -0.89,-0.57 -2.12,0.24 -1.7,1.34 5.58,13.72 21.03,24.9 36.09,25.47 14.71,0.56 24.31,-10.16 30.55,-22.4 0.88,-1.7 -1.41,-2.9 -2.71,-2.05z"/>
    <path class="fil5" d="M22245.29 7597.52c-23.35,23.42 -52.28,32.73 -81.32,32.17 -12.94,-0.14 -26.14,-2.54 -38.66,-6.46 -2.54,-0.6 -5.01,-1.41 -7.16,-2.39 -2.22,-0.78 -4.23,-1.49 -6.63,-2.54 -3.57,-1.31 -4.91,-4.77 -4.8,-8.33l0.07 -0.25c0.28,-1.13 0.49,-2.04 0.99,-3.14l0.07 -0.24 0.6 -2.72c4.51,-24.24 14.71,-60.4 14.71,-60.4 -9.74,2.54 -58.99,13.13 -55.56,0.67 28.54,-102.87 60.29,-217.27 110.42,-313.61 1.51,-3.29 6.56,-1.38 5.53,2.01 -23.49,99.94 -64.45,195.12 -89.67,295.17 15.45,-2.4 40.99,-7.48 53.58,-4.52 3.18,1.73 -20.95,69.5 -22.08,80.54 0,0 -0.1,0.49 -0.03,1.23 39.33,13.83 72.46,8.15 117.61,-10.65 2.72,-1.27 4.73,1.38 2.33,3.46z"/>
    <path class="fil5" d="M22142.11 7614.07c0,0 15.2,33.41 42.23,50.06 9.95,6.17 21.23,10.19 34.08,9.56 26.38,-1.2 31.92,-24.03 31.57,-44.63 -0.28,-16.93 -4.76,-32.45 -4.76,-32.45 0,0 -43.82,26.35 -103.12,17.46z"/>
    <path class="fil13" d="M22184.35 7664.15c9.91,6.17 21.24,10.19 34.08,9.56 26.38,-1.24 31.92,-24.03 31.53,-44.63 -27.37,-3 -57.78,9.49 -65.61,35.07z"/>
    <path class="fil5" d="M22547.25 7373.67c-28.39,-91.47 27.56,-241.86 -16.65,-283.74 -95.67,-90.66 -300.7,72.96 -438.43,70.17 -133.53,-2.72 -175.89,-89.71 -148.91,-197.38 26.96,-107.7 120.86,-178.05 271.25,-196.46 155.61,-19.05 295.24,47.1 370.7,98.32 0,0 -32.28,-54.93 -19.22,-71.44 13.01,-16.44 77.04,37.25 96.45,59.94 19.68,23.03 31.01,65.19 31.01,65.19 0,0 24.51,-6.6 61.06,-4.69 33.94,1.76 75.99,29.46 78.21,37.5 2.19,8.08 -46.56,12.98 -80.61,13.79 0,0 61.24,86.01 57.96,158.15 -3.28,72.11 -124.6,411.98 -151.69,414.98 -34.78,3.84 -99.63,-127.15 -111.13,-164.33z"/>
    <path class="fil5" d="M22739.11 6955.78c-1.16,-0.74 -2.82,0.88 -1.73,1.91 31.75,28.93 57.19,62.26 69.54,103.96 14.28,48.54 9.66,100.33 -2.47,148.77 -23.6,94.22 -72.18,179 -114.76,265.43 -1.27,2.5 3,4.69 4.41,2.26 50.94,-88.66 102.94,-185.04 123.89,-285.93 17.89,-86.01 0.5,-185.95 -78.88,-236.4z"/>
    <path class="fil5" d="M22536.82 7055.04c-39.02,-6.49 -82.77,-3.95 -121.29,4.72 -37.99,8.54 -70.87,31.19 -105.16,48.65 -76.91,39.23 -160.9,68.97 -248.39,61.28 -1.13,-0.11 -1.24,1.55 -0.14,1.73 79.86,12.17 158.78,-9.6 230.85,-43.15 36.34,-16.93 70.91,-41.62 109.05,-54.04 43.35,-14.11 89.6,-12.28 134.55,-12 4.65,0.04 5.11,-6.45 0.53,-7.19z"/>
    <path class="fil5" d="M22503.95 6824.51c-52.99,-28.86 -110.95,-48.4 -169.76,-61.07 -56.51,-12.24 -115,-18.38 -172.54,-10.55 -99.31,13.51 -191.91,74.09 -217.73,175.05 -13.13,51.15 -9.21,107.81 16.08,154.69 1.7,3.18 6.42,0.85 5.01,-2.43 -38.31,-89.99 -19.58,-197.38 57.61,-260.95 82.9,-68.23 196.96,-70.66 297.74,-51.86 63.43,11.86 123.83,33.06 183.24,57.79 0.39,0.14 0.7,-0.5 0.35,-0.67z"/>
    <path class="fil12" d="M22572.92 7514.89c0,0 119.45,-140.55 184.18,-96.56 64.74,43.96 -34.99,254.64 -118,276.9 -82.97,22.26 -105.09,-54.16 -105.09,-54.16l38.91 -126.18z"/>
    <path class="fil5" d="M22727.02 7477.99c1.27,0 1.37,1.83 0.21,2.19 -58.35,17.46 -92.89,66.81 -118.71,118.88 18.7,-19.22 42.55,-28.47 68.51,-5.96 1.38,1.2 -0.25,3.35 -1.8,2.86 -22.54,-7.09 -39.55,-4.69 -56.87,12.27 -12.24,12.03 -21.34,27.84 -30.62,42.16 -3.1,4.8 -11.92,1.24 -9.49,-4.37 0.18,-0.43 0.39,-0.85 0.6,-1.24 5.33,-71.82 70.52,-166.83 148.17,-166.79z"/>
    <path class="fil8" d="M22227.1 8044.76l111.09 267.79 330.45 -344.24 95.95 108.13c0,0 -320.81,544.55 -323.14,520.17l-113.56 -230.65 -158.19 163.16 8.36 -405.16 49.04 -79.2z"/>
    <path class="fil5" d="M22162.51 8328.63c3.63,-66.85 5.39,-134.3 12.13,-200.9 0.25,-2.37 3.92,-3.46 4.55,-0.67 14.11,64.34 -1.13,319.93 -0.1,381.14 0.21,-0.21 0.46,-0.46 0.67,-0.71 6.6,-7.05 146.72,-143.65 148.13,-141.5 24.48,36.52 107.77,204.44 113.52,219.75 50.73,-86.5 245.36,-401.04 305.65,-482.95 1.73,-2.37 5.4,-0.5 4.06,2.25 -44.66,91.23 -302.16,514.78 -306.18,513.65 -2.72,2.15 -106.22,-204.72 -118.74,-243.84 -23.64,29.67 -164.89,183.62 -165.53,173.71 -4.02,-67 -1.8,-153 1.84,-219.93z"/>
   </g>
   <g>
    <polygon class="fil0" points="9304.79,6964.06 9055.56,6964.06 9055.56,6291.99 9304.79,6291.99 "/>
    <path class="fil5" d="M9260.7 6273.6c-80.25,-150.39 -261.92,-225.56 -454.36,-234.24 -192.44,-8.72 -433.34,27.11 -525.48,314.7 -74.81,233.54 -54.54,483.66 -120.84,748.28 -66.34,264.63 -538.03,835.18 -112.25,1270.67 382.44,391.23 1362.35,350.92 1533.56,-224.75 135.72,-456.37 -333.49,-1020.74 -349.09,-1218.09 -15.62,-197.36 116.43,-491.74 28.46,-656.57z"/>
    <path class="fil5" d="M9279.3 6553.97c-28.95,132.96 -41.87,271.35 -14.97,409.94 6.51,34.49 19.23,69.48 35.43,101.26 15.81,32.06 33.27,62.78 50.58,93.45 35.46,60.86 70.53,121.27 102.38,182.94 64.25,122.89 114.89,251.55 139.8,384.94 24.93,133.23 22.16,270.39 -6.16,403.61 22.44,-64.53 35.79,-132.04 42.64,-200.37 5.76,-68.49 3.43,-137.87 -5.69,-206.69 -18.03,-138.1 -69.39,-271.6 -133.86,-397.05 -32.72,-62.67 -68.97,-123.55 -104.83,-183.91 -35.96,-60.7 -73.23,-118.91 -88.88,-183.85 -17.25,-64.97 -23.13,-132.98 -24.22,-200.63 -2.55,-67.89 1.5,-135.78 7.78,-203.64z"/>
    <path class="fil5" d="M8244.82 6556.71c-29.6,135.63 -53.79,272.28 -90.43,405.17 -19.05,66.21 -39.25,131.99 -66.52,194.93 -26.3,62.35 -62.57,122.43 -95.75,184.06 -33,61.79 -64.69,124.58 -92.45,189.17 -26.69,65 -49.53,131.87 -63.82,200.84 -13.14,69.23 -17.43,140.27 -9.71,210.78 11.17,70.38 36.86,138.37 75.95,198.88 -30.88,-64.41 -51.7,-131.46 -55.97,-200.13 -3.42,-68.45 4.18,-136.53 20.58,-202.8 34.77,-132.3 95.44,-257.04 162.11,-379.05 32.23,-61.61 68.58,-121.75 95.23,-188.21 25.84,-65.65 46.1,-132.92 60.89,-201.16 30.72,-136.25 47,-274.27 59.89,-412.48z"/>
    <path class="fil12" d="M10804.88 17178.25c-72.03,23.25 -2125.96,-3.36 -2203.47,-54.1 -29.77,-18.77 -43.34,-318.26 -49.35,-680.63 -0.02,-3.8 -0.06,-7.56 -0.09,-11.37 -1.36,-74.64 -2.36,-151.56 -2.46,-229.51 -0.02,-10.74 -0.06,-21.41 -0.4,-32.12 -2.86,-522.96 5.41,-1065.57 5.41,-1065.57l1373.96 13.79 -41.34 1055.52 -1.58 41.8 -8.28 218.47 -0.81 22.5c0,0 781.61,361.84 861.02,426.59 78.72,64.49 139.46,271.72 67.39,294.63z"/>
    <path class="fil4" d="M10187.69 16597.54c-5.32,-1.59 -8.16,-3.18 -8.47,-4.73 0,0 3.15,1.55 8.47,4.73z"/>
    <path class="fil11" d="M10804.79 17178.16c-71.97,23.25 -2125.84,-3.18 -2203.48,-54.04 -26.37,-16.66 -40.21,-255.13 -47.13,-562.43 376.41,78.57 1834.92,373.58 1874.82,248.84 15.73,-49 -109.01,-133.82 -187.86,-181.6 215.51,102.75 454.3,220.26 496.42,254.81 78.53,64.41 139.48,271.48 67.23,294.42z"/>
    <g>
     <image x="8554.21" y="16520.08" width="992.8" height="654.92" xlink:href="Functional processes_Images\Functional processes_ImgID3.png"/>
    </g>
    <path class="fil6" d="M8132.96 9188.55c0,0 308.4,3470.63 358.64,3735.48 11.64,60.33 18.87,388.35 23.56,810 10.71,919.98 4.33,2579.27 4.33,2579.27l1447.83 0c0,0 -42.99,-2874.94 -107.05,-3404.03 -64.13,-529.44 -473.81,-3720.72 -473.81,-3720.72l-1253.5 0z"/>
    <path class="fil5" d="M9901.88 16061.06c-225.9,-4.67 -161,-6.54 -386.96,-8.7 -110.54,-1.08 -837.15,-7.43 -940.46,9.69 -2.28,0.37 -2.28,4.23 0,4.61 103.34,17.08 829.92,10.76 940.46,9.7 225.96,-2.17 161.06,-4.01 386.96,-8.7 4.26,-0.1 4.26,-6.52 0,-6.6z"/>
    <path class="fil5" d="M8794.59 14417.55c-1.59,-209.96 -3.21,-419.95 -4.71,-629.95 -1.45,-203.39 -1.18,-406.98 -10.86,-610.19 -19.58,-411.45 -103.06,-815.94 -162.43,-1222.73 -59.36,-407.01 -108.89,-815.45 -153.74,-1224.33 -50.3,-458.68 -94.76,-918.02 -141.89,-1377.04 -0.34,-3.11 -5.19,-3.05 -4.91,0.13 68.2,819.58 144.34,1638.96 257.81,2453.72 28.2,202.61 59.14,404.82 92.51,606.73 33.78,204.29 67.36,408.75 83.49,615.35 15.78,202.25 18.33,405.23 20.42,608.01 2.14,209.84 4.2,419.68 6.25,629.55 4.51,466.14 9.07,1183.67 13.55,1649.79 0.09,9.03 14.1,8.68 14,-0.32 -3.17,-415.78 -6.32,-1082.93 -9.49,-1498.72z"/>
    <path class="fil5" d="M7827.71 9188.55c0,0 613.64,3470.63 663.92,3735.48 11.6,60.33 18.83,388.35 23.53,810l0.34 1.24 689.97 -4546.72 -1377.76 0z"/>
    <path class="fil12" d="M7129.87 17289.91c-73.03,-20.05 -1776.55,-1167.77 -1813.59,-1252.62 -14.63,-32.03 138.14,-290.03 331.67,-596.4 2.06,-3.2 4.09,-6.38 6.13,-9.55 39.75,-63.23 81.07,-128.1 123.68,-193.34 5.85,-9 11.71,-17.99 17.31,-27.12 284.14,-439.04 588.36,-888.38 588.36,-888.38l1141.8 764.36 -612.95 860.31 -24.22 34.12 -126.67 178.24 -12.98 18.34c0,0 455.57,730.96 486.52,828.64 30.5,97.1 -32.19,303.69 -105.06,283.4z"/>
    <path class="fil4" d="M6959.18 16480.81c-3.21,-3.95 -4.61,-6.54 -4.3,-7.82 0,0 1.43,2.62 4.3,7.82z"/>
    <path class="fil11" d="M7129.77 17289.88c-73.08,-19.92 -1776.39,-1167.67 -1813.47,-1252.75 -12.53,-27.14 97.04,-219.68 249.88,-465.77 237.33,225.27 1384.29,1305.41 1486.74,1217.94 21.51,-18.58 12.55,-68.92 -7.03,-124.08 93.56,157.26 176.49,301.39 189.16,341.23 30.32,97.16 -32.34,303.6 -105.28,283.43z"/>
    <path class="fil6" d="M6895.79 16179.18l-1235.28 -890.25c0,0 1597.87,-2132.84 1605.19,-2327.93 10.86,-290.02 149.94,-1487.08 266.73,-2456.25 0,0 -221.44,-524.74 193.01,-1317.36l1662.27 0c0,0 -111.41,754.25 -302.1,1232.5 0,0 -145.25,45.05 -369.59,168.73 0,0 -137.34,2365.5 -178.71,2631.93 -109.49,705.19 -1641.52,2958.63 -1641.52,2958.63z"/>
    <path class="fil5" d="M6981.65 15878.63c-182.3,-133.49 -128.1,-97.78 -311.88,-229.21 -89.94,-64.37 -681.32,-486.54 -775.73,-531.8 -2.09,-1 -4.3,2.15 -2.65,3.77 74.77,73.27 673.41,485.11 764.58,547.71 186.28,127.87 134.2,89.15 321.87,214.94 3.55,2.34 7.23,-2.9 3.81,-5.41z"/>
    <path class="fil5" d="M9148.68 10387.11c-149.79,51.55 -294.42,124.76 -432.66,201.5 -5.42,3.01 -1.84,11.42 4.01,8.9 145.75,-62.57 294.39,-122.46 436.5,-193 11.17,-5.54 3.63,-21.35 -7.85,-17.4z"/>
    <path class="fil5" d="M9195.01 9387c-0.41,-5.03 -9.25,-6.16 -9.22,-0.71 1.19,173.01 -9.83,325.27 -24.44,486.98 -6.78,75.08 -67.17,489.97 -197.35,459.71 -21.79,-5.05 -32.93,-26.53 -36.33,-59.37 -4.14,-39.49 10.74,-87.96 17.28,-127.25 14.48,-86.85 26.05,-173.98 33.49,-261.73 13.92,-163.77 14.63,-327.54 -5.29,-490.81 -0.62,-5.35 -8.38,-4.95 -8.38,0.47 0.16,226.74 -5.75,453.01 -39.65,677.55 -16.28,107.92 -70.6,270.41 42.24,287 114.99,16.91 189.32,-255.22 203.36,-329.68 39.16,-207.72 40.69,-432.01 24.29,-642.16z"/>
    <path class="fil5" d="M8967.47 10344.16c-11.77,27.86 -21.24,56.87 -29.26,86 -6.29,22.64 -14.76,47.07 -12.17,70.7 0.49,4.57 6.56,5.01 8.99,1.9 15.26,-19.37 21.73,-45.82 30.26,-68.77 9.9,-26.61 20.39,-53.01 29.51,-79.87 6.07,-17.84 -20.11,-27.15 -27.33,-9.96z"/>
    <path class="fil12" d="M8793.49 7643.43c198.85,263.1 738.25,1020.71 1126.3,994.53 332.12,-22.38 1005.4,-251.14 1141.96,-316.17 253.42,-120.62 -142.04,-843.03 -297.5,-787.31 -247.47,88.71 -589.23,330.68 -850.65,366.89 -106.83,14.81 -341.57,-213.12 -936.69,-466.65 -230.36,-98.15 -322.9,24.15 -183.42,208.71z"/>
    <path class="fil12" d="M11044.67 7310.9c135.82,-25.47 289.56,-65.53 432.2,-40.54 142.6,24.97 231.93,232.32 223.5,286.39 -8.44,54.07 -114.96,382.91 -258,360.62 -143.03,-22.28 -16.31,-267.92 -17.05,-298.43 -0.81,-30.53 -0.25,-69.35 -27.71,-70.75 -27.42,-1.43 -534.64,148.98 -534.64,148.98l181.7 -386.27z"/>
    <path class="fil12" d="M11050.73 7332.04c8.11,1.27 414.88,-90.15 557.51,-65.19 142.63,25 231.94,232.35 223.53,286.42 -8.43,54.07 -114.99,382.92 -257.99,360.63 -143.07,-22.29 -16.34,-267.93 -17.09,-298.46 -0.78,-30.51 -0.25,-69.33 -27.67,-70.73 -27.46,-1.43 -534.67,148.98 -534.67,148.98l56.38 -361.65z"/>
    <path class="fil5" d="M11528.05 7888.22c-14.13,-25.37 -11.86,-59.86 -10.65,-88.22 1.31,-30.97 8.69,-61.57 19.43,-90.52 9.34,-25.21 24.5,-49.37 29.6,-75.99 4.76,-24.59 0.34,-55.38 -8.13,-78.72 -7.93,-21.79 -30,-18.21 -49.05,-14.66 -28.08,5.26 -56.07,14.47 -83.24,23.04 -29.48,9.27 -58.71,19.26 -88,29.04 -30.1,10.05 -61.58,18.83 -90.18,32.72 -2.11,1.02 -1.4,4.63 1.15,4.16 26.37,-4.79 51.98,-13.84 77.67,-21.32 29.16,-8.53 58.33,-16.84 87.69,-24.75 27.35,-7.4 54.38,-16.28 81.9,-23.19 9.68,-2.46 29.41,-9.37 39.4,-5.44 10.59,4.16 11.77,31.84 12.83,40.93 3.39,28.61 -5.29,51.05 -16.99,76.51 -11.28,24.54 -20.8,49.81 -27.03,76.11 -5.73,24.22 -8.99,50.62 -5.63,75.46 3.2,23.88 15.85,44.73 24.5,66.83 1.24,3.15 6.31,0.84 4.73,-1.99z"/>
    <path class="fil12" d="M10538.5 7636.77c0,0 452.67,-299.49 546.4,-358.39 187.95,-118.16 929.54,-294.28 1028.3,-289.43 98.78,4.86 102.83,209.53 -402.64,342.7 -266.38,70.2 -333.05,206.1 -340.61,286.04 -7.57,79.91 44.97,239.2 178.67,256.38 133.73,17.12 250.37,-163.74 376.07,-166.26 125.73,-2.53 10.02,209.12 -96.56,325.2 -106.56,116.08 -279.88,198.51 -401.82,223.76 -121.86,25.24 -502.16,123.23 -502.16,123.23l-385.65 -743.23z"/>
    <path class="fil5" d="M11728.45 7806.18c-56.2,31.03 -120.85,72.46 -187.21,64.68 -68.62,-8.06 -106,-59.27 -129.01,-119.79 -23.19,-61.01 -31.81,-127.81 -6.25,-189.57 22.97,-55.59 65.34,-101.29 114.46,-135.1 60.8,-41.84 129.34,-69.29 199.13,-91.95 3.08,-1 1.22,-5.6 -2.02,-4.74 -65.53,17.84 -268.28,66.18 -332.58,228.55 -26.31,66.34 -15.19,130.9 7.84,193.4 21.23,57.6 56.22,115.4 119.94,130.68 77.7,18.65 155.39,-34.76 219.3,-73.71 2.86,-1.74 -0.65,-4.08 -3.6,-2.45z"/>
    <path class="fil14" d="M10505.39 7618.41l315.02 883.63c0,0 -708.39,225.71 -1024.1,161.9 -315.74,-63.85 -796.24,-721.16 -1007.14,-1004.13 -210.89,-282.93 -18.27,-355.4 340.02,-179.42 358.29,175.97 743.02,402 775.82,402 32.78,0 600.38,-263.98 600.38,-263.98z"/>
    <path class="fil5" d="M10351.09 7713.91c5.48,35.77 18.7,71.63 28.51,106.43 9.96,35.36 19.33,70.85 29.82,106.06 20.24,67.8 42.18,134.97 65.03,201.96 45.79,134.38 94.01,268.39 153.24,397.45 1.22,2.71 5.67,0.81 4.77,-1.99 -43.65,-137.28 -93.86,-272.37 -140.58,-408.62 -22.98,-66.99 -45.54,-134.11 -68.45,-201.1 -11.46,-33.52 -23.69,-66.8 -34.96,-100.39 -11.18,-33.37 -19.73,-69.11 -34.28,-101.1 -0.86,-1.9 -3.38,-0.44 -3.1,1.3z"/>
    <path class="fil0" d="M9445.61 9431.01c0,0 -657.03,155.67 -1901.93,48.12 0,0 486.79,-1553.75 878.79,-1972.62 178.41,-190.63 352.78,-161.5 500.56,-38.88 36.86,30.63 493.92,610.77 532.64,812.95 34.21,178.71 -111.01,377.03 -111.01,377.03l100.95 773.4z"/>
    <path class="fil3" d="M8169.14 9291.73c-13.79,-18.85 -30.72,-33.58 -48.41,-47.31 -18.08,-13.17 -36.92,-25.33 -58.92,-33.28 13.75,18.93 30.69,33.62 48.4,47.29 18.09,13.17 36.92,25.33 58.93,33.3zm466.9 -687.6c-13.82,-18.89 -30.75,-33.58 -48.43,-47.28 -18.09,-13.2 -36.92,-25.37 -58.93,-33.31 13.79,18.93 30.72,33.62 48.4,47.29 18.12,13.16 36.95,25.33 58.96,33.3zm122.64 856.17c-13.75,-18.9 -30.71,-33.59 -48.4,-47.32 -18.05,-13.16 -36.92,-25.33 -58.92,-33.27 13.78,18.89 30.72,33.58 48.4,47.28 18.12,13.13 36.95,25.31 58.92,33.31zm-412.76 -1392.51c-13.79,-18.9 -30.75,-33.6 -48.41,-47.32 -18.08,-13.2 -36.92,-25.37 -58.95,-33.31 13.79,18.93 30.72,33.62 48.43,47.32 18.12,13.14 36.96,25.3 58.93,33.31zm1003.84 971.21c-13.79,-18.89 -30.72,-33.59 -48.41,-47.32 -18.05,-13.16 -36.92,-25.33 -58.92,-33.27 13.75,18.89 30.7,33.62 48.43,47.29 18.09,13.13 36.92,25.33 58.9,33.3zm-1453.44 -24.56c-13.78,-18.86 -30.71,-33.56 -48.4,-47.29 -18.08,-13.19 -36.91,-25.36 -58.92,-33.3 13.75,18.92 30.69,33.62 48.4,47.32 18.09,13.14 36.95,25.3 58.92,33.27zm1422.5 -779.9c-13.8,-18.89 -30.73,-33.58 -48.44,-47.29 -18.09,-13.19 -36.88,-25.36 -58.89,-33.3 13.76,18.93 30.69,33.62 48.4,47.28 18.11,13.17 36.95,25.34 58.93,33.31zm-162.52 -470.2c-4.71,5.36 -9.07,10.71 -13.39,16.41 -13.45,18.11 -25.53,36.91 -33.56,59.05 19.12,-13.76 33.56,-30.85 47.29,-48.66 3.02,-4.35 6.04,-8.71 9.4,-13.07 -3.36,-4.7 -6.73,-9.37 -9.74,-13.73zm-618.1 1256.07c-18.87,13.83 -33.56,30.73 -47.28,48.45 -13.17,18.05 -25.38,36.88 -33.31,58.92 18.93,-13.76 33.62,-30.72 47.32,-48.44 13.13,-18.08 25.3,-36.92 33.27,-58.93zm559.01 -625.72c-18.86,13.8 -33.58,30.73 -47.31,48.41 -13.17,18.09 -25.34,36.92 -33.28,58.93 18.93,-13.76 33.62,-30.69 47.32,-48.4 13.14,-18.12 25.27,-36.95 33.27,-58.94zm-1118.23 78.26c-18.87,13.83 -33.56,30.76 -47.29,48.45 -13.2,18.05 -25.37,36.88 -33.31,58.92 18.93,-13.79 33.62,-30.72 47.29,-48.44 13.16,-18.08 25.34,-36.95 33.31,-58.93zm586.71 -839.44c-18.9,13.82 -33.59,30.75 -47.28,48.43 -13.2,18.09 -25.38,36.92 -33.31,58.93 18.93,-13.76 33.58,-30.72 47.29,-48.41 13.16,-18.11 25.3,-36.94 33.3,-58.95zm219.15 -119.1c23.09,3.61 45.48,2.02 67.67,-0.81 22.1,-3.42 44.01,-8.16 65.18,-18.11 -23.09,-3.62 -45.48,-2.06 -67.64,0.8 -22.1,3.49 -44.04,8.22 -65.21,18.12zm-1166.09 1898.92c23.13,3.58 45.48,1.99 67.68,-0.82 22.09,-3.45 44.04,-8.15 65.21,-18.11 -23.09,-3.65 -45.48,-2.06 -67.67,0.81 -22.11,3.49 -44.02,8.19 -65.22,18.12zm1170.41 -604.31c23.13,3.58 45.48,2 67.68,-0.81 22.1,-3.45 44.04,-8.15 65.21,-18.12 -23.09,-3.63 -45.48,-2.05 -67.67,0.82 -22.11,3.48 -44.02,8.18 -65.22,18.11zm-645.14 54.04c23.13,3.62 45.48,2.03 67.7,-0.78 22.11,-3.45 44.02,-8.19 65.19,-18.11 -23.1,-3.65 -45.48,-2.06 -67.67,0.77 -22.08,3.52 -44.03,8.25 -65.22,18.12zm387.33 -657.66c23.1,3.59 45.48,2.03 67.67,-0.77 22.11,-3.49 44.05,-8.19 65.22,-18.15 -23.13,-3.65 -45.5,-2.06 -67.7,0.81 -22.07,3.48 -44.02,8.21 -65.19,18.11zm769.79 410.19c-3.58,23.09 -2.03,45.48 0.78,67.67 3.45,22.11 8.19,44.05 18.11,65.22 3.65,-23.1 2.09,-45.48 -0.77,-67.68 -3.52,-22.09 -8.23,-44.01 -18.12,-65.21zm-1067.19 -226.65c-3.62,23.09 -1.99,45.44 0.78,67.67 3.48,22.11 8.19,44.02 18.11,65.22 3.68,-23.13 2.06,-45.48 -0.77,-67.67 -3.49,-22.1 -8.22,-44.05 -18.12,-65.22zm1045.11 920.41c-3.57,23.1 -2.02,45.48 0.79,67.68 3.45,22.1 8.18,44.04 18.14,65.21 3.61,-23.13 2.06,-45.48 -0.78,-67.67 -3.54,-22.1 -8.25,-44.01 -18.15,-65.22zm-322.46 -201.21c-3.58,23.13 -1.99,45.48 0.81,67.67 3.46,22.13 8.16,44.05 18.15,65.25 3.61,-23.13 2.03,-45.51 -0.81,-67.71 -3.52,-22.09 -8.22,-44.01 -18.15,-65.21zm-11.73 -1049.48c2.87,22.2 4.45,44.55 0.81,67.68 -9.96,-21.2 -14.67,-43.11 -18.12,-65.22 -2.8,-22.22 -4.39,-44.57 -0.81,-67.7 9.93,21.19 14.63,43.14 18.12,65.24z"/>
    <path class="fil14" d="M8550.24 7405.42l312.32 2317.82 -1435.04 0c0,0 343.54,-1478.59 864.72,-2118.63 145.4,-178.55 258,-199.19 258,-199.19z"/>
    <path class="fil14" d="M8936.25 7481.36c0,0 222.1,586.68 306.18,1082.97 92.11,543.82 143.13,1083.5 143.13,1083.5l98.9 -79.01 -136.13 -910.67c0,0 133.26,-156.73 112.56,-389.73 -16.55,-186.34 -524.64,-787.06 -524.64,-787.06z"/>
    <path class="fil5" d="M9355.43 8036.44c-27.46,-41.34 -55.57,-82.67 -84.74,-122.67 -4.73,-14.23 -10.52,-28.11 -15.91,-42.02 -9.15,-19.99 -17.99,-40.32 -29.82,-58.96 5.39,21.35 13.88,41.68 22.01,62.01 2.74,5.75 5.1,11.21 7.47,16.96 -29.17,-39.66 -59.3,-78.63 -90.49,-116.57 57.25,91.48 119.6,179.57 177.24,270.41 29.14,45.08 57.29,90.84 80.32,138.93 7.53,15.47 13.88,31.5 19.58,47.78 11.42,40.34 33.15,124.14 -11.7,251.92 -15.04,42.81 -26.62,86.73 -48.41,126.57 -1.62,2.97 2.96,5.52 4.61,2.56 21.94,-40.16 41.03,-85.33 58.11,-127.91 16.75,-41.77 24.97,-88.47 27.65,-133.3 7.74,-129.58 -58,-215.91 -115.92,-315.71z"/>
    <path class="fil12" d="M8561.88 7424.63c7.44,33.59 164.95,252.93 318.23,247.45 49.9,-1.87 51.89,-274.72 51.89,-274.72l4.73 -20.1 66.3 -281.57 -329.18 -216.46 -47.6 -28.67c0,0 -13.04,78.19 -28.32,175.78 -0.75,4.52 -1.49,9.06 -2.18,13.89 -1.02,5.5 -2.06,10.67 -2.74,15.84 -2.49,14.54 -4.92,29.41 -7.06,44.26 -1.69,11.31 -3.37,22.29 -4.67,34.22 -1.65,11.92 -3.03,23.53 -4.64,35.48 -13.61,118.01 -17.71,240.35 -14.76,254.6z"/>
    <path class="fil5" d="M8597.92 7026.35c78.35,225.55 256.78,319.13 338.8,350.88l66.31 -281.53 -329.19 -216.47 -47.59 -28.67c0,0 -13.05,78.19 -28.33,175.79z"/>
    <path class="fil12" d="M9381.99 6576.75c101.17,497.44 -185.34,614.21 -292.64,635.9 -97.4,19.71 -431.57,74.37 -583.54,-409.96 -152.03,-484.34 47.29,-688.63 267.64,-745.45 220.4,-56.83 507.4,22.05 608.54,519.51z"/>
    <path class="fil5" d="M9294.38 6505.14c-11.98,0.74 -23.13,-0.53 -35.05,-1.04 -13.44,-0.53 -24.18,0.41 -35.55,-7.84 -6.07,-4.45 -7.66,-15.41 -3.89,-21.7 8.78,-14.72 25.4,-18.14 41.59,-18.14 17.58,0 31.13,4.48 44.76,15.57 13.23,10.73 3.93,32.15 -11.86,33.15z"/>
    <path class="fil5" d="M8951.6 6565.89c11.49,-3.49 21.48,-8.6 32.5,-13.23 12.39,-5.2 22.82,-8.06 30.54,-19.8 4.14,-6.25 1.77,-17.06 -3.96,-21.66 -13.32,-10.74 -30.1,-8.13 -45.29,-2.46 -16.5,6.13 -27.62,15.09 -36.49,30.22 -8.62,14.66 7.57,31.5 22.7,26.93z"/>
    <path class="fil5" d="M9052.92 6674.22c-0.56,-1.25 -2.33,2.14 -1.99,3.51 7.97,33.66 11.52,73.53 -16.81,91.06 -0.91,0.53 -0.47,2.2 0.65,1.83 36.3,-12.92 31.1,-65.83 18.15,-96.4z"/>
    <path class="fil5" d="M9015.44 6645.05c-55.32,7 -37.24,117.1 14,110.6 50.43,-6.38 32.34,-116.49 -14,-110.6z"/>
    <path class="fil5" d="M8994.77 6654.41c-8.6,7.81 -16.22,20.36 -27.61,23.41 -13.23,3.51 -25.22,-6.35 -35.8,-15.97 -1.12,-1 -1.9,0.1 -1.68,1.55 3.14,21.17 14.82,41.47 37.94,40.91 21.11,-0.53 32.87,-21.64 34.62,-43.71 0.37,-4.11 -4.01,-9.33 -7.47,-6.19z"/>
    <path class="fil5" d="M9241.31 6635.86c0.06,-1.33 2.92,1.22 3.11,2.62 4.23,34.3 14.9,72.91 47.56,79.41 1,0.18 1.18,1.93 0.04,1.93 -38.55,0.62 -52.18,-50.77 -50.71,-83.96z"/>
    <path class="fil5" d="M9266.23 6595.43c54.26,-12.76 75.8,96.72 25.53,108.55 -49.5,11.64 -71.04,-97.84 -25.53,-108.55z"/>
    <path class="fil5" d="M9290.49 6598.16c9.78,4.07 20.39,12.94 30.88,11.61 12.14,-1.59 18.65,-15.16 24.09,-28.02 0.53,-1.34 1.59,-0.59 1.9,0.84 4.73,20.83 2.09,43.99 -17.24,51.96 -17.62,7.25 -34.62,-8.03 -43.71,-27.93 -1.71,-3.67 0.13,-10.11 4.08,-8.46z"/>
    <path class="fil5" d="M9095 6954.83c9.17,7.07 18.67,17.15 31.24,16.75 12.08,-0.44 25.44,-7.48 35.9,-12.98 1.02,-0.57 2.24,0.43 1.67,1.55 -7.34,14.23 -25.11,24.69 -41.36,23.79 -15.85,-0.87 -25.12,-13.42 -30.57,-27.18 -0.77,-1.93 1.78,-2.95 3.12,-1.93z"/>
    <path class="fil5" d="M9216.89 6876.07c0,0 -15.59,36.82 -44.57,55.75 -10.65,7 -22.85,11.7 -36.86,11.36 -28.82,-0.56 -35.49,-25.28 -35.67,-47.72 -0.19,-18.46 4.3,-35.49 4.3,-35.49 0,0 48.49,27.45 112.8,16.1z"/>
    <path class="fil15" d="M9172.33 6931.82c-10.68,7 -22.85,11.71 -36.88,11.36 -28.81,-0.56 -35.47,-25.28 -35.65,-47.72 29.76,-4.05 63.26,8.72 72.53,36.36z"/>
    <path class="fil5" d="M9215.62 6806.68c0,0 16,49.59 20.2,73.59 0.38,2.24 -5.23,4.32 -13.26,6.23 -0.38,0.21 -0.56,0.39 -0.97,0.18 -41.15,14.07 -86.38,7 -118.19,-23.04 -2.09,-2.05 0.53,-5.07 2.95,-3.95 35.74,17.65 71.72,17.46 109.39,11.49 0.53,-6.95 -30.25,-84.05 -26.49,-85.01 12.89,-3.43 40.31,0.93 56.65,2.73 -30.34,-104.28 -77.14,-202.87 -105.77,-307.15 -0.97,-3.73 4.3,-5.81 6.01,-2.64 56.34,99.83 93.85,219.08 127.94,325.95 4.38,13.29 -48.16,4.02 -58.46,1.62z"/>
    <path class="fil5" d="M9050 6140.5c0,0 20.08,75.55 -5.88,130.24 -53.39,112.38 -188.8,83.15 -234.93,127.66 -43.24,41.71 -27.92,127.91 -67.08,169.65 -54.23,57.78 -128.19,35.61 -137.06,74.43 -8.9,38.85 -34.37,162.46 -83.84,178.31 -49.43,15.81 -278.37,-805.34 368.36,-781.09 0,0 88.65,-36.41 226.45,32.56 152.13,76.12 218.78,325.8 218.78,325.8 0,0 -3.23,-3.4 -25.4,-22.82 -31.29,-27.45 -43.4,-52.89 -66.3,-70.66 -35.99,-27.89 -55.7,-17.28 -93.11,-44.46 -57,-41.4 -99.99,-119.62 -99.99,-119.62z"/>
    <path class="fil5" d="M9040.06 6104.76c10.09,32.22 16.75,65.5 19.11,98.84 2.65,32.96 1,67.54 -13.53,96.15 -14.77,27.8 -43.96,46.82 -74.1,57.9 -30.72,11.36 -64.62,14.7 -97.71,27.98 -16.13,7.2 -32.15,16.94 -43.23,32.66 -10.87,15.53 -15.26,33.21 -18.93,49.74 -6.79,33.19 -13.67,65.87 -35.61,89.59 -21.58,23.69 -53.57,38.04 -86.64,36.61 -32.58,0.13 -68.6,-8.9 -100.35,5.45 32.83,-11.77 66.08,-0.19 100.13,2.33 34.74,3.15 70.76,-10.67 95.73,-35.95 26.4,-25.56 33.65,-62.88 40.87,-94.79 3.8,-16.18 8.31,-31.97 17.19,-44.14 8.56,-11.98 22.56,-20.64 37.07,-26.77 29.6,-12.61 63.93,-16.68 96.53,-29.11 16.28,-6.13 32.13,-14.43 46.01,-25.33 13.73,-10.59 27.11,-24.04 34.08,-40.75 14.82,-32.9 14.47,-68.77 10.31,-102.41 -5.05,-33.78 -14.38,-66.62 -26.93,-98z"/>
    <path class="fil5" d="M9052.49 6134.17c6.29,30.85 17.12,60.64 31.57,89.06 14.13,28.4 36.08,54.82 65.03,71.1 14.44,8.34 30.93,12.58 44.73,17.25 13.26,4.66 27.26,12.91 34.98,23.31 8.44,11.92 16.42,26.93 28.21,38.1 11.86,11.14 26.11,19.24 41.12,23.85 -13.54,-7.91 -26.18,-17.06 -35.3,-29.17 -9.96,-11.55 -15.59,-25.18 -23.78,-39.59 -9.68,-15.88 -24.62,-23.66 -39.91,-30.48 -15.5,-5.89 -29.67,-9.46 -42.24,-17.06 -25.78,-14.73 -45.83,-37.48 -61.7,-63.72 -16.31,-25.96 -29.73,-54.1 -42.71,-82.65z"/>
    <path class="fil12" d="M8542.17 6986.28c8.71,2.18 16.62,3.24 24.03,3.33 8.8,0.59 16.75,-0.31 23.88,-2.09 11.2,-2.39 20.48,-7.07 27.98,-12.73 6.98,-4.94 12.79,-11.01 17.37,-16.87 11.8,-15.37 15.88,-30.53 15.88,-30.53l-43.34 -131.52c0,0 -128.25,-144.79 -195.02,-97.35 -67.05,47.51 41.75,266.24 129.22,287.76z"/>
    <path class="fil5" d="M8445.59 6760.38c-1.37,0.03 -1.4,1.93 -0.18,2.27 61.5,17.12 98.74,68.08 126.88,122.12 -19.99,-19.73 -45.17,-28.95 -71.91,-4.79 -1.44,1.28 0.34,3.52 1.92,2.99 23.51,-7.94 41.38,-5.76 59.87,11.67 13.07,12.33 22.91,28.7 33,43.52 3.32,4.95 12.51,1.06 9.8,-4.76 -0.18,-0.45 -0.43,-0.88 -0.63,-1.31 -7.09,-75.14 -77.38,-173.39 -158.75,-171.71z"/>
    <path class="fil8" d="M8546.74 6964.24c3.99,12.36 17.28,19.14 29.64,15.13 12.35,-3.99 19.11,-17.24 15.1,-29.61 -3.99,-12.35 -17.25,-19.14 -29.61,-15.12 -12.36,4.01 -19.11,17.24 -15.13,29.6z"/>
    <path class="fil8" d="M8494.68 6934.48c2.83,8.75 12.2,13.54 20.96,10.7 8.74,-2.83 13.51,-12.2 10.7,-20.94 -2.83,-8.72 -12.2,-13.55 -20.95,-10.72 -8.74,2.84 -13.54,12.21 -10.71,20.96z"/>
    <path class="fil12" d="M8306.63 7649.65c-274.14,473.19 -775.07,1576.64 -542.6,1781.34 382.2,336.5 1236.12,561.78 1498.73,602.78 113.37,17.68 391.59,-828.31 280.03,-879.27 -133.86,-61.13 -1040.45,-231.25 -1046.36,-306.12 -3.36,-42.42 48.15,-407.38 72.41,-871.04 28.16,-537.81 -131.52,-553.25 -262.21,-327.69z"/>
    <path class="fil12" d="M9138.68 9153.48c0,0 318.41,-142.75 531.02,-226.33 118.6,-46.64 329.09,-108.43 431.91,-102.85 153.78,8.4 791.57,141.69 762.62,296.99 -26.24,140.64 -559.69,-43.45 -559.69,-43.45 0,0 554.68,138.17 491.99,301.66 -62.76,163.53 -637.73,-124.63 -637.73,-124.63 0,0 566.69,154.77 475.33,313.12 -69.05,119.69 -604.55,-111.9 -604.55,-111.9 0,0 486.2,136.37 420.52,262.5 -72.59,139.4 -580.34,-43.39 -580.34,-43.39 -220.91,292.55 -445.82,341.45 -609.9,357.17 -39.75,3.8 -121.18,-878.89 -121.18,-878.89z"/>
    <path class="fil5" d="M10115.8 9017.76c65.71,13.85 132.36,27.46 196.64,47.13 64.31,19.67 127.94,41.62 190.1,67.17 152.47,62.7 238.13,125.8 232.44,122.47 -135.2,-78.54 -364.24,-152.5 -428.55,-172.17 -64.16,-19.64 -127.32,-42.5 -191.48,-62.17 -1.61,-0.5 -0.74,-2.77 0.85,-2.43z"/>
    <path class="fil5" d="M10040.53 9248.6c83.21,21.35 166.57,39.5 248.81,64.49 81.87,24.94 157.35,55.73 237.26,86.21 6.17,2.32 2.9,4.88 -3.39,2.77 -81.09,-27.28 -158.14,-46.23 -239.5,-72.51 -81.16,-26.21 -161.84,-55.78 -243.83,-79.04 -1.28,-0.33 -0.59,-2.26 0.65,-1.92z"/>
    <path class="fil5" d="M9940.36 9435.09c128.78,26.12 252.58,75.96 372.89,127.76 5.98,2.58 1.38,5.39 -4.91,3.11 -123.15,-44.79 -219.46,-80.84 -368.91,-126.38 -2.33,-0.72 -1.8,-5.04 0.93,-4.49z"/>
    <path class="fil14" d="M9224.73 9039l-133.07 1012.05c0,0 -1296.7,-391.26 -1387.47,-675.27 -90.8,-283.99 237.01,-1125.93 537.22,-1650.39 300.21,-524.49 351.88,-24.16 348.45,175.98 -3.39,200.12 -69.35,898.18 -69.35,898.18l704.22 239.45z"/>
    <path class="fil5" d="M9067.81 9056.54c-12.13,34.09 -17.46,71.93 -25.31,107.24 -7.96,35.86 -16.55,71.53 -23.96,107.48 -14.35,69.33 -26.8,138.9 -38.45,208.72 -23.35,140.02 -44.38,280.85 -53.42,422.6 -0.18,2.93 4.64,3.4 5.21,0.51 26.55,-141.61 46.38,-284.34 69.79,-426.47 11.51,-69.89 23.41,-139.67 35.02,-209.5 5.81,-34.96 10.8,-70.07 16.77,-104.99 5.95,-34.65 15.35,-70.2 17.69,-105.28 0.15,-2.08 -2.75,-2 -3.34,-0.31z"/>
    <path class="fil5" d="M8939.68 8940.67c-74.36,-20.92 -412.46,-147.55 -412.42,-147.8 22.13,-161.87 32.15,-325.77 42.27,-488.51 3.86,-17.21 7.75,-34.43 11.27,-51.69 6.1,-29.95 10.46,-60.25 16.75,-90.16 0.15,-0.75 -0.97,-1.06 -1.18,-0.28 -7.72,29.45 -16.81,58.74 -23.32,88.5 -0.09,0.41 -0.15,0.81 -0.25,1.21 2.95,-51.88 5.66,-103.78 7.97,-155.77 0.09,-2.42 -4.02,-2.92 -4.33,-0.46 -28.17,231.01 -68.8,703.67 -62.26,706.78 67.65,32.12 350.27,115.89 422.64,139.9 2.96,0.96 5.95,-0.88 2.86,-1.72z"/>
    <path class="fil5" d="M8191.27 9720.24c-29.64,-12.7 -57.62,-30.44 -85.63,-46.5 -28.27,-16.2 -55.91,-33.28 -83.43,-50.71 -57.1,-36.15 -112.72,-74.43 -165.64,-116.43 -50.33,-39.93 -100.02,-81.09 -123.14,-143.06 -23.48,-62.88 -24.91,-133.23 -21.14,-199.47 7.97,-139.28 48.53,-276.37 89.15,-409.03 39.91,-130.53 84.33,-259.74 135.82,-386.16 28.45,-69.92 58.05,-139.4 89.71,-207.9 32.15,-69.62 68.86,-136.98 101.48,-206.3 1.68,-3.54 -3.23,-6.23 -5.33,-2.95 -37.9,59.51 -69.66,122.92 -101.41,185.84 -10.12,20.04 -19.95,40.22 -29.89,60.35 1.1,-3.46 2.28,-6.88 3.34,-10.33 7.72,-25.03 15.47,-50.06 23.19,-75.06 0.9,-2.89 -3.55,-3.91 -4.48,-1.14 -13.42,39.87 -26.87,79.71 -39.72,119.78 -0.56,1.71 -2.65,6.66 -4.52,12.33 -13.45,28.1 -26.71,56.34 -39.25,84.88 -55.84,126.98 -106.06,256.47 -148.86,388.46 -43.96,135.63 -85.85,275.45 -98.12,418.06 -5.85,68.05 -5.7,139.3 11.52,205.85 16.47,63.69 53.38,111.66 103.66,152.85 56.99,46.66 117.95,89.36 180.89,127.63 32.75,19.88 66.59,38 100.95,54.93 35.61,17.56 72.93,31.1 108.49,48.35 2.86,1.37 5.19,-3.05 2.36,-4.27z"/>
    <path class="fil0" d="M8934.88 7385.69l-73.28 232.48 -302.07 -263.86 -72.38 97.66c0,0 308.87,432.28 309.02,411.68l78.04 -201.53 144.5 124.94 -36.92 -338.68 -46.91 -62.69z"/>
    <path class="fil5" d="M9009.93 7618.62c-7.96,-55.72 -14.44,-112.02 -24.99,-167.31 -0.34,-1.96 -3.55,-2.62 -3.86,-0.25 -7.03,54.94 24.56,267.83 28.26,319.16 -0.18,-0.19 -0.43,-0.37 -0.61,-0.53 -6.05,-5.45 -133.48,-109.44 -134.52,-107.58 -17.8,32.41 -75.14,179.18 -78.85,192.44 -48.84,-68.67 -235.05,-317.7 -291.57,-381.83 -1.63,-1.86 -4.56,0 -3.21,2.18 44.11,73.1 290.99,408.72 294.32,407.48 2.42,1.59 73.81,-179.28 81.4,-212.96 21.98,23.14 151.63,141.58 151.41,133.24 -1.56,-56.41 -9.81,-128.25 -17.78,-184.04z"/>
    <polygon class="fil5" points="12468.39,7639.91 12590.28,7934.25 12468.58,7984.62 12345.99,7688.31 12144.8,7844.39 12144.8,7015.18 12725.26,7601.59 "/>
    <path class="fil5" d="M12201.7 6796.62c-12.3,-43.08 -15.04,-86.17 -15.57,-129.25 0.47,-43.11 3.24,-86.2 15.57,-129.28 12.32,43.08 15.06,86.17 15.53,129.28 -0.53,43.08 -3.27,86.17 -15.53,129.25z"/>
    <path class="fil5" d="M11979.02 6888.85c-39.13,-21.79 -71.56,-50.3 -102.38,-80.41 -30.17,-30.79 -58.68,-63.22 -80.41,-102.41 39.2,21.76 71.63,50.27 102.42,80.4 30.1,30.85 58.62,63.26 80.37,102.42z"/>
    <path class="fil5" d="M11886.83 7111.49c-43.12,12.26 -86.21,15.03 -129.28,15.56 -43.09,-0.46 -86.17,-3.23 -129.28,-15.56 43.11,-12.33 86.19,-15.1 129.28,-15.57 43.07,0.53 86.16,3.28 129.28,15.57z"/>
    <path class="fil5" d="M11979.02 7334.13c-21.75,39.16 -50.27,71.57 -80.37,102.42 -30.79,30.14 -63.22,58.65 -102.42,80.41 21.73,-39.19 50.24,-71.63 80.41,-102.41 30.82,-30.11 63.25,-58.62 102.38,-80.42z"/>
    <path class="fil5" d="M12516.54 7111.49c43.12,-12.29 86.19,-15.04 129.28,-15.57 43.08,0.47 86.16,3.24 129.27,15.57 -43.11,12.33 -86.19,15.1 -129.27,15.56 -43.09,-0.53 -86.16,-3.3 -129.28,-15.56z"/>
    <path class="fil5" d="M12424.31 6888.85c21.79,-39.16 50.3,-71.57 80.44,-102.42 30.75,-30.13 63.18,-58.64 102.38,-80.4 -21.73,39.19 -50.24,71.62 -80.4,102.41 -30.83,30.11 -63.26,58.62 -102.42,80.41z"/>
   </g>
  </g>
 </g>
</svg>
