<svg width="103" height="37" viewBox="0 0 103 37" fill="none" xmlns="http://www.w3.org/2000/svg">
<path fill-rule="evenodd" clip-rule="evenodd" d="M95.303 17.7905C93.1525 18.1834 91.2388 18.9483 89.3018 20.419C87.5938 21.6184 87.0038 24.233 89.0262 25.0291C90.1985 25.5262 91.4484 25.568 92.6751 25.9017C93.9716 26.2633 94.3054 27.3272 93.1331 28.0643C92.2208 28.6101 90.9321 29.0134 89.6162 29.003C88.8709 29.0239 88.3313 29.7714 87.9975 30.9048C87.5822 32.4553 88.1217 32.6083 88.9097 32.657C91.4834 32.5249 94.5422 30.9291 96.289 29.0864C98.0474 27.4037 98.0163 24.3477 95.7611 23.5341C94.7829 23.1969 93.6338 22.9639 92.6595 22.7588C91.0913 22.5119 90.967 22.0948 92.3645 21.5524C93.0244 21.3229 93.9483 21.0413 94.6432 20.8918C95.501 20.7179 95.9241 20.4051 96.2114 19.3899C96.8052 17.8949 96.3705 17.5159 95.303 17.7905ZM29.8719 3.61599C19.426 6.51209 7.76903 16.7162 4.56268 25.0326C2.8741 31.2594 5.50983 33.3698 11.9807 32.4171C18.8476 31.8435 24.3753 29.7748 34.3087 31.2072C38.0429 31.9513 36.9289 30.053 35.2326 27.3516C34.2971 25.9887 31.1606 25.6932 26.7432 26.1382C21.6968 26.9378 16.8873 28.0539 12.0894 28.8465C7.74961 29.674 7.05478 26.997 9.99328 22.6197C14.6592 16.1078 22.6556 10.3782 27.9853 9.89497C29.4643 9.83235 30.6443 9.2865 31.6147 7.20049C33.0704 4.23137 32.7522 2.97627 29.8719 3.61599ZM36.8047 27.3028C36.4475 21.9348 36.9561 15.6142 40.799 6.89801C41.2532 5.99407 41.917 5.84804 42.7943 6.45299C43.3804 6.9745 43.8967 7.54816 44.1955 8.1844C44.7973 9.32827 44.5954 10.413 44.1257 11.4664C42.014 16.9527 40.5467 22.9535 40.2827 26.6666C40.3216 28.5962 41.0824 29.754 43.1747 27.8314C47.0526 23.7566 48.1278 20.2173 54.4241 19.9183C56.1864 19.9427 56.7414 20.0679 56.4348 21.6046C56.1359 23.0995 55.7943 25.116 55.7633 26.684C55.5343 28.7666 56.5784 29.754 58.2476 28.3146C59.8236 26.5554 60.8561 23.3672 61.5782 20.2486C61.7374 19.0769 62.5253 19.0596 63.2124 19.654C64.2761 20.2591 65.328 20.7389 66.3799 20.8849C67.296 21.2117 67.6803 21.9557 67.4707 23.3221C67.3581 24.7092 67.3698 26.2842 67.5872 27.6644C68.1656 29.1699 69.66 28.9926 70.9022 27.0803C72.9052 24.1912 74.6053 18.1035 76.1154 8.6016C76.3018 7.33608 76.7947 7.0336 77.5983 7.68723C78.1262 8.10443 78.6191 8.70938 79.0733 9.49512C79.8031 10.2843 79.64 10.9762 79.4926 11.7272C78.953 15.9062 78.2659 20.0018 77.474 24.0904C80.0592 20.6484 82.6251 18.3051 85.5326 16.3095C86.6039 15.8053 86.996 16.2817 86.7049 17.4637C86.4875 18.3225 86.274 19.1152 86.0566 19.974C85.8198 20.8779 84.8533 21.6636 84.24 21.9348C83.3044 22.4981 82.5087 23.096 82.0195 23.628C82.6406 25.4497 84.1313 27.3376 86.2973 28.113C87.3726 28.3771 87.6715 28.93 87.194 29.7748C86.9999 30.3659 86.7204 30.6961 86.3633 31.2941C85.649 32.059 84.5195 31.8817 83.3122 31.3706C81.6392 30.5988 80.3078 28.9508 79.0889 26.4197C78.3048 27.209 77.9321 27.6366 77.3265 28.6066C77.0159 29.5732 76.7598 30.2129 76.4493 31.1794C76.1154 31.8886 75.669 32.0103 74.6131 31.9791C73.565 31.9687 73.0022 31.6453 73.2118 30.6092C73.371 29.3507 73.6504 27.9634 73.8136 26.7049C71.8687 30.4076 69.5436 32.3684 67.0127 31.9443C64.7807 31.5444 63.6588 28.9926 63.8684 23.847L63.6083 23.7879C61.1046 32.5388 54.6143 34.0999 52.9956 29.1837C49.7426 33.0394 46.02 32.6397 44.8982 29.3681C41.6453 32.7162 37.6082 33.5018 36.8047 27.3028ZM53.2518 22.8283C52.751 26.4233 50.6316 29.3089 49.2729 28.6692C47.9803 28.0643 48.0812 26.1277 49.7621 24.3928C50.8916 23.2282 52.3046 22.7727 53.2518 22.8283Z" fill="#474646"/>
</svg>
