<svg width="163" height="39" viewBox="0 0 163 39" fill="none" xmlns="http://www.w3.org/2000/svg">
<path d="M7.54922 27.2362C7.3067 28.0254 7.18206 28.8563 7.1959 29.7078C7.1959 34.3118 10.9366 38.0504 15.5431 38.0504C20.1496 38.0504 23.8902 34.3118 23.8902 29.7078C23.8902 25.1384 20.1981 21.4137 15.6193 21.3653C12.0934 21.2891 9.26714 18.4021 9.26714 14.8574C9.26714 11.2642 12.1904 8.34256 15.7855 8.34256C18.3209 8.34256 20.5168 9.78954 21.5905 11.9011L26.0515 11.8873C24.7699 7.42866 20.6622 4.1748 15.7855 4.1748C9.87672 4.1748 5.07617 8.9726 5.07617 14.8712C5.07617 20.6798 9.73127 25.4292 15.5293 25.5538C17.8221 25.5538 19.6993 27.4162 19.6993 29.7216C19.6993 32.034 17.8359 33.8964 15.5293 33.8964C13.2156 33.8964 11.3521 32.034 11.3521 29.7216C11.3521 29.5001 11.3661 29.2786 11.4006 29.0639L11.3521 29.0501C9.98752 28.6347 8.71989 28.0116 7.54922 27.2362Z" fill="#F4B400"/>
<path d="M11.4007 29.064C11.3662 29.2786 11.3523 29.5001 11.3523 29.7216C11.3523 32.034 13.2157 33.8964 15.5294 33.8964C17.8361 33.8964 19.6995 32.034 19.6995 29.7216C19.6995 27.4162 17.8222 25.5539 15.5294 25.5539C9.73141 25.4292 5.07631 20.6799 5.07631 14.8712C5.07631 8.97261 9.87686 4.17472 15.7857 4.17472C20.6624 4.17472 24.7701 7.42867 26.0517 11.8873L30.3533 11.8735C28.9749 5.10246 22.976 0 15.7857 0C7.5632 0 0.90625 6.66023 0.90625 14.8712C0.90625 20.036 3.53849 24.5915 7.54936 27.257C8.72003 28.0255 9.98767 28.6486 11.3523 29.064H11.4007Z" fill="#DB4437"/>
<path d="M38.498 14.1467C38.498 19.452 42.862 23.7677 48.2623 23.7677C52.1771 23.7677 56.582 21.4773 57.3476 16.126H52.9836C52.3558 18.8246 50.4213 19.855 48.1704 19.855C45.1998 19.855 42.7702 17.789 42.7702 14.1467C42.7702 10.591 45.1998 8.43323 48.1704 8.43323C50.4673 8.43323 52.4017 9.46876 53.0295 12.1674H57.3935C56.582 6.81611 52.1771 4.52051 48.3031 4.52051C42.862 4.52051 38.498 8.79538 38.498 14.1467Z" fill="#DB4437"/>
<path d="M59.6895 16.259C59.6895 20.891 63.1961 23.7681 67.7846 23.7681C72.6438 23.7681 75.839 20.6206 75.839 16.259V5.01562H71.5668V15.9886C71.5668 18.2383 70.2142 19.9472 67.7846 19.9472C65.3142 19.9472 63.9617 18.1924 63.9617 15.9886V5.01562H59.6895V16.259Z" fill="#DB4437"/>
<path d="M92.2192 4.97461V8.74962H83.537V12.2134H90.9585V15.7639H83.537V19.4981H92.311V23.319H79.2598V4.97461H92.2192Z" fill="#DB4437"/>
<path d="M93.9746 17.6513C93.9746 20.6202 96.0418 23.7677 101.667 23.7269C106.214 23.7269 109.318 21.7476 109.318 18.0594C109.318 14.5038 106.48 12.9785 102.795 12.2133C99.9108 11.6725 98.696 11.0859 98.696 9.91768C98.696 9.06571 99.1503 8.2087 101.442 8.2087C103.693 8.2087 104.413 9.2443 104.413 10.2799H108.685C108.685 6.77021 106.301 4.52051 101.488 4.52051C96.7615 4.52051 94.4238 6.7243 94.4238 9.91768C94.4238 13.8304 98.2008 14.9986 101.309 15.7638C103.693 16.3045 105 16.8453 105 18.1053C105 19.4979 104.05 20.2172 101.667 20.2172C99.4616 20.2172 98.2467 19.1817 98.2467 17.6513H93.9746Z" fill="#DB4437"/>
<path d="M110.803 14.1467C110.803 19.452 115.254 23.7677 120.792 23.7677C126.278 23.7677 130.78 19.452 130.78 14.1467C130.78 8.79538 126.278 4.52051 120.792 4.52051C115.254 4.52051 110.803 8.79538 110.803 14.1467ZM126.503 14.1467C126.503 17.4268 123.941 19.855 120.792 19.855C117.642 19.855 115.075 17.4268 115.075 14.1467C115.075 10.8206 117.596 8.43323 120.792 8.43323C123.987 8.43323 126.503 10.8206 126.503 14.1467Z" fill="#DB4437"/>
<path d="M146.303 4.97461V8.79552H137.621V13.0245H145.042V16.5751H137.621V23.319H133.344V4.97461H146.303Z" fill="#DB4437"/>
<path d="M152.692 8.79552L152.733 23.319H156.964V8.79552H162.094V4.97461H147.562V8.79552H152.692Z" fill="#DB4437"/>
<path d="M39.3202 33.337H39.2709V30.7731H40.1425L41.5895 33.337H42.5542L40.9646 30.6801C41.3976 30.6307 41.7375 30.439 41.9787 30.1979C42.2198 29.9514 42.3623 29.6172 42.3623 29.179C42.3623 28.8449 42.313 28.6038 42.2198 28.4066C42.1212 28.2148 41.9786 28.0724 41.7813 27.9245C41.5895 27.7821 41.3483 27.6835 41.1071 27.6342C40.866 27.5903 40.6247 27.541 40.3342 27.541H38.498V33.337H39.3202ZM39.3202 30.0994V28.2641H40.285C40.433 28.2641 40.6247 28.2641 40.7672 28.3134C40.9646 28.3134 41.1071 28.4066 41.2058 28.4559C41.3483 28.5545 41.447 28.6476 41.4908 28.7462C41.5401 28.8449 41.5895 28.9873 41.5895 29.179C41.5895 29.3762 41.5401 29.5187 41.4908 29.6172C41.447 29.7104 41.3483 29.809 41.2058 29.9076C41.0578 29.9514 40.9153 30.0008 40.7672 30.05C40.6247 30.0994 40.433 30.0994 40.2356 30.0994H39.3202Z" fill="black"/>
<path d="M49.0332 32.6084V33.337H45.2129V27.541H48.9346V28.2641H46.035V30.0008H48.7427V30.6801H46.035V32.6084H49.0332Z" fill="black"/>
<path d="M53.3797 31.6935V31.0635H51.4941V31.6935H53.3797Z" fill="black"/>
<path d="M56.9531 33.337V27.541H56.1309V33.337H56.9531Z" fill="black"/>
<path d="M64.7811 27.541H66.0418V33.337H65.2197V28.5052L63.2847 33.337H62.7531L60.8237 28.5052V33.337H60.0508V27.541H61.306L63.0436 31.9839L64.7811 27.541Z" fill="black"/>
<path d="M69.3739 33.337L69.9056 31.8853H72.6572L73.2382 33.337H74.1536L71.6925 27.541H70.969L68.4531 33.337H69.3739ZM70.1961 31.2114L71.3033 28.5052L72.3667 31.2114H70.1961Z" fill="black"/>
<path d="M80.8246 28.7462L81.4056 28.0723C81.1645 27.8751 80.8246 27.6834 80.4848 27.541C80.1011 27.393 79.7119 27.3438 79.2296 27.3438C78.7966 27.3438 78.4074 27.4424 78.0237 27.5903C77.6345 27.7327 77.344 27.9737 77.0535 28.2148C76.8124 28.5051 76.5712 28.7955 76.4287 29.1789C76.2807 29.5679 76.1875 30.0007 76.1875 30.439C76.1875 30.921 76.2807 31.3045 76.4287 31.6935C76.5712 32.0769 76.7685 32.3672 77.0535 32.6576C77.2947 32.9479 77.6345 33.1397 78.0237 33.2876C78.4074 33.43 78.8459 33.5286 79.2789 33.5286C79.6626 33.5286 80.1011 33.4794 80.4355 33.3807C80.8246 33.2876 81.1645 33.1397 81.455 32.9973V30.1979H79.3776V30.8718H80.6328V32.4659C80.4848 32.559 80.2929 32.6083 80.0518 32.6576C79.8106 32.7069 79.5694 32.7563 79.2789 32.7563C78.9391 32.7563 78.6486 32.6576 78.3581 32.559C78.073 32.4659 77.8264 32.2742 77.6345 32.0769C77.4427 31.8852 77.2947 31.6441 77.2015 31.3538C77.1029 31.0634 77.0535 30.7731 77.0535 30.439C77.0535 30.0993 77.1029 29.809 77.2015 29.5186C77.2947 29.2776 77.4427 28.9872 77.6345 28.7955C77.8264 28.6037 78.0237 28.4558 78.3142 28.3134C78.6047 28.1655 78.8897 28.1162 79.2296 28.1162C79.5694 28.1162 79.8599 28.2148 80.1504 28.3134C80.4355 28.4065 80.6328 28.5544 80.8246 28.7462Z" fill="black"/>
<path d="M85.3183 33.337V27.541H84.4961V33.337H85.3183Z" fill="black"/>
<path d="M92.5151 32.1756L89.5223 27.541H88.459V33.337H89.2812V28.6038L92.3233 33.337H93.3373V27.541H92.5151V32.1756Z" fill="black"/>
<path d="M100.25 32.6084V33.337H96.4297V27.541H100.151V28.2641H97.2518V30.0008H99.9596V30.6801H97.2518V32.6084H100.25Z" fill="black"/>
<path d="M109.673 28.6033L110.298 28.165C110.106 27.9733 109.865 27.7816 109.574 27.6829C109.235 27.5405 108.944 27.4912 108.61 27.4912C108.368 27.4912 108.127 27.5405 107.886 27.5898C107.639 27.6336 107.448 27.7322 107.256 27.8747C107.108 28.0226 106.916 28.2143 106.823 28.4061C106.675 28.6033 106.625 28.8444 106.625 29.1347C106.625 29.425 106.675 29.6167 106.773 29.8085C106.867 29.9509 106.965 30.0989 107.108 30.2413C107.256 30.3399 107.398 30.4385 107.596 30.5316C107.738 30.581 107.93 30.6795 108.127 30.7289C108.319 30.822 108.511 30.8713 108.659 30.9206C108.801 30.9699 108.944 31.0137 109.092 31.1123C109.185 31.2109 109.284 31.3041 109.382 31.4027C109.432 31.5012 109.476 31.6437 109.476 31.8354C109.476 31.9834 109.432 32.1258 109.382 32.2737C109.284 32.3668 109.235 32.4655 109.092 32.5586C108.944 32.6571 108.851 32.7065 108.703 32.7558C108.61 32.8051 108.462 32.8051 108.319 32.8051C108.078 32.8051 107.837 32.7558 107.596 32.6079C107.398 32.5147 107.206 32.3176 107.064 32.1258L106.434 32.6571C106.625 32.9475 106.916 33.1393 107.256 33.2872C107.596 33.4296 107.93 33.4789 108.319 33.4789C108.56 33.4789 108.801 33.4296 109.043 33.3803C109.284 33.2872 109.476 33.1886 109.673 33.0462C109.865 32.8982 110.007 32.7558 110.106 32.5147C110.205 32.3176 110.249 32.0327 110.249 31.7424C110.249 31.452 110.205 31.2109 110.106 31.0137C110.007 30.822 109.865 30.6795 109.717 30.5316C109.574 30.4385 109.382 30.3399 109.185 30.2413C108.993 30.1974 108.801 30.0989 108.61 30.0495C108.412 30.0003 108.27 29.9509 108.127 29.9071C107.979 29.8578 107.837 29.8085 107.738 29.7099C107.639 29.6167 107.546 29.5182 107.497 29.425C107.448 29.3264 107.398 29.1785 107.398 29.036C107.398 28.8444 107.448 28.6964 107.497 28.6033C107.546 28.5047 107.639 28.4061 107.738 28.3129C107.886 28.2143 107.979 28.165 108.127 28.1157C108.27 28.0719 108.368 28.0719 108.511 28.0719C108.752 28.0719 108.993 28.1157 109.185 28.2143C109.382 28.3129 109.574 28.4554 109.673 28.6033Z" fill="black"/>
<path d="M118.947 30.439C118.947 30.0007 118.854 29.5679 118.706 29.1789C118.563 28.7955 118.366 28.4558 118.076 28.2148C117.79 27.9244 117.5 27.7327 117.111 27.5903C116.771 27.4424 116.338 27.3438 115.905 27.3438C115.466 27.3438 115.083 27.4424 114.694 27.5903C114.31 27.7327 114.019 27.9737 113.729 28.2148C113.488 28.5051 113.247 28.7955 113.104 29.1789C112.956 29.5679 112.857 30.0007 112.857 30.439C112.857 30.921 112.956 31.3045 113.104 31.6935C113.247 32.0769 113.438 32.3672 113.729 32.6576C114.019 32.9479 114.31 33.1397 114.694 33.2876C115.033 33.43 115.466 33.5286 115.905 33.5286C116.338 33.5286 116.727 33.43 117.111 33.2876C117.5 33.1397 117.79 32.9479 118.076 32.6576C118.322 32.3672 118.563 32.0769 118.706 31.6935C118.854 31.3045 118.947 30.8718 118.947 30.439ZM118.076 30.439C118.076 30.7731 118.032 31.0634 117.933 31.3538C117.834 31.6441 117.692 31.8852 117.5 32.0769C117.303 32.2742 117.111 32.4659 116.82 32.559C116.53 32.7069 116.245 32.7563 115.905 32.7563C115.565 32.7563 115.225 32.6576 114.984 32.559C114.743 32.4659 114.502 32.2742 114.31 32.0769C114.118 31.8852 113.97 31.6441 113.877 31.3538C113.778 31.0634 113.729 30.7731 113.729 30.439C113.729 30.0993 113.778 29.809 113.877 29.5186C113.97 29.2776 114.118 28.9872 114.31 28.7955C114.502 28.6037 114.694 28.4558 114.984 28.3134C115.275 28.1655 115.565 28.1162 115.905 28.1162C116.245 28.1162 116.53 28.1655 116.82 28.3134C117.062 28.4065 117.303 28.6037 117.5 28.7955C117.692 28.9872 117.834 29.2283 117.933 29.5186C118.032 29.809 118.076 30.0993 118.076 30.439Z" fill="black"/>
<path d="M122.57 33.337V30.7294H125.179V30.05H122.57V28.2641H125.377V27.541H121.748V33.337H122.57Z" fill="black"/>
<path d="M130.106 33.337V28.2641H131.942V27.541H127.453V28.2641H129.289V33.337H130.106Z" fill="black"/>
<path d="M137.309 27.541H138.18L139.529 32.1756L140.789 27.541H141.655L139.967 33.337H139.145L137.742 28.6476L136.344 33.337H135.522L133.828 27.541H134.7L135.955 32.1756L137.309 27.541Z" fill="black"/>
<path d="M144.314 33.337L144.845 31.8853H147.603L148.178 33.337H149.099L146.632 27.541H145.909L143.398 33.337H144.314ZM145.185 31.2114L146.298 28.5052L147.356 31.2114H145.185Z" fill="black"/>
<path d="M152.383 33.337H152.333V30.7731H153.205L154.657 33.337H155.622L154.027 30.6801C154.46 30.6307 154.8 30.439 155.041 30.1979C155.282 29.9514 155.43 29.6172 155.43 29.179C155.43 28.8449 155.381 28.6038 155.282 28.4066C155.189 28.2148 155.041 28.0724 154.849 27.9245C154.657 27.7821 154.411 27.6835 154.17 27.6342C153.928 27.5903 153.687 27.541 153.397 27.541H151.561V33.337H152.383ZM152.383 30.0994V28.2641H153.353C153.495 28.2641 153.687 28.2641 153.835 28.3134C154.027 28.3134 154.17 28.4066 154.268 28.4559C154.411 28.5545 154.509 28.6476 154.559 28.7462C154.608 28.8449 154.657 28.9873 154.657 29.179C154.657 29.3762 154.608 29.5187 154.559 29.6172C154.509 29.7104 154.411 29.809 154.268 29.9076C154.126 29.9514 153.978 30.0008 153.835 30.05C153.687 30.0994 153.495 30.0994 153.304 30.0994H152.383Z" fill="black"/>
<path d="M162.094 32.6084V33.337H158.279V27.541H161.996V28.2641H159.101V30.0008H161.804V30.6801H159.101V32.6084H162.094Z" fill="black"/>
<path d="M33.8828 38.0504H34.9693V0H33.8828V38.0504Z" fill="black"/>
</svg>
