<?xml version="1.0" encoding="utf-8" ?>	<!-- Generator: Assembly 2.4 - http://assemblyapp.co -->	<svg version="1.1" xmlns="http://www.w3.org/2000/svg" xmlns:xlink="http://www.w3.org/1999/xlink" viewBox="0 0 4096.0 2304.0">	<g id="document" transform="scale(13.653333333333334 13.653333333333334) translate(150.0 84.37499937135726)">			<g>				<g>					<path d="M-137.683,13.1164 C-138.05,14.3134 -138.239,15.5734 -138.218,16.865 C-138.218,23.8475 -132.548,29.5175 -125.566,29.5175 C-118.583,29.5175 -112.913,23.8475 -112.913,16.865 C-112.913,9.93492 -118.51,4.2859 -125.45,4.2124 C-130.795,4.09689 -135.079,-0.281622 -135.079,-5.65764 C-135.079,-11.1072 -130.648,-15.5382 -125.198,-15.5382 C-121.355,-15.5382 -118.027,-13.3437 -116.399,-10.1412 L-109.637,-10.1622 C-111.58,-16.9242 -117.806,-21.8592 -125.198,-21.8592 C-134.155,-21.8592 -141.431,-14.5827 -141.431,-5.63664 C-141.431,3.17289 -134.375,10.3759 -125.587,10.5649 C-122.111,10.5649 -119.266,13.3894 -119.266,16.886 C-119.266,20.393 -122.09,23.2175 -125.587,23.2175 C-129.094,23.2175 -131.918,20.393 -131.918,16.886 C-131.918,16.55 -131.897,16.214 -131.845,15.8884 L-131.918,15.8674 C-133.987,15.2374 -135.908,14.2924 -137.683,13.1164 Z " fill="#f4b400" fill-opacity="1.00" />					<path d="M-131.845,15.8884 C-131.897,16.2139 -131.918,16.5499 -131.918,16.8859 C-131.918,20.393 -129.094,23.2175 -125.587,23.2175 C-122.09,23.2175 -119.266,20.393 -119.266,16.8859 C-119.266,13.3894 -122.111,10.5649 -125.587,10.5649 C-134.375,10.3759 -141.431,3.17289 -141.431,-5.63665 C-141.431,-14.5827 -134.155,-21.8592 -125.198,-21.8592 C-117.806,-21.8592 -111.58,-16.9242 -109.637,-10.1622 L-103.117,-10.1832 C-105.206,-20.4522 -114.299,-28.1907 -125.198,-28.1907 C-137.662,-28.1907 -147.753,-18.0897 -147.753,-5.63665 C-147.753,2.19639 -143.762,9.10541 -137.683,13.1479 C-135.908,14.3134 -133.987,15.2584 -131.918,15.8884 L-131.845,15.8884 Z " fill="#db4437" fill-opacity="1.00" />				</g>				<g>					<path d="M-77.2673,-11.9824 C-77.2673,-2.31813 -69.3221,5.5434 -59.4906,5.5434 C-52.3632,5.5434 -44.3437,1.37103 -42.9498,-8.37689 L-50.8949,-8.37689 C-52.0379,-3.46111 -55.5598,-1.58401 -59.6578,-1.58401 C-65.0661,-1.58401 -69.4894,-5.34751 -69.4894,-11.9824 C-69.4894,-18.4593 -65.0661,-22.3901 -59.6578,-22.3901 C-55.4762,-22.3901 -51.9543,-20.5037 -50.8113,-15.5879 L-42.8661,-15.5879 C-44.3437,-25.3358 -52.3632,-29.5175 -59.4162,-29.5175 C-69.3221,-29.5175 -77.2673,-21.7303 -77.2673,-11.9824 Z " fill="#db4437" fill-opacity="1.00" />					<path d="M-38.6845,-8.13528 C-38.6845,0.302378 -32.3005,5.5434 -23.9465,5.5434 C-15.0999,5.5434 -9.28277,-0.19013 -9.28277,-8.13528 L-9.28277,-28.6161 L-17.0607,-28.6161 L-17.0607,-8.62779 C-17.0607,-4.52976 -19.5232,-1.41675 -23.9465,-1.41675 C-28.4441,-1.41675 -30.9066,-4.61339 -30.9066,-8.62779 L-30.9066,-28.6161 L-38.6845,-28.6161 L-38.6845,-8.13528 Z " fill="#db4437" fill-opacity="1.00" />					<path d="M20.5371,-28.6905 L20.5371,-21.814 L4.73044,-21.814 L4.73044,-15.5043 L18.2418,-15.5043 L18.2418,-9.03666 L4.73044,-9.03666 L4.73044,-2.23449 L20.7044,-2.23449 L20.7044,4.72565 L-3.05674,4.72565 L-3.05674,-28.6905 L20.5371,-28.6905 Z " fill="#db4437" fill-opacity="1.00" />					<path d="M23.7338,-5.5984 C23.7338,-0.190127 27.4973,5.54339 37.7377,5.46906 C46.0174,5.46906 51.6672,1.86353 51.6672,-4.855 C51.6672,-11.3319 46.5006,-14.1104 39.7913,-15.5043 C34.541,-16.4893 32.3294,-17.558 32.3294,-19.686 C32.3294,-21.2378 33.1564,-22.799 37.3288,-22.799 C41.4268,-22.799 42.7371,-20.9126 42.7371,-19.0262 L50.515,-19.0262 C50.515,-25.4195 46.1753,-29.5175 37.4124,-29.5175 C28.8075,-29.5175 24.5515,-25.5031 24.5515,-19.686 C24.5515,-12.5585 31.428,-10.4305 37.0872,-9.03666 C41.4268,-8.05164 43.8057,-7.06663 43.8057,-4.77137 C43.8057,-2.23449 42.0773,-0.924235 37.7377,-0.924235 C33.7233,-0.924235 31.5116,-2.81063 31.5116,-5.5984 L23.7338,-5.5984 Z " fill="#db4437" fill-opacity="1.00" />					<path d="M54.3714,-11.9824 C54.3714,-2.31813 62.4745,5.5434 72.557,5.5434 C82.5465,5.5434 90.7425,-2.31813 90.7425,-11.9824 C90.7425,-21.7303 82.5465,-29.5175 72.557,-29.5175 C62.4745,-29.5175 54.3714,-21.7303 54.3714,-11.9824 Z M82.9554,-11.9824 C82.9554,-6.00728 78.2905,-1.58401 72.557,-1.58401 C66.8234,-1.58401 62.1493,-6.00728 62.1493,-11.9824 C62.1493,-18.0412 66.7398,-22.3901 72.557,-22.3901 C78.3741,-22.3901 82.9554,-18.0412 82.9554,-11.9824 Z " fill="#db4437" fill-opacity="1.00" />					<path d="M119.001,-28.6905 L119.001,-21.7303 L103.195,-21.7303 L103.195,-14.0268 L116.706,-14.0268 L116.706,-7.55914 L103.195,-7.55914 L103.195,4.72565 L95.4074,4.72565 L95.4074,-28.6905 L119.001,-28.6905 Z " fill="#db4437" fill-opacity="1.00" />					<path d="M130.636,-21.7303 L130.71,4.72565 L138.413,4.72565 L138.413,-21.7303 L147.753,-21.7303 L147.753,-28.6905 L121.297,-28.6905 L121.297,-21.7303 L130.636,-21.7303 Z " fill="#db4437" fill-opacity="1.00" />				</g>				<g>					<path d="M-75.7704,27.8415 L-75.8602,27.8415 L-75.8602,23.1712 L-74.2735,23.1712 L-71.639,27.8415 L-69.8827,27.8415 L-72.7767,23.0016 C-71.9883,22.9118 -71.3696,22.5625 -70.9305,22.1234 C-70.4914,21.6744 -70.232,21.0656 -70.232,20.2673 C-70.232,19.6586 -70.3218,19.2195 -70.4914,18.8602 C-70.6711,18.511 -70.9305,18.2515 -71.2898,17.9821 C-71.639,17.7226 -72.0781,17.543 -72.5172,17.4532 C-72.9563,17.3733 -73.3954,17.2835 -73.9243,17.2835 L-77.2673,17.2835 L-77.2673,27.8415 L-75.7704,27.8415 Z M-75.7704,21.9438 L-75.7704,18.6008 L-74.0141,18.6008 C-73.7446,18.6008 -73.3954,18.6008 -73.1359,18.6906 C-72.7767,18.6906 -72.5172,18.8602 -72.3376,18.95 C-72.0781,19.1297 -71.8985,19.2993 -71.8187,19.4789 C-71.7288,19.6586 -71.639,19.918 -71.639,20.2673 C-71.639,20.6265 -71.7288,20.886 -71.8187,21.0656 C-71.8985,21.2353 -72.0781,21.4149 -72.3376,21.5945 C-72.607,21.6744 -72.8665,21.7642 -73.1359,21.854 C-73.3954,21.9438 -73.7446,21.9438 -74.1039,21.9438 L-75.7704,21.9438 Z " fill="#000000" fill-opacity="1.00" />					<path d="M-58.0874,26.5142 L-58.0874,27.8415 L-65.0428,27.8415 L-65.0428,17.2835 L-58.267,17.2835 L-58.267,18.6008 L-63.5459,18.6008 L-63.5459,21.7642 L-58.6162,21.7642 L-58.6162,23.0016 L-63.5459,23.0016 L-63.5459,26.5142 L-58.0874,26.5142 Z " fill="#000000" fill-opacity="1.00" />					<path d="M-50.1739,24.8477 L-50.1739,23.7001 L-53.6067,23.7001 L-53.6067,24.8477 L-50.1739,24.8477 Z " fill="#000000" fill-opacity="1.00" />					<path d="M-43.6675,27.8415 L-43.6675,17.2835 L-45.1644,17.2835 L-45.1644,27.8415 L-43.6675,27.8415 Z " fill="#000000" fill-opacity="1.00" />					<path d="M-29.4173,17.2835 L-27.1221,17.2835 L-27.1221,27.8415 L-28.6189,27.8415 L-28.6189,19.0399 L-32.1416,27.8415 L-33.1095,27.8415 L-36.6222,19.0399 L-36.6222,27.8415 L-38.0293,27.8415 L-38.0293,17.2835 L-35.744,17.2835 L-32.5807,25.3766 L-29.4173,17.2835 Z " fill="#000000" fill-opacity="1.00" />					<path d="M-21.0547,27.8415 L-20.0868,25.197 L-15.0772,25.197 L-14.0194,27.8415 L-12.3529,27.8415 L-16.8336,17.2835 L-18.1508,17.2835 L-22.7312,27.8415 L-21.0547,27.8415 Z M-19.5579,23.9696 L-17.5421,19.0399 L-15.6061,23.9696 L-19.5579,23.9696 Z " fill="#000000" fill-opacity="1.00" />					<path d="M-0.2083,19.4789 L0.849492,18.2515 C0.410408,17.8923 -0.2083,17.543 -0.827007,17.2835 C-1.52555,17.0141 -2.23406,16.9243 -3.11223,16.9243 C-3.90058,16.9243 -4.6091,17.1039 -5.30765,17.3733 C-6.01616,17.6328 -6.54506,18.0719 -7.07395,18.511 C-7.51304,19.0399 -7.95212,19.5688 -8.21158,20.2673 C-8.48101,20.9758 -8.65066,21.7642 -8.65066,22.5625 C-8.65066,23.4407 -8.48101,24.1392 -8.21158,24.8477 C-7.95212,25.5463 -7.59287,26.0752 -7.07395,26.6041 C-6.63487,27.1329 -6.01616,27.4822 -5.30765,27.7517 C-4.6091,28.0111 -3.81077,28.1907 -3.02242,28.1907 C-2.32388,28.1907 -1.52555,28.1009 -0.916818,27.9213 C-0.2083,27.7517 0.410408,27.4822 0.939303,27.2228 L0.939303,22.1234 L-2.8428,22.1234 L-2.8428,23.3509 L-0.557569,23.3509 L-0.557569,26.2548 C-0.827007,26.4244 -1.17628,26.5142 -1.61536,26.6041 C-2.05444,26.6939 -2.49352,26.7837 -3.02242,26.7837 C-3.64113,26.7837 -4.17002,26.6041 -4.69891,26.4244 C-5.21783,26.2548 -5.66689,25.9055 -6.01616,25.5463 C-6.36543,25.197 -6.63487,24.7579 -6.80451,24.229 C-6.98414,23.7001 -7.07395,23.1712 -7.07395,22.5625 C-7.07395,21.9438 -6.98414,21.4149 -6.80451,20.886 C-6.63487,20.4469 -6.36543,19.918 -6.01616,19.5688 C-5.66689,19.2195 -5.30765,18.95 -4.77875,18.6906 C-4.24985,18.4212 -3.73094,18.3313 -3.11223,18.3313 C-2.49352,18.3313 -1.96463,18.511 -1.43573,18.6906 C-0.916818,18.8602 -0.557569,19.1297 -0.2083,19.4789 Z " fill="#000000" fill-opacity="1.00" />					<path d="M7.9746,27.8415 L7.9746,17.2835 L6.47773,17.2835 L6.47773,27.8415 L7.9746,27.8415 Z " fill="#000000" fill-opacity="1.00" />					<path d="M21.0772,25.7259 L15.6286,17.2835 L13.6927,17.2835 L13.6927,27.8415 L15.1895,27.8415 L15.1895,19.2195 L20.728,27.8415 L22.5741,27.8415 L22.5741,17.2835 L21.0772,17.2835 L21.0772,25.7259 Z " fill="#000000" fill-opacity="1.00" />					<path d="M35.1578,26.5142 L35.1578,27.8415 L28.2023,27.8415 L28.2023,17.2835 L34.9782,17.2835 L34.9782,18.6008 L29.6992,18.6008 L29.6992,21.7642 L34.6289,21.7642 L34.6289,23.0016 L29.6992,23.0016 L29.6992,26.5142 L35.1578,26.5142 Z " fill="#000000" fill-opacity="1.00" />					<path d="M52.312,19.2195 L53.4496,18.4212 C53.1003,18.0719 52.6612,17.7226 52.1323,17.543 C51.5136,17.2835 50.9847,17.1937 50.376,17.1937 C49.9369,17.1937 49.4978,17.2835 49.0588,17.3733 C48.6097,17.4532 48.2604,17.6328 47.9112,17.8923 C47.6417,18.1617 47.2924,18.511 47.1228,18.8602 C46.8534,19.2195 46.7636,19.6586 46.7636,20.1875 C46.7636,20.7164 46.8534,21.0656 47.033,21.4149 C47.2026,21.6744 47.3823,21.9438 47.6417,22.2032 C47.9112,22.3829 48.1706,22.5625 48.5299,22.7321 C48.7893,22.822 49.1386,23.0016 49.4978,23.0914 C49.8471,23.261 50.1964,23.3509 50.4658,23.4407 C50.7253,23.5305 50.9847,23.6103 51.2542,23.7899 C51.4238,23.9696 51.6034,24.1392 51.7831,24.3188 C51.8729,24.4985 51.9527,24.7579 51.9527,25.1072 C51.9527,25.3766 51.8729,25.6361 51.7831,25.9055 C51.6034,26.0752 51.5136,26.2548 51.2542,26.4244 C50.9847,26.6041 50.8151,26.6939 50.5457,26.7837 C50.376,26.8735 50.1066,26.8735 49.8471,26.8735 C49.408,26.8735 48.9689,26.7837 48.5299,26.5142 C48.1706,26.3446 47.8213,25.9853 47.5619,25.6361 L46.4143,26.6041 C46.7636,27.1329 47.2924,27.4822 47.9112,27.7517 C48.5299,28.0111 49.1386,28.1009 49.8471,28.1009 C50.2862,28.1009 50.7253,28.0111 51.1644,27.9213 C51.6034,27.7517 51.9527,27.572 52.312,27.3126 C52.6612,27.0431 52.9207,26.7837 53.1003,26.3446 C53.2799,25.9853 53.3598,25.4664 53.3598,24.9375 C53.3598,24.4086 53.2799,23.9696 53.1003,23.6103 C52.9207,23.261 52.6612,23.0016 52.3918,22.7321 C52.1323,22.5625 51.7831,22.3829 51.4238,22.2032 C51.0745,22.1234 50.7253,21.9438 50.376,21.854 C50.0168,21.7642 49.7573,21.6744 49.4978,21.5945 C49.2284,21.5047 48.9689,21.4149 48.7893,21.2353 C48.6097,21.0656 48.44,20.886 48.3502,20.7164 C48.2604,20.5367 48.1706,20.2673 48.1706,20.0078 C48.1706,19.6586 48.2604,19.3891 48.3502,19.2195 C48.44,19.0399 48.6097,18.8602 48.7893,18.6906 C49.0588,18.511 49.2284,18.4212 49.4978,18.3313 C49.7573,18.2515 49.9369,18.2515 50.1964,18.2515 C50.6355,18.2515 51.0745,18.3313 51.4238,18.511 C51.7831,18.6906 52.1323,18.95 52.312,19.2195 Z " fill="#000000" fill-opacity="1.00" />					<path d="M69.1967,22.5625 C69.1967,21.7642 69.027,20.9758 68.7576,20.2673 C68.4981,19.5688 68.1389,18.95 67.61,18.511 C67.0911,17.9821 66.5622,17.6328 65.8537,17.3733 C65.2349,17.1039 64.4466,16.9243 63.6582,16.9243 C62.8599,16.9243 62.1614,17.1039 61.4528,17.3733 C60.7543,17.6328 60.2254,18.0719 59.6965,18.511 C59.2574,19.0399 58.8184,19.5688 58.5589,20.2673 C58.2895,20.9758 58.1098,21.7642 58.1098,22.5625 C58.1098,23.4407 58.2895,24.1392 58.5589,24.8477 C58.8184,25.5463 59.1676,26.0752 59.6965,26.6041 C60.2254,27.1329 60.7543,27.4822 61.4528,27.7517 C62.0716,28.0111 62.8599,28.1907 63.6582,28.1907 C64.4466,28.1907 65.1551,28.0111 65.8537,27.7517 C66.5622,27.4822 67.0911,27.1329 67.61,26.6041 C68.059,26.0752 68.4981,25.5463 68.7576,24.8477 C69.027,24.1392 69.1967,23.3509 69.1967,22.5625 Z M67.61,22.5625 C67.61,23.1712 67.5302,23.7001 67.3505,24.229 C67.1709,24.7579 66.9114,25.197 66.5622,25.5463 C66.2029,25.9055 65.8537,26.2548 65.3248,26.4244 C64.7959,26.6939 64.277,26.7837 63.6582,26.7837 C63.0395,26.7837 62.4208,26.6041 61.9817,26.4244 C61.5427,26.2548 61.1036,25.9055 60.7543,25.5463 C60.405,25.197 60.1356,24.7579 59.966,24.229 C59.7863,23.7001 59.6965,23.1712 59.6965,22.5625 C59.6965,21.9438 59.7863,21.4149 59.966,20.886 C60.1356,20.4469 60.405,19.918 60.7543,19.5688 C61.1036,19.2195 61.4528,18.95 61.9817,18.6906 C62.5106,18.4212 63.0395,18.3313 63.6582,18.3313 C64.277,18.3313 64.7959,18.4212 65.3248,18.6906 C65.7638,18.8602 66.2029,19.2195 66.5622,19.5688 C66.9114,19.918 67.1709,20.3571 67.3505,20.886 C67.5302,21.4149 67.61,21.9438 67.61,22.5625 Z " fill="#000000" fill-opacity="1.00" />					<path d="M75.7929,27.8415 L75.7929,23.0914 L80.543,23.0914 L80.543,21.854 L75.7929,21.854 L75.7929,18.6008 L80.9022,18.6008 L80.9022,17.2835 L74.296,17.2835 L74.296,27.8415 L75.7929,27.8415 Z " fill="#000000" fill-opacity="1.00" />					<path d="M89.5142,27.8415 L89.5142,18.6008 L92.8572,18.6008 L92.8572,17.2835 L84.6843,17.2835 L84.6843,18.6008 L88.0273,18.6008 L88.0273,27.8415 L89.5142,27.8415 Z " fill="#000000" fill-opacity="1.00" />					<path d="M102.627,17.2835 L104.214,17.2835 L106.668,25.7259 L108.964,17.2835 L110.54,17.2835 L107.467,27.8415 L105.97,27.8415 L103.415,19.2993 L100.87,27.8415 L99.3736,27.8415 L96.2901,17.2835 L97.8767,17.2835 L100.162,25.7259 L102.627,17.2835 Z " fill="#000000" fill-opacity="1.00" />					<path d="M115.38,27.8415 L116.348,25.197 L121.368,25.197 L122.415,27.8415 L124.092,27.8415 L119.601,17.2835 L118.284,17.2835 L113.714,27.8415 L115.38,27.8415 Z M116.967,23.9696 L118.993,19.0399 L120.919,23.9696 L116.967,23.9696 Z " fill="#000000" fill-opacity="1.00" />					<path d="M130.069,27.8415 L129.98,27.8415 L129.98,23.1712 L131.566,23.1712 L134.211,27.8415 L135.967,27.8415 L133.063,23.0016 C133.852,22.9118 134.47,22.5625 134.909,22.1234 C135.348,21.6744 135.618,21.0656 135.618,20.2673 C135.618,19.6586 135.528,19.2195 135.348,18.8602 C135.179,18.511 134.909,18.2515 134.56,17.9821 C134.211,17.7226 133.762,17.543 133.323,17.4532 C132.884,17.3733 132.445,17.2835 131.916,17.2835 L128.573,17.2835 L128.573,27.8415 L130.069,27.8415 Z M130.069,21.9438 L130.069,18.6008 L131.836,18.6008 C132.095,18.6008 132.445,18.6008 132.714,18.6906 C133.063,18.6906 133.323,18.8602 133.502,18.95 C133.762,19.1297 133.941,19.2993 134.031,19.4789 C134.121,19.6586 134.211,19.918 134.211,20.2673 C134.211,20.6265 134.121,20.886 134.031,21.0656 C133.941,21.2353 133.762,21.4149 133.502,21.5945 C133.243,21.6744 132.973,21.7642 132.714,21.854 C132.445,21.9438 132.095,21.9438 131.746,21.9438 L130.069,21.9438 Z " fill="#000000" fill-opacity="1.00" />					<path d="M147.753,26.5142 L147.753,27.8415 L140.807,27.8415 L140.807,17.2835 L147.573,17.2835 L147.573,18.6008 L142.304,18.6008 L142.304,21.7642 L147.224,21.7642 L147.224,23.0016 L142.304,23.0016 L142.304,26.5142 L147.753,26.5142 Z " fill="#000000" fill-opacity="1.00" />				</g>				<path d="M-90.3157,28.1907 L-88.6687,28.1907 L-88.6687,-29.5175 L-90.3157,-29.5175 L-90.3157,28.1907 Z " fill="#000000" fill-opacity="1.00" />			</g>		</g>	</svg>