<svg width="106" height="23" viewBox="0 0 106 23" fill="none" xmlns="http://www.w3.org/2000/svg">
<g clip-path="url(#clip0_1_2231)">
<path d="M0.578125 21.4521V19.5231H1.7911C2.3976 19.5231 3.61421 19.4141 3.61421 18.1291V6.558C3.61421 5.86264 3.55247 4.19955 2.03442 4.19955H0.639864L2.21964 1.73535H95.6372V4.19955H9.68637C8.8983 4.19955 7.8669 4.35977 7.8669 5.75369V9.39712C8.04848 9.82648 8.77845 9.9867 9.14162 9.9867C9.50479 9.9867 10.7795 9.93229 10.7795 8.16662H12.6026V14.114H10.7795C10.7795 13.5789 10.1076 12.6784 9.19973 12.6143C8.47339 12.5599 7.86327 12.7745 7.86327 13.6333V18.1356C7.86327 18.6194 8.5315 19.5295 10.1113 19.5295H11.2045V21.4586L0.578125 21.4521Z" fill="#474646"/>
<path d="M54.4865 6.98701C54.4865 7.41639 55.0929 7.84579 55.4598 7.95154C55.8846 7.68236 58.1326 6.55762 59.8941 6.55762C61.6554 6.55762 62.5669 7.36192 62.5669 8.59242V14.4854H58.3179V9.93189C58.3179 9.34225 58.1363 8.91286 57.5298 8.85839C56.9233 8.80391 55.3436 9.93189 54.9186 10.467V18.6127C54.9186 19.3625 55.7684 19.8976 56.4985 19.8976V21.4517H49.0898V19.8431C49.8198 19.8431 50.6078 19.6284 50.6696 18.6639V9.61142C50.6696 9.34225 50.183 8.59242 49.0898 8.59242V6.9838L54.4865 6.98701Z" fill="#474646"/>
<path d="M105.323 6.9873H97.9141V8.59592C99.0072 8.59592 99.4938 9.34575 99.4938 9.61493V18.6707C99.432 19.6352 98.644 19.8498 97.9141 19.8498V21.4585H105.323V19.9043C104.593 19.9043 103.743 19.3692 103.743 18.6193V9.71747C103.743 9.07337 104.531 8.59271 105.323 8.59271V6.9873Z" fill="#474646"/>
<path d="M38.094 6.98701C38.094 7.41639 38.7004 7.84579 39.0672 7.95154C39.4922 7.68236 41.7402 6.55762 43.5016 6.55762C45.2629 6.55762 46.1744 7.36192 46.1744 8.59242V14.4854H41.9254V9.93189C41.9254 9.34225 41.7438 8.91286 41.1374 8.85839C40.5308 8.80391 38.951 9.93189 38.5262 10.467V18.6127C38.5262 19.3625 39.3759 19.8976 40.1059 19.8976V21.4517H32.6973V19.8431C33.4273 19.8431 34.2153 19.6284 34.2771 18.6639V9.61142C34.2771 9.34225 33.7905 8.59242 32.6973 8.59242V6.9838L38.094 6.98701Z" fill="#474646"/>
<path d="M87.3495 6.98701C87.3495 7.41639 87.956 7.84579 88.3228 7.95154C88.7477 7.68236 90.992 6.55762 92.7535 6.55762C94.5148 6.55762 95.4264 7.36192 95.4264 8.59242V14.4854H91.1773V9.93189C91.1773 9.34225 90.9957 8.91286 90.3892 8.85839C89.7827 8.80391 88.203 9.93189 87.778 10.467V18.6127C87.778 19.3625 88.6278 19.8976 89.3578 19.8976V21.4517H81.9492V19.8431C82.6792 19.8431 83.4672 19.6284 83.5289 18.6639V9.61142C83.5289 9.34225 83.0423 8.59242 81.9492 8.59242V6.9838L87.3495 6.98701Z" fill="#474646"/>
<path d="M29.4819 16.9528H25.2328V18.398C25.2328 18.9875 25.113 20.2213 23.1083 20.2213C21.1035 20.2213 20.4971 19.042 20.4971 18.1864V15.1326C20.4971 14.8635 20.7404 14.4885 21.1653 14.4885H29.4855V10.576C29.4855 8.80712 29.0606 8.27198 28.2108 7.52214C27.361 6.77231 24.3866 6.55762 23.0501 6.55762C19.6509 6.55762 18.5578 6.98701 17.5845 7.68236C16.6148 8.37772 16.248 9.82616 16.248 10.8964V16.9496C16.248 18.5582 16.6112 19.6829 17.7661 20.6988C18.921 21.7145 22.44 21.7177 23.17 21.7177C23.9 21.7177 26.3259 21.7722 28.0873 20.6474C29.845 19.5227 29.4819 16.9528 29.4819 16.9528ZM20.4934 10.3067C20.4934 9.448 20.7985 8.16303 22.923 8.16303C25.0476 8.16303 25.2292 9.55695 25.2292 10.3067V12.2359C25.2292 12.5563 24.9241 12.88 24.4992 12.88H21.2198C20.8566 12.88 20.4898 12.6107 20.4898 12.2903L20.4934 10.3067Z" fill="#474646"/>
<path d="M78.1803 18.6128V10.5762C78.1803 9.34242 78.1186 8.05745 76.6623 7.14739C75.206 6.23734 72.8381 6.28861 71.9266 6.28861C71.015 6.28861 67.979 6.28861 66.5844 7.68253C65.1898 9.07645 65.4296 10.4159 65.4296 10.951H69.4062C69.4062 10.951 69.6785 9.13093 70.227 8.64706C70.779 8.16319 72.2317 7.62806 73.3538 8.48684C73.7679 8.80408 73.9313 9.21104 73.9313 9.66606V11.97C73.9313 12.1847 73.688 12.5052 73.3866 12.5052C73.3866 12.5052 67.8591 12.6109 66.8895 13.255C65.9162 13.8959 65.0664 14.3253 65.0664 16.6837C65.0664 19.0422 65.7346 19.9522 66.5227 20.4361C67.3107 20.9168 67.6775 21.4551 71.2584 21.4551H79.7601V19.901C79.0302 19.8977 78.1803 19.3627 78.1803 18.6128ZM73.9313 19.5229C73.9313 19.6574 73.688 19.8433 73.5064 19.8433H71.4109C69.9219 19.8433 69.497 18.7186 69.497 18.02V15.9564C69.497 13.9472 71.8649 14.0016 72.8055 14.0016C73.7497 14.0016 73.9313 14.697 73.9313 15.1521V19.5229Z" fill="#474646"/>
<path d="M101.342 4.17321C103.466 4.17321 105.191 3.60283 105.191 2.90106C105.191 2.19929 103.466 1.62891 101.342 1.62891C99.2173 1.62891 97.4922 2.19929 97.4922 2.90106C97.4922 3.60283 99.2137 4.17321 101.342 4.17321Z" fill="#474646"/>
</g>
<defs>
<clipPath id="clip0_1_2231">
<rect width="105.108" height="21.1983" fill="white" transform="translate(0.578125 0.90332)"/>
</clipPath>
</defs>
</svg>
