<svg width="55" height="55" viewBox="0 0 55 55" fill="none" xmlns="http://www.w3.org/2000/svg">
<g clip-path="url(#clip0_1_2251)">
<path d="M44.0453 11.9565C44.2606 13.362 46.6586 15.2485 47.3087 15.2066C47.7435 15.2066 47.9071 13.3734 47.9071 11.9565C47.9071 11.1431 47.9587 10.509 47.4765 10.3601C46.7059 11.735 44.6911 12.0138 44.0453 11.9565ZM44.1745 11.334C45.9051 11.334 47.4895 10.108 47.4895 9.03109C47.4895 8.53081 47.2225 8.11452 46.538 8.04197C46.6542 8.17563 46.7059 8.27874 46.7059 8.51553C46.7059 9.32901 45.3067 10.2303 43.7913 10.2303C43.2402 10.2303 43.0766 10.5702 43.0766 10.7458C43.0766 11.1583 43.5287 11.334 44.1745 11.334ZM43.8085 9.66509C43.5761 9.66509 43.2402 9.66509 43.0594 9.34049C42.9088 9.07313 42.9604 8.64537 42.6763 8.45442C42.9604 8.52698 43.2574 8.52698 43.4942 8.52698C44.2434 8.52698 44.9623 8.06869 45.5091 8.06869C45.875 8.06869 45.9913 8.27493 45.9913 8.48116C45.9913 9.13425 44.5103 9.66509 43.8085 9.66509ZM6.56465 21.2446C7.12863 21.2446 7.01239 18.174 7.92938 18.174C8.14895 18.174 8.21353 18.365 8.21353 18.6018C8.21353 19.2968 7.83036 20.3165 7.83036 20.8779C7.83036 21.1567 7.91217 21.2484 8.06285 21.2484C8.46323 21.2484 9.16066 17.8647 9.84518 17.8647C10.0605 17.8647 10.1637 18.0556 10.1637 18.2504C10.1637 18.9569 9.14775 20.9963 9.14775 21.573C9.14775 21.6608 9.18219 21.7372 9.26398 21.7372C9.68159 21.7372 10.5125 20.1408 10.7794 19.3464C10.9301 18.934 11.1281 18.7125 11.3132 18.7125C11.4811 18.7125 11.6318 18.8767 11.6318 19.2128C11.6318 20.011 10.801 21.8862 10.069 23.1426C9.50076 24.1165 8.61821 25.5219 8.61821 26.3049C8.61821 26.7021 8.70431 27.1145 9.35009 27.6186C8.28241 27.5613 7.85189 27.4696 7.45151 26.7325C5.66918 29.8757 10.7321 29.5702 9.00137 32.3581C8.68709 31.8577 6.1858 31.3384 6.1858 28.4129C6.1858 25.8886 8.68278 24.4105 8.68278 23.3603C8.68278 23.1541 8.59669 22.9746 8.38143 22.8142C7.83037 22.4017 7.81315 22.0618 7.38263 22.0618C7.06835 22.0618 6.6852 22.711 7.08127 23.2877C7.21473 23.4787 7.33097 23.5971 7.33097 23.7766C7.33097 24.1891 6.59909 25.2966 6.08247 25.2966C5.56586 25.2966 5.16548 24.1585 5.16548 22.3292C5.16548 20.7022 5.58308 19.0639 6.0997 19.0639C6.25037 19.0639 6.29773 19.1517 6.29773 19.2701C6.29773 19.461 6.23316 19.8467 6.23316 20.496C6.23316 21.1834 6.41397 21.2446 6.56465 21.2446ZM32.0727 6.72438C32.3396 6.72438 32.3869 7.30106 32.4386 7.64095C32.4731 7.81664 32.5032 7.83191 32.5893 7.83191C32.7873 7.83191 33.1059 7.15211 33.3212 7.15211C33.6398 7.15211 34.4879 7.93503 35.9043 7.93503C37.9191 7.93503 39.8177 6.67854 39.8177 4.46347C39.8177 2.32097 38.1172 1.06449 35.7708 1.06449C34.6558 1.06449 33.8378 1.55333 33.4073 1.55333C33.1361 1.57243 32.74 0.980469 32.5377 0.980469C32.4558 0.980469 32.3697 1.12942 32.3697 1.37766C32.3697 1.54187 32.3697 2.05745 32.1674 2.05745C31.767 2.05745 30.2214 1.03775 30.2214 1.40821C30.2214 1.74811 31.2548 2.78308 31.2548 3.0466C31.2548 3.31394 30.2387 3.56599 30.2387 3.74167C30.2387 4.06629 31.3236 4.12739 31.3236 4.53986C31.3236 4.95232 30.1914 5.27694 30.1914 5.59011C30.1914 5.84217 31.3236 5.66267 31.3236 5.97584C31.3236 6.289 30.4927 7.32015 30.4927 7.61423C30.4927 7.68679 30.5099 7.68679 30.5745 7.68679C30.8887 7.68679 31.8402 6.72438 32.0727 6.72438ZM10.7105 28.5581C10.6933 28.264 10.9258 27.9814 11.2745 27.9509C11.6232 27.9051 11.9418 28.1418 11.972 28.4512C12.0063 28.7605 11.7567 29.0279 11.4036 29.0698C11.0592 29.089 10.745 28.8675 10.7105 28.5581ZM8.86361 29.0126C8.92818 29.5167 9.46202 29.8986 10.0605 29.8375C10.2757 29.8222 10.4781 29.7649 10.6072 29.6885C10.7406 30.1622 11.1539 30.4562 11.7739 30.3989C12.3896 30.3569 12.8244 29.8948 12.7555 29.3525C12.7555 29.2036 12.7038 29.1157 12.6564 29.0126L12.7727 28.9973C13.3539 28.9362 13.8059 28.4626 13.7542 27.947C13.6897 27.4162 13.1386 27.0305 12.5747 27.0763C12.3594 27.1221 12.1743 27.1794 12.0408 27.2825C11.8901 26.8395 11.4596 26.4843 10.844 26.5455C10.2628 26.576 9.81074 27.0763 9.87962 27.6224C9.87962 27.6988 9.91406 27.8172 9.9614 27.9165L9.84518 27.9317C9.25968 28.0081 8.81194 28.4397 8.86361 29.0126ZM45.9568 1.92379C45.9568 2.13001 46.1376 2.29424 46.3744 2.29424C46.6069 2.29424 46.792 2.13001 46.792 1.92379C46.792 1.71755 46.6069 1.55333 46.3744 1.55333C46.1419 1.55715 45.9568 1.71755 45.9568 1.92379ZM36.6663 15.9284C36.6663 16.2683 36.9806 16.547 37.3637 16.547C37.7469 16.547 38.0612 16.2683 38.0612 15.9284C38.0612 15.5885 37.7426 15.3097 37.3637 15.3097C36.9849 15.3059 36.6663 15.5885 36.6663 15.9284ZM36.7179 17.7883C36.7179 18.174 37.0666 18.4833 37.5015 18.4833C37.9363 18.4833 38.285 18.174 38.285 17.7883C38.285 17.4064 37.9363 17.097 37.5015 17.097C37.0666 17.097 36.7179 17.4064 36.7179 17.7883ZM34.3199 19.0447C34.3199 19.6061 34.8366 20.0644 35.4695 20.0644C36.1023 20.0644 36.619 19.6061 36.619 19.0447C36.619 18.4833 36.1023 18.0251 35.4695 18.0251C34.8366 18.0251 34.3199 18.4833 34.3199 19.0447ZM34.9356 16.9633C34.9356 17.288 35.237 17.5553 35.6029 17.5553C35.9689 17.5553 36.2702 17.288 36.2702 16.9633C36.2702 16.6387 35.9689 16.3714 35.6029 16.3714C35.237 16.3714 34.9356 16.6387 34.9356 16.9633ZM32.7529 18.1434C32.7529 18.468 33.0542 18.7316 33.4201 18.7316C33.7862 18.7316 34.0832 18.468 34.0832 18.1434C34.0832 17.8188 33.7818 17.5515 33.4201 17.5515C33.0542 17.5515 32.7529 17.8188 32.7529 18.1434ZM34.4707 14.6871C34.4707 15.2028 34.9528 15.6343 35.5384 15.6343C36.1195 15.6343 36.6017 15.2066 36.6017 14.6871C36.6017 14.1678 36.1195 13.7438 35.5384 13.7438C34.9528 13.7438 34.4707 14.1716 34.4707 14.6871ZM35.7192 12.8693C35.7192 13.1786 36.0033 13.4307 36.352 13.4307C36.7007 13.4307 36.9849 13.1786 36.9849 12.8693C36.9849 12.56 36.7007 12.3079 36.352 12.3079C36.0033 12.3079 35.7192 12.56 35.7192 12.8693ZM32.7056 14.2861C32.7056 14.5955 32.9897 14.8475 33.3384 14.8475C33.6871 14.8475 33.9713 14.5955 33.9713 14.2861C33.9713 13.9768 33.6871 13.7247 33.3384 13.7247C32.9853 13.7286 32.7056 13.9768 32.7056 14.2861ZM32.6194 16.2071C32.6194 16.7074 33.0715 17.1085 33.6354 17.1085C34.1995 17.1085 34.6515 16.7113 34.6515 16.2071C34.6515 15.7031 34.1995 15.3059 33.6354 15.3059C33.0715 15.3059 32.6194 15.7069 32.6194 16.2071ZM30.5228 17.1543C30.5228 17.6126 30.9534 17.9945 31.4699 17.9945C31.9866 17.9945 32.4171 17.6126 32.4171 17.1543C32.4171 16.696 31.9823 16.3103 31.4699 16.3103C30.9576 16.3103 30.5228 16.696 30.5228 17.1543ZM31.0868 15.0729C31.0868 15.3975 31.3882 15.6648 31.7541 15.6648C32.12 15.6648 32.4214 15.3975 32.4214 15.0729C32.4214 14.7483 32.12 14.4809 31.7541 14.4809C31.3882 14.4809 31.0868 14.7445 31.0868 15.0729ZM28.874 36.8417C28.874 37.1663 29.1753 37.4298 29.5413 37.4298C29.9072 37.4298 30.2086 37.1663 30.2086 36.8417C30.2086 36.517 29.9072 36.2498 29.5413 36.2498C29.1753 36.2498 28.874 36.517 28.874 36.8417ZM10.9602 12.369C10.9602 12.6936 11.2573 12.961 11.6232 12.961C11.9891 12.961 12.2905 12.6936 12.2905 12.369C12.2905 12.0443 11.9891 11.7771 11.6232 11.7771C11.2616 11.7771 10.9602 12.0443 10.9602 12.369ZM10.0949 11.04C10.0949 11.3646 10.3962 11.6319 10.7622 11.6319C11.1281 11.6319 11.4251 11.3684 11.4251 11.04C11.4251 10.7153 11.1239 10.448 10.7622 10.448C10.3919 10.448 10.0949 10.7153 10.0949 11.04ZM10.8095 25.5716C11.507 25.5716 12.0925 25.1133 12.0925 24.0936V22.5889C12.0925 22.0122 12.1441 21.3629 12.5747 20.9047C12.523 21.0956 12.523 21.3018 12.523 21.4928C12.523 22.7646 13.3237 23.6353 13.3237 24.8613C13.3237 25.3195 13.1731 25.5678 12.777 25.5678C12.3938 25.5678 12.4283 25.2584 12.3422 25.2584C12.2775 25.2584 12.1743 25.4493 12.1743 25.6556C12.1743 25.965 12.424 26.4538 13.1257 26.4538C13.7242 26.4538 14.2063 25.965 14.2063 25.4188C14.2063 24.0897 13.0439 22.6118 13.0439 21.1949C13.0439 20.5762 13.2247 20.1599 13.3754 19.8353C13.3754 22.776 16.191 24.9185 16.191 26.1445C16.191 26.4232 15.9585 26.6485 15.6098 26.6485C15.2266 26.6485 15.0458 26.3812 15.0458 26.175C15.0458 26.0719 15.0286 26.0413 14.9812 26.0413C14.8822 26.0413 14.5808 26.3354 14.5808 26.7211C14.5808 27.2061 15.0286 27.7981 15.8638 27.7981C16.8152 27.7981 17.3275 27.0878 17.3275 26.4538C17.3275 24.9032 13.9135 22.5545 13.9135 20.0416C13.9135 19.6138 13.9954 18.9188 14.3484 18.3878C12.1484 19.6406 11.4683 21.3133 11.4683 22.776C11.4683 24.044 11.4166 24.6817 10.6847 24.6817C10.3015 24.6817 10.2026 24.3724 10.069 24.3724C9.97007 24.3724 9.91837 24.6397 9.91837 24.7122C9.90976 25.2623 10.3618 25.5716 10.8095 25.5716ZM39.6626 10.8185C40.3946 10.8185 40.9456 10.5243 40.9456 10.3448C40.9456 10.2876 40.8466 10.2418 40.6271 10.2418C40.4118 10.2418 39.977 10.2265 39.1633 10.108C38.4658 10.005 37.932 9.76817 37.7296 9.76817C37.6651 9.76817 37.6307 9.79873 37.6307 9.84077C37.6307 10.2265 38.4314 10.8185 39.6626 10.8185ZM36.0334 8.94326C36.2487 8.82487 37.1829 9.01581 38.3969 8.48497C38.5476 8.41241 38.6983 8.38186 38.8275 8.38186C39.4129 8.38186 39.2623 8.97385 39.7962 8.97385C40.2138 8.97385 40.7433 8.66447 41.0619 8.66447C41.5612 8.66447 42.2759 10.0546 42.2759 10.7039C42.2759 11.4563 40.993 11.9145 39.4776 11.9145C37.2604 11.9145 35.9301 10.1997 35.9301 9.09221C35.9344 9.00052 35.9861 8.96996 36.0334 8.94326ZM11.1582 31.1398C10.6115 31.2582 9.72894 32.0258 9.72894 33.2365C9.72894 34.6839 11.4768 36.9142 14.357 36.9142C16.7894 36.9142 17.3878 35.421 17.3878 34.4166C17.3878 32.1862 15.838 30.6204 13.8274 30.6204C12.7296 30.6204 11.748 31.3269 11.748 32.3772C11.748 33.3549 12.5789 34.8138 14.5636 34.8138C15.4936 34.8138 16.0446 34.2218 16.0446 33.542C16.0446 32.8775 15.3601 31.9609 14.3613 31.9609C14.0599 31.9609 13.8446 32.1366 13.8446 32.4192C13.8446 32.7744 14.3958 33.1296 15.0759 33.1296C15.2439 33.1296 15.373 33.099 15.4419 33.0722C15.4764 33.1181 15.4936 33.1907 15.4936 33.2479C15.4936 33.5878 15.1276 33.794 14.5636 33.794C13.7155 33.794 12.8976 33.2326 12.8976 32.3466C12.8976 31.8158 13.4141 31.4301 14.1633 31.4301C15.6442 31.4301 16.5268 32.5987 16.5268 33.7635C16.5268 34.8138 15.8767 35.421 14.5464 35.421C11.8772 35.4248 10.577 33.2976 11.1582 31.1398ZM9.49646 15.0843C9.1133 15.1722 8.31254 15.5885 8.31254 16.3256C8.31254 16.8564 8.7775 17.1963 9.3587 17.1963C9.66006 17.1963 9.87532 17.139 10.0088 17.0474C9.54382 16.6502 9.37591 16.2033 9.37591 15.7642C9.38023 15.4548 9.42758 15.2638 9.49646 15.0843ZM5.41518 15.2944C5.39796 15.367 5.39796 15.4434 5.39796 15.5159C5.39796 16.211 5.81555 16.5929 6.36231 16.5929C6.7756 16.5929 7.26209 16.3714 7.6926 15.8825C7.51179 15.9131 7.29222 15.9284 7.09419 15.9284C6.48286 15.9284 5.81555 15.7795 5.41518 15.2944ZM4.83398 16.6081C4.83398 17.7309 5.21714 18.2619 5.90166 18.2619C6.4355 18.2619 7.15016 17.9219 7.99827 17.2727C7.34819 17.4063 6.8488 17.4942 6.40106 17.4942C5.79834 17.4942 5.33338 17.288 4.83398 16.6081ZM30.1741 39.7939C30.9749 39.7939 30.9232 39.7365 31.1729 39.7365C31.4226 39.7365 31.4398 39.8703 31.4398 39.9581C31.4398 40.2827 30.6218 40.6837 29.1753 40.6837C28.3229 40.6837 27.8106 40.2865 27.6599 39.8435C26.8247 40.3171 25.5633 40.7448 24.3148 40.7448C20.9008 40.7448 20.0355 39.431 18.9721 38.9995C18.1541 38.6749 16.9057 39.3089 15.162 37.5826C15.3945 37.6285 15.7087 37.6398 15.9585 37.6398C17.4911 37.6398 18.3048 36.9754 18.3048 35.9137C18.3048 35.78 18.2876 35.631 18.2703 35.5012C18.7353 35.6654 19.803 36.3719 20.0527 37.6285C20.0871 37.7774 20.7674 37.911 21.2022 37.911C21.8006 37.911 22.5669 37.6896 22.6832 36.8188C24.6807 36.6736 26.0282 35.6234 26.3124 34.2905C27.027 34.4968 27.8451 35.0734 28.0431 35.3676C28.3272 35.2797 28.6587 35.2338 29.0419 35.2338C29.5757 35.2338 30.1741 35.3217 30.8887 35.5165C30.9232 35.3255 30.9534 35.0887 31.2891 35.0887C31.7885 35.0887 31.6551 35.5776 31.823 35.8564C31.9047 36.0053 32.3224 36.0932 32.3224 36.3872C32.3224 36.6698 32.0555 36.7729 31.8919 36.7729C31.823 36.7729 31.7411 36.7576 31.6896 36.7424C31.358 36.8455 31.3408 38.9728 29.9417 38.9728C28.9084 38.9728 27.9613 38.2204 27.5437 37.2733C27.4275 36.9944 27.1778 36.815 26.941 36.815C26.674 36.815 26.5233 36.8608 26.2091 37.1701C25.3093 38.0408 23.8111 38.7932 21.9642 38.7932C21.4002 38.7932 20.9482 38.7475 20.8319 38.7475C20.7674 38.7475 20.7674 38.7627 20.7674 38.778C20.7674 38.8811 21.3356 39.2783 22.5669 39.2783C25.4987 39.2783 26.2133 37.8155 26.6783 37.8155C26.7472 37.8155 26.9453 37.8155 27.0615 38.0523C27.746 39.4693 29.227 39.7939 30.1569 39.7939H30.1741ZM20.7157 10.108C21.8135 10.108 22.3129 10.9521 22.3129 11.8954C22.3129 12.3079 22.1795 12.9151 21.9642 12.9151C21.7489 12.9151 21.7791 12.5752 21.7489 12.2659C21.7145 11.8687 21.6327 11.7809 21.482 11.7809C21.1979 11.7809 21.017 12.3728 21.017 12.9189C21.017 13.2588 21.0816 13.6445 21.383 13.6445C21.5466 13.6445 21.6972 13.572 21.8006 13.4803C21.736 14.1601 21.1677 14.7483 20.3713 14.7483C18.9076 14.7483 18.3565 13.2283 18.1886 12.3385C17.306 13.1671 16.4923 13.7706 15.0243 13.7706C13.6595 13.7706 13.0439 12.8846 13.0439 12.0405C13.0439 11.7885 13.1429 11.1393 13.4917 11.1393C13.9093 11.1393 13.5434 12.3499 14.357 12.3499C14.5551 12.3499 14.9253 12.2009 15.1233 11.7159C15.2395 11.4218 15.3041 11.1087 15.3041 10.8451C15.3041 10.448 15.2051 10.1959 14.8736 10.1959C14.5894 10.1959 14.2407 10.3869 14.1245 10.49C14.5249 9.42829 15.4892 8.88216 16.5569 8.88216C17.8742 8.88216 18.5717 9.91717 18.5717 11.0667C18.5717 11.2309 18.5545 11.4066 18.52 11.567C19.084 10.7421 19.8676 10.108 20.7157 10.108ZM16.5396 1.30509C16.5396 1.21725 16.0403 1.12942 15.3558 1.12942C14.2752 1.12942 14.4258 1.9276 13.5906 1.9276C12.7253 1.9276 12.9406 1.09886 11.8427 1.09886C11.1754 1.09886 10.5598 1.20198 10.5598 1.33564C10.5598 1.51132 11.3434 1.43876 11.3434 1.9276C11.3434 2.44318 9.66436 2.59212 9.66436 2.90147C9.66436 3.00458 9.79782 3.05041 9.96568 3.05041C10.3317 3.05041 10.9172 2.90147 11.3305 2.90147C11.5629 2.90147 11.7782 2.9473 11.7782 3.13825C11.7782 3.5087 10.8784 4.17323 10.8784 4.4673C10.8784 4.55513 10.9602 4.58569 11.0463 4.58569C11.3779 4.58569 11.9461 3.83333 12.4756 3.83333C13.3582 3.83333 12.777 5.50227 13.2592 5.50227C13.7585 5.50227 13.5434 3.86388 14.2579 3.86388C14.8391 3.86388 15.2739 5.00196 15.6744 5.00196C15.7734 5.00196 15.8595 4.9294 15.8595 4.82629C15.8595 4.51695 15.3601 3.88298 15.3601 3.4667C15.3601 3.21464 15.5581 3.09625 15.825 3.09625C16.2082 3.09625 16.7248 3.30247 17.0089 3.30247C17.108 3.30247 17.2069 3.27192 17.2069 3.16881C17.2069 2.81363 15.726 2.43172 15.726 1.97344C15.726 1.51514 16.5396 1.51132 16.5396 1.30509ZM40.2654 30.3875C39.9166 30.3875 37.9836 32.6789 36.7352 32.6789C36.4338 32.6789 36.1841 32.1748 36.1841 31.7928C36.1841 31.5867 36.3348 31.4377 36.8686 31.3346C39.7315 30.7579 39.0987 28.8522 41.544 28.8522C42.8958 28.8522 44.394 29.6657 44.394 31.495C44.394 33.4427 41.2642 35.8678 40.7992 35.8678C40.4161 35.8678 39.9985 35.379 39.9985 35.0544C39.9985 34.9513 40.0502 34.8176 40.3816 34.6992C41.9789 34.1378 42.8958 32.8393 42.8958 32.1748C42.8958 32.0296 42.8141 31.8807 42.5945 31.8807C42.3104 31.8807 41.0963 34.3326 39.7488 34.3326C38.8145 34.3326 37.8674 33.5802 37.8674 33.225C37.8674 32.6331 40.5667 31.5408 40.5667 30.7121C40.5624 30.4028 40.3988 30.3875 40.2654 30.3875ZM42.0606 29.4708C41.8281 29.4708 41.5784 29.6351 41.5784 30.0322C41.5784 30.4753 41.9617 30.7579 42.1768 30.8457C42.2931 30.903 42.4782 30.9642 42.659 30.9642C43.1412 30.9642 43.5244 30.8457 43.5244 30.4905C43.5287 30.0322 42.7753 29.4708 42.0606 29.4708ZM20.4488 2.80981C20.4488 3.07715 21.4992 3.65383 21.9814 3.65383C22.2656 3.65383 22.3473 3.31394 22.3473 2.95876C22.3473 2.51574 22.1321 2.50047 21.6972 2.50047C21.1505 2.50047 20.4488 2.63413 20.4488 2.80981ZM22.1837 5.73523C22.1837 4.8492 19.4543 3.21081 19.4543 2.54629C19.4543 2.51574 19.4543 2.50047 19.4715 2.47373C19.6696 1.98489 21.934 1.64499 21.934 1.24781C21.934 1.05685 21.5337 1.05685 21.3356 1.05685C19.7857 1.05685 17.5213 1.56097 17.5213 2.046C17.5213 2.54629 19.5533 3.77604 19.5533 4.37946C19.5533 4.53986 19.4371 4.60096 19.252 4.60096C18.6879 4.60096 17.4524 3.99373 16.8712 3.99373C16.6043 3.99373 16.5053 4.15413 16.5053 4.39091C16.5053 5.10126 17.4524 6.44558 17.4524 6.84277C17.4524 6.88478 17.4352 6.94588 17.3706 6.94588C17.0692 6.94588 15.6572 5.46789 15.1577 5.46789C14.9726 5.46789 14.9597 5.68941 14.9597 6.01402V6.51814C14.9597 6.85804 14.9425 7.06427 14.7617 7.06427C14.3268 7.06427 14.1288 5.98729 13.7112 5.98729C13.2764 5.98729 13.1946 7.90829 12.7813 7.90829C12.2992 7.90829 12.7125 5.79633 12.2475 5.79633C11.7308 5.79633 11.1496 7.19795 10.7837 7.19795C10.6502 7.19795 10.6158 7.07955 10.6158 6.97643C10.6158 6.5487 10.8999 5.85362 10.8999 5.44116C10.8999 5.23493 10.8354 5.11654 10.633 5.11654C10.1164 5.11654 8.98415 5.85745 8.55363 5.85745C8.48906 5.85745 8.40295 5.82689 8.40295 5.76961C8.40295 5.41443 10.2197 4.29162 10.2197 3.79132C10.2197 3.30247 7.72274 3.6271 7.72274 3.06951C7.72274 2.59594 9.50507 2.11091 9.50507 1.62207C9.50507 1.19434 7.39124 1.00338 6.57756 1.00338C5.596 1.00338 5.06215 1.1065 5.06215 1.35856C5.06215 1.74047 7.29222 1.85886 7.29222 2.20258C7.29222 2.5272 4.97605 3.39795 4.97605 3.90207C4.97605 4.34508 8.23936 3.93262 8.23936 4.39091C8.23936 4.89121 5.39365 7.06427 5.39365 7.78608C5.39365 7.9503 5.52711 8.02287 5.70793 8.02287C6.57326 8.02287 8.82056 6.56015 9.43619 6.56015C9.65145 6.56015 9.66866 6.79312 9.66866 7.00317C9.66866 7.3889 9.51799 7.97704 9.51799 8.40859C9.51799 8.74849 9.61701 8.98524 9.95281 8.98524C10.5685 8.98524 11.1367 8.05342 11.55 8.05342C12.0839 8.05342 11.7653 10.7841 12.566 10.7841C13.2462 10.7841 13.5304 7.83191 13.9652 7.83191C14.4 7.83191 14.7487 8.68739 15.1491 8.68739C15.6485 8.68739 15.416 7.19412 15.9499 7.19412C16.5311 7.19412 18.1971 8.96617 18.9463 8.96617C19.1788 8.96617 19.2648 8.80196 19.2648 8.59573C19.2648 7.81281 18.0336 6.04076 18.0336 5.47936C18.0336 5.33041 18.0852 5.2884 18.266 5.2884C18.9161 5.2884 20.8147 6.08659 21.7145 6.08659C21.9986 6.07514 22.1837 5.93001 22.1837 5.73523ZM44.9107 22.7378C45.1776 21.9969 45.5091 21.4814 46.0558 20.6832C45.5091 20.4311 44.0583 19.9002 44.0583 19.0294C44.0583 18.0098 45.4918 17.2154 45.7888 17.2154C45.9224 17.2154 45.9568 17.3186 45.9568 17.5095C45.9568 18.0404 45.6727 18.8958 45.6727 19.3541C45.6727 19.7665 45.974 20.1676 46.2366 20.1676C46.5208 20.1676 47.3043 19.2815 47.3043 18.4108C47.3043 16.8449 45.7545 16.3714 45.2766 16.3714C44.8245 16.3714 44.0109 17.0206 42.0951 17.0206C38.5175 17.0206 37.6995 13.8737 37.6995 12.4989C37.6995 12.4415 37.7167 12.4263 37.7296 12.4263C37.8115 12.4263 38.1644 12.8082 39.2967 12.8082C39.8822 12.8082 40.4118 12.6745 41.2642 12.6745C43.2617 12.6745 44.1443 13.9004 45.3756 15.4663C46.1247 15.8787 47.9071 16.5432 47.9071 18.4184C47.9071 20.0721 45.9266 20.9887 45.4444 22.7607C46.2108 22.6882 46.6586 21.4737 47.4421 21.4737C47.8424 21.4737 48.0232 21.7563 48.0232 22.1993C48.0232 22.8486 47.6057 23.8225 46.8092 24.4297C46.8264 24.3724 46.8264 24.296 46.8264 24.2082C46.8264 23.7919 46.6413 23.2037 46.1075 23.2037C45.2766 23.2037 45.0096 24.0019 44.5447 24.6664C44.0625 23.1617 43.4125 21.8022 42.2457 20.9734C41.0662 20.1294 39.0341 20.5877 39.0341 19.0524C39.0341 18.6399 39.3312 18.048 39.3312 17.5744C39.3312 17.414 39.2967 17.265 39.1977 17.1467C40.7949 17.6775 40.231 18.6246 41.2125 19.5985C41.8281 20.2172 43.5244 20.8092 44.5103 23.3641C44.5275 23.2916 44.5447 23.1007 44.5447 22.9669C44.5447 20.7824 41.2814 18.6399 40.9972 17.7539C42.8958 17.9449 43.2274 18.3612 44.1271 20.5724C44.3079 21.0383 44.9107 22.1764 44.9107 22.7378ZM9.14344 10.7C9.22524 10.4633 9.29412 10.1692 9.29412 9.84457C9.29412 9.13425 8.92818 8.05724 7.79592 8.05724C7.14585 8.05724 6.6809 8.51553 6.6809 9.06165C6.6809 10.2265 7.99827 10.7 9.14344 10.7ZM7.73134 14.4199C7.1846 14.4199 6.58188 13.8164 6.58188 13.2665C6.58188 12.9724 6.83157 12.6019 7.01239 12.6019C7.08127 12.6019 7.11141 12.6478 7.12863 12.7509C7.22765 13.4765 7.76148 13.889 8.26089 14.0952C8.31254 14.1257 8.34268 14.141 8.34268 14.1678C8.34698 14.2747 8.02841 14.4199 7.73134 14.4199ZM9.6945 13.0335C9.6945 13.2397 9.56104 13.5071 9.29412 13.5071C8.71292 13.5071 8.24366 12.7242 8.24366 12.2811C8.24366 12.0024 8.42879 11.9718 8.67848 11.9718C8.79472 11.9718 8.84208 11.9871 8.92818 12.0291C9.07886 12.1017 9.07886 12.3996 9.25968 12.621C9.363 12.7661 9.6945 12.9304 9.6945 13.0335ZM9.1133 11.4829C9.01428 11.4677 8.88082 11.4677 8.74736 11.4677C8.19631 11.4677 7.46443 11.5555 6.81436 11.9413C5.3506 12.7814 5.58308 14.1105 5.3506 14.4504C5.31616 14.4962 5.29894 14.5535 5.29894 14.6146C5.29894 14.7483 5.46684 14.8934 5.61321 14.8934C5.74667 14.8934 5.82848 14.8628 5.89736 14.8628C6.29773 14.8628 6.74547 15.1149 7.39555 15.1149C7.77871 15.1149 8.22645 15.0118 8.79472 14.7597C9.99585 14.2289 10.4608 12.9151 10.4608 12.6898C10.4608 12.411 10.2111 12.453 9.99585 12.1857C9.76338 11.8763 9.87962 11.7579 9.72894 11.5822C9.62562 11.5135 9.41035 11.5135 9.1133 11.4829ZM10.8784 13.8623C10.5125 14.2442 10.1293 14.8934 10.1293 15.5617C10.1293 16.36 10.6804 17.0244 11.5285 17.0244C12.3464 17.0244 12.7296 16.4058 12.7296 15.768C12.7253 14.775 11.7093 14.0799 10.8784 13.8623ZM7.31375 11.0247C7.31375 11.0247 6.83157 11.3493 6.23316 11.3493C5.5185 11.3493 4.95022 10.8757 4.95022 10.2112C4.95022 9.75289 5.21714 9.27937 5.83278 9.04257C5.81555 9.13036 5.81555 9.20677 5.81555 9.29465C5.81555 10.1386 6.34939 10.7726 7.31375 11.0247ZM36.9332 19.6176C36.9332 19.3236 37.2302 19.0715 37.566 19.0715C37.932 19.0715 38.2161 19.3236 38.2161 19.6176C38.2161 19.9575 37.932 20.1943 37.566 20.1943C37.2346 20.1943 36.9332 19.9575 36.9332 19.6176ZM37.368 36.6049C37.4499 36.6049 37.5488 36.6508 37.5488 36.9142C37.5488 37.2388 37.381 37.6666 36.7868 38.0065C36.3692 38.2586 35.8009 38.4648 34.97 38.4801C35.1035 38.1249 35.2025 37.7545 35.2025 37.4031C35.2025 37.2847 35.1853 37.1969 35.1681 37.0671H35.3833C36.7007 37.0632 37.2647 36.6049 37.368 36.6049ZM37.4971 35.1422C37.6307 35.0391 37.6651 34.8787 37.6651 34.7145V34.3746C37.6651 33.9468 36.9332 33.6948 35.9344 33.6948C34.7203 33.6948 34.0702 34.1836 34.0702 34.3899V35.0696C34.0702 35.3523 34.8022 35.631 35.7019 35.631C36.4165 35.631 37.0666 35.4668 37.4971 35.1422ZM38.3668 35.3064C37.932 35.6005 36.9203 36.2688 35.237 36.2688C34.3372 36.2688 33.9368 36.0168 33.8034 36.0168C33.6354 36.0168 33.4546 36.1657 33.2695 36.3566C32.8691 36.7691 32.3525 37.5368 32.3525 38.3769C32.3525 38.9689 32.8691 39.5609 33.8335 39.5609C36.9461 39.5609 39.2795 37.8308 39.2795 36.4292C39.2795 35.631 38.75 35.3064 38.3668 35.3064ZM38.948 22.8829C38.948 23.2496 39.0815 23.6811 39.4991 23.6811C39.8477 23.6811 40.1491 23.2075 40.1491 22.692C40.1491 22.1 40.0329 21.6418 40.0329 21.405C40.0329 21.3018 40.0802 21.2598 40.1491 21.2598C40.3988 21.2751 40.6313 21.8785 40.8983 21.8785C41.1996 21.8785 41.6473 21.3897 41.8281 21.3897C41.8798 21.3897 41.8928 21.4469 41.8928 21.4622C41.8928 21.6837 41.5095 22.1726 41.5095 22.3636C41.5095 22.5278 42.4782 22.5545 42.4782 22.7034C42.4782 22.925 41.4622 22.925 40.98 23.1159C40.515 23.2916 40.231 23.513 40.231 23.811C40.231 24.105 40.5624 24.1661 41.0317 24.1661C42.1468 24.1661 42.9303 23.6353 43.18 23.6353C43.2316 23.6353 43.2617 23.6658 43.2617 23.7079C43.2617 23.8568 42.6978 24.3418 42.6978 24.5633C42.6978 24.8154 43.7311 25.1095 43.7139 25.2584C43.6966 25.3042 43.632 25.3157 43.5158 25.3157C43.3306 25.3157 43.0508 25.2737 42.8313 25.2737C42.6978 25.2737 42.5816 25.2889 42.5299 25.3463C42.4137 25.4646 42.5643 26.2475 42.3319 26.2475C42.1166 26.2475 41.5484 24.506 40.2697 24.506C40.0846 24.506 39.9511 24.6397 39.9511 24.8613C39.9511 25.4532 40.6012 26.1292 41.2168 26.4576C41.4967 26.6219 41.9659 26.7823 41.9659 26.8701C41.9659 27.0457 40.9026 26.8853 40.9026 27.1794C40.9026 27.4467 41.036 27.8439 41.036 28.0807C41.036 28.1533 41.0188 28.2449 40.9198 28.2449C40.7217 28.2449 40.2353 27.4315 40.0028 27.4315C39.8047 27.4315 39.3699 27.9165 39.1891 27.9165C39.1374 27.9165 39.103 27.8706 39.103 27.8287C39.103 27.4888 39.7186 26.7211 39.7186 25.9688C39.7186 25.6136 39.6713 24.846 39.1848 24.846C38.7844 24.846 38.3367 25.4074 38.1344 25.9688C38.0181 26.2934 38.0999 27.5498 37.8373 27.5498C37.5876 27.5498 37.6522 26.7097 37.3206 26.7097C37.071 26.7097 36.5414 27.1069 36.3563 27.1069C36.3219 27.1069 36.2918 27.0916 36.2918 27.061C36.2918 26.8853 36.7739 26.3087 36.7739 26.1903C36.7739 25.9688 35.6761 25.9382 35.6761 25.7625C35.6761 25.6594 36.1109 25.5869 36.5113 25.5257C37.3594 25.3921 38.6079 24.846 38.6079 24.0783C38.6079 23.2228 37.6737 22.8524 37.0623 22.4972C36.7438 22.3215 36.395 22.1726 36.395 22.0542C36.395 21.9358 36.7954 21.9358 36.9634 21.9358C37.2131 21.9358 37.4627 21.9205 37.4627 21.7448C37.4627 21.6112 37.4282 21.3476 37.4282 21.1414C37.4282 20.9925 37.4455 20.8741 37.5144 20.8741C37.7641 20.8741 38.1128 21.5959 38.2807 21.5959C38.5476 21.5959 38.9136 21.0078 39.1633 21.0078C39.2451 21.0078 39.2795 21.0536 39.2795 21.1834C39.2623 21.7296 38.948 22.3521 38.948 22.8829ZM31.005 18.5559C31.1901 19.8124 33.0844 19.1746 33.0844 20.6946C33.0844 20.9161 33.0155 21.2408 33.0155 21.5233C33.0155 21.8479 33.05 22.1306 33.3297 22.1306C33.6096 22.1306 33.6785 21.9549 33.6785 21.7143C33.6785 21.4775 33.6096 21.1834 33.6096 21.0192C33.6096 20.5037 34.0272 20.3852 34.2769 20.3852C34.9098 20.3852 35.392 20.9619 36.3434 20.9619C36.1281 21.9052 33.9282 21.657 33.9282 22.6882C33.9282 23.2037 34.5094 23.3221 34.8926 23.3221C35.2412 23.3221 35.3575 23.2763 35.3575 23.0128C35.3575 22.8638 35.3231 22.7034 35.3231 22.6003C35.3231 22.543 35.3704 22.4819 35.4565 22.4819C35.8225 22.4819 37.6177 23.6926 37.6177 24.0631C37.6177 24.4029 35.7192 24.7428 35.1681 24.7428C35.0045 24.7428 34.97 24.6397 34.97 24.5824C34.97 24.4793 35.2542 24.1699 35.2542 23.9904C35.2542 23.8568 35.0045 23.7689 34.3372 23.7689C34.0229 23.7689 33.7862 23.7995 33.7862 24.021C33.7862 24.4182 34.518 24.907 34.518 25.2775C34.518 25.5716 34.3199 25.7511 33.7862 25.7511C33.3341 25.7511 32.6539 25.4417 32.6539 24.9262C32.6539 24.5137 33.1361 24.0974 33.1361 23.8491C33.1361 23.7766 33.0715 23.6582 32.8691 23.6582C32.2535 23.6582 32.0856 25.1057 29.9072 25.2699C30.2559 24.9911 30.5573 24.6779 30.5573 24.044C30.5573 23.7346 30.4754 23.4825 30.4754 23.1426C30.4754 22.6996 30.7079 22.4781 31.0395 22.4781C31.6551 22.4781 31.9564 23.2458 32.3525 23.2458C32.5678 23.2458 32.8002 23.0701 32.8002 22.8027C32.8002 21.6799 30.3678 21.8403 30.3678 20.263C30.3894 19.8276 30.5573 19.2968 31.005 18.5559ZM34.1693 28.1571C34.1693 28.3633 34.3372 28.5275 34.5697 28.5275C34.8366 28.5275 35.0045 28.3213 35.0045 28.0845C35.0045 27.7752 34.686 27.3475 34.3888 27.3475C34.2554 27.3475 34.3071 27.5231 34.2726 27.7179C34.251 27.8592 34.1693 28.0387 34.1693 28.1571ZM33.304 26.1941C35.0519 26.4881 36.0032 27.6568 36.0032 28.749C36.0032 29.5014 35.4695 30.1965 34.5352 30.1965C33.6871 30.1965 33.0715 29.681 33.0715 28.8522C33.0715 28.2335 33.6182 27.5804 33.6182 26.9465C33.6182 26.6944 33.5364 26.4423 33.304 26.1941ZM31.0868 28.7032C31.2548 28.8484 31.302 28.9973 31.302 29.1462C31.302 29.3677 31.1859 29.6045 31.1859 29.8527C31.1859 30.2079 31.4829 30.5173 31.9177 30.5173C32.3827 30.5173 32.7013 30.1926 32.7013 29.8108C32.7056 29.2494 32.0555 28.7032 31.0868 28.7032ZM36.6017 27.7599C36.7179 27.9203 36.7696 28.0845 36.7696 28.2335C36.7696 28.6459 36.4554 29.0317 36.4554 29.4594C36.4554 29.9444 36.873 30.3454 37.5015 30.3454C38.186 30.3454 38.6509 29.8565 38.6509 29.2837C38.6467 28.497 37.8502 27.8325 36.6017 27.7599ZM31.4871 26.977C32.2535 27.0648 32.4343 27.3016 32.4343 27.4926C32.4343 27.8172 32.1028 27.9203 31.7843 27.9203C31.5518 27.9203 31.2848 27.8745 31.0007 27.8745C30.6347 27.8745 30.2688 27.947 29.9674 28.2602C30.1827 28.2908 30.5013 28.4244 30.5013 28.7185C30.5013 29.574 27.8192 28.8675 27.8192 31.0672C27.8192 32.2359 29.1839 33.5038 31.2504 33.5038C32.318 33.5038 32.9983 33.1945 32.9983 32.8393C32.9983 32.5605 32.4343 32.7514 32.4343 32.5146C32.4343 32.4116 32.6324 32.2206 32.6324 32.0564C32.6324 31.9838 32.5678 31.8502 32.4343 31.8502C32.1329 31.8502 31.569 32.2779 30.4195 32.2779C29.5197 32.2779 28.6372 31.8196 28.6372 31.2009C28.6372 31.0672 28.7017 30.9947 28.8051 30.9947C28.9041 30.9947 29.0376 31.052 29.1538 31.052C29.2528 31.052 29.2701 30.9947 29.2701 30.8304C29.2701 30.6662 29.2701 30.2118 29.5886 30.2118C29.9029 30.2118 30.5056 31.2467 32.8002 31.2467C33.5666 31.2467 35.0476 31.1131 35.5986 30.67C35.5814 32.297 34.1478 34.4356 31.1514 34.4356C28.0387 34.4356 26.3727 32.2206 26.3727 30.1812C26.3727 27.9203 28.452 25.8695 31.302 25.8695C32.034 25.8695 32.6496 26.0909 32.6496 26.3698C32.6539 26.7555 31.5733 26.5187 31.4871 26.977ZM19.4371 11.8496C19.4371 11.5975 19.3724 11.5403 19.3036 11.5403C19.1357 11.5403 18.9549 11.7159 18.6879 12.1169C18.7224 12.6478 18.8214 12.8846 18.9893 12.8846C19.1701 12.8846 19.4371 12.369 19.4371 11.8496ZM17.1554 12.4568C17.3405 12.4568 17.5686 12.2811 18.0035 11.8534C18.0378 11.6625 18.0378 11.4829 18.0378 11.2614C18.0378 10.9636 17.9044 10.639 17.7064 10.639C17.2069 10.639 16.9573 11.8229 16.9573 12.1322C16.9529 12.3079 17.0563 12.4568 17.1554 12.4568ZM19.8676 13.7706C20.2852 13.7706 20.7502 12.3537 20.7502 11.4677C20.7502 11.2767 20.7157 11.0705 20.6166 11.0705C20.268 11.0705 19.6825 12.5332 19.6825 13.3314C19.6825 13.6369 19.7685 13.7706 19.8676 13.7706ZM15.7863 12.961C16.3545 12.961 17.0003 10.2456 17.0003 9.78725C17.0003 9.66889 16.9487 9.58109 16.8325 9.58109C16.3158 9.58109 15.6012 12.1666 15.6012 12.7433C15.6055 12.8425 15.6399 12.961 15.7863 12.961ZM17.603 14.0799C16.8884 14.0799 16.854 14.8475 16.854 16.3981C16.3201 15.3785 15.4375 14.2861 14.4043 14.2861C13.7026 14.2861 13.44 14.6986 13.44 15.4242C13.44 15.5732 13.4572 15.7948 13.4917 15.9284C13.5777 15.6763 13.8404 15.5732 14.1762 15.5732C14.8908 15.5732 15.7561 16.0582 16.3245 16.7266C15.6744 16.6234 15.0415 16.5204 14.5077 16.5204C14.1762 16.5204 13.8748 16.5509 13.6251 16.654C13.1429 16.8449 12.4928 17.4828 12.4928 18.4414C12.4928 18.5903 12.51 18.7507 12.5445 18.9264C13.1257 17.773 14.6755 17.2574 15.6744 17.2574C15.8724 17.2574 16.0231 17.2727 16.1393 17.288C15.6227 17.7005 15.5064 18.4261 15.472 18.9111C15.4548 19.1479 15.3558 19.1632 15.175 19.1632C15.175 19.6482 15.6055 20.3738 15.6055 20.7443C15.6055 20.8779 15.5237 20.9963 15.4375 21.023C15.4375 21.6722 16.1694 22.1458 16.1694 22.5583C16.1694 22.6614 16.135 22.7493 16.0876 22.7951C16.1393 23.0624 16.9357 23.5169 17.0391 23.7117C17.2069 24.021 17.3232 24.0516 17.405 24.0516C17.6891 24.0516 18.1369 23.7575 18.1369 23.4902C18.1369 23.4023 18.0551 23.2992 17.9863 23.2534C17.6676 23.0471 17.5041 22.6042 17.3706 22.3062C17.2543 22.3062 17.1037 22.2489 17.0563 22.1C16.9874 21.909 16.9573 21.214 16.8238 20.8741C16.6085 20.8283 16.5053 20.7557 16.5053 20.3585C16.5053 20.1676 16.6387 19.4114 16.6387 19.1479C16.5397 19.1479 16.4062 19.0868 16.4062 18.9111C16.4062 18.4376 16.9401 18.0709 17.0907 17.4637C18.0378 18.0823 18.2747 18.7163 18.2747 19.2815C18.2747 19.5756 18.223 19.8582 18.1584 20.1218C18.8602 19.8124 19.9063 19.3541 19.9063 18.4223C19.9063 17.8761 19.6222 17.2689 17.7408 17.0359C18.322 16.8449 19.0582 16.7419 19.6738 16.7419C20.7415 16.7419 21.3571 17.0359 21.4906 17.7004C21.7059 17.4063 21.8738 17.0665 21.8738 16.7572C21.8738 16.0315 21.1935 15.5617 20.3239 15.5617C19.3079 15.5617 18.4081 16.0315 17.4438 16.6081C17.8786 15.8099 18.1756 15.3402 18.7095 15.3402C18.7913 15.3402 18.8774 15.3555 18.9592 15.367C18.7525 14.7177 18.0035 14.0799 17.603 14.0799ZM6.98226 4.87976C6.98226 5.17383 5.71654 6.16679 5.26881 6.16679C5.10091 6.16679 5.05354 5.9873 5.05354 5.82689C5.05354 5.53282 5.20423 5.11654 5.38504 4.98288C5.6003 4.8072 6.0997 4.71935 6.48286 4.71935C6.71534 4.71935 6.98226 4.76136 6.98226 4.87976ZM45.6597 24.7313C46.4906 24.7313 47.1579 25.6899 47.1579 26.8127C47.1579 28.0081 46.525 29.3104 45.3929 30.1926C45.3756 28.1991 42.6289 28.8331 42.6289 27.3856C42.6289 26.767 43.1283 26.3507 43.7267 26.3507C44.2606 26.3507 44.6782 26.4843 44.9752 26.7517C44.6739 26.4996 44.5231 26.1445 44.5231 25.8045C44.5275 25.247 44.9279 24.7313 45.6597 24.7313ZM33.304 9.61925C33.1705 9.42829 32.6711 9.32521 32.4386 9.32521C31.7068 9.32521 31.2074 9.78345 31.1083 10.1959C31.0438 10.047 30.9921 9.87133 30.9921 9.69565C30.9921 9.04637 31.4915 8.24819 32.7056 8.24819C33.7732 8.24819 34.1865 8.74849 34.3372 8.74849C34.5051 8.74849 34.6687 8.59955 34.8021 8.59955C34.9872 8.59955 34.9872 8.85161 34.9872 9.02729C34.9872 9.61925 34.686 10.639 33.9368 11.0055C33.8034 10.7535 33.5364 10.4747 33.1059 10.2952C32.9897 10.2533 32.938 10.1616 32.938 10.0737C32.938 9.91717 33.1059 9.71093 33.304 9.61925ZM30.7898 10.7C31.2246 11.0705 31.6034 11.2309 32.0727 11.2309C32.2578 11.2309 32.4731 11.1851 32.5893 11.1851C32.74 11.1851 32.839 11.2462 32.839 11.3493C32.839 11.5135 32.6711 11.7771 32.4731 11.926C32.6711 11.9985 32.8906 12.0291 33.1231 12.0291C34.0702 12.0291 35.1552 11.4982 35.1552 10.1692C35.3533 10.406 35.4737 10.891 35.4737 11.1125C35.4737 12.7242 34.1391 13.3428 32.9079 13.3428C32.1072 13.3428 31.7068 13.1061 31.6077 13.1061C31.2935 13.1061 31.3063 13.6675 31.0911 13.6522C30.7079 13.5949 30.3592 12.8387 30.3592 12.0405C30.355 11.5708 30.4884 11.0667 30.7898 10.7ZM19.2175 6.39975C19.2175 6.91533 21.2969 9.44357 21.6972 9.44357C22.0288 9.44357 22.2784 8.92799 22.2784 8.48116C22.2784 8.36277 22.244 8.24437 22.1795 8.15653C21.8781 7.78608 19.7642 6.31191 19.2993 6.31191C19.252 6.31191 19.2175 6.35774 19.2175 6.39975ZM43.2446 5.1891C43.2446 4.14267 40.4161 3.87534 40.4161 3.63855C40.4161 3.4476 41.996 3.11916 42.8141 3.1077C41.5656 1.69082 39.7832 1.83976 39.7832 1.58771C39.7832 1.43876 41.1178 1.14469 42.3448 1.14469C43.378 1.14469 44.3423 1.35092 44.3423 2.046C44.3423 2.43172 43.9936 2.82891 43.9936 3.42086C43.9936 3.74549 44.1787 4.0281 44.6609 4.0281C45.1776 4.0281 45.2938 3.53926 45.2938 3.02368C45.2938 2.59594 45.2121 2.27132 45.2121 2.06509C45.2121 1.4464 45.6942 1.03012 46.3744 1.03012C46.9426 1.03012 47.0719 1.25162 47.9071 1.25162C47.4593 1.48841 47.2914 1.91615 47.2914 2.12238C47.2914 2.74488 47.7435 3.17262 47.7435 4.44056C47.7435 6.77402 45.2809 7.60276 42.263 7.60276C41.4278 7.60276 40.5495 7.54548 39.6842 7.42709C39.5507 7.41181 39.5163 7.38507 39.5163 7.3087C39.5163 7.11774 40.7002 7.01463 40.7002 6.06749C40.7002 5.69704 40.5667 5.34187 40.5667 5.21202C40.5667 5.13945 40.6356 5.09363 40.7002 5.09363C40.9499 5.09363 41.4493 5.95292 42.3792 5.95292C42.629 5.94528 43.2446 5.8689 43.2446 5.1891ZM46.0558 3.69966C46.0558 5.01343 44.9752 6.01785 43.0249 6.30046C43.2402 6.31574 43.4426 6.31574 43.6406 6.31574C45.9224 6.31574 46.7533 5.39916 46.7533 4.63151C46.7575 4.19996 46.4906 3.81805 46.0558 3.69966ZM44.4758 15.5732C44.4758 15.2638 43.5933 15.2333 43.5114 14.3625C43.4942 14.2289 43.4426 13.9921 43.2617 13.9921C42.9604 13.9921 43.1929 14.8056 42.8614 14.8056C42.0951 14.8056 41.8454 13.4765 41.5612 13.4765C41.4967 13.4765 41.4106 13.5224 41.4106 13.6981C41.4106 13.8623 41.445 13.9615 41.445 14.1563C41.445 14.3473 41.3933 14.4809 41.1953 14.4809C40.7433 14.4809 40.3472 13.5491 39.964 13.5491C39.8822 13.5491 39.7962 13.5949 39.7962 13.6675C39.7962 13.8432 40.1276 14.1678 40.1276 14.332C40.1276 14.6871 39.0427 14.4962 39.0427 14.7903C39.0427 14.9239 39.1934 14.966 39.3914 14.966C39.7401 14.966 40.2912 14.8323 40.571 14.8323C40.739 14.8323 40.9887 14.8628 40.9887 15.0538C40.9887 15.26 40.3902 15.5274 40.3902 15.7183C40.3902 15.8061 40.4893 15.852 40.571 15.852C41.0231 15.852 41.8196 15.1569 42.3835 15.1569C42.4825 15.1569 42.7322 15.2028 42.7322 15.3364C42.7322 15.5274 42.164 15.8673 42.164 16.146C42.164 16.2186 42.2157 16.3103 42.3146 16.3103C42.616 16.3103 43.0121 15.6152 43.5803 15.6152C43.7956 15.6152 44.1142 15.6916 44.2778 15.6916C44.4285 15.6916 44.4758 15.6191 44.4758 15.5732ZM32.5549 4.30307C32.5549 4.13886 31.9048 3.8295 31.9048 3.65383C31.9048 3.62328 31.9392 3.608 31.9866 3.608C32.1674 3.608 32.486 3.66529 32.7357 3.66529C32.9509 3.66529 32.9853 2.84037 33.1533 2.84037C33.2695 2.84037 33.4675 3.62328 33.6526 3.62328C33.8679 3.62328 34.2683 3.40177 34.4362 3.40177C34.4707 3.40177 34.5008 3.41705 34.5008 3.4476C34.5008 3.55071 34.0832 3.9479 34.0832 4.06629C34.0832 4.19996 35.0174 4.36418 35.0174 4.47875C35.0174 4.6277 34.0659 4.61242 34.0659 4.74227C34.0659 4.84539 34.4147 5.25784 34.4147 5.39152C34.4147 5.42207 34.3975 5.43734 34.3631 5.43734C34.2295 5.43734 33.713 5.23112 33.5622 5.23112C33.3814 5.23112 33.0801 5.83835 32.9294 5.83835C32.8777 5.83835 32.8476 5.77725 32.8476 5.70468L32.8132 5.11272C32.8132 5.05544 32.7787 4.99433 32.6969 4.99433C32.4988 4.99433 32.1157 4.97905 31.9995 4.97905C31.9177 4.97905 31.8832 4.96378 31.8832 4.93323C31.8876 4.82247 32.5549 4.40619 32.5549 4.30307ZM35.8009 7.11011C34.6343 7.11011 33.8722 6.59453 33.8722 6.32719C33.8722 6.19352 33.9713 6.10569 34.1047 6.10569C34.4707 6.10569 35.2714 6.60598 35.5384 6.60598C35.6029 6.60598 35.6546 6.57543 35.6546 6.48759C35.6546 6.22408 35.3704 5.77725 35.3704 5.55573C35.3704 5.49844 35.4221 5.45262 35.5211 5.45262C35.9689 5.45262 36.6362 5.61684 36.9849 5.61684C37.1011 5.61684 37.1355 5.55573 37.1355 5.49844C37.1355 5.17383 36.0549 4.53986 36.0549 4.34508C36.0549 4.16941 37.4025 3.90207 37.4025 3.61946C37.4025 3.32539 35.5728 3.53162 35.5728 3.24901C35.5728 3.04277 35.9215 2.68761 35.9215 2.5272C35.9215 2.45464 35.8569 2.42408 35.7407 2.42408C35.59 2.42408 34.7892 2.70288 34.4577 2.70288C34.2899 2.70288 34.0918 2.67232 34.0918 2.46609C34.0918 2.1262 34.7419 1.75575 35.7579 1.75575C37.4067 1.75575 38.3884 2.76017 38.3884 4.44438C38.384 6.57925 36.7007 7.11011 35.8009 7.11011ZM24.53 32.6636C24.53 32.7973 24.4784 32.9462 24.345 33.0913C24.1641 32.7973 23.6475 32.6484 23.415 32.6484C21.6972 32.6484 22.3473 34.8481 20.5177 34.8481C19.7513 34.8481 19.6825 34.7603 19.4026 34.7603C19.2864 34.7603 19.2175 34.8062 19.2175 34.894C19.2175 35.2797 19.8331 36.223 21.5466 36.223C23.2643 36.223 24.9089 35.2912 24.9089 34.1378C24.9089 33.9468 24.8572 33.7406 24.7583 33.5306C24.8228 33.4427 24.9907 33.3816 25.1414 33.3816C25.4083 33.3816 25.559 33.6489 25.8087 33.6489C26.0756 33.6489 26.2737 33.4732 26.2737 33.2365C26.2737 33.0456 26.1574 32.9118 25.9551 32.824C26.0885 32.7362 26.1876 32.5872 26.1876 32.4268C26.1876 32.1748 25.9895 31.938 25.6537 31.938C25.503 31.938 25.404 31.9838 25.2878 32.087C25.2533 31.8196 25.0897 31.5714 24.7711 31.5714C24.5215 31.5714 24.3407 31.7356 24.3407 31.9877C24.345 32.2168 24.53 32.4116 24.53 32.6636ZM20.0527 33.225C19.5533 33.225 18.8042 32.7514 18.8042 32.488C18.8042 32.2664 19.0367 32.1481 19.2218 32.1481C19.6394 32.1481 20.3885 32.6063 20.3885 32.992C20.3841 33.0913 20.3024 33.225 20.0527 33.225ZM15.4032 29.9139C16.7377 30.2079 17.4007 30.8457 17.5342 31.5981C17.6676 32.3238 17.8355 32.9156 18.1498 33.2098C18.5674 33.6222 19.3811 33.9927 20.0957 33.9927C20.6942 33.9927 21.1807 33.817 21.1807 33.3281C21.1807 32.7935 20.3626 31.5981 19.1658 31.5981C19.0496 31.5981 18.8989 31.6134 18.731 31.6134C18.5804 31.6134 18.3651 31.5828 18.2316 31.4797C17.9647 31.2735 17.8829 30.166 17.3835 29.5014C16.8368 28.7643 16.2341 28.5543 15.4204 28.5543C14.8391 28.5543 14.189 28.8331 14.189 29.2494C14.189 29.5014 14.3398 29.6771 15.4032 29.9139ZM23.7638 28.1113C23.7638 27.4467 22.2139 27.4315 22.2139 26.427C22.2139 26.175 22.3947 25.7473 22.7649 25.2889C22.9157 26.0566 23.2643 26.4576 24.0134 26.7059C25.4944 27.1909 25.6968 27.9317 25.6968 28.7147C25.6968 30.0437 24.6463 31.6973 21.9512 31.6973C19.7857 31.6973 18.2403 29.9826 18.2403 28.5352C18.2403 28.1342 18.3565 27.695 18.6406 27.695C18.8903 27.695 18.9721 27.8706 19.1744 28.0502C19.9236 28.7147 20.7372 28.8941 21.9212 28.8941C22.9802 28.8941 23.7638 28.5123 23.7638 28.1113ZM23.8283 29.1768C23.2471 29.383 23.0319 29.3677 23.0319 29.8833C23.0319 30.0743 22.9802 30.3264 22.9802 30.46C22.9802 30.6395 23.0146 30.7426 23.2471 30.7426C23.8455 30.7426 24.7927 29.8414 24.7927 29.0737C24.7927 28.8675 24.6592 28.7796 24.5128 28.7796C24.3794 28.7796 24.2287 29.0126 23.8283 29.1768ZM18.52 21.7143C18.52 20.771 21.0515 20.2669 21.0515 19.102C21.0515 18.9111 20.9697 18.5712 20.8191 18.3191C21.7015 18.7469 22.3516 19.4725 22.3516 20.0606C22.3516 21.0804 21.1548 21.5539 21.1548 22.1879C21.1548 22.925 22.4377 23.0433 22.4377 23.9599C22.4377 24.7123 21.2237 25.5831 21.2237 26.5607C21.2237 27.3131 21.8221 27.9356 22.7391 28.0387C22.4377 28.096 22.1708 28.1418 21.891 28.1418C20.212 28.1418 18.477 26.9159 18.477 25.4532C18.477 24.7275 18.8257 24.0936 19.3596 23.6353C19.8245 23.9904 20.2937 24.2273 20.5909 24.2273C20.8578 24.2273 20.974 24.1089 20.974 23.9332C20.9654 23.3871 18.52 22.8829 18.52 21.7143Z" fill="#474646"/>
<path d="M21.9516 53.3134C22.4209 53.3134 23.2302 53.1798 23.8675 52.2708C23.5015 51.5566 23.2432 50.1054 23.2087 49.5784C23.0194 46.8821 24.1946 44.3424 25.4776 44.2737C26.4161 44.224 27.1694 45.0146 27.2556 46.2901C27.4881 49.6509 26.2223 51.0564 25.5938 52.267C25.7014 52.7368 26.5969 53.535 27.445 53.535C27.7593 53.535 28.1338 53.3974 28.2285 53.2829C28.1639 53.0881 28.1037 52.8398 28.1037 52.4771C28.1037 50.5293 29.5157 48.8872 30.7384 48.8872C31.7114 48.8872 32.2754 50.029 32.2754 50.7814C32.2754 51.6712 31.4272 52.3969 30.1745 53.0919C30.394 53.2867 30.8031 53.4242 31.1475 53.4242C32.9341 53.4242 33.8769 51.5032 34.5657 49.7502C34.6906 49.418 34.9101 48.9444 35.3492 48.9444C36.1026 48.9444 36.417 53.344 37.6697 53.344C38.2036 53.344 38.6427 52.3701 38.6427 51.6216C38.6427 51.064 38.4232 51.0105 38.4232 50.2009C38.4232 49.311 38.957 48.5587 39.6802 48.5587C40.1194 48.5587 40.2743 48.9482 40.2743 49.4218C40.2743 51.2053 38.8321 54.5164 36.6968 54.5164C35.0952 54.5164 35.2201 52.0646 34.6561 52.0646C34.0276 52.0646 33.1494 54.5432 30.0453 54.5432C29.5416 54.5432 29.0078 54.3217 28.5687 53.871C27.8152 54.3179 27.1867 54.5126 26.4634 54.5126C25.3053 54.5126 24.8016 53.4548 24.3324 53.4548C23.7684 53.4548 23.1398 54.5432 21.2585 54.5432C19.7517 54.5432 19.502 52.7635 18.9681 52.7635C18.4946 52.7635 17.7756 54.5432 16.9921 54.5432C15.6705 54.5432 15.3906 51.4536 14.2282 51.4536C13.3155 51.4536 10.444 54.5891 9.66042 54.5202C9.34615 54.4897 9.21699 54.2835 9.24713 54.0047C9.29018 53.619 9.66473 52.5878 9.81541 52.099C10.0694 51.2549 10.3019 50.3231 10.431 50.029C10.5602 49.7311 10.9089 49.5173 11.1887 49.5402C11.3308 49.5516 11.3695 49.7846 11.4169 49.9794C11.5762 50.6706 11.7958 51.3696 12.0455 51.3696C12.4846 51.3696 13.9441 48.891 14.7879 48.891C15.8254 48.891 15.9502 52.7902 17.3623 52.7902C17.8316 52.7902 18.1804 52.2899 18.4903 51.6789C18.5204 50.6478 18.8347 49.1735 19.7775 49.1735C20.4362 49.1735 20.7505 50.4797 20.2812 51.6216C20.2898 52.9812 21.2929 53.3134 21.9516 53.3134ZM45.363 50.7012C45.363 50.0061 44.6441 49.0284 43.5764 49.0284C42.1643 49.0284 40.7867 50.3919 40.7867 52.2861C40.7867 53.9818 41.9748 54.5432 43.1674 54.5432C45.2382 54.5432 46.4953 53.0385 47.154 51.7858C47.4683 52.6222 47.6534 54.5432 48.4413 54.5432C48.7555 54.5432 48.9751 54.4019 49.3539 53.6495C50.2924 51.7858 51.2008 49.6433 52.4579 49.6433C52.9272 49.6433 52.6474 50.3957 53.7753 50.3957C54.3092 50.3957 54.6837 50.0061 54.6837 49.5593C54.6837 48.9176 54.025 48.4173 53.0219 48.4173C50.0729 48.4173 49.4486 52.3434 48.9751 52.3434C48.1916 52.3434 48.4413 49.1965 47.8772 49.1965C47.3735 49.1965 47.1239 49.7273 47.0593 49.9756C46.6503 51.423 45.4922 53.512 43.7314 53.512C43.3224 53.512 42.6034 53.3746 42.6034 53.0117C42.5991 52.6184 45.363 52.5649 45.363 50.7012ZM26.2396 47.0463C26.1836 46.2672 25.9726 45.9159 25.5034 45.9464C24.8792 45.9808 24.5907 47.7223 24.7156 49.5554C24.7973 50.7508 24.9954 50.9341 25.1847 50.9227C25.5293 50.9036 26.3601 48.7687 26.2396 47.0463ZM21.1379 45.4118C21.1079 44.9649 20.6988 44.6594 20.1649 44.6594C19.5709 44.6594 19.0026 45.2169 19.0672 45.9121C19.0672 46.3283 19.4116 46.7484 20.01 46.7484C20.6988 46.7446 21.2025 46.0534 21.1379 45.4118ZM30.8977 51.0907C30.8977 50.6172 30.6136 50.2276 30.2692 50.2276C29.985 50.2276 29.3264 50.5064 29.3264 51.3962C29.3264 52.0914 29.6062 52.4274 29.7354 52.5687C30.6437 52.3129 30.8977 51.6445 30.8977 51.0907ZM43.1631 50.1436C43.8218 50.1436 44.0112 50.8386 43.8563 51.2549C43.697 51.6712 43.1373 52.1448 42.2547 52.2861C42.0653 51.866 41.9706 50.1436 43.1631 50.1436ZM0.00827127 50.5904C-0.0218648 49.4486 0.0384074 48.3066 0.576551 46.6911C0.856386 45.8281 1.11039 45.5225 1.98864 45.3545C2.67746 45.2437 2.61719 45.8815 2.46221 46.6339C2.11779 48.3028 1.9585 49.1086 2.08335 51.0029C2.2082 53.0079 3.24575 53.787 4.3737 53.787C6.06992 53.8175 6.82332 52.5649 7.1333 50.7546C7.38299 49.3072 7.19357 48.6083 7.03859 48.1654C6.94387 47.9171 6.69417 47.3557 6.59945 46.9432C6.47461 45.8853 7.03859 45.385 7.51215 45.2437C8.07612 45.1024 8.29569 45.3545 8.51526 45.9426C8.79939 46.8324 8.82953 47.9973 8.73481 49.67C8.60997 51.9538 7.32272 54.7112 4.12399 54.654C1.35578 54.5966 0.133121 53.0079 0.00827127 50.5904Z" fill="#474646"/>
</g>
<defs>
<clipPath id="clip0_1_2251">
<rect width="54.7622" height="54.7622" fill="white" transform="translate(0 0.121094)"/>
</clipPath>
</defs>
</svg>
