<svg width="54" height="54" viewBox="0 0 54 54" fill="none" xmlns="http://www.w3.org/2000/svg">
<path d="M50.0268 9.94551L27.2744 2.21703C27.0476 2.14143 26.8003 2.14251 26.5724 2.22027L3.96477 10.0881C3.48525 10.2544 3.18609 10.7339 3.24873 11.2383L6.82137 40.5311C6.86349 40.8778 7.06977 41.1834 7.37757 41.3498L26.4363 51.7091C26.5962 51.7966 26.7744 51.8398 26.9515 51.8398C27.1297 51.8398 27.309 51.7955 27.4699 51.707L46.6269 41.2072C46.9315 41.0398 47.1389 40.7352 47.1799 40.3907L50.7515 11.099C50.8141 10.5924 50.5117 10.1097 50.0268 9.94551ZM36.2481 37.7998L33.2436 31.3274H20.7566L17.7521 37.7998H12.9601L27.0001 7.55979L41.0401 37.7998H36.2481Z" fill="white"/>
<path d="M31.2336 26.9998L27 17.8198L22.7664 26.9998H31.2336Z" fill="white"/>
</svg>
