<svg width="119" height="24" viewBox="0 0 119 24" fill="none" xmlns="http://www.w3.org/2000/svg">
<path d="M0 23.2646V21.0806H1.37329C2.05995 21.0806 3.43735 20.9572 3.43735 19.5024V6.40194C3.43735 5.61468 3.36745 3.73178 1.64877 3.73178H0.0698983L1.85847 0.941895H107.623V3.73178H10.3121C9.41982 3.73178 8.25211 3.91318 8.25211 5.49133V9.6163C8.45769 10.1024 9.28414 10.2838 9.6953 10.2838C10.1065 10.2838 11.5497 10.2222 11.5497 8.22317H13.6137V14.9566H11.5497C11.5497 14.3508 10.789 13.3313 9.76109 13.2587C8.93876 13.1971 8.248 13.4401 8.248 14.4124V19.5097C8.248 20.0575 9.00455 21.0878 10.7931 21.0878H12.0308V23.2719L0 23.2646Z" fill="#474646"/>
<path d="M61.0337 6.888C61.0337 7.37414 61.7203 7.86029 62.1357 7.98001C62.6167 7.67526 65.1618 6.40186 67.156 6.40186C69.1501 6.40186 70.1821 7.31247 70.1821 8.7056V15.3774H65.3716V10.2221C65.3716 9.55453 65.166 9.06838 64.4793 9.00671C63.7926 8.94503 62.0041 10.2221 61.523 10.8279V20.0502C61.523 20.8991 62.4851 21.505 63.3116 21.505V23.2645H54.9238V21.4433C55.7503 21.4433 56.6424 21.2002 56.7123 20.1082V9.85927C56.7123 9.55452 56.1614 8.7056 54.9238 8.7056V6.88437L61.0337 6.888Z" fill="#474646"/>
<path d="M118.588 6.8877H110.201V8.70891C111.438 8.70891 111.989 9.55786 111.989 9.86261V20.1152C111.919 21.2072 111.027 21.4502 110.201 21.4502V23.2715H118.588V21.5119C117.762 21.5119 116.8 20.9061 116.8 20.0571V9.97869C116.8 9.24948 117.692 8.70529 118.588 8.70529V6.8877Z" fill="#474646"/>
<path d="M42.4738 6.888C42.4738 7.37414 43.1604 7.86029 43.5756 7.98001C44.0567 7.67526 46.6019 6.40186 48.5961 6.40186C50.5902 6.40186 51.6222 7.31247 51.6222 8.7056V15.3774H46.8115V10.2221C46.8115 9.55453 46.6059 9.06838 45.9194 9.00671C45.2327 8.94503 43.444 10.2221 42.9631 10.8279V20.0502C42.9631 20.8991 43.9251 21.505 44.7516 21.505V23.2645H36.3638V21.4433C37.1903 21.4433 38.0825 21.2002 38.1524 20.1082V9.85927C38.1524 9.55452 37.6015 8.7056 36.3638 8.7056V6.88437L42.4738 6.888Z" fill="#474646"/>
<path d="M98.24 6.888C98.24 7.37414 98.9267 7.86029 99.3419 7.98001C99.823 7.67526 102.364 6.40186 104.358 6.40186C106.352 6.40186 107.384 7.31247 107.384 8.7056V15.3774H102.574V10.2221C102.574 9.55453 102.368 9.06838 101.681 9.00671C100.995 8.94503 99.2063 10.2221 98.7252 10.8279V20.0502C98.7252 20.8991 99.6872 21.505 100.514 21.505V23.2645H92.126V21.4433C92.9524 21.4433 93.8446 21.2002 93.9145 20.1082V9.85927C93.9145 9.55452 93.3636 8.7056 92.126 8.7056V6.88437L98.24 6.888Z" fill="#474646"/>
<path d="M32.7246 18.1709H27.9139V19.8071C27.9139 20.4746 27.7783 21.8714 25.5087 21.8714C23.2389 21.8714 22.5524 20.5363 22.5524 19.5676V16.1102C22.5524 15.8055 22.8278 15.381 23.3089 15.381H32.7287V10.9513C32.7287 8.94867 32.2477 8.3428 31.2855 7.49386C30.3234 6.64493 26.9559 6.40186 25.4428 6.40186C21.5944 6.40186 20.3568 6.888 19.2548 7.67526C18.157 8.46252 17.7417 10.1024 17.7417 11.3141V18.1673C17.7417 19.9885 18.1529 21.2619 19.4604 22.412C20.7679 23.562 24.752 23.5656 25.5785 23.5656C26.405 23.5656 29.1515 23.6273 31.1457 22.3539C33.1358 21.0805 32.7246 18.1709 32.7246 18.1709ZM22.5482 10.6465C22.5482 9.67426 22.8936 8.21945 25.2989 8.21945C27.7043 8.21945 27.9098 9.79761 27.9098 10.6465V12.8306C27.9098 13.1934 27.5644 13.5598 27.0834 13.5598H23.3705C22.9593 13.5598 22.5441 13.255 22.5441 12.8922L22.5482 10.6465Z" fill="#474646"/>
<path d="M87.8579 20.0498V10.951C87.8579 9.55421 87.788 8.09941 86.1393 7.06907C84.4905 6.03874 81.8096 6.09679 80.7776 6.09679C79.7456 6.09679 76.3083 6.09679 74.7293 7.67494C73.1505 9.25309 73.4219 10.7696 73.4219 11.3754H77.9241C77.9241 11.3754 78.2325 9.31477 78.8534 8.76695C79.4783 8.21913 81.123 7.61327 82.3935 8.58555C82.8622 8.94472 83.0473 9.40547 83.0473 9.92063V12.5291C83.0473 12.7722 82.7718 13.135 82.4306 13.135C82.4306 13.135 76.1725 13.2547 75.0748 13.9839C73.9728 14.7095 73.0107 15.1957 73.0107 17.8658C73.0107 20.536 73.7672 21.5663 74.6595 22.1141C75.5517 22.6583 75.9669 23.2678 80.0211 23.2678H89.6465V21.5083C88.8201 21.5046 87.8579 20.8988 87.8579 20.0498ZM83.0473 21.0802C83.0473 21.2325 82.7718 21.443 82.5662 21.443H80.1938C78.508 21.443 78.0269 20.1696 78.0269 19.3787V17.0423C78.0269 14.7676 80.7078 14.8292 81.7726 14.8292C82.8417 14.8292 83.0473 15.6165 83.0473 16.1317V21.0802Z" fill="#474646"/>
<path d="M114.083 3.70236C116.488 3.70236 118.44 3.05659 118.44 2.26207C118.44 1.46755 116.488 0.821777 114.083 0.821777C111.677 0.821777 109.724 1.46755 109.724 2.26207C109.724 3.05659 111.673 3.70236 114.083 3.70236Z" fill="#474646"/>
</svg>
