<svg width="37" height="48" viewBox="0 0 37 48" fill="none" xmlns="http://www.w3.org/2000/svg">
<path d="M17.2402 41.9951L36.2073 21.9072H22.4158L10.3467 34.6913L17.2402 41.9951Z" fill="#201F1F"/>
<path d="M0 23.7358L22.4159 0H36.2073L6.89786 31.0398L0 23.7358Z" fill="#201F1F"/>
<path d="M22.4158 47.4712H36.2073L24.1381 34.6914L17.2402 41.9954L22.4158 47.4712Z" fill="#201F1F"/>
<path d="M24.1382 34.6914L17.2402 41.9954L27.4707 38.2428L24.1382 34.6914Z" fill="#201F1F"/>
<path d="M10.3467 34.6868L17.2446 27.3828L24.1426 34.6868L17.2446 41.9954L10.3467 34.6868Z" fill="#201F1F"/>
<path d="M36.2073 21.9073L24.1382 34.6916L36.2073 47.4758H22.4159L17.2403 41.9956L10.3425 34.6916L22.4159 21.9073H36.2073ZM22.4159 0L0 23.7356L6.89786 31.0396L36.2073 0H22.4159Z" fill="url(#paint0_radial)"/>
<defs>
<radialGradient id="paint0_radial" cx="0" cy="0" r="1" gradientUnits="userSpaceOnUse" gradientTransform="translate(-988.942 -427.022) scale(2.12928 2.25465)">
<stop stop-color="white" stop-opacity="0.1"/>
<stop offset="1" stop-color="white" stop-opacity="0"/>
</radialGradient>
</defs>
</svg>
