<svg width="62" height="55" viewBox="0 0 62 55" fill="none" xmlns="http://www.w3.org/2000/svg">
<g clip-path="url(#clip0)">
<path d="M30.7811 44.3752C30.5792 44.3752 30.3788 44.3274 30.2017 44.2357L28.3579 43.252C28.0826 43.1133 28.2169 43.0642 28.3078 43.0359C28.675 42.92 28.7495 42.8939 29.1415 42.6933C29.1826 42.6722 29.2365 42.6797 29.2787 42.702L30.6952 43.4594C30.7463 43.4844 30.819 43.4844 30.8664 43.4594L36.3896 40.5868C36.4407 40.5607 36.4738 40.507 36.4738 40.4523V34.7095C36.4738 34.6523 36.4407 34.6012 36.3884 34.5725L30.8675 31.7024C30.8164 31.675 30.7485 31.675 30.6974 31.7024L25.1776 34.5725C25.1241 34.5999 25.0901 34.6535 25.0901 34.7083V40.451C25.0901 40.5059 25.1232 40.5582 25.1758 40.5843L26.6883 41.3717C27.5095 41.7417 28.0113 41.3055 28.0113 40.8672V35.1992C28.0113 35.1182 28.0819 35.0559 28.1717 35.0559H28.8713C28.9584 35.0559 29.0303 35.1182 29.0303 35.1992V40.8697C29.0303 41.8562 28.433 42.423 27.3947 42.423C27.0754 42.423 26.8237 42.423 26.1215 42.1115L24.6726 41.3592C24.3145 41.1723 24.0933 40.8235 24.0933 40.451V34.7083C24.0933 34.3345 24.3145 33.9858 24.6726 33.8014L30.2012 30.9275C30.551 30.7494 31.0155 30.7494 31.3625 30.9275L36.8842 33.8027C37.241 33.9883 37.4636 34.3358 37.4636 34.7095V40.4523C37.4636 40.8248 37.241 41.1723 36.8842 41.3592L31.3625 44.233C31.1855 44.3252 30.9851 44.3725 30.7805 44.3725" fill="white"/>
<path fill-rule="evenodd" clip-rule="evenodd" d="M22.3183 32.1946C22.4953 32.2864 22.6957 32.3342 22.8975 32.3342L22.897 32.3316C23.1016 32.3316 23.3021 32.2842 23.4791 32.1919L29.0008 29.3182C29.3575 29.1313 29.58 28.7837 29.58 28.4112V22.6685C29.58 22.2948 29.3575 21.9472 29.0008 21.7616L23.4791 18.8865C23.132 18.7084 22.6675 18.7084 22.3178 18.8865L16.7891 21.7604C16.431 21.9448 16.2097 22.2936 16.2097 22.6673V28.4101C16.2097 28.7824 16.431 29.1313 16.7891 29.3182L18.2379 30.0706C18.4182 30.1504 18.5688 30.2099 18.6984 30.2541L21.446 31.7394L21.4606 31.7371L22.3183 32.1946Z" fill="white"/>
<path d="M32.4869 40.4178C30.0704 40.4178 29.5637 39.4182 29.5637 38.5798C29.5637 38.5002 29.635 38.4365 29.7237 38.4365H30.437C30.5158 38.4365 30.5821 38.4883 30.5947 38.5584C30.7025 39.2134 31.0232 39.5438 32.4844 39.5438C33.6485 39.5438 34.1435 39.3068 34.1435 38.7507C34.1435 38.4305 34.0026 38.1925 32.1942 38.033C30.6817 37.8985 29.7472 37.5983 29.7472 36.5083C29.7472 35.5043 30.6872 34.9064 32.2619 34.9064C34.0302 34.9064 34.9067 35.4594 35.0172 36.6479C35.0214 36.689 35.0049 36.7288 34.9744 36.7588C34.944 36.7874 34.9012 36.8048 34.857 36.8048H34.1393C34.0647 36.8048 33.9998 36.7575 33.9845 36.6927C33.8117 36.0038 33.3942 35.7833 32.2591 35.7833C30.9886 35.7833 30.8407 36.1819 30.8407 36.4809C30.8407 36.8434 31.0148 36.9493 32.7292 37.1537C34.4269 37.3567 35.233 37.6432 35.233 38.7183C35.233 39.802 34.2293 40.4237 32.479 40.4237L32.4869 40.4178ZM39.2063 34.3333H39.3916C39.5436 34.3333 39.5727 34.2374 39.5727 34.1814C39.5727 34.0344 39.4607 34.0344 39.3984 34.0344H39.2077L39.2063 34.3333ZM38.981 33.8624H39.3916C39.5325 33.8624 39.8091 33.8624 39.8091 34.1465C39.8091 34.3445 39.668 34.3857 39.5837 34.4105C39.7482 34.4205 39.7592 34.5177 39.7815 34.6548C39.7924 34.7407 39.8104 34.8889 39.8436 34.9388H39.5906C39.5837 34.8889 39.545 34.6149 39.545 34.5999C39.5284 34.5389 39.5049 34.509 39.4206 34.509H39.2119V34.94H38.981V33.8624ZM38.4874 34.3982C38.4874 34.844 38.8869 35.2053 39.3777 35.2053C39.8726 35.2053 40.2723 34.8367 40.2723 34.3982C40.2723 33.9509 39.8671 33.5959 39.3763 33.5959C38.8924 33.5959 38.486 33.9459 38.486 34.3969L38.4874 34.3982ZM40.4436 34.4007C40.4436 34.9288 39.964 35.3598 39.3791 35.3598C38.7985 35.3598 38.3145 34.9338 38.3145 34.4007C38.3145 33.8574 38.8095 33.4414 39.3791 33.4414C39.9529 33.4414 40.4423 33.8587 40.4423 34.4007" fill="white"/>
<path fill-rule="evenodd" clip-rule="evenodd" d="M13.6772 21.9049C13.6772 21.6757 13.5432 21.4652 13.3236 21.3512L7.46785 18.3154C7.36899 18.2631 7.25825 18.2357 7.146 18.2319H7.08544C6.97319 18.2357 6.86245 18.2631 6.76194 18.3154L0.906446 21.3512C0.688285 21.4658 0.552246 21.6763 0.552246 21.9055L0.565103 30.0824C0.565103 30.1958 0.630081 30.3017 0.740682 30.3577C0.848518 30.4174 0.984004 30.4174 1.09184 30.3577L4.573 28.5614C4.79282 28.4436 4.92693 28.2353 4.92693 28.0083V24.1883C4.92693 23.9603 5.06103 23.7498 5.28016 23.6364L6.7622 22.8674C6.87226 22.81 6.99309 22.7816 7.11613 22.7816C7.23724 22.7816 7.36083 22.8098 7.46785 22.8672L8.94921 23.6361C9.16848 23.7494 9.30312 23.9599 9.30312 24.1879V28.0077C9.30312 28.2344 9.43903 28.4437 9.65774 28.5608L13.1367 30.3558C13.2459 30.4144 13.3818 30.4144 13.4906 30.3558C13.5979 30.2998 13.6659 30.1939 13.6659 30.0806L13.6772 21.9049ZM41.3092 26.1623C41.3092 26.2192 41.2756 26.2719 41.2207 26.3001L39.2094 27.3447C39.1548 27.3729 39.0874 27.3729 39.0329 27.3447L37.0214 26.3001C36.966 26.2718 36.933 26.2191 36.933 26.1623V24.0699C36.933 24.0129 36.966 23.9603 37.02 23.9317L39.0301 22.8853C39.0855 22.8566 39.1531 22.8566 39.2085 22.8853L41.22 23.9317C41.2753 23.9603 41.3086 24.0129 41.3086 24.0699L41.3092 26.1623ZM41.8526 10.6653C41.7428 10.6103 41.6092 10.6118 41.5008 10.6687C41.3931 10.726 41.3263 10.8306 41.3263 10.944V19.0411C41.3263 19.1209 41.2794 19.1944 41.2028 19.2342C41.1268 19.2741 41.0321 19.2741 40.9554 19.2342L39.4884 18.473C39.27 18.3591 39.0009 18.3591 38.7817 18.473L32.924 21.5191C32.7051 21.6325 32.5701 21.843 32.5701 22.0697V28.1637C32.5701 28.3917 32.7051 28.6009 32.924 28.7156L38.7817 31.7638C39.0004 31.8772 39.2698 31.8772 39.4891 31.7638L45.3468 28.7143C45.5653 28.5997 45.7008 28.3904 45.7008 28.1626V12.9748C45.7008 12.7436 45.5611 12.5309 45.3372 12.4179L41.8526 10.6653ZM61.3589 24.0149C61.5764 23.9011 61.7104 23.6908 61.7104 23.4641V21.9871C61.7104 21.7599 61.5763 21.5503 61.3583 21.4359L55.5379 18.3914C55.3181 18.2768 55.0485 18.2768 54.8287 18.3914L48.9724 21.4371C48.7525 21.5518 48.6185 21.761 48.6185 21.989V28.0806C48.6185 28.3097 48.7553 28.5216 48.9752 28.6349L54.7941 31.6233C55.0084 31.7342 55.2711 31.7354 55.4881 31.6271L59.008 29.8644C59.1185 29.8083 59.1892 29.7024 59.1892 29.5878C59.1892 29.4732 59.1213 29.3661 59.0108 29.3101L53.1185 26.2631C53.0079 26.2069 52.9402 26.1011 52.9402 25.9877V24.0768C52.9402 23.9627 53.0065 23.8576 53.1171 23.8008L54.9503 22.8478C55.0596 22.7905 55.1937 22.7905 55.3028 22.8478L57.1374 23.8008C57.2467 23.8568 57.3144 23.9627 57.3144 24.0761V25.5784C57.3144 25.6918 57.3822 25.7977 57.4915 25.8549C57.6006 25.9109 57.7361 25.9109 57.8453 25.8537L61.3589 24.0149Z" fill="white"/>
<path fill-rule="evenodd" clip-rule="evenodd" d="M55.0981 23.7294C55.1396 23.7074 55.1916 23.7074 55.2336 23.7294L56.3576 24.3136C56.3996 24.3356 56.4253 24.376 56.4253 24.4195V25.5893C56.4253 25.6329 56.3996 25.6733 56.3576 25.6951L55.2336 26.2794C55.1916 26.3015 55.1396 26.3015 55.0981 26.2794L53.9748 25.6951C53.932 25.6733 53.9058 25.6329 53.9058 25.5893V24.4195C53.9058 24.376 53.9306 24.3356 53.9735 24.3136L55.0981 23.7294Z" fill="white"/>
</g>
<defs>
<clipPath id="clip0">
<rect width="61.1583" height="55" fill="white" transform="translate(0.552246)"/>
</clipPath>
</defs>
</svg>
