<svg width="56" height="50" viewBox="0 0 56 50" fill="none" xmlns="http://www.w3.org/2000/svg">
<path d="M54.5783 21.3464C54.5783 18.1712 50.0784 15.1622 43.1793 13.2963C44.7714 7.08296 44.0638 2.13953 40.9458 0.556868C40.2271 0.185623 39.387 0.00977377 38.4693 0.00977377V2.18837C38.9779 2.18837 39.387 2.2763 39.7296 2.44237C41.2334 3.2044 41.8856 6.10593 41.377 9.83794C41.2554 10.7563 41.0564 11.7234 40.8132 12.7101C38.6462 12.2411 36.2801 11.8797 33.7923 11.6452C32.2998 9.83794 30.7519 8.19661 29.1929 6.76054C32.7973 3.80033 36.1806 2.17861 38.4804 2.17861V0C35.4398 0 31.4595 1.91483 27.4351 5.23646C23.4105 1.93436 19.4302 0.0390795 16.3898 0.0390795V2.21767C18.6783 2.21767 22.0727 3.82965 25.6771 6.77032C24.1292 8.2064 22.5813 9.83794 21.1109 11.6452C18.6121 11.8797 16.246 12.2411 14.0789 12.7199C13.8247 11.743 13.6367 10.7953 13.504 9.88673C12.9844 6.15479 13.6257 3.25325 15.1182 2.48145C15.4499 2.3056 15.8812 2.22745 16.3898 2.22745V0.0488526C15.461 0.0488526 14.6207 0.224702 13.891 0.595934C10.7842 2.17859 10.0875 7.11218 11.6908 13.3061C4.81373 15.1818 0.335938 18.181 0.335938 21.3464C0.335938 24.5215 4.83587 27.5304 11.735 29.3964C10.1429 35.6098 10.8505 40.5532 13.9683 42.1358C14.687 42.507 15.5273 42.6829 16.456 42.6829C19.4965 42.6829 23.4768 40.7681 27.5014 37.4465C31.5259 40.7485 35.5062 42.6439 38.5467 42.6439C39.4754 42.6439 40.3157 42.468 41.0453 42.0968C44.1522 40.5141 44.8487 35.5806 43.2456 29.3866C50.1005 27.5208 54.5783 24.5117 54.5783 21.3464ZM40.183 14.8301C39.7739 16.0903 39.2653 17.3897 38.6903 18.689C38.2371 17.9075 37.7617 17.126 37.242 16.3444C36.7335 15.5628 36.1917 14.8008 35.6498 14.0584C37.2199 14.2635 38.7346 14.5175 40.183 14.8301ZM35.1191 25.2346C34.2568 26.5535 33.3723 27.804 32.4547 28.9666C30.8073 29.0936 29.1377 29.1619 27.4571 29.1619C25.7877 29.1619 24.1181 29.0936 22.4818 28.9764C21.5641 27.8138 20.6686 26.5731 19.8061 25.2639C18.9659 23.9842 18.203 22.6847 17.5064 21.3756C18.1919 20.0666 18.9659 18.7575 19.795 17.4776C20.6575 16.1587 21.5419 14.9083 22.4596 13.7457C24.107 13.6186 25.7766 13.5502 27.4571 13.5502C29.1266 13.5502 30.7962 13.6186 32.4325 13.7359C33.3502 14.8985 34.2457 16.1393 35.1082 17.4484C35.9483 18.7281 36.7113 20.0275 37.4078 21.3366C36.7113 22.6457 35.9483 23.9548 35.1191 25.2346ZM38.6903 23.9646C39.2875 25.2737 39.7961 26.5829 40.2162 27.8528C38.7678 28.1655 37.242 28.4293 35.6609 28.6344C36.2027 27.8822 36.7445 27.1104 37.2531 26.319C37.7617 25.5374 38.2371 24.7462 38.6903 23.9646ZM27.4792 34.3886C26.451 33.4507 25.4227 32.4054 24.4055 31.2624C25.4007 31.3014 26.4179 31.3308 27.4461 31.3308C28.4853 31.3308 29.5136 31.3112 30.5197 31.2624C29.5246 32.4054 28.4964 33.4507 27.4792 34.3886ZM19.2534 28.6344C17.6833 28.4293 16.1686 28.1752 14.7202 27.8626C15.1293 26.6023 15.6379 25.303 16.2129 24.0036C16.6661 24.7852 17.1415 25.5668 17.6612 26.3484C18.1808 27.13 18.7116 27.892 19.2534 28.6344ZM27.424 8.30413C28.4522 9.24189 29.4805 10.2873 30.4977 11.4303C29.5025 11.3912 28.4853 11.362 27.4571 11.362C26.4179 11.362 25.3896 11.3815 24.3835 11.4303C25.3786 10.2873 26.4068 9.24189 27.424 8.30413ZM19.2423 14.0584C18.7005 14.8106 18.1587 15.5824 17.6501 16.3737C17.1415 17.1552 16.6661 17.9368 16.2129 18.7184C15.6157 17.4092 15.1071 16.1001 14.687 14.8301C16.1354 14.5273 17.6612 14.2635 19.2423 14.0584ZM9.23631 26.2898C5.32232 24.8146 2.79045 22.8802 2.79045 21.3464C2.79045 19.8126 5.32232 17.8684 9.23631 16.403C10.1872 16.0415 11.2264 15.7191 12.2989 15.4163C12.9292 17.3311 13.7584 19.324 14.7865 21.366C13.7693 23.3979 12.9511 25.3811 12.3321 27.2863C11.2374 26.9834 10.1981 26.6512 9.23631 26.2898ZM15.1847 40.2504C13.6809 39.4884 13.0287 36.5869 13.5372 32.8548C13.6589 31.9365 13.8579 30.9694 14.101 29.9825C16.2681 30.4515 18.6342 30.8131 21.1218 31.0475C22.6145 32.8548 24.1624 34.4961 25.7212 35.9322C22.117 38.8923 18.7337 40.5141 16.4339 40.5141C15.9364 40.5044 15.5162 40.4165 15.1847 40.2504ZM41.4103 32.806C41.9299 36.5379 41.2886 39.4394 39.7961 40.2112C39.4643 40.3871 39.0331 40.4653 38.5245 40.4653C36.2358 40.4653 32.8416 38.8533 29.2372 35.9126C30.7851 34.4766 32.333 32.845 33.8034 31.0377C36.3022 30.8033 38.6683 30.4417 40.8354 29.9631C41.0896 30.9498 41.2886 31.8975 41.4103 32.806ZM45.6669 26.2898C44.7162 26.6512 43.6768 26.9736 42.6043 27.2765C41.974 25.3617 41.1448 23.3687 40.1167 21.3268C41.1339 19.2948 41.9521 17.3115 42.5712 15.4065C43.6658 15.7093 44.7051 16.0415 45.678 16.403C49.592 17.8782 52.1238 19.8126 52.1238 21.3464C52.1128 22.8802 49.5809 24.8244 45.6669 26.2898Z" fill="white"/>
<path d="M27.4573 25.6098C30.453 25.6098 32.8814 23.6988 32.8814 21.3415C32.8814 18.9842 30.453 17.0732 27.4573 17.0732C24.4615 17.0732 22.033 18.9842 22.033 21.3415C22.033 23.6988 24.4615 25.6098 27.4573 25.6098Z" fill="white"/>
</svg>
