<svg width="62" height="62" viewBox="0 0 62 62" fill="none" xmlns="http://www.w3.org/2000/svg">
<path d="M49.8674 13.3994C50.1111 14.9906 52.8261 17.1265 53.5621 17.079C54.0543 17.079 54.2395 15.0035 54.2395 13.3994C54.2395 12.4784 54.298 11.7606 53.7521 11.592C52.8796 13.1486 50.5986 13.4642 49.8674 13.3994ZM50.0136 12.6946C51.9731 12.6946 53.7668 11.3066 53.7668 10.0873C53.7668 9.5209 53.4645 9.0496 52.6895 8.96745C52.8211 9.11878 52.8796 9.23552 52.8796 9.5036C52.8796 10.4246 51.2956 11.445 49.5799 11.445C48.9559 11.445 48.7707 11.8298 48.7707 12.0287C48.7707 12.4957 49.2825 12.6946 50.0136 12.6946ZM49.5994 10.8051C49.3361 10.8051 48.9559 10.8051 48.7512 10.4376C48.5806 10.1349 48.6391 9.65061 48.3174 9.43442C48.6391 9.51657 48.9754 9.51657 49.2435 9.51657C50.0916 9.51657 50.9056 8.99771 51.5246 8.99771C51.9389 8.99771 52.0706 9.2312 52.0706 9.46469C52.0706 10.2041 50.3939 10.8051 49.5994 10.8051ZM7.43304 23.915C8.07156 23.915 7.93995 20.4386 8.97814 20.4386C9.22673 20.4386 9.29984 20.6548 9.29984 20.9229C9.29984 21.7098 8.86604 22.8643 8.86604 23.4999C8.86604 23.8155 8.95865 23.9193 9.12924 23.9193C9.58254 23.9193 10.3722 20.0884 11.1471 20.0884C11.3909 20.0884 11.5078 20.3046 11.5078 20.5251C11.5078 21.325 10.3575 23.6339 10.3575 24.2868C10.3575 24.3863 10.3965 24.4728 10.4891 24.4728C10.9619 24.4728 11.9027 22.6654 12.2048 21.766C12.3755 21.2991 12.5997 21.0483 12.8092 21.0483C12.9993 21.0483 13.17 21.2342 13.17 21.6147C13.17 22.5184 12.2292 24.6414 11.4006 26.0639C10.7572 27.1665 9.75801 28.7577 9.75801 29.6441C9.75801 30.0938 9.85549 30.5607 10.5866 31.1315C9.37783 31.0666 8.89041 30.9628 8.43711 30.1283C6.41921 33.6869 12.1512 33.341 10.1918 36.4974C9.836 35.9309 7.00411 35.3429 7.00411 32.0308C7.00411 29.1728 9.83112 27.4994 9.83112 26.3104C9.83112 26.0769 9.73364 25.8737 9.48994 25.6921C8.86604 25.2251 8.84655 24.8403 8.35912 24.8403C8.00331 24.8403 7.56951 25.5753 8.01793 26.2282C8.16903 26.4444 8.30064 26.5785 8.30064 26.7817C8.30064 27.2487 7.47203 28.5026 6.88713 28.5026C6.30223 28.5026 5.84894 27.2141 5.84894 25.143C5.84894 23.301 6.32174 21.4461 6.90663 21.4461C7.07722 21.4461 7.13084 21.5455 7.13084 21.6796C7.13084 21.8957 7.05773 22.3324 7.05773 23.0675C7.05773 23.8458 7.26245 23.915 7.43304 23.915ZM36.3124 7.47572C36.6146 7.47572 36.6682 8.12862 36.7267 8.51344C36.7657 8.71234 36.7998 8.72963 36.8972 8.72963C37.1215 8.72963 37.4822 7.95999 37.7259 7.95999C38.0866 7.95999 39.0468 8.84638 40.6504 8.84638C42.9315 8.84638 45.081 7.42383 45.081 4.916C45.081 2.49033 43.1558 1.06778 40.4993 1.06778C39.2369 1.06778 38.3108 1.62123 37.8234 1.62123C37.5163 1.64285 37.0679 0.972656 36.8389 0.972656C36.7462 0.972656 36.6487 1.14129 36.6487 1.42234C36.6487 1.60826 36.6487 2.19198 36.4196 2.19198C35.9663 2.19198 34.2165 1.03751 34.2165 1.45693C34.2165 1.84175 35.3864 3.01351 35.3864 3.31186C35.3864 3.61453 34.236 3.8999 34.236 4.0988C34.236 4.46632 35.4643 4.5355 35.4643 5.00248C35.4643 5.46945 34.1824 5.83698 34.1824 6.19154C34.1824 6.47691 35.4643 6.27369 35.4643 6.62825C35.4643 6.9828 34.5235 8.15024 34.5235 8.48318C34.5235 8.56533 34.543 8.56533 34.6162 8.56533C34.972 8.56533 36.0492 7.47572 36.3124 7.47572ZM12.1269 32.1951C12.1074 31.8622 12.3706 31.5422 12.7654 31.5077C13.1601 31.4558 13.5209 31.7238 13.555 32.0741C13.5939 32.4243 13.3113 32.727 12.9116 32.7745C12.5217 32.7962 12.1659 32.5454 12.1269 32.1951ZM10.0358 32.7097C10.1089 33.2804 10.7133 33.7128 11.3909 33.6436C11.6346 33.6263 11.8637 33.5615 12.0099 33.475C12.1609 34.0112 12.6289 34.3441 13.3308 34.2792C14.0278 34.2317 14.5201 33.7085 14.4421 33.0945C14.4421 32.9259 14.3836 32.8264 14.3299 32.7097L14.4616 32.6924C15.1196 32.6232 15.6314 32.087 15.5728 31.5033C15.4998 30.9023 14.8759 30.4656 14.2374 30.5175C13.9937 30.5694 13.7841 30.6342 13.6329 30.751C13.4624 30.2494 12.9749 29.8473 12.2779 29.9165C11.62 29.9511 11.1081 30.5175 11.1861 31.1358C11.1861 31.2223 11.2251 31.3563 11.2787 31.4687L11.1471 31.486C10.4843 31.5725 9.97735 32.0611 10.0358 32.7097ZM52.0316 2.04065C52.0316 2.27413 52.2363 2.46006 52.5043 2.46006C52.7676 2.46006 52.9771 2.27413 52.9771 2.04065C52.9771 1.80716 52.7676 1.62123 52.5043 1.62123C52.2411 1.62556 52.0316 1.80716 52.0316 2.04065ZM41.5131 17.8962C41.5131 18.281 41.869 18.5966 42.3027 18.5966C42.7365 18.5966 43.0924 18.281 43.0924 17.8962C43.0924 17.5114 42.7317 17.1957 42.3027 17.1957C41.8738 17.1914 41.5131 17.5114 41.5131 17.8962ZM41.5716 20.0019C41.5716 20.4386 41.9664 20.7888 42.4588 20.7888C42.951 20.7888 43.3458 20.4386 43.3458 20.0019C43.3458 19.5695 42.951 19.2193 42.4588 19.2193C41.9664 19.2193 41.5716 19.5695 41.5716 20.0019ZM38.8567 21.4244C38.8567 22.06 39.4416 22.5789 40.1581 22.5789C40.8746 22.5789 41.4595 22.06 41.4595 21.4244C41.4595 20.7888 40.8746 20.27 40.1581 20.27C39.4416 20.27 38.8567 20.7888 38.8567 21.4244ZM39.5537 19.0679C39.5537 19.4355 39.8949 19.7381 40.3092 19.7381C40.7235 19.7381 41.0647 19.4355 41.0647 19.0679C41.0647 18.7004 40.7235 18.3978 40.3092 18.3978C39.8949 18.3978 39.5537 18.7004 39.5537 19.0679ZM37.0826 20.404C37.0826 20.7715 37.4237 21.0699 37.838 21.0699C38.2523 21.0699 38.5886 20.7715 38.5886 20.404C38.5886 20.0365 38.2474 19.7338 37.838 19.7338C37.4237 19.7338 37.0826 20.0365 37.0826 20.404ZM39.0273 16.4909C39.0273 17.0747 39.5732 17.5632 40.2361 17.5632C40.8941 17.5632 41.44 17.079 41.44 16.4909C41.44 15.9029 40.8941 15.4229 40.2361 15.4229C39.5732 15.4229 39.0273 15.9072 39.0273 16.4909ZM40.4408 14.4328C40.4408 14.783 40.7626 15.0684 41.1573 15.0684C41.5521 15.0684 41.8738 14.783 41.8738 14.4328C41.8738 14.0826 41.5521 13.7972 41.1573 13.7972C40.7626 13.7972 40.4408 14.0826 40.4408 14.4328ZM37.0289 16.0369C37.0289 16.3872 37.3506 16.6725 37.7454 16.6725C38.1402 16.6725 38.4619 16.3872 38.4619 16.0369C38.4619 15.6867 38.1402 15.4013 37.7454 15.4013C37.3457 15.4057 37.0289 15.6867 37.0289 16.0369ZM36.9314 18.2118C36.9314 18.7782 37.4432 19.2323 38.0817 19.2323C38.7203 19.2323 39.2321 18.7826 39.2321 18.2118C39.2321 17.6411 38.7203 17.1914 38.0817 17.1914C37.4432 17.1914 36.9314 17.6454 36.9314 18.2118ZM34.5577 19.2841C34.5577 19.803 35.0451 20.2354 35.63 20.2354C36.2149 20.2354 36.7023 19.803 36.7023 19.2841C36.7023 18.7653 36.2101 18.3286 35.63 18.3286C35.05 18.3286 34.5577 18.7653 34.5577 19.2841ZM35.1962 16.9276C35.1962 17.2952 35.5374 17.5978 35.9517 17.5978C36.366 17.5978 36.7072 17.2952 36.7072 16.9276C36.7072 16.5601 36.366 16.2574 35.9517 16.2574C35.5374 16.2574 35.1962 16.5558 35.1962 16.9276ZM32.6909 41.5736C32.6909 41.9411 33.0321 42.2394 33.4464 42.2394C33.8607 42.2394 34.2019 41.9411 34.2019 41.5736C34.2019 41.206 33.8607 40.9034 33.4464 40.9034C33.0321 40.9034 32.6909 41.206 32.6909 41.5736ZM12.4095 13.8664C12.4095 14.2339 12.7459 14.5366 13.1601 14.5366C13.5744 14.5366 13.9156 14.2339 13.9156 13.8664C13.9156 13.4988 13.5744 13.1962 13.1601 13.1962C12.7507 13.1962 12.4095 13.4988 12.4095 13.8664ZM11.4299 12.3617C11.4299 12.7292 11.771 13.0319 12.1854 13.0319C12.5997 13.0319 12.9359 12.7335 12.9359 12.3617C12.9359 11.9941 12.5948 11.6915 12.1854 11.6915C11.7662 11.6915 11.4299 11.9941 11.4299 12.3617ZM12.2389 28.8139C13.0286 28.8139 13.6914 28.295 13.6914 27.1406V25.437C13.6914 24.7841 13.7499 24.049 14.2374 23.5302C14.1789 23.7463 14.1789 23.9798 14.1789 24.196C14.1789 25.6359 15.0854 26.6217 15.0854 28.0097C15.0854 28.5285 14.9149 28.8096 14.4664 28.8096C14.0327 28.8096 14.0717 28.4593 13.9741 28.4593C13.901 28.4593 13.7841 28.6755 13.7841 28.909C13.7841 29.2593 14.0668 29.8127 14.8612 29.8127C15.5388 29.8127 16.0846 29.2593 16.0846 28.6409C16.0846 27.1362 14.7687 25.4629 14.7687 23.8588C14.7687 23.1583 14.9734 22.687 15.1439 22.3195C15.1439 25.6488 18.3316 28.0745 18.3316 29.4625C18.3316 29.7781 18.0684 30.0332 17.6736 30.0332C17.2399 30.0332 17.0351 29.7305 17.0351 29.4971C17.0351 29.3803 17.0156 29.3457 16.962 29.3457C16.8499 29.3457 16.5087 29.6787 16.5087 30.1154C16.5087 30.6645 17.0156 31.3347 17.9612 31.3347C19.0384 31.3347 19.6184 30.5305 19.6184 29.8127C19.6184 28.0572 15.7532 25.3981 15.7532 22.553C15.7532 22.0687 15.8459 21.2818 16.2455 20.6807C13.7548 22.099 12.9847 23.9928 12.9847 25.6488C12.9847 27.0844 12.9262 27.8064 12.0976 27.8064C11.6638 27.8064 11.5518 27.4562 11.4006 27.4562C11.2885 27.4562 11.23 27.7589 11.23 27.841C11.2203 28.4637 11.732 28.8139 12.2389 28.8139ZM44.9055 12.1109C45.7342 12.1109 46.358 11.7779 46.358 11.5747C46.358 11.5099 46.2459 11.458 45.9974 11.458C45.7537 11.458 45.2614 11.4407 44.3402 11.3066C43.5505 11.1899 42.9461 10.9218 42.717 10.9218C42.644 10.9218 42.605 10.9564 42.605 11.004C42.605 11.4407 43.5115 12.1109 44.9055 12.1109ZM40.7966 9.98787C41.0403 9.85383 42.098 10.07 43.4725 9.46901C43.6431 9.38686 43.8137 9.35227 43.9599 9.35227C44.6228 9.35227 44.4522 10.0225 45.0567 10.0225C45.5294 10.0225 46.1289 9.67223 46.4897 9.67223C47.055 9.67223 47.8641 11.2461 47.8641 11.9812C47.8641 12.833 46.4117 13.3518 44.6959 13.3518C42.1857 13.3518 40.6796 11.4104 40.6796 10.1565C40.6845 10.0527 40.743 10.0181 40.7966 9.98787ZM12.6337 35.1181C12.0147 35.2521 11.0155 36.1212 11.0155 37.4919C11.0155 39.1306 12.9944 41.6557 16.2553 41.6557C19.0091 41.6557 19.6866 39.9651 19.6866 38.8279C19.6866 36.3028 17.932 34.53 15.6557 34.53C14.4128 34.53 13.3015 35.3299 13.3015 36.519C13.3015 37.6259 14.2422 39.2776 16.4892 39.2776C17.5421 39.2776 18.1659 38.6074 18.1659 37.8378C18.1659 37.0854 17.3909 36.0477 16.2601 36.0477C15.9189 36.0477 15.6752 36.2466 15.6752 36.5665C15.6752 36.9687 16.2992 37.3708 17.0692 37.3708C17.2594 37.3708 17.4056 37.3362 17.4836 37.3059C17.5226 37.3578 17.5421 37.44 17.5421 37.5048C17.5421 37.8896 17.1277 38.1231 16.4892 38.1231C15.529 38.1231 14.6029 37.4875 14.6029 36.4844C14.6029 35.8834 15.1878 35.4467 16.0359 35.4467C17.7126 35.4467 18.7119 36.7698 18.7119 38.0885C18.7119 39.2776 17.9759 39.9651 16.4697 39.9651C13.4477 39.9694 11.9757 37.561 12.6337 35.1181ZM10.7523 16.9406C10.3185 17.0401 9.41194 17.5114 9.41194 18.3459C9.41194 18.9469 9.93835 19.3317 10.5964 19.3317C10.9376 19.3317 11.1813 19.2668 11.3324 19.1631C10.8059 18.7134 10.6159 18.2075 10.6159 17.7103C10.6207 17.36 10.6744 17.1438 10.7523 16.9406ZM6.13164 17.1784C6.11214 17.2606 6.11214 17.3471 6.11214 17.4292C6.11214 18.2162 6.58493 18.6485 7.20395 18.6485C7.67187 18.6485 8.22266 18.3978 8.71007 17.8443C8.50535 17.8789 8.25677 17.8962 8.03256 17.8962C7.34043 17.8962 6.58493 17.7276 6.13164 17.1784ZM5.47363 18.6658C5.47363 19.937 5.90743 20.5381 6.68242 20.5381C7.28682 20.5381 8.09593 20.1532 9.05613 19.4182C8.32013 19.5695 7.75474 19.669 7.24783 19.669C6.56544 19.669 6.03903 19.4355 5.47363 18.6658ZM34.1629 44.9159C35.0695 44.9159 35.011 44.851 35.2937 44.851C35.5764 44.851 35.5959 45.0024 35.5959 45.1018C35.5959 45.4693 34.6698 45.9233 33.0321 45.9233C32.067 45.9233 31.487 45.4737 31.3163 44.9721C30.3708 45.5083 28.9426 45.9925 27.5292 45.9925C23.664 45.9925 22.6842 44.5051 21.4803 44.0165C20.5543 43.649 19.1408 44.3668 17.1667 42.4124C17.4299 42.4643 17.7857 42.4772 18.0684 42.4772C19.8036 42.4772 20.7248 41.7249 20.7248 40.5229C20.7248 40.3715 20.7053 40.2029 20.6858 40.0559C21.2123 40.2418 22.421 41.0417 22.7038 42.4643C22.7428 42.6329 23.5129 42.7842 24.0052 42.7842C24.6827 42.7842 25.5502 42.5335 25.6819 41.5476C27.9434 41.3833 29.4691 40.1943 29.7908 38.6852C30.5998 38.9187 31.526 39.5716 31.7502 39.9046C32.0718 39.8051 32.4472 39.7532 32.881 39.7532C33.4854 39.7532 34.1629 39.8527 34.972 40.0732C35.011 39.857 35.0451 39.5889 35.4253 39.5889C35.9907 39.5889 35.8396 40.1424 36.0297 40.458C36.1222 40.6266 36.5951 40.7261 36.5951 41.059C36.5951 41.379 36.2929 41.4957 36.1077 41.4957C36.0297 41.4957 35.937 41.4784 35.8786 41.4611C35.5033 41.5779 35.4838 43.9863 33.8997 43.9863C32.7299 43.9863 31.6576 43.1345 31.1848 42.0622C31.0532 41.7465 30.7705 41.5433 30.5024 41.5433C30.2002 41.5433 30.0296 41.5952 29.6738 41.9454C28.6551 42.9312 26.9589 43.783 24.8679 43.783C24.2294 43.783 23.7176 43.7312 23.586 43.7312C23.5129 43.7312 23.5129 43.7485 23.5129 43.7658C23.5129 43.8825 24.1562 44.3322 25.5502 44.3322C28.8696 44.3322 29.6786 42.6761 30.2051 42.6761C30.2831 42.6761 30.5073 42.6761 30.6388 42.9442C31.4138 44.5484 33.0906 44.9159 34.1434 44.9159H34.1629ZM23.4544 11.3066C24.6973 11.3066 25.2627 12.2622 25.2627 13.3302C25.2627 13.7972 25.1116 14.4847 24.8679 14.4847C24.6242 14.4847 24.6583 14.0998 24.6242 13.7496C24.5852 13.2999 24.4926 13.2005 24.322 13.2005C24.0003 13.2005 23.7955 13.8707 23.7955 14.489C23.7955 14.8738 23.8687 15.3105 24.2099 15.3105C24.3951 15.3105 24.5657 15.2284 24.6827 15.1246C24.6095 15.8942 23.9662 16.5601 23.0645 16.5601C21.4073 16.5601 20.7833 14.8392 20.5933 13.8318C19.5941 14.77 18.6728 15.4532 17.0108 15.4532C15.4656 15.4532 14.7687 14.4501 14.7687 13.4945C14.7687 13.2091 14.8807 12.4741 15.2756 12.4741C15.7484 12.4741 15.3341 13.8447 16.2553 13.8447C16.4795 13.8447 16.8986 13.6761 17.1228 13.127C17.2544 12.794 17.3276 12.4395 17.3276 12.1411C17.3276 11.6915 17.2155 11.4061 16.8401 11.4061C16.5184 11.4061 16.1236 11.6223 15.9921 11.739C16.4454 10.537 17.5371 9.91869 18.7459 9.91869C20.2374 9.91869 21.027 11.0905 21.027 12.3919C21.027 12.5779 21.0075 12.7768 20.9685 12.9584C21.607 12.0244 22.4942 11.3066 23.4544 11.3066ZM18.7264 1.34018C18.7264 1.24073 18.1611 1.14129 17.3861 1.14129C16.1626 1.14129 16.3332 2.04497 15.3876 2.04497C14.4079 2.04497 14.6516 1.1067 13.4087 1.1067C12.6532 1.1067 11.9562 1.22344 11.9562 1.37477C11.9562 1.57367 12.8434 1.49152 12.8434 2.04497C12.8434 2.62869 10.9424 2.79732 10.9424 3.14755C10.9424 3.26429 11.0935 3.31618 11.2836 3.31618C11.698 3.31618 12.3608 3.14755 12.8287 3.14755C13.0919 3.14755 13.3357 3.19944 13.3357 3.41563C13.3357 3.83504 12.3169 4.58739 12.3169 4.92033C12.3169 5.01977 12.4095 5.05437 12.507 5.05437C12.8824 5.05437 13.5257 4.20257 14.1252 4.20257C15.1244 4.20257 14.4664 6.09209 15.0124 6.09209C15.5777 6.09209 15.3341 4.23716 16.1431 4.23716C16.8011 4.23716 17.2934 5.52566 17.7468 5.52566C17.8588 5.52566 17.9564 5.44351 17.9564 5.32677C17.9564 4.97654 17.3909 4.25878 17.3909 3.78748C17.3909 3.50211 17.6151 3.36807 17.9173 3.36807C18.3511 3.36807 18.9361 3.60155 19.2577 3.60155C19.3698 3.60155 19.4819 3.56696 19.4819 3.45022C19.4819 3.0481 17.8052 2.61572 17.8052 2.09686C17.8052 1.57799 18.7264 1.57367 18.7264 1.34018ZM45.588 34.2663C45.1931 34.2663 43.0046 36.8606 41.5911 36.8606C41.2499 36.8606 40.9673 36.2898 40.9673 35.8574C40.9673 35.624 41.1378 35.4553 41.7421 35.3386C44.9835 34.6857 44.267 32.5281 47.0355 32.5281C48.566 32.5281 50.2622 33.4491 50.2622 35.5202C50.2622 37.7253 46.7187 40.471 46.1923 40.471C45.7585 40.471 45.2857 39.9175 45.2857 39.55C45.2857 39.4333 45.3442 39.2819 45.7195 39.1479C47.5279 38.5123 48.566 37.0422 48.566 36.2898C48.566 36.1255 48.4734 35.9569 48.2249 35.9569C47.9031 35.9569 46.5287 38.7328 45.003 38.7328C43.9453 38.7328 42.873 37.881 42.873 37.4789C42.873 36.8087 45.9291 35.5721 45.9291 34.6338C45.9242 34.2836 45.739 34.2663 45.588 34.2663ZM47.6204 33.2285C47.3572 33.2285 47.0745 33.4145 47.0745 33.8641C47.0745 34.3657 47.5084 34.6857 47.752 34.7851C47.8836 34.85 48.0932 34.9192 48.2979 34.9192C48.8439 34.9192 49.2776 34.7851 49.2776 34.383C49.2825 33.8641 48.4296 33.2285 47.6204 33.2285ZM23.1522 3.04378C23.1522 3.34645 24.3415 3.99935 24.8874 3.99935C25.2091 3.99935 25.3017 3.61453 25.3017 3.21241C25.3017 2.71084 25.0579 2.69355 24.5657 2.69355C23.9467 2.69355 23.1522 2.84488 23.1522 3.04378ZM25.1165 6.35584C25.1165 5.35271 22.0263 3.49778 22.0263 2.74543C22.0263 2.71084 22.0263 2.69355 22.0458 2.66328C22.27 2.10983 24.8337 1.72501 24.8337 1.27533C24.8337 1.05913 24.3805 1.05913 24.1562 1.05913C22.4015 1.05913 19.8378 1.62988 19.8378 2.17901C19.8378 2.74543 22.1383 4.13771 22.1383 4.82088C22.1383 5.00248 22.0068 5.07166 21.7972 5.07166C21.1586 5.07166 19.7598 4.38417 19.1018 4.38417C18.7996 4.38417 18.6875 4.56577 18.6875 4.83385C18.6875 5.63808 19.7598 7.16008 19.7598 7.60976C19.7598 7.65732 19.7403 7.7265 19.6672 7.7265C19.326 7.7265 17.7273 6.05317 17.1619 6.05317C16.9523 6.05317 16.9376 6.30396 16.9376 6.67148V7.24223C16.9376 7.62705 16.9181 7.86054 16.7134 7.86054C16.2211 7.86054 15.9969 6.64122 15.5242 6.64122C15.0319 6.64122 14.9392 8.81611 14.4713 8.81611C13.9255 8.81611 14.3934 6.42502 13.8669 6.42502C13.282 6.42502 12.624 8.01188 12.2097 8.01188C12.0586 8.01188 12.0196 7.87784 12.0196 7.76109C12.0196 7.27682 12.3413 6.48988 12.3413 6.02291C12.3413 5.78942 12.2682 5.65538 12.0391 5.65538C11.4542 5.65538 10.1723 6.49421 9.6849 6.49421C9.61178 6.49421 9.5143 6.45962 9.5143 6.39476C9.5143 5.99264 11.5711 4.72143 11.5711 4.15501C11.5711 3.60155 8.74419 3.96908 8.74419 3.3378C8.74419 2.80164 10.7621 2.25251 10.7621 1.69906C10.7621 1.21479 8.36888 0.998599 7.44766 0.998599C6.33636 0.998599 5.73196 1.11534 5.73196 1.40072C5.73196 1.8331 8.25677 1.96714 8.25677 2.35629C8.25677 2.72381 5.63447 3.70965 5.63447 4.2804C5.63447 4.78196 9.32909 4.31499 9.32909 4.83385C9.32909 5.40027 6.10727 7.86054 6.10727 8.67775C6.10727 8.86367 6.25837 8.94583 6.46309 8.94583C7.44279 8.94583 9.9871 7.28979 10.6841 7.28979C10.9278 7.28979 10.9473 7.55355 10.9473 7.79136C10.9473 8.22807 10.7767 8.89394 10.7767 9.38253C10.7767 9.76736 10.8888 10.0354 11.269 10.0354C11.966 10.0354 12.6094 8.98042 13.0773 8.98042C13.6817 8.98042 13.321 12.072 14.2276 12.072C14.9977 12.072 15.3194 8.72963 15.8117 8.72963C16.304 8.72963 16.6988 9.69818 17.152 9.69818C17.7175 9.69818 17.4543 8.00755 18.0587 8.00755C18.7167 8.00755 20.603 10.0138 21.4511 10.0138C21.7143 10.0138 21.8117 9.82789 21.8117 9.5944C21.8117 8.70801 20.4178 6.70175 20.4178 6.06615C20.4178 5.89752 20.4763 5.84995 20.681 5.84995C21.417 5.84995 23.5665 6.75364 24.5852 6.75364C24.9069 6.74067 25.1165 6.57636 25.1165 6.35584ZM50.8471 25.6056C51.1494 24.7668 51.5246 24.1831 52.1436 23.2794C51.5246 22.994 49.8821 22.393 49.8821 21.4071C49.8821 20.2527 51.5051 19.3533 51.8414 19.3533C51.9926 19.3533 52.0316 19.4701 52.0316 19.6863C52.0316 20.2873 51.7098 21.2558 51.7098 21.7747C51.7098 22.2416 52.0511 22.6957 52.3483 22.6957C52.67 22.6957 53.5571 21.6925 53.5571 20.7067C53.5571 18.9339 51.8025 18.3978 51.2614 18.3978C50.7496 18.3978 49.8284 19.1328 47.6594 19.1328C43.609 19.1328 42.6829 15.57 42.6829 14.0134C42.6829 13.9485 42.7024 13.9312 42.717 13.9312C42.8097 13.9312 43.2093 14.3636 44.4912 14.3636C45.1541 14.3636 45.7537 14.2123 46.7187 14.2123C48.9803 14.2123 49.9795 15.6002 51.3736 17.373C52.2216 17.84 54.2395 18.5923 54.2395 20.7153C54.2395 22.5876 51.9974 23.6253 51.4515 25.6315C52.3191 25.5494 52.8261 24.1744 53.7131 24.1744C54.1664 24.1744 54.3711 24.4944 54.3711 24.9959C54.3711 25.731 53.8983 26.8336 52.9966 27.5211C53.0161 27.4562 53.0161 27.3697 53.0161 27.2703C53.0161 26.799 52.8066 26.1331 52.2021 26.1331C51.2614 26.1331 50.9592 27.0368 50.4329 27.7891C49.8869 26.0855 49.1509 24.5463 47.83 23.608C46.4945 22.6524 44.1939 23.1713 44.1939 21.4331C44.1939 20.9661 44.5302 20.2959 44.5302 19.7598C44.5302 19.5782 44.4912 19.4095 44.3791 19.2755C46.1874 19.8765 45.549 20.9488 46.6602 22.0514C47.3572 22.7519 49.2776 23.4221 50.3939 26.3147C50.4134 26.2326 50.4329 26.0164 50.4329 25.865C50.4329 23.3918 46.7382 20.9661 46.4165 19.963C48.566 20.1792 48.9414 20.6505 49.96 23.154C50.1647 23.6815 50.8471 24.97 50.8471 25.6056ZM10.3527 11.9768C10.4453 11.7088 10.5233 11.3758 10.5233 11.0083C10.5233 10.2041 10.1089 8.98474 8.82704 8.98474C8.09105 8.98474 7.56465 9.5036 7.56465 10.1219C7.56465 11.4407 9.05613 11.9768 10.3527 11.9768ZM8.75393 16.1883C8.13492 16.1883 7.45254 15.5051 7.45254 14.8825C7.45254 14.5495 7.73524 14.1301 7.93995 14.1301C8.01793 14.1301 8.05206 14.182 8.07156 14.2987C8.18366 15.1203 8.78805 15.5873 9.35346 15.8207C9.41194 15.8553 9.44606 15.8726 9.44606 15.9029C9.45093 16.024 9.09025 16.1883 8.75393 16.1883ZM10.9766 14.6187C10.9766 14.8522 10.8255 15.1549 10.5233 15.1549C9.86524 15.1549 9.33396 14.2685 9.33396 13.7669C9.33396 13.4513 9.54355 13.4167 9.82625 13.4167C9.95785 13.4167 10.0115 13.434 10.1089 13.4815C10.2795 13.5637 10.2795 13.901 10.4843 14.1517C10.6012 14.316 10.9766 14.502 10.9766 14.6187ZM10.3185 12.8632C10.2064 12.8459 10.0553 12.8459 9.90423 12.8459C9.28034 12.8459 8.45174 12.9454 7.71574 13.3821C6.05853 14.3333 6.32174 15.838 6.05853 16.2229C6.01954 16.2747 6.00004 16.3396 6.00004 16.4088C6.00004 16.5601 6.19013 16.7244 6.35585 16.7244C6.50695 16.7244 6.59956 16.6898 6.67755 16.6898C7.13084 16.6898 7.63775 16.9752 8.37376 16.9752C8.80755 16.9752 9.31447 16.8585 9.95785 16.5731C11.3177 15.9721 11.8442 14.4847 11.8442 14.2296C11.8442 13.9139 11.5614 13.9615 11.3177 13.6588C11.0545 13.3086 11.1861 13.1745 11.0155 12.9756C10.8986 12.8978 10.6548 12.8978 10.3185 12.8632ZM12.3169 15.557C11.9027 15.9894 11.4688 16.7244 11.4688 17.4811C11.4688 18.3848 12.0927 19.1371 13.0529 19.1371C13.979 19.1371 14.4128 18.4367 14.4128 17.7146C14.4079 16.5904 13.2577 15.8034 12.3169 15.557ZM8.28114 12.3444C8.28114 12.3444 7.73524 12.7119 7.05773 12.7119C6.24862 12.7119 5.60523 12.1757 5.60523 11.4234C5.60523 10.9045 5.90743 10.3684 6.60443 10.1003C6.58493 10.1997 6.58493 10.2862 6.58493 10.3857C6.58493 11.3412 7.18933 12.059 8.28114 12.3444ZM41.8153 22.073C41.8153 21.7401 42.1516 21.4547 42.5318 21.4547C42.9461 21.4547 43.2678 21.7401 43.2678 22.073C43.2678 22.4578 42.9461 22.7259 42.5318 22.7259C42.1565 22.7259 41.8153 22.4578 41.8153 22.073ZM42.3076 41.3055C42.4002 41.3055 42.5123 41.3574 42.5123 41.6557C42.5123 42.0232 42.3222 42.5075 41.6496 42.8923C41.1768 43.1777 40.5334 43.4112 39.5927 43.4285C39.7438 43.0264 39.8559 42.607 39.8559 42.2092C39.8559 42.0751 39.8364 41.9757 39.8169 41.8287H40.0606C41.5521 41.8243 42.1906 41.3055 42.3076 41.3055ZM42.4538 39.6494C42.605 39.5327 42.644 39.3511 42.644 39.1652V38.7804C42.644 38.2961 41.8153 38.0107 40.6845 38.0107C39.3099 38.0107 38.5739 38.5642 38.5739 38.7977V39.5673C38.5739 39.8873 39.4026 40.2029 40.4213 40.2029C41.2304 40.2029 41.9664 40.017 42.4538 39.6494ZM43.4384 39.8354C42.9461 40.1683 41.8007 40.925 39.8949 40.925C38.8762 40.925 38.4229 40.6396 38.2718 40.6396C38.0817 40.6396 37.877 40.8082 37.6674 41.0244C37.2141 41.4914 36.6292 42.3605 36.6292 43.3117C36.6292 43.9819 37.2141 44.6521 38.3059 44.6521C41.83 44.6521 44.4717 42.6934 44.4717 41.1066C44.4717 40.2029 43.8722 39.8354 43.4384 39.8354ZM44.0965 25.7699C44.0965 26.185 44.2475 26.6736 44.7203 26.6736C45.1151 26.6736 45.4563 26.1374 45.4563 25.5537C45.4563 24.8835 45.3247 24.3647 45.3247 24.0966C45.3247 23.9798 45.3783 23.9323 45.4563 23.9323C45.739 23.9496 46.0022 24.6327 46.3044 24.6327C46.6456 24.6327 47.1525 24.0793 47.3572 24.0793C47.4157 24.0793 47.4304 24.1441 47.4304 24.1614C47.4304 24.4122 46.9965 24.9657 46.9965 25.1819C46.9965 25.3678 48.0932 25.3981 48.0932 25.5667C48.0932 25.8175 46.9429 25.8175 46.397 26.0337C45.8706 26.2326 45.5489 26.4833 45.5489 26.8206C45.5489 27.1535 45.9242 27.2227 46.4555 27.2227C47.7179 27.2227 48.605 26.6217 48.8877 26.6217C48.9462 26.6217 48.9803 26.6563 48.9803 26.7039C48.9803 26.8725 48.3418 27.4216 48.3418 27.6724C48.3418 27.9578 49.5117 28.2907 49.4921 28.4593C49.4726 28.5112 49.3995 28.5242 49.2679 28.5242C49.0583 28.5242 48.7415 28.4766 48.4929 28.4766C48.3418 28.4766 48.2102 28.4939 48.1517 28.5588C48.0202 28.6928 48.1907 29.5792 47.9275 29.5792C47.6838 29.5792 47.0404 27.6075 45.5928 27.6075C45.3832 27.6075 45.2321 27.7589 45.2321 28.0097C45.2321 28.6799 45.9681 29.4452 46.6651 29.817C46.9819 30.003 47.5132 30.1846 47.5132 30.284C47.5132 30.4829 46.3093 30.3013 46.3093 30.6342C46.3093 30.9369 46.4604 31.3866 46.4604 31.6547C46.4604 31.7368 46.4408 31.8406 46.3288 31.8406C46.1046 31.8406 45.5538 30.9196 45.2906 30.9196C45.0664 30.9196 44.5741 31.4687 44.3694 31.4687C44.3109 31.4687 44.2719 31.4168 44.2719 31.3693C44.2719 30.9845 44.9689 30.1154 44.9689 29.2636C44.9689 28.8615 44.9153 27.9924 44.3645 27.9924C43.9111 27.9924 43.4043 28.628 43.1752 29.2636C43.0436 29.6311 43.1362 31.0536 42.8389 31.0536C42.5562 31.0536 42.6293 30.1024 42.2539 30.1024C41.9713 30.1024 41.3717 30.5521 41.1622 30.5521C41.1232 30.5521 41.0891 30.5348 41.0891 30.5002C41.0891 30.3013 41.6349 29.6484 41.6349 29.5144C41.6349 29.2636 40.392 29.229 40.392 29.0301C40.392 28.9133 40.8843 28.8312 41.3377 28.762C42.2979 28.6107 43.7114 27.9924 43.7114 27.1233C43.7114 26.1547 42.6537 25.7353 41.9615 25.3332C41.6009 25.1343 41.206 24.9657 41.206 24.8316C41.206 24.6976 41.6593 24.6976 41.8495 24.6976C42.1322 24.6976 42.4148 24.6803 42.4148 24.4814C42.4148 24.3301 42.3758 24.0317 42.3758 23.7982C42.3758 23.6296 42.3953 23.4956 42.4733 23.4956C42.756 23.4956 43.1508 24.3128 43.341 24.3128C43.6431 24.3128 44.0575 23.6469 44.3402 23.6469C44.4327 23.6469 44.4717 23.6988 44.4717 23.8458C44.4522 24.4641 44.0965 25.1689 44.0965 25.7699ZM35.1036 20.871C35.3132 22.2935 37.4578 21.5715 37.4578 23.2923C37.4578 23.5431 37.3798 23.9107 37.3798 24.2306C37.3798 24.5981 37.4188 24.9181 37.7356 24.9181C38.0525 24.9181 38.1305 24.7192 38.1305 24.4468C38.1305 24.1787 38.0525 23.8458 38.0525 23.6599C38.0525 23.0762 38.5252 22.9421 38.808 22.9421C39.5245 22.9421 40.0704 23.595 41.1475 23.595C40.9038 24.663 38.4132 24.382 38.4132 25.5494C38.4132 26.1331 39.0712 26.2671 39.505 26.2671C39.8997 26.2671 40.0314 26.2153 40.0314 25.9169C40.0314 25.7483 39.9924 25.5667 39.9924 25.4499C39.9924 25.3851 40.0459 25.3159 40.1435 25.3159C40.5578 25.3159 42.5903 26.6866 42.5903 27.106C42.5903 27.4908 40.4408 27.8756 39.8169 27.8756C39.6317 27.8756 39.5927 27.7589 39.5927 27.694C39.5927 27.5773 39.9144 27.227 39.9144 27.0238C39.9144 26.8725 39.6317 26.773 38.8762 26.773C38.5204 26.773 38.2523 26.8076 38.2523 27.0584C38.2523 27.5081 39.0809 28.0615 39.0809 28.481C39.0809 28.8139 38.8567 29.0171 38.2523 29.0171C37.7406 29.0171 36.9704 28.6669 36.9704 28.0832C36.9704 27.6162 37.5163 27.1449 37.5163 26.8638C37.5163 26.7817 37.4432 26.6476 37.2141 26.6476C36.5171 26.6476 36.3271 28.2864 33.8607 28.4723C34.2555 28.1567 34.5967 27.8021 34.5967 27.0844C34.5967 26.7341 34.504 26.4487 34.504 26.0639C34.504 25.5624 34.7673 25.3116 35.1426 25.3116C35.8396 25.3116 36.1807 26.1807 36.6292 26.1807C36.8729 26.1807 37.1361 25.9818 37.1361 25.6791C37.1361 24.4079 34.3822 24.5895 34.3822 22.8037C34.4066 22.3108 34.5967 21.7098 35.1036 20.871ZM38.6861 31.7411C38.6861 31.9746 38.8762 32.1605 39.1394 32.1605C39.4416 32.1605 39.6317 31.9271 39.6317 31.659C39.6317 31.3088 39.2711 30.8245 38.9347 30.8245C38.7836 30.8245 38.8421 31.0234 38.8031 31.2439C38.7787 31.4039 38.6861 31.6071 38.6861 31.7411ZM37.7064 29.5187C39.6853 29.8516 40.7624 31.1747 40.7624 32.4113C40.7624 33.2631 40.1581 34.0501 39.1004 34.0501C38.1402 34.0501 37.4432 33.4664 37.4432 32.5281C37.4432 31.8276 38.0622 31.0882 38.0622 30.3705C38.0622 30.0851 37.9696 29.7997 37.7064 29.5187ZM35.1962 32.3594C35.3864 32.5238 35.4399 32.6924 35.4399 32.861C35.4399 33.1118 35.3084 33.3799 35.3084 33.6609C35.3084 34.063 35.6446 34.4133 36.1369 34.4133C36.6633 34.4133 37.0241 34.0457 37.0241 33.6134C37.0289 32.9778 36.2929 32.3594 35.1962 32.3594ZM41.44 31.2915C41.5716 31.4731 41.6301 31.659 41.6301 31.8276C41.6301 32.2946 41.2743 32.7313 41.2743 33.2156C41.2743 33.7647 41.7471 34.2187 42.4588 34.2187C43.2336 34.2187 43.7601 33.6652 43.7601 33.0167C43.7552 32.126 42.8535 31.3736 41.44 31.2915ZM35.6495 30.4051C36.5171 30.5045 36.7218 30.7726 36.7218 30.9888C36.7218 31.3563 36.3465 31.4731 35.9858 31.4731C35.7226 31.4731 35.4204 31.4212 35.0987 31.4212C34.6844 31.4212 34.2701 31.5033 33.9289 31.8579C34.1726 31.8925 34.5334 32.0438 34.5334 32.3767C34.5334 33.3453 31.4967 32.5454 31.4967 35.0359C31.4967 36.359 33.0419 37.7945 35.3814 37.7945C36.5902 37.7945 37.3603 37.4443 37.3603 37.0422C37.3603 36.7265 36.7218 36.9427 36.7218 36.6746C36.7218 36.5579 36.9461 36.3417 36.9461 36.1558C36.9461 36.0736 36.8729 35.9223 36.7218 35.9223C36.3806 35.9223 35.7421 36.4066 34.4407 36.4066C33.422 36.4066 32.4229 35.8877 32.4229 35.1872C32.4229 35.0359 32.4959 34.9538 32.6129 34.9538C32.725 34.9538 32.8761 35.0186 33.0077 35.0186C33.1199 35.0186 33.1394 34.9538 33.1394 34.7678C33.1394 34.5819 33.1394 34.0674 33.5 34.0674C33.8559 34.0674 34.5382 35.2391 37.1361 35.2391C38.0038 35.2391 39.6805 35.0878 40.3043 34.5862C40.2848 36.4282 38.6618 38.8495 35.2693 38.8495C31.7453 38.8495 29.859 36.3417 29.859 34.0328C29.859 31.4731 32.2132 29.1512 35.4399 29.1512C36.2686 29.1512 36.9656 29.4019 36.9656 29.7176C36.9704 30.1543 35.747 29.8862 35.6495 30.4051ZM22.0068 13.2783C22.0068 12.9929 21.9336 12.9281 21.8557 12.9281C21.6655 12.9281 21.4608 13.127 21.1586 13.581C21.1976 14.182 21.3098 14.4501 21.4998 14.4501C21.7045 14.4501 22.0068 13.8664 22.0068 13.2783ZM19.4235 13.9658C19.6331 13.9658 19.8913 13.7669 20.3837 13.2826C20.4226 13.0665 20.4226 12.8632 20.4226 12.6124C20.4226 12.2752 20.2715 11.9077 20.0473 11.9077C19.4819 11.9077 19.1993 13.2481 19.1993 13.5983C19.1943 13.7972 19.3113 13.9658 19.4235 13.9658ZM22.4942 15.4532C22.967 15.4532 23.4934 13.8491 23.4934 12.8459C23.4934 12.6297 23.4544 12.3963 23.3422 12.3963C22.9475 12.3963 22.2846 14.0523 22.2846 14.956C22.2846 15.3019 22.382 15.4532 22.4942 15.4532ZM17.8735 14.5366C18.5168 14.5366 19.248 11.4623 19.248 10.9434C19.248 10.8094 19.1895 10.71 19.0579 10.71C18.473 10.71 17.6639 13.6372 17.6639 14.2901C17.6688 14.4025 17.7078 14.5366 17.8735 14.5366ZM19.9303 15.8034C19.1213 15.8034 19.0823 16.6725 19.0823 18.428C18.4778 17.2736 17.4786 16.0369 16.3088 16.0369C15.5143 16.0369 15.2171 16.5039 15.2171 17.3254C15.2171 17.4941 15.2366 17.7449 15.2756 17.8962C15.373 17.6108 15.6704 17.4941 16.0506 17.4941C16.8596 17.4941 17.8393 18.0432 18.4828 18.7999C17.7468 18.6831 17.0303 18.5664 16.4259 18.5664C16.0506 18.5664 15.7094 18.601 15.4266 18.7177C14.8807 18.9339 14.1447 19.656 14.1447 20.7413C14.1447 20.9099 14.1642 21.0915 14.2032 21.2904C14.8612 19.9846 16.6159 19.4009 17.7468 19.4009C17.971 19.4009 18.1416 19.4182 18.2731 19.4355C17.6883 19.9025 17.5566 20.724 17.5176 21.2731C17.4981 21.5412 17.3861 21.5585 17.1814 21.5585C17.1814 22.1076 17.6688 22.9291 17.6688 23.3486C17.6688 23.4999 17.5761 23.6339 17.4786 23.6642C17.4786 24.3992 18.3073 24.9354 18.3073 25.4024C18.3073 25.5191 18.2683 25.6186 18.2146 25.6705C18.2731 25.9731 19.1748 26.4877 19.2918 26.7082C19.4819 27.0584 19.6136 27.093 19.7061 27.093C20.0278 27.093 20.5348 26.7601 20.5348 26.4574C20.5348 26.3579 20.4421 26.2412 20.3642 26.1893C20.0035 25.9558 19.8183 25.4543 19.6672 25.117C19.5355 25.117 19.365 25.0521 19.3113 24.8835C19.2333 24.6673 19.1993 23.8804 19.0481 23.4956C18.8044 23.4437 18.6875 23.3615 18.6875 22.9118C18.6875 22.6957 18.8386 21.8395 18.8386 21.5412C18.7265 21.5412 18.5753 21.472 18.5753 21.2731C18.5753 20.737 19.1798 20.3219 19.3503 19.6344C20.4226 20.3348 20.6908 21.0526 20.6908 21.6925C20.6908 22.0255 20.6323 22.3454 20.5591 22.6438C21.3536 22.2935 22.538 21.7747 22.538 20.7197C22.538 20.1013 22.2163 19.4139 20.0863 19.1501C20.7443 18.9339 21.5778 18.8172 22.2748 18.8172C23.4836 18.8172 24.1806 19.1501 24.3318 19.9024C24.5755 19.5695 24.7655 19.1847 24.7655 18.8345C24.7655 18.0129 23.9954 17.4811 23.0108 17.4811C21.8605 17.4811 20.8418 18.0129 19.7501 18.6658C20.2424 17.7621 20.5786 17.2303 21.1831 17.2303C21.2756 17.2303 21.3731 17.2476 21.4658 17.2606C21.2318 16.5255 20.3837 15.8034 19.9303 15.8034ZM7.90584 5.3873C7.90584 5.72024 6.47284 6.84444 5.96592 6.84444C5.77583 6.84444 5.72221 6.64122 5.72221 6.45962C5.72221 6.12668 5.89281 5.65538 6.09752 5.50405C6.34123 5.30515 6.90663 5.2057 7.34043 5.2057C7.60364 5.2057 7.90584 5.25326 7.90584 5.3873ZM51.6952 27.8626C52.6359 27.8626 53.3914 28.9479 53.3914 30.2191C53.3914 31.5725 52.6749 33.0469 51.3931 34.0457C51.3736 31.7887 48.2638 32.5065 48.2638 30.8677C48.2638 30.1673 48.8292 29.696 49.5067 29.696C50.1111 29.696 50.5839 29.8473 50.9202 30.15C50.5791 29.8646 50.4084 29.4625 50.4084 29.0776C50.4134 28.4464 50.8666 27.8626 51.6952 27.8626ZM37.7064 10.7532C37.5553 10.537 36.9899 10.4203 36.7267 10.4203C35.8981 10.4203 35.3327 10.9391 35.2205 11.4061C35.1475 11.2375 35.089 11.0386 35.089 10.8397C35.089 10.1046 35.6544 9.20093 37.0289 9.20093C38.2377 9.20093 38.7056 9.76736 38.8762 9.76736C39.0663 9.76736 39.2516 9.59873 39.4026 9.59873C39.6122 9.59873 39.6122 9.8841 39.6122 10.083C39.6122 10.7532 39.2711 11.9077 38.4229 12.3227C38.2718 12.0374 37.9696 11.7217 37.4822 11.5185C37.3506 11.471 37.2921 11.3672 37.2921 11.2677C37.2921 11.0905 37.4822 10.857 37.7064 10.7532ZM34.8599 11.9768C35.3522 12.3963 35.7811 12.5779 36.3124 12.5779C36.522 12.5779 36.7657 12.526 36.8972 12.526C37.0679 12.526 37.18 12.5952 37.18 12.7119C37.18 12.8978 36.9899 13.1962 36.7657 13.3648C36.9899 13.4469 37.2385 13.4815 37.5017 13.4815C38.574 13.4815 39.8023 12.8805 39.8023 11.3758C40.0266 11.6439 40.163 12.193 40.163 12.4438C40.163 14.2685 38.652 14.9689 37.258 14.9689C36.3514 14.9689 35.8981 14.7009 35.786 14.7009C35.4302 14.7009 35.4448 15.3365 35.201 15.3192C34.7673 15.2543 34.3725 14.3982 34.3725 13.4945C34.3676 12.9627 34.5187 12.3919 34.8599 11.9768ZM21.7582 7.10819C21.7582 7.69191 24.1124 10.5543 24.5657 10.5543C24.941 10.5543 25.2237 9.97058 25.2237 9.46469C25.2237 9.33065 25.1847 9.19661 25.1116 9.09716C24.7704 8.67775 22.3772 7.00874 21.8507 7.00874C21.7972 7.00874 21.7582 7.06063 21.7582 7.10819ZM48.9609 5.73753C48.9609 4.5528 45.7585 4.25013 45.7585 3.98205C45.7585 3.76586 47.5473 3.39401 48.4734 3.38104C47.0599 1.77689 45.042 1.94552 45.042 1.66015C45.042 1.49152 46.553 1.15858 47.9422 1.15858C49.1119 1.15858 50.2037 1.39207 50.2037 2.17901C50.2037 2.61572 49.8089 3.0654 49.8089 3.73559C49.8089 4.10312 50.0185 4.42308 50.5644 4.42308C51.1493 4.42308 51.2809 3.86963 51.2809 3.28591C51.2809 2.80164 51.1884 2.43412 51.1884 2.20063C51.1884 1.50017 51.7342 1.02887 52.5043 1.02887C53.1477 1.02887 53.294 1.27965 54.2395 1.27965C53.7326 1.54773 53.5425 2.032 53.5425 2.26549C53.5425 2.97027 54.0543 3.45454 54.0543 4.89006C54.0543 7.53193 51.2663 8.4702 47.8495 8.4702C46.9039 8.4702 45.9096 8.40535 44.9299 8.27131C44.7788 8.25401 44.7398 8.22374 44.7398 8.13727C44.7398 7.92107 46.0802 7.80433 46.0802 6.73202C46.0802 6.3126 45.9291 5.91049 45.9291 5.76348C45.9291 5.68132 46.0071 5.62944 46.0802 5.62944C46.3628 5.62944 46.9283 6.6023 47.9812 6.6023C48.2639 6.59365 48.9609 6.50718 48.9609 5.73753ZM52.1436 4.05123C52.1436 5.53864 50.9202 6.67581 48.7122 6.99577C48.9559 7.01307 49.1851 7.01307 49.4092 7.01307C51.9925 7.01307 52.9333 5.97535 52.9333 5.10625C52.9381 4.61766 52.6359 4.18527 52.1436 4.05123ZM50.3549 17.4941C50.3549 17.1438 49.3556 17.1092 49.263 16.1234C49.2435 15.9721 49.1851 15.704 48.9803 15.704C48.6391 15.704 48.9024 16.625 48.527 16.625C47.6594 16.625 47.3767 15.1203 47.055 15.1203C46.9819 15.1203 46.8844 15.1722 46.8844 15.3711C46.8844 15.557 46.9234 15.6694 46.9234 15.8899C46.9234 16.1061 46.8649 16.2574 46.6407 16.2574C46.1289 16.2574 45.6805 15.2024 45.2467 15.2024C45.1541 15.2024 45.0567 15.2543 45.0567 15.3365C45.0567 15.5354 45.4319 15.9029 45.4319 16.0888C45.4319 16.4909 44.2037 16.2747 44.2037 16.6077C44.2037 16.759 44.3742 16.8066 44.5984 16.8066C44.9932 16.8066 45.6171 16.6552 45.9339 16.6552C46.1241 16.6552 46.4068 16.6898 46.4068 16.906C46.4068 17.1395 45.7292 17.4422 45.7292 17.6584C45.7292 17.7578 45.8414 17.8097 45.9339 17.8097C46.4458 17.8097 47.3475 17.0228 47.986 17.0228C48.098 17.0228 48.3808 17.0747 48.3808 17.226C48.3808 17.4422 47.7374 17.827 47.7374 18.1426C47.7374 18.2248 47.7959 18.3286 47.908 18.3286C48.2492 18.3286 48.6976 17.5416 49.341 17.5416C49.5847 17.5416 49.9454 17.6281 50.1306 17.6281C50.3012 17.6281 50.3549 17.546 50.3549 17.4941ZM36.8584 4.7344C36.8584 4.54848 36.1224 4.19824 36.1224 3.99935C36.1224 3.96476 36.1612 3.94746 36.2149 3.94746C36.4196 3.94746 36.7803 4.01232 37.0631 4.01232C37.3067 4.01232 37.3457 3.07837 37.5358 3.07837C37.6674 3.07837 37.8916 3.96476 38.1012 3.96476C38.3449 3.96476 38.7982 3.71397 38.9883 3.71397C39.0273 3.71397 39.0614 3.73127 39.0614 3.76586C39.0614 3.8826 38.5886 4.33228 38.5886 4.46632C38.5886 4.61766 39.6463 4.80358 39.6463 4.9333C39.6463 5.10193 38.5691 5.08463 38.5691 5.23164C38.5691 5.34839 38.964 5.81536 38.964 5.9667C38.964 6.00129 38.9445 6.01858 38.9055 6.01858C38.7543 6.01858 38.1695 5.7851 37.9988 5.7851C37.7941 5.7851 37.453 6.47259 37.2823 6.47259C37.2238 6.47259 37.1898 6.40341 37.1898 6.32125L37.1508 5.65106C37.1508 5.5862 37.1118 5.51702 37.0191 5.51702C36.7949 5.51702 36.3611 5.49972 36.2296 5.49972C36.1369 5.49972 36.0979 5.48243 36.0979 5.44784C36.1029 5.32244 36.8584 4.85115 36.8584 4.7344ZM40.5334 7.91243C39.2126 7.91243 38.3497 7.32871 38.3497 7.02604C38.3497 6.8747 38.4619 6.77526 38.613 6.77526C39.0273 6.77526 39.9339 7.34168 40.2361 7.34168C40.3092 7.34168 40.3677 7.30709 40.3677 7.20764C40.3677 6.9093 40.0459 6.40341 40.0459 6.15262C40.0459 6.08776 40.1044 6.03588 40.2166 6.03588C40.7235 6.03588 41.479 6.2218 41.8738 6.2218C42.0054 6.2218 42.0444 6.15262 42.0444 6.08776C42.0444 5.72024 40.8209 5.00248 40.8209 4.78196C40.8209 4.58307 42.3466 4.2804 42.3466 3.96043C42.3466 3.6275 40.2751 3.86098 40.2751 3.54102C40.2751 3.30753 40.6699 2.90542 40.6699 2.72381C40.6699 2.64166 40.5967 2.60707 40.4652 2.60707C40.2946 2.60707 39.388 2.92271 39.0127 2.92271C38.8226 2.92271 38.5984 2.88812 38.5984 2.65463C38.5984 2.26981 39.3344 1.8504 40.4847 1.8504C42.3514 1.8504 43.4628 2.98757 43.4628 4.89438C43.4579 7.31141 41.5521 7.91243 40.5334 7.91243ZM27.7729 36.8433C27.7729 36.9946 27.7144 37.1632 27.5633 37.3275C27.3586 36.9946 26.7737 36.826 26.5104 36.826C24.5657 36.826 25.3017 39.3165 23.2302 39.3165C22.3625 39.3165 22.2846 39.2171 21.9678 39.2171C21.8362 39.2171 21.7582 39.269 21.7582 39.3684C21.7582 39.8051 22.4552 40.8731 24.3951 40.8731C26.3399 40.8731 28.2018 39.8181 28.2018 38.5123C28.2018 38.2961 28.1433 38.0626 28.0312 37.8248C28.1043 37.7253 28.2945 37.6562 28.465 37.6562C28.7672 37.6562 28.9378 37.9588 29.2205 37.9588C29.5227 37.9588 29.747 37.7599 29.747 37.4919C29.747 37.2757 29.6153 37.1243 29.3862 37.0249C29.5373 36.9254 29.6494 36.7568 29.6494 36.5752C29.6494 36.2898 29.4252 36.0217 29.045 36.0217C28.8744 36.0217 28.7623 36.0736 28.6307 36.1904C28.5917 35.8877 28.4065 35.6067 28.0458 35.6067C27.7632 35.6067 27.5585 35.7926 27.5585 36.078C27.5633 36.3374 27.7729 36.5579 27.7729 36.8433ZM22.7038 37.4789C22.1383 37.4789 21.2903 36.9427 21.2903 36.6444C21.2903 36.3936 21.5535 36.2596 21.763 36.2596C22.2358 36.2596 23.084 36.7784 23.084 37.2151C23.079 37.3275 22.9865 37.4789 22.7038 37.4789ZM17.4397 33.7301C18.9506 34.063 19.7013 34.7851 19.8524 35.6369C20.0035 36.4585 20.1935 37.1286 20.5494 37.4616C21.0222 37.9286 21.9434 38.348 22.7524 38.348C23.4301 38.348 23.9808 38.1491 23.9808 37.5956C23.9808 36.9903 23.0547 35.6369 21.6997 35.6369C21.5681 35.6369 21.3975 35.6542 21.2074 35.6542C21.0369 35.6542 20.7931 35.6196 20.642 35.5029C20.3397 35.2694 20.2472 34.0155 19.6818 33.2631C19.0628 32.4286 18.3804 32.1908 17.4592 32.1908C16.8011 32.1908 16.0651 32.5065 16.0651 32.9778C16.0651 33.2631 16.2358 33.462 17.4397 33.7301ZM26.9053 31.6893C26.9053 30.9369 25.1506 30.9196 25.1506 29.7824C25.1506 29.4971 25.3553 29.0128 25.7744 28.4939C25.9451 29.363 26.3399 29.817 27.1879 30.0981C28.8646 30.6472 29.0938 31.486 29.0938 32.3724C29.0938 33.8771 27.9045 35.7493 24.8532 35.7493C22.4015 35.7493 20.6518 33.8079 20.6518 32.1692C20.6518 31.7152 20.7833 31.218 21.1051 31.218C21.3878 31.218 21.4803 31.4168 21.7094 31.6201C22.5575 32.3724 23.4788 32.5756 24.8192 32.5756C26.0182 32.5756 26.9053 32.1433 26.9053 31.6893ZM26.9784 32.8956C26.3204 33.1291 26.0767 33.1118 26.0767 33.6955C26.0767 33.9117 26.0182 34.1971 26.0182 34.3484C26.0182 34.5516 26.0572 34.6684 26.3204 34.6684C26.9979 34.6684 28.0702 33.648 28.0702 32.7789C28.0702 32.5454 27.9191 32.4459 27.7534 32.4459C27.6023 32.4459 27.4316 32.7097 26.9784 32.8956ZM20.9685 24.4468C20.9685 23.3788 23.8345 22.8081 23.8345 21.4893C23.8345 21.2731 23.742 20.8883 23.5714 20.6029C24.5705 21.0872 25.3065 21.9087 25.3065 22.5746C25.3065 23.7291 23.9515 24.2652 23.9515 24.983C23.9515 25.8175 25.404 25.9515 25.404 26.9892C25.404 27.841 24.0295 28.8269 24.0295 29.9338C24.0295 30.7856 24.707 31.4904 25.7452 31.6071C25.404 31.672 25.1018 31.7238 24.785 31.7238C22.8841 31.7238 20.9198 30.3359 20.9198 28.6799C20.9198 27.8583 21.3146 27.1406 21.9191 26.6217C22.4454 27.0238 22.9767 27.2919 23.313 27.2919C23.6153 27.2919 23.7468 27.1579 23.7468 26.959C23.7371 26.3407 20.9685 25.7699 20.9685 24.4468Z" fill="#474646"/>
<path d="M24.8531 60.2224C25.3844 60.2224 26.3007 60.0711 27.0222 59.042C26.6078 58.2334 26.3154 56.5904 26.2764 55.9937C26.062 52.941 27.3926 50.0657 28.8451 49.9879C29.9077 49.9316 30.7606 50.8267 30.8581 52.2708C31.1213 56.0758 29.6883 57.667 28.9767 59.0377C29.0985 59.5695 30.1124 60.4732 31.0726 60.4732C31.4284 60.4732 31.8524 60.3175 31.9597 60.1878C31.8865 59.9673 31.8183 59.6862 31.8183 59.2755C31.8183 57.0703 33.417 55.2111 34.8013 55.2111C35.9029 55.2111 36.5413 56.5039 36.5413 57.3557C36.5413 58.3631 35.5811 59.1847 34.1628 59.9716C34.4114 60.1921 34.8744 60.3478 35.2644 60.3478C37.2871 60.3478 38.3546 58.1729 39.1344 56.1882C39.2758 55.8121 39.5243 55.2759 40.0215 55.2759C40.8745 55.2759 41.2303 60.257 42.6487 60.257C43.2531 60.257 43.7502 59.1544 43.7502 58.3069C43.7502 57.6757 43.5017 57.6151 43.5017 56.6985C43.5017 55.691 44.106 54.8392 44.9249 54.8392C45.4221 54.8392 45.5975 55.2802 45.5975 55.8164C45.5975 57.8356 43.9647 61.5844 41.5471 61.5844C39.7339 61.5844 39.8752 58.8085 39.2368 58.8085C38.5251 58.8085 37.5309 61.6147 34.0166 61.6147C33.4463 61.6147 32.8419 61.3639 32.3447 60.8537C31.4917 61.3596 30.7801 61.5801 29.9612 61.5801C28.6501 61.5801 28.0798 60.3824 27.5485 60.3824C26.91 60.3824 26.1984 61.6147 24.0684 61.6147C22.3625 61.6147 22.0798 59.5998 21.4753 59.5998C20.9392 59.5998 20.1252 61.6147 19.2382 61.6147C17.7418 61.6147 17.4249 58.1167 16.109 58.1167C15.0756 58.1167 11.8245 61.6666 10.9374 61.5887C10.5816 61.5541 10.4354 61.3207 10.4695 61.005C10.5183 60.5683 10.9423 59.4009 11.1129 58.8474C11.4004 57.8918 11.6637 56.8368 11.8099 56.5039C11.9562 56.1666 12.351 55.9245 12.6677 55.9504C12.8286 55.9634 12.8724 56.2272 12.9261 56.4477C13.1065 57.2303 13.355 58.0216 13.6377 58.0216C14.1349 58.0216 15.7872 55.2154 16.7426 55.2154C17.9172 55.2154 18.0586 59.63 19.6573 59.63C20.1886 59.63 20.5834 59.0636 20.9344 58.3718C20.9684 57.2044 21.3243 55.5353 22.3917 55.5353C23.1374 55.5353 23.4933 57.0141 22.962 58.3069C22.9717 59.8462 24.1074 60.2224 24.8531 60.2224ZM51.3588 57.2649C51.3588 56.4779 50.5448 55.371 49.336 55.371C47.7373 55.371 46.1776 56.9147 46.1776 59.0593C46.1776 60.9791 47.5228 61.6147 48.8729 61.6147C51.2174 61.6147 52.6407 59.9111 53.3864 58.4929C53.7423 59.4398 53.9518 61.6147 54.8439 61.6147C55.1996 61.6147 55.4482 61.4547 55.8771 60.6029C56.9397 58.4929 57.9681 56.0672 59.3914 56.0672C59.9227 56.0672 59.6059 56.919 60.8829 56.919C61.4873 56.919 61.9113 56.4779 61.9113 55.9721C61.9113 55.2456 61.1656 54.6792 60.0299 54.6792C56.6911 54.6792 55.9843 59.1241 55.4482 59.1241C54.5611 59.1241 54.8439 55.5613 54.2053 55.5613C53.635 55.5613 53.3524 56.1623 53.2792 56.4434C52.8161 58.0821 51.505 60.4472 49.5115 60.4472C49.0484 60.4472 48.2344 60.2916 48.2344 59.8808C48.2296 59.4355 51.3588 59.3749 51.3588 57.2649ZM29.7078 53.127C29.6445 52.2449 29.4056 51.8471 28.8743 51.8817C28.1676 51.9206 27.841 53.8923 27.9824 55.9677C28.075 57.3211 28.2992 57.5286 28.5136 57.5157C28.9036 57.4941 29.8443 55.077 29.7078 53.127ZM23.9319 51.2764C23.8978 50.7705 23.4348 50.4246 22.8303 50.4246C22.1578 50.4246 21.5143 51.0558 21.5875 51.8428C21.5875 52.3141 21.9774 52.7897 22.6549 52.7897C23.4348 52.7854 24.0051 52.0028 23.9319 51.2764ZM34.9816 57.7059C34.9816 57.1698 34.6599 56.7287 34.27 56.7287C33.9483 56.7287 33.2026 57.0444 33.2026 58.0518C33.2026 58.8388 33.5193 59.2193 33.6657 59.3792C34.6941 59.0896 34.9816 58.3329 34.9816 57.7059ZM48.8681 56.6336C49.6139 56.6336 49.8283 57.4205 49.6529 57.8918C49.4725 58.3631 48.8389 58.8993 47.8397 59.0593C47.6251 58.5837 47.5179 56.6336 48.8681 56.6336ZM0.0095946 57.1395C-0.0245245 55.8467 0.0437137 54.5538 0.652983 52.7248C0.969803 51.7477 1.25737 51.4018 2.25171 51.2115C3.03157 51.0861 2.96333 51.8082 2.78786 52.66C2.39793 54.5495 2.21758 55.4618 2.35893 57.6065C2.50028 59.8765 3.67496 60.7586 4.95199 60.7586C6.8724 60.7931 7.72537 59.3749 8.07631 57.3254C8.35901 55.6867 8.14456 54.8954 7.96909 54.3939C7.86185 54.1128 7.57915 53.4772 7.47192 53.0102C7.33057 51.8125 7.96909 51.2461 8.50524 51.0861C9.14375 50.9261 9.39234 51.2115 9.64092 51.8774C9.96261 52.8848 9.99674 54.2036 9.8895 56.0974C9.74815 58.6831 8.29078 61.8049 4.66928 61.7401C1.5352 61.6752 0.150945 59.8765 0.0095946 57.1395Z" fill="#474646"/>
</svg>
