<svg width="40" height="40" viewBox="0 0 40 40" fill="none" xmlns="http://www.w3.org/2000/svg">
<path d="M20 40C17.2667 40 14.6833 39.4747 12.25 38.424C9.81667 37.3747 7.692 35.9413 5.876 34.124C4.05867 32.308 2.62533 30.1833 1.576 27.75C0.525334 25.3167 0 22.7333 0 20C0 17.2333 0.525334 14.642 1.576 12.226C2.62533 9.80867 4.05867 7.692 5.876 5.876C7.692 4.05867 9.81667 2.62467 12.25 1.574C14.6833 0.524667 17.2667 0 20 0C22.7667 0 25.358 0.524667 27.774 1.574C30.1913 2.62467 32.308 4.05867 34.124 5.876C35.9413 7.692 37.3747 9.80867 38.424 12.226C39.4747 14.642 40 17.2333 40 20V22.9C40 24.8667 39.3253 26.5413 37.976 27.924C36.6253 29.308 34.9667 30 33 30C31.8 30 30.6833 29.7333 29.65 29.2C28.6167 28.6667 27.7667 27.9667 27.1 27.1C26.2 28 25.142 28.7087 23.926 29.226C22.7087 29.742 21.4 30 20 30C17.2333 30 14.8753 29.0247 12.926 27.074C10.9753 25.1247 10 22.7667 10 20C10 17.2333 10.9753 14.8747 12.926 12.924C14.8753 10.9747 17.2333 10 20 10C22.7667 10 25.1253 10.9747 27.076 12.924C29.0253 14.8747 30 17.2333 30 20V22.9C30 23.8667 30.3 24.6247 30.9 25.174C31.5 25.7247 32.2 26 33 26C33.8 26 34.5 25.7247 35.1 25.174C35.7 24.6247 36 23.8667 36 22.9V20C36 15.6333 34.4247 11.8747 31.274 8.724C28.1247 5.57467 24.3667 4 20 4C15.6333 4 11.8747 5.57467 8.724 8.724C5.57467 11.8747 4 15.6333 4 20C4 24.3667 5.57467 28.1247 8.724 31.274C11.8747 34.4247 15.6333 36 20 36H30V40H20ZM20 26C21.6667 26 23.0833 25.4167 24.25 24.25C25.4167 23.0833 26 21.6667 26 20C26 18.3333 25.4167 16.9167 24.25 15.75C23.0833 14.5833 21.6667 14 20 14C18.3333 14 16.9167 14.5833 15.75 15.75C14.5833 16.9167 14 18.3333 14 20C14 21.6667 14.5833 23.0833 15.75 24.25C16.9167 25.4167 18.3333 26 20 26Z" fill="#F5F5FA"/>
</svg>
