<svg width="62" height="62" viewBox="0 0 62 62" fill="none" xmlns="http://www.w3.org/2000/svg">
<circle cx="31" cy="31" r="31" fill="#E9E1FF"/>
<g clip-path="url(#clip0_264_712)">
<path d="M37.1022 27.8961L31.4772 24.568C31.3327 24.4824 31.1678 24.4373 30.9999 24.4375C30.8319 24.4377 30.6671 24.4831 30.5228 24.569L24.8978 27.8971C24.7576 27.9798 24.6413 28.0977 24.5606 28.2391C24.4799 28.3805 24.4374 28.5405 24.4375 28.7033V35.1721C24.4375 35.504 24.6128 35.8105 24.8978 35.9783L30.5228 39.3065C30.6669 39.393 30.8319 39.4387 31 39.4387C31.1681 39.4387 31.3331 39.393 31.4772 39.3065L37.1022 35.9783C37.2424 35.8956 37.3587 35.7777 37.4394 35.6363C37.5201 35.4949 37.5626 35.3349 37.5625 35.1721V28.7033C37.5625 28.5404 37.5201 28.3802 37.4394 28.2387C37.3587 28.0971 37.2424 27.9791 37.1022 27.8961ZM35.6875 34.6377L31 37.4108L26.3125 34.6377V29.2377L31 26.4646L35.6875 29.2377V34.6377Z" fill="#5222D0"/>
<path d="M21.625 34.9225V26.3781L27.4375 22.9431L26.4841 21.3287L20.2103 25.0366C20.0701 25.1195 19.9538 25.2376 19.8731 25.3791C19.7924 25.5207 19.75 25.6808 19.75 25.8437V34.9225C19.2032 35.1152 18.7295 35.4724 18.3938 35.9451C18.0581 36.4178 17.8769 36.9827 17.875 37.5625C17.875 39.1131 19.1369 40.375 20.6875 40.375C22.2381 40.375 23.5 39.1131 23.5 37.5625C23.4981 36.9827 23.3169 36.4178 22.9812 35.9451C22.6455 35.4724 22.1718 35.1152 21.625 34.9225ZM20.6875 38.5C20.4461 38.4892 20.2182 38.3857 20.0512 38.2111C19.8842 38.0364 19.791 37.8041 19.791 37.5625C19.791 37.3209 19.8842 37.0886 20.0512 36.9139C20.2182 36.7393 20.4461 36.6358 20.6875 36.625C20.9289 36.6358 21.1568 36.7393 21.3238 36.9139C21.4908 37.0886 21.584 37.3209 21.584 37.5625C21.584 37.8041 21.4908 38.0364 21.3238 38.2111C21.1568 38.3857 20.9289 38.4892 20.6875 38.5ZM41.3125 34.75C39.7619 34.75 38.5 36.0119 38.5 37.5625C38.5 37.8934 38.5675 38.2066 38.6734 38.5019L31 43.0356L24.9962 39.4881L24.0428 41.1025L30.5228 44.9312C30.6671 45.0171 30.8319 45.0625 30.9999 45.0627C31.1678 45.0629 31.3327 45.0178 31.4772 44.9322L39.8772 39.9681C40.2991 40.2203 40.7866 40.375 41.3125 40.375C42.8631 40.375 44.125 39.1131 44.125 37.5625C44.125 36.0119 42.8631 34.75 41.3125 34.75ZM41.3125 38.5C41.0711 38.4892 40.8432 38.3857 40.6762 38.2111C40.5092 38.0364 40.416 37.8041 40.416 37.5625C40.416 37.3209 40.5092 37.0886 40.6762 36.9139C40.8432 36.7393 41.0711 36.6358 41.3125 36.625C41.5539 36.6358 41.7818 36.7393 41.9488 36.9139C42.1158 37.0886 42.209 37.3209 42.209 37.5625C42.209 37.8041 42.1158 38.0364 41.9488 38.2111C41.7818 38.3857 41.5539 38.4892 41.3125 38.5ZM31 22.5625C31.6853 22.5625 32.305 22.3066 32.7934 21.8987L40.375 26.3791V32.875H42.25V25.8437C42.25 25.6808 42.2076 25.5207 42.1269 25.3791C42.0462 25.2376 41.9299 25.1195 41.7897 25.0366L33.7581 20.2909C33.7919 20.1156 33.8125 19.9356 33.8125 19.75C33.8125 18.1994 32.5506 16.9375 31 16.9375C29.4494 16.9375 28.1875 18.1994 28.1875 19.75C28.1875 21.3006 29.4494 22.5625 31 22.5625ZM31 18.8125C31.1857 18.8123 31.3673 18.8672 31.5217 18.9703C31.6762 19.0733 31.7966 19.2199 31.8678 19.3914C31.9389 19.5629 31.9576 19.7517 31.9214 19.9338C31.8852 20.1159 31.7958 20.2832 31.6645 20.4145C31.5332 20.5458 31.3659 20.6352 31.1838 20.6714C31.0017 20.7076 30.8129 20.6889 30.6414 20.6178C30.4699 20.5466 30.3233 20.4262 30.2203 20.2717C30.1172 20.1173 30.0623 19.9357 30.0625 19.75C30.0625 19.2325 30.4834 18.8125 31 18.8125Z" fill="#5222D0"/>
</g>
<defs>
<clipPath id="clip0_264_712">
<rect width="30" height="30" fill="white" transform="translate(16 16)"/>
</clipPath>
</defs>
</svg>
