<svg width="401" height="348" viewBox="0 0 401 348" fill="none" xmlns="http://www.w3.org/2000/svg">
<g filter="url(#filter0_d_223_13555)">
<path d="M277.765 183.535C283.385 149.218 234.259 116.542 217.078 122.971C209.787 125.7 214.631 133.085 204.996 144.861C194.222 158.029 176.942 162.511 132.658 184.362C130.183 185.584 127.933 186.867 127.083 189.14C122.171 202.277 170.475 227.665 205.527 227.465C232.942 227.308 273.083 212.119 277.765 183.535Z" fill="#D5EFC8"/>
<path d="M205.262 230.853C191.483 230.853 174.969 227.216 158.695 220.592C143.556 214.431 131.106 206.592 125.393 199.623C122.347 195.908 121.327 192.621 122.362 189.854L123.118 190.076C122.169 192.615 123.151 195.688 126.037 199.207C131.674 206.083 144.007 213.837 159.027 219.95C175.372 226.603 191.96 230.214 205.701 230.145C221.136 230.057 238.711 225.606 252.716 218.239C264.389 212.098 278.894 201.17 281.709 183.986C285.269 162.248 267.618 141.579 251.421 130.485C238.429 121.586 225.342 117.592 218.075 120.31L217.766 119.659C225.291 116.842 238.692 120.874 251.908 129.926C261.45 136.461 269.712 144.858 275.173 153.57C281.564 163.767 284.097 174.319 282.497 184.088C279.638 201.548 264.945 212.627 253.123 218.846C239.002 226.275 221.276 230.763 205.706 230.851C205.559 230.852 205.41 230.853 205.262 230.853Z" fill="#D5EFC8"/>
<path d="M255.533 234.34L256.038 238.797L247.307 242.581L260.715 242.579L260.714 234.339L255.533 234.34Z" fill="#F9977A"/>
<path d="M239.453 234.343L239.958 238.8L231.227 242.584L244.635 242.582L244.634 234.342L239.453 234.343Z" fill="#F9977A"/>
<path d="M229.879 242.991V242.964C229.879 242.755 229.944 242.551 230.067 242.373C230.191 242.196 230.367 242.052 230.577 241.958L239.64 237.907C239.728 237.868 239.83 237.857 239.927 237.877C240.023 237.897 240.109 237.947 240.169 238.017L241.941 240.107C242.003 240.181 242.095 240.232 242.198 240.25C242.301 240.268 242.407 240.251 242.497 240.203L244.576 239.097C244.64 239.063 244.713 239.044 244.788 239.044C244.863 239.043 244.937 239.059 245.002 239.092C245.067 239.125 245.122 239.172 245.159 239.23C245.197 239.287 245.217 239.352 245.217 239.419L245.218 242.989C245.218 243.088 245.173 243.184 245.094 243.254C245.014 243.324 244.907 243.364 244.794 243.364L230.302 243.366C230.247 243.366 230.192 243.357 230.14 243.338C230.089 243.319 230.042 243.291 230.003 243.256C229.964 243.222 229.932 243.18 229.911 243.135C229.89 243.089 229.879 243.04 229.879 242.991Z" fill="#A1ACAF"/>
<path d="M245.961 242.985V242.958C245.961 242.749 246.026 242.545 246.149 242.368C246.273 242.19 246.449 242.046 246.659 241.953L255.722 237.902C255.81 237.862 255.912 237.851 256.009 237.871C256.105 237.891 256.191 237.941 256.251 238.011L258.023 240.101C258.086 240.175 258.177 240.226 258.28 240.244C258.383 240.262 258.489 240.245 258.579 240.198L260.658 239.091C260.722 239.057 260.795 239.039 260.87 239.038C260.945 239.037 261.019 239.054 261.084 239.086C261.149 239.119 261.204 239.166 261.241 239.224C261.279 239.281 261.299 239.346 261.299 239.413L261.3 242.983C261.3 243.082 261.255 243.178 261.176 243.248C261.096 243.319 260.989 243.358 260.877 243.358L246.384 243.36C246.329 243.36 246.274 243.351 246.222 243.332C246.171 243.313 246.124 243.285 246.085 243.25C246.046 243.216 246.014 243.174 245.993 243.129C245.972 243.083 245.961 243.034 245.961 242.985Z" fill="#A1ACAF"/>
<path d="M238.559 179.126C238.559 179.126 237.757 190.667 237.758 193.381L237.761 209.392C237.761 210.051 237.797 210.709 237.871 211.366L237.51 235.443C237.536 235.677 237.659 235.894 237.856 236.052C238.052 236.21 238.308 236.297 238.573 236.297C239.745 236.984 241.151 237.284 242.548 237.147C243.457 237.045 244.325 236.753 245.083 236.296C245.359 236.185 246.151 235.841 246.15 235.349C246.15 235.326 246.149 235.303 246.147 235.28L247.181 214.953C247.028 213.085 247.169 211.207 247.601 209.374L254.331 180.828L238.559 179.126Z" fill="#065EA5"/>
<path d="M258.628 236.42C259.627 236.237 260.929 235.881 261.235 235.609C261.334 235.522 261.413 235.417 261.467 235.302C261.52 235.187 261.548 235.064 261.547 234.94L261.544 218.427C261.544 215.2 261.134 211.984 260.322 208.838C260.177 208.274 260.119 207.696 260.15 207.118C260.377 202.866 261.227 184.218 258.835 180.826L243.539 179.827L254.455 235.406C254.543 235.861 256.787 236.758 258.628 236.42Z" fill="#065EA5"/>
<path d="M256.015 201.166L255.934 201.052C258.524 199.593 259.134 195.237 259.14 195.193L259.291 195.209C259.285 195.254 258.667 199.673 256.015 201.166Z" fill="#065082"/>
<path d="M250.311 183.164C241.582 183.165 238.353 180.83 238.312 180.799L238.411 180.696C238.463 180.735 243.755 184.548 259.201 182.344L259.225 182.477C256.279 182.915 253.298 183.145 250.311 183.164Z" fill="#065082"/>
<path d="M244.178 182.631L244.027 182.653L248.423 205.579L248.574 205.556L244.178 182.631Z" fill="#065082"/>
<path d="M245.227 188.316L245.135 188.208L246.283 187.44L245.428 182.851L245.578 182.829L246.448 187.499L245.227 188.316Z" fill="#065082"/>
<path d="M256.018 202.979L255.932 202.868C258.026 201.596 259.134 199.093 259.145 199.068L259.287 199.117C259.276 199.143 258.152 201.684 256.018 202.979Z" fill="#065082"/>
<path d="M242.199 220.595L242.117 220.481C244.708 219.022 245.318 214.666 245.324 214.622L245.475 214.638C245.469 214.682 244.851 219.102 242.199 220.595Z" fill="#065082"/>
<path d="M242.201 222.41L242.115 222.299C244.211 221.026 245.318 218.524 245.329 218.499L245.471 218.548C245.46 218.573 244.335 221.114 242.201 222.41Z" fill="#065082"/>
<path d="M251.894 133.576C250.704 133.281 249.451 133.242 248.24 133.46C247.671 133.573 245.589 133.985 244.387 135.554C243.93 136.151 243.741 136.907 243.364 138.419C243.128 139.364 242.619 140.003 242.459 141.169C242.351 142.116 242.397 143.072 242.596 144.007C242.886 145.469 242.465 146.236 242.669 146.525C243.495 147.692 246.56 147.178 246.414 148.568C246.324 149.426 243.682 151.206 243.933 152.191C245.297 157.543 249.25 160.501 250.734 160.003C250.936 159.935 253.138 153.383 253.158 151.85C253.169 151.031 253.531 144.012 253.672 143.53C254.184 141.79 255.219 141.683 256.305 139.631C256.594 139.117 256.729 138.547 256.698 137.973C256.667 137.4 256.47 136.844 256.126 136.358C255.127 135.019 253.629 134.035 251.894 133.576Z" fill="#F9977A"/>
<path d="M243.979 140.006C244.013 139.759 243.859 139.54 243.635 139.516C243.412 139.492 243.203 139.672 243.169 139.919C243.135 140.165 243.289 140.385 243.513 140.409C243.736 140.433 243.945 140.253 243.979 140.006Z" fill="#0A0709"/>
<path d="M247.631 140.403C247.665 140.156 247.511 139.936 247.288 139.912C247.064 139.888 246.855 140.068 246.821 140.315C246.787 140.562 246.941 140.781 247.165 140.805C247.389 140.83 247.597 140.649 247.631 140.403Z" fill="#0A0709"/>
<path d="M245.628 139.372C245.682 139.374 245.735 139.362 245.781 139.336C245.827 139.31 245.862 139.272 245.882 139.228C245.902 139.183 245.905 139.134 245.892 139.087C245.879 139.041 245.849 138.999 245.808 138.969C245.395 138.654 244.886 138.456 244.346 138.4C243.806 138.343 243.259 138.43 242.775 138.65C242.716 138.681 242.673 138.731 242.655 138.789C242.638 138.848 242.647 138.91 242.681 138.962C242.715 139.015 242.772 139.053 242.838 139.069C242.904 139.084 242.974 139.076 243.033 139.046C243.424 138.868 243.867 138.799 244.303 138.848C244.739 138.896 245.148 139.06 245.477 139.319C245.52 139.35 245.572 139.369 245.628 139.372Z" fill="#1E1D22"/>
<path d="M249.411 139.782C249.465 139.784 249.519 139.772 249.564 139.746C249.61 139.72 249.645 139.682 249.665 139.638C249.685 139.593 249.689 139.544 249.675 139.498C249.662 139.451 249.633 139.41 249.591 139.379C249.178 139.065 248.67 138.866 248.129 138.81C247.589 138.753 247.042 138.84 246.558 139.06C246.499 139.091 246.456 139.141 246.438 139.199C246.421 139.258 246.43 139.32 246.464 139.373C246.498 139.425 246.555 139.463 246.621 139.479C246.687 139.495 246.757 139.486 246.816 139.456C247.207 139.278 247.65 139.208 248.086 139.257C248.522 139.305 248.932 139.47 249.261 139.729C249.303 139.76 249.356 139.779 249.411 139.782Z" fill="#1E1D22"/>
<path d="M245.946 139.502C245.935 139.878 245.807 140.244 245.576 140.56C245.363 140.882 245.105 141.18 244.809 141.447L244.575 141.641C244.478 141.714 244.417 141.817 244.403 141.929C244.4 142.034 244.423 142.138 244.47 142.234C244.517 142.331 244.587 142.417 244.675 142.487C244.845 142.613 245.045 142.703 245.26 142.751C245.475 142.799 245.699 142.804 245.917 142.764C245.708 142.774 245.5 142.748 245.303 142.686C245.107 142.625 244.926 142.529 244.771 142.406C244.634 142.283 244.557 142.117 244.558 141.944C244.566 141.791 244.775 141.696 244.929 141.556C245.23 141.277 245.486 140.962 245.689 140.619C245.91 140.282 246 139.889 245.946 139.502Z" fill="#DD765E"/>
<path d="M252.562 140.371C252.695 140.426 252.817 140.497 252.927 140.583C253.036 140.665 253.133 140.757 253.218 140.858C253.394 141.065 253.554 141.284 253.695 141.511C253.687 141.444 253.669 141.378 253.656 141.311L253.583 141.118C253.523 140.992 253.445 140.873 253.352 140.763C253.261 140.651 253.143 140.557 253.006 140.49C252.87 140.422 252.718 140.381 252.562 140.371Z" fill="#DD765E"/>
<path d="M252.636 142.268C252.63 141.988 252.672 141.709 252.76 141.44C252.8 141.307 252.856 141.178 252.927 141.056C252.992 140.929 253.081 140.813 253.164 140.686C253.027 140.769 252.908 140.875 252.814 140.996C252.718 141.119 252.645 141.255 252.596 141.397C252.498 141.683 252.512 141.99 252.636 142.268Z" fill="#DD765E"/>
<path d="M251.338 142.787C251.373 142.277 251.532 141.779 251.806 141.328C252.185 140.706 252.662 139.854 253.391 139.873C253.928 139.886 254.159 139.785 254.287 140.26C254.5 141.046 253.837 141.817 253.375 142.353C252.714 143.121 252.225 143.251 252.138 143.822C252.071 144.258 253.354 145.295 253.644 145.153C254.235 144.865 254.081 143.791 255.902 141.474C257.053 140.011 257.523 139.764 257.765 138.799C257.851 138.456 258.208 137.038 257.348 136.098C256.949 135.662 256.676 135.752 254.812 134.802C254.293 134.551 253.789 134.275 253.304 133.976C251.842 133.049 251.931 132.662 251.046 132.332C250.247 132.035 250.155 132.343 248.586 132.089C247.074 131.844 246.98 131.529 246.251 131.631C244.986 131.808 244.239 132.903 244.039 133.197C243.65 133.701 243.406 134.282 243.327 134.89C243.31 135.512 243.486 136.127 243.837 136.667C244.011 136.868 244.959 135.921 245.451 135.579C245.934 135.244 246.402 135.453 247.063 135.562C247.708 135.668 247.623 136.023 248.54 136.442C248.867 136.591 250.314 136.194 250.665 136.915C251.038 137.683 251.393 137.81 251.08 138.453C250.884 138.855 250.899 139.377 250.93 140.42C250.951 141.169 249.927 143.664 249.927 143.664C249.617 144.088 251.259 143.926 251.338 142.787Z" fill="#1E1D22"/>
<path d="M246.54 144.435C246.032 144.602 245.494 144.682 244.952 144.67C244.698 144.657 244.449 144.598 244.221 144.498C243.974 144.387 243.738 144.257 243.518 144.108C243.626 144.359 243.812 144.577 244.053 144.739C244.177 144.824 244.314 144.894 244.459 144.946C244.609 144.99 244.763 145.019 244.92 145.033C245.229 145.051 245.539 145.004 245.823 144.895C246.1 144.795 246.346 144.637 246.54 144.435Z" fill="#DD765E"/>
<path d="M245.252 142.741C244.394 142.621 244.285 142.222 242.559 143.802C242.559 143.802 244.294 143.52 247.513 144.588C247.513 144.588 246.481 142.912 245.252 142.741Z" fill="#1E1D22"/>
<path d="M246.145 149.114C247.71 149.178 249.942 147.3 249.942 147.3C248.655 147.733 247.272 147.894 245.902 147.769C246.073 147.836 246.214 147.95 246.306 148.093C246.398 148.237 246.436 148.403 246.414 148.567C246.372 148.765 246.281 148.952 246.145 149.114H246.145Z" fill="#DD765E"/>
<path d="M235.53 162.232L234.3 167.126L229.461 171.485L235.935 172.159L238.328 170.11L239.238 162.6L235.53 162.232Z" fill="#F9977A"/>
<path d="M245.417 149.944L240.14 152.264C239.378 152.599 238.703 153.069 238.155 153.645C237.607 154.222 237.199 154.892 236.957 155.614L234.764 162.14L238.107 162.546C238.211 164.683 238.279 166.871 238.308 169.112C238.362 173.465 238.254 177.64 238.026 181.621C239.822 182.247 241.678 182.729 243.571 183.062C249.011 183.986 254.622 183.724 259.922 182.299C258.299 176.882 257.376 171.319 257.168 165.716L264.544 165.44C264.544 165.44 264.364 162.829 264.038 160.106C263.901 158.969 263.49 157.871 262.832 156.887C262.174 155.903 261.284 155.057 260.224 154.405C259.293 153.832 258.254 153.2 257.233 152.592C256.272 152.021 255.373 151.374 254.546 150.657L253.334 149.605C253.334 149.605 250.271 154.715 247.535 156.334C247.535 156.334 245.096 154.537 245.417 149.944Z" fill="#8B9D36"/>
<path d="M247.946 174.926C243.36 173.719 241.557 169.775 241.539 169.736L241.846 169.628C241.863 169.666 243.612 173.48 248.04 174.645L247.946 174.926Z" fill="#E6952A"/>
<path d="M221.434 167.375L231.106 165.639L253.358 170.487L241.777 173.04L221.434 167.375Z" fill="#B02336"/>
<path d="M253.359 170.489L252.551 183.52L240.662 186.317L241.777 173.042L253.359 170.489Z" fill="#F73C4F"/>
<path d="M237.893 155.963C238.069 157.052 238.172 158.15 238.199 159.25C238.244 160.349 238.214 161.45 238.107 162.546C237.93 161.457 237.827 160.36 237.801 159.26C237.757 158.16 237.787 157.059 237.893 155.963Z" fill="#5E7C24"/>
<path d="M257.168 165.715C256.434 164.441 255.916 163.079 255.632 161.671C255.489 160.965 255.419 160.248 255.422 159.531C255.431 158.813 255.563 158.1 255.814 157.418C255.717 158.117 255.69 158.822 255.733 159.525C255.786 160.224 255.883 160.92 256.023 161.609C256.158 162.3 256.341 162.985 256.531 163.669C256.731 164.351 256.935 165.034 257.168 165.715Z" fill="#5E7C24"/>
<path d="M258.058 165.681L259.467 172.945L252.285 178.961C251.315 178.688 250.31 178.525 249.294 178.475C247.922 178.457 246.149 177.835 246.14 177.98C246.131 178.126 245.342 179.005 248.671 179.662C248.671 179.662 246.385 185.303 244.964 185.303L244.02 185.526C244.02 185.526 244.101 186.061 245.704 185.896C245.704 185.896 249.427 186.077 251.074 183.43L251.563 182.14C255.317 180.665 258.93 178.923 262.365 176.929C263.232 176.438 263.927 175.741 264.369 174.918C264.812 174.095 264.986 173.178 264.871 172.271L263.994 165.459L258.058 165.681Z" fill="#F9977A"/>
<path d="M245.703 185.896C245.953 185.762 246.19 185.608 246.41 185.437C246.627 185.27 246.835 185.093 247.031 184.907C247.234 184.725 247.416 184.526 247.608 184.331C247.794 184.131 247.981 183.93 248.181 183.729C248.135 183.856 248.072 183.977 248.016 184.102C247.948 184.22 247.881 184.34 247.802 184.454C247.644 184.683 247.46 184.897 247.252 185.093C247.043 185.289 246.807 185.462 246.55 185.607C246.294 185.756 246.005 185.855 245.703 185.896Z" fill="#DD765E"/>
<path d="M247.512 185.718C247.767 185.412 248.032 185.146 248.282 184.867C248.537 184.591 248.763 184.312 249.007 183.998C248.973 184.381 248.802 184.745 248.519 185.037C248.254 185.336 247.907 185.571 247.512 185.718Z" fill="#DD765E"/>
<path d="M249.271 185.087C249.288 184.905 249.351 184.728 249.454 184.57C249.551 184.41 249.684 184.269 249.846 184.157C249.874 184.346 249.83 184.538 249.72 184.701C249.62 184.869 249.463 185.004 249.271 185.087Z" fill="#DD765E"/>
<path d="M222.328 126.503C222.408 126.468 222.48 126.418 222.537 126.357C222.595 126.296 222.637 126.225 222.662 126.148C222.687 126.071 222.693 125.991 222.68 125.912C222.668 125.833 222.637 125.757 222.589 125.69C222.541 125.622 222.478 125.564 222.404 125.52C222.329 125.475 222.245 125.445 222.156 125.431C222.068 125.417 221.977 125.419 221.89 125.438C221.803 125.458 221.721 125.493 221.65 125.542C221.567 125.587 221.495 125.646 221.438 125.717C221.381 125.787 221.341 125.867 221.32 125.952C221.268 126.121 221.146 126.267 220.978 126.36C220.81 126.453 220.609 126.486 220.414 126.453C220.253 126.419 220.083 126.434 219.932 126.495C219.781 126.557 219.657 126.661 219.581 126.792C219.527 126.88 219.453 126.956 219.363 127.016C219.273 127.076 219.169 127.118 219.059 127.139C218.954 127.161 218.844 127.16 218.74 127.136C218.635 127.112 218.539 127.066 218.459 127.001C218.253 126.838 217.996 126.735 217.722 126.704C217.448 126.674 217.17 126.718 216.924 126.83C216.668 126.933 216.451 127.1 216.3 127.31C216.149 127.521 216.07 127.765 216.073 128.015C216.084 128.25 216.183 128.475 216.355 128.654C216.528 128.833 216.763 128.955 217.023 129.001C217.145 129.022 217.256 129.077 217.34 129.158C217.425 129.238 217.479 129.34 217.496 129.449C217.508 129.564 217.484 129.68 217.426 129.784C217.369 129.888 217.281 129.976 217.171 130.039C216.615 130.346 216.204 130.821 216.012 131.376C215.82 131.931 215.861 132.529 216.127 133.059C216.195 133.192 216.205 133.343 216.157 133.483C216.109 133.622 216.004 133.742 215.864 133.819C215.457 134.065 215.022 134.363 214.6 134.652C214.071 135.026 213.523 135.377 212.956 135.706C212.219 136.09 211.63 136.663 211.267 137.35C210.904 138.037 210.784 138.805 210.924 139.553C211.096 140.264 211.535 140.903 212.169 141.364C212.803 141.825 213.595 142.082 214.415 142.093C214.534 142.094 214.649 142.126 214.747 142.185C214.845 142.244 214.921 142.328 214.966 142.425C215.008 142.525 215.018 142.634 214.995 142.739C214.972 142.845 214.917 142.942 214.836 143.022C214.184 143.664 213.716 144.437 213.474 145.275C213.231 146.112 213.221 146.989 213.443 147.831C213.682 148.635 214.157 149.37 214.819 149.959C215.482 150.549 216.308 150.973 217.215 151.189C217.297 151.209 217.374 151.245 217.44 151.293C217.505 151.342 217.559 151.402 217.596 151.471C217.632 151.541 217.652 151.616 217.653 151.693C217.655 151.77 217.638 151.847 217.605 151.918C217.332 152.466 217.275 153.08 217.443 153.66C217.611 154.24 217.995 154.754 218.533 155.117C219.113 155.474 219.8 155.668 220.506 155.676C221.212 155.683 221.904 155.503 222.494 155.158C224.158 154.236 224.978 153.849 225.764 153.853C225.879 153.851 225.993 153.877 226.092 153.929C226.191 153.981 226.272 154.056 226.326 154.147C226.43 154.327 226.201 154.534 226.262 154.731C227.015 157.163 230.603 157.09 231.708 156.083C232.688 155.19 233.489 154.179 233.277 153.046C233.168 152.49 232.861 151.979 232.401 151.588C231.942 151.197 231.353 150.947 230.722 150.873C230.609 150.86 230.502 150.818 230.415 150.752C230.328 150.686 230.264 150.599 230.232 150.502C230.201 150.401 230.201 150.294 230.231 150.193C230.262 150.092 230.322 150 230.405 149.925C230.978 149.421 231.396 148.795 231.618 148.107C231.84 147.419 231.859 146.691 231.674 145.995C231.473 145.329 231.065 144.727 230.498 144.256C229.93 143.786 229.225 143.466 228.462 143.333C228.353 143.314 228.253 143.269 228.172 143.202C228.09 143.135 228.032 143.049 228.003 142.955C227.976 142.856 227.978 142.754 228.007 142.656C228.037 142.558 228.094 142.469 228.173 142.396C230.304 140.359 230.485 137.433 228.602 135.525C226.716 133.617 223.335 133.302 220.653 134.785C220.582 134.833 220.5 134.869 220.413 134.888C220.326 134.907 220.235 134.909 220.146 134.895C220.058 134.881 219.974 134.851 219.899 134.807C219.825 134.762 219.762 134.704 219.714 134.636C219.666 134.569 219.635 134.493 219.623 134.414C219.61 134.335 219.616 134.255 219.641 134.178C219.666 134.102 219.708 134.03 219.766 133.969C219.823 133.908 219.895 133.858 219.975 133.823C220.477 133.562 220.874 133.169 221.113 132.699C221.353 132.229 221.421 131.704 221.31 131.198C221.175 130.717 220.857 130.291 220.41 129.994C219.963 129.696 219.413 129.544 218.854 129.563C218.729 129.567 218.606 129.537 218.501 129.477C218.396 129.417 218.314 129.331 218.266 129.229C218.222 129.122 218.214 129.007 218.242 128.897C218.27 128.786 218.333 128.685 218.424 128.606C218.607 128.437 218.734 128.227 218.791 127.998C218.816 127.901 218.865 127.81 218.934 127.732C219.004 127.654 219.093 127.591 219.194 127.547C219.292 127.503 219.4 127.478 219.51 127.477C219.62 127.475 219.73 127.496 219.829 127.538C219.927 127.581 220.035 127.604 220.145 127.604C220.255 127.603 220.363 127.58 220.46 127.535C220.56 127.492 220.648 127.429 220.717 127.351C220.786 127.273 220.834 127.182 220.857 127.085C220.908 126.916 221.03 126.77 221.198 126.677C221.366 126.584 221.567 126.551 221.762 126.584C221.857 126.605 221.957 126.608 222.054 126.594C222.151 126.58 222.244 126.549 222.328 126.503V126.503Z" fill="#F65B2B"/>
<path d="M220.911 129.477C220.962 129.455 221.007 129.424 221.043 129.386C221.079 129.347 221.106 129.302 221.121 129.254C221.136 129.206 221.14 129.156 221.132 129.106C221.125 129.057 221.105 129.009 221.075 128.967C221.045 128.924 221.006 128.888 220.959 128.86C220.912 128.832 220.859 128.813 220.804 128.804C220.748 128.796 220.691 128.797 220.637 128.809C220.582 128.821 220.53 128.843 220.486 128.874C220.434 128.902 220.388 128.94 220.353 128.984C220.317 129.028 220.292 129.078 220.279 129.131C220.246 129.238 220.17 129.329 220.065 129.388C219.959 129.446 219.833 129.467 219.711 129.446C219.609 129.424 219.503 129.434 219.408 129.472C219.313 129.511 219.236 129.576 219.188 129.659C219.154 129.714 219.107 129.762 219.051 129.799C218.994 129.837 218.929 129.863 218.86 129.876C218.794 129.89 218.726 129.889 218.66 129.874C218.595 129.859 218.534 129.83 218.484 129.79C218.355 129.687 218.193 129.622 218.021 129.603C217.849 129.584 217.675 129.612 217.521 129.683C217.36 129.747 217.224 129.852 217.129 129.984C217.034 130.116 216.985 130.269 216.987 130.426C216.994 130.573 217.056 130.714 217.164 130.827C217.272 130.939 217.42 131.015 217.583 131.044C217.659 131.058 217.729 131.092 217.782 131.143C217.835 131.193 217.869 131.257 217.879 131.325C217.887 131.398 217.872 131.471 217.836 131.536C217.8 131.601 217.745 131.656 217.676 131.696C217.327 131.888 217.069 132.186 216.948 132.534C216.828 132.883 216.854 133.258 217.021 133.59C217.063 133.674 217.07 133.769 217.04 133.856C217.009 133.944 216.944 134.019 216.856 134.067C216.601 134.221 216.327 134.409 216.062 134.59C215.731 134.825 215.387 135.045 215.031 135.251C214.569 135.492 214.199 135.852 213.971 136.283C213.744 136.714 213.669 137.196 213.756 137.665C213.864 138.111 214.14 138.512 214.537 138.801C214.935 139.091 215.432 139.252 215.947 139.258C216.021 139.259 216.094 139.279 216.155 139.316C216.216 139.353 216.264 139.406 216.292 139.467C216.319 139.53 216.325 139.598 216.311 139.664C216.296 139.73 216.262 139.791 216.211 139.841C215.801 140.244 215.508 140.729 215.356 141.255C215.204 141.78 215.197 142.33 215.337 142.858C215.487 143.363 215.785 143.824 216.2 144.194C216.616 144.564 217.134 144.83 217.703 144.965C217.755 144.978 217.803 145 217.844 145.031C217.886 145.061 217.919 145.099 217.943 145.142C217.965 145.186 217.978 145.234 217.979 145.282C217.979 145.33 217.969 145.378 217.948 145.423C217.777 145.767 217.741 146.152 217.846 146.516C217.952 146.88 218.193 147.202 218.53 147.43C218.894 147.654 219.325 147.776 219.768 147.78C220.211 147.785 220.646 147.672 221.015 147.456C222.06 146.877 222.574 146.635 223.067 146.637C223.139 146.635 223.211 146.652 223.273 146.685C223.335 146.717 223.386 146.765 223.42 146.822C223.485 146.935 223.341 147.064 223.379 147.188C223.852 148.714 226.103 148.668 226.796 148.036C227.411 147.476 227.914 146.842 227.781 146.131C227.712 145.782 227.52 145.461 227.231 145.216C226.943 144.971 226.574 144.814 226.178 144.767C226.107 144.759 226.04 144.733 225.985 144.691C225.931 144.65 225.891 144.596 225.87 144.535C225.851 144.471 225.851 144.404 225.87 144.341C225.889 144.277 225.927 144.219 225.979 144.173C226.339 143.856 226.6 143.463 226.74 143.032C226.879 142.6 226.891 142.144 226.775 141.707C226.649 141.289 226.393 140.911 226.037 140.616C225.681 140.321 225.238 140.12 224.76 140.036C224.692 140.025 224.629 139.996 224.578 139.954C224.527 139.912 224.49 139.859 224.472 139.799C224.455 139.738 224.456 139.673 224.475 139.612C224.493 139.551 224.529 139.494 224.579 139.449C225.915 138.171 226.029 136.335 224.848 135.138C223.664 133.94 221.543 133.743 219.861 134.673C219.816 134.704 219.765 134.726 219.71 134.738C219.655 134.75 219.598 134.752 219.543 134.743C219.487 134.734 219.434 134.715 219.388 134.687C219.341 134.659 219.301 134.623 219.271 134.58C219.241 134.538 219.222 134.49 219.214 134.441C219.206 134.391 219.21 134.341 219.225 134.293C219.241 134.245 219.268 134.2 219.304 134.162C219.34 134.123 219.385 134.092 219.435 134.07C219.75 133.906 219.999 133.66 220.149 133.365C220.299 133.07 220.342 132.741 220.273 132.423C220.188 132.121 219.989 131.854 219.708 131.667C219.427 131.48 219.083 131.385 218.732 131.397C218.654 131.399 218.576 131.381 218.511 131.343C218.445 131.306 218.393 131.251 218.363 131.187C218.335 131.121 218.33 131.048 218.348 130.979C218.365 130.91 218.405 130.846 218.462 130.797C218.577 130.691 218.656 130.559 218.692 130.415C218.708 130.354 218.739 130.297 218.782 130.248C218.826 130.2 218.882 130.16 218.945 130.133C219.006 130.104 219.074 130.089 219.143 130.088C219.213 130.087 219.281 130.1 219.344 130.126C219.405 130.154 219.473 130.168 219.542 130.168C219.611 130.168 219.678 130.153 219.739 130.125C219.802 130.098 219.858 130.058 219.901 130.009C219.944 129.96 219.974 129.903 219.988 129.843C220.021 129.736 220.097 129.645 220.202 129.586C220.308 129.528 220.434 129.507 220.556 129.528C220.616 129.541 220.678 129.543 220.739 129.534C220.8 129.526 220.859 129.506 220.911 129.477L220.911 129.477Z" fill="#FFBA55"/>
<path d="M214.124 106.66C214.124 106.66 210.979 98.2962 202.101 96.8203L202.078 96.8271C195.974 102.731 199.118 111.094 199.118 111.094L208.182 135.2L223.187 130.766L214.124 106.66Z" fill="#F73C4F"/>
<path d="M201.834 140.9C201.834 140.9 196.585 133.842 204.157 124.498L208.18 135.198C208.18 135.198 204.1 136.268 201.834 140.9Z" fill="#B02336"/>
<path d="M232.07 131.964C232.07 131.964 231.492 123.525 219.111 120.078L223.134 130.778C223.134 130.778 227.123 129.463 232.07 131.964Z" fill="#B02336"/>
<path d="M221.303 131.322L210.066 134.643L211.176 137.594L222.413 134.274L221.303 131.322Z" fill="#6C7FD8"/>
<path d="M216.977 137.237C216.785 137.237 216.598 137.183 216.443 137.084C216.287 136.984 216.171 136.844 216.11 136.682L210.793 122.539C210.716 122.335 210.734 122.113 210.843 121.921C210.951 121.729 211.141 121.583 211.371 121.515C211.6 121.447 211.851 121.463 212.068 121.559C212.284 121.655 212.449 121.823 212.526 122.026L217.844 136.17C217.89 136.292 217.902 136.421 217.88 136.548C217.858 136.675 217.803 136.795 217.718 136.9C217.633 137.004 217.522 137.088 217.393 137.147C217.265 137.206 217.122 137.236 216.977 137.237V137.237Z" fill="#B02336"/>
<path d="M208.943 118.718C211.225 118.718 213.074 117.079 213.074 115.056C213.074 113.033 211.225 111.394 208.943 111.394C206.662 111.394 204.812 113.033 204.812 115.056C204.812 117.079 206.662 118.718 208.943 118.718Z" fill="#6C7FD8"/>
<path d="M214.124 106.66C205.003 105.665 199.118 111.094 199.118 111.094C199.118 111.094 195.974 102.731 202.078 96.8271L202.101 96.8203C210.979 98.2962 214.124 106.66 214.124 106.66Z" fill="#6C7FD8"/>
<path d="M231.105 165.639C231.107 166.945 231.064 168.249 231.016 169.552C230.971 170.856 230.896 172.158 230.82 173.46C230.735 174.762 230.649 176.064 230.532 177.364L230.356 179.315C230.283 179.964 230.223 180.614 230.137 181.263C230.133 180.61 230.154 179.958 230.161 179.305L230.226 177.349C230.271 176.046 230.346 174.743 230.423 173.441C230.508 172.139 230.594 170.838 230.711 169.537C230.824 168.237 230.943 166.937 231.105 165.639Z" fill="#8C1428"/>
<path d="M221.432 167.376L221.238 180.697L240.661 186.317L241.776 173.041L221.432 167.376Z" fill="#F73C4F"/>
<path d="M241.495 172.863C241.508 173.988 241.477 175.112 241.439 176.234C241.406 177.357 241.342 178.479 241.277 179.6C241.203 180.721 241.129 181.842 241.023 182.961L240.863 184.64C240.796 185.199 240.742 185.759 240.662 186.317C240.651 185.754 240.667 185.193 240.668 184.631L240.717 182.946C240.751 181.823 240.815 180.702 240.88 179.581C240.954 178.46 241.029 177.339 241.135 176.219C241.236 175.1 241.344 173.98 241.495 172.863Z" fill="#B02336"/>
<path d="M215.947 139.257C216.319 140.25 216.652 141.253 217.006 142.25L218.003 145.258C218.668 147.264 219.285 149.281 219.903 151.297C220.507 153.317 221.109 155.337 221.666 157.368L222.5 160.415C222.756 161.436 223.032 162.452 223.271 163.477C222.899 162.484 222.565 161.482 222.211 160.484L221.214 157.476C220.55 155.47 219.932 153.454 219.315 151.437C218.712 149.417 218.109 147.397 217.553 145.365L216.719 142.318C216.463 141.298 216.186 140.282 215.947 139.257Z" fill="#F9E0C0"/>
<path d="M222.254 143.358C222.74 144.402 223.189 145.456 223.657 146.505L225 149.67C225.894 151.78 226.744 153.904 227.593 156.028C228.428 158.157 229.262 160.286 230.052 162.429L231.235 165.643C231.608 166.721 232.001 167.793 232.357 168.877C231.871 167.834 231.422 166.779 230.953 165.731L229.61 162.566C228.716 160.456 227.866 158.332 227.018 156.207C226.183 154.078 225.349 151.949 224.56 149.807L223.377 146.592C223.003 145.514 222.61 144.442 222.254 143.358Z" fill="#F9E0C0"/>
<path d="M222.6 137.793C224.873 140.802 226.988 143.894 229.064 147.006C231.124 150.126 233.144 153.267 235.004 156.492C232.729 153.484 230.614 150.392 228.539 147.28C226.48 144.159 224.46 141.017 222.6 137.793Z" fill="#F9E0C0"/>
<path d="M192.707 99.1641C193.282 101.864 193.673 104.582 194.019 107.304C194.347 110.028 194.629 112.756 194.726 115.502C194.15 112.802 193.759 110.085 193.414 107.363C193.087 104.639 192.805 101.91 192.707 99.1641Z" fill="#F9E0C0"/>
<path d="M222.166 109.228C224.426 111.973 226.53 114.806 228.597 117.66C230.647 120.524 232.659 123.409 234.514 126.383C232.253 123.639 230.149 120.806 228.083 117.951C226.034 115.087 224.022 112.201 222.166 109.228Z" fill="#F9E0C0"/>
<path d="M196.545 110.969C196.834 111.84 197.064 112.72 197.272 113.603C197.485 114.486 197.662 115.373 197.833 116.262C197.992 117.152 198.144 118.044 198.261 118.94C198.381 119.836 198.48 120.735 198.52 121.643C198.23 120.771 198 119.892 197.791 119.008C197.579 118.126 197.402 117.238 197.232 116.349C197.073 115.459 196.922 114.568 196.805 113.671C196.685 112.775 196.585 111.876 196.545 110.969Z" fill="#F9E0C0"/>
<path d="M218.719 108.325C219.179 108.892 219.606 109.478 219.999 110.084C220.398 110.682 220.766 111.295 221.128 111.91C221.479 112.531 221.824 113.154 222.137 113.791C222.461 114.428 222.747 115.079 222.994 115.741C222.533 115.175 222.106 114.589 221.714 113.983C221.314 113.385 220.946 112.772 220.585 112.156C220.235 111.536 219.89 110.912 219.577 110.275C219.253 109.638 218.967 108.988 218.719 108.325Z" fill="#F9E0C0"/>
<path d="M299.533 112.812H269.357C268.917 112.812 268.561 113.129 268.561 113.519V165.894C268.561 166.285 268.917 166.601 269.357 166.601H299.533C299.973 166.601 300.329 166.285 300.329 165.894V113.519C300.329 113.129 299.973 112.812 299.533 112.812Z" fill="#A2AEE6"/>
<path d="M282.895 114.147H270.863C270.423 114.147 270.066 114.464 270.066 114.854V129.59C270.066 129.98 270.423 130.297 270.863 130.297H282.895C283.335 130.297 283.692 129.98 283.692 129.59V114.854C283.692 114.464 283.335 114.147 282.895 114.147Z" fill="#E5E1E5"/>
<path d="M298.028 114.147H285.996C285.556 114.147 285.199 114.464 285.199 114.854V129.59C285.199 129.98 285.556 130.297 285.996 130.297H298.028C298.468 130.297 298.825 129.98 298.825 129.59V114.854C298.825 114.464 298.468 114.147 298.028 114.147Z" fill="#E5E1E5"/>
<path d="M282.895 131.632H270.863C270.423 131.632 270.066 131.948 270.066 132.338V147.075C270.066 147.465 270.423 147.781 270.863 147.781H282.895C283.335 147.781 283.692 147.465 283.692 147.075V132.338C283.692 131.948 283.335 131.632 282.895 131.632Z" fill="#E5E1E5"/>
<path d="M298.028 131.632H285.996C285.556 131.632 285.199 131.948 285.199 132.338V147.075C285.199 147.465 285.556 147.781 285.996 147.781H298.028C298.468 147.781 298.825 147.465 298.825 147.075V132.338C298.825 131.948 298.468 131.632 298.028 131.632Z" fill="#E5E1E5"/>
<path d="M282.895 149.116H270.863C270.423 149.116 270.066 149.432 270.066 149.823V164.559C270.066 164.949 270.423 165.265 270.863 165.265H282.895C283.335 165.265 283.692 164.949 283.692 164.559V149.823C283.692 149.432 283.335 149.116 282.895 149.116Z" fill="#E5E1E5"/>
<path d="M298.028 149.116H285.996C285.556 149.116 285.199 149.432 285.199 149.823V164.559C285.199 164.949 285.556 165.265 285.996 165.265H298.028C298.468 165.265 298.825 164.949 298.825 164.559V149.823C298.825 149.432 298.468 149.116 298.028 149.116Z" fill="#E5E1E5"/>
<path d="M271.537 126.97C272.211 125.996 272.921 125.044 273.636 124.095C274.347 123.144 275.084 122.209 275.821 121.274C276.565 120.343 277.311 119.414 278.081 118.5L279.238 117.129C279.636 116.68 280.022 116.223 280.43 115.78C280.096 116.27 279.741 116.746 279.398 117.229L278.332 118.656C277.62 119.607 276.884 120.542 276.146 121.477C275.401 122.407 274.656 123.337 273.885 124.251C273.118 125.167 272.345 126.08 271.537 126.97Z" fill="#A2AEE6"/>
<path d="M273.344 129.203C274.018 128.228 274.727 127.276 275.442 126.327C276.153 125.376 276.89 124.441 277.627 123.506C278.372 122.576 279.117 121.646 279.888 120.732L281.045 119.362C281.442 118.912 281.829 118.456 282.236 118.013C281.903 118.502 281.548 118.978 281.204 119.461L280.138 120.888C279.427 121.839 278.69 122.775 277.953 123.709C277.208 124.639 276.462 125.569 275.691 126.483C274.924 127.399 274.152 128.312 273.344 129.203Z" fill="#A2AEE6"/>
<path d="M286.662 126.97C287.336 125.996 288.046 125.044 288.761 124.095C289.472 123.144 290.209 122.209 290.946 121.274C291.69 120.343 292.436 119.414 293.206 118.5L294.363 117.129C294.761 116.68 295.147 116.223 295.555 115.78C295.221 116.27 294.866 116.746 294.523 117.229L293.457 118.656C292.745 119.607 292.008 120.542 291.271 121.477C290.526 122.407 289.781 123.337 289.01 124.251C288.243 125.167 287.47 126.08 286.662 126.97Z" fill="#A2AEE6"/>
<path d="M288.469 129.203C289.143 128.228 289.852 127.276 290.567 126.327C291.278 125.376 292.015 124.441 292.752 123.506C293.497 122.576 294.242 121.646 295.013 120.732L296.17 119.362C296.567 118.912 296.954 118.456 297.361 118.013C297.028 118.502 296.673 118.978 296.329 119.461L295.263 120.888C294.552 121.839 293.815 122.775 293.078 123.709C292.333 124.639 291.587 125.569 290.817 126.483C290.049 127.399 289.277 128.312 288.469 129.203Z" fill="#A2AEE6"/>
<path d="M271.537 143.832C272.211 142.857 272.921 141.905 273.636 140.956C274.347 140.005 275.084 139.07 275.821 138.135C276.565 137.205 277.311 136.275 278.081 135.361L279.238 133.99C279.636 133.541 280.022 133.085 280.43 132.642C280.096 133.131 279.741 133.607 279.398 134.09L278.332 135.517C277.62 136.468 276.884 137.403 276.146 138.338C275.401 139.268 274.656 140.198 273.885 141.112C273.118 142.028 272.345 142.941 271.537 143.832Z" fill="#A2AEE6"/>
<path d="M273.344 146.065C274.018 145.091 274.727 144.138 275.442 143.19C276.153 142.239 276.89 141.303 277.627 140.368C278.372 139.438 279.117 138.508 279.888 137.594L281.045 136.224C281.442 135.775 281.829 135.318 282.236 134.875C281.903 135.364 281.548 135.84 281.204 136.324L280.138 137.751C279.427 138.702 278.69 139.637 277.953 140.572C277.208 141.502 276.462 142.432 275.691 143.345C274.924 144.262 274.152 145.174 273.344 146.065Z" fill="#A2AEE6"/>
<path d="M286.662 143.832C287.336 142.857 288.046 141.905 288.761 140.956C289.472 140.005 290.209 139.07 290.946 138.135C291.69 137.205 292.436 136.275 293.206 135.361L294.363 133.99C294.761 133.541 295.147 133.085 295.555 132.642C295.221 133.131 294.866 133.607 294.523 134.09L293.457 135.517C292.745 136.468 292.008 137.403 291.271 138.338C290.526 139.268 289.781 140.198 289.01 141.112C288.243 142.028 287.47 142.941 286.662 143.832Z" fill="#A2AEE6"/>
<path d="M288.469 146.065C289.143 145.091 289.852 144.138 290.567 143.19C291.278 142.239 292.015 141.303 292.752 140.368C293.497 139.438 294.242 138.508 295.013 137.594L296.17 136.224C296.567 135.775 296.954 135.318 297.361 134.875C297.028 135.364 296.673 135.84 296.329 136.324L295.263 137.751C294.552 138.702 293.815 139.637 293.078 140.572C292.333 141.502 291.587 142.432 290.817 143.345C290.049 144.262 289.277 145.174 288.469 146.065Z" fill="#A2AEE6"/>
<path d="M271.537 161.296C272.211 160.322 272.921 159.37 273.636 158.421C274.347 157.47 275.084 156.535 275.821 155.6C276.565 154.67 277.311 153.74 278.081 152.826L279.238 151.455C279.636 151.006 280.022 150.55 280.43 150.106C280.096 150.596 279.741 151.072 279.398 151.555L278.332 152.982C277.62 153.933 276.884 154.868 276.146 155.803C275.401 156.733 274.656 157.663 273.885 158.577C273.118 159.493 272.345 160.406 271.537 161.296Z" fill="#A2AEE6"/>
<path d="M273.344 163.529C274.018 162.554 274.727 161.602 275.442 160.653C276.153 159.702 276.89 158.767 277.627 157.832C278.372 156.902 279.117 155.972 279.888 155.058L281.045 153.688C281.442 153.238 281.829 152.782 282.236 152.339C281.903 152.828 281.548 153.304 281.204 153.787L280.138 155.215C279.427 156.166 278.69 157.101 277.953 158.036C277.208 158.965 276.462 159.895 275.691 160.809C274.924 161.725 274.152 162.638 273.344 163.529Z" fill="#A2AEE6"/>
<path d="M286.662 161.296C287.336 160.322 288.046 159.37 288.761 158.421C289.472 157.47 290.209 156.535 290.946 155.6C291.69 154.67 292.436 153.74 293.206 152.826L294.363 151.455C294.761 151.006 295.147 150.55 295.555 150.106C295.221 150.596 294.866 151.072 294.523 151.555L293.457 152.982C292.745 153.933 292.008 154.868 291.271 155.803C290.526 156.733 289.781 157.663 289.01 158.577C288.243 159.493 287.47 160.406 286.662 161.296Z" fill="#A2AEE6"/>
<path d="M288.469 163.529C289.143 162.554 289.852 161.602 290.567 160.653C291.278 159.702 292.015 158.767 292.752 157.832C293.497 156.902 294.242 155.972 295.013 155.058L296.17 153.688C296.567 153.238 296.954 152.782 297.361 152.339C297.028 152.828 296.673 153.304 296.329 153.787L295.263 155.215C294.552 156.166 293.815 157.101 293.078 158.036C292.333 158.965 291.587 159.895 290.817 160.809C290.049 161.725 289.277 162.638 288.469 163.529Z" fill="#A2AEE6"/>
<path d="M300.33 243.821H101.127C101.021 243.821 100.92 243.783 100.845 243.717C100.77 243.651 100.729 243.561 100.729 243.467C100.729 243.374 100.77 243.284 100.845 243.218C100.92 243.151 101.021 243.114 101.127 243.114H300.33C300.436 243.114 300.537 243.151 300.612 243.218C300.687 243.284 300.729 243.374 300.729 243.467C300.729 243.561 300.687 243.651 300.612 243.717C300.537 243.783 300.436 243.821 300.33 243.821Z" fill="#935B50"/>
<path d="M150.181 131.228H146.944C145.971 131.228 145.182 131.927 145.182 132.79V135.66C145.182 136.523 145.971 137.222 146.944 137.222H150.181C151.154 137.222 151.943 136.523 151.943 135.66V132.79C151.943 131.927 151.154 131.228 150.181 131.228Z" fill="#DC8758"/>
<path d="M130.2 243.468H127.461L138.56 199.237L144.151 200.572L130.2 243.468Z" fill="#DC8758"/>
<path d="M167.259 243.468H169.997L158.898 199.237L153.307 200.572L167.259 243.468Z" fill="#DC8758"/>
<path d="M194.642 134.764H102.302C101.653 134.764 101.127 135.23 101.127 135.805V204.27C101.127 204.845 101.653 205.312 102.302 205.312H194.642C195.291 205.312 195.817 204.845 195.817 204.27V135.805C195.817 135.23 195.291 134.764 194.642 134.764Z" fill="#FFE3CB"/>
<path d="M163.576 202.688H133.85C133.347 202.688 132.939 203.049 132.939 203.495V205.699C132.939 206.144 133.347 206.506 133.85 206.506H163.576C164.079 206.506 164.487 206.144 164.487 205.699V203.495C164.487 203.049 164.079 202.688 163.576 202.688Z" fill="#DC8758"/>
<path d="M123.176 155.847V156.984H122.686C122.58 156.984 122.479 157.021 122.404 157.087C122.329 157.153 122.287 157.243 122.287 157.337C122.287 157.431 122.329 157.52 122.404 157.587C122.479 157.653 122.58 157.69 122.686 157.69H123.176V157.871C123.177 158.124 123.29 158.366 123.492 158.544C123.693 158.723 123.966 158.824 124.251 158.824H126.152C126.437 158.824 126.71 158.723 126.912 158.545C127.113 158.366 127.227 158.124 127.227 157.871V157.69H127.72C127.826 157.69 127.927 157.653 128.002 157.587C128.077 157.52 128.119 157.431 128.119 157.337C128.119 157.243 128.077 157.153 128.002 157.087C127.927 157.021 127.826 156.984 127.72 156.984H127.227V155.847H123.176Z" fill="#6C7FD8"/>
<path d="M119.763 148.194C119.671 148.893 119.752 149.601 120 150.27C120.248 150.938 120.657 151.551 121.198 152.066L121.372 152.227C122.159 152.973 122.517 153.309 122.517 154.294C122.517 154.518 122.617 154.733 122.796 154.891C122.974 155.049 123.216 155.138 123.469 155.138H126.932C127.059 155.137 127.185 155.114 127.302 155.07C127.418 155.026 127.524 154.961 127.613 154.88C127.701 154.799 127.771 154.704 127.817 154.599C127.863 154.494 127.886 154.382 127.882 154.269C127.882 153.327 128.258 152.969 129.003 152.26L129.238 152.034C129.82 151.469 130.243 150.791 130.472 150.054C130.702 149.317 130.732 148.543 130.56 147.793C130.388 147.044 130.019 146.342 129.482 145.743C128.946 145.145 128.257 144.667 127.473 144.349C126.689 144.031 125.831 143.882 124.969 143.914C124.108 143.946 123.267 144.158 122.515 144.533C121.764 144.908 121.123 145.435 120.644 146.071C120.166 146.707 119.864 147.435 119.763 148.194Z" fill="#FFBA55"/>
<path d="M135.33 153.626H132.939C132.834 153.626 132.732 153.589 132.658 153.523C132.583 153.457 132.541 153.367 132.541 153.273C132.541 153.179 132.583 153.09 132.658 153.023C132.732 152.957 132.834 152.92 132.939 152.92H135.33C135.436 152.92 135.537 152.957 135.612 153.023C135.686 153.09 135.728 153.179 135.728 153.273C135.728 153.367 135.686 153.457 135.612 153.523C135.537 153.589 135.436 153.626 135.33 153.626Z" fill="#6C7FD8"/>
<path d="M169.448 153.626H165.183C165.078 153.626 164.976 153.589 164.902 153.523C164.827 153.457 164.785 153.367 164.785 153.273C164.785 153.179 164.827 153.09 164.902 153.023C164.976 152.957 165.078 152.92 165.183 152.92H169.448C169.554 152.92 169.655 152.957 169.73 153.023C169.805 153.09 169.847 153.179 169.847 153.273C169.847 153.367 169.805 153.457 169.73 153.523C169.655 153.589 169.554 153.626 169.448 153.626ZM160.918 153.626H156.653C156.548 153.626 156.446 153.589 156.372 153.523C156.297 153.457 156.255 153.367 156.255 153.273C156.255 153.179 156.297 153.09 156.372 153.023C156.446 152.957 156.548 152.92 156.653 152.92H160.918C161.024 152.92 161.125 152.957 161.2 153.023C161.275 153.09 161.317 153.179 161.317 153.273C161.317 153.367 161.275 153.457 161.2 153.523C161.125 153.589 161.024 153.626 160.918 153.626ZM152.389 153.626H148.124C148.018 153.626 147.917 153.589 147.842 153.523C147.767 153.457 147.725 153.367 147.725 153.273C147.725 153.179 147.767 153.09 147.842 153.023C147.917 152.957 148.018 152.92 148.124 152.92H152.389C152.494 152.92 152.596 152.957 152.67 153.023C152.745 153.09 152.787 153.179 152.787 153.273C152.787 153.367 152.745 153.457 152.67 153.523C152.596 153.589 152.494 153.626 152.389 153.626ZM143.859 153.626H139.594C139.488 153.626 139.387 153.589 139.312 153.523C139.237 153.457 139.195 153.367 139.195 153.273C139.195 153.179 139.237 153.09 139.312 153.023C139.387 152.957 139.488 152.92 139.594 152.92H143.859C143.964 152.92 144.066 152.957 144.14 153.023C144.215 153.09 144.257 153.179 144.257 153.273C144.257 153.367 144.215 153.457 144.14 153.523C144.066 153.589 143.964 153.626 143.859 153.626Z" fill="#6C7FD8"/>
<path d="M176.105 155.746C176.053 155.746 176.001 155.737 175.953 155.719C175.904 155.701 175.861 155.675 175.824 155.642C175.787 155.609 175.757 155.571 175.737 155.528C175.717 155.485 175.707 155.439 175.707 155.392V153.626H173.715C173.609 153.626 173.508 153.589 173.433 153.523C173.358 153.457 173.316 153.367 173.316 153.273C173.316 153.179 173.358 153.09 173.433 153.023C173.508 152.957 173.609 152.92 173.715 152.92H176.105C176.158 152.92 176.209 152.929 176.258 152.947C176.306 152.965 176.35 152.991 176.387 153.023C176.424 153.056 176.453 153.095 176.473 153.138C176.493 153.181 176.504 153.227 176.504 153.273V155.392C176.504 155.439 176.493 155.485 176.473 155.528C176.453 155.571 176.424 155.609 176.387 155.642C176.35 155.675 176.306 155.701 176.258 155.719C176.209 155.737 176.158 155.746 176.105 155.746Z" fill="#6C7FD8"/>
<path d="M176.105 163.333H173.715C173.609 163.333 173.508 163.295 173.433 163.229C173.358 163.163 173.316 163.073 173.316 162.979C173.316 162.886 173.358 162.796 173.433 162.73C173.508 162.663 173.609 162.626 173.715 162.626H175.707V160.86C175.707 160.766 175.749 160.677 175.824 160.61C175.898 160.544 176 160.507 176.105 160.507C176.211 160.507 176.312 160.544 176.387 160.61C176.462 160.677 176.504 160.766 176.504 160.86V162.979C176.504 163.026 176.493 163.072 176.473 163.115C176.453 163.157 176.424 163.196 176.387 163.229C176.35 163.262 176.306 163.288 176.258 163.306C176.209 163.323 176.158 163.333 176.105 163.333Z" fill="#6C7FD8"/>
<path d="M169.191 163.332H164.669C164.564 163.332 164.462 163.295 164.388 163.229C164.313 163.163 164.271 163.073 164.271 162.979C164.271 162.886 164.313 162.796 164.388 162.729C164.462 162.663 164.564 162.626 164.669 162.626H169.191C169.297 162.626 169.398 162.663 169.473 162.729C169.548 162.796 169.59 162.886 169.59 162.979C169.59 163.073 169.548 163.163 169.473 163.229C169.398 163.295 169.297 163.332 169.191 163.332ZM160.147 163.332H155.625C155.519 163.332 155.418 163.295 155.343 163.229C155.269 163.163 155.227 163.073 155.227 162.979C155.227 162.886 155.269 162.796 155.343 162.729C155.418 162.663 155.519 162.626 155.625 162.626H160.147C160.253 162.626 160.354 162.663 160.429 162.729C160.504 162.796 160.546 162.886 160.546 162.979C160.546 163.073 160.504 163.163 160.429 163.229C160.354 163.295 160.253 163.332 160.147 163.332H160.147Z" fill="#6C7FD8"/>
<path d="M148.713 165.452C148.661 165.452 148.609 165.443 148.56 165.425C148.512 165.407 148.468 165.381 148.431 165.348C148.394 165.316 148.365 165.277 148.345 165.234C148.325 165.191 148.314 165.145 148.314 165.099V162.979C148.314 162.933 148.325 162.887 148.345 162.844C148.365 162.801 148.394 162.762 148.431 162.729C148.468 162.697 148.512 162.671 148.56 162.653C148.609 162.635 148.661 162.626 148.713 162.626H151.103C151.209 162.626 151.31 162.663 151.385 162.729C151.46 162.796 151.502 162.886 151.502 162.979C151.502 163.073 151.46 163.163 151.385 163.229C151.31 163.295 151.209 163.332 151.103 163.332H149.111V165.099C149.111 165.145 149.101 165.191 149.081 165.234C149.061 165.277 149.032 165.316 148.995 165.348C148.958 165.381 148.914 165.407 148.865 165.425C148.817 165.443 148.765 165.452 148.713 165.452Z" fill="#6C7FD8"/>
<path d="M148.715 170.392H146.324C146.219 170.392 146.117 170.355 146.042 170.289C145.968 170.222 145.926 170.133 145.926 170.039C145.926 169.945 145.968 169.855 146.042 169.789C146.117 169.723 146.219 169.686 146.324 169.686H148.316V167.92C148.316 167.826 148.358 167.736 148.433 167.67C148.508 167.604 148.609 167.566 148.715 167.566C148.82 167.566 148.922 167.604 148.996 167.67C149.071 167.736 149.113 167.826 149.113 167.92V170.039C149.113 170.085 149.103 170.131 149.083 170.174C149.063 170.217 149.033 170.256 148.996 170.289C148.959 170.322 148.915 170.348 148.867 170.365C148.819 170.383 148.767 170.392 148.715 170.392Z" fill="#6C7FD8"/>
<path d="M140.885 170.392H135.446C135.34 170.392 135.239 170.355 135.164 170.289C135.09 170.222 135.048 170.132 135.048 170.039C135.048 169.945 135.09 169.855 135.164 169.789C135.239 169.723 135.34 169.686 135.446 169.686H140.885C140.991 169.686 141.092 169.723 141.167 169.789C141.241 169.855 141.283 169.945 141.283 170.039C141.283 170.132 141.241 170.222 141.167 170.289C141.092 170.355 140.991 170.392 140.885 170.392ZM130.007 170.392H124.568C124.463 170.392 124.361 170.355 124.287 170.289C124.212 170.222 124.17 170.132 124.17 170.039C124.17 169.945 124.212 169.855 124.287 169.789C124.361 169.723 124.463 169.686 124.568 169.686H130.007C130.113 169.686 130.214 169.723 130.289 169.789C130.364 169.855 130.406 169.945 130.406 170.039C130.406 170.132 130.364 170.222 130.289 170.289C130.214 170.355 130.113 170.392 130.007 170.392Z" fill="#6C7FD8"/>
<path d="M116.738 172.511C116.686 172.511 116.634 172.502 116.586 172.484C116.537 172.467 116.494 172.441 116.457 172.408C116.42 172.375 116.39 172.336 116.37 172.293C116.35 172.25 116.34 172.204 116.34 172.158V170.039C116.34 169.992 116.35 169.946 116.37 169.904C116.39 169.861 116.42 169.822 116.457 169.789C116.494 169.756 116.537 169.73 116.586 169.712C116.634 169.695 116.686 169.686 116.738 169.686H119.129C119.234 169.686 119.336 169.723 119.41 169.789C119.485 169.855 119.527 169.945 119.527 170.039C119.527 170.132 119.485 170.222 119.41 170.289C119.336 170.355 119.234 170.392 119.129 170.392H117.137V172.158C117.137 172.204 117.126 172.25 117.106 172.293C117.086 172.336 117.057 172.375 117.02 172.408C116.983 172.441 116.939 172.467 116.891 172.484C116.842 172.502 116.791 172.511 116.738 172.511Z" fill="#6C7FD8"/>
<path d="M116.738 177.98C116.686 177.98 116.634 177.97 116.586 177.953C116.537 177.935 116.494 177.909 116.457 177.876C116.42 177.843 116.39 177.804 116.37 177.761C116.35 177.719 116.34 177.673 116.34 177.626V174.892C116.34 174.799 116.382 174.709 116.457 174.643C116.531 174.576 116.633 174.539 116.738 174.539C116.844 174.539 116.945 174.576 117.02 174.643C117.095 174.709 117.137 174.799 117.137 174.892V177.626C117.137 177.673 117.126 177.719 117.106 177.761C117.086 177.804 117.057 177.843 117.02 177.876C116.983 177.909 116.939 177.935 116.891 177.953C116.842 177.97 116.791 177.98 116.738 177.98Z" fill="#6C7FD8"/>
<path d="M119.129 182.834H116.738C116.686 182.834 116.634 182.824 116.586 182.807C116.537 182.789 116.494 182.763 116.457 182.73C116.42 182.697 116.39 182.658 116.37 182.616C116.35 182.573 116.34 182.527 116.34 182.48V180.361C116.34 180.267 116.382 180.178 116.457 180.111C116.531 180.045 116.633 180.008 116.738 180.008C116.844 180.008 116.945 180.045 117.02 180.111C117.095 180.178 117.137 180.267 117.137 180.361V182.127H119.129C119.234 182.127 119.336 182.164 119.41 182.231C119.485 182.297 119.527 182.387 119.527 182.48C119.527 182.574 119.485 182.664 119.41 182.73C119.336 182.796 119.234 182.834 119.129 182.834Z" fill="#6C7FD8"/>
<path d="M147.722 182.831H142.957C142.851 182.831 142.75 182.794 142.675 182.728C142.6 182.662 142.558 182.572 142.558 182.478C142.558 182.385 142.6 182.295 142.675 182.228C142.75 182.162 142.851 182.125 142.957 182.125H147.722C147.828 182.125 147.929 182.162 148.004 182.228C148.079 182.295 148.121 182.385 148.121 182.478C148.121 182.572 148.079 182.662 148.004 182.728C147.929 182.794 147.828 182.831 147.722 182.831ZM138.191 182.831H133.426C133.32 182.831 133.219 182.794 133.144 182.728C133.069 182.662 133.027 182.572 133.027 182.478C133.027 182.385 133.069 182.295 133.144 182.228C133.219 182.162 133.32 182.125 133.426 182.125H138.191C138.297 182.125 138.398 182.162 138.473 182.228C138.548 182.295 138.59 182.385 138.59 182.478C138.59 182.572 138.548 182.662 138.473 182.728C138.398 182.794 138.297 182.831 138.191 182.831ZM128.66 182.831H123.895C123.789 182.831 123.687 182.794 123.613 182.728C123.538 182.662 123.496 182.572 123.496 182.478C123.496 182.385 123.538 182.295 123.613 182.228C123.687 182.162 123.789 182.125 123.895 182.125H128.66C128.766 182.125 128.867 182.162 128.942 182.228C129.016 182.295 129.058 182.385 129.058 182.478C129.058 182.572 129.016 182.662 128.942 182.728C128.867 182.794 128.766 182.831 128.66 182.831Z" fill="#6C7FD8"/>
<path d="M154.879 182.831H152.488C152.383 182.831 152.281 182.794 152.207 182.728C152.132 182.662 152.09 182.572 152.09 182.478C152.09 182.385 152.132 182.295 152.207 182.228C152.281 182.162 152.383 182.125 152.488 182.125H154.879C154.984 182.125 155.086 182.162 155.16 182.228C155.235 182.295 155.277 182.385 155.277 182.478C155.277 182.572 155.235 182.662 155.16 182.728C155.086 182.794 154.984 182.831 154.879 182.831Z" fill="#6C7FD8"/>
<path d="M168.617 186.766C168.643 186.797 168.676 186.823 168.714 186.841C168.752 186.86 168.794 186.871 168.837 186.874C168.881 186.878 168.924 186.873 168.965 186.86C169.006 186.848 169.044 186.828 169.076 186.802C169.108 186.775 169.133 186.743 169.15 186.708C169.167 186.673 169.175 186.634 169.175 186.596C169.174 186.557 169.164 186.519 169.146 186.484C169.128 186.449 169.101 186.418 169.069 186.393C169.037 186.362 168.998 186.337 168.955 186.32C168.912 186.303 168.866 186.293 168.819 186.292C168.723 186.286 168.634 186.248 168.569 186.186C168.504 186.124 168.467 186.042 168.467 185.957C168.471 185.886 168.447 185.816 168.4 185.758C168.354 185.7 168.286 185.658 168.209 185.638C168.157 185.623 168.11 185.599 168.069 185.567C168.029 185.534 167.997 185.495 167.976 185.45C167.954 185.408 167.945 185.362 167.948 185.316C167.951 185.27 167.967 185.225 167.994 185.185C168.063 185.084 168.094 184.966 168.085 184.848C168.076 184.73 168.027 184.617 167.944 184.524C167.866 184.426 167.757 184.35 167.63 184.306C167.504 184.261 167.366 184.251 167.232 184.275C167.108 184.301 166.996 184.364 166.917 184.453C166.837 184.541 166.793 184.652 166.792 184.765C166.792 184.818 166.773 184.87 166.738 184.913C166.702 184.956 166.653 184.988 166.596 185.005C166.535 185.021 166.471 185.021 166.41 185.007C166.349 184.993 166.294 184.964 166.25 184.923C166.035 184.718 165.743 184.588 165.428 184.558C165.114 184.529 164.798 184.601 164.539 184.762C164.473 184.803 164.394 184.821 164.314 184.813C164.235 184.806 164.162 184.773 164.108 184.721C163.939 184.573 163.739 184.417 163.545 184.266C163.297 184.078 163.058 183.88 162.83 183.672C162.557 183.397 162.196 183.202 161.795 183.112C161.394 183.023 160.972 183.043 160.585 183.171C160.22 183.309 159.919 183.552 159.731 183.861C159.542 184.17 159.478 184.527 159.547 184.873C159.558 184.923 159.551 184.974 159.528 185.021C159.506 185.067 159.468 185.107 159.42 185.135C159.37 185.162 159.313 185.176 159.255 185.176C159.196 185.176 159.139 185.162 159.089 185.135C158.685 184.92 158.229 184.795 157.758 184.77C157.288 184.745 156.818 184.821 156.388 184.992C155.979 185.166 155.63 185.434 155.375 185.766C155.121 186.099 154.97 186.486 154.938 186.887C154.935 186.924 154.923 186.959 154.903 186.991C154.883 187.023 154.855 187.051 154.822 187.073C154.788 187.095 154.749 187.11 154.708 187.118C154.667 187.126 154.625 187.126 154.584 187.118C154.265 187.054 153.932 187.086 153.637 187.21C153.342 187.334 153.102 187.543 152.958 187.803C152.82 188.079 152.779 188.386 152.84 188.684C152.901 188.982 153.061 189.256 153.3 189.472C153.946 190.087 154.229 190.397 154.299 190.728C154.311 190.776 154.307 190.826 154.289 190.873C154.27 190.919 154.237 190.96 154.193 190.991C154.106 191.052 153.975 190.974 153.875 191.018C152.643 191.558 153.012 193.061 153.652 193.433C154.22 193.763 154.835 194.006 155.422 193.813C155.71 193.716 155.955 193.54 156.121 193.311C156.288 193.082 156.368 192.811 156.349 192.539C156.346 192.49 156.359 192.441 156.386 192.398C156.413 192.356 156.454 192.321 156.503 192.298C156.554 192.276 156.611 192.266 156.668 192.27C156.725 192.273 156.78 192.29 156.827 192.318C157.15 192.513 157.523 192.631 157.912 192.661C158.301 192.691 158.692 192.632 159.047 192.491C159.385 192.345 159.67 192.118 159.869 191.836C160.069 191.554 160.175 191.228 160.176 190.895C160.176 190.847 160.191 190.801 160.219 190.76C160.248 190.72 160.288 190.688 160.336 190.667C160.386 190.646 160.441 190.638 160.496 190.641C160.551 190.645 160.604 190.66 160.651 190.687C161.222 191.035 161.92 191.182 162.607 191.098C163.294 191.015 163.922 190.707 164.366 190.235C164.773 189.723 164.963 189.1 164.902 188.475C164.84 187.851 164.532 187.266 164.032 186.824C163.999 186.799 163.973 186.768 163.954 186.733C163.936 186.698 163.926 186.66 163.926 186.621C163.925 186.583 163.933 186.544 163.95 186.509C163.967 186.474 163.993 186.442 164.024 186.415C164.056 186.389 164.094 186.369 164.135 186.357C164.176 186.344 164.22 186.339 164.263 186.343C164.306 186.346 164.348 186.357 164.386 186.376C164.424 186.394 164.457 186.42 164.484 186.451C164.67 186.637 164.916 186.768 165.19 186.826C165.463 186.883 165.75 186.864 166.011 186.771C166.256 186.67 166.454 186.497 166.573 186.281C166.691 186.066 166.722 185.82 166.66 185.587C166.646 185.535 166.651 185.481 166.673 185.431C166.696 185.381 166.735 185.339 166.785 185.309C166.838 185.281 166.898 185.267 166.96 185.268C167.022 185.27 167.082 185.287 167.132 185.318C167.24 185.38 167.364 185.414 167.491 185.416C167.546 185.418 167.599 185.43 167.647 185.452C167.695 185.475 167.737 185.506 167.77 185.544C167.803 185.582 167.825 185.625 167.836 185.671C167.848 185.717 167.846 185.765 167.833 185.811C167.819 185.856 167.817 185.904 167.827 185.95C167.837 185.996 167.86 186.039 167.893 186.076C167.925 186.114 167.967 186.145 168.015 186.167C168.063 186.189 168.116 186.201 168.17 186.201C168.265 186.208 168.355 186.245 168.42 186.307C168.485 186.37 168.521 186.451 168.521 186.536C168.519 186.578 168.526 186.62 168.543 186.66C168.559 186.699 168.584 186.736 168.617 186.766L168.617 186.766Z" fill="#F65B2B"/>
<path d="M166.896 186.446C166.913 186.465 166.934 186.481 166.957 186.493C166.981 186.505 167.008 186.512 167.035 186.514C167.062 186.516 167.089 186.513 167.115 186.505C167.141 186.497 167.164 186.485 167.184 186.468C167.204 186.452 167.22 186.432 167.231 186.409C167.242 186.387 167.247 186.363 167.246 186.339C167.246 186.315 167.24 186.291 167.228 186.269C167.217 186.247 167.2 186.228 167.18 186.212C167.16 186.192 167.136 186.177 167.109 186.166C167.082 186.155 167.053 186.149 167.023 186.148C166.963 186.145 166.907 186.121 166.866 186.082C166.825 186.043 166.803 185.992 166.803 185.938C166.805 185.894 166.79 185.85 166.761 185.813C166.731 185.777 166.689 185.751 166.641 185.738C166.608 185.729 166.578 185.714 166.553 185.693C166.528 185.673 166.508 185.648 166.494 185.62C166.481 185.594 166.475 185.565 166.477 185.536C166.479 185.507 166.489 185.479 166.506 185.454C166.549 185.39 166.568 185.316 166.563 185.242C166.557 185.168 166.526 185.097 166.474 185.039C166.425 184.978 166.357 184.93 166.277 184.902C166.198 184.874 166.111 184.868 166.028 184.883C165.949 184.899 165.88 184.939 165.83 184.994C165.779 185.05 165.752 185.119 165.752 185.191C165.751 185.224 165.739 185.256 165.717 185.283C165.695 185.31 165.664 185.331 165.628 185.341C165.59 185.351 165.55 185.351 165.512 185.342C165.474 185.333 165.439 185.315 165.412 185.29C165.276 185.161 165.093 185.079 164.896 185.061C164.699 185.042 164.5 185.088 164.338 185.188C164.297 185.214 164.247 185.225 164.197 185.221C164.147 185.216 164.101 185.195 164.067 185.163C163.961 185.07 163.836 184.972 163.715 184.877C163.559 184.759 163.409 184.635 163.266 184.504C163.094 184.332 162.868 184.21 162.616 184.154C162.365 184.097 162.1 184.11 161.857 184.19C161.628 184.277 161.439 184.429 161.321 184.623C161.203 184.817 161.162 185.041 161.206 185.258C161.212 185.289 161.208 185.322 161.194 185.351C161.18 185.38 161.156 185.405 161.126 185.423C161.095 185.439 161.059 185.448 161.022 185.448C160.986 185.448 160.95 185.439 160.918 185.423C160.665 185.288 160.379 185.209 160.084 185.193C159.788 185.178 159.493 185.225 159.224 185.333C158.967 185.442 158.748 185.61 158.589 185.819C158.429 186.028 158.334 186.27 158.314 186.522C158.312 186.545 158.304 186.567 158.292 186.587C158.279 186.607 158.262 186.625 158.241 186.639C158.22 186.652 158.196 186.662 158.17 186.667C158.144 186.671 158.118 186.672 158.092 186.667C157.892 186.626 157.683 186.647 157.498 186.725C157.312 186.802 157.162 186.933 157.071 187.096C156.985 187.27 156.959 187.462 156.998 187.649C157.036 187.836 157.137 188.008 157.286 188.144C157.692 188.53 157.869 188.724 157.913 188.931C157.921 188.962 157.918 188.993 157.907 189.022C157.895 189.052 157.874 189.077 157.847 189.097C157.792 189.135 157.71 189.086 157.647 189.113C156.874 189.453 157.106 190.395 157.507 190.628C157.658 190.743 157.838 190.824 158.03 190.865C158.223 190.907 158.424 190.907 158.618 190.867C158.798 190.806 158.952 190.696 159.057 190.552C159.161 190.408 159.211 190.239 159.2 190.068C159.197 190.037 159.205 190.006 159.222 189.98C159.24 189.953 159.265 189.931 159.296 189.917C159.328 189.903 159.364 189.897 159.4 189.899C159.435 189.901 159.47 189.912 159.499 189.929C159.702 190.052 159.936 190.126 160.18 190.144C160.424 190.163 160.669 190.126 160.892 190.037C161.104 189.946 161.283 189.804 161.408 189.627C161.533 189.45 161.6 189.245 161.6 189.036C161.601 189.006 161.61 188.977 161.628 188.952C161.645 188.927 161.671 188.906 161.701 188.893C161.732 188.88 161.767 188.875 161.801 188.877C161.836 188.879 161.869 188.889 161.898 188.906C162.257 189.124 162.695 189.216 163.126 189.164C163.557 189.112 163.951 188.918 164.23 188.622C164.485 188.301 164.604 187.91 164.565 187.518C164.527 187.127 164.334 186.76 164.019 186.482C163.999 186.466 163.982 186.447 163.971 186.425C163.96 186.403 163.953 186.379 163.953 186.355C163.953 186.331 163.958 186.307 163.969 186.285C163.979 186.262 163.995 186.242 164.015 186.226C164.035 186.209 164.059 186.197 164.084 186.189C164.11 186.181 164.137 186.178 164.165 186.18C164.192 186.182 164.218 186.189 164.242 186.201C164.266 186.213 164.287 186.229 164.303 186.248C164.42 186.365 164.575 186.447 164.746 186.483C164.918 186.519 165.098 186.507 165.261 186.449C165.415 186.385 165.54 186.277 165.614 186.142C165.688 186.006 165.707 185.853 165.668 185.706C165.66 185.673 165.663 185.639 165.677 185.608C165.691 185.577 165.715 185.55 165.747 185.532C165.78 185.514 165.818 185.505 165.857 185.506C165.896 185.507 165.933 185.518 165.965 185.537C166.032 185.576 166.11 185.597 166.19 185.599C166.224 185.6 166.258 185.608 166.288 185.622C166.318 185.636 166.344 185.655 166.365 185.679C166.385 185.703 166.4 185.73 166.407 185.759C166.414 185.788 166.413 185.818 166.405 185.847C166.396 185.875 166.394 185.905 166.401 185.934C166.407 185.963 166.421 185.99 166.442 186.013C166.462 186.037 166.489 186.056 166.519 186.07C166.549 186.084 166.582 186.091 166.616 186.092C166.676 186.095 166.732 186.119 166.773 186.158C166.814 186.197 166.836 186.248 166.836 186.302C166.835 186.328 166.84 186.354 166.85 186.379C166.86 186.404 166.876 186.427 166.896 186.446L166.896 186.446Z" fill="#FFBA55"/>
<path d="M178.48 181.49C178.48 181.49 182.665 179.398 182.638 175.528L182.632 175.519C178.912 173.495 174.727 175.587 174.727 175.587L162.662 181.616L166.415 187.519L178.48 181.49Z" fill="#F73C4F"/>
<path d="M159.027 179.472C159.027 179.472 162.321 176.616 168.017 178.941L162.662 181.617C162.662 181.617 161.715 179.999 159.027 179.472Z" fill="#B02336"/>
<path d="M166.59 191.366C166.59 191.366 171.052 190.347 171.757 184.822L166.402 187.499C166.402 187.499 167.473 189.055 166.59 191.366Z" fill="#B02336"/>
<path d="M165.945 186.78L163.135 182.359L161.657 183.098L164.468 187.518L165.945 186.78Z" fill="#6C7FD8"/>
<path d="M162.817 185.821C162.719 185.821 162.624 185.792 162.547 185.739C162.47 185.687 162.414 185.613 162.39 185.529C162.365 185.445 162.372 185.356 162.41 185.277C162.448 185.197 162.515 185.131 162.6 185.088L169.678 181.55C169.729 181.525 169.784 181.509 169.842 181.503C169.9 181.497 169.958 181.501 170.014 181.514C170.07 181.528 170.122 181.552 170.168 181.583C170.213 181.615 170.251 181.655 170.28 181.699C170.308 181.744 170.327 181.793 170.334 181.845C170.341 181.896 170.336 181.947 170.321 181.997C170.305 182.046 170.279 182.093 170.243 182.133C170.207 182.174 170.163 182.208 170.112 182.233L163.034 185.77C162.967 185.804 162.893 185.821 162.817 185.821Z" fill="#B02336"/>
<path d="M173.512 181.854C174.614 181.854 175.508 181.062 175.508 180.084C175.508 179.107 174.614 178.314 173.512 178.314C172.409 178.314 171.516 179.107 171.516 180.084C171.516 181.062 172.409 181.854 173.512 181.854Z" fill="#6C7FD8"/>
<path d="M178.48 181.49C178.374 180.323 177.983 179.192 177.335 178.172C176.687 177.153 175.797 176.271 174.727 175.587C174.727 175.587 178.912 173.495 182.632 175.519L182.638 175.528C182.665 179.398 178.48 181.49 178.48 181.49Z" fill="#6C7FD8"/>
</g>
<defs>
<filter id="filter0_d_223_13555" x="0.728516" y="0.820312" width="400" height="347" filterUnits="userSpaceOnUse" color-interpolation-filters="sRGB">
<feFlood flood-opacity="0" result="BackgroundImageFix"/>
<feColorMatrix in="SourceAlpha" type="matrix" values="0 0 0 0 0 0 0 0 0 0 0 0 0 0 0 0 0 0 127 0" result="hardAlpha"/>
<feOffset dy="4"/>
<feGaussianBlur stdDeviation="50"/>
<feComposite in2="hardAlpha" operator="out"/>
<feColorMatrix type="matrix" values="0 0 0 0 0.933333 0 0 0 0 0.533333 0 0 0 0 0.533333 0 0 0 1 0"/>
<feBlend mode="normal" in2="BackgroundImageFix" result="effect1_dropShadow_223_13555"/>
<feBlend mode="normal" in="SourceGraphic" in2="effect1_dropShadow_223_13555" result="shape"/>
</filter>
</defs>
</svg>
