<svg width="28" height="34" viewBox="0 0 28 34" fill="none" xmlns="http://www.w3.org/2000/svg">
<path d="M14 0.132812C10.4637 0.132813 7.07235 1.53757 4.57187 4.03806C2.07138 6.53854 0.666626 9.92993 0.666626 13.4661C0.666626 22.4661 12.4166 32.6328 12.9166 33.0661C13.2185 33.3244 13.6027 33.4663 14 33.4663C14.3972 33.4663 14.7814 33.3244 15.0833 33.0661C15.6666 32.6328 27.3333 22.4661 27.3333 13.4661C27.3333 9.92993 25.9285 6.53854 23.428 4.03806C20.9276 1.53757 17.5362 0.132813 14 0.132812ZM14 29.5495C10.45 26.2161 3.99996 19.0328 3.99996 13.4661C3.99996 10.814 5.05353 8.27044 6.92889 6.39508C8.80426 4.51971 11.3478 3.46615 14 3.46615C16.6521 3.46615 19.1957 4.51971 21.071 6.39508C22.9464 8.27044 24 10.814 24 13.4661C24 19.0328 17.55 26.2328 14 29.5495ZM14 6.79948C12.6814 6.79948 11.3925 7.19047 10.2962 7.92302C9.19983 8.65556 8.34535 9.69675 7.84076 10.9149C7.33618 12.1331 7.20416 13.4735 7.46139 14.7667C7.71862 16.06 8.35356 17.2478 9.28591 18.1802C10.2183 19.1125 11.4062 19.7475 12.6994 20.0047C13.9926 20.262 15.333 20.1299 16.5512 19.6253C17.7694 19.1208 18.8105 18.2663 19.5431 17.1699C20.2756 16.0736 20.6666 14.7847 20.6666 13.4661C20.6666 11.698 19.9642 10.0023 18.714 8.7521C17.4638 7.50186 15.7681 6.79948 14 6.79948ZM14 16.7995C13.3407 16.7995 12.6962 16.604 12.1481 16.2377C11.5999 15.8714 11.1727 15.3508 10.9204 14.7418C10.6681 14.1327 10.6021 13.4624 10.7307 12.8158C10.8593 12.1692 11.1768 11.5753 11.6429 11.1091C12.1091 10.6429 12.7031 10.3255 13.3497 10.1969C13.9963 10.0682 14.6665 10.1343 15.2756 10.3865C15.8847 10.6388 16.4053 11.0661 16.7715 11.6142C17.1378 12.1624 17.3333 12.8069 17.3333 13.4661C17.3333 14.3502 16.9821 15.198 16.357 15.8232C15.7319 16.4483 14.884 16.7995 14 16.7995Z" fill="#0077CC"/>
</svg>
