<svg width="1260" height="1704" viewBox="0 0 1260 1704" fill="none" xmlns="http://www.w3.org/2000/svg">
<g opacity="0.04" clip-path="url(#clip0_503_1133)">
<path d="M1171.67 1167.47C1191.7 825.085 885.027 91.6209 679.485 454.573C571.293 645.624 308.043 867.813 114.773 981.561C-73.1538 1092.17 315.104 1643.12 606.958 1694.46C898.812 1745.79 1151.64 1509.85 1171.67 1167.47Z" fill="#FFF4F2"/>
<path d="M205.099 1422.84C216.36 1422.84 216.378 1392.49 205.099 1392.49C193.839 1392.49 193.82 1422.84 205.099 1422.84Z" fill="#FFA574"/>
<path d="M101.184 727.205C112.444 727.205 112.463 696.858 101.184 696.858C89.9233 696.858 89.9047 727.205 101.184 727.205Z" fill="#FFA574"/>
<path d="M278.776 289.05C290.036 289.05 290.055 258.703 278.776 258.703C267.515 258.703 267.496 289.05 278.776 289.05Z" fill="#FFA574"/>
<path d="M278.776 289.05C290.036 289.05 290.055 258.703 278.776 258.703C267.515 258.703 267.496 289.05 278.776 289.05Z" fill="#FFA574"/>
<path d="M54.5988 1405.52C65.8592 1405.52 65.8779 1375.17 54.5988 1375.17C43.3384 1375.17 43.3197 1405.52 54.5988 1405.52Z" fill="#FFA574"/>
<path d="M598.584 30.3455C609.845 30.3455 609.863 -0.000976562 598.584 -0.000976562C587.324 -0.000976562 587.305 30.3455 598.584 30.3455Z" fill="#FFA574"/>
<path d="M486.674 1195.8C497.934 1195.8 497.953 1165.46 486.674 1165.46C475.414 1165.46 475.395 1195.8 486.674 1195.8Z" fill="#FFA574"/>
<path d="M187.423 605.868C198.684 605.868 198.703 575.521 187.423 575.521C176.163 575.521 176.144 605.868 187.423 605.868Z" fill="#FFA574"/>
<path d="M265.069 1570.3C276.329 1570.3 276.348 1539.95 265.069 1539.95C253.808 1539.95 253.789 1570.3 265.069 1570.3Z" fill="#FFA574"/>
<path d="M876.216 1436.56C887.476 1436.56 887.495 1406.22 876.216 1406.22C864.956 1406.22 864.937 1436.56 876.216 1436.56Z" fill="#FFA574"/>
<path d="M908.776 250.814C920.036 250.814 920.055 220.468 908.776 220.468C897.515 220.468 897.496 250.814 908.776 250.814Z" fill="#FFA574"/>
<path d="M1139.4 1195.8C1150.66 1195.8 1150.67 1165.46 1139.4 1165.46C1128.13 1165.46 1128.12 1195.8 1139.4 1195.8Z" fill="#FFA574"/>
<path d="M237.807 1205.86C238.941 1205.79 240.015 1204.96 240.804 1203.55C241.592 1202.13 242.033 1200.24 242.033 1198.27C242.033 1196.31 241.592 1194.42 240.804 1193C240.015 1191.58 238.941 1190.76 237.807 1190.69C236.673 1190.76 235.598 1191.58 234.81 1193C234.021 1194.42 233.581 1196.31 233.581 1198.27C233.581 1200.24 234.021 1202.13 234.81 1203.55C235.598 1204.96 236.673 1205.79 237.807 1205.86Z" fill="#FFA574"/>
<path d="M795.356 97.0004C796.49 96.9323 797.565 96.1031 798.353 94.6878C799.142 93.2725 799.582 91.3816 799.582 89.4138C799.582 87.446 799.142 85.5551 798.353 84.1398C797.565 82.7244 796.49 81.8953 795.356 81.8271C794.222 81.8953 793.148 82.7244 792.359 84.1398C791.571 85.5551 791.13 87.446 791.13 89.4138C791.13 91.3816 791.571 93.2725 792.359 94.6878C793.148 96.1031 794.222 96.9323 795.356 97.0004Z" fill="#FFA574"/>
<path d="M653.788 602.564C654.922 602.496 655.996 601.667 656.785 600.251C657.573 598.836 658.014 596.945 658.014 594.977C658.014 593.009 657.573 591.119 656.785 589.703C655.996 588.288 654.922 587.459 653.788 587.391C652.653 587.459 651.579 588.288 650.791 589.703C650.002 591.119 649.562 593.009 649.562 594.977C649.562 596.945 650.002 598.836 650.791 600.251C651.579 601.667 652.653 602.496 653.788 602.564Z" fill="#FFA574"/>
<path d="M726.058 1238.64C727.192 1238.57 728.267 1237.74 729.055 1236.32C729.843 1234.91 730.284 1233.02 730.284 1231.05C730.284 1229.08 729.843 1227.19 729.055 1225.77C728.267 1224.36 727.192 1223.53 726.058 1223.46C724.924 1223.53 723.849 1224.36 723.061 1225.77C722.273 1227.19 721.832 1229.08 721.832 1231.05C721.832 1233.02 722.273 1234.91 723.061 1236.32C723.849 1237.74 724.924 1238.57 726.058 1238.64Z" fill="#FFA574"/>
<path d="M562.259 1637.39C563.394 1637.32 564.468 1636.49 565.256 1635.08C566.045 1633.66 566.486 1631.77 566.486 1629.8C566.486 1627.83 566.045 1625.94 565.256 1624.53C564.468 1623.11 563.394 1622.28 562.259 1622.22C561.125 1622.28 560.051 1623.11 559.262 1624.53C558.474 1625.94 558.033 1627.83 558.033 1629.8C558.033 1631.77 558.474 1633.66 559.262 1635.08C560.051 1636.49 561.125 1637.32 562.259 1637.39Z" fill="#FFA574"/>
<path d="M1063.11 1626.46C1064.24 1626.39 1065.32 1625.57 1066.11 1624.15C1066.89 1622.73 1067.33 1620.84 1067.33 1618.88C1067.33 1616.91 1066.89 1615.02 1066.11 1613.6C1065.32 1612.19 1064.24 1611.36 1063.11 1611.29C1061.97 1611.36 1060.9 1612.19 1060.11 1613.6C1059.32 1615.02 1058.88 1616.91 1058.88 1618.88C1058.88 1620.84 1059.32 1622.73 1060.11 1624.15C1060.9 1625.57 1061.97 1626.39 1063.11 1626.46Z" fill="#FFA574"/>
<path d="M659.908 899.97C661.042 899.902 662.117 899.073 662.905 897.657C663.694 896.242 664.134 894.351 664.134 892.383C664.134 890.416 663.694 888.525 662.905 887.11C662.117 885.694 661.042 884.865 659.908 884.797C658.774 884.865 657.7 885.694 656.911 887.11C656.123 888.525 655.682 890.416 655.682 892.383C655.682 894.351 656.123 896.242 656.911 897.657C657.7 899.073 658.774 899.902 659.908 899.97Z" fill="#FFA574"/>
<path d="M405.841 66.7514C406.975 66.6832 408.049 65.8541 408.838 64.4388C409.626 63.0234 410.067 61.1325 410.067 59.1647C410.067 57.197 409.626 55.306 408.838 53.8907C408.049 52.4754 406.975 51.6463 405.841 51.5781C404.707 51.6463 403.632 52.4754 402.844 53.8907C402.055 55.306 401.615 57.197 401.615 59.1647C401.615 61.1325 402.055 63.0234 402.844 64.4388C403.632 65.8541 404.707 66.6832 405.841 66.7514Z" fill="#FFD1CA"/>
<path d="M109.633 1071.3C110.767 1071.23 111.842 1070.4 112.63 1068.99C113.419 1067.57 113.859 1065.68 113.859 1063.72C113.859 1061.75 113.419 1059.86 112.63 1058.44C111.842 1057.03 110.767 1056.2 109.633 1056.13C108.499 1056.2 107.425 1057.03 106.636 1058.44C105.848 1059.86 105.407 1061.75 105.407 1063.72C105.407 1065.68 105.848 1067.57 106.636 1068.99C107.425 1070.4 108.499 1071.23 109.633 1071.3Z" fill="#FFD1CA"/>
<path d="M646.936 239.613C648.07 239.545 649.145 238.715 649.933 237.3C650.721 235.885 651.162 233.994 651.162 232.026C651.162 230.058 650.721 228.167 649.933 226.752C649.145 225.337 648.07 224.508 646.936 224.439C645.802 224.508 644.727 225.337 643.939 226.752C643.151 228.167 642.71 230.058 642.71 232.026C642.71 233.994 643.151 235.885 643.939 237.3C644.727 238.715 645.802 239.545 646.936 239.613Z" fill="#FFD1CA"/>
<path d="M1147.85 305.717C1148.98 305.649 1150.05 304.82 1150.84 303.405C1151.63 301.989 1152.07 300.098 1152.07 298.131C1152.07 296.163 1151.63 294.272 1150.84 292.857C1150.05 291.441 1148.98 290.612 1147.85 290.544C1146.71 290.612 1145.64 291.441 1144.85 292.857C1144.06 294.272 1143.62 296.163 1143.62 298.131C1143.62 300.098 1144.06 301.989 1144.85 303.405C1145.64 304.82 1146.71 305.649 1147.85 305.717Z" fill="#FFD1CA"/>
<path d="M428.959 1131.29C430.093 1131.22 431.168 1130.39 431.956 1128.97C432.744 1127.56 433.185 1125.67 433.185 1123.7C433.185 1121.73 432.744 1119.84 431.956 1118.43C431.168 1117.01 430.093 1116.18 428.959 1116.11C427.825 1116.18 426.75 1117.01 425.962 1118.43C425.174 1119.84 424.733 1121.73 424.733 1123.7C424.733 1125.67 425.174 1127.56 425.962 1128.97C426.75 1130.39 427.825 1131.22 428.959 1131.29Z" fill="#FFD1CA"/>
<path d="M898.417 1021.14C899.551 1021.07 900.626 1020.24 901.414 1018.83C902.203 1017.41 902.643 1015.52 902.643 1013.55C902.643 1011.59 902.203 1009.7 901.414 1008.28C900.626 1006.87 899.551 1006.04 898.417 1005.97C897.283 1006.04 896.209 1006.87 895.42 1008.28C894.632 1009.7 894.191 1011.59 894.191 1013.55C894.191 1015.52 894.632 1017.41 895.42 1018.83C896.209 1020.24 897.283 1021.07 898.417 1021.14Z" fill="#FFD1CA"/>
<path d="M982.798 74.5229C983.932 74.4547 985.007 73.6256 985.795 72.2103C986.583 70.7949 987.024 68.904 987.024 66.9362C987.024 64.9684 986.583 63.0775 985.795 61.6622C985.007 60.2469 983.932 59.4177 982.798 59.3496C981.664 59.4177 980.589 60.2469 979.801 61.6622C979.013 63.0775 978.572 64.9684 978.572 66.9362C978.572 68.904 979.013 70.7949 979.801 72.2103C980.589 73.6256 981.664 74.4547 982.798 74.5229Z" fill="#FFD1CA"/>
<path d="M1141.71 1477.53C1142.85 1477.46 1143.92 1476.63 1144.71 1475.22C1145.5 1473.8 1145.94 1471.91 1145.94 1469.94C1145.94 1467.97 1145.5 1466.08 1144.71 1464.67C1143.92 1463.25 1142.85 1462.42 1141.71 1462.36C1140.58 1462.42 1139.5 1463.25 1138.72 1464.67C1137.93 1466.08 1137.49 1467.97 1137.49 1469.94C1137.49 1471.91 1137.93 1473.8 1138.72 1475.22C1139.5 1476.63 1140.58 1477.46 1141.71 1477.53Z" fill="#FFD1CA"/>
<path d="M515.965 237.316V279.348L503.604 288.539C503.604 288.539 507.591 394.867 536.991 366.948C566.391 339.029 574.303 292.18 568.003 288.539L559.192 279.348L558.127 239.354L515.965 237.316Z" fill="#FED4C0"/>
<path d="M846.555 446.018L746.719 472.669C742.201 473.883 737.584 473.316 733.21 471.011C728.835 468.706 724.817 464.721 721.453 459.354C673.372 382.432 641.62 343.971 622.32 324.771C622.305 324.759 622.292 324.732 622.276 324.722L622.259 324.71C604.966 307.517 568.376 285.841 568.376 285.841L568.747 289.076L568.001 288.54C533.701 412.354 503.601 288.54 503.601 288.54C503.601 288.54 467.012 310.217 449.719 327.409L449.701 327.422C449.686 327.431 449.672 327.459 449.657 327.471C430.357 346.671 398.606 385.131 350.525 462.053C347.161 467.421 343.142 471.405 338.768 473.71C334.394 476.015 329.777 476.582 325.259 475.368L225.422 448.717L205.485 536.72L320.703 590.132C328.918 593.94 337.51 594.632 345.894 592.161C354.277 589.69 362.255 584.113 369.283 575.812L443.485 488.165L443.806 486.295C445.331 584.385 449.702 691.541 449.702 691.541L451.102 740.094H620.501L620.579 737.395H620.876L622.276 688.842C622.276 688.842 626.647 581.685 628.172 483.595L628.493 485.466L702.694 573.112C709.722 581.414 717.7 586.99 726.083 589.462C734.467 591.933 743.059 591.241 751.275 587.432L866.493 534.021L846.555 446.018Z" fill="#FABB05"/>
<path d="M578.99 145.015C578.99 85.0141 560.5 36.374 537.69 36.374C514.881 36.374 496.39 85.0141 496.39 145.015L496.391 145.061C496.301 145.057 496.218 145.015 496.128 145.015C494.319 145.002 492.526 145.609 490.853 146.8C489.18 147.991 487.659 149.744 486.377 151.957C485.096 154.171 484.079 156.801 483.385 159.698C482.691 162.594 482.333 165.7 482.333 168.837C482.333 171.973 482.691 175.079 483.385 177.976C484.079 180.872 485.096 183.503 486.377 185.716C487.659 187.93 489.18 189.682 490.853 190.874C492.526 192.065 494.319 192.672 496.128 192.659C497.576 192.626 499.012 192.193 500.382 191.375C506.999 228.153 521.195 253.655 537.69 253.655C554.167 253.655 568.347 228.212 574.975 191.504C576.273 192.236 577.626 192.625 578.99 192.659C582.624 192.633 586.103 190.111 588.667 185.647C591.232 181.182 592.671 175.138 592.671 168.837C592.671 162.536 591.232 156.491 588.667 152.027C586.103 147.562 582.624 145.041 578.99 145.015Z" fill="#FED4C0"/>
<path d="M500.94 166.257C500.94 166.257 498.49 82.5005 515.64 64.2926C515.64 64.2926 521.94 50.3332 539.79 83.1074C557.64 115.882 574.989 98.3165 574.989 98.3165C574.989 98.3165 579.34 154.725 576.54 166.257C576.54 166.257 601.74 91.6045 574.09 53.3679C546.44 15.1313 531.39 28.4838 509.34 53.3679C509.34 53.3679 468.04 61.8649 500.94 166.257Z" fill="#200100"/>
<path d="M535.079 150.704C535.027 154.47 534.816 158.063 534.622 161.615C534.401 165.058 534.282 168.518 534.265 171.982C534.244 175.329 534.597 178.45 535.628 179.198C537.514 179.662 539.438 179.254 541.204 178.015C540.468 179.438 539.608 180.654 538.656 181.619C537.591 182.807 536.317 183.304 535.06 183.021C534.348 182.733 533.689 182.137 533.145 181.287C532.601 180.438 532.191 179.363 531.951 178.164C531.554 176.197 531.351 174.128 531.351 172.044C531.376 168.239 531.73 164.462 532.4 160.839C533.007 157.255 533.909 153.841 535.079 150.704Z" fill="#200100"/>
<path d="M505.894 134.351C505.894 134.351 515.633 116.273 527.079 131.135L505.894 134.351Z" fill="#200100"/>
<path d="M543.289 132.786C543.289 132.786 553.448 115.418 564.532 131.084L543.289 132.786Z" fill="#200100"/>
<path d="M519.153 162.238C520.797 162.238 522.128 158.774 522.128 154.5C522.128 150.226 520.797 146.762 519.153 146.762C517.51 146.762 516.178 150.226 516.178 154.5C516.178 158.774 517.51 162.238 519.153 162.238Z" fill="#200100"/>
<path d="M553.104 160.112C554.747 160.112 556.079 156.648 556.079 152.374C556.079 148.1 554.747 144.636 553.104 144.636C551.461 144.636 550.129 148.1 550.129 152.374C550.129 156.648 551.461 160.112 553.104 160.112Z" fill="#200100"/>
<path d="M487.478 173.364C487.393 171.215 487.698 169.073 488.351 167.24C489.017 165.236 490.035 163.655 491.258 162.73C491.902 162.254 492.597 162.018 493.298 162.035C493.998 162.052 494.689 162.324 495.326 162.831C496.495 163.708 497.438 165.296 497.978 167.296C496.711 167.067 495.696 166.632 494.764 166.654C493.942 166.564 493.119 166.821 492.367 167.405C490.598 169.024 488.956 171.027 487.478 173.364Z" fill="#200100"/>
<path d="M588.395 173.364C586.917 171.026 585.275 169.024 583.506 167.405C582.754 166.821 581.931 166.564 581.109 166.654C580.177 166.632 579.162 167.066 577.895 167.296C578.435 165.296 579.378 163.708 580.547 162.831C581.184 162.324 581.875 162.052 582.575 162.035C583.276 162.018 583.971 162.254 584.615 162.73C585.838 163.655 586.856 165.236 587.522 167.24C588.175 169.073 588.48 171.215 588.395 173.364Z" fill="#200100"/>
<path d="M517.4 239.595C523.174 246.117 529.822 249.94 536.7 250.691C540.064 250.968 543.431 250.262 546.66 248.601C548.318 247.813 549.945 246.842 551.532 245.695C553.152 244.586 554.663 243.057 556.349 241.894C555.052 244.051 553.671 246.051 552.215 247.878C550.704 249.643 549.093 251.135 547.406 252.33C543.992 254.868 540.29 256.034 536.58 255.741C532.878 255.481 529.249 253.878 525.926 251.036C522.647 248.319 519.74 244.418 517.4 239.595Z" fill="#200100"/>
<path d="M515.442 192.694C516.576 192.626 517.651 191.796 518.439 190.381C519.227 188.966 519.668 187.075 519.668 185.107C519.668 183.139 519.227 181.248 518.439 179.833C517.651 178.418 516.576 177.589 515.442 177.521C514.308 177.589 513.234 178.418 512.445 179.833C511.657 181.248 511.216 183.139 511.216 185.107C511.216 187.075 511.657 188.966 512.445 190.381C513.234 191.796 514.308 192.626 515.442 192.694Z" fill="#602922"/>
<path d="M559.19 187.838C560.324 187.77 561.399 186.941 562.187 185.526C562.975 184.11 563.416 182.219 563.416 180.252C563.416 178.284 562.975 176.393 562.187 174.978C561.399 173.562 560.324 172.733 559.19 172.665C558.056 172.733 556.981 173.562 556.193 174.978C555.405 176.393 554.964 178.284 554.964 180.252C554.964 182.219 555.405 184.11 556.193 185.526C556.981 186.941 558.056 187.77 559.19 187.838Z" fill="#602922"/>
<path d="M524.556 207.892C524.556 207.892 538.991 236.874 551.493 199.911L524.556 207.892Z" fill="#200100"/>
<path d="M456.003 740.095V1575.23H520.403L528.803 846.914H545.603L577.803 1575.23H642.203L614.203 740.095H456.003Z" fill="#FA81A2"/>
<path d="M591.802 1604.36C591.802 1604.36 574.302 1689.33 589.002 1701.47H603.702C603.702 1701.47 610.702 1667.48 620.502 1701.47H710.102C710.102 1701.47 715.702 1674.76 694.002 1662.63C672.302 1650.49 635.902 1604.36 635.902 1604.36H591.802Z" fill="#2C66BF"/>
<path d="M589.004 1575.23L591.804 1604.36H635.904V1575.23H589.004Z" fill="#FED4C0"/>
<path d="M509.574 1604.36C509.574 1604.36 527.074 1689.33 512.374 1701.47H497.674C497.674 1701.47 490.674 1667.48 480.874 1701.47H391.274C391.274 1701.47 385.674 1674.76 407.374 1662.63C429.074 1650.49 465.474 1604.36 465.474 1604.36H509.574Z" fill="#2C66BF"/>
<path d="M512.375 1575.23L509.575 1604.36H465.475V1575.23H512.375Z" fill="#FED4C0"/>
<path d="M551.406 844.834C546.723 846.618 541.937 847.466 537.143 847.361C532.348 847.477 527.562 846.629 522.88 844.834C527.562 843.038 532.348 842.19 537.143 842.305C541.937 842.201 546.723 843.049 551.406 844.834Z" fill="#E06C96"/>
<path d="M454.553 594.977C455.195 602.713 456.189 610.35 457.524 617.815C458.111 621.569 458.917 625.209 459.6 628.899L462.152 639.652C465.769 653.774 470.633 666.833 476.57 678.358C482.44 689.961 489.39 699.779 497.13 707.403C500.972 711.381 504.987 714.832 509.139 717.726C513.249 720.872 517.634 722.754 521.881 725.577C519.672 724.784 517.46 723.939 515.247 723.04L511.92 721.712L510.253 721.047L508.647 720.055C504.312 717.558 500.098 714.466 496.045 710.808C487.815 703.613 480.461 693.733 474.388 681.709C468.25 669.798 463.406 656.058 460.093 641.153C456.705 626.44 454.83 610.812 454.553 594.977Z" fill="#EDA606"/>
<path d="M474.691 608.526C476.246 615.863 478.132 622.975 480.332 629.797C481.356 633.257 482.581 636.527 483.691 639.89L487.475 649.49C492.705 662.002 499.027 673.024 506.214 682.16C513.346 691.396 521.319 698.496 529.804 703.167C534.038 705.675 538.379 707.606 542.788 708.94C547.184 710.536 551.699 710.798 556.193 712.032C553.936 712.052 551.671 712.021 549.399 711.939L545.986 711.837L544.276 711.788L542.585 711.395C538.045 710.516 533.553 709.009 529.151 706.888C520.238 702.815 511.862 695.799 504.481 686.225C497.05 676.784 490.667 665.087 485.641 651.7C480.565 638.528 476.859 623.916 474.691 608.526Z" fill="#EDA606"/>
<path d="M598.582 405.943H549.102V512.967H598.582V405.943Z" fill="#EDA606"/>
<path d="M1025.84 237.2V284.289L1037.02 288.538C1037.02 288.538 1034.22 394.75 1004.82 366.832C975.417 338.913 966.317 292.179 972.617 288.538L982.417 283.075L983.68 239.238L1025.84 237.2Z" fill="#B86A4B"/>
<path d="M962.816 144.899C962.816 84.8979 981.307 36.2578 1004.12 36.2578C1026.93 36.2578 1045.42 84.8979 1045.42 144.899L1045.42 144.944C1045.51 144.941 1045.59 144.899 1045.68 144.899C1047.49 144.886 1049.28 145.492 1050.95 146.684C1052.63 147.875 1054.15 149.628 1055.43 151.841C1056.71 154.055 1057.73 156.685 1058.42 159.582C1059.12 162.478 1059.47 165.584 1059.47 168.721C1059.47 171.857 1059.12 174.963 1058.42 177.859C1057.73 180.756 1056.71 183.387 1055.43 185.6C1054.15 187.813 1052.63 189.566 1050.95 190.757C1049.28 191.949 1047.49 192.555 1045.68 192.542C1044.23 192.51 1042.79 192.077 1041.42 191.259C1034.81 228.037 1020.61 253.539 1004.12 253.539C987.64 253.539 973.459 228.096 966.831 191.388C965.534 192.12 964.18 192.509 962.816 192.542C961.008 192.555 959.215 191.949 957.542 190.757C955.869 189.566 954.348 187.813 953.066 185.6C951.784 183.387 950.767 180.756 950.073 177.859C949.379 174.963 949.022 171.857 949.022 168.721C949.022 165.584 949.379 162.478 950.073 159.582C950.767 156.685 951.784 154.055 953.066 151.841C954.348 149.628 955.869 147.875 957.542 146.684C959.215 145.492 961.008 144.886 962.816 144.899Z" fill="#B86A4B"/>
<path d="M1040.87 166.14C1040.87 166.14 1043.32 82.3833 1026.17 64.1754C1026.17 64.1754 1019.87 50.2161 1002.02 82.9903C984.168 115.764 966.819 98.1994 966.819 98.1994C966.819 98.1994 962.468 154.608 965.268 166.14C965.268 166.14 940.068 91.4873 967.718 53.2507C995.368 15.0141 1010.42 28.3666 1032.47 53.2507C1032.47 53.2507 1073.77 61.7477 1040.87 166.14Z" fill="#200100"/>
<path d="M1006.73 150.59C1007.9 153.727 1008.8 157.141 1009.41 160.725C1010.08 164.348 1010.43 168.125 1010.46 171.93C1010.46 174.014 1010.25 176.083 1009.86 178.05C1009.62 179.249 1009.21 180.324 1008.66 181.173C1008.12 182.023 1007.46 182.619 1006.75 182.907C1005.49 183.19 1004.22 182.693 1003.15 181.505C1002.2 180.54 1001.34 179.324 1000.6 177.901C1002.37 179.14 1004.29 179.548 1006.18 179.084C1007.21 178.336 1007.56 175.214 1007.54 171.868C1007.53 168.404 1007.41 164.944 1007.19 161.501C1006.99 157.949 1006.78 154.356 1006.73 150.59Z" fill="#200100"/>
<path d="M1035.96 126.22C1035.96 126.22 1022.78 116.741 1015.9 138.479L1035.96 126.22Z" fill="#200100"/>
<path d="M996.937 139.576C996.937 139.576 991.408 116.771 977.703 123.844L996.937 139.576Z" fill="#200100"/>
<path d="M1022.66 162.121C1024.3 162.121 1025.63 158.657 1025.63 154.383C1025.63 150.109 1024.3 146.645 1022.66 146.645C1021.01 146.645 1019.68 150.109 1019.68 154.383C1019.68 158.657 1021.01 162.121 1022.66 162.121Z" fill="#200100"/>
<path d="M988.706 159.995C990.349 159.995 991.681 156.531 991.681 152.257C991.681 147.983 990.349 144.519 988.706 144.519C987.063 144.519 985.731 147.983 985.731 152.257C985.731 156.531 987.063 159.995 988.706 159.995Z" fill="#200100"/>
<path d="M1054.33 173.247C1052.85 170.909 1051.21 168.907 1049.44 167.288C1048.69 166.704 1047.87 166.447 1047.04 166.537C1046.11 166.515 1045.1 166.949 1043.83 167.179C1044.37 165.179 1045.31 163.591 1046.48 162.714C1047.12 162.207 1047.81 161.935 1048.51 161.918C1049.21 161.9 1049.91 162.137 1050.55 162.613C1051.77 163.538 1052.79 165.119 1053.46 167.122C1054.11 168.956 1054.42 171.097 1054.33 173.247Z" fill="#200100"/>
<path d="M953.414 173.247C953.329 171.098 953.634 168.956 954.287 167.122C954.952 165.119 955.971 163.538 957.193 162.613C957.838 162.137 958.533 161.9 959.233 161.918C959.934 161.935 960.625 162.207 961.261 162.714C962.43 163.591 963.374 165.179 963.914 167.179C962.646 166.95 961.632 166.515 960.699 166.537C959.877 166.447 959.054 166.704 958.302 167.288C956.534 168.907 954.891 170.909 953.414 173.247Z" fill="#200100"/>
<path d="M1024.41 239.481C1022.07 244.305 1019.16 248.206 1015.88 250.926C1012.56 253.766 1008.93 255.367 1005.23 255.628C1001.52 255.922 997.815 254.756 994.401 252.217C992.714 251.022 991.103 249.53 989.592 247.765C988.136 245.937 986.754 243.938 985.457 241.781C987.144 242.944 988.655 244.473 990.275 245.581C991.861 246.729 993.489 247.699 995.147 248.488C998.376 250.149 1001.74 250.855 1005.11 250.577C1011.98 249.827 1018.63 246.004 1024.41 239.481Z" fill="#200100"/>
<path d="M1017.13 199.368C1017.13 199.368 1009.01 231.232 992.74 204.831L1017.13 199.368Z" fill="#200100"/>
<path d="M1147.38 812.212L1158.45 924.477C1159.04 930.497 1158.92 936.665 1158.07 942.594C1157.23 948.523 1155.69 954.087 1153.55 958.936L1131.34 1009.25C1130.75 1010.59 1129.99 1011.67 1129.11 1012.42C1128.24 1013.17 1127.28 1013.56 1126.31 1013.56C1124.63 1013.56 1123.01 1012.4 1121.82 1010.34C1120.64 1008.28 1119.97 1005.48 1119.97 1002.57C1119.97 996.809 1121.08 991.215 1123.12 986.673L1140.15 948.747C1140.15 948.747 1137.91 896.898 1137.41 904.675L1128.58 929.641C1128.17 930.791 1127.61 931.744 1126.93 932.412C1126.25 933.079 1125.49 933.438 1124.71 933.456C1123.93 933.474 1123.16 933.15 1122.48 932.515C1121.79 931.879 1121.21 930.953 1120.78 929.822C1120.24 928.415 1119.97 926.744 1120.01 925.052C1120.24 918.808 1121.25 912.727 1122.99 907.245L1125.45 899.491C1125.45 899.491 1119.97 841.593 1126.95 812.212L1147.38 812.212Z" fill="#B86A4B"/>
<path d="M1000.26 388.906L1007.68 432.224L926.727 616.657C914.161 645.906 890.507 644.503 879.985 607.716C879.985 607.716 879.187 580.898 881.294 573.007C890.77 537.531 901.098 533.111 917.489 509.276L1000.26 388.906Z" fill="#8C4D3E"/>
<path d="M1003.18 393.966L1010.59 437.284L929.643 621.716C917.077 650.966 893.423 649.562 882.901 612.775C882.901 612.775 882.103 585.957 884.21 578.067C893.686 542.591 904.014 538.171 920.405 514.335L1003.18 393.966Z" fill="#8C4D3E"/>
<path d="M816.453 507.274C816.453 507.274 815.89 487.809 798.409 457.333C780.927 426.857 765.297 406.104 774.467 431.899L781.642 451.354C781.642 451.354 762.976 439.244 752.22 430.34C749.389 427.9 746.181 427.102 743.068 428.062C739.955 429.022 737.103 431.69 734.93 435.673C730.953 443.292 731.131 451.526 742.344 465.914C759.115 487.433 785.089 520.185 790.127 523.397C791.872 524.51 816.453 507.274 816.453 507.274Z" fill="#B86A4B"/>
<path d="M920.817 740.095H1089.52L1090.92 691.541L1114.72 859.053L1158.82 846.915C1146.7 599.987 1118.55 440.226 1103.81 370.366C1101.15 357.789 1097.02 346.305 1091.67 336.641C1086.32 326.976 1079.87 319.342 1072.73 314.22L1037.02 288.539C1037.02 288.539 1006.92 412.353 972.616 288.539L936.899 314.22C922.467 324.597 903.786 344.235 898.416 369.676C891.741 401.305 879.222 470.712 869.759 502.813C869.137 504.92 868.257 506.764 867.18 508.216C866.103 509.668 864.855 510.693 863.525 511.218C862.194 511.743 860.814 511.756 859.48 511.255C858.147 510.755 856.893 509.753 855.807 508.321L802.77 453.446L782.356 521.781L849.945 619.131C858.907 629.826 869.932 633.989 880.646 630.725C891.361 627.461 900.907 617.031 907.23 601.681L918.717 573.796L920.116 740.095H1088.82" fill="#4285F4"/>
<path d="M792.571 460.229C790.588 459.471 788.664 458.303 786.841 456.75C785.006 455.263 783.264 453.455 781.64 451.354C782.669 451.51 783.683 451.876 784.663 452.443C785.632 452.966 786.578 453.611 787.494 454.371C789.35 455.86 791.062 457.836 792.571 460.229Z" fill="#160B07"/>
<path d="M766.866 454.794C764.5 453.466 762.181 451.896 759.922 450.092C757.646 448.355 755.439 446.372 753.266 444.273C751.09 442.169 748.988 439.843 746.971 437.309C744.926 434.818 743.045 431.948 741.36 428.749C745.472 433.594 749.716 437.79 754.012 441.981C758.287 446.219 762.621 450.277 766.866 454.794Z" fill="#160B07"/>
<path d="M756.808 472.369C754.588 471.455 752.413 470.243 750.302 468.744C748.181 467.287 746.112 465.615 744.104 463.738C740.037 460.077 736.357 455.249 733.219 449.459C735.145 451.593 737.023 453.721 738.959 455.7C740.914 457.626 742.843 459.599 744.827 461.424L756.808 472.369Z" fill="#160B07"/>
<path d="M762.319 464.813C759.685 463.598 757.101 462.078 754.584 460.262C752.054 458.49 749.586 456.458 747.194 454.177C744.78 451.92 742.486 449.293 740.341 446.328C738.117 443.49 736.271 439.856 734.928 435.672C736.702 439.176 738.76 442.217 741.036 444.701C743.27 447.247 745.558 449.67 747.928 451.873C752.627 456.409 757.48 460.479 762.319 464.813Z" fill="#160B07"/>
<path d="M825.386 1555.13L831.407 1615.97L874.729 1671.5C874.729 1671.5 823.804 1703.37 798.079 1656.03L803.329 1614.15L791.254 1560.44L825.386 1555.13Z" fill="#8C4D3E"/>
<path d="M664.897 1555.13L664.709 1615.97L621.387 1671.5C621.387 1671.5 672.312 1703.37 698.037 1656.03L692.787 1614.15L699.029 1560.44L664.897 1555.13Z" fill="#8C4D3E"/>
<path d="M743.496 667.844L722.277 733.721C707.608 779.259 697.769 828.99 693.225 880.553L634.509 1571.49L850.547 1560.44L862.799 905.074C864.246 846.632 857.954 788.392 844.406 734.821C838.393 710.565 830.335 687.993 820.496 667.844L743.496 667.844Z" fill="#DF382B"/>
<path d="M720.569 224.199C720.922 232.771 722.811 232.983 723.964 242.54C725.629 256.333 722.098 259.226 723.777 270.267C724.732 276.548 725.976 276.28 732.329 291.915C738.885 308.046 737.451 308.062 740.895 314.518C746.962 325.893 749.714 322.656 756.597 334.927C761.154 343.053 760.635 345.698 765.662 353.686C769.007 358.488 772.566 362.822 776.306 366.648C789.24 381.58 790.027 383.032 793.072 384.148C797.787 385.54 802.626 384.948 807.182 382.421C812.295 380.163 812.438 378.231 821.032 372.529C829.847 366.68 830.372 368.265 833.603 364.386C838.478 358.534 837.446 354.732 843.282 345.842C848.796 337.442 850.34 339.89 853.587 333.009C857.729 324.232 855.643 319.345 859.922 311.73C863.166 305.957 865.101 307.459 868.599 300.873C870.595 296.468 872.203 291.572 873.369 286.347C878.071 270.81 880.127 272.51 882.96 261.116C884.478 255.01 883.504 256.066 886.503 237.08C888.884 222.004 889.328 222.422 889.554 217.528C890.238 202.709 886.036 201.89 887.554 191.157C888.475 184.641 891.029 177.837 889.575 168.65L889.575 168.647C888.199 151.51 887.191 138.956 881.755 127.342C878.815 121.061 878.281 122.964 869.371 107.758C863.727 98.1249 862.533 94.9574 858.678 90.9745C853.642 85.7721 852.755 88.1538 846.444 82.8547C838.262 75.9842 838.478 70.9083 831.907 67.1792C827.577 64.7221 827.536 66.955 819.198 64.8131C808.621 62.0964 808.255 58.3919 802.94 59.3057C797.251 60.2841 796.615 64.7114 788.383 68.8973C781.506 72.3937 780.438 68.925 775.191 72.3681C769.856 75.8686 770.346 79.1572 763.791 85.1619C756.024 92.2776 753.772 89.0942 750.143 95.2589C746.523 101.411 748.347 105.293 744.371 117.472C741.123 127.424 739.532 125.972 734.179 138.903C731.137 146.566 728.477 154.666 726.229 163.113C724.022 169.363 722.435 176.211 721.534 183.372C720.958 191.846 722.613 192.768 722.348 203.413C722.072 214.54 720.214 215.578 720.569 224.199Z" fill="#200100"/>
<path d="M758.318 262.118C758.373 262.116 758.423 262.144 758.477 262.143C759.451 213.561 777.194 174.559 799.518 173.678C821.842 172.797 840.59 210.358 842.838 258.813C842.892 258.809 842.942 258.778 842.996 258.776C846.369 259.275 849.517 261.918 851.835 266.197C854.152 270.475 855.477 276.088 855.554 281.956C855.631 287.825 854.455 293.536 852.252 297.993C850.049 302.45 846.974 305.338 843.618 306.104C842.289 306.123 840.969 305.726 839.722 304.93C835.072 329.066 825.946 347.949 814.571 356.377L814.614 356.384L814.959 416.511L813.437 460.585L778.546 456.195L779.268 417.92L782.018 351.067L782.11 351.082C773.218 340.592 766.46 325.504 762.801 307.967C761.576 308.86 760.267 309.361 758.94 309.446C755.567 308.947 752.419 306.304 750.101 302.025C747.784 297.747 746.459 292.134 746.382 286.266C746.305 280.397 747.481 274.686 749.684 270.229C751.887 265.772 754.962 262.884 758.318 262.118V262.118Z" fill="#8C4D3E"/>
<path d="M675.558 868.146L669.384 947.676C669.063 951.983 669.305 956.36 670.092 960.482C670.879 964.605 672.19 968.368 673.929 971.493L692.236 1005.19C692.752 1006.11 693.376 1006.82 694.066 1007.28C694.755 1007.74 695.494 1007.94 696.232 1007.85C697.476 1007.84 698.666 1006.98 699.543 1005.45C700.42 1003.92 700.912 1001.85 700.911 999.691C700.771 995.588 699.783 991.711 698.127 988.769L684.1 963.388C684.1 963.388 684.723 926.863 685.277 932.282L692.663 949.16C693.035 949.947 693.508 950.573 694.043 950.989C694.579 951.406 695.163 951.6 695.75 951.559C696.336 951.517 696.909 951.24 697.424 950.749C697.938 950.258 698.379 949.566 698.713 948.729C699.101 947.73 699.276 946.527 699.208 945.329C698.892 940.921 697.969 936.711 696.516 933.053L694.442 927.79C694.442 927.79 697.448 886.791 691.404 866.684L675.558 868.146Z" fill="#8C4D3E"/>
<path d="M685.343 605.575L672.845 905.758L694.043 889.214L721.057 632.67L685.343 605.575Z" fill="#8C4D3E"/>
<path d="M682.361 653.582L689.432 493.403C690.025 480.027 692.441 467.086 696.483 455.648C700.525 444.209 706.077 434.599 712.68 427.61C720.423 419.379 728.82 413.159 737.603 409.149C751.223 403.546 765.175 400.743 779.172 400.796C779.172 400.796 793.872 471.199 814.872 400.796L843.849 417.726C852.178 422.593 859.84 430.381 866.358 440.605C872.877 450.829 878.111 463.27 881.737 477.154L913.049 566.492L888.101 619.492L845.985 568.856L820.472 667.844H743.472L726.464 566.492L720.268 653.582L682.361 653.582Z" fill="#34A853"/>
<path d="M337.43 224.438C349.281 224.438 358.888 207.777 358.888 187.226C358.888 166.675 349.281 150.015 337.43 150.015C325.578 150.015 315.971 166.675 315.971 187.226C315.971 207.777 325.578 224.438 337.43 224.438Z" fill="#200100"/>
<path d="M240.591 232.024C252.442 232.024 262.05 215.363 262.05 194.812C262.05 174.261 252.442 157.601 240.591 157.601C228.739 157.601 219.132 174.261 219.132 194.812C219.132 215.363 228.739 232.024 240.591 232.024Z" fill="#200100"/>
<path d="M335.155 273.932C335.101 273.927 335.05 273.952 334.996 273.948C334.938 225.337 317.94 185.35 295.644 183.204C273.349 181.058 253.902 217.536 250.742 265.838C250.688 265.831 250.639 265.797 250.585 265.792C247.205 266.1 244.009 268.563 241.612 272.708C239.215 276.853 237.785 282.387 237.597 288.248C237.41 294.109 238.477 299.884 240.595 304.463C242.713 309.043 245.732 312.104 249.072 313.059C250.4 313.154 251.726 312.832 252.988 312.107C254.738 342.087 259.049 360.737 276.92 374.245L275.634 425.032L276.324 469.168L311.28 466.759L312.559 427.098L309.979 373.371C324.398 367.028 329.521 330.377 329.811 319.502C331.018 320.465 332.316 321.04 333.642 321.2C337.022 320.892 340.218 318.429 342.615 314.284C345.012 310.139 346.442 304.605 346.629 298.744C346.817 292.883 345.749 287.108 343.631 282.528C341.514 277.949 338.495 274.888 335.155 273.932H335.155Z" fill="#B86A4B"/>
<path d="M281.219 378.808C285.486 378.801 289.459 379.216 293.43 379.038C295.409 378.971 297.357 378.668 299.326 378.285C301.339 377.743 303.334 377.012 305.301 376.097C303.795 378.823 301.934 380.886 299.875 382.115C297.818 383.312 295.67 383.978 293.501 384.094C291.36 384.141 289.223 383.739 287.138 382.896C285.048 382.109 283.048 380.728 281.219 378.808Z" fill="#200100"/>
<path d="M289.414 279.257C289.242 283.011 288.916 286.579 288.609 290.106C288.278 293.522 288.049 296.966 287.921 300.423C287.793 303.762 288.046 306.911 289.051 307.761C290.92 308.404 292.853 308.181 294.657 307.116C293.875 308.464 292.978 309.595 291.998 310.467C290.895 311.551 289.608 311.925 288.362 311.522C287.66 311.166 287.021 310.507 286.505 309.606C285.989 308.706 285.614 307.593 285.413 306.373C285.08 304.37 284.943 302.285 285.009 300.204C285.156 296.408 285.63 292.672 286.415 289.12C287.135 285.599 288.146 282.277 289.414 279.257Z" fill="#200100"/>
<path d="M259.277 256.732C259.277 256.732 269.873 240.167 280.544 256.674L259.277 256.732Z" fill="#200100"/>
<path d="M298.599 258.162C298.599 258.162 308.18 239.833 319.754 254.395L298.599 258.162Z" fill="#200100"/>
<path d="M277.831 323.815C277.831 323.815 287.258 358.446 305.016 328.646L277.831 323.815Z" fill="#200100"/>
<path d="M276.365 281.8C276.502 277.533 275.282 273.946 273.642 273.788C272.001 273.63 270.561 276.961 270.424 281.229C270.287 285.496 271.507 289.083 273.147 289.241C274.788 289.399 276.228 286.068 276.365 281.8Z" fill="#200100"/>
<path d="M310.33 282.941C310.467 278.674 309.248 275.087 307.607 274.929C305.967 274.771 304.526 278.102 304.389 282.369C304.253 286.636 305.472 290.224 307.113 290.382C308.753 290.54 310.194 287.208 310.33 282.941Z" fill="#200100"/>
<path d="M342.089 301.955C340.689 299.479 339.112 297.322 337.399 295.536C336.666 294.88 335.853 294.544 335.029 294.556C334.099 294.445 333.072 294.778 331.799 294.887C332.402 292.942 333.395 291.447 334.59 290.684C335.242 290.238 335.94 290.033 336.64 290.084C337.341 290.134 338.027 290.438 338.655 290.975C339.846 292.016 340.813 293.692 341.413 295.756C342.006 297.649 342.243 299.817 342.089 301.955Z" fill="#200100"/>
<path d="M241.325 292.255C241.308 290.1 241.681 287.991 242.392 286.224C243.12 284.286 244.188 282.805 245.438 281.998C246.097 281.586 246.798 281.416 247.497 281.501C248.196 281.585 248.877 281.922 249.497 282.49C250.635 283.478 251.527 285.154 252.003 287.202C250.744 286.851 249.745 286.323 248.813 286.254C247.995 286.083 247.166 286.261 246.396 286.772C244.578 288.22 242.874 290.062 241.325 292.255Z" fill="#200100"/>
<path d="M262.441 227.415C275.115 227.723 273.077 211.387 274.685 198.095C274.685 198.095 282.22 228.255 297.191 200.261C300.6 193.887 298.688 241.997 316.156 208.423C318.861 203.224 321.077 217.741 324.512 229.302C326.573 236.238 329.073 242.11 332.38 242.021L332.113 285.038C332.113 285.038 367.675 179.949 290.998 158.588C282.733 156.601 274.313 158.743 266.725 164.761C228.719 198.7 240.996 263.19 255.029 291.263C255.029 291.263 248.168 227.067 262.441 227.415Z" fill="#200100"/>
<path d="M287.846 163.299L281.744 148.579C281.744 148.579 267.198 151.282 275.643 142.065C284.088 132.848 285.69 140.297 285.603 143.024L287.846 163.299Z" fill="#200100"/>
<path d="M415.36 878.065L421.534 957.595C421.855 961.902 421.613 966.279 420.826 970.401C420.039 974.524 418.728 978.287 416.989 981.412L398.682 1015.11C398.166 1016.03 397.542 1016.74 396.852 1017.2C396.163 1017.66 395.424 1017.85 394.686 1017.77C393.442 1017.76 392.252 1016.89 391.375 1015.37C390.498 1013.84 390.006 1011.77 390.007 1009.61C390.147 1005.51 391.135 1001.63 392.791 998.688L406.818 973.307C406.818 973.307 406.195 936.782 405.641 942.201L398.255 959.079C397.883 959.866 397.41 960.492 396.875 960.908C396.339 961.324 395.755 961.519 395.168 961.478C394.582 961.436 394.009 961.158 393.494 960.667C392.98 960.176 392.539 959.485 392.205 958.648C391.817 957.649 391.642 956.446 391.71 955.248C392.026 950.84 392.949 946.629 394.402 942.972L396.476 937.709C396.476 937.709 393.47 896.71 399.514 876.603L415.36 878.065Z" fill="#B86A4B"/>
<path d="M405.575 615.491L418.073 915.679L396.875 899.135L369.861 642.586L405.575 615.491Z" fill="#B86A4B"/>
<path d="M352.896 734.768L350.104 736.23L350.526 738.651L353.317 737.189L352.896 734.768Z" fill="#200100"/>
<path d="M362.975 809.864L362.086 804.776L364.878 803.314L365.766 808.401L362.975 809.864ZM361.198 799.694L360.309 794.611L363.1 793.139L363.989 798.222L361.198 799.694ZM359.417 789.519L358.529 784.432L361.32 782.969L362.209 788.057L359.417 789.519ZM357.64 779.344L356.751 774.257L359.543 772.795L360.431 777.882L357.64 779.344ZM355.863 769.169L354.974 764.082L357.765 762.62L358.654 767.707L355.863 769.169ZM354.083 759L353.194 753.912L355.985 752.45L356.874 757.538L354.083 759ZM352.305 748.825L351.417 743.737L354.208 742.275L355.096 747.363L352.305 748.825Z" fill="#200100"/>
<path d="M366.655 813.483L363.864 814.955L364.288 817.375L367.08 815.903L366.655 813.483Z" fill="#200100"/>
<path d="M408.558 663.5L401.486 503.322C400.894 489.946 398.477 477.005 394.435 465.566C390.393 454.127 384.842 444.518 378.238 437.529C370.495 429.297 362.098 423.078 353.315 419.068C339.696 413.465 325.743 410.662 311.746 410.715C311.746 410.715 297.046 481.118 276.046 410.715L247.07 427.645C238.741 432.512 231.079 440.299 224.56 450.523C218.042 460.747 212.807 473.189 209.182 487.073L177.869 576.411V681.789L244.934 578.775L270.446 677.763H347.446L364.454 576.411L370.65 663.501L408.558 663.5Z" fill="#DF382B"/>
<path d="M229.146 523.604C232.676 531.914 235.756 540.773 238.346 550.065C241.053 559.258 243.258 568.87 244.934 578.774C241.399 570.47 238.319 561.611 235.735 552.313C233.033 543.115 230.828 533.505 229.146 523.604Z" fill="#B7251D"/>
<path d="M364.456 576.409C365.519 564.134 367.124 552.019 369.257 540.171C371.264 528.255 373.802 516.627 376.848 505.394C375.791 517.672 374.186 529.788 372.047 541.635C370.034 553.547 367.497 565.172 364.456 576.409Z" fill="#B7251D"/>
<path d="M167.715 389.029L145.873 413.671L138.544 645.099C138.237 653.242 139.287 661.366 141.568 668.503C143.848 675.641 147.264 681.491 151.408 685.358C155.552 689.224 160.249 690.943 164.941 690.311C169.633 689.679 174.12 686.721 177.87 681.791C186.56 647.896 189.293 610.309 185.727 573.734L167.715 389.029Z" fill="#B86A4B"/>
<path d="M169.902 430.019C169.902 430.019 175.654 415.42 172.667 376.768C169.679 338.116 164.952 308.251 163.416 335.612L162.444 356.496C162.444 356.496 152.79 329.986 147.836 313.32C146.562 308.863 144.497 305.234 141.944 302.966C139.392 300.698 136.486 299.911 133.657 300.722C128.372 302.442 125.896 308.561 129.445 329.625C134.753 361.13 143.156 409.506 145.78 416.62C146.688 419.084 169.902 430.019 169.902 430.019Z" fill="#B86A4B"/>
<path d="M167.535 373.312C166.351 370.866 165.331 368.193 164.497 365.345C163.651 362.518 162.964 359.555 162.446 356.499C163.782 358.742 164.889 361.363 165.72 364.249C166.58 367.097 167.192 370.152 167.535 373.312Z" fill="#160B07"/>
<path d="M368.835 1614.94L381.362 1123.7L382.433 832.21C390.274 855.75 384.394 797.286 370.649 743.911C364.636 719.655 356.578 697.083 346.739 676.935H269.739L248.52 742.812C233.851 788.35 224.012 838.081 219.469 889.643L165.706 1570.47L161.304 1614.94L117.982 1670.48C117.982 1670.48 168.907 1702.34 194.632 1655L189.382 1613.12L303.252 840.806H307.413L340.757 1613.12L335.507 1655C361.232 1702.34 412.157 1670.48 412.157 1670.48L368.835 1614.94Z" fill="#B86A4B"/>
<path d="M428.958 1701.43C428.958 1701.43 371.733 1703.29 358.083 1680.97V1701.47H332.883C332.883 1701.47 324.966 1628.39 338.375 1632.14C351.783 1635.88 399.513 1699.07 400.586 1655.64L419.31 1672.36C422.216 1674.95 424.654 1678.88 426.356 1683.72C428.058 1688.56 428.958 1694.12 428.958 1699.79V1701.43Z" fill="#DF382B"/>
<path d="M270.058 676.935L248.838 742.812C234.17 788.35 224.331 838.081 219.787 889.643L199.147 1123.59L384.943 1123.7L389.361 914.165C390.808 855.723 384.516 797.483 370.968 743.912C364.955 719.656 356.897 697.083 347.057 676.935L270.058 676.935Z" fill="#4285F4"/>
<path d="M101.183 1701.43C101.183 1701.43 158.408 1703.29 172.058 1680.97V1701.47H197.258C197.258 1701.47 205.175 1628.39 191.766 1632.14C178.358 1635.88 130.628 1699.07 129.556 1655.64L110.831 1672.36C107.925 1674.95 105.487 1678.88 103.785 1683.72C102.083 1688.56 101.183 1694.12 101.183 1699.79V1701.43Z" fill="#DF382B"/>
<path d="M810.104 359.107C808.24 360.922 806.215 362.189 804.111 362.856C802.011 363.581 799.868 363.862 797.728 363.69C795.563 363.454 793.429 362.666 791.395 361.354C789.361 360.008 787.54 357.84 786.085 355.029C788.035 356.057 790.015 356.901 792.017 357.558C793.977 358.05 795.918 358.465 797.895 358.645C801.86 359.045 805.839 358.857 810.104 359.107Z" fill="#200100"/>
<path d="M803.934 270.029C805.145 273.12 806.092 276.498 806.746 280.058C807.464 283.653 807.867 287.414 807.942 291.216C807.969 293.299 807.793 295.376 807.422 297.358C807.199 298.566 806.802 299.657 806.27 300.528C805.737 301.399 805.086 302.021 804.377 302.337C803.125 302.67 801.845 302.224 800.764 301.077C799.8 300.15 798.925 298.97 798.169 297.578C799.952 298.745 801.88 299.076 803.76 298.539C804.781 297.748 805.092 294.614 805.027 291.271C804.965 287.808 804.801 284.354 804.534 280.92C804.294 277.379 804.036 273.793 803.934 270.029Z" fill="#200100"/>
<path d="M834.321 250.554C834.321 250.554 824.776 232.167 813.173 246.66L834.321 250.554Z" fill="#200100"/>
<path d="M795.327 247.151C795.327 247.151 785.366 229.441 774.107 244.728L795.327 247.151Z" fill="#200100"/>
<path d="M820.005 280.929C821.647 280.864 822.934 277.347 822.877 273.075C822.821 268.802 821.444 265.391 819.802 265.456C818.159 265.521 816.873 269.037 816.929 273.31C816.985 277.582 818.362 280.993 820.005 280.929Z" fill="#200100"/>
<path d="M786.036 280.145C787.678 280.08 788.964 276.564 788.908 272.292C788.852 268.019 787.475 264.608 785.833 264.673C784.19 264.737 782.904 268.254 782.96 272.526C783.016 276.799 784.393 280.21 786.036 280.145Z" fill="#200100"/>
<path d="M821.57 106.311C820.991 106.31 820.414 106.172 819.856 105.901C818.532 104.99 817.329 103.621 816.321 101.877C815.312 100.132 814.52 98.0498 813.991 95.7563C813.849 95.1351 813.855 94.4418 814.007 93.8279C814.159 93.2139 814.445 92.7292 814.802 92.4794C815.159 92.2296 815.559 92.235 815.914 92.4946C816.269 92.7541 816.551 93.2467 816.697 93.8647C816.711 93.924 818.124 99.8264 820.65 101.037C821.42 101.274 822.21 101.199 822.96 100.818C823.709 100.436 824.398 99.759 824.971 98.8386C825.28 98.4352 825.669 98.2611 826.052 98.3546C826.435 98.4482 826.781 98.8017 827.013 99.3375C827.246 99.8733 827.347 100.547 827.293 101.212C827.239 101.876 827.035 102.475 826.726 102.879C825.271 104.971 823.459 106.177 821.57 106.311Z" fill="#560D0D"/>
<path d="M867.209 149.839C864.845 149.574 862.586 148.046 860.744 145.463C860.446 145.035 860.258 144.419 860.222 143.752C860.185 143.084 860.303 142.418 860.55 141.901C860.797 141.385 861.152 141.059 861.537 140.996C861.922 140.933 862.306 141.138 862.604 141.566C864.124 143.764 866.075 144.859 868.05 144.623C868.792 144.199 869.468 143.482 870.024 142.528C870.579 141.574 871 140.409 871.251 139.126C871.331 138.824 871.445 138.553 871.585 138.327C871.726 138.102 871.89 137.926 872.07 137.811C872.25 137.696 872.441 137.643 872.632 137.656C872.823 137.669 873.011 137.747 873.185 137.886C873.359 138.025 873.516 138.222 873.646 138.465C873.776 138.709 873.877 138.995 873.943 139.306C874.01 139.617 874.04 139.949 874.033 140.28C874.025 140.612 873.98 140.938 873.9 141.24C873.475 143.246 872.78 145.047 871.873 146.493C870.966 147.94 869.873 148.99 868.685 149.557C868.201 149.747 867.706 149.842 867.209 149.839Z" fill="#560D0D"/>
<path d="M839.464 174.625C837.101 174.361 834.843 172.832 833.001 170.249C832.704 169.821 832.518 169.206 832.482 168.539C832.446 167.872 832.564 167.208 832.811 166.693C833.057 166.177 833.412 165.852 833.796 165.789C834.18 165.726 834.564 165.93 834.861 166.357C836.386 168.537 838.332 169.629 840.304 169.409C841.047 168.985 841.723 168.268 842.278 167.314C842.834 166.36 843.254 165.195 843.506 163.912C843.668 163.303 843.962 162.83 844.325 162.597C844.688 162.365 845.089 162.392 845.44 162.672C845.791 162.952 846.064 163.463 846.198 164.092C846.332 164.721 846.316 165.417 846.155 166.026C845.73 168.032 845.035 169.834 844.128 171.28C843.221 172.727 842.128 173.777 840.94 174.343C840.455 174.533 839.96 174.628 839.464 174.625Z" fill="#560D0D"/>
<path d="M799.801 197.095C797.437 196.831 795.179 195.302 793.338 192.719L795.198 188.827C796.719 191.02 798.668 192.111 800.641 191.874C801.384 191.452 802.06 190.735 802.616 189.781C803.172 188.826 803.592 187.661 803.843 186.377L806.492 188.491C806.067 190.498 805.372 192.299 804.465 193.747C803.558 195.194 802.465 196.246 801.276 196.814C800.792 197.001 800.297 197.096 799.801 197.095Z" fill="#560D0D"/>
<path d="M855.739 224.186C855.101 224.187 854.466 224.021 853.857 223.692C852.547 222.719 851.366 221.293 850.385 219.501C849.404 217.709 848.644 215.589 848.152 213.27C848.085 212.959 848.054 212.628 848.061 212.296C848.068 211.964 848.113 211.638 848.193 211.336C848.272 211.034 848.386 210.762 848.526 210.536C848.666 210.31 848.831 210.134 849.01 210.018C849.19 209.902 849.381 209.849 849.572 209.861C849.764 209.873 849.952 209.951 850.126 210.089C850.3 210.227 850.457 210.424 850.587 210.667C850.718 210.91 850.819 211.196 850.886 211.507C850.897 211.566 852.219 217.533 854.725 218.862C855.491 219.146 856.284 219.114 857.041 218.768C857.798 218.423 858.498 217.773 859.083 216.871C859.24 216.678 859.416 216.539 859.604 216.465C859.791 216.39 859.985 216.38 860.174 216.435C860.363 216.491 860.545 216.61 860.707 216.788C860.87 216.965 861.011 217.196 861.122 217.468C861.233 217.74 861.312 218.047 861.354 218.372C861.397 218.696 861.402 219.033 861.369 219.361C861.336 219.689 861.266 220.003 861.164 220.284C861.061 220.566 860.927 220.809 860.77 221C859.326 222.947 857.567 224.061 855.739 224.186Z" fill="#560D0D"/>
<path d="M783.53 91.6363C782.892 91.6348 782.259 91.4684 781.65 91.1424C780.34 90.1693 779.159 88.7432 778.178 86.9513C777.197 85.1593 776.437 83.0392 775.945 80.7207C775.81 80.0919 775.825 79.396 775.986 78.786C776.147 78.176 776.441 77.702 776.804 77.4682C777.166 77.2344 777.567 77.2599 777.919 77.5392C778.271 77.8185 778.544 78.3286 778.679 78.9574C778.691 79.0166 780.012 84.9832 782.519 86.3118C783.283 86.5867 784.075 86.5499 784.83 86.2045C785.585 85.8591 786.284 85.2145 786.871 84.3214C787.027 84.1234 787.204 83.9811 787.391 83.9028C787.579 83.8244 787.774 83.8115 787.965 83.8648C788.155 83.9181 788.338 84.0365 788.502 84.2133C788.666 84.39 788.808 84.6215 788.92 84.8943C789.033 85.1671 789.112 85.4758 789.155 85.8025C789.198 86.1292 789.202 86.4673 789.169 86.7972C789.136 87.1271 789.065 87.4423 788.961 87.7244C788.857 88.0065 788.722 88.25 788.563 88.4406C787.119 90.3934 785.359 91.5112 783.53 91.6363Z" fill="#560D0D"/>
<path d="M742.231 160.83C741.593 160.831 740.958 160.664 740.348 160.336C739.039 159.361 737.859 157.935 736.878 156.143C735.898 154.351 735.138 152.232 734.646 149.914C734.513 149.286 734.529 148.593 734.691 147.986C734.852 147.378 735.146 146.906 735.507 146.673C735.869 146.44 736.269 146.465 736.62 146.742C736.971 147.019 737.244 147.525 737.38 148.151C737.392 148.21 738.713 154.177 741.217 155.505C741.983 155.785 742.775 155.751 743.532 155.405C744.289 155.06 744.988 154.412 745.575 153.515C745.731 153.323 745.908 153.186 746.095 153.112C746.282 153.038 746.475 153.029 746.664 153.085C746.853 153.14 747.034 153.26 747.196 153.437C747.358 153.614 747.499 153.845 747.609 154.116C747.72 154.388 747.799 154.694 747.842 155.018C747.884 155.342 747.889 155.678 747.857 156.005C747.824 156.333 747.755 156.646 747.653 156.928C747.551 157.209 747.418 157.452 747.261 157.644C745.817 159.591 744.058 160.705 742.231 160.83Z" fill="#560D0D"/>
<path d="M738.002 231.856C737.363 231.857 736.728 231.69 736.119 231.362C734.81 230.388 733.629 228.961 732.649 227.169C731.669 225.377 730.909 223.258 730.417 220.94C730.282 220.312 730.297 219.616 730.458 219.006C730.619 218.396 730.913 217.922 731.275 217.688C731.638 217.454 732.039 217.48 732.391 217.759C732.743 218.038 733.016 218.548 733.151 219.177C733.162 219.236 734.484 225.203 736.988 226.532C737.753 226.813 738.546 226.78 739.303 226.434C740.06 226.088 740.759 225.44 741.346 224.541C741.502 224.349 741.679 224.212 741.865 224.139C742.052 224.065 742.246 224.056 742.434 224.112C742.623 224.168 742.804 224.288 742.966 224.465C743.128 224.642 743.269 224.873 743.379 225.144C743.49 225.415 743.569 225.721 743.611 226.045C743.654 226.369 743.659 226.704 743.627 227.032C743.594 227.359 743.525 227.672 743.423 227.954C743.321 228.235 743.188 228.478 743.032 228.67C741.588 230.617 739.829 231.731 738.002 231.856Z" fill="#560D0D"/>
<path d="M775.947 143.454C773.326 143.062 770.874 141.047 769.04 137.779C768.771 137.296 768.624 136.648 768.631 135.978C768.638 135.307 768.798 134.669 769.077 134.203C769.355 133.737 769.729 133.482 770.115 133.494C770.502 133.506 770.87 133.784 771.139 134.267C772.522 136.707 774.381 138.166 776.351 138.357C777.117 138.081 777.836 137.499 778.45 136.658C779.064 135.817 779.556 134.74 779.889 133.511C780.089 132.939 780.413 132.527 780.788 132.368C781.163 132.208 781.56 132.313 781.89 132.66C782.221 133.007 782.458 133.567 782.551 134.217C782.644 134.868 782.583 135.556 782.384 136.129C781.832 138.04 781.025 139.695 780.031 140.957C779.036 142.219 777.882 143.051 776.665 143.385C776.426 143.43 776.187 143.453 775.947 143.454Z" fill="#560D0D"/>
<path d="M750.86 289.732C750.746 287.586 751.023 285.432 751.652 283.573C752.292 281.544 753.289 279.924 754.499 278.95C755.137 278.449 755.828 278.184 756.529 278.174C757.23 278.164 757.924 278.408 758.567 278.891C759.747 279.72 760.711 281.271 761.277 283.249C760.007 283.069 758.987 282.677 758.055 282.736C757.232 282.678 756.413 282.968 755.668 283.58C753.922 285.269 752.306 287.336 750.86 289.732Z" fill="#200100"/>
<path d="M839.79 232.219C839.79 232.219 825.765 226.212 821.743 186.532C821.743 186.532 820.516 235.305 761.694 230.378L761.15 273.387L747.525 240.01C747.525 240.01 761.135 150.279 807.483 159.399C814.91 161.224 821.955 166.244 827.976 174.002C835.369 183.262 841.563 195.101 846.162 208.758C850.76 222.415 853.661 237.589 854.678 253.305L855.291 261.931C855.291 261.931 845.252 234.048 838.076 283.978L839.79 232.219Z" fill="#200100"/>
<path d="M763.614 195.058C761.25 194.795 758.992 193.266 757.151 190.682C756.854 190.254 756.667 189.639 756.632 188.973C756.596 188.306 756.714 187.642 756.961 187.126C757.207 186.611 757.561 186.286 757.946 186.223C758.33 186.16 758.713 186.364 759.011 186.79C760.526 189.001 762.48 190.096 764.454 189.843C765.198 189.42 765.874 188.703 766.43 187.749C766.986 186.795 767.407 185.63 767.659 184.345C767.82 183.736 768.115 183.263 768.478 183.031C768.84 182.798 769.241 182.825 769.593 183.106C769.944 183.386 770.217 183.897 770.351 184.526C770.485 185.155 770.469 185.85 770.308 186.459C769.882 188.466 769.187 190.268 768.28 191.714C767.372 193.161 766.278 194.211 765.089 194.777C764.605 194.967 764.11 195.061 763.614 195.058Z" fill="#560D0D"/>
<path d="M804.113 193.466C801.75 193.202 799.492 191.673 797.651 189.089C797.355 188.661 797.169 188.046 797.134 187.381C797.098 186.715 797.217 186.052 797.463 185.537C797.709 185.022 798.062 184.698 798.446 184.634C798.83 184.57 799.213 184.773 799.511 185.197C801.036 187.376 802.982 188.467 804.954 188.25C805.696 187.826 806.372 187.109 806.928 186.155C807.483 185.201 807.904 184.036 808.155 182.752C808.317 182.143 808.611 181.671 808.974 181.438C809.337 181.206 809.738 181.232 810.089 181.513C810.44 181.793 810.713 182.304 810.847 182.933C810.981 183.562 810.966 184.258 810.804 184.867C810.38 186.873 809.685 188.675 808.778 190.121C807.87 191.568 806.777 192.618 805.589 193.184C805.105 193.374 804.61 193.469 804.113 193.466Z" fill="#560D0D"/>
<path d="M868.832 273.455C866.468 273.191 864.209 271.662 862.366 269.079C862.07 268.65 861.884 268.035 861.848 267.369C861.812 266.703 861.931 266.039 862.177 265.523C862.423 265.008 862.777 264.682 863.161 264.618C863.545 264.554 863.928 264.757 864.226 265.182C865.749 267.372 867.698 268.466 869.672 268.239C870.415 267.816 871.091 267.098 871.646 266.144C872.202 265.19 872.622 264.026 872.874 262.742C873.035 262.133 873.33 261.66 873.693 261.427C874.055 261.195 874.457 261.222 874.808 261.502C875.159 261.782 875.432 262.293 875.566 262.922C875.7 263.551 875.684 264.247 875.523 264.856C875.098 266.862 874.403 268.663 873.496 270.109C872.589 271.556 871.496 272.607 870.307 273.174C869.823 273.364 869.328 273.458 868.832 273.455Z" fill="#560D0D"/>
<path d="M851.666 285.75C850.158 283.471 848.49 281.534 846.701 279.986C845.941 279.432 845.115 279.207 844.294 279.331C843.362 279.344 842.353 279.818 841.089 280.097C841.603 278.076 842.525 276.451 843.682 275.528C844.312 274.996 844.999 274.698 845.699 274.653C846.399 274.609 847.097 274.818 847.748 275.269C848.982 276.145 850.021 277.685 850.713 279.662C851.39 281.469 851.723 283.598 851.666 285.75Z" fill="#200100"/>
<path d="M848.922 261.453C848.239 248.356 846.871 235.393 844.835 222.725C842.923 210.267 839.969 198.361 836.067 187.388C832.33 176.74 826.957 168.107 820.55 162.455C814.084 157.209 806.916 155.123 799.817 156.419C792.593 157.55 785.585 161.284 779.241 167.381C772.898 173.477 767.357 181.803 762.975 191.826C758.522 202.031 755.394 213.786 753.806 226.284C752.237 239.087 751.786 252.226 752.468 265.262C750.577 252.237 750.076 238.722 750.99 225.385C751.991 211.731 754.824 198.674 759.261 187.262C763.772 175.715 769.708 166.054 776.639 158.977C783.57 151.9 791.321 147.585 799.332 146.345C803.372 145.82 807.434 146.134 811.431 147.281C815.484 148.382 819.406 150.63 823.039 153.934C830.209 160.661 836.088 170.879 839.95 183.328C843.704 195.271 846.292 208.208 847.611 221.616C848.988 234.752 849.428 248.131 848.922 261.453Z" fill="#23893C"/>
<path d="M820.547 310.573C821.681 310.505 822.756 309.675 823.544 308.26C824.333 306.845 824.773 304.954 824.773 302.986C824.773 301.018 824.333 299.127 823.544 297.712C822.756 296.297 821.681 295.468 820.547 295.399C819.413 295.468 818.339 296.297 817.55 297.712C816.762 299.127 816.321 301.018 816.321 302.986C816.321 304.954 816.762 306.845 817.55 308.26C818.339 309.675 819.413 310.505 820.547 310.573Z" fill="#602922"/>
<path d="M783.797 305.717C784.931 305.649 786.006 304.82 786.794 303.405C787.583 301.989 788.023 300.098 788.023 298.131C788.023 296.163 787.583 294.272 786.794 292.857C786.006 291.441 784.931 290.612 783.797 290.544C782.663 290.612 781.589 291.441 780.8 292.857C780.012 294.272 779.571 296.163 779.571 298.131C779.571 300.098 780.012 301.989 780.8 303.405C781.589 304.82 782.663 305.649 783.797 305.717Z" fill="#602922"/>
<path d="M891.532 1702.46C891.532 1702.46 834.307 1704.32 820.657 1681.99V1702.49H795.457C795.457 1702.49 787.54 1629.41 800.948 1633.16C814.357 1636.91 862.087 1700.1 863.159 1656.67L881.884 1673.38C884.79 1675.97 887.228 1679.91 888.93 1684.74C890.631 1689.58 891.532 1695.14 891.532 1700.81V1702.46Z" fill="#FABB05"/>
<path d="M604.588 1702.46C604.588 1702.46 661.813 1704.32 675.463 1681.99V1702.49H700.663C700.663 1702.49 708.58 1629.41 695.172 1633.16C681.763 1636.91 634.033 1700.1 632.961 1656.67L614.236 1673.38C611.33 1675.97 608.893 1679.91 607.191 1684.74C605.489 1689.58 604.588 1695.14 604.588 1700.81V1702.46Z" fill="#FABB05"/>
<path d="M825.823 735.365C825.51 735.365 825.206 735.191 824.954 734.868C824.703 734.545 824.518 734.091 824.427 733.572L823.157 726.311C823.1 725.992 823.079 725.657 823.096 725.325C823.114 724.992 823.169 724.669 823.259 724.373C823.349 724.078 823.472 723.817 823.621 723.604C823.769 723.391 823.94 723.232 824.125 723.135C824.309 723.038 824.503 723.005 824.694 723.038C824.886 723.071 825.072 723.17 825.241 723.328C825.411 723.487 825.561 723.702 825.682 723.961C825.803 724.221 825.894 724.519 825.948 724.839L827.219 732.1C827.285 732.478 827.3 732.878 827.261 733.267C827.222 733.657 827.131 734.025 826.995 734.343C826.86 734.66 826.683 734.918 826.479 735.095C826.276 735.273 826.051 735.365 825.823 735.365L825.823 735.365Z" fill="#B7251D"/>
<path d="M835.135 788.665C834.822 788.665 834.517 788.491 834.266 788.168C834.014 787.845 833.83 787.391 833.739 786.872L831.409 773.546C831.3 772.906 831.341 772.217 831.524 771.63C831.707 771.042 832.016 770.604 832.384 770.41C832.752 770.216 833.149 770.282 833.489 770.593C833.83 770.905 834.085 771.437 834.2 772.074L836.53 785.4C836.597 785.778 836.611 786.178 836.572 786.567C836.534 786.957 836.443 787.325 836.307 787.642C836.171 787.96 835.994 788.218 835.791 788.395C835.587 788.573 835.362 788.665 835.134 788.665H835.135ZM830.478 762.018C830.165 762.018 829.86 761.844 829.609 761.521C829.357 761.198 829.173 760.744 829.082 760.225L826.752 746.899C826.643 746.259 826.684 745.57 826.867 744.983C827.05 744.395 827.359 743.957 827.727 743.763C828.095 743.569 828.492 743.635 828.832 743.946C829.173 744.258 829.428 744.79 829.543 745.427L831.873 758.753C831.94 759.131 831.954 759.531 831.915 759.92C831.876 760.31 831.786 760.678 831.65 760.995C831.514 761.313 831.337 761.571 831.134 761.748C830.93 761.926 830.705 762.018 830.477 762.018L830.478 762.018Z" fill="#B7251D"/>
<path d="M838.732 809.245C838.418 809.245 838.113 809.071 837.862 808.747C837.611 808.423 837.426 807.967 837.336 807.447L836.068 800.186C836.011 799.868 835.991 799.532 836.009 799.2C836.027 798.868 836.082 798.545 836.172 798.25C836.263 797.955 836.386 797.694 836.534 797.482C836.683 797.27 836.855 797.111 837.039 797.014C837.223 796.918 837.417 796.885 837.608 796.919C837.8 796.953 837.985 797.052 838.155 797.211C838.324 797.37 838.473 797.586 838.594 797.846C838.715 798.105 838.806 798.404 838.86 798.724L840.127 805.985C840.183 806.303 840.201 806.637 840.182 806.967C840.163 807.297 840.107 807.618 840.017 807.911C839.926 808.203 839.803 808.462 839.655 808.672C839.507 808.883 839.336 809.04 839.153 809.136C839.016 809.208 838.874 809.245 838.732 809.245Z" fill="#B7251D"/>
<path d="M861.771 513.682C860.09 523.583 857.884 533.193 855.183 542.391C852.599 551.689 849.519 560.548 845.984 568.853C847.659 558.948 849.865 549.336 852.572 540.143C855.162 530.851 858.242 521.992 861.771 513.682Z" fill="#23893C"/>
<path d="M726.461 566.49C723.421 555.252 720.883 543.627 718.871 531.715C716.731 519.869 715.126 507.752 714.07 495.474C717.116 506.708 719.654 518.335 721.661 530.251C723.794 542.099 725.399 554.215 726.461 566.49Z" fill="#23893C"/>
<path d="M815.344 322.724C815.344 322.724 807.233 354.587 790.958 328.186L815.344 322.724Z" fill="#200100"/>
<path d="M1084.62 740.095V1575.23H1020.22L1011.82 846.914H995.019L962.819 1575.23H898.419L926.419 740.095H1084.62Z" fill="#FABB05"/>
<path d="M918.719 436.627C919.32 448.059 919.602 459.488 919.835 470.92C920.102 482.349 920.139 493.781 920.176 505.21C920.143 516.64 920.105 528.071 919.84 539.501L919.433 556.647C919.191 562.362 919.049 568.079 918.719 573.794C918.388 568.079 918.246 562.362 918.004 556.647L917.597 539.501C917.332 528.071 917.294 516.64 917.261 505.21C917.298 493.781 917.335 482.349 917.602 470.92C917.835 459.488 918.117 448.059 918.719 436.627Z" fill="#2C66BF"/>
<path d="M1089.52 442.698C1090.23 463.423 1090.63 484.155 1090.98 504.888C1091.34 525.623 1091.43 546.36 1091.67 567.095C1091.68 587.832 1091.8 608.569 1091.69 629.309L1091.46 660.421C1091.27 670.793 1091.19 681.166 1090.92 691.538C1090.53 681.176 1090.33 670.811 1090.03 660.446L1089.44 629.348C1089.1 608.614 1088.99 587.879 1088.76 567.142C1088.76 546.404 1088.63 525.667 1088.75 504.927C1088.87 484.185 1089.03 463.445 1089.52 442.698Z" fill="#2C66BF"/>
<path d="M948.82 1604.36C948.82 1604.36 966.32 1689.33 951.62 1701.47H936.92C936.92 1701.47 929.92 1667.48 920.12 1701.47H830.52C830.52 1701.47 824.92 1674.76 846.62 1662.63C868.32 1650.49 904.72 1604.36 904.72 1604.36H948.82Z" fill="#34A853"/>
<path d="M951.616 1575.23L948.816 1604.36H904.716V1575.23H951.616Z" fill="#B86A4B"/>
<path d="M1031.05 1604.36C1031.05 1604.36 1013.55 1689.33 1028.25 1701.47H1042.95C1042.95 1701.47 1049.95 1667.48 1059.75 1701.47H1149.35C1149.35 1701.47 1154.95 1674.76 1133.25 1662.63C1111.55 1650.49 1075.15 1604.36 1075.15 1604.36H1031.05Z" fill="#34A853"/>
<path d="M1028.25 1575.23L1031.05 1604.36H1075.15V1575.23H1028.25Z" fill="#B86A4B"/>
<path d="M990.963 844.834C995.646 843.049 1000.43 842.201 1005.23 842.305C1010.02 842.19 1014.81 843.038 1019.49 844.834C1014.81 846.629 1010.02 847.477 1005.23 847.361C1000.43 847.466 995.646 846.618 990.963 844.834Z" fill="#EDA606"/>
<path d="M910.133 561.432L918.719 576.217L919.186 629.214C919.186 629.214 893.462 653.556 885.185 614.432L910.133 561.432Z" fill="#8C4D3E"/>
<path d="M757.423 343.679H745.344V298.757H757.423V343.679ZM747.531 339.886H755.236V302.55H747.531V339.886Z" fill="#FABB05"/>
<path d="M856.383 341.157H844.301V296.235H856.383V341.157ZM846.488 337.364H854.196V300.029H846.488V337.364Z" fill="#FABB05"/>
<path d="M846.482 299.966V294.675H853.826C852.169 299.603 849.572 303.373 846.482 305.334V299.966Z" fill="#8C4D3E"/>
<path d="M755.305 308.536V298.656H748.38C749.948 303.257 752.399 306.755 755.305 308.536Z" fill="#8C4D3E"/>
<path d="M264.112 413.006L267.826 428.649C268.706 432.341 269.019 436.366 268.732 440.33C268.445 444.294 267.569 448.06 266.189 451.259C265.617 452.617 264.951 453.848 264.205 454.923C263.127 456.557 261.9 457.872 260.575 458.815L247.463 468.174C247.003 468.512 246.528 468.784 246.043 468.988C245.173 469.475 244.268 469.75 243.355 469.806C240.557 470.186 237.763 469.015 235.375 466.461C232.987 463.908 231.128 460.105 230.068 455.601L226.354 439.958C225.549 436.557 225.555 432.741 226.37 429.348C227.186 425.954 228.745 423.261 230.705 421.858L253.675 405.462C255.636 404.066 257.837 404.076 259.794 405.49C261.751 406.904 263.304 409.608 264.112 413.006Z" fill="#FED4C0"/>
<path d="M266.188 451.259C265.616 452.618 264.95 453.848 264.204 454.923L256.881 425.164C256.748 424.601 256.748 423.97 256.882 423.407C257.015 422.844 257.271 422.395 257.595 422.158C257.918 421.921 258.282 421.915 258.608 422.14C258.934 422.366 259.196 422.805 259.336 423.363L266.188 451.259Z" fill="#200100"/>
<path d="M259.787 459.375L257.322 461.135L249.781 430.582C249.648 430.015 249.649 429.379 249.785 428.814C249.921 428.249 250.18 427.8 250.506 427.565C250.666 427.447 250.837 427.384 251.01 427.381C251.184 427.378 251.356 427.434 251.517 427.547C251.677 427.66 251.824 427.827 251.947 428.038C252.07 428.25 252.168 428.501 252.235 428.779L259.787 459.375Z" fill="#200100"/>
<path d="M252.541 464.547L250.076 466.306L242.733 436.462C242.662 436.186 242.624 435.888 242.621 435.586C242.618 435.285 242.651 434.985 242.716 434.705C242.781 434.425 242.878 434.171 243.002 433.958C243.125 433.744 243.272 433.576 243.433 433.463L243.458 433.446C243.781 433.222 244.141 433.224 244.463 433.45C244.785 433.676 245.044 434.109 245.187 434.659L252.541 464.547Z" fill="#200100"/>
<path d="M246.042 468.986C245.172 469.473 244.268 469.748 243.354 469.804L235.808 439.107C235.668 438.544 235.662 437.908 235.791 437.338C235.92 436.768 236.174 436.31 236.498 436.064C236.66 435.935 236.835 435.865 237.014 435.858C237.192 435.851 237.369 435.907 237.534 436.023C237.699 436.14 237.849 436.313 237.974 436.533C238.1 436.753 238.197 437.015 238.262 437.303L246.042 468.986Z" fill="#200100"/>
<path d="M864.643 434.173L860.867 449.771C859.98 453.458 858.554 456.68 856.732 459.123C854.909 461.566 852.751 463.146 850.47 463.707C849.512 463.961 848.539 464.01 847.573 463.852C846.144 463.679 844.742 463.098 843.422 462.135L830.348 452.618C829.885 452.291 829.439 451.899 829.013 451.446C828.2 450.72 827.45 449.802 826.783 448.718C824.655 445.548 823.163 441.287 822.522 436.55C821.881 431.814 822.125 426.847 823.218 422.366L826.994 406.768C827.816 403.379 829.38 400.695 831.343 399.304C833.305 397.913 835.506 397.929 837.461 399.35L860.365 416.022C862.32 417.448 863.868 420.16 864.67 423.563C865.472 426.966 865.462 430.782 864.643 434.173Z" fill="#FED4C0"/>
<path d="M850.47 463.706C849.511 463.961 848.538 464.01 847.573 463.851L854.573 433.859C854.709 433.299 854.968 432.855 855.292 432.622C855.616 432.39 855.98 432.389 856.304 432.619C856.629 432.849 856.888 433.291 857.026 433.851C857.164 434.41 857.169 435.041 857.04 435.607L850.47 463.706Z" fill="#200100"/>
<path d="M842.635 461.563L840.178 459.774L847.349 428.954C847.486 428.39 847.747 427.944 848.074 427.712C848.401 427.481 848.767 427.483 849.093 427.718C849.254 427.83 849.401 427.997 849.524 428.208C849.648 428.419 849.746 428.67 849.813 428.947C849.881 429.225 849.916 429.522 849.916 429.823C849.917 430.124 849.883 430.422 849.817 430.7L842.635 461.563Z" fill="#200100"/>
<path d="M835.409 456.302L832.952 454.513L839.972 424.436C840.035 424.154 840.13 423.898 840.251 423.681C840.373 423.465 840.518 423.293 840.679 423.176C840.839 423.059 841.012 422.999 841.186 423C841.36 423.001 841.532 423.063 841.692 423.182L841.717 423.2C842.036 423.439 842.289 423.883 842.424 424.438C842.559 424.994 842.565 425.618 842.44 426.181L835.409 456.302Z" fill="#200100"/>
<path d="M829.013 451.444C828.2 450.718 827.449 449.8 826.782 448.716L834.009 417.788C834.14 417.22 834.395 416.764 834.72 416.521C835.044 416.277 835.41 416.267 835.739 416.49C835.906 416.599 836.059 416.765 836.187 416.979C836.316 417.194 836.418 417.451 836.487 417.736C836.556 418.021 836.591 418.327 836.589 418.637C836.587 418.946 836.549 419.251 836.477 419.534L829.013 451.444Z" fill="#200100"/>
<path d="M1085.57 324.286L1081.79 339.884C1080.91 343.571 1079.48 346.794 1077.66 349.237C1075.84 351.68 1073.68 353.259 1071.4 353.82C1070.44 354.075 1069.47 354.124 1068.5 353.965C1067.07 353.792 1065.67 353.212 1064.35 352.248L1051.27 342.731C1050.81 342.404 1050.37 342.012 1049.94 341.559C1049.13 340.833 1048.38 339.915 1047.71 338.832C1045.58 335.661 1044.09 331.4 1043.45 326.663C1042.81 321.927 1043.05 316.96 1044.15 312.479L1047.92 296.881C1048.74 293.492 1050.31 290.808 1052.27 289.417C1054.23 288.026 1056.43 288.043 1058.39 289.463L1081.29 306.135C1083.25 307.561 1084.79 310.273 1085.6 313.676C1086.4 317.079 1086.39 320.895 1085.57 324.286Z" fill="#8C4D3E"/>
<path d="M1071.4 353.819C1070.44 354.074 1069.47 354.123 1068.5 353.964L1075.5 323.973C1075.64 323.412 1075.89 322.968 1076.22 322.736C1076.54 322.503 1076.91 322.502 1077.23 322.732C1077.56 322.962 1077.82 323.405 1077.95 323.964C1078.09 324.523 1078.1 325.154 1077.97 325.72L1071.4 353.819Z" fill="#200100"/>
<path d="M1063.56 351.676L1061.1 349.887L1068.28 319.068C1068.41 318.504 1068.67 318.057 1069 317.826C1069.33 317.594 1069.69 317.596 1070.02 317.831C1070.18 317.944 1070.33 318.11 1070.45 318.321C1070.58 318.532 1070.67 318.783 1070.74 319.061C1070.81 319.338 1070.84 319.635 1070.84 319.936C1070.84 320.237 1070.81 320.535 1070.74 320.813L1063.56 351.676Z" fill="#200100"/>
<path d="M1056.34 346.415L1053.88 344.627L1060.9 314.549C1060.97 314.268 1061.06 314.011 1061.18 313.795C1061.3 313.578 1061.45 313.406 1061.61 313.289C1061.77 313.172 1061.94 313.112 1062.12 313.113C1062.29 313.114 1062.46 313.176 1062.62 313.295L1062.65 313.313C1062.97 313.552 1063.22 313.996 1063.35 314.552C1063.49 315.107 1063.5 315.731 1063.37 316.294L1056.34 346.415Z" fill="#200100"/>
<path d="M1049.94 341.557C1049.13 340.831 1048.38 339.913 1047.71 338.83L1054.94 307.902C1055.07 307.333 1055.32 306.877 1055.65 306.634C1055.97 306.391 1056.34 306.38 1056.67 306.604C1056.83 306.712 1056.99 306.878 1057.11 307.093C1057.24 307.307 1057.34 307.564 1057.41 307.849C1057.48 308.134 1057.52 308.441 1057.52 308.75C1057.51 309.059 1057.48 309.364 1057.4 309.647L1049.94 341.557Z" fill="#200100"/>
<path d="M755.194 394.321L758.703 410.105C759.536 413.83 759.796 417.867 759.457 421.818C759.119 425.77 758.194 429.501 756.773 432.646C756.184 433.981 755.502 435.185 754.742 436.231C753.643 437.823 752.4 439.089 751.063 439.98L737.833 448.825C737.368 449.144 736.89 449.398 736.402 449.583C735.526 450.036 734.618 450.276 733.704 450.296C730.902 450.567 728.124 449.287 725.77 446.641C723.415 443.995 721.607 440.12 720.605 435.576L717.096 419.792C716.335 416.36 716.39 412.545 717.249 409.185C718.109 405.824 719.702 403.192 721.68 401.867L744.857 386.372C746.836 385.052 749.036 385.148 750.974 386.639C752.912 388.129 754.43 390.892 755.194 394.321Z" fill="#B86A4B"/>
<path d="M756.775 432.646C756.186 433.982 755.503 435.186 754.744 436.232L747.809 406.194C747.683 405.626 747.691 404.995 747.832 404.437C747.973 403.88 748.235 403.441 748.561 403.217C748.888 402.992 749.252 403 749.575 403.238C749.898 403.477 750.154 403.926 750.287 404.49L756.775 432.646Z" fill="#200100"/>
<path d="M750.267 440.512L747.78 442.174L740.638 411.335C740.512 410.763 740.522 410.127 740.665 409.568C740.808 409.008 741.073 408.569 741.402 408.347C741.563 408.235 741.735 408.179 741.909 408.183C742.082 408.186 742.253 408.25 742.413 408.369C742.572 408.488 742.716 408.66 742.837 408.877C742.957 409.093 743.052 409.348 743.115 409.628L750.267 440.512Z" fill="#200100"/>
<path d="M742.955 445.4L740.468 447.063L733.514 416.939C733.447 416.661 733.413 416.362 733.414 416.06C733.415 415.758 733.451 415.459 733.52 415.182C733.589 414.905 733.689 414.655 733.815 414.446C733.941 414.238 734.09 414.075 734.253 413.969L734.278 413.952C734.603 413.741 734.963 413.757 735.282 413.996C735.602 414.234 735.855 414.678 735.991 415.233L742.955 445.4Z" fill="#200100"/>
<path d="M736.403 449.585C735.527 450.037 734.619 450.277 733.705 450.298L726.559 419.313C726.426 418.745 726.428 418.11 726.565 417.545C726.702 416.98 726.962 416.532 727.288 416.298C727.452 416.175 727.628 416.112 727.806 416.112C727.985 416.112 728.161 416.176 728.325 416.298C728.488 416.421 728.636 416.6 728.758 416.825C728.88 417.05 728.975 417.316 729.036 417.606L736.403 449.585Z" fill="#200100"/>
<path d="M0 1701.47H1260" stroke="#020202" stroke-width="1.91902" stroke-miterlimit="10"/>
</g>
<defs>
<clipPath id="clip0_503_1133">
<rect width="1260" height="1704" fill="white"/>
</clipPath>
</defs>
</svg>
