<svg width="51" height="50" viewBox="0 0 51 50" fill="none" xmlns="http://www.w3.org/2000/svg">
<path d="M41.5182 16.1894C40.986 15.9845 40.4494 15.7946 39.9088 15.6199C39.9996 15.2033 40.0832 14.7916 40.1574 14.3872C41.3758 7.74667 40.5793 2.39689 37.8588 0.635488C35.2504 -1.05311 30.9846 0.707637 26.6764 4.91751C26.2518 5.33315 25.8366 5.76077 25.4312 6.19996C25.1599 5.90791 24.8837 5.62153 24.6029 5.34097C20.0877 0.839655 15.5619 -1.05749 12.8443 0.708953C10.2383 2.40281 9.4666 7.43198 10.5635 13.7254C10.6726 14.3487 10.7958 14.9688 10.933 15.5851C10.2924 15.7894 9.67422 16.007 9.08262 16.2386C3.78887 18.3109 0.408203 21.5585 0.408203 24.9272C0.408203 28.4063 4.0375 31.896 9.55117 34.012C9.99818 34.1829 10.4489 34.3412 10.9029 34.4868C10.7555 35.1506 10.6246 35.8188 10.5104 36.4908C9.46465 42.675 10.2812 47.5853 12.8803 49.2684C15.5646 51.0065 20.0701 49.2201 24.457 44.9142C24.8128 44.5642 25.1607 44.2042 25.5004 43.8346C25.9394 44.3102 26.3901 44.7719 26.852 45.2193C31.1016 49.325 35.2984 50.9829 37.8949 49.2951C40.5768 47.5519 41.4484 42.2769 40.3168 35.8592C40.2276 35.3564 40.1277 34.8561 40.017 34.3587C40.3334 34.2535 40.6439 34.1451 40.9467 34.0324C46.6787 31.9002 50.4082 28.4528 50.4082 24.9272C50.4082 21.5462 46.9184 18.2767 41.5182 16.1894ZM40.275 31.7561C40.0016 31.8576 39.7211 31.9557 39.4352 32.0511C38.8023 29.8017 37.9484 27.4101 36.9033 24.9388C37.9006 22.5265 38.7217 20.1653 39.3367 17.9307C39.8482 18.0969 40.3445 18.2721 40.823 18.457C45.45 20.2456 48.2723 22.8897 48.2723 24.9272C48.2723 27.0973 45.2242 29.9147 40.275 31.7561ZM38.2215 36.325C38.7219 39.1627 38.7932 41.7285 38.4617 43.7344C38.1641 45.5368 37.5652 46.7383 36.8246 47.2197C35.249 48.2438 31.8793 46.9127 28.2451 43.4013C27.8155 42.9854 27.3963 42.5561 26.9879 42.114C28.3969 40.384 29.8049 38.3728 31.1791 36.139C33.5963 35.8982 35.8799 35.5044 37.9508 34.9669C38.0505 35.4171 38.1408 35.8699 38.2215 36.325ZM17.4543 47.0427C15.9148 47.653 14.6887 47.6706 13.9475 47.1908C12.3703 46.1695 11.7146 42.2267 12.609 36.9381C12.7153 36.3132 12.837 35.6917 12.974 35.0743C15.0221 35.5831 17.2891 35.9489 19.7119 36.1695C21.0955 38.3552 22.5441 40.3642 24.0041 42.1234C23.6938 42.4605 23.3762 42.789 23.0516 43.1085C21.1115 45.0125 19.1676 46.3633 17.4543 47.0427ZM10.2422 31.7427C7.8041 30.807 5.79063 29.591 4.41055 28.264C3.17031 27.0717 2.54434 25.8877 2.54434 24.9272C2.54434 22.8829 5.25859 20.2754 9.78574 18.5033C10.3352 18.2883 10.9102 18.0855 11.5068 17.8951C12.1326 20.1802 12.9533 22.5695 13.9438 24.9855C12.9404 27.4372 12.108 29.8647 11.4762 32.1767C11.0617 32.0434 10.6503 31.8987 10.2422 31.7427ZM12.6598 13.2647C11.7201 7.87277 12.3441 3.80544 13.9146 2.78461C15.5873 1.69733 19.2861 3.24755 23.1848 7.13439C23.439 7.38842 23.6891 7.6476 23.935 7.9118C22.4822 9.66334 21.0469 11.6574 19.6756 13.8302C17.324 14.075 15.073 14.4679 13.0035 14.9945C12.876 14.4213 12.7614 13.8446 12.6598 13.2649V13.2647ZM34.2275 19.2445C33.7387 18.2964 33.2318 17.3603 32.707 16.4368C34.3023 16.6633 35.8309 16.964 37.2662 17.3315C36.8354 18.8824 36.2982 20.5037 35.666 22.166C35.2039 21.1815 34.7243 20.2075 34.2275 19.2445ZM25.4322 9.62584C26.4174 10.8243 27.4041 12.1622 28.3746 13.614C26.4059 13.5096 24.4338 13.5092 22.465 13.6127C23.4365 12.1743 24.4316 10.8381 25.4322 9.62584ZM16.5805 19.2609C16.0899 20.2162 15.6193 21.1841 15.1689 22.164C14.5471 20.5076 14.0148 18.8789 13.5803 17.3061C15.0068 16.9478 16.5281 16.6548 18.1133 16.4324C17.5827 17.3616 17.0716 18.3046 16.5805 19.2607V19.2609ZM18.1588 33.5925C16.5211 33.3872 14.977 33.1094 13.5508 32.7607C13.9922 31.1598 14.5361 29.4965 15.1715 27.8046C15.6236 28.7852 16.0962 29.7537 16.5889 30.7094C17.0955 31.6919 17.6201 32.6541 18.1588 33.5925ZM25.4912 40.3973C24.4787 39.171 23.4689 37.8142 22.4828 36.355C23.4402 36.3971 24.4162 36.4186 25.4082 36.4186C26.4273 36.4186 27.4348 36.3929 28.4264 36.3434C27.4527 37.8289 26.4697 39.1877 25.4912 40.3973ZM35.6861 27.7182C36.3545 29.4287 36.9178 31.0833 37.365 32.6568C35.9154 33.0283 34.3502 33.3274 32.701 33.5495C33.2295 32.6089 33.7412 31.6565 34.2359 30.6929C34.7389 29.7136 35.2225 28.7217 35.6861 27.7182ZM32.3857 29.4947C31.6284 30.972 30.8284 32.4212 29.9871 33.8401C28.4632 33.9613 26.9359 34.0215 25.4082 34.0206C23.8521 34.0206 22.3387 33.9662 20.8813 33.8601C20.018 32.4444 19.2028 30.9927 18.4373 29.5079H18.4375C17.6756 28.0309 16.964 26.522 16.3041 24.9844C16.9623 23.4464 17.6718 21.9368 18.4311 20.4587L18.4309 20.459C19.1898 18.9805 19.9986 17.5349 20.8553 16.1254C22.3422 15.9991 23.867 15.9333 25.408 15.9333H25.4082C26.9562 15.9333 28.483 15.9997 29.9695 16.1269C30.8176 17.5344 31.6212 18.975 32.3787 20.446C33.1405 21.9208 33.8594 23.4231 34.5342 24.9504C33.8663 26.4933 33.1497 28.0091 32.3857 29.4947ZM36.792 2.71312C38.4662 3.79733 39.1174 8.16948 38.0654 13.903C37.9982 14.2688 37.9229 14.6414 37.8408 15.0193C35.7662 14.4815 33.5137 14.0818 31.1553 13.8333C29.7814 11.6366 28.3578 9.63944 26.9287 7.91049C27.3032 7.50512 27.6867 7.11026 28.0787 6.72628C31.7701 3.11948 35.2201 1.69536 36.792 2.71312ZM25.4082 19.914C27.874 19.914 29.873 22.1585 29.873 24.9272C29.873 27.6958 27.874 29.9403 25.4082 29.9403C22.9424 29.9403 20.9434 27.6958 20.9434 24.9272C20.9434 22.1585 22.9424 19.914 25.4082 19.914Z" fill="#00D8FF"/>
</svg>
